#2_springboard_(3)_853_36.obj

v -0.4368089 0.07638634 -1.508404
v -0.4368089 3.492821E-07 -1.794118
v 0.4368091 3.492821E-07 -1.794118
v 0.4368091 0.07638634 -1.508403
v -0.436809 0.9072319 -3.655118E-06
v -0.436809 0.7037218 -0.2857183
v 0.436809 0.7037218 -0.2857178
v 0.436809 0.9072319 -3.655118E-06
v -0.436809 0.7037218 -0.2857183
v -0.4368089 0.5272276 -0.5714324
v 0.4368091 0.5272276 -0.5714324
v 0.436809 0.7037218 -0.2857178
v -0.4368089 0.5272276 -0.5714324
v -0.4368089 0.3707151 -0.8571466
v 0.4368091 0.3707151 -0.8571466
v 0.4368091 0.5272276 -0.5714324
v 0.4368091 0.2306148 -1.142861
v -0.4368089 0.2306148 -1.142861
v 0.4368091 0.1447137 -1.320485
v -0.4368089 0.1447137 -1.320485
v -0.4368089 0.1447137 -1.320485
v -0.4368089 0.07638634 -1.508404
v 0.4368091 0.07638634 -1.508403
v 0.4368091 0.1447137 -1.320485
v -0.436809 -7.522614E-16 -4.112007E-06
v 0.436809 -1.053166E-15 -3.655118E-06
v 0.4368091 3.492821E-07 -1.794118
v -0.4368089 3.492821E-07 -1.794118
v -0.436809 -7.522614E-16 -4.112007E-06
v -0.436809 0.9072319 -3.655118E-06
v 0.436809 0.9072319 -3.655118E-06
v 0.436809 -1.053166E-15 -3.655118E-06
v 0.436809 -1.053166E-15 -3.655118E-06
v 0.436809 0.9072319 -3.655118E-06
v 0.436809 0.7037218 -0.2857178
v 0.4368091 0.5272276 -0.5714324
v 0.4368091 0.3707151 -0.8571466
v 0.4368091 0.2306148 -1.142861
v 0.4368091 0.1447137 -1.320485
v 0.4368091 0.07638634 -1.508403
v 0.4368091 3.492821E-07 -1.794118
v -0.436809 -7.522614E-16 -4.112007E-06
v -0.4368089 3.492821E-07 -1.794118
v -0.4368089 0.07638634 -1.508404
v -0.4368089 0.1447137 -1.320485
v -0.4368089 0.2306148 -1.142861
v -0.4368089 0.3707151 -0.8571466
v -0.4368089 0.5272276 -0.5714324
v -0.436809 0.7037218 -0.2857183
v -0.436809 0.9072319 -3.655118E-06

vn -0.1857423 0.9825985 -2.21422E-08
vn -0.1857423 0.9825985 -2.21422E-08
vn -0.1857423 0.9825985 -2.21422E-08
vn -0.1857423 0.9825985 -2.21422E-08
vn -0.4498014 0.8931286 -5.362049E-08
vn -0.4498014 0.8931286 -5.362049E-08
vn -0.4498014 0.8931286 -5.362049E-08
vn -0.4498014 0.8931286 -5.362049E-08
vn -0.4002559 0.9164034 -4.771421E-08
vn -0.4002559 0.9164034 -4.771421E-08
vn -0.4002559 0.9164034 -4.771421E-08
vn -0.4002559 0.9164034 -4.771421E-08
vn -0.3611751 0.932498 -4.305542E-08
vn -0.3611751 0.932498 -4.305542E-08
vn -0.3611751 0.932498 -4.305542E-08
vn -0.3611751 0.932498 -4.305542E-08
vn -0.3275753 0.9448251 -3.905002E-08
vn -0.3275753 0.9448251 -3.905002E-08
vn -0.3235477 0.9462119 -3.856988E-08
vn -0.3235477 0.9462119 -3.856988E-08
vn -0.2489893 0.9685063 -2.968183E-08
vn -0.2489893 0.9685063 -2.968183E-08
vn -0.2489893 0.9685063 -2.968183E-08
vn -0.2489893 0.9685063 -2.968183E-08
vn 0 -1 0
vn 0 -1 0
vn 0 -1 0
vn 0 -1 0
vn 1 0 1.192093E-07
vn 1 0 1.192093E-07
vn 1 0 1.192093E-07
vn 1 0 1.192093E-07
vn 1.192093E-07 0 -1
vn 1.192093E-07 0 -1
vn 1.192093E-07 0 -1
vn 1.192093E-07 0 -1
vn 1.192093E-07 0 -1
vn 1.192093E-07 0 -1
vn 1.192093E-07 0 -1
vn 1.192093E-07 0 -1
vn 1.192093E-07 0 -1
vn -1.192093E-07 0 1
vn -1.192093E-07 0 1
vn -1.192093E-07 0 1
vn -1.192093E-07 0 1
vn -1.192093E-07 0 1
vn -1.192093E-07 0 1
vn -1.192093E-07 0 1
vn -1.192093E-07 0 1
vn -1.192093E-07 0 1

vt 0.6079102 0.3312988
vt 0.6079102 0.3852539
vt 0.9902344 0.3852539
vt 0.9902344 0.3312988
vt 0.6079102 0.01507568
vt 0.6079102 0.07922363
vt 0.9902344 0.07922363
vt 0.9902344 0.01507568
vt 0.6079102 0.07922363
vt 0.6079102 0.140625
vt 0.9902344 0.140625
vt 0.9902344 0.07922363
vt 0.6079102 0.140625
vt 0.6079102 0.2001953
vt 0.9902344 0.2001953
vt 0.9902344 0.140625
vt 0.9902344 0.2583008
vt 0.6079102 0.2583008
vt 0.9902344 0.2944336
vt 0.6079102 0.2944336
vt 0.6079102 0.2944336
vt 0.6079102 0.3312988
vt 0.9902344 0.3312988
vt 0.9902344 0.2944336
vt 0.2851563 0.2077637
vt 0.4907227 0.2077637
vt 0.4907227 0.02348328
vt 0.2851563 0.02348328
vt 0.2851563 0.2077637
vt 0.2851563 0.3010254
vt 0.4907227 0.3010254
vt 0.4907227 0.2077637
vt 0.4208984 0.04797363
vt 0.2590332 0.1185303
vt 0.3151855 0.1573486
vt 0.3713379 0.19104
vt 0.4213867 0.2298584
vt 0.46875 0.2700195
vt 0.4978027 0.295166
vt 0.5253906 0.322998
vt 0.5605469 0.3684082
vt 0.4475098 0.3857422
vt 0.5454102 0.03598022
vt 0.515625 0.08776855
vt 0.4912109 0.1204224
vt 0.4648438 0.1503906
vt 0.4221191 0.1984863
vt 0.3759766 0.2456055
vt 0.322998 0.2883301
vt 0.270752 0.3364258

g 2_springboard_(3)_853_36
usemtl 2_springboard_(3)_853_36
usemap 2_springboard_(3)_853_36
f 1/1/1 3/3/3 2/2/2
f 1/1/1 4/4/4 3/3/3
f 5/5/5 7/7/7 6/6/6
f 5/5/5 8/8/8 7/7/7
f 9/9/9 11/11/11 10/10/10
f 9/9/9 12/12/12 11/11/11
f 13/13/13 15/15/15 14/14/14
f 13/13/13 16/16/16 15/15/15
f 14/14/14 15/15/15 17/17/17
f 14/14/14 17/17/17 18/18/18
f 18/18/18 17/17/17 19/19/19
f 18/18/18 19/19/19 20/20/20
f 21/21/21 23/23/23 22/22/22
f 21/21/21 24/24/24 23/23/23
f 25/25/25 27/27/27 26/26/26
f 25/25/25 28/28/28 27/27/27
f 29/29/29 31/31/31 30/30/30
f 29/29/29 32/32/32 31/31/31
f 33/33/33 35/35/35 34/34/34
f 35/35/35 33/33/33 36/36/36
f 36/36/36 33/33/33 37/37/37
f 37/37/37 33/33/33 38/38/38
f 38/38/38 33/33/33 39/39/39
f 39/39/39 33/33/33 40/40/40
f 40/40/40 33/33/33 41/41/41
f 42/42/42 44/44/44 43/43/43
f 44/44/44 42/42/42 45/45/45
f 45/45/45 42/42/42 46/46/46
f 46/46/46 42/42/42 47/47/47
f 47/47/47 42/42/42 48/48/48
f 48/48/48 42/42/42 49/49/49
f 49/49/49 42/42/42 50/50/50
