#barrel_03_1801_114.obj

v 0.501976 0 -0.5019681
v 0.501976 2.015215 -0.5019681
v 0 2.015215 -0.7098983
v 0 0 -0.7098983
v 0 0 -0.7098983
v 0 2.015215 -0.7098983
v -0.501976 2.015215 -0.5019681
v -0.501976 0 -0.5019681
v -0.501976 0 -0.5019681
v -0.501976 2.015215 -0.5019681
v -0.7098904 2.015215 0
v -0.7098904 0 0
v -0.7098904 0 0
v -0.7098904 2.015215 0
v -0.501976 2.015215 0.5019681
v -0.501976 0 0.5019681
v -0.501976 0 0.5019681
v -0.501976 2.015215 0.5019681
v 0 2.015215 0.7098983
v 0 0 0.7098983
v 0 0 0.7098983
v 0 2.015215 0.7098983
v 0.501976 2.015215 0.5019681
v 0.501976 0 0.5019681
v 0.501976 0 0.5019681
v 0.501976 2.015215 0.5019681
v 0.7098904 2.015215 0
v 0.7098904 0 0
v 0.7098904 0 0
v 0.7098904 2.015215 0
v 0.501976 2.015215 -0.5019681
v 0.501976 0 -0.5019681
v 0 0 -0.7098983
v 0 0 0
v 0.501976 0 -0.5019681
v -0.501976 0 -0.5019681
v -0.7098904 0 0
v -0.501976 0 0.5019681
v 0 0 0.7098983
v 0.501976 0 0.5019681
v 0.7098904 0 0
v 0.501976 2.015215 -0.5019681
v 0 2.015215 0
v 0 2.015215 -0.7098983
v -0.501976 2.015215 -0.5019681
v -0.7098904 2.015215 0
v -0.501976 2.015215 0.5019681
v 0 2.015215 0.7098983
v 0.501976 2.015215 0.5019681
v 0.7098904 2.015215 0

vn 0.3826833 0 -0.9238796
vn 0.3826833 0 -0.9238796
vn 0.3826833 0 -0.9238796
vn 0.3826833 0 -0.9238796
vn -0.3826834 0 -0.9238795
vn -0.3826834 0 -0.9238795
vn -0.3826834 0 -0.9238795
vn -0.3826834 0 -0.9238795
vn -0.9238794 0 -0.3826835
vn -0.9238794 0 -0.3826835
vn -0.9238794 0 -0.3826835
vn -0.9238794 0 -0.3826835
vn -0.9238794 0 0.3826835
vn -0.9238794 0 0.3826835
vn -0.9238794 0 0.3826835
vn -0.9238794 0 0.3826835
vn -0.3826834 0 0.9238795
vn -0.3826834 0 0.9238795
vn -0.3826834 0 0.9238795
vn -0.3826834 0 0.9238795
vn 0.3826833 0 0.9238796
vn 0.3826833 0 0.9238796
vn 0.3826833 0 0.9238796
vn 0.3826833 0 0.9238796
vn 0.9238795 0 0.3826835
vn 0.9238795 0 0.3826835
vn 0.9238795 0 0.3826835
vn 0.9238795 0 0.3826835
vn 0.9238795 0 -0.3826835
vn 0.9238795 0 -0.3826835
vn 0.9238795 0 -0.3826835
vn 0.9238795 0 -0.3826835
vn 0 -1 0
vn 0 -1 0
vn 0 -1 0
vn 0 -1 0
vn 0 -1 0
vn 0 -1 0
vn 0 -1 0
vn 0 -1 0
vn 0 -1 0
vn 0 1 0
vn 0 1 0
vn 0 1 0
vn 0 1 0
vn 0 1 0
vn 0 1 0
vn 0 1 0
vn 0 1 0
vn 0 1 0

vt 0.9086914 0.0138092
vt 0.9086914 0.2512207
vt 0.8686523 0.2512207
vt 0.8686523 0.0138092
vt 0.8417969 0.0138092
vt 0.8417969 0.2512207
vt 0.7866211 0.2512207
vt 0.7866211 0.0138092
vt 0.7607422 0.0138092
vt 0.7607422 0.2512207
vt 0.7109375 0.2512207
vt 0.7109375 0.0138092
vt 0.8300781 0.0138092
vt 0.8300781 0.2512207
vt 0.7905273 0.2512207
vt 0.7905273 0.0138092
vt 0.8632813 0.0138092
vt 0.8632813 0.2512207
vt 0.8955078 0.2512207
vt 0.8955078 0.0138092
vt 0.9423828 0.0138092
vt 0.9423828 0.2512207
vt 0.9833984 0.2512207
vt 0.9833984 0.0138092
vt 0.8583984 0.0138092
vt 0.8583984 0.2512207
vt 0.9072266 0.2512207
vt 0.9072266 0.0138092
vt 0.9296875 0.0138092
vt 0.9296875 0.2512207
vt 0.9741211 0.2512207
vt 0.9741211 0.0138092
vt 0.769043 0.2712402
vt 0.769043 0.3535156
vt 0.8291016 0.2963867
vt 0.7084961 0.2963867
vt 0.6831055 0.3569336
vt 0.7084961 0.4174805
vt 0.769043 0.442627
vt 0.8291016 0.4174805
vt 0.8544922 0.3569336
vt 0.8291016 0.4172363
vt 0.7685547 0.3532715
vt 0.7685547 0.4423828
vt 0.7080078 0.4172363
vt 0.6831055 0.3566895
vt 0.7080078 0.2961426
vt 0.7685547 0.2712402
vt 0.8291016 0.2961426
vt 0.8544922 0.3566895

g barrel_03_1801_114
usemtl barrel_03_1801_114
usemap barrel_03_1801_114
f 1/1/1 3/3/3 2/2/2
f 1/1/1 4/4/4 3/3/3
f 5/5/5 7/7/7 6/6/6
f 5/5/5 8/8/8 7/7/7
f 9/9/9 11/11/11 10/10/10
f 9/9/9 12/12/12 11/11/11
f 13/13/13 15/15/15 14/14/14
f 13/13/13 16/16/16 15/15/15
f 17/17/17 19/19/19 18/18/18
f 17/17/17 20/20/20 19/19/19
f 21/21/21 23/23/23 22/22/22
f 21/21/21 24/24/24 23/23/23
f 25/25/25 27/27/27 26/26/26
f 25/25/25 28/28/28 27/27/27
f 29/29/29 31/31/31 30/30/30
f 29/29/29 32/32/32 31/31/31
f 33/33/33 35/35/35 34/34/34
f 36/36/36 33/33/33 34/34/34
f 37/37/37 36/36/36 34/34/34
f 38/38/38 37/37/37 34/34/34
f 39/39/39 38/38/38 34/34/34
f 40/40/40 39/39/39 34/34/34
f 41/41/41 40/40/40 34/34/34
f 35/35/35 41/41/41 34/34/34
f 42/42/42 44/44/44 43/43/43
f 44/44/44 45/45/45 43/43/43
f 45/45/45 46/46/46 43/43/43
f 46/46/46 47/47/47 43/43/43
f 47/47/47 48/48/48 43/43/43
f 48/48/48 49/49/49 43/43/43
f 49/49/49 50/50/50 43/43/43
f 50/50/50 42/42/42 43/43/43
