#barrel_01_1827_111.obj

v 0.5019736 0 -0.5019736
v 0.5019736 2.015214 -0.5019736
v 0 2.015214 -0.7098985
v 0 0 -0.7098985
v 0 0 -0.7098985
v 0 2.015214 -0.7098985
v -0.5019736 2.015214 -0.5019736
v -0.5019736 0 -0.5019736
v -0.5019736 0 -0.5019736
v -0.5019736 2.015214 -0.5019736
v -0.7098915 2.015214 0
v -0.7098915 0 0
v -0.7098915 0 0
v -0.7098915 2.015214 0
v -0.5019736 2.015214 0.5019736
v -0.5019736 0 0.5019736
v -0.5019736 0 0.5019736
v -0.5019736 2.015214 0.5019736
v 0 2.015214 0.7098985
v 0 0 0.7098985
v 0 0 0.7098985
v 0 2.015214 0.7098985
v 0.5019736 2.015214 0.5019736
v 0.5019736 0 0.5019736
v 0.5019736 0 0.5019736
v 0.5019736 2.015214 0.5019736
v 0.7098915 2.015214 0
v 0.7098915 0 0
v 0.7098915 0 0
v 0.7098915 2.015214 0
v 0.5019736 2.015214 -0.5019736
v 0.5019736 0 -0.5019736
v 0 0 -0.7098985
v 0 0 0
v 0.5019736 0 -0.5019736
v -0.5019736 0 -0.5019736
v -0.7098915 0 0
v -0.5019736 0 0.5019736
v 0 0 0.7098985
v 0.5019736 0 0.5019736
v 0.7098915 0 0
v 0.5019736 2.015214 -0.5019736
v 0 2.015214 0
v 0 2.015214 -0.7098985
v -0.5019736 2.015214 -0.5019736
v -0.7098915 2.015214 0
v -0.5019736 2.015214 0.5019736
v 0 2.015214 0.7098985
v 0.5019736 2.015214 0.5019736
v 0.7098915 2.015214 0

vn 0.3826833 0 -0.9238796
vn 0.3826833 0 -0.9238796
vn 0.3826833 0 -0.9238796
vn 0.3826833 0 -0.9238796
vn -0.3826833 0 -0.9238796
vn -0.3826833 0 -0.9238796
vn -0.3826833 0 -0.9238796
vn -0.3826833 0 -0.9238796
vn -0.9238796 0 -0.3826833
vn -0.9238796 0 -0.3826833
vn -0.9238796 0 -0.3826833
vn -0.9238796 0 -0.3826833
vn -0.9238796 0 0.3826833
vn -0.9238796 0 0.3826833
vn -0.9238796 0 0.3826833
vn -0.9238796 0 0.3826833
vn -0.3826833 0 0.9238796
vn -0.3826833 0 0.9238796
vn -0.3826833 0 0.9238796
vn -0.3826833 0 0.9238796
vn 0.3826834 0 0.9238795
vn 0.3826834 0 0.9238795
vn 0.3826834 0 0.9238795
vn 0.3826834 0 0.9238795
vn 0.9238794 0 0.3826837
vn 0.9238794 0 0.3826837
vn 0.9238794 0 0.3826837
vn 0.9238794 0 0.3826837
vn 0.9238795 0 -0.3826835
vn 0.9238795 0 -0.3826835
vn 0.9238795 0 -0.3826835
vn 0.9238795 0 -0.3826835
vn 0 -1 0
vn 0 -1 0
vn 0 -1 0
vn 0 -1 0
vn 0 -1 0
vn 0 -1 0
vn 0 -1 0
vn 0 -1 0
vn 0 -1 0
vn 0 1 0
vn 0 1 0
vn 0 1 0
vn 0 1 0
vn 0 1 0
vn 0 1 0
vn 0 1 0
vn 0 1 0
vn 0 1 0

vt 0.5961914 0.0138092
vt 0.5961914 0.2512207
vt 0.5566406 0.2512207
vt 0.5566406 0.0138092
vt 0.5292969 0.0138092
vt 0.5292969 0.2512207
vt 0.4743652 0.2512207
vt 0.4743652 0.0138092
vt 0.4484863 0.0138092
vt 0.4484863 0.2512207
vt 0.3986816 0.2512207
vt 0.3986816 0.0138092
vt 0.5180664 0.0138092
vt 0.5180664 0.2512207
vt 0.4787598 0.2512207
vt 0.4787598 0.0138092
vt 0.5512695 0.0138092
vt 0.5512695 0.2512207
vt 0.5834961 0.2512207
vt 0.5834961 0.0138092
vt 0.6303711 0.0138092
vt 0.6303711 0.2512207
vt 0.6713867 0.2512207
vt 0.6713867 0.0138092
vt 0.5463867 0.0138092
vt 0.5463867 0.2512207
vt 0.5952148 0.2512207
vt 0.5952148 0.0138092
vt 0.6176758 0.0138092
vt 0.6176758 0.2512207
vt 0.6621094 0.2512207
vt 0.6621094 0.0138092
vt 0.5078125 0.2712402
vt 0.5078125 0.3535156
vt 0.5683594 0.2963867
vt 0.4475098 0.2963867
vt 0.4223633 0.3569336
vt 0.4475098 0.4174805
vt 0.5078125 0.442627
vt 0.5683594 0.4174805
vt 0.59375 0.3569336
vt 0.5683594 0.4172363
vt 0.5078125 0.3532715
vt 0.5078125 0.4423828
vt 0.4472656 0.4172363
vt 0.4223633 0.3566895
vt 0.4472656 0.2961426
vt 0.5078125 0.2712402
vt 0.5683594 0.2961426
vt 0.5932617 0.3566895

g barrel_01_1827_111
usemtl barrel_01_1827_111
usemap barrel_01_1827_111
f 1/1/1 3/3/3 2/2/2
f 1/1/1 4/4/4 3/3/3
f 5/5/5 7/7/7 6/6/6
f 5/5/5 8/8/8 7/7/7
f 9/9/9 11/11/11 10/10/10
f 9/9/9 12/12/12 11/11/11
f 13/13/13 15/15/15 14/14/14
f 13/13/13 16/16/16 15/15/15
f 17/17/17 19/19/19 18/18/18
f 17/17/17 20/20/20 19/19/19
f 21/21/21 23/23/23 22/22/22
f 21/21/21 24/24/24 23/23/23
f 25/25/25 27/27/27 26/26/26
f 25/25/25 28/28/28 27/27/27
f 29/29/29 31/31/31 30/30/30
f 29/29/29 32/32/32 31/31/31
f 33/33/33 35/35/35 34/34/34
f 36/36/36 33/33/33 34/34/34
f 37/37/37 36/36/36 34/34/34
f 38/38/38 37/37/37 34/34/34
f 39/39/39 38/38/38 34/34/34
f 40/40/40 39/39/39 34/34/34
f 41/41/41 40/40/40 34/34/34
f 35/35/35 41/41/41 34/34/34
f 42/42/42 44/44/44 43/43/43
f 44/44/44 45/45/45 43/43/43
f 45/45/45 46/46/46 43/43/43
f 46/46/46 47/47/47 43/43/43
f 47/47/47 48/48/48 43/43/43
f 48/48/48 49/49/49 43/43/43
f 49/49/49 50/50/50 43/43/43
f 50/50/50 42/42/42 43/43/43
