#billboard_mesh_3515_116.obj

v -2.525295 1.408923 0.9115899
v -2.525295 4.345303 0.9115899
v -1.271566E-06 4.345303 0.9115899
v -1.271566E-06 1.408923 0.9115899
v 2.525293 1.408923 0.9115899
v 2.525293 4.345303 0.9115899
v -2.525295 4.345303 0.9115899
v -2.525295 4.345303 0.6978664
v -1.271566E-06 4.345303 0.6978664
v -1.271566E-06 4.345303 0.9115899
v 2.525293 4.345303 0.6978664
v 2.525293 4.345303 0.9115899
v -2.525295 4.345303 0.6978664
v -2.525295 1.408923 0.6978664
v -1.271566E-06 1.408923 0.6978664
v -1.271566E-06 4.345303 0.6978664
v 2.525293 4.345303 0.6978664
v 2.525293 1.408923 0.6978664
v -2.525295 1.408923 0.6978664
v -2.525295 1.408923 0.9115899
v -1.271566E-06 1.408923 0.9115899
v -1.271566E-06 1.408923 0.6978664
v 2.525293 1.408923 0.6978664
v 2.525293 1.408923 0.9115899
v 2.525293 1.408923 0.9115899
v 2.525293 4.345303 0.9115899
v 2.525293 4.345303 0.6978664
v 2.525293 1.408923 0.6978664
v -2.525295 1.408923 0.6978664
v -2.525295 4.345303 0.6978664
v -2.525295 4.345303 0.9115899
v -2.525295 1.408923 0.9115899
v 2.1326 5.063998 1.134174
v 1.935958 5.063998 1.134174
v 1.935958 5.063998 0.9480165
v 2.1326 5.063998 0.9480165
v 1.935958 -1.589457E-07 1.134174
v 1.935958 -1.589457E-07 0.9480165
v 1.935958 5.063998 0.9480165
v 1.935958 5.063998 1.134174
v 1.935958 5.063998 1.134174
v 2.1326 5.063998 1.134174
v 2.1326 -1.589457E-07 1.134174
v 1.935958 -1.589457E-07 1.134174
v 2.1326 5.063998 1.134174
v 2.1326 5.063998 0.9480165
v 2.1326 -1.589457E-07 0.9480165
v 2.1326 -1.589457E-07 1.134174
v 1.935958 -1.589457E-07 0.9480165
v 2.1326 -1.589457E-07 0.9480165
v 1.935958 5.063998 0.9480165
v 2.089143 4.91688 0.955197
v 1.979412 4.91688 0.955197
v 1.979412 5.024442 0.955197
v 1.935958 5.063998 0.9480165
v 2.1326 -1.589457E-07 0.9480165
v 1.979412 4.91688 0.955197
v 1.935958 5.063998 0.9480165
v 1.935958 5.063998 0.9480165
v 1.979412 5.024442 0.955197
v 2.1326 5.063998 0.9480165
v 2.089143 5.024442 0.955197
v 2.1326 5.063998 0.9480165
v 2.089143 5.024442 0.955197
v 2.1326 -1.589457E-07 0.9480165
v 2.089143 4.91688 0.955197
v 2.1326 -1.589457E-07 0.9480165
v 2.089143 5.024442 0.2040138
v 1.979412 5.024442 0.204024
v 1.979415 4.458006 -0.6793671
v 2.089143 4.458006 -0.6793721
v 1.979412 5.024442 0.204024
v 1.979412 4.91688 0.204024
v 1.979415 4.381955 -0.6033211
v 1.979415 4.458006 -0.6793671
v 1.979412 5.024442 0.955197
v 1.979412 4.91688 0.955197
v 2.089143 4.91688 0.2040138
v 2.089143 5.024442 0.2040138
v 2.089143 4.458006 -0.6793721
v 2.089143 4.381966 -0.6033211
v 2.089143 4.91688 0.955197
v 2.089143 5.024442 0.955197
v 1.979412 4.91688 0.204024
v 2.089143 4.91688 0.2040138
v 2.089143 4.381966 -0.6033211
v 1.979415 4.381955 -0.6033211
v 1.850033 4.003198 -1.134175
v 2.218522 4.003198 -1.134175
v 2.218522 4.458006 -0.6793721
v 2.089143 4.458006 -0.6793721
v 1.979415 4.458006 -0.6793671
v 1.850033 4.458006 -0.6793671
v 1.850033 4.458006 -0.6793671
v 1.850033 4.381955 -0.6033211
v 1.850033 3.927137 -1.058124
v 1.850033 4.003198 -1.134175
v 2.218522 4.381966 -0.6033211
v 2.218522 4.458006 -0.6793721
v 2.218522 4.003198 -1.134175
v 2.218522 3.927137 -1.058129
v 2.089143 4.381966 -0.6033211
v 2.218522 4.381966 -0.6033211
v 2.218522 3.927137 -1.058129
v 1.850033 3.927137 -1.058124
v 1.979415 4.381955 -0.6033211
v 1.850033 4.381955 -0.6033211
v 1.979415 4.458006 -0.6793671
v 1.979415 4.381955 -0.6033211
v 1.850033 4.381955 -0.6033211
v 1.850033 4.458006 -0.6793671
v 1.850033 4.003198 -1.134175
v 1.850033 3.927137 -1.058124
v 2.218522 3.927137 -1.058129
v 2.218522 4.003198 -1.134175
v 2.089143 4.381966 -0.6033211
v 2.089143 4.458006 -0.6793721
v 2.218522 4.458006 -0.6793721
v 2.218522 4.381966 -0.6033211
v 2.089143 5.024442 0.955197
v 1.979412 5.024442 0.955197
v 1.979412 5.024442 0.204024
v 2.089143 5.024442 0.2040138
v 1.979412 4.91688 0.955197
v 2.089143 4.91688 0.955197
v 2.089143 4.91688 0.2040138
v 1.979412 4.91688 0.204024
v -1.865843 5.063998 1.134174
v -2.062484 5.063998 1.134174
v -2.062484 5.063998 0.9480165
v -1.865843 5.063998 0.9480165
v -2.062484 -1.589457E-07 1.134174
v -2.062484 -1.589457E-07 0.9480165
v -2.062484 5.063998 0.9480165
v -2.062484 5.063998 1.134174
v -2.062484 5.063998 1.134174
v -1.865843 5.063998 1.134174
v -1.865843 -1.589457E-07 1.134174
v -2.062484 -1.589457E-07 1.134174
v -1.865843 5.063998 1.134174
v -1.865843 5.063998 0.9480165
v -1.865843 -1.589457E-07 0.9480165
v -1.865843 -1.589457E-07 1.134174
v -2.062484 -1.589457E-07 0.9480165
v -1.865843 -1.589457E-07 0.9480165
v -2.062484 5.063998 0.9480165
v -1.909298 4.91688 0.955197
v -2.019019 4.91688 0.955197
v -2.019019 5.024442 0.955197
v -2.062484 5.063998 0.9480165
v -1.865843 -1.589457E-07 0.9480165
v -2.019019 4.91688 0.955197
v -2.062484 5.063998 0.9480165
v -2.062484 5.063998 0.9480165
v -2.019019 5.024442 0.955197
v -1.865843 5.063998 0.9480165
v -1.909298 5.024442 0.955197
v -1.865843 5.063998 0.9480165
v -1.909298 5.024442 0.955197
v -1.865843 -1.589457E-07 0.9480165
v -1.909298 5.024442 0.955197
v -1.909298 4.91688 0.955197
v -1.865843 -1.589457E-07 0.9480165
v -1.909298 5.024442 0.2040138
v -2.019029 5.024442 0.204024
v -2.019024 4.458006 -0.6793671
v -1.909303 4.458006 -0.6793721
v -2.019029 5.024442 0.204024
v -2.019029 4.91688 0.204024
v -2.019024 4.381955 -0.6033211
v -2.019024 4.458006 -0.6793671
v -2.019019 5.024442 0.955197
v -2.019019 4.91688 0.955197
v -1.909298 4.91688 0.2040138
v -1.909298 5.024442 0.2040138
v -1.909303 4.458006 -0.6793721
v -1.909303 4.381966 -0.6033211
v -1.909298 4.91688 0.955197
v -1.909298 5.024442 0.955197
v -2.019029 4.91688 0.204024
v -1.909298 4.91688 0.2040138
v -1.909303 4.381966 -0.6033211
v -2.019024 4.381955 -0.6033211
v -2.148408 4.003198 -1.134175
v -1.779914 4.003198 -1.134175
v -1.779914 4.458006 -0.6793721
v -1.909303 4.458006 -0.6793721
v -2.019024 4.458006 -0.6793671
v -2.148408 4.458006 -0.6793671
v -2.148408 4.458006 -0.6793671
v -2.148408 4.381955 -0.6033211
v -2.148408 3.927137 -1.058124
v -2.148408 4.003198 -1.134175
v -1.779914 4.381966 -0.6033211
v -1.779914 4.458006 -0.6793721
v -1.779914 4.003198 -1.134175
v -1.779914 3.927137 -1.058129
v -1.909303 4.381966 -0.6033211
v -1.779914 4.381966 -0.6033211
v -1.779914 3.927137 -1.058129
v -2.148408 3.927137 -1.058124
v -2.019024 4.381955 -0.6033211
v -2.148408 4.381955 -0.6033211
v -2.019024 4.458006 -0.6793671
v -2.019024 4.381955 -0.6033211
v -2.148408 4.381955 -0.6033211
v -2.148408 4.458006 -0.6793671
v -2.148408 4.003198 -1.134175
v -2.148408 3.927137 -1.058124
v -1.779914 3.927137 -1.058129
v -1.779914 4.003198 -1.134175
v -1.909303 4.381966 -0.6033211
v -1.909303 4.458006 -0.6793721
v -1.779914 4.458006 -0.6793721
v -1.779914 4.381966 -0.6033211
v -1.909298 5.024442 0.955197
v -2.019019 5.024442 0.955197
v -2.019029 5.024442 0.204024
v -1.909298 5.024442 0.2040138
v -2.019019 4.91688 0.955197
v -1.909298 4.91688 0.955197
v -1.909298 4.91688 0.2040138
v -2.019029 4.91688 0.204024

vn 0 0 1
vn 0 0 1
vn 0 0 1
vn 0 0 1
vn 0 0 1
vn 0 0 1
vn 0 1 0
vn 0 1 0
vn 0 1 0
vn 0 1 0
vn 0 1 0
vn 0 1 0
vn 0 0 -1
vn 0 0 -1
vn 0 0 -1
vn 0 0 -1
vn 0 0 -1
vn 0 0 -1
vn 0 -1 0
vn 0 -1 0
vn 0 -1 0
vn 0 -1 0
vn 0 -1 0
vn 0 -1 0
vn 1 0 0
vn 1 0 0
vn 1 0 0
vn 1 0 0
vn -1 0 0
vn -1 0 0
vn -1 0 0
vn -1 0 0
vn 0 1 0
vn 0 1 0
vn 0 1 0
vn 0 1 0
vn -1 0 0
vn -1 0 0
vn -1 0 0
vn -1 0 0
vn 0 0 1
vn 0 0 1
vn 0 0 1
vn 0 0 1
vn 1 0 0
vn 1 0 0
vn 1 0 0
vn 1 0 0
vn 0 0 -1
vn -0.08178613 0.0003663248 -0.9966498
vn 0.05470257 -0.05992819 -0.9967026
vn -0.08178613 0.0007326497 -0.9966496
vn 0.1170527 0.002916144 -0.9931214
vn 0.1630338 0 -0.9866204
vn 0.1170528 0.002427645 -0.9931228
vn 0.1868995 0.007257524 -0.9823522
vn 0.1749807 0.003629053 -0.9845653
vn 0.1749807 0.003629053 -0.9845653
vn 0 -0.0896652 -0.995972
vn 0 -0.1786081 -0.9839203
vn 0 -0.1786081 -0.9839203
vn 0 -0.178608 -0.9839203
vn -0.1630242 0 -0.986622
vn -0.1630242 0 -0.986622
vn -0.08178613 0.0003663248 -0.9966498
vn -0.08178613 0.0007326497 -0.9966496
vn -0.08178613 0.0003663248 -0.9966498
vn 0 0.8418098 -0.5397743
vn 0 0.8418098 -0.5397743
vn 0 0.8418098 -0.5397743
vn 0 0.8418098 -0.5397743
vn -1 0 0
vn -1 0 0
vn -1 0 0
vn -1 0 0
vn -1 0 0
vn -1 0 0
vn 1 0 0
vn 1 0 0
vn 1 0 0
vn 1 0 0
vn 1 0 0
vn 1 0 0
vn 6.646395E-05 -0.8336226 0.5523344
vn 6.646395E-05 -0.8336226 0.5523344
vn 6.646395E-05 -0.8336226 0.5523344
vn 6.646395E-05 -0.8336226 0.5523344
vn 0 0.7071054 -0.7071081
vn 0 0.7071021 -0.7071114
vn 0 0.7071021 -0.7071114
vn 0 0.7071066 -0.7071069
vn 0 0.7071086 -0.7071049
vn 0 0.7071062 -0.7071073
vn -1 0 0
vn -1 0 0
vn -1 0 0
vn -1 0 0
vn 1 0 0
vn 1 0 0
vn 1 0 0
vn 1 0 0
vn 0 -0.7070944 0.7071192
vn 0 -0.7070904 0.707123
vn 0 -0.7070897 0.7071238
vn 0 -0.7070956 0.7071179
vn 0 -0.7070991 0.7071145
vn 0 -0.7070943 0.7071193
vn 0 0.7070802 0.7071334
vn 0 0.7070802 0.7071334
vn 0 0.7070802 0.7071334
vn 0 0.7070802 0.7071334
vn 0 -0.7070455 -0.707168
vn 0 -0.7070455 -0.707168
vn 0 -0.7070455 -0.707168
vn 0 -0.7070455 -0.707168
vn 0 0.7071533 0.7070602
vn 0 0.7071533 0.7070602
vn 0 0.7071533 0.7070602
vn 0 0.7071533 0.7070602
vn 0 1 0
vn 0 1 0
vn 0 1 0
vn 0 1 0
vn 0 -1 0
vn 0 -1 0
vn 0 -1 0
vn 0 -1 0
vn 0 1 0
vn 0 1 0
vn 0 1 0
vn 0 1 0
vn -1 0 0
vn -1 0 0
vn -1 0 0
vn -1 0 0
vn 0 0 1
vn 0 0 1
vn 0 0 1
vn 0 0 1
vn 1 0 0
vn 1 0 0
vn 1 0 0
vn 1 0 0
vn 0 0 -1
vn -0.08179272 0.0003663251 -0.9966493
vn 0.05469052 -0.05992811 -0.9967033
vn -0.08179272 0.0007326502 -0.9966491
vn 0.1170248 0.002915491 -0.9931248
vn 0.1629981 0 -0.9866263
vn 0.1170249 0.002426993 -0.9931259
vn 0.1868523 0.007255588 -0.9823612
vn 0.1749392 0.003628085 -0.9845725
vn 0.1749392 0.003628085 -0.9845725
vn 0 -0.0896652 -0.995972
vn 0 -0.1786081 -0.9839203
vn 0 -0.1786081 -0.9839203
vn 0 -0.178608 -0.9839203
vn -0.1630373 0 -0.9866198
vn -0.1630373 0 -0.9866198
vn -0.08179272 0.0003663251 -0.9966493
vn -0.1630373 0 -0.9866198
vn -0.08179272 0.0007326502 -0.9966491
vn -0.08179272 0.0003663251 -0.9966493
vn 0 0.8418097 -0.5397743
vn 0 0.8418097 -0.5397743
vn 0 0.8418097 -0.5397743
vn 0 0.8418097 -0.5397743
vn -1 0 0
vn -1 0 0
vn -1 0 0
vn -1 0 0
vn -1 0 0
vn -1 0 0
vn 1 0 0
vn 1 0 0
vn 1 0 0
vn 1 0 0
vn 1 0 0
vn 1 0 0
vn 6.646619E-05 -0.8336226 0.5523344
vn 6.646619E-05 -0.8336226 0.5523344
vn 6.646619E-05 -0.8336226 0.5523344
vn 6.646619E-05 -0.8336226 0.5523344
vn 0 0.7071053 -0.7071081
vn 0 0.7071021 -0.7071114
vn 0 0.7071021 -0.7071114
vn 0 0.7071066 -0.7071069
vn 0 0.7071086 -0.7071049
vn 0 0.7071062 -0.7071073
vn -1 0 0
vn -1 0 0
vn -1 0 0
vn -1 0 0
vn 1 0 0
vn 1 0 0
vn 1 0 0
vn 1 0 0
vn 0 -0.7070944 0.7071191
vn 0 -0.7070904 0.707123
vn 0 -0.7070897 0.7071238
vn 0 -0.7070957 0.7071179
vn 0 -0.7070991 0.7071145
vn 0 -0.7070943 0.7071193
vn 0 0.7070802 0.7071334
vn 0 0.7070802 0.7071334
vn 0 0.7070802 0.7071334
vn 0 0.7070802 0.7071334
vn 0 -0.7070455 -0.707168
vn 0 -0.7070455 -0.707168
vn 0 -0.7070455 -0.707168
vn 0 -0.7070455 -0.707168
vn 0 0.7071533 0.7070602
vn 0 0.7071533 0.7070602
vn 0 0.7071533 0.7070602
vn 0 0.7071533 0.7070602
vn 0 1 0
vn 0 1 0
vn 0 1 0
vn 0 1 0
vn 0 -1 0
vn 0 -1 0
vn 0 -1 0
vn 0 -1 0

vt 0.1483154 -0.04632568
vt 0.1483154 -0.01611328
vt 0.5 -0.01611328
vt 0.5 -0.04632568
vt 0.8520508 -0.04632568
vt 0.8520508 -0.01611328
vt 1.223633 0.0848999
vt 1.223633 0.1015625
vt 1.575195 0.1015625
vt 1.575195 0.0848999
vt 1.927734 0.1015625
vt 1.927734 0.0848999
vt 1.014648 -0.1767578
vt 1.013672 -0.7617188
vt 0.5078125 -0.762207
vt 0.5078125 -0.1776123
vt 0.0003466606 -0.1783447
vt 0.002731323 -0.7631836
vt 1.222656 0.007381439
vt 1.222656 0.02444458
vt 1.575195 0.02444458
vt 1.575195 0.007381439
vt 1.926758 0.007381439
vt 1.926758 0.02444458
vt 1.803711 0.0597229
vt 1.394531 0.0597229
vt 1.394531 0.07397461
vt 1.803711 0.07397461
vt 1.803711 0.05963135
vt 1.394531 0.05963135
vt 1.394531 0.07391357
vt 1.803711 0.07391357
vt 0.6791992 1.101563
vt 0.6791992 1.094727
vt 0.722168 1.094727
vt 0.722168 1.101563
vt 0.4614258 1.132813
vt 0.4580078 1.132813
vt 0.4580078 1.120117
vt 0.4614258 1.120117
vt 0.5776367 1.041992
vt 0.581543 1.041992
vt 0.581543 1.055664
vt 0.5776367 1.055664
vt 0.4541016 1.120117
vt 0.4575195 1.120117
vt 0.4575195 1.132813
vt 0.4541016 1.132813
vt 0.5820313 1.038086
vt 0.5854492 1.038086
vt 0.5820313 1.050781
vt 0.5844727 1.050781
vt 0.5825195 1.050781
vt 0.5825195 1.050781
vt 0.5820313 1.050781
vt 0.5854492 1.038086
vt 0.5825195 1.050781
vt 0.5820313 1.050781
vt 0.5820313 1.050781
vt 0.5825195 1.050781
vt 0.5854492 1.050781
vt 0.5844727 1.050781
vt 0.5854492 1.050781
vt 0.5844727 1.050781
vt 0.5854492 1.038086
vt 0.5844727 1.050781
vt 0.5854492 1.038086
vt 0.7021484 1.09668
vt 0.7001953 1.09668
vt 0.7001953 1.094727
vt 0.7021484 1.094727
vt 0.434082 1.12793
vt 0.4362793 1.12793
vt 0.4362793 1.129883
vt 0.434082 1.129883
vt 0.434082 1.125977
vt 0.4362793 1.125977
vt 0.4387207 1.12793
vt 0.4367676 1.12793
vt 0.4367676 1.125977
vt 0.4387207 1.125977
vt 0.4387207 1.129883
vt 0.4367676 1.129883
vt 0.4489746 1.125977
vt 0.4511719 1.125977
vt 0.4511719 1.12793
vt 0.4489746 1.12793
vt 0.6977539 1.092773
vt 0.7045898 1.092773
vt 0.7045898 1.094727
vt 0.7021484 1.094727
vt 0.7001953 1.094727
vt 0.6977539 1.094727
vt 0.4343262 1.124023
vt 0.4362793 1.124023
vt 0.4362793 1.125977
vt 0.4343262 1.125977
vt 0.4387207 1.125977
vt 0.4367676 1.125977
vt 0.4367676 1.124023
vt 0.4387207 1.124023
vt 0.4511719 1.12793
vt 0.4533691 1.12793
vt 0.4533691 1.129883
vt 0.4465332 1.129883
vt 0.4489746 1.12793
vt 0.4465332 1.12793
vt 0.6079102 1.020508
vt 0.5830078 1.020508
vt 0.5830078 1.009766
vt 0.6079102 1.009766
vt 0.5668945 1.045898
vt 0.5649414 1.045898
vt 0.5649414 1.044922
vt 0.5668945 1.044922
vt 0.6137695 1.009766
vt 0.6386719 1.009766
vt 0.6386719 1.020508
vt 0.6137695 1.020508
vt 0.7021484 1.098633
vt 0.7001953 1.098633
vt 0.7001953 1.09668
vt 0.7021484 1.09668
vt 0.4489746 1.124023
vt 0.4511719 1.124023
vt 0.4511719 1.125977
vt 0.4489746 1.125977
vt 0.6791992 1.101563
vt 0.6791992 1.094727
vt 0.722168 1.094727
vt 0.722168 1.101563
vt 0.4614258 1.132813
vt 0.4580078 1.132813
vt 0.4580078 1.120117
vt 0.4614258 1.120117
vt 0.5776367 1.041992
vt 0.581543 1.041992
vt 0.581543 1.055664
vt 0.5776367 1.055664
vt 0.4541016 1.120117
vt 0.4575195 1.120117
vt 0.4575195 1.132813
vt 0.4541016 1.132813
vt 0.5820313 1.038086
vt 0.5854492 1.038086
vt 0.5820313 1.050781
vt 0.5844727 1.050781
vt 0.5825195 1.050781
vt 0.5825195 1.050781
vt 0.5820313 1.050781
vt 0.5854492 1.038086
vt 0.5825195 1.050781
vt 0.5820313 1.050781
vt 0.5820313 1.050781
vt 0.5825195 1.050781
vt 0.5854492 1.050781
vt 0.5844727 1.050781
vt 0.5854492 1.050781
vt 0.5844727 1.050781
vt 0.5854492 1.038086
vt 0.5844727 1.050781
vt 0.5844727 1.050781
vt 0.5854492 1.038086
vt 0.7021484 1.09668
vt 0.7001953 1.09668
vt 0.7001953 1.094727
vt 0.7021484 1.094727
vt 0.434082 1.12793
vt 0.4362793 1.12793
vt 0.4362793 1.129883
vt 0.434082 1.129883
vt 0.434082 1.125977
vt 0.4362793 1.125977
vt 0.4387207 1.12793
vt 0.4367676 1.12793
vt 0.4367676 1.125977
vt 0.4387207 1.125977
vt 0.4387207 1.129883
vt 0.4367676 1.129883
vt 0.4489746 1.125977
vt 0.4511719 1.125977
vt 0.4511719 1.12793
vt 0.4489746 1.12793
vt 0.6977539 1.092773
vt 0.7045898 1.092773
vt 0.7045898 1.094727
vt 0.7021484 1.094727
vt 0.7001953 1.094727
vt 0.6977539 1.094727
vt 0.4343262 1.124023
vt 0.4362793 1.124023
vt 0.4362793 1.125977
vt 0.4343262 1.125977
vt 0.4387207 1.125977
vt 0.4367676 1.125977
vt 0.4367676 1.124023
vt 0.4387207 1.124023
vt 0.4511719 1.12793
vt 0.4533691 1.12793
vt 0.4533691 1.129883
vt 0.4465332 1.129883
vt 0.4489746 1.12793
vt 0.4465332 1.12793
vt 0.6079102 1.020508
vt 0.5830078 1.020508
vt 0.5830078 1.009766
vt 0.6079102 1.009766
vt 0.5668945 1.045898
vt 0.5649414 1.045898
vt 0.5649414 1.044922
vt 0.5668945 1.044922
vt 0.6137695 1.009766
vt 0.6386719 1.009766
vt 0.6386719 1.020508
vt 0.6137695 1.020508
vt 0.7021484 1.098633
vt 0.7001953 1.098633
vt 0.7001953 1.09668
vt 0.7021484 1.09668
vt 0.4489746 1.124023
vt 0.4511719 1.124023
vt 0.4511719 1.125977
vt 0.4489746 1.125977

g billboard_mesh_3515_116
usemtl billboard_mesh_3515_116
usemap billboard_mesh_3515_116
f 1/1/1 3/3/3 2/2/2
f 1/1/1 4/4/4 3/3/3
f 3/3/3 4/4/4 5/5/5
f 3/3/3 5/5/5 6/6/6
f 7/7/7 9/9/9 8/8/8
f 7/7/7 10/10/10 9/9/9
f 10/10/10 11/11/11 9/9/9
f 10/10/10 12/12/12 11/11/11
f 13/13/13 15/15/15 14/14/14
f 13/13/13 16/16/16 15/15/15
f 15/15/15 16/16/16 17/17/17
f 15/15/15 17/17/17 18/18/18
f 19/19/19 21/21/21 20/20/20
f 19/19/19 22/22/22 21/21/21
f 21/21/21 22/22/22 23/23/23
f 21/21/21 23/23/23 24/24/24
f 25/25/25 27/27/27 26/26/26
f 25/25/25 28/28/28 27/27/27
f 29/29/29 31/31/31 30/30/30
f 29/29/29 32/32/32 31/31/31
f 33/33/33 35/35/35 34/34/34
f 33/33/33 36/36/36 35/35/35
f 37/37/37 39/39/39 38/38/38
f 37/37/37 40/40/40 39/39/39
f 41/41/41 43/43/43 42/42/42
f 41/41/41 44/44/44 43/43/43
f 45/45/45 47/47/47 46/46/46
f 45/45/45 48/48/48 47/47/47
f 49/49/49 51/51/51 50/50/50
f 50/50/50 53/53/53 52/52/52
f 53/53/53 55/55/55 54/54/54
f 56/56/56 58/58/58 57/57/57
f 59/59/59 61/61/61 60/60/60
f 60/60/60 61/61/61 62/62/62
f 63/63/63 65/65/65 64/64/64
f 64/64/64 67/67/67 66/66/66
f 68/68/68 70/70/70 69/69/69
f 68/68/68 71/71/71 70/70/70
f 72/72/72 74/74/74 73/73/73
f 72/72/72 75/75/75 74/74/74
f 76/76/76 72/72/72 73/73/73
f 76/76/76 73/73/73 77/77/77
f 78/78/78 80/80/80 79/79/79
f 78/78/78 81/81/81 80/80/80
f 82/82/82 78/78/78 79/79/79
f 82/82/82 79/79/79 83/83/83
f 84/84/84 86/86/86 85/85/85
f 84/84/84 87/87/87 86/86/86
f 88/88/88 90/90/90 89/89/89
f 90/90/90 88/88/88 91/91/91
f 91/91/91 88/88/88 92/92/92
f 92/92/92 88/88/88 93/93/93
f 94/94/94 96/96/96 95/95/95
f 94/94/94 97/97/97 96/96/96
f 98/98/98 100/100/100 99/99/99
f 98/98/98 101/101/101 100/100/100
f 102/102/102 104/104/104 103/103/103
f 104/104/104 102/102/102 105/105/105
f 105/105/105 102/102/102 106/106/106
f 105/105/105 106/106/106 107/107/107
f 108/108/108 110/110/110 109/109/109
f 108/108/108 111/111/111 110/110/110
f 112/112/112 114/114/114 113/113/113
f 112/112/112 115/115/115 114/114/114
f 116/116/116 118/118/118 117/117/117
f 116/116/116 119/119/119 118/118/118
f 120/120/120 122/122/122 121/121/121
f 120/120/120 123/123/123 122/122/122
f 124/124/124 126/126/126 125/125/125
f 124/124/124 127/127/127 126/126/126
f 128/128/128 130/130/130 129/129/129
f 128/128/128 131/131/131 130/130/130
f 132/132/132 134/134/134 133/133/133
f 132/132/132 135/135/135 134/134/134
f 136/136/136 138/138/138 137/137/137
f 136/136/136 139/139/139 138/138/138
f 140/140/140 142/142/142 141/141/141
f 140/140/140 143/143/143 142/142/142
f 144/144/144 146/146/146 145/145/145
f 145/145/145 148/148/148 147/147/147
f 148/148/148 150/150/150 149/149/149
f 151/151/151 153/153/153 152/152/152
f 154/154/154 156/156/156 155/155/155
f 155/155/155 156/156/156 157/157/157
f 158/158/158 160/160/160 159/159/159
f 161/161/161 163/163/163 162/162/162
f 164/164/164 166/166/166 165/165/165
f 164/164/164 167/167/167 166/166/166
f 168/168/168 170/170/170 169/169/169
f 168/168/168 171/171/171 170/170/170
f 172/172/172 168/168/168 169/169/169
f 172/172/172 169/169/169 173/173/173
f 174/174/174 176/176/176 175/175/175
f 174/174/174 177/177/177 176/176/176
f 178/178/178 174/174/174 175/175/175
f 178/178/178 175/175/175 179/179/179
f 180/180/180 182/182/182 181/181/181
f 180/180/180 183/183/183 182/182/182
f 184/184/184 186/186/186 185/185/185
f 186/186/186 184/184/184 187/187/187
f 187/187/187 184/184/184 188/188/188
f 188/188/188 184/184/184 189/189/189
f 190/190/190 192/192/192 191/191/191
f 190/190/190 193/193/193 192/192/192
f 194/194/194 196/196/196 195/195/195
f 194/194/194 197/197/197 196/196/196
f 198/198/198 200/200/200 199/199/199
f 200/200/200 198/198/198 201/201/201
f 201/201/201 198/198/198 202/202/202
f 201/201/201 202/202/202 203/203/203
f 204/204/204 206/206/206 205/205/205
f 204/204/204 207/207/207 206/206/206
f 208/208/208 210/210/210 209/209/209
f 208/208/208 211/211/211 210/210/210
f 212/212/212 214/214/214 213/213/213
f 212/212/212 215/215/215 214/214/214
f 216/216/216 218/218/218 217/217/217
f 216/216/216 219/219/219 218/218/218
f 220/220/220 222/222/222 221/221/221
f 220/220/220 223/223/223 222/222/222
