#bin_mesh_3247_129.obj

v -0.4634458 1.269867 0.438754
v -0.4738886 1.401027 0.4486405
v 0.4738867 1.401027 0.4486405
v 0.4634439 1.269867 0.438754
v -0.4738886 1.401027 -0.4486395
v -0.4634458 1.269867 -0.438753
v 0.4634438 1.269867 -0.438753
v 0.4738867 1.401027 -0.4486395
v 0.4634439 1.269867 0.438754
v 0.4738867 1.401027 0.4486405
v 0.4738867 1.401027 -0.4486395
v 0.4634438 1.269867 -0.438753
v -0.4634458 1.269867 -0.438753
v -0.4738886 1.401027 -0.4486395
v -0.4738886 1.401027 0.4486405
v -0.4634458 1.269867 0.438754
v -0.4738886 1.401027 0.4486405
v -0.3601749 1.401027 0.3409851
v 0.360173 1.401027 0.3409851
v -0.4738886 1.401027 -0.4486395
v -0.3601749 1.401027 -0.3409842
v -0.4738886 1.401027 0.4486405
v 0.4738867 1.401027 -0.4486395
v -0.3601749 1.401027 -0.3409842
v -0.4738886 1.401027 0.4486405
v 0.360173 1.401027 0.3409851
v 0.4738867 1.401027 0.4486405
v 0.360173 1.401027 0.3409851
v 0.360173 1.401027 -0.3409842
v 0.4738867 1.401027 -0.4486395
v 0.4738867 1.401027 -0.4486395
v -0.3601749 1.401027 -0.3409842
v -0.3601749 1.401027 0.3409851
v -0.1015514 0.6456777 0.09614071
v 0.1015495 0.6456777 0.09614071
v 0.360173 1.401027 0.3409851
v 0.360173 1.401027 -0.3409842
v 0.1015495 0.6456777 -0.09613975
v -0.1015514 0.6456777 -0.09613975
v -0.3601749 1.401027 -0.3409842
v -0.3601749 1.401027 -0.3409842
v -0.1015514 0.6456777 -0.09613975
v -0.1015514 0.6456777 0.09614071
v -0.3601749 1.401027 0.3409851
v 0.360173 1.401027 0.3409851
v 0.1015495 0.6456777 0.09614071
v 0.1015495 0.6456777 -0.09613975
v 0.360173 1.401027 -0.3409842
v -0.1015514 0.6456777 0.09614071
v -0.1015514 0.6456777 -0.09613975
v 0.1015495 0.6456777 -0.09613975
v 0.1015495 0.6456777 0.09614071
v 0.3863727 0.3018731 0.3657891
v 0.115983 0.3018731 0.1098051
v -0.1159849 0.3018731 0.1098051
v -0.3863746 0.3018731 0.3657891
v -0.1159849 0.3018731 -0.1098042
v -0.3863746 0.3018731 -0.3657881
v 0.115983 0.3018731 -0.1098042
v 0.3863727 0.3018731 -0.3657881
v 0.115983 0.3018731 0.1098051
v 0.115983 0.00301822 0.1098051
v -0.1159849 0.00301822 0.1098051
v -0.1159849 0.3018731 0.1098051
v -0.1159849 0.3018731 -0.1098042
v -0.1159849 0.00301822 -0.1098042
v 0.115983 0.00301822 -0.1098042
v 0.115983 0.3018731 -0.1098042
v -0.1159849 0.3018731 0.1098051
v -0.1159849 0.00301822 0.1098051
v -0.1159849 0.00301822 -0.1098042
v -0.1159849 0.3018731 -0.1098042
v 0.115983 0.3018731 -0.1098042
v 0.115983 0.00301822 -0.1098042
v 0.115983 0.00301822 0.1098051
v 0.115983 0.3018731 0.1098051
v -0.4634458 1.269867 -0.438753
v -0.3863746 0.3018731 -0.3657881
v 0.3863727 0.3018731 -0.3657881
v 0.4634438 1.269867 -0.438753
v -0.3863746 0.3018731 -0.3657881
v -0.4634458 1.269867 -0.438753
v -0.4634458 1.269867 0.438754
v -0.3863746 0.3018731 0.3657891
v -0.3863746 0.3018731 0.3657891
v -0.4634458 1.269867 0.438754
v 0.4634439 1.269867 0.438754
v 0.3863727 0.3018731 0.3657891
v 0.3863727 0.3018731 0.3657891
v 0.4634439 1.269867 0.438754
v 0.4634438 1.269867 -0.438753
v 0.3863727 0.3018731 -0.3657881

vn 0 -0.0751641 0.9971712
vn 0 -0.07516401 0.9971712
vn 0 -0.07516401 0.9971712
vn 0 -0.0751641 0.9971712
vn 0 -0.07516446 -0.9971712
vn 0 -0.0751643 -0.9971712
vn 0 -0.0751643 -0.9971712
vn 0 -0.07516446 -0.9971712
vn 0.9968453 -0.07936843 0
vn 0.9968453 -0.07936852 0
vn 0.9968453 -0.07936852 0
vn 0.9968453 -0.07936843 0
vn -0.9968453 -0.07936843 0
vn -0.9968453 -0.07936852 0
vn -0.9968453 -0.07936852 0
vn -0.9968453 -0.07936843 0
vn 0 1 0
vn 0 1 0
vn 0 1 0
vn 0 1 0
vn 0 1 0
vn 0 1 0
vn 0 1 0
vn 0 1 0
vn 0 1 0
vn 0 1 0
vn 0 1 0
vn 0 1 0
vn 0 1 0
vn 0 1 0
vn 0 1 0
vn 0 1 0
vn 0 0.3083525 -0.9512721
vn 0 0.3083525 -0.9512721
vn 0 0.3083525 -0.9512721
vn 0 0.3083525 -0.9512721
vn 0 0.3083525 0.9512721
vn 0 0.3083525 0.9512721
vn 0 0.3083525 0.9512721
vn 0 0.3083525 0.9512721
vn 0.9460816 0.3239284 0
vn 0.9460816 0.3239284 0
vn 0.9460816 0.3239284 0
vn 0.9460816 0.3239284 0
vn -0.9460816 0.3239284 0
vn -0.9460816 0.3239284 0
vn -0.9460816 0.3239284 0
vn -0.9460816 0.3239284 0
vn 0 1 0
vn 0 1 0
vn 0 1 0
vn 0 1 0
vn 0 -1 0
vn 0 -1 0
vn 0 -1 0
vn 0 -1 0
vn 0 -1 0
vn 0 -1 0
vn 0 -1 0
vn 0 -1 0
vn 0 0 1
vn 0 0 1
vn 0 0 1
vn 0 0 1
vn 0 0 -1
vn 0 0 -1
vn 0 0 -1
vn 0 0 -1
vn -1 0 0
vn -1 0 0
vn -1 0 0
vn -1 0 0
vn 1 0 0
vn 1 0 0
vn 1 0 0
vn 1 0 0
vn 0 -0.0751643 -0.9971712
vn 0 -0.07516414 -0.9971712
vn 0 -0.07516414 -0.9971712
vn 0 -0.0751643 -0.9971712
vn -0.9968453 -0.07936835 0
vn -0.9968453 -0.07936843 0
vn -0.9968453 -0.07936843 0
vn -0.9968453 -0.07936835 0
vn 0 -0.0751642 0.9971712
vn 0 -0.0751641 0.9971712
vn 0 -0.0751641 0.9971712
vn 0 -0.0751642 0.9971712
vn 0.9968453 -0.07936835 0
vn 0.9968453 -0.07936843 0
vn 0.9968453 -0.07936843 0
vn 0.9968453 -0.07936835 0

vt 0.2944336 0.2670898
vt 0.2941895 0.2695313
vt 0.3132324 0.2695313
vt 0.3129883 0.2670898
vt 0.3137207 0.2476807
vt 0.3139648 0.2502441
vt 0.3325195 0.2502441
vt 0.3325195 0.2476807
vt 0.192627 0.1591797
vt 0.1925049 0.1617432
vt 0.2104492 0.1617432
vt 0.2103271 0.1591797
vt 0.1959229 0.1813965
vt 0.1958008 0.184082
vt 0.2137451 0.184082
vt 0.213501 0.1813965
vt 0.5205078 0.3474121
vt 0.543457 0.3234863
vt 0.543457 0.2739258
vt 0.612793 0.3474121
vt 0.590332 0.3234863
vt 0.5205078 0.3474121
vt 0.612793 0.25
vt 0.590332 0.3234863
vt 0.5205078 0.3474121
vt 0.543457 0.2739258
vt 0.5205078 0.25
vt 0.543457 0.2739258
vt 0.590332 0.2739258
vt 0.612793 0.25
vt 0.612793 0.25
vt 0.590332 0.3234863
vt 0.2624512 0.28125
vt 0.2661133 0.3015137
vt 0.2714844 0.3015137
vt 0.2753906 0.28125
vt 0.2888184 0.3015137
vt 0.2851563 0.28125
vt 0.2797852 0.28125
vt 0.2758789 0.3015137
vt 0.3017578 0.3061523
vt 0.2980957 0.2858887
vt 0.2929688 0.2858887
vt 0.2895508 0.3061523
vt 0.3146973 0.3061523
vt 0.3110352 0.2858887
vt 0.3059082 0.2858887
vt 0.3024902 0.3061523
vt 0.3376465 0.3039551
vt 0.3427734 0.3039551
vt 0.3427734 0.2983398
vt 0.3376465 0.2983398
vt 0.1566162 0.1507568
vt 0.1500244 0.1577148
vt 0.1500244 0.1635742
vt 0.1566162 0.1705322
vt 0.1444092 0.1635742
vt 0.1379395 0.1705322
vt 0.1444092 0.1577148
vt 0.1379395 0.1507568
vt 0.1831055 0.1867676
vt 0.1831055 0.1791992
vt 0.1772461 0.1791992
vt 0.1772461 0.1867676
vt 0.1959229 0.1791992
vt 0.1959229 0.1867676
vt 0.2019043 0.1867676
vt 0.2019043 0.1791992
vt 0.189209 0.1867676
vt 0.189209 0.1791992
vt 0.1835938 0.1791992
vt 0.1835938 0.1867676
vt 0.1954346 0.1867676
vt 0.1954346 0.1791992
vt 0.1898193 0.1791992
vt 0.1898193 0.1867676
vt 0.4194336 0.2612305
vt 0.4211426 0.2805176
vt 0.4365234 0.2805176
vt 0.4382324 0.2612305
vt 0.3498535 0.2709961
vt 0.3483887 0.2902832
vt 0.3659668 0.2902832
vt 0.364502 0.2709961
vt 0.4016113 0.2585449
vt 0.4001465 0.277832
vt 0.4187012 0.277832
vt 0.4172363 0.2585449
vt 0.3466797 0.2486572
vt 0.3452148 0.2680664
vt 0.362793 0.2680664
vt 0.3613281 0.2486572

g bin_mesh_3247_129
usemtl bin_mesh_3247_129
usemap bin_mesh_3247_129
f 1/1/1 3/3/3 2/2/2
f 1/1/1 4/4/4 3/3/3
f 5/5/5 7/7/7 6/6/6
f 5/5/5 8/8/8 7/7/7
f 9/9/9 11/11/11 10/10/10
f 9/9/9 12/12/12 11/11/11
f 13/13/13 15/15/15 14/14/14
f 13/13/13 16/16/16 15/15/15
f 17/17/17 19/19/19 18/18/18
f 20/20/20 18/18/18 21/21/21
f 20/20/20 22/22/22 18/18/18
f 23/23/23 20/20/20 24/24/24
f 25/25/25 27/27/27 26/26/26
f 27/27/27 29/29/29 28/28/28
f 27/27/27 30/30/30 29/29/29
f 31/31/31 32/32/32 29/29/29
f 33/33/33 35/35/35 34/34/34
f 33/33/33 36/36/36 35/35/35
f 37/37/37 39/39/39 38/38/38
f 37/37/37 40/40/40 39/39/39
f 41/41/41 43/43/43 42/42/42
f 41/41/41 44/44/44 43/43/43
f 45/45/45 47/47/47 46/46/46
f 45/45/45 48/48/48 47/47/47
f 49/49/49 51/51/51 50/50/50
f 49/49/49 52/52/52 51/51/51
f 53/53/53 55/55/55 54/54/54
f 53/53/53 56/56/56 55/55/55
f 56/56/56 57/57/57 55/55/55
f 56/56/56 58/58/58 57/57/57
f 58/58/58 59/59/59 57/57/57
f 58/58/58 60/60/60 59/59/59
f 60/60/60 54/54/54 59/59/59
f 60/60/60 53/53/53 54/54/54
f 61/61/61 63/63/63 62/62/62
f 61/61/61 64/64/64 63/63/63
f 65/65/65 67/67/67 66/66/66
f 65/65/65 68/68/68 67/67/67
f 69/69/69 71/71/71 70/70/70
f 69/69/69 72/72/72 71/71/71
f 73/73/73 75/75/75 74/74/74
f 73/73/73 76/76/76 75/75/75
f 77/77/77 79/79/79 78/78/78
f 77/77/77 80/80/80 79/79/79
f 81/81/81 83/83/83 82/82/82
f 81/81/81 84/84/84 83/83/83
f 85/85/85 87/87/87 86/86/86
f 85/85/85 88/88/88 87/87/87
f 89/89/89 91/91/91 90/90/90
f 89/89/89 92/92/92 91/91/91
