#bush_small_mesh_(2)_3747_45.obj

v -0.3414987 0.6570171 0.3607197
v -0.3414987 0.6570171 -0.360721
v 0.3414949 0.6570171 -0.360721
v 0.3414949 0.6570171 0.3607197
v 0.3414949 0.3060694 -0.360721
v -0.3414987 0.3060694 -0.360721
v -0.3414987 0.3060694 0.3607197
v 0.3414949 0.3060694 0.3607197
v -0.3414987 0.3060694 0.3607197
v -0.3414987 0.6570171 0.3607197
v 0.3414949 0.6570171 0.3607197
v 0.3414949 0.3060694 0.3607197
v 0.3414949 0.3060694 0.3607197
v 0.3414949 0.6570171 0.3607197
v 0.3414949 0.6570171 -0.360721
v 0.3414949 0.3060694 -0.360721
v 0.3414949 0.3060694 -0.360721
v 0.3414949 0.6570171 -0.360721
v -0.3414987 0.6570171 -0.360721
v -0.3414987 0.3060694 -0.360721
v -0.3414987 0.3060694 -0.360721
v -0.3414987 0.6570171 -0.360721
v -0.3414987 0.6570171 0.3607197
v -0.3414987 0.3060694 0.3607197
v -0.5842355 0.3412491 0.6171182
v -0.5842355 0.3412491 -0.6171246
v 0.5842368 0.3412491 -0.6171246
v 0.5842368 0.3412491 0.6171182
v 0.5842368 -0.00969855 -0.6171246
v -0.5842355 -0.00969855 -0.6171246
v -0.5842355 -0.00969855 0.6171182
v 0.5842368 -0.00969855 0.6171182
v -0.5842355 -0.00969855 0.6171182
v -0.5842355 0.3412491 0.6171182
v 0.5842368 0.3412491 0.6171182
v 0.5842368 -0.00969855 0.6171182
v 0.5842368 -0.00969855 0.6171182
v 0.5842368 0.3412491 0.6171182
v 0.5842368 0.3412491 -0.6171246
v 0.5842368 -0.00969855 -0.6171246
v 0.5842368 -0.00969855 -0.6171246
v 0.5842368 0.3412491 -0.6171246
v -0.5842355 0.3412491 -0.6171246
v -0.5842355 -0.00969855 -0.6171246
v -0.5842355 -0.00969855 -0.6171246
v -0.5842355 0.3412491 -0.6171246
v -0.5842355 0.3412491 0.6171182
v -0.5842355 -0.00969855 0.6171182

vn 0 1 0
vn 0 1 0
vn 0 1 0
vn 0 1 0
vn 0 -1 0
vn 0 -1 0
vn 0 -1 0
vn 0 -1 0
vn 0 0 1
vn 0 0 1
vn 0 0 1
vn 0 0 1
vn 1 0 0
vn 1 0 0
vn 1 0 0
vn 1 0 0
vn 0 0 -1
vn 0 0 -1
vn 0 0 -1
vn 0 0 -1
vn -1 0 0
vn -1 0 0
vn -1 0 0
vn -1 0 0
vn 0 1 0
vn 0 1 0
vn 0 1 0
vn 0 1 0
vn 0 -1 0
vn 0 -1 0
vn 0 -1 0
vn 0 -1 0
vn 0 0 1
vn 0 0 1
vn 0 0 1
vn 0 0 1
vn 1 0 0
vn 1 0 0
vn 1 0 0
vn 1 0 0
vn 0 0 -1
vn 0 0 -1
vn 0 0 -1
vn 0 0 -1
vn -1 0 0
vn -1 0 0
vn -1 0 0
vn -1 0 0

vt 0.05627441 0.7744141
vt 0.05627441 0.8994141
vt 0.1745605 0.8994141
vt 0.1745605 0.7744141
vt 0.6982422 0.4089355
vt 0.6572266 0.4089355
vt 0.6572266 0.6142578
vt 0.6982422 0.6142578
vt 0.2575684 0.4787598
vt 0.2575684 0.519043
vt 0.2946777 0.519043
vt 0.2946777 0.4787598
vt 0.8081055 0.8076172
vt 0.8081055 0.8422852
vt 0.8417969 0.8422852
vt 0.8417969 0.8076172
vt 0.1450195 0.609375
vt 0.1450195 0.5395508
vt 0.08099365 0.5395508
vt 0.08099365 0.609375
vt 0.4597168 0.4245605
vt 0.4597168 0.515625
vt 0.5478516 0.515625
vt 0.5478516 0.4245605
vt 0.05627441 0.7744141
vt 0.05627441 0.8994141
vt 0.1745605 0.8994141
vt 0.1745605 0.7744141
vt 0.6982422 0.4089355
vt 0.6572266 0.4089355
vt 0.6572266 0.6142578
vt 0.6982422 0.6142578
vt 0.2575684 0.4787598
vt 0.2575684 0.519043
vt 0.2946777 0.519043
vt 0.2946777 0.4787598
vt 0.8081055 0.8076172
vt 0.8081055 0.8422852
vt 0.8417969 0.8422852
vt 0.8417969 0.8076172
vt 0.1450195 0.609375
vt 0.1450195 0.5395508
vt 0.08099365 0.5395508
vt 0.08099365 0.609375
vt 0.4597168 0.4245605
vt 0.4597168 0.515625
vt 0.5478516 0.515625
vt 0.5478516 0.4245605

g bush_small_mesh_(2)_3747_45
usemtl bush_small_mesh_(2)_3747_45
usemap bush_small_mesh_(2)_3747_45
f 1/1/1 3/3/3 2/2/2
f 1/1/1 4/4/4 3/3/3
f 5/5/5 7/7/7 6/6/6
f 5/5/5 8/8/8 7/7/7
f 9/9/9 11/11/11 10/10/10
f 9/9/9 12/12/12 11/11/11
f 13/13/13 15/15/15 14/14/14
f 13/13/13 16/16/16 15/15/15
f 17/17/17 19/19/19 18/18/18
f 17/17/17 20/20/20 19/19/19
f 21/21/21 23/23/23 22/22/22
f 21/21/21 24/24/24 23/23/23
f 25/25/25 27/27/27 26/26/26
f 25/25/25 28/28/28 27/27/27
f 29/29/29 31/31/31 30/30/30
f 29/29/29 32/32/32 31/31/31
f 33/33/33 35/35/35 34/34/34
f 33/33/33 36/36/36 35/35/35
f 37/37/37 39/39/39 38/38/38
f 37/37/37 40/40/40 39/39/39
f 41/41/41 43/43/43 42/42/42
f 41/41/41 44/44/44 43/43/43
f 45/45/45 47/47/47 46/46/46
f 45/45/45 48/48/48 47/47/47
