#Cube_1529_80.obj

v 3.349269 0 0
v -3.873972 0 0
v 3.349269 0.7486248 0
v -3.873972 0.7486248 0
v -3.873972 0 -0.2999992
v 3.349269 0 -0.2999992
v -3.873972 0.7486248 -0.2999992
v 3.349269 0.7486248 -0.2999992
v 3.660572 0 -0.2999992
v 3.660572 0 0
v 3.660572 0.7486248 -0.2999992
v 3.660572 0.7486248 0
v 3.349269 0.7486248 0
v -3.873972 0.7486248 0
v 3.349269 0.7486248 -0.2999992
v -3.873972 0.7486248 -0.2999992
v 3.349269 0.7486248 -12.01229
v 3.349269 0 -12.01229
v 3.660572 0.7486248 -12.01229
v 3.660572 0 -12.01229
v 3.349269 0 0
v 3.349269 0.7486248 0
v 3.660572 0 0
v 3.660572 0.7486248 0
v 3.660572 0.7486248 0
v 3.660572 0.7486248 -0.2999992
v 3.349269 0.7486248 -0.2999992
v 3.349269 0 -0.2999992
v 3.349269 0.7486248 -12.01229
v 3.349269 0 -12.01229
v 3.660572 0.7486248 -12.01229
v 3.349269 0.7486248 -12.01229
v 3.660572 0 -12.01229
v 3.660572 0.7486248 -12.01229

vn 0 0 1
vn 0 0 1
vn 0 0 1
vn 0 0 1
vn 0 0 -1
vn 0 0 -1
vn 0 0 -1
vn 0 0 -1
vn 1 0 0
vn 1 0 0
vn 1 0 0
vn 1 0 0
vn 0 1 0
vn 0 1 0
vn 0 1 0
vn 0 1 0
vn 0 0 -0.9999999
vn 0 0 -0.9999999
vn 0 0 -0.9999999
vn 0 0 -0.9999999
vn 0 0 0.9999999
vn 0 0 0.9999999
vn 0 0 0.9999999
vn 0 0 0.9999999
vn 0 1 0
vn 0 1 0
vn -1 0 0
vn -1 0 0
vn -1 0 0
vn -1 0 0
vn 0 1 0
vn 0 1 0
vn 1 0 0
vn 1 0 0

vt 3.349609 0
vt -3.873047 0
vt 3.349609 0.7485352
vt -3.873047 0.7485352
vt 3.873047 0
vt -3.349609 0
vt 3.873047 0.7485352
vt -3.349609 0.7485352
vt 0.3000488 0
vt 0 0
vt 0.3000488 0.7485352
vt 0 0.7485352
vt -3.349609 0
vt 3.873047 0
vt -3.349609 -0.3000488
vt 3.873047 -0.3000488
vt -3.349609 0.7485352
vt -3.349609 0
vt -3.660156 0.7485352
vt -3.660156 0
vt 3.349609 0
vt 3.349609 0.7485352
vt 3.660156 0
vt 3.660156 0.7485352
vt -3.660156 0
vt -3.660156 -0.3000488
vt -0.3000488 0.7485352
vt -0.3000488 0
vt -12.01563 0.7485352
vt -12.01563 0
vt -3.660156 -12.01563
vt -3.349609 -12.01563
vt 12.01563 0
vt 12.01563 0.7485352

g Cube_1529_80
usemtl Cube_1529_80
usemap Cube_1529_80
f 1/1/1 3/3/3 2/2/2
f 2/2/2 3/3/3 4/4/4
f 5/5/5 7/7/7 6/6/6
f 6/6/6 7/7/7 8/8/8
f 9/9/9 11/11/11 10/10/10
f 10/10/10 11/11/11 12/12/12
f 13/13/13 15/15/15 14/14/14
f 14/14/14 15/15/15 16/16/16
f 17/17/17 19/19/19 18/18/18
f 18/18/18 19/19/19 20/20/20
f 21/21/21 23/23/23 22/22/22
f 22/22/22 23/23/23 24/24/24
f 13/13/13 25/25/25 15/15/15
f 15/15/15 25/25/25 26/26/26
f 27/27/27 29/29/29 28/28/28
f 28/28/28 29/29/29 30/30/30
f 26/26/26 31/31/31 15/15/15
f 15/15/15 31/31/31 32/32/32
f 9/9/9 33/33/33 11/11/11
f 11/11/11 33/33/33 34/34/34
