#Cube_(10)_1784_138.obj

v -0.123413 0 -0.9999995
v -0.1234054 0 34.20509
v -0.123413 2.487061 -0.9999995
v -0.1234054 2.487061 34.20509
v -0.1234054 2.487061 34.20509
v -0.5130613 2.487061 34.20509
v -0.123413 2.487061 -0.9999995
v -0.5130689 2.487061 -0.9999995

vn -1.549755E-07 0 -1.000001
vn -1.549755E-07 0 -1.000001
vn -1.549755E-07 0 -1.000001
vn -1.549755E-07 0 -1.000001
vn 0 1 0
vn 0 1 0
vn 0 1 0
vn 0 1 0

vt 1 0
vt -34.21875 0
vt 1 2.486328
vt -34.21875 2.486328
vt 0.1234131 34.21875
vt 0.5131836 34.21875
vt 0.1234131 -1
vt 0.5131836 -1

g Cube_(10)_1784_138
usemtl Cube_(10)_1784_138
usemap Cube_(10)_1784_138
f 1/1/1 3/3/3 2/2/2
f 2/2/2 3/3/3 4/4/4
f 5/5/5 7/7/7 6/6/6
f 6/6/6 7/7/7 8/8/8
