#Cube_1372_83.obj

v 0 0 0
v -11.67034 -1.020918 0
v 0 1 0
v -11.67034 -0.02091777 0
v -11.67034 -1.020918 0
v -11.67034 -1.020918 -0.2999992
v -11.67034 -0.02091777 0
v -11.67034 -0.02091777 -0.2999992
v -11.67034 -1.020918 -0.2999992
v 0 0 -0.2999992
v -11.67034 -0.02091777 -0.2999992
v 0 1 -0.2999992
v 0 0 -0.2999992
v 0 0 0
v 0 1 -0.2999992
v 0 1 0
v 0 1 0
v -11.67034 -0.02091777 0
v 0 1 -0.2999992
v -11.67034 -0.02091777 -0.2999992

vn 0 0 1
vn 0 0 1
vn 0 0 1
vn 0 0 1
vn -1 0 0
vn -1 0 0
vn -1 0 0
vn -1 0 0
vn 0 0 -1
vn 0 0 -1
vn 0 0 -1
vn 0 0 -1
vn 1 0 0
vn 1 0 0
vn 1 0 0
vn 1 0 0
vn -0.08714689 0.9961955 0
vn -0.08714689 0.9961955 0
vn -0.08714689 0.9961955 0
vn -0.08714689 0.9961955 0

vt 0 0
vt -11.67188 -1.020508
vt 0 1
vt -11.67188 -0.0209198
vt 0 -1.020508
vt -0.3000488 -1.020508
vt 0 -0.0209198
vt -0.3000488 -0.0209198
vt 11.67188 -1.020508
vt 0 0
vt 11.67188 -0.0209198
vt 0 1
vt 0.3000488 0
vt 0 0
vt 0.3000488 1
vt 0 1
vt -0.0871582 0
vt 11.625 0
vt -0.0871582 -0.3000488
vt 11.625 -0.3000488

g Cube_1372_83
usemtl Cube_1372_83
usemap Cube_1372_83
f 1/1/1 3/3/3 2/2/2
f 2/2/2 3/3/3 4/4/4
f 5/5/5 7/7/7 6/6/6
f 6/6/6 7/7/7 8/8/8
f 9/9/9 11/11/11 10/10/10
f 10/10/10 11/11/11 12/12/12
f 13/13/13 15/15/15 14/14/14
f 14/14/14 15/15/15 16/16/16
f 17/17/17 19/19/19 18/18/18
f 18/18/18 19/19/19 20/20/20
