#Cube_(1)_1540_53.obj

v 0 0 0
v -2 0 0
v 0 1 0
v -2 1 0
v -2 0 -0.2880974
v 0 0 -0.2880974
v -2 1 -0.2880974
v 0 1 -0.2880974
v 0 0 -0.2880974
v 0 0 0
v 0 1 -0.2880974
v 0 1 0
v 0 4 0
v -2 4 0
v 0 4 -0.2880974
v -2 4 -0.2880974
v 0 3 0
v -2 3 0
v 0 3 -0.2880974
v 0 3 0
v -2 1 0
v -2 1 -0.2880974
v -2 3 0
v -2 3 -0.2880974
v -2 3 -0.2880974
v 0 3 -0.2880974
v 0 4 0
v -2 4 0
v 0 4 -0.2880974
v 0 4 0
v -11 3 0
v -11 3 -0.2880974
v -11 4 0
v -11 4 -0.2880974
v -2 4 -0.2880974
v 0 4 -0.2880974
v -2 3 0
v -2 3 -0.2880974
v -7 3 0
v -7 3 -0.2880974
v -7 4 0
v -7 3 0
v -7 3 -0.2880974
v -7 4 -0.2880974
v -7 4 -0.2880974
v -7 4 0
v -4 1 0
v -4 0 0
v -4 0 -0.2880974
v -4 1 -0.2880974
v -2 1 -0.2880974
v -2 1 0
v -4 1 -0.2880974
v -4 1 0
v -7 1 0
v -7 0 0
v -7 0 -0.2880974
v -7 1 -0.2880974
v -4 1 -0.2880974
v -4 1 0
v -4 3 -0.2880974
v -4 3 0
v -4 3 -0.2880974
v -4 3 0
v -7 1 0
v -7 1 -0.2880974
v -7 3 0
v -7 3 -0.2880974
v -9 3 0
v -9 3 -0.2880974
v -9 4 0
v -9 3 0
v -9 3 -0.2880974
v -9 4 -0.2880974
v -9 4 -0.2880974
v -9 4 0
v -11 4 0
v -11 3 0
v -11 3 -0.2880974
v -11 4 -0.2880974
v -11 4 -0.2880974
v -11 4 0
v -9 3 0
v -9 3 -0.2880974
v -9 0 0
v -9 0 -0.2880974
v -11 3 0
v -9 3 0
v -11 0 0
v -9 0 0
v -9 3 -0.2880974
v -11 3 -0.2880974
v -9 0 -0.2880974
v -11 0 -0.2880974
v -11 0 -0.2880974
v -11 0 0
v -9 1 0
v -9 0 0
v -9 0 -0.2880974
v -9 1 -0.2880974
v -7 1 -0.2880974
v -7 1 0
v -9 1 -0.2880974
v -9 1 0

vn 0 0 1
vn 0 0 1
vn 0 0 1
vn 0 0 1
vn 0 0 -1
vn 0 0 -1
vn 0 0 -1
vn 0 0 -1
vn 1 0 0
vn 1 0 0
vn 1 0 0
vn 1 0 0
vn 0 1 0
vn 0 1 0
vn 0 1 0
vn 0 1 0
vn 0 0 1
vn 0 0 1
vn 1 0 0
vn 1 0 0
vn -1 0 0
vn -1 0 0
vn -1 0 0
vn -1 0 0
vn 0 0 -1
vn 0 0 -1
vn 0 0 1
vn 0 0 1
vn 1 0 0
vn 1 0 0
vn -1 0 0
vn -1 0 0
vn -1 0 0
vn -1 0 0
vn 0 0 -1
vn 0 0 -1
vn 0 -1 0
vn 0 -1 0
vn 0 -1 0
vn 0 -1 0
vn 0 0 1
vn 0 0 1
vn 0 0 -1
vn 0 0 -1
vn 0 1 0
vn 0 1 0
vn 0 0 1
vn 0 0 1
vn 0 0 -1
vn 0 0 -1
vn 0 1 0
vn 0 1 0
vn 0 1 0
vn 0 1 0
vn 0 0 1
vn 0 0 1
vn 0 0 -1
vn 0 0 -1
vn 1 0 0
vn 1 0 0
vn 1 0 0
vn 1 0 0
vn 0 0 -1
vn 0 0 1
vn -1 0 0
vn -1 0 0
vn -1 0 0
vn -1 0 0
vn 0 -1 0
vn 0 -1 0
vn 0 0 1
vn 0 0 1
vn 0 0 -1
vn 0 0 -1
vn 0 1 0
vn 0 1 0
vn 0 0 1
vn 0 0 1
vn 0 0 -1
vn 0 0 -1
vn 0 1 0
vn 0 1 0
vn 1 0 0
vn 1 0 0
vn 1 0 0
vn 1 0 0
vn 0 0 0.9999999
vn 0 0 0.9999999
vn 0 0 0.9999999
vn 0 0 0.9999999
vn 0 0 -0.9999999
vn 0 0 -0.9999999
vn 0 0 -0.9999999
vn 0 0 -0.9999999
vn -1 0 0
vn -1 0 0
vn 0 0 1
vn 0 0 1
vn 0 0 -1
vn 0 0 -1
vn 0 1 0
vn 0 1 0
vn 0 1 0
vn 0 1 0

vt 0 0
vt -2 0
vt 0 1
vt -2 1
vt 2 0
vt 0 0
vt 2 1
vt 0 1
vt 0.2880859 0
vt 0 0
vt 0.2880859 1
vt 0 1
vt 0 0
vt 2 0
vt 0 -0.2880859
vt 2 -0.2880859
vt 0 3
vt -2 3
vt 0.2880859 3
vt 0 3
vt 0 1
vt -0.2880859 1
vt 0 3
vt -0.2880859 3
vt 2 3
vt 0 3
vt 0 4
vt -2 4
vt 0.2880859 4
vt 0 4
vt 0 3
vt -0.2880859 3
vt 0 4
vt -0.2880859 4
vt 2 4
vt 0 4
vt -2 0
vt -2 -0.2880859
vt -7 0
vt -7 -0.2880859
vt -7 4
vt -7 3
vt 7 3
vt 7 4
vt 7 -0.2880859
vt 7 0
vt -4 1
vt -4 0
vt 4 0
vt 4 1
vt 2 -0.2880859
vt 2 0
vt 4 -0.2880859
vt 4 0
vt -7 1
vt -7 0
vt 7 0
vt 7 1
vt 0.2880859 1
vt 0 1
vt 0.2880859 3
vt 0 3
vt 4 3
vt -4 3
vt 0 1
vt -0.2880859 1
vt 0 3
vt -0.2880859 3
vt -9 0
vt -9 -0.2880859
vt -9 4
vt -9 3
vt 9 3
vt 9 4
vt 9 -0.2880859
vt 9 0
vt -11 4
vt -11 3
vt 11 3
vt 11 4
vt 11 -0.2880859
vt 11 0
vt 0 3
vt 0.2880859 3
vt 0 0
vt 0.2880859 0
vt -11 3
vt -9 3
vt -11 0
vt -9 0
vt 9 3
vt 11 3
vt 9 0
vt 11 0
vt -0.2880859 0
vt 0 0
vt -9 1
vt -9 0
vt 9 0
vt 9 1
vt 7 -0.2880859
vt 7 0
vt 9 -0.2880859
vt 9 0

g Cube_(1)_1540_53
usemtl Cube_(1)_1540_53
usemap Cube_(1)_1540_53
f 1/1/1 3/3/3 2/2/2
f 2/2/2 3/3/3 4/4/4
f 5/5/5 7/7/7 6/6/6
f 6/6/6 7/7/7 8/8/8
f 9/9/9 11/11/11 10/10/10
f 10/10/10 11/11/11 12/12/12
f 13/13/13 15/15/15 14/14/14
f 14/14/14 15/15/15 16/16/16
f 3/3/3 17/17/17 4/4/4
f 4/4/4 17/17/17 18/18/18
f 11/11/11 19/19/19 12/12/12
f 12/12/12 19/19/19 20/20/20
f 21/21/21 23/23/23 22/22/22
f 22/22/22 23/23/23 24/24/24
f 7/7/7 25/25/25 8/8/8
f 8/8/8 25/25/25 26/26/26
f 17/17/17 27/27/27 18/18/18
f 18/18/18 27/27/27 28/28/28
f 19/19/19 29/29/29 20/20/20
f 20/20/20 29/29/29 30/30/30
f 31/31/31 33/33/33 32/32/32
f 32/32/32 33/33/33 34/34/34
f 25/25/25 35/35/35 26/26/26
f 26/26/26 35/35/35 36/36/36
f 37/37/37 39/39/39 38/38/38
f 38/38/38 39/39/39 40/40/40
f 28/28/28 41/41/41 18/18/18
f 18/18/18 41/41/41 42/42/42
f 25/25/25 43/43/43 35/35/35
f 35/35/35 43/43/43 44/44/44
f 16/16/16 45/45/45 14/14/14
f 14/14/14 45/45/45 46/46/46
f 4/4/4 47/47/47 2/2/2
f 2/2/2 47/47/47 48/48/48
f 5/5/5 49/49/49 7/7/7
f 7/7/7 49/49/49 50/50/50
f 51/51/51 53/53/53 52/52/52
f 52/52/52 53/53/53 54/54/54
f 47/47/47 55/55/55 48/48/48
f 48/48/48 55/55/55 56/56/56
f 49/49/49 57/57/57 50/50/50
f 50/50/50 57/57/57 58/58/58
f 59/59/59 61/61/61 60/60/60
f 60/60/60 61/61/61 62/62/62
f 58/58/58 43/43/43 50/50/50
f 50/50/50 43/43/43 63/63/63
f 47/47/47 64/64/64 55/55/55
f 55/55/55 64/64/64 42/42/42
f 65/65/65 67/67/67 66/66/66
f 66/66/66 67/67/67 68/68/68
f 39/39/39 69/69/69 40/40/40
f 40/40/40 69/69/69 70/70/70
f 41/41/41 71/71/71 42/42/42
f 42/42/42 71/71/71 72/72/72
f 43/43/43 73/73/73 44/44/44
f 44/44/44 73/73/73 74/74/74
f 45/45/45 75/75/75 46/46/46
f 46/46/46 75/75/75 76/76/76
f 71/71/71 77/77/77 72/72/72
f 72/72/72 77/77/77 78/78/78
f 73/73/73 79/79/79 74/74/74
f 74/74/74 79/79/79 80/80/80
f 75/75/75 81/81/81 76/76/76
f 76/76/76 81/81/81 82/82/82
f 83/83/83 85/85/85 84/84/84
f 84/84/84 85/85/85 86/86/86
f 87/87/87 89/89/89 88/88/88
f 88/88/88 89/89/89 90/90/90
f 91/91/91 93/93/93 92/92/92
f 92/92/92 93/93/93 94/94/94
f 32/32/32 95/95/95 31/31/31
f 31/31/31 95/95/95 96/96/96
f 55/55/55 97/97/97 56/56/56
f 56/56/56 97/97/97 98/98/98
f 57/57/57 99/99/99 58/58/58
f 58/58/58 99/99/99 100/100/100
f 101/101/101 103/103/103 102/102/102
f 102/102/102 103/103/103 104/104/104
