#Cube_(5)_598_7.obj

v 0 0 0
v -5 0 0
v 0 5 3.885838E-07
v -5 5 3.885838E-07
v -5 0 0
v -5 3.486443E-07 -1
v -5 5 3.885838E-07
v -5 5 -0.9999998
v -5 3.486443E-07 -1
v 0 3.486443E-07 -1
v -5 5 -0.9999998
v 0 5 -0.9999998
v 0 3.486443E-07 -1
v 0 0 0
v 0 5 -0.9999998
v 0 5 3.885838E-07
v 0 5 3.885838E-07
v -5 5 3.885838E-07
v 0 5 -0.9999998
v -5 5 -0.9999998
v 0 3.486443E-07 -1
v -5 3.486443E-07 -1
v 0 0 0
v -5 0 0

vn 0 0.9129556 0.4080588
vn 0 0.9129556 0.4080588
vn 0 0.9129556 0.4080588
vn 0 0.9129556 0.4080588
vn -1 0 0
vn -1 0 0
vn -1 0 0
vn -1 0 0
vn 0 -0.9129556 -0.4080588
vn 0 -0.9129556 -0.4080588
vn 0 -0.9129556 -0.4080588
vn 0 -0.9129556 -0.4080588
vn 1 0 0
vn 1 0 0
vn 1 0 0
vn 1 0 0
vn 0 0.4080588 -0.9129556
vn 0 0.4080588 -0.9129556
vn 0 0.4080588 -0.9129556
vn 0 0.4080588 -0.9129556
vn 0 -0.4080588 0.9129556
vn 0 -0.4080588 0.9129556
vn 0 -0.4080588 0.9129556
vn 0 -0.4080588 0.9129556

vt 0 0
vt -5 0
vt 0 5
vt -5 5
vt 0 0
vt -1 0
vt 0 5
vt -1 5
vt 5 0
vt 0 0
vt 5 5
vt 0 5
vt 1 0
vt 0 0
vt 1 5
vt 0 5
vt 0 0
vt 5 0
vt 0 -1
vt 5 -1
vt 0 -1
vt -5 -1
vt 0 0
vt -5 0

g Cube_(5)_598_7
usemtl Cube_(5)_598_7
usemap Cube_(5)_598_7
f 1/1/1 3/3/3 2/2/2
f 2/2/2 3/3/3 4/4/4
f 5/5/5 7/7/7 6/6/6
f 6/6/6 7/7/7 8/8/8
f 9/9/9 11/11/11 10/10/10
f 10/10/10 11/11/11 12/12/12
f 13/13/13 15/15/15 14/14/14
f 14/14/14 15/15/15 16/16/16
f 17/17/17 19/19/19 18/18/18
f 18/18/18 19/19/19 20/20/20
f 21/21/21 23/23/23 22/22/22
f 22/22/22 23/23/23 24/24/24
