#Cube_(3)_3971_182.obj

v 2.729806 -2.694936 7.579137
v 1.729807 -2.694936 7.579136
v 2.729806 -2.494756 7.579137
v 1.729807 -2.494756 7.579136
v -0.128868 -0.2484617 -0.133976
v -1.130542 6.940056 -17.84104
v -0.128868 -0.04828072 -0.133976
v -1.130542 7.140238 -17.84104
v -1.253538 6.612289 -18.64079
v -0.2535395 6.612289 -18.64079
v -1.253538 6.812471 -18.64079
v -0.2535395 6.812471 -18.64079
v -0.1305422 6.940056 -17.84104
v 0.871132 -0.2484617 -0.1339757
v -0.1305422 7.140238 -17.84104
v 0.871132 -0.04828165 -0.1339757
v 0.871132 -0.04828165 -0.1339757
v -0.128868 -0.04828072 -0.133976
v -0.1305422 7.140238 -17.84104
v -1.130542 7.140238 -17.84104
v -0.1305422 6.940056 -17.84104
v -1.130542 6.940056 -17.84104
v 0.871132 -0.2484617 -0.1339757
v -0.128868 -0.2484617 -0.133976
v -1.130542 6.940056 -17.84104
v -0.1305422 6.940056 -17.84104
v -1.253538 6.612289 -18.64079
v -0.2535395 6.612289 -18.64079
v -1.130542 7.140238 -17.84104
v -1.130542 6.940056 -17.84104
v -1.253538 6.812471 -18.64079
v -1.253538 6.612289 -18.64079
v -0.1305422 6.940056 -17.84104
v -0.1305422 7.140238 -17.84104
v -0.2535395 6.612289 -18.64079
v -0.2535395 6.812471 -18.64079
v -0.1305422 7.140238 -17.84104
v -1.130542 7.140238 -17.84104
v -0.2535395 6.812471 -18.64079
v -1.253538 6.812471 -18.64079
v 0.871132 -0.2484617 -0.1339757
v -0.128868 -0.2484617 -0.133976
v 0.9496111 -0.3965282 0.5963579
v -0.05038887 -0.3965282 0.5963576
v 0.871132 -0.04828165 -0.1339757
v 0.871132 -0.2484617 -0.1339757
v 0.9496111 -0.1963482 0.5963579
v 0.9496111 -0.3965282 0.5963579
v -0.128868 -0.2484617 -0.133976
v -0.128868 -0.04828072 -0.133976
v -0.05038887 -0.3965282 0.5963576
v -0.05038887 -0.1963482 0.5963576
v -0.128868 -0.04828072 -0.133976
v 0.871132 -0.04828165 -0.1339757
v -0.05038887 -0.1963482 0.5963576
v 0.9496111 -0.1963482 0.5963579
v 0.9496111 -0.3965282 0.5963579
v -0.05038887 -0.3965282 0.5963576
v 2.729806 -2.694936 7.579137
v 1.729807 -2.694936 7.579136
v 0.9496111 -0.1963482 0.5963579
v 0.9496111 -0.3965282 0.5963579
v 2.729806 -2.494756 7.579137
v 2.729806 -2.694936 7.579137
v -0.05038887 -0.3965282 0.5963576
v -0.05038887 -0.1963482 0.5963576
v 1.729807 -2.694936 7.579136
v 1.729807 -2.494756 7.579136
v -0.05038887 -0.1963482 0.5963576
v 0.9496111 -0.1963482 0.5963579
v 1.729807 -2.494756 7.579136
v 2.729806 -2.494756 7.579137

vn -0.1520077 1.385295E-09 0.9883792
vn -0.1520077 1.385295E-09 0.9883792
vn -0.1520077 1.385295E-09 0.9883792
vn -0.1520077 1.385295E-09 0.9883792
vn -0.9953869 1.817005E-08 -0.09594259
vn -0.9953869 1.817005E-08 -0.09594259
vn -0.9953869 1.817005E-08 -0.09594259
vn -0.9953869 1.817005E-08 -0.09594259
vn 0.1520077 -1.385295E-09 -0.9883792
vn 0.1520077 -1.385295E-09 -0.9883792
vn 0.1520077 -1.385295E-09 -0.9883792
vn 0.1520077 -1.385295E-09 -0.9883792
vn 0.9953869 -1.817005E-08 0.09594256
vn 0.9953869 -1.817005E-08 0.09594256
vn 0.9953869 -1.817005E-08 0.09594256
vn 0.9953869 -1.817005E-08 0.09594256
vn -0.05717824 0.9265573 0.3717824
vn -0.05717824 0.9265574 0.3717824
vn -0.05717824 0.9265574 0.3717824
vn -0.05717824 0.9265574 0.3717824
vn 0.05717824 -0.9265574 -0.3717824
vn 0.05717824 -0.9265574 -0.3717824
vn 0.05717824 -0.9265574 -0.3717824
vn 0.05717824 -0.9265573 -0.3717824
vn -0.05764449 -0.9253063 0.3748138
vn -0.05764449 -0.9253063 0.3748138
vn -0.05764449 -0.9253063 0.3748138
vn -0.0576445 -0.9253063 0.3748138
vn -1 1.812074E-08 -2.05636E-06
vn -1 1.812074E-08 -2.05636E-06
vn -1 1.812074E-08 -2.05636E-06
vn -1 1.812074E-08 -2.05636E-06
vn 1 -1.812074E-08 9.089708E-07
vn 1 -1.812074E-08 9.23872E-07
vn 1 -1.812074E-08 9.23872E-07
vn 1 -1.812074E-08 9.23872E-07
vn 0.05764449 0.9253063 -0.3748138
vn 0.05764449 0.9253063 -0.3748138
vn 0.05764449 0.9253063 -0.3748138
vn 0.05764449 0.9253063 -0.3748138
vn 0.03020328 -0.9800612 -0.1963868
vn 0.03020328 -0.9800612 -0.1963868
vn 0.03020328 -0.9800612 -0.1963868
vn 0.03020328 -0.9800612 -0.1963868
vn 0.9989626 -1.816502E-08 0.04553775
vn 0.9989626 -1.816502E-08 0.04553777
vn 0.9989626 -1.816502E-08 0.04553777
vn 0.9989626 -1.816502E-08 0.04553777
vn -0.9989627 1.816502E-08 -0.04553765
vn -0.9989626 1.816502E-08 -0.04553767
vn -0.9989626 1.816502E-08 -0.04553767
vn -0.9989626 1.816502E-08 -0.04553767
vn -0.03020328 0.9800612 0.1963868
vn -0.03020328 0.9800612 0.1963868
vn -0.03020328 0.9800612 0.1963868
vn -0.03020328 0.9800612 0.1963868
vn 0.04752559 -0.9498677 -0.3090193
vn 0.04752558 -0.9498676 -0.3090192
vn 0.04752558 -0.9498676 -0.3090192
vn 0.04752559 -0.9498676 -0.3090193
vn 0.995297 -1.790132E-08 -0.09687191
vn 0.9952968 -1.790131E-08 -0.09687187
vn 0.9952968 -1.790131E-08 -0.09687187
vn 0.9952968 -1.790131E-08 -0.09687187
vn -0.9952968 1.790131E-08 0.09687203
vn -0.9952968 1.790131E-08 0.09687203
vn -0.9952968 1.790131E-08 0.09687203
vn -0.9952968 1.790131E-08 0.09687205
vn -0.04752559 0.9498677 0.3090193
vn -0.04752558 0.9498676 0.3090192
vn -0.04752558 0.9498676 0.3090192
vn -0.04752558 0.9498676 0.3090192

vt 2.730469 -2.695313
vt 1.729492 -2.695313
vt 2.730469 -2.494141
vt 1.729492 -2.494141
vt -0.1409912 -0.2484131
vt -17.875 6.941406
vt -0.1409912 -0.04827881
vt -17.875 7.140625
vt 1.253906 6.613281
vt 0.2536621 6.613281
vt 1.253906 6.8125
vt 0.2536621 6.8125
vt 17.8125 6.941406
vt 0.08453369 -0.2484131
vt 17.8125 7.140625
vt 0.08453369 -0.04827881
vt -0.8710938 -0.105957
vt 0.1289063 -0.105957
vt 0.1304932 -19.21875
vt 1.130859 -19.21875
vt -0.1304932 -19.14063
vt -1.130859 -19.14063
vt 0.8710938 -0.03067017
vt -0.1289063 -0.03067017
vt -1.130859 -13.875
vt -0.1304932 -13.875
vt -1.253906 -14.74219
vt -0.2536621 -14.74219
vt -17.8125 7.140625
vt -17.8125 6.941406
vt -18.60938 6.8125
vt -18.60938 6.613281
vt 17.65625 6.941406
vt 17.65625 7.140625
vt 18.46875 6.613281
vt 18.46875 6.8125
vt 0.1304932 -13.79688
vt 1.130859 -13.79688
vt 0.2536621 -14.66406
vt 1.253906 -14.66406
vt 0.8710938 -0.08190918
vt -0.1289063 -0.08190918
vt 0.949707 0.6630859
vt -0.05038452 0.6630859
vt 0.04013062 -0.04827881
vt 0.04013062 -0.2484131
vt -0.6943359 -0.1962891
vt -0.6943359 -0.3964844
vt -0.1469727 -0.2484131
vt -0.1469727 -0.04827881
vt 0.5874023 -0.3964844
vt 0.5874023 -0.1962891
vt 0.1289063 -0.1217041
vt -0.8710938 -0.1217041
vt 0.05038452 0.6235352
vt -0.949707 0.6235352
vt 0.949707 0.6904297
vt -0.05038452 0.6904297
vt 2.730469 8.039063
vt 1.729492 8.039063
vt -0.8125 -0.1962891
vt -0.8125 -0.3964844
vt -8.015625 -2.494141
vt -8.015625 -2.695313
vt 0.5654297 -0.3964844
vt 0.5654297 -0.1962891
vt 7.773438 -2.695313
vt 7.773438 -2.494141
vt 0.05038452 0.6279297
vt -0.949707 0.6279297
vt -1.729492 7.980469
vt -2.730469 7.980469

g Cube_(3)_3971_182
usemtl Cube_(3)_3971_182
usemap Cube_(3)_3971_182
f 1/1/1 3/3/3 2/2/2
f 2/2/2 3/3/3 4/4/4
f 5/5/5 7/7/7 6/6/6
f 6/6/6 7/7/7 8/8/8
f 9/9/9 11/11/11 10/10/10
f 10/10/10 11/11/11 12/12/12
f 13/13/13 15/15/15 14/14/14
f 14/14/14 15/15/15 16/16/16
f 17/17/17 19/19/19 18/18/18
f 18/18/18 19/19/19 20/20/20
f 21/21/21 23/23/23 22/22/22
f 22/22/22 23/23/23 24/24/24
f 25/25/25 27/27/27 26/26/26
f 26/26/26 27/27/27 28/28/28
f 29/29/29 31/31/31 30/30/30
f 30/30/30 31/31/31 32/32/32
f 33/33/33 35/35/35 34/34/34
f 34/34/34 35/35/35 36/36/36
f 37/37/37 39/39/39 38/38/38
f 38/38/38 39/39/39 40/40/40
f 41/41/41 43/43/43 42/42/42
f 42/42/42 43/43/43 44/44/44
f 45/45/45 47/47/47 46/46/46
f 46/46/46 47/47/47 48/48/48
f 49/49/49 51/51/51 50/50/50
f 50/50/50 51/51/51 52/52/52
f 53/53/53 55/55/55 54/54/54
f 54/54/54 55/55/55 56/56/56
f 57/57/57 59/59/59 58/58/58
f 58/58/58 59/59/59 60/60/60
f 61/61/61 63/63/63 62/62/62
f 62/62/62 63/63/63 64/64/64
f 65/65/65 67/67/67 66/66/66
f 66/66/66 67/67/67 68/68/68
f 69/69/69 71/71/71 70/70/70
f 70/70/70 71/71/71 72/72/72
