#Cube_3351_255.obj

v 0 -0.05629605 0.01265593
v -1 -0.05629605 0.01265593
v 0 0.1438844 0.01265632
v -1 0.1438844 0.01265632
v -1 -0.05629605 0.01265593
v -1 -1.523046 -17.28722
v -1 0.1438844 0.01265632
v -1 -1.322866 -17.28722
v -1 -1.523046 -17.28722
v 0 -1.523046 -17.28722
v -1 -1.322866 -17.28722
v 0 -1.322866 -17.28722
v 0 -1.523046 -17.28722
v 0 -0.05629605 0.01265593
v 0 -1.322866 -17.28722
v 0 0.1438844 0.01265632
v 0 0.1438844 0.01265632
v -1 0.1438844 0.01265632
v 0 -1.322866 -17.28722
v -1 -1.322866 -17.28722
v 0 -1.523046 -17.28722
v -1 -1.523046 -17.28722
v 0 -0.05629605 0.01265593
v -1 -0.05629605 0.01265593

vn 0 -0.2193361 0.9756493
vn 0 -0.2193361 0.9756493
vn 0 -0.2193361 0.9756493
vn 0 -0.2193361 0.9756493
vn -1 0 0
vn -1 0 0
vn -1 0 0
vn -1 0 0
vn 0 0.2193361 -0.9756494
vn 0 0.2193361 -0.9756494
vn 0 0.2193361 -0.9756494
vn 0 0.2193361 -0.9756494
vn 1 0 0
vn 1 0 0
vn 1 0 0
vn 1 0 0
vn 0 0.9906912 0.1361283
vn 0 0.9906912 0.1361283
vn 0 0.9906912 0.1361283
vn 0 0.9906912 0.1361283
vn 0 -0.9906912 -0.1361284
vn 0 -0.9906912 -0.1361284
vn 0 -0.9906912 -0.1361284
vn 0 -0.9906912 -0.1361284

vt 0 -0.05630493
vt -1 -0.05630493
vt 0 0.1439209
vt -1 0.1439209
vt 0.01265717 -0.05630493
vt -17.28125 -1.523438
vt 0.01265717 0.1439209
vt -17.28125 -1.323242
vt 1 -1.523438
vt 0 -1.523438
vt 1 -1.323242
vt 0 -1.323242
vt 17.28125 -1.523438
vt -0.01265717 -0.05630493
vt 17.28125 -1.323242
vt -0.01265717 0.1439209
vt 0 0.02476501
vt 1 0.02476501
vt 0 -17.34375
vt 1 -17.34375
vt 0 -17.35938
vt -1 -17.35938
vt 0 0.007858276
vt -1 0.007858276

g Cube_3351_255
usemtl Cube_3351_255
usemap Cube_3351_255
f 1/1/1 3/3/3 2/2/2
f 2/2/2 3/3/3 4/4/4
f 5/5/5 7/7/7 6/6/6
f 6/6/6 7/7/7 8/8/8
f 9/9/9 11/11/11 10/10/10
f 10/10/10 11/11/11 12/12/12
f 13/13/13 15/15/15 14/14/14
f 14/14/14 15/15/15 16/16/16
f 17/17/17 19/19/19 18/18/18
f 18/18/18 19/19/19 20/20/20
f 21/21/21 23/23/23 22/22/22
f 22/22/22 23/23/23 24/24/24
