#Cube_2999_4.obj

v -1.806593 2.420304 -25.10781
v 1.034544 2.420304 -25.10781
v 1.034544 -0.2179294 -25.10781
v -1.806593 -0.2179294 -25.10781
v 1.034544 2.420304 -23.02915
v 1.034544 2.420304 0
v 1.034544 -0.2179294 0
v 1.034544 -0.2179294 -23.02915
v 1.034544 2.420304 -23.02915
v -1.806593 2.420304 -23.02915
v -1.806593 2.420304 0
v 1.034544 2.420304 0
v 1.034544 -0.2179294 0
v -1.806593 -0.2179294 0
v -1.806593 -0.2179294 -23.02915
v 1.034544 -0.2179294 -23.02915
v -1.806593 2.420304 -25.10781
v 1.034544 2.420304 -25.10781
v 1.034544 2.420304 -25.10781
v 1.034544 -0.2179294 -25.10781
v 1.034544 -0.2179294 -25.10781
v -1.806593 -0.2179294 -25.10781
v -1.806593 -0.2179294 -23.02915
v -1.806593 2.420304 -23.02915
v -13.48096 -0.8781657 -22.71834
v -13.38093 2.345673 -22.71834
v -1.806593 -0.2179294 -25.10781
v -1.806593 -0.2179294 -23.02915
v -13.48096 -0.8781657 -25.02209
v -13.48096 -0.8781657 -22.71834
v -1.806593 2.420304 -23.02915
v -1.806593 2.420304 -25.10781
v -13.38093 2.345673 -22.71834
v -13.38093 2.345673 -25.02209
v -1.806593 2.420304 -25.10781
v -1.806593 -0.2179294 -25.10781
v -13.38093 2.345673 -25.02209
v -13.48096 -0.8781657 -25.02209
v -1.806593 2.420304 0
v -1.806593 2.420304 -7.553654
v -1.806593 -0.2179294 -7.553654
v -1.806593 -0.2179294 0
v -1.806593 2.420304 -10.13444
v -1.806593 2.420304 -23.02915
v -1.806593 -0.2179294 -23.02915
v -1.806593 -0.2179294 -10.13444
v -1.806593 2.420304 -7.553654
v -1.806593 2.420304 -10.13444
v -17.36277 -1.574784 -7.553654
v -17.36277 -1.574784 -10.13444
v -1.806593 2.420304 -10.13444
v -1.806593 -0.2179294 -10.13444
v -17.36277 -1.574784 -10.13444
v -17.36277 -4.632848 -10.13444
v -1.806593 -0.2179294 -7.553654
v -1.806593 2.420304 -7.553654
v -17.36277 -4.632848 -7.553654
v -17.36277 -1.574784 -7.553654
v -1.806593 -0.2179294 -10.13444
v -1.806593 -0.2179294 -7.553654
v -17.36277 -4.632848 -10.13444
v -17.36277 -4.632848 -7.553654
v -17.36277 -1.574784 -7.553654
v -17.36277 -1.574784 -10.13444
v -28.75764 -1.574784 -7.553654
v -28.75764 -1.574784 -10.13444
v -28.75764 -1.574784 -10.13444
v -28.75764 -4.632848 -10.13444
v -28.75764 -4.632848 -7.553654
v -28.75764 -1.574784 -7.553654
v -17.36277 -4.632848 -10.13444
v -17.36277 -4.632848 -7.553654
v -28.75764 -4.632848 -10.13444
v -28.75764 -4.632848 -7.553654
v -28.75764 -1.574784 -7.553654
v -28.75764 -1.574784 -10.13444
v -39.60363 -0.7491279 -4.344875
v -39.60363 -0.7491279 -6.925659
v -28.75764 -1.574784 -10.13444
v -28.75764 -4.632848 -10.13444
v -39.60363 -0.7491279 -6.925659
v -39.70636 -4.632848 -6.925659
v -28.75764 -4.632848 -7.553654
v -28.75764 -1.574784 -7.553654
v -39.70636 -4.632848 -4.344875
v -39.60363 -0.7491279 -4.344875
v -39.70636 -4.632848 -6.925659
v -39.70636 -4.632848 -4.344875

vn 0 0 1
vn 0 0 1
vn 0 0 1
vn 0 0 1
vn -1 0 0
vn -1 0 0
vn -1 0 0
vn -1 0 0
vn 0 -1 0
vn 0 -1 0
vn 0 -1 0
vn 0 -1 0
vn 0 1 0
vn 0 1 0
vn 0 1 0
vn 0 1 0
vn 0 -1 0
vn 0 -1 0
vn -1 0 0
vn -1 0 0
vn 0 1 0
vn 0 1 0
vn -0.02661354 0 -0.9996458
vn -0.02674238 0.0004563522 -0.9996423
vn -0.02674238 0.0004563522 -0.9996423
vn -0.02684875 0.0008331093 -0.9996392
vn -0.05646414 0.9984046 0
vn -0.05646413 0.9984046 0
vn -0.05646413 0.9984046 0
vn -0.05646414 0.9984047 0
vn 0.006447901 -0.9999793 0
vn 0.006447901 -0.9999793 0
vn 0.006447901 -0.9999793 0
vn 0.006447901 -0.9999791 0
vn 0.007405845 0 0.9999726
vn 0.007377961 -0.0001259027 0.9999728
vn 0.007377961 -0.0001259027 0.9999728
vn 0.007355297 -0.0002282321 0.999973
vn 1 0 1.104717E-07
vn 1 0 1.104717E-07
vn 1 0 1.104717E-07
vn 1 0 1.104717E-07
vn 1 0 0
vn 1 0 0
vn 1 0 0
vn 1 0 0
vn 0.2487448 -0.968569 -8.042862E-08
vn 0.2487448 -0.968569 -4.021431E-08
vn 0.2487448 -0.968569 -4.021431E-08
vn 0.2487449 -0.968569 0
vn 0 0 1
vn 0 0 1
vn 0 0 1
vn 0 0 1
vn 0 0 -1
vn 0 0 -1
vn 0 0 -1
vn 0 0 -1
vn -0.2730224 0.9620076 8.827848E-08
vn -0.2730224 0.9620076 4.413923E-08
vn -0.2730224 0.9620076 4.413923E-08
vn -0.2730224 0.9620076 0
vn 0 -1 0
vn 0 -1 0
vn 0 -1 0
vn 0 -1 0
vn 0 0 1
vn 0 0 1
vn 0 0 -1
vn 0 0 -1
vn 0 1 0
vn 0 1 0
vn 0 1 0
vn 0 1 0
vn -0.07590582 -0.997115 0
vn -0.07590583 -0.9971151 0
vn -0.07590583 -0.9971151 0
vn -0.07590582 -0.9971151 0
vn 0.283694 0 0.9589148
vn 0.2823158 -0.004177614 0.9593124
vn 0.2823158 -0.004177614 0.9593124
vn 0.2812361 -0.007438534 0.9596098
vn -0.2812438 0 -0.9596364
vn -0.2823158 0.004177614 -0.9593124
vn -0.2823158 0.004177614 -0.9593124
vn -0.2831618 0.007489468 -0.9590429
vn 0 1 0
vn 0 1 0

vt -1.806641 2.419922
vt 1.03418 2.419922
vt 1.03418 -0.2178955
vt -1.806641 -0.2178955
vt -23.03125 2.419922
vt 0 2.419922
vt 0 -0.2178955
vt -23.03125 -0.2178955
vt 1.03418 -23.03125
vt -1.806641 -23.03125
vt -1.806641 0
vt 1.03418 0
vt -1.03418 0
vt 1.806641 0
vt 1.806641 -23.03125
vt -1.03418 -23.03125
vt -1.806641 -25.10938
vt 1.03418 -25.10938
vt -25.10938 2.419922
vt -25.10938 -0.2178955
vt -1.03418 -25.10938
vt 1.806641 -25.10938
vt 1.193359 -0.2178955
vt 1.193359 2.419922
vt 12.875 -0.8779297
vt 12.77344 2.345703
vt 1.816406 -25.10938
vt 1.816406 -23.03125
vt 13.50781 -25.01563
vt 13.50781 -22.71875
vt -1.791016 -23.03125
vt -1.791016 -25.10938
vt -13.36719 -22.71875
vt -13.36719 -25.01563
vt -1.620117 2.419922
vt -1.620117 -0.2178955
vt -13.19531 2.345703
vt -13.29688 -0.8779297
vt -1.788139E-07 2.419922
vt 7.554688 2.419922
vt 7.554688 -0.2178955
vt -1.788139E-07 -0.2178955
vt 10.13281 2.419922
vt 23.03125 2.419922
vt 23.03125 -0.2178955
vt 10.13281 -0.2178955
vt -1.147461 -7.554688
vt -1.147461 -10.13281
vt -17.20313 -7.554688
vt -17.20313 -10.13281
vt -1.806641 2.419922
vt -1.806641 -0.2178955
vt -17.35938 -1.575195
vt -17.35938 -4.632813
vt 1.806641 -0.2178955
vt 1.806641 2.419922
vt 17.35938 -4.632813
vt 17.35938 -1.575195
vt 1.797852 -10.13281
vt 1.797852 -7.554688
vt 17.96875 -10.13281
vt 17.96875 -7.554688
vt -17.35938 -7.554688
vt -17.35938 -10.13281
vt -28.75 -7.554688
vt -28.75 -10.13281
vt -28.75 -1.575195
vt -28.75 -4.632813
vt 28.75 -4.632813
vt 28.75 -1.575195
vt 17.35938 -10.13281
vt 17.35938 -7.554688
vt 28.75 -10.13281
vt 28.75 -7.554688
vt -28.5625 -7.554688
vt -28.5625 -10.13281
vt -39.4375 -4.34375
vt -39.4375 -6.925781
vt -24.70313 -1.575195
vt -24.70313 -4.632813
vt -36 -0.7490234
vt -36.125 -4.632813
vt 25.46875 -4.632813
vt 25.46875 -1.575195
vt 36.875 -4.632813
vt 36.78125 -0.7490234
vt 39.71875 -6.925781
vt 39.71875 -4.34375

g Cube_2999_4
usemtl Cube_2999_4
usemap Cube_2999_4
f 1/1/1 3/3/3 2/2/2
f 1/1/1 4/4/4 3/3/3
f 5/5/5 7/7/7 6/6/6
f 5/5/5 8/8/8 7/7/7
f 9/9/9 11/11/11 10/10/10
f 9/9/9 12/12/12 11/11/11
f 13/13/13 15/15/15 14/14/14
f 13/13/13 16/16/16 15/15/15
f 10/10/10 17/17/17 9/9/9
f 9/9/9 17/17/17 18/18/18
f 5/5/5 19/19/19 8/8/8
f 8/8/8 19/19/19 20/20/20
f 16/16/16 21/21/21 15/15/15
f 15/15/15 21/21/21 22/22/22
f 23/23/23 25/25/25 24/24/24
f 24/24/24 25/25/25 26/26/26
f 27/27/27 29/29/29 28/28/28
f 28/28/28 29/29/29 30/30/30
f 31/31/31 33/33/33 32/32/32
f 32/32/32 33/33/33 34/34/34
f 35/35/35 37/37/37 36/36/36
f 36/36/36 37/37/37 38/38/38
f 39/39/39 41/41/41 40/40/40
f 42/42/42 41/41/41 39/39/39
f 43/43/43 45/45/45 44/44/44
f 46/46/46 45/45/45 43/43/43
f 47/47/47 49/49/49 48/48/48
f 48/48/48 49/49/49 50/50/50
f 51/51/51 53/53/53 52/52/52
f 52/52/52 53/53/53 54/54/54
f 55/55/55 57/57/57 56/56/56
f 56/56/56 57/57/57 58/58/58
f 59/59/59 61/61/61 60/60/60
f 60/60/60 61/61/61 62/62/62
f 63/63/63 65/65/65 64/64/64
f 64/64/64 65/65/65 66/66/66
f 53/53/53 67/67/67 54/54/54
f 54/54/54 67/67/67 68/68/68
f 57/57/57 69/69/69 58/58/58
f 58/58/58 69/69/69 70/70/70
f 71/71/71 73/73/73 72/72/72
f 72/72/72 73/73/73 74/74/74
f 75/75/75 77/77/77 76/76/76
f 76/76/76 77/77/77 78/78/78
f 79/79/79 81/81/81 80/80/80
f 80/80/80 81/81/81 82/82/82
f 83/83/83 85/85/85 84/84/84
f 84/84/84 85/85/85 86/86/86
f 73/73/73 87/87/87 74/74/74
f 74/74/74 87/87/87 88/88/88
