#Cube_(11)_1622_75.obj

v -0.6509094 0 -0.3264771
v -0.6509094 0 -1
v -0.6509094 3 -0.3264771
v -0.6509094 3 -1
v -0.6509094 0 -1
v 0 0 -1
v -0.6509094 3 -1
v 0 3 -1
v 0 3 -0.3264771
v -0.6509094 3 -0.3264771
v 0 3 -1
v -0.6509094 3 -1

vn -1 0 0
vn -1 0 0
vn -1 0 0
vn -1 0 0
vn 0 0 -1
vn 0 0 -1
vn 0 0 -1
vn 0 0 -1
vn 0 1 0
vn 0 1 0
vn 0 1 0
vn 0 1 0

vt -0.326416 0
vt -1 0
vt -0.326416 3
vt -1 3
vt 0.6508789 0
vt 0 0
vt 0.6508789 3
vt 0 3
vt 0 -0.326416
vt 0.6508789 -0.326416
vt 0 -1
vt 0.6508789 -1

g Cube_(11)_1622_75
usemtl Cube_(11)_1622_75
usemap Cube_(11)_1622_75
f 1/1/1 3/3/3 2/2/2
f 2/2/2 3/3/3 4/4/4
f 5/5/5 7/7/7 6/6/6
f 6/6/6 7/7/7 8/8/8
f 9/9/9 11/11/11 10/10/10
f 10/10/10 11/11/11 12/12/12
