#Cube_(1)_1778_137.obj

v -5.601468 0 -1
v 2.861023E-06 0 -1
v -5.601468 0.1350298 -1
v 2.861023E-06 0.1350298 -1
v 2.861023E-06 0.1350298 11.7526
v -5.601468 0.1350298 11.7526
v 2.861023E-06 0.1350298 -1
v -5.601468 0.1350298 -1
v -16.7907 0.1350298 -1
v -16.7907 0.1350298 11.7526
v -5.601468 0 -1
v -5.601468 0.1350298 -1
v -5.601468 0 -6.172022
v -5.601468 0.1350298 -6.172022
v -5.601468 0.1350298 -6.172022
v -16.7907 0.1350298 -6.172022

vn 0 0 -1
vn 0 0 -1
vn 0 0 -1
vn 0 0 -1
vn 0 1 0
vn 0 1 0
vn 0 1 0
vn 0 1 0
vn 0 1 0
vn 0 1 0
vn 1 0 0
vn 1 0 0
vn 1 0 0
vn 1 0 0
vn 0 1 0
vn 0 1 0

vt 5.601563 0
vt 0 0
vt 5.601563 0.1350098
vt 0 0.1350098
vt 0 11.75
vt 5.601563 11.75
vt 0 -1
vt 5.601563 -1
vt 16.79688 -1
vt 16.79688 11.75
vt 1 0
vt 1 0.1350098
vt 6.171875 0
vt 6.171875 0.1350098
vt 5.601563 -6.171875
vt 16.79688 -6.171875

g Cube_(1)_1778_137
usemtl Cube_(1)_1778_137
usemap Cube_(1)_1778_137
f 1/1/1 3/3/3 2/2/2
f 2/2/2 3/3/3 4/4/4
f 5/5/5 7/7/7 6/6/6
f 6/6/6 7/7/7 8/8/8
f 8/8/8 9/9/9 6/6/6
f 6/6/6 9/9/9 10/10/10
f 11/11/11 13/13/13 12/12/12
f 12/12/12 13/13/13 14/14/14
f 8/8/8 15/15/15 9/9/9
f 9/9/9 15/15/15 16/16/16
