#Cube_(10)_3858_259.obj

v -9.350924 -3.530777 0
v -16.61927 -0.759089 0
v -9.350923 -3.330597 0
v -16.61927 -0.5589077 0
v -16.61927 -0.759089 0
v -16.61927 -0.759089 -1
v -16.61927 -0.5589077 0
v -16.61927 -0.5589077 -1
v -16.61927 -0.759089 -1
v -9.350924 -3.530777 -1
v -16.61927 -0.5589077 -1
v -9.350923 -3.330597 -1
v -9.350924 -3.530777 -1
v -9.350924 -3.530777 0
v -9.350923 -3.330597 -1
v -9.350923 -3.330597 0
v -9.350923 -3.330597 0
v -16.61927 -0.5589077 0
v -9.350923 -3.330597 -1
v -16.61927 -0.5589077 -1
v -9.350924 -3.530777 -1
v -16.61927 -0.759089 -1
v -9.350924 -3.530777 0
v -16.61927 -0.759089 0

vn 0 0 1
vn 0 0 1
vn 0 0 1
vn 0 0 1
vn -0.9369758 0.3493941 0
vn -0.9369758 0.3493941 0
vn -0.9369758 0.3493941 0
vn -0.9369758 0.3493941 0
vn 0 0 -1
vn 0 0 -1
vn 0 0 -1
vn 0 0 -1
vn 0.9369758 -0.3493941 0
vn 0.9369758 -0.3493941 0
vn 0.9369758 -0.3493941 0
vn 0.9369758 -0.3493941 0
vn 0.6603156 0.7509881 0
vn 0.6603156 0.7509881 0
vn 0.6603156 0.7509881 0
vn 0.6603156 0.7509881 0
vn -0.6603156 -0.7509882 0
vn -0.6603156 -0.7509882 0
vn -0.6603156 -0.7509882 0
vn -0.6603156 -0.7509882 0

vt -9.351563 -3.53125
vt -16.625 -0.7592773
vt -9.351563 -3.330078
vt -16.625 -0.559082
vt 0 -0.7592773
vt -1 -0.7592773
vt 0 -0.559082
vt -1 -0.559082
vt 16.625 -0.7592773
vt 9.351563 -3.53125
vt 16.625 -0.559082
vt 9.351563 -3.330078
vt 1 -3.53125
vt 0 -3.53125
vt 1 -3.330078
vt 0 -3.330078
vt 7.550781 0
vt 15.32813 0
vt 7.550781 -1
vt 15.32813 -1
vt -7.480469 -1
vt -15.25781 -1
vt -7.480469 0
vt -15.25781 0

g Cube_(10)_3858_259
usemtl Cube_(10)_3858_259
usemap Cube_(10)_3858_259
f 1/1/1 3/3/3 2/2/2
f 2/2/2 3/3/3 4/4/4
f 5/5/5 7/7/7 6/6/6
f 6/6/6 7/7/7 8/8/8
f 9/9/9 11/11/11 10/10/10
f 10/10/10 11/11/11 12/12/12
f 13/13/13 15/15/15 14/14/14
f 14/14/14 15/15/15 16/16/16
f 17/17/17 19/19/19 18/18/18
f 18/18/18 19/19/19 20/20/20
f 21/21/21 23/23/23 22/22/22
f 22/22/22 23/23/23 24/24/24
