#Cube_(5)_1616_141.obj

v -0.5130692 0 93.45999
v -0.5130692 0 -1
v -0.5130692 2.487061 93.45999
v -0.5130692 2.487061 -1
v -0.1234131 2.487061 93.45999
v -0.5130692 2.487061 93.45999
v -0.1234131 2.487061 -1
v -0.5130692 2.487061 -1

vn -1 0 0
vn -1 0 0
vn -1 0 0
vn -1 0 0
vn 0 1 0
vn 0 1 0
vn 0 1 0
vn 0 1 0

vt 93.4375 0
vt -1 0
vt 93.4375 2.486328
vt -1 2.486328
vt 0.1234131 93.4375
vt 0.5131836 93.4375
vt 0.1234131 -1
vt 0.5131836 -1

g Cube_(5)_1616_141
usemtl Cube_(5)_1616_141
usemap Cube_(5)_1616_141
f 1/1/1 3/3/3 2/2/2
f 2/2/2 3/3/3 4/4/4
f 5/5/5 7/7/7 6/6/6
f 6/6/6 7/7/7 8/8/8
