#Cube_(1)_1767_97.obj

v 0 -3.026851 -0.09510708
v -0.3058014 -3.026851 -0.09510708
v 0 1 -0.09510708
v -0.3058014 1 -0.09510708
v -0.3058014 -3.026851 -0.09510708
v -0.3058014 -3.026851 -0.4007792
v -0.3058014 1 -0.09510708
v -0.3058014 1 -0.4007792
v -0.3058014 -3.026851 -0.4007792
v 0 -3.026851 -0.4007792
v -0.3058014 1 -0.4007792
v 0 1 -0.4007792
v 0 -3.026851 -0.4007792
v 0 -3.026851 -0.09510708
v 0 1 -0.4007792
v 0 1 -0.09510708

vn 0 0 1
vn 0 0 1
vn 0 0 1
vn 0 0 1
vn -1 0 0
vn -1 0 0
vn -1 0 0
vn -1 0 0
vn 0 0 -1
vn 0 0 -1
vn 0 0 -1
vn 0 0 -1
vn 1 0 0
vn 1 0 0
vn 1 0 0
vn 1 0 0

vt 0 -3.027344
vt -0.3059082 -3.027344
vt 0 1
vt -0.3059082 1
vt -0.09509277 -3.027344
vt -0.4008789 -3.027344
vt -0.09509277 1
vt -0.4008789 1
vt 0.3059082 -3.027344
vt 0 -3.027344
vt 0.3059082 1
vt 0 1
vt 0.4008789 -3.027344
vt 0.09509277 -3.027344
vt 0.4008789 1
vt 0.09509277 1

g Cube_(1)_1767_97
usemtl Cube_(1)_1767_97
usemap Cube_(1)_1767_97
f 1/1/1 3/3/3 2/2/2
f 2/2/2 3/3/3 4/4/4
f 5/5/5 7/7/7 6/6/6
f 6/6/6 7/7/7 8/8/8
f 9/9/9 11/11/11 10/10/10
f 10/10/10 11/11/11 12/12/12
f 13/13/13 15/15/15 14/14/14
f 14/14/14 15/15/15 16/16/16
