#Cube_(8)_3042_252.obj

v 10.07293 -0.4475628 -0.9415455
v -1.000001 4.823843E-07 0
v 10.07292 -0.2473828 -0.9415455
v -0.9999987 0.2001798 0
v -1.000001 4.823843E-07 0
v -1.000001 4.823843E-07 -1
v -0.9999987 0.2001798 0
v -0.9999987 0.2001798 -1
v -1.000001 4.823843E-07 -1
v 10.07293 -0.4475628 -1.941545
v -0.9999987 0.2001798 -1
v 10.07292 -0.2473828 -1.941545
v 10.55445 -1.019099 -1.941545
v 10.55445 -1.019099 -0.9415455
v 10.67873 -0.8621715 -1.941545
v 10.67873 -0.8621715 -0.9415455
v 10.07292 -0.2473828 -0.9415455
v -0.9999987 0.2001798 0
v 10.07292 -0.2473828 -1.941545
v -0.9999987 0.2001798 -1
v 10.07293 -0.4475628 -1.941545
v -1.000001 4.823843E-07 -1
v 10.07293 -0.4475628 -0.9415455
v -1.000001 4.823843E-07 0
v 10.07293 -0.4475628 -1.941545
v 10.07293 -0.4475628 -0.9415455
v 10.55445 -1.019099 -1.941545
v 10.55445 -1.019099 -0.9415455
v 10.07292 -0.2473828 -1.941545
v 10.07293 -0.4475628 -1.941545
v 10.67873 -0.8621715 -1.941545
v 10.55445 -1.019099 -1.941545
v 10.07293 -0.4475628 -0.9415455
v 10.07292 -0.2473828 -0.9415455
v 10.55445 -1.019099 -0.9415455
v 10.67873 -0.8621715 -0.9415455
v 10.07292 -0.2473828 -0.9415455
v 10.07292 -0.2473828 -1.941545
v 10.67873 -0.8621715 -0.9415455
v 10.67873 -0.8621715 -1.941545

vn 0.07265063 0.04359256 0.9964043
vn 0.07265063 0.04359256 0.9964043
vn 0.07265063 0.04359256 0.9964043
vn 0.07265063 0.04359257 0.9964043
vn -0.8574815 -0.5145147 0
vn -0.8574815 -0.5145147 0
vn -0.8574815 -0.5145147 0
vn -0.8574815 -0.5145147 0
vn -0.07265063 -0.04359257 -0.9964043
vn -0.07265063 -0.04359256 -0.9964043
vn -0.07265063 -0.04359256 -0.9964043
vn -0.07265063 -0.04359256 -0.9964043
vn 0.9916433 -0.1290103 0
vn 0.9916433 -0.1290103 0
vn 0.9916433 -0.1290103 0
vn 0.9916433 -0.1290103 0
vn -0.4794642 0.8775615 0
vn -0.4794642 0.8775615 0
vn -0.4794642 0.8775615 0
vn -0.4794642 0.8775615 0
vn 0.4794642 -0.8775615 0
vn 0.4794642 -0.8775615 0
vn 0.4794642 -0.8775615 0
vn 0.4794642 -0.8775615 0
vn -0.3242538 -0.9459701 0
vn -0.3242538 -0.9459701 0
vn -0.3242538 -0.9459701 0
vn -0.3242538 -0.9459701 0
vn 0 0 -1
vn 0 0 -1
vn 0 0 -1
vn 0 0 -0.9999999
vn 0 0 1
vn 0 0 1
vn 0 0 1
vn 0 0 1
vn 0.249647 0.9683369 0
vn 0.249647 0.9683369 0
vn 0.249647 0.9683369 0
vn 0.249647 0.9683369 0

vt 10.11719 -0.4475098
vt -0.996582 0
vt 10.11719 -0.2474365
vt -0.996582 0.2001953
vt 0 0
vt -1 0
vt 0 0.2001953
vt -1 0.2001953
vt 0.9116211 0
vt -10.20313 -0.4475098
vt 0.9116211 0.2001953
vt -10.20313 -0.2474365
vt 1.941406 5.753906
vt 0.9414063 5.753906
vt 1.941406 5.953125
vt 0.9414063 5.953125
vt -10.07813 -0.9414063
vt 1.006836 0
vt -10.07813 -1.941406
vt 1.006836 -1
vt 10.08594 -1.941406
vt -0.9990234 -1
vt 10.08594 -0.9414063
vt -0.9990234 0
vt -1.941406 -6.832031
vt -0.9414063 -6.832031
vt -1.941406 -7.578125
vt -0.9414063 -7.578125
vt -10.07031 -0.2474365
vt -10.07031 -0.4475098
vt -10.67969 -0.8623047
vt -10.55469 -1.019531
vt 10.07031 -0.4475098
vt 10.07031 -0.2474365
vt 10.55469 -1.019531
vt 10.67969 -0.8623047
vt 0.9414063 -7.246094
vt 1.941406 -7.246094
vt 0.9414063 -8.109375
vt 1.941406 -8.109375

g Cube_(8)_3042_252
usemtl Cube_(8)_3042_252
usemap Cube_(8)_3042_252
f 1/1/1 3/3/3 2/2/2
f 2/2/2 3/3/3 4/4/4
f 5/5/5 7/7/7 6/6/6
f 6/6/6 7/7/7 8/8/8
f 9/9/9 11/11/11 10/10/10
f 10/10/10 11/11/11 12/12/12
f 13/13/13 15/15/15 14/14/14
f 14/14/14 15/15/15 16/16/16
f 17/17/17 19/19/19 18/18/18
f 18/18/18 19/19/19 20/20/20
f 21/21/21 23/23/23 22/22/22
f 22/22/22 23/23/23 24/24/24
f 25/25/25 27/27/27 26/26/26
f 26/26/26 27/27/27 28/28/28
f 29/29/29 31/31/31 30/30/30
f 30/30/30 31/31/31 32/32/32
f 33/33/33 35/35/35 34/34/34
f 34/34/34 35/35/35 36/36/36
f 37/37/37 39/39/39 38/38/38
f 38/38/38 39/39/39 40/40/40
