#Cube_(1)_1338_155.obj

v 2.402487 5.192201E-07 -0.3896813
v -0.5890682 5.192201E-07 -0.3940994
v 2.402487 0.2574183 -0.3896813
v -0.5890682 0.2574183 -0.3940994
v -0.5890682 5.192201E-07 -0.3940994
v -0.5769767 5.192201E-07 -0.7570093
v -0.5890682 0.2574183 -0.3940994
v -0.5769767 0.2574183 -0.7570093
v -0.5769767 5.192201E-07 -0.7570093
v 2.414578 5.192201E-07 -0.7525912
v -0.5769767 0.2574183 -0.7570093
v 2.414578 0.2574183 -0.7525912
v 2.414578 5.192201E-07 -0.7525912
v 2.402487 5.192201E-07 -0.3896813
v 2.414578 0.2574183 -0.7525912
v 2.402487 0.2574183 -0.3896813
v 2.402487 0.2574183 -0.3896813
v -0.5890682 0.2574183 -0.3940994
v 2.414578 0.2574183 -0.7525912
v -0.5769767 0.2574183 -0.7570093
v 2.414578 5.192201E-07 -0.7525912
v -0.5769767 5.192201E-07 -0.7570093
v 2.402487 5.192201E-07 -0.3896813
v -0.5890682 5.192201E-07 -0.3940994

vn 0.1111463 0 0.993804
vn 0.1111463 0 0.993804
vn 0.1111463 0 0.993804
vn 0.1111463 0 0.993804
vn -0.9968376 0 0.07946475
vn -0.9968376 0 0.07946475
vn -0.9968376 0 0.07946475
vn -0.9968376 0 0.07946475
vn -0.1111462 0 -0.993804
vn -0.1111462 0 -0.993804
vn -0.1111462 0 -0.993804
vn -0.1111462 0 -0.993804
vn 0.9968377 0 -0.07946408
vn 0.9968377 0 -0.07946408
vn 0.9968377 0 -0.07946408
vn 0.9968377 0 -0.07946408
vn 0 0.9999998 0
vn 0 0.9999998 0
vn 0 0.9999998 0
vn 0 0.9999998 0
vn 0 -0.9999998 0
vn 0 -0.9999998 0
vn 0 -0.9999998 0
vn 0 -0.9999998 0

vt 2.402344 0
vt -0.5898438 0
vt 2.402344 0.2573242
vt -0.5898438 0.2573242
vt -0.3742676 0
vt -0.7373047 0
vt -0.3742676 0.2573242
vt -0.7373047 0.2573242
vt 0.578125 0
vt -2.414063 0
vt 0.578125 0.2573242
vt -2.414063 0.2573242
vt 0.8325195 0
vt 0.4694824 0
vt 0.8325195 0.2573242
vt 0.4694824 0.2573242
vt -2.402344 -0.3896484
vt 0.5888672 -0.394043
vt -2.414063 -0.7524414
vt 0.5771484 -0.7568359
vt 2.414063 -0.7524414
vt -0.5771484 -0.7568359
vt 2.402344 -0.3896484
vt -0.5888672 -0.394043

g Cube_(1)_1338_155
usemtl Cube_(1)_1338_155
usemap Cube_(1)_1338_155
f 1/1/1 3/3/3 2/2/2
f 2/2/2 3/3/3 4/4/4
f 5/5/5 7/7/7 6/6/6
f 6/6/6 7/7/7 8/8/8
f 9/9/9 11/11/11 10/10/10
f 10/10/10 11/11/11 12/12/12
f 13/13/13 15/15/15 14/14/14
f 14/14/14 15/15/15 16/16/16
f 17/17/17 19/19/19 18/18/18
f 18/18/18 19/19/19 20/20/20
f 21/21/21 23/23/23 22/22/22
f 22/22/22 23/23/23 24/24/24
