#Cube_1384_161.obj

v 0 0 17.9688
v -0.2631092 0 17.9688
v 0 0.5849056 17.9688
v -0.2631092 0.5849056 17.9688
v 0 0 -1.093008
v -0.2631092 0 -1.093008
v 0 0 17.9688
v -0.2631092 0 17.9688

vn 0 0 1
vn 0 0 1
vn 0 0 1
vn 0 0 1
vn 0 -1 0
vn 0 -1 0
vn 0 -1 0
vn 0 -1 0

vt 0 0
vt -0.2631836 0
vt 0 0.5849609
vt -0.2631836 0.5849609
vt 0 -1.092773
vt -0.2631836 -1.092773
vt 0 17.96875
vt -0.2631836 17.96875

g Cube_1384_161
usemtl Cube_1384_161
usemap Cube_1384_161
f 1/1/1 3/3/3 2/2/2
f 2/2/2 3/3/3 4/4/4
f 5/5/5 7/7/7 6/6/6
f 6/6/6 7/7/7 8/8/8
