#Cube_(1)_1415_147.obj

v 2.402488 7.798732E-08 -0.3896827
v -0.5890676 1.13269E-07 -0.3941
v 2.402488 0.257418 -0.3896828
v -0.5890678 0.257418 -0.3941001
v -0.5890676 1.13269E-07 -0.3941
v -0.5769764 8.308732E-08 -0.7570091
v -0.5890678 0.257418 -0.3941001
v -0.5769766 0.257418 -0.7570093
v -0.5769764 8.308732E-08 -0.7570091
v 2.414579 4.844779E-08 -0.7525917
v -0.5769766 0.257418 -0.7570093
v 2.414579 0.257418 -0.7525918
v 2.414579 4.844779E-08 -0.7525917
v 2.402488 7.798732E-08 -0.3896827
v 2.414579 0.257418 -0.7525918
v 2.402488 0.257418 -0.3896828
v 2.402488 0.257418 -0.3896828
v -0.5890678 0.257418 -0.3941001
v 2.414579 0.257418 -0.7525918
v -0.5769766 0.257418 -0.7570093
v 2.414579 4.844779E-08 -0.7525917
v -0.5769764 8.308732E-08 -0.7570091
v 2.402488 7.798732E-08 -0.3896827
v -0.5890676 1.13269E-07 -0.3941

vn -0.6418297 -0.0051354 0.7668301
vn -0.6418297 -0.0051354 0.7668301
vn -0.6418297 -0.0051354 0.7668301
vn -0.6418297 -0.0051354 0.7668301
vn -0.7460295 0.0009492225 -0.6659122
vn -0.7460295 0.0009492225 -0.6659122
vn -0.7460295 0.0009492225 -0.6659122
vn -0.7460295 0.0009492225 -0.6659122
vn 0.6418297 0.0051354 -0.76683
vn 0.6418297 0.0051354 -0.76683
vn 0.6418297 0.0051354 -0.76683
vn 0.6418297 0.0051354 -0.76683
vn 0.7460291 -0.0009492261 0.6659128
vn 0.7460291 -0.0009492261 0.6659128
vn 0.7460291 -0.0009492261 0.6659128
vn 0.7460291 -0.0009492261 0.6659128
vn -0.002693197 0.9999865 0.004442649
vn -0.002693197 0.9999865 0.004442649
vn -0.002693197 0.9999865 0.004442649
vn -0.002693197 0.9999865 0.004442649
vn 0.002693197 -0.9999865 -0.004442649
vn 0.002693197 -0.9999865 -0.004442649
vn 0.002693197 -0.9999865 -0.004442649
vn 0.002693197 -0.9999865 -0.004442649

vt 2.402344 0
vt -0.5898438 0
vt 2.402344 0.2573242
vt -0.5898438 0.2573242
vt -0.3742676 0
vt -0.7373047 0
vt -0.3742676 0.2573242
vt -0.7373047 0.2573242
vt 0.578125 0
vt -2.414063 0
vt 0.578125 0.2573242
vt -2.414063 0.2573242
vt 0.8325195 0
vt 0.4694824 0
vt 0.8325195 0.2573242
vt 0.4694824 0.2573242
vt -2.402344 -0.3896484
vt 0.5888672 -0.394043
vt -2.414063 -0.7524414
vt 0.5771484 -0.7568359
vt 2.414063 -0.7524414
vt -0.5771484 -0.7568359
vt 2.402344 -0.3896484
vt -0.5888672 -0.394043

g Cube_(1)_1415_147
usemtl Cube_(1)_1415_147
usemap Cube_(1)_1415_147
f 1/1/1 3/3/3 2/2/2
f 2/2/2 3/3/3 4/4/4
f 5/5/5 7/7/7 6/6/6
f 6/6/6 7/7/7 8/8/8
f 9/9/9 11/11/11 10/10/10
f 10/10/10 11/11/11 12/12/12
f 13/13/13 15/15/15 14/14/14
f 14/14/14 15/15/15 16/16/16
f 17/17/17 19/19/19 18/18/18
f 18/18/18 19/19/19 20/20/20
f 21/21/21 23/23/23 22/22/22
f 22/22/22 23/23/23 24/24/24
