#Dust2Door_1620_10.obj

v 8.115903E-08 3.672507 -3.248202E-07
v 3.432286E-08 -1.203953E-10 -2.864137E-08
v -0.5619159 4.562071 -3.577823E-07
v -1.501691 4.74728 -3.697875E-07
v -3.003381 -1.581856E-08 -5.139967E-07
v -2.45117 4.564506 -2.614728E-07
v -3.003381 3.672507 7.509376E-08
v -3.003381 -1.581856E-08 -5.139967E-07
v -3.003381 1.892517E-08 -0.2881911
v -3.003381 3.672507 7.509376E-08
v -3.003381 3.672507 -0.2881912
v -3.003381 3.672507 -0.2881912
v -3.003381 1.892517E-08 -0.2881911
v -2.45117 4.564505 -0.2881914
v -1.50169 4.74728 -0.2881908
v 2.403876E-07 3.526545E-08 -0.2881904
v -0.5619156 4.56207 -0.2881908
v 2.872238E-07 3.672507 -0.2881907
v 2.403876E-07 3.526545E-08 -0.2881904
v 3.432286E-08 -1.203953E-10 -2.864137E-08
v 2.872238E-07 3.672507 -0.2881907
v 8.115903E-08 3.672507 -3.248202E-07
v -3.003381 3.672507 -0.2881912
v -2.45117 4.564505 -0.2881914
v -3.003381 3.672507 7.509376E-08
v -2.45117 4.564505 -0.2881914
v -2.45117 4.564506 -2.614728E-07
v -3.003381 3.672507 7.509376E-08
v -2.45117 4.564506 -2.614728E-07
v -2.45117 4.564505 -0.2881914
v -1.501691 4.74728 -3.697875E-07
v -2.45117 4.564505 -0.2881914
v -1.50169 4.74728 -0.2881908
v -1.501691 4.74728 -3.697875E-07
v -1.50169 4.74728 -0.2881908
v -0.5619156 4.56207 -0.2881908
v -1.501691 4.74728 -3.697875E-07
v -0.5619156 4.56207 -0.2881908
v -0.5619159 4.562071 -3.577823E-07
v -1.501691 4.74728 -3.697875E-07
v -0.5619156 4.56207 -0.2881908
v 2.872238E-07 3.672507 -0.2881907
v -0.5619159 4.562071 -3.577823E-07
v 2.872238E-07 3.672507 -0.2881907
v 8.115903E-08 3.672507 -3.248202E-07
v -0.5619159 4.562071 -3.577823E-07
v 2.403876E-07 3.526545E-08 -0.2881904
v -3.003381 1.892517E-08 -0.2881911
v 3.432286E-08 -1.203953E-10 -2.864137E-08
v -3.003381 -1.581856E-08 -5.139967E-07

vn -0.6406967 -0.005136555 0.7677769
vn -0.6406967 -0.005136555 0.7677769
vn -0.6406967 -0.005136555 0.7677769
vn -0.6406967 -0.005136555 0.7677769
vn -0.6406967 -0.005136555 0.7677769
vn -0.6406967 -0.005136555 0.7677769
vn -0.6406967 -0.005136555 0.7677769
vn -0.7677894 0.0007786165 -0.6407019
vn -0.7677894 0.0007786165 -0.6407019
vn -0.7677894 0.0007786165 -0.6407019
vn -0.7677894 0.0007786165 -0.6407019
vn 0.6406967 0.005136555 -0.7677769
vn 0.6406967 0.005136555 -0.7677769
vn 0.6406967 0.005136555 -0.7677769
vn 0.6406967 0.005136555 -0.7677769
vn 0.6406967 0.005136555 -0.7677769
vn 0.6406967 0.005136555 -0.7677769
vn 0.6406967 0.005136555 -0.7677769
vn 0.7677894 -0.0007786165 0.6407019
vn 0.7677894 -0.0007786165 0.6407019
vn 0.7677894 -0.0007786165 0.6407019
vn 0.7677894 -0.0007786165 0.6407019
vn -0.6542352 0.527024 -0.5424223
vn -0.4490469 0.8136278 -0.3692787
vn -0.6542352 0.527024 -0.5424223
vn -0.4490469 0.8136278 -0.3692787
vn -0.4490469 0.8136278 -0.3692787
vn -0.6542352 0.527024 -0.5424223
vn -0.4490469 0.8136278 -0.3692787
vn -0.4490469 0.8136278 -0.3692787
vn -0.001703533 0.9999846 0.005268494
vn -0.4490469 0.8136278 -0.3692787
vn -0.001703533 0.9999846 0.005268494
vn -0.001703533 0.9999846 0.005268494
vn -0.001703533 0.9999846 0.005268494
vn 0.3497197 0.8882704 0.2977778
vn -0.001703533 0.9999846 0.005268494
vn 0.3497197 0.8882704 0.2977778
vn 0.5274176 0.7237669 0.4449632
vn -0.001703533 0.9999846 0.005268494
vn 0.3497197 0.8882704 0.2977778
vn 0.6476908 0.5333858 0.5440555
vn 0.5274176 0.7237669 0.4449632
vn 0.6476908 0.5333858 0.5440555
vn 0.6476908 0.5333858 0.5440555
vn 0.5274176 0.7237669 0.4449632
vn 0.002693197 -0.9999865 -0.004442648
vn 0.002693197 -0.9999865 -0.004442648
vn 0.002693197 -0.9999865 -0.004442648
vn 0.002693197 -0.9999865 -0.004442648

vt 0 3.671875
vt 0 0
vt -0.5620117 4.5625
vt -1.501953 4.746094
vt -3.003906 0
vt -2.451172 4.566406
vt -3.003906 3.671875
vt 0 0
vt -0.2880859 0
vt 0 3.671875
vt -0.2880859 3.671875
vt 3.003906 3.671875
vt 3.003906 0
vt 2.451172 4.566406
vt 1.501953 4.746094
vt 0 0
vt 0.5620117 4.5625
vt 0 3.671875
vt 0.2880859 0
vt 0 0
vt 0.2880859 3.671875
vt 0 3.671875
vt 3.003906 3.671875
vt 2.451172 4.566406
vt 3.003906 3.671875
vt 2.451172 4.566406
vt 2.451172 4.566406
vt 3.003906 3.671875
vt 2.451172 4.566406
vt 2.451172 4.566406
vt 1.501953 4.746094
vt 2.451172 4.566406
vt 1.501953 4.746094
vt 1.501953 4.746094
vt 1.501953 4.746094
vt 0.5620117 4.5625
vt 1.501953 4.746094
vt 0.5620117 4.5625
vt 0.5620117 4.5625
vt 1.501953 4.746094
vt 0.5620117 4.5625
vt 0 3.671875
vt 0.5620117 4.5625
vt 0 3.671875
vt 0 3.671875
vt 0.5620117 4.5625
vt 0 -0.2880859
vt -3.003906 -0.2880859
vt 0 0
vt -3.003906 0

g Dust2Door_1620_10
usemtl Dust2Door_1620_10
usemap Dust2Door_1620_10
f 1/1/1 3/3/3 2/2/2
f 2/2/2 3/3/3 4/4/4
f 5/5/5 2/2/2 4/4/4
f 6/6/6 5/5/5 4/4/4
f 5/5/5 6/6/6 7/7/7
f 8/8/8 10/10/10 9/9/9
f 9/9/9 10/10/10 11/11/11
f 12/12/12 14/14/14 13/13/13
f 13/13/13 14/14/14 15/15/15
f 16/16/16 13/13/13 15/15/15
f 17/17/17 16/16/16 15/15/15
f 16/16/16 17/17/17 18/18/18
f 19/19/19 21/21/21 20/20/20
f 20/20/20 21/21/21 22/22/22
f 23/23/23 25/25/25 24/24/24
f 26/26/26 28/28/28 27/27/27
f 29/29/29 31/31/31 30/30/30
f 32/32/32 34/34/34 33/33/33
f 35/35/35 37/37/37 36/36/36
f 38/38/38 40/40/40 39/39/39
f 41/41/41 43/43/43 42/42/42
f 44/44/44 46/46/46 45/45/45
f 47/47/47 49/49/49 48/48/48
f 48/48/48 49/49/49 50/50/50
