#Dust2Door_(3)_1340_9.obj

v -7.340985E-07 3.672506 1.129073E-06
v -7.340985E-07 0 1.129073E-06
v -0.5619177 4.56207 2.031802E-06
v -1.501692 4.74728 9.314573E-07
v -3.003381 0 1.005141E-06
v -2.45117 4.564506 8.735161E-07
v -3.003381 3.672506 1.005141E-06
v -3.003381 0 1.005141E-06
v -3.003383 0 -0.28819
v -3.003381 3.672506 1.005141E-06
v -3.003383 3.672506 -0.28819
v -3.003383 3.672506 -0.28819
v -3.003383 0 -0.28819
v -2.451171 4.564506 -0.2881902
v -1.501691 4.74728 -0.2881898
v 1.950791E-07 0 -0.2881896
v -0.5619168 4.56207 -0.2881887
v 1.950791E-07 3.672506 -0.2881896
v 1.950791E-07 0 -0.2881896
v -7.340985E-07 0 1.129073E-06
v 1.950791E-07 3.672506 -0.2881896
v -7.340985E-07 3.672506 1.129073E-06
v -3.003383 3.672506 -0.28819
v -2.451171 4.564506 -0.2881902
v -3.003381 3.672506 1.005141E-06
v -2.451171 4.564506 -0.2881902
v -2.45117 4.564506 8.735161E-07
v -3.003381 3.672506 1.005141E-06
v -2.45117 4.564506 8.735161E-07
v -2.451171 4.564506 -0.2881902
v -1.501692 4.74728 9.314573E-07
v -2.451171 4.564506 -0.2881902
v -1.501691 4.74728 -0.2881898
v -1.501692 4.74728 9.314573E-07
v -1.501691 4.74728 -0.2881898
v -0.5619168 4.56207 -0.2881887
v -1.501692 4.74728 9.314573E-07
v -0.5619168 4.56207 -0.2881887
v -0.5619177 4.56207 2.031802E-06
v -1.501692 4.74728 9.314573E-07
v -0.5619168 4.56207 -0.2881887
v 1.950791E-07 3.672506 -0.2881896
v -0.5619177 4.56207 2.031802E-06
v 1.950791E-07 3.672506 -0.2881896
v -7.340985E-07 3.672506 1.129073E-06
v -0.5619177 4.56207 2.031802E-06
v 1.950791E-07 0 -0.2881896
v -3.003383 0 -0.28819
v -7.340985E-07 0 1.129073E-06
v -3.003381 0 1.005141E-06

vn 0.1126135 0 0.9936388
vn 0.1126135 0 0.9936388
vn 0.1126135 0 0.9936388
vn 0.1126135 0 0.9936388
vn 0.1126135 0 0.9936388
vn 0.1126135 0 0.9936388
vn 0.1126135 0 0.9936388
vn -0.9936388 0 0.1126135
vn -0.9936388 0 0.1126135
vn -0.9936388 0 0.1126135
vn -0.9936388 0 0.1126135
vn -0.1126135 0 -0.9936388
vn -0.1126135 0 -0.9936388
vn -0.1126135 0 -0.9936388
vn -0.1126135 0 -0.9936388
vn -0.1126135 0 -0.9936388
vn -0.1126135 0 -0.9936388
vn -0.1126135 0 -0.9936388
vn 0.9936388 0 -0.1126135
vn 0.9936388 0 -0.1126135
vn 0.9936388 0 -0.1126135
vn 0.9936388 0 -0.1126135
vn -0.8448475 0.526369 0.09575035
vn -0.5783022 0.8131855 0.06554158
vn -0.8448475 0.526369 0.09575035
vn -0.5783022 0.8131855 0.06554158
vn -0.5783022 0.8131855 0.06554158
vn -0.8448475 0.526369 0.09575035
vn -0.5783022 0.8131855 0.06554158
vn -0.5783022 0.8131855 0.06554158
vn 0.001280776 0.9999989 -0.0001451561
vn -0.5783022 0.8131855 0.06554158
vn 0.001280776 0.9999989 -0.0001451561
vn 0.001280776 0.9999989 -0.0001451561
vn 0.001280776 0.9999989 -0.0001451561
vn 0.4556889 0.8886393 -0.05164527
vn 0.001280776 0.9999989 -0.0001451561
vn 0.4556889 0.8886393 -0.05164527
vn 0.685085 0.7243134 -0.07764375
vn 0.001280776 0.9999989 -0.0001451561
vn 0.4556889 0.8886393 -0.05164527
vn 0.8400741 0.5340512 -0.09520936
vn 0.685085 0.7243134 -0.07764375
vn 0.8400741 0.5340512 -0.09520936
vn 0.8400741 0.5340512 -0.09520936
vn 0.685085 0.7243134 -0.07764375
vn 0 -0.9999998 0
vn 0 -0.9999998 0
vn 0 -0.9999998 0
vn 0 -0.9999998 0

vt 0 3.671875
vt 0 0
vt -0.5620117 4.5625
vt -1.501953 4.746094
vt -3.003906 0
vt -2.451172 4.566406
vt -3.003906 3.671875
vt 0 0
vt -0.2880859 0
vt 0 3.671875
vt -0.2880859 3.671875
vt 3.003906 3.671875
vt 3.003906 0
vt 2.451172 4.566406
vt 1.501953 4.746094
vt 0 0
vt 0.5620117 4.5625
vt 0 3.671875
vt 0.2880859 0
vt 0 0
vt 0.2880859 3.671875
vt 0 3.671875
vt 3.003906 3.671875
vt 2.451172 4.566406
vt 3.003906 3.671875
vt 2.451172 4.566406
vt 2.451172 4.566406
vt 3.003906 3.671875
vt 2.451172 4.566406
vt 2.451172 4.566406
vt 1.501953 4.746094
vt 2.451172 4.566406
vt 1.501953 4.746094
vt 1.501953 4.746094
vt 1.501953 4.746094
vt 0.5620117 4.5625
vt 1.501953 4.746094
vt 0.5620117 4.5625
vt 0.5620117 4.5625
vt 1.501953 4.746094
vt 0.5620117 4.5625
vt 0 3.671875
vt 0.5620117 4.5625
vt 0 3.671875
vt 0 3.671875
vt 0.5620117 4.5625
vt 0 -0.2880859
vt -3.003906 -0.2880859
vt 0 0
vt -3.003906 0

g Dust2Door_(3)_1340_9
usemtl Dust2Door_(3)_1340_9
usemap Dust2Door_(3)_1340_9
f 1/1/1 3/3/3 2/2/2
f 2/2/2 3/3/3 4/4/4
f 5/5/5 2/2/2 4/4/4
f 6/6/6 5/5/5 4/4/4
f 5/5/5 6/6/6 7/7/7
f 8/8/8 10/10/10 9/9/9
f 9/9/9 10/10/10 11/11/11
f 12/12/12 14/14/14 13/13/13
f 13/13/13 14/14/14 15/15/15
f 16/16/16 13/13/13 15/15/15
f 17/17/17 16/16/16 15/15/15
f 16/16/16 17/17/17 18/18/18
f 19/19/19 21/21/21 20/20/20
f 20/20/20 21/21/21 22/22/22
f 23/23/23 25/25/25 24/24/24
f 26/26/26 28/28/28 27/27/27
f 29/29/29 31/31/31 30/30/30
f 32/32/32 34/34/34 33/33/33
f 35/35/35 37/37/37 36/36/36
f 38/38/38 40/40/40 39/39/39
f 41/41/41 43/43/43 42/42/42
f 44/44/44 46/46/46 45/45/45
f 47/47/47 49/49/49 48/48/48
f 48/48/48 49/49/49 50/50/50
