#Dust2Box_2_(6)_1406_121.obj

v 1.430511E-06 0 0
v -0.9999986 0 0
v 1.430511E-06 1 0
v -0.9999986 1 0
v -0.9999986 0 0
v -0.9999986 0 -1
v -0.9999986 1 0
v -0.9999986 1 -1
v -0.9999986 0 -1
v 1.430511E-06 0 -1
v -0.9999986 1 -1
v 1.430511E-06 1 -1
v 1.430511E-06 0 -1
v 1.430511E-06 0 0
v 1.430511E-06 1 -1
v 1.430511E-06 1 0
v 1.430511E-06 1 0
v -0.9999986 1 0
v 1.430511E-06 1 -1
v -0.9999986 1 -1
v 1.430511E-06 0 -1
v -0.9999986 0 -1
v 1.430511E-06 0 0
v -0.9999986 0 0

vn 0 0 1
vn 0 0 1
vn 0 0 1
vn 0 0 1
vn -1 0 0
vn -1 0 0
vn -1 0 0
vn -1 0 0
vn 0 0 -1
vn 0 0 -1
vn 0 0 -1
vn 0 0 -1
vn 1 0 0
vn 1 0 0
vn 1 0 0
vn 1 0 0
vn 0 1 0
vn 0 1 0
vn 0 1 0
vn 0 1 0
vn 0 -1 0
vn 0 -1 0
vn 0 -1 0
vn 0 -1 0

vt 0 0
vt -1 0
vt 0 1
vt -1 1
vt 0 0
vt -1 0
vt 0 1
vt -1 1
vt 1 0
vt 0 0
vt 1 1
vt 0 1
vt 1 0
vt 0 0
vt 1 1
vt 0 1
vt 0 0
vt 1 0
vt 0 -1
vt 1 -1
vt 0 -1
vt -1 -1
vt 0 0
vt -1 0

g Dust2Box_2_(6)_1406_121
usemtl Dust2Box_2_(6)_1406_121
usemap Dust2Box_2_(6)_1406_121
f 1/1/1 3/3/3 2/2/2
f 2/2/2 3/3/3 4/4/4
f 5/5/5 7/7/7 6/6/6
f 6/6/6 7/7/7 8/8/8
f 9/9/9 11/11/11 10/10/10
f 10/10/10 11/11/11 12/12/12
f 13/13/13 15/15/15 14/14/14
f 14/14/14 15/15/15 16/16/16
f 17/17/17 19/19/19 18/18/18
f 18/18/18 19/19/19 20/20/20
f 21/21/21 23/23/23 22/22/22
f 22/22/22 23/23/23 24/24/24
