#Dust2_1565_144.obj

v -68.25172 0.3274114 0.6914425
v -68.34055 0.3099961 -5.489634
v -68.23721 0.3264914 2.864197
v -38.985 -1.001445 -16.30363
v -32.46294 -1 -10.21865
v -38.32966 -1 -16.27478
v -31.69226 3 -17.358
v -31.75683 3 -21.80439
v -31.75683 3 -18.87768
v -31.69226 3 -17.358
v -31.69226 3 -23.27556
v -31.75683 3 -21.80439
v 2.699998 4.960998 -64.99925
v 2.701864 1.438661 -64.94461
v 2.699998 1.87049 -64.99925
v -32.53299 1.87049 -68.11745
v -32.5371 4.765967 -68.11745
v -32.5371 0.8704896 -68.11745
v -56.77714 2.800398 5.728281
v -56.89307 2.792876 -5.489634
v -56.88223 2.8067 2.877741
v -50.35798 0.8704896 -11.32547
v -50.37229 2.854731 -11.30821
v -50.35798 0.8704897 -15.19277

vn 0.3882627 -0.9215438 -0.002983309
vn 0.3882627 -0.9215438 -0.002983309
vn 0.3882627 -0.9215438 -0.002983309
vn 0.002303282 -0.9999948 -0.002231246
vn 0.002303282 -0.9999948 -0.002231246
vn 0.002303282 -0.9999948 -0.002231246
vn 0 -0.9999999 0
vn 0 -0.9999999 0
vn 0 -0.9999999 0
vn 0 -1 0
vn 0 -1 0
vn 0 -1 0
vn -0.9994186 0 0.0340925
vn -0.9994186 0 0.0340925
vn -0.9994186 0 0.0340925
vn 0 0 -1
vn 0 0 -1
vn 0 0 -1
vn -0.1079638 -0.9941531 0.001782363
vn -0.1079638 -0.9941531 0.001782363
vn -0.1079638 -0.9941531 0.001782363
vn 0.999974 0.00721302 1.111706E-10
vn 0.999974 0.00721302 1.111706E-10
vn 0.999974 0.00721302 1.111706E-10

vt -62.78125 0.6113281
vt -62.84375 -5.570313
vt -62.75 2.785156
vt -39 -16.29688
vt -32.46875 -10.21875
vt -38.34375 -16.26563
vt -31.6875 -17.35938
vt -31.75 -21.79688
vt -31.75 -18.875
vt -31.6875 -17.35938
vt -31.6875 -23.28125
vt -31.75 -21.79688
vt -64.875 4.960938
vt -64.8125 1.438477
vt -64.875 1.870117
vt 32.53125 1.870117
vt 32.53125 4.765625
vt 32.53125 0.8706055
vt -56.75 5.722656
vt -56.875 -5.496094
vt -56.84375 2.871094
vt 11.32813 1.233398
vt 11.30469 3.21875
vt 15.19531 1.233398

g Dust2_1565_144
usemtl Dust2_1565_144
usemap Dust2_1565_144
f 1/1/1 3/3/3 2/2/2
f 4/4/4 6/6/6 5/5/5
f 7/7/7 9/9/9 8/8/8
f 10/10/10 12/12/12 11/11/11
f 13/13/13 15/15/15 14/14/14
f 16/16/16 18/18/18 17/17/17
f 19/19/19 21/21/21 20/20/20
f 22/22/22 24/24/24 23/23/23
