#Env_Plant_Corn_Mature_(16)_1737_61.obj

v -0.2147218 0 0
v -0.3554426 3.784392 0
v 0 3.784392 0.3554426
v 0 0 0.2147218
v -0.2288698 4.791591 0
v 0 4.791591 -0.2288698
v 0.2288698 4.791591 0
v 0 4.791591 0.2288698
v 0 3.784392 -0.3554426
v 0 0 -0.2147218
v 0.2147218 0 0
v 0.3554426 3.784392 0
v 0 0 0.2147218
v 0 3.784392 0.3554426
v 0.3554426 3.784392 0
v 0.2147218 0 0
v 0 0 -0.2147218
v 0 3.784392 -0.3554426
v -0.3554426 3.784392 0
v -0.2147218 0 0
v -0.02096319 1.430727 -0.1776609
v 0.3383787 2.776889 -0.5370028
v 0.5370028 2.776889 -0.3383787
v 0.1776609 1.430727 0.02096319
v 0.3383787 2.776889 -0.5370028
v 0.3838421 2.655761 -0.5824662
v 0.5824662 2.655761 -0.3838421
v 0.5370028 2.776889 -0.3383787
v 0.3838421 2.655761 -0.5824662
v 0.02450019 1.309599 -0.2231243
v 0.2231243 1.309599 -0.02450019
v 0.5824662 2.655761 -0.3838421
v 0.1776609 1.430727 0.02096319
v 0.5370028 2.776889 -0.3383787
v 0.5824662 2.655761 -0.3838421
v 0.2231243 1.309599 -0.02450019
v 0.02450019 1.309599 -0.2231243
v 0.3838421 2.655761 -0.5824662
v 0.3383787 2.776889 -0.5370028
v -0.02096319 1.430727 -0.1776609
v 0.1776609 1.430727 -0.02096319
v 0.5370028 2.776889 0.3383787
v 0.3383787 2.776889 0.5370028
v -0.02096319 1.430727 0.1776609
v 0.5370028 2.776889 0.3383787
v 0.5824662 2.655761 0.3838421
v 0.3838421 2.655761 0.5824662
v 0.3383787 2.776889 0.5370028
v 0.5824662 2.655761 0.3838421
v 0.2231243 1.309599 0.02450019
v 0.02450019 1.309599 0.2231243
v 0.3838421 2.655761 0.5824662
v -0.02096319 1.430727 0.1776609
v 0.3383787 2.776889 0.5370028
v 0.3838421 2.655761 0.5824662
v 0.02450019 1.309599 0.2231243
v 0.2231243 1.309599 0.02450019
v 0.5824662 2.655761 0.3838421
v 0.5370028 2.776889 0.3383787
v 0.1776609 1.430727 -0.02096319
v -0.1776609 1.430727 0.02096319
v -0.5370028 2.776889 -0.3383787
v -0.3383787 2.776889 -0.5370028
v 0.02096319 1.430727 -0.1776609
v -0.5370028 2.776889 -0.3383787
v -0.5824662 2.655761 -0.3838421
v -0.3838421 2.655761 -0.5824662
v -0.3383787 2.776889 -0.5370028
v -0.5824662 2.655761 -0.3838421
v -0.2231243 1.309599 -0.02450019
v -0.02450019 1.309599 -0.2231243
v -0.3838421 2.655761 -0.5824662
v 0.02096319 1.430727 -0.1776609
v -0.3383787 2.776889 -0.5370028
v -0.3838421 2.655761 -0.5824662
v -0.02450019 1.309599 -0.2231243
v -0.2231243 1.309599 -0.02450019
v -0.5824662 2.655761 -0.3838421
v -0.5370028 2.776889 -0.3383787
v -0.1776609 1.430727 0.02096319
v 0.02096319 1.430727 0.1776609
v -0.3383787 2.776889 0.5370028
v -0.5370028 2.776889 0.3383787
v -0.1776609 1.430727 -0.02096319
v -0.3383787 2.776889 0.5370028
v -0.3838421 2.655761 0.5824662
v -0.5824662 2.655761 0.3838421
v -0.5370028 2.776889 0.3383787
v -0.3838421 2.655761 0.5824662
v -0.02450019 1.309599 0.2231243
v -0.2231243 1.309599 0.02450019
v -0.5824662 2.655761 0.3838421
v -0.1776609 1.430727 -0.02096319
v -0.5370028 2.776889 0.3383787
v -0.5824662 2.655761 0.3838421
v -0.2231243 1.309599 0.02450019
v -0.02450019 1.309599 0.2231243
v -0.3838421 2.655761 0.5824662
v -0.3383787 2.776889 0.5370028
v 0.02096319 1.430727 0.1776609
v -0.3554426 3.784392 0
v -0.2288698 3.784392 0
v 0 3.784392 0.2288698
v 0 3.784392 0.3554426
v 0.2288698 3.784392 0
v 0.3554426 3.784392 0
v 0 3.784392 -0.2288698
v 0 3.784392 -0.3554426
v -0.2288698 3.784392 0
v -0.2288698 4.791591 0
v 0 4.791591 0.2288698
v 0 3.784392 0.2288698
v 0 3.784392 0.2288698
v 0 4.791591 0.2288698
v 0.2288698 4.791591 0
v 0.2288698 3.784392 0
v 0.2288698 3.784392 0
v 0.2288698 4.791591 0
v 0 4.791591 -0.2288698
v 0 3.784392 -0.2288698
v 0 3.784392 -0.2288698
v 0 4.791591 -0.2288698
v -0.2288698 4.791591 0
v -0.2288698 3.784392 0

vn -0.7068635 -0.02628628 0.7068612
vn -0.7068635 -0.02628629 0.7068612
vn -0.7068635 -0.02628629 0.7068612
vn -0.7068636 -0.02628629 0.7068612
vn 0 0.9999999 0
vn 0 0.9999999 0
vn 0 0.9999999 0
vn 0 0.9999999 0
vn 0.706863 -0.02628623 -0.7068619
vn 0.706863 -0.02628623 -0.7068618
vn 0.706863 -0.02628623 -0.7068618
vn 0.706863 -0.02628623 -0.7068618
vn 0.7068636 -0.0262862 0.7068612
vn 0.7068636 -0.02628621 0.7068613
vn 0.7068636 -0.02628621 0.7068613
vn 0.7068636 -0.0262862 0.7068613
vn -0.706863 -0.02628623 -0.7068619
vn -0.7068629 -0.02628623 -0.7068619
vn -0.706863 -0.02628623 -0.7068619
vn -0.706863 -0.02628623 -0.7068619
vn -0.6615393 0.3531733 0.6615393
vn -0.6615393 0.3531733 0.6615393
vn -0.6615393 0.3531733 0.6615393
vn -0.6615393 0.3531733 0.6615393
vn 0.6245753 0.468837 -0.6245777
vn 0.6245754 0.468837 -0.6245777
vn 0.6245754 0.468837 -0.6245777
vn 0.6245754 0.468837 -0.6245777
vn 0.6615376 -0.3531744 -0.6615403
vn 0.6615377 -0.3531744 -0.6615403
vn 0.6615376 -0.3531744 -0.6615403
vn 0.6615376 -0.3531744 -0.6615403
vn 0.7071198 0 0.7070936
vn 0.7071198 0 0.7070936
vn 0.7071198 0 0.7070936
vn 0.7071198 0 0.7070936
vn -0.7071069 0 -0.7071065
vn -0.7071069 0 -0.7071065
vn -0.7071069 0 -0.7071065
vn -0.7071069 0 -0.7071065
vn -0.6615392 0.3531732 -0.6615394
vn -0.6615392 0.3531732 -0.6615394
vn -0.6615393 0.3531733 -0.6615393
vn -0.6615393 0.3531733 -0.6615394
vn 0.6245752 0.4688368 0.6245781
vn 0.6245751 0.4688368 0.6245781
vn 0.6245752 0.4688368 0.6245781
vn 0.6245751 0.4688368 0.6245781
vn 0.6615378 -0.3531739 0.6615405
vn 0.6615378 -0.3531738 0.6615404
vn 0.6615379 -0.3531739 0.6615405
vn 0.6615378 -0.3531738 0.6615404
vn -0.7071069 0 0.7071065
vn -0.7071069 0 0.7071065
vn -0.7071069 0 0.7071065
vn -0.7071069 0 0.7071065
vn 0.7071198 0 -0.7070936
vn 0.7071198 0 -0.7070936
vn 0.7071198 0 -0.7070936
vn 0.7071198 0 -0.7070936
vn 0.6615408 0.3531735 0.6615377
vn 0.6615407 0.3531735 0.6615377
vn 0.6615408 0.3531735 0.6615377
vn 0.6615408 0.3531735 0.6615377
vn -0.6245752 0.4688368 -0.6245781
vn -0.6245751 0.4688368 -0.6245781
vn -0.6245752 0.4688368 -0.6245781
vn -0.6245751 0.4688368 -0.6245781
vn -0.6615378 -0.3531739 -0.6615405
vn -0.6615378 -0.3531738 -0.6615404
vn -0.6615379 -0.3531739 -0.6615405
vn -0.6615378 -0.3531738 -0.6615404
vn 0.7071069 0 -0.7071065
vn 0.7071069 0 -0.7071065
vn 0.7071069 0 -0.7071065
vn 0.7071069 0 -0.7071065
vn -0.7071152 0 0.7070982
vn -0.7071152 0 0.7070982
vn -0.7071152 0 0.7070982
vn -0.7071152 0 0.7070982
vn 0.6615408 0.3531735 -0.6615377
vn 0.6615408 0.3531735 -0.6615377
vn 0.6615408 0.3531735 -0.6615377
vn 0.6615408 0.3531735 -0.6615377
vn -0.6245753 0.468837 0.6245777
vn -0.6245754 0.468837 0.6245777
vn -0.6245754 0.468837 0.6245777
vn -0.6245754 0.468837 0.6245777
vn -0.6615378 -0.3531741 0.6615404
vn -0.6615378 -0.3531741 0.6615403
vn -0.6615378 -0.3531741 0.6615404
vn -0.6615377 -0.3531741 0.6615404
vn -0.7071152 0 -0.7070982
vn -0.7071152 0 -0.7070982
vn -0.7071152 0 -0.7070982
vn -0.7071152 0 -0.7070982
vn 0.7071069 0 0.7071065
vn 0.7071069 0 0.7071065
vn 0.7071069 0 0.7071065
vn 0.7071069 0 0.7071065
vn 0 0.9999999 0
vn 0 0.9999999 0
vn 0 0.9999999 0
vn 0 0.9999999 0
vn 0 0.9999999 0
vn 0 0.9999999 0
vn 0 0.9999999 0
vn 0 0.9999999 0
vn -0.7071096 0 0.7071038
vn -0.7071096 0 0.7071038
vn -0.7071096 0 0.7071038
vn -0.7071096 0 0.7071038
vn 0.7071096 0 0.7071038
vn 0.7071096 0 0.7071038
vn 0.7071096 0 0.7071038
vn 0.7071096 0 0.7071038
vn 0.7071096 0 -0.7071038
vn 0.7071096 0 -0.7071038
vn 0.7071096 0 -0.7071038
vn 0.7071096 0 -0.7071038
vn -0.7071096 0 -0.7071038
vn -0.7071096 0 -0.7071038
vn -0.7071096 0 -0.7071038
vn -0.7071096 0 -0.7071038

vt 0.2001953 0.2814941
vt 0.2001953 0.2814941
vt 0.2001953 0.2814941
vt 0.2001953 0.2814941
vt 0.3217773 0.2225342
vt 0.3217773 0.2225342
vt 0.3217773 0.2225342
vt 0.3217773 0.2225342
vt 0.2001953 0.2814941
vt 0.2001953 0.2814941
vt 0.2001953 0.2814941
vt 0.2001953 0.2814941
vt 0.2683105 0.2868652
vt 0.2683105 0.2868652
vt 0.2683105 0.2868652
vt 0.2683105 0.2868652
vt 0.2683105 0.2868652
vt 0.2683105 0.2868652
vt 0.2683105 0.2868652
vt 0.2683105 0.2868652
vt 0.2868652 0.2856445
vt 0.2868652 0.2856445
vt 0.2868652 0.2856445
vt 0.2868652 0.2856445
vt 0.3564453 0.2802734
vt 0.3564453 0.2802734
vt 0.3564453 0.2802734
vt 0.3564453 0.2802734
vt 0.161499 0.2775879
vt 0.161499 0.2775879
vt 0.161499 0.2775879
vt 0.161499 0.2775879
vt 0.2683105 0.2868652
vt 0.2683105 0.2868652
vt 0.2683105 0.2868652
vt 0.2683105 0.2868652
vt 0.2683105 0.2868652
vt 0.2683105 0.2868652
vt 0.2683105 0.2868652
vt 0.2683105 0.2868652
vt 0.2868652 0.2856445
vt 0.2868652 0.2856445
vt 0.2868652 0.2856445
vt 0.2868652 0.2856445
vt 0.3564453 0.2802734
vt 0.3564453 0.2802734
vt 0.3564453 0.2802734
vt 0.3564453 0.2802734
vt 0.2296143 0.2856445
vt 0.2296143 0.2856445
vt 0.2296143 0.2856445
vt 0.2296143 0.2856445
vt 0.2683105 0.2868652
vt 0.2683105 0.2868652
vt 0.2683105 0.2868652
vt 0.2683105 0.2868652
vt 0.2683105 0.2868652
vt 0.2683105 0.2868652
vt 0.2683105 0.2868652
vt 0.2683105 0.2868652
vt 0.2868652 0.2856445
vt 0.2868652 0.2856445
vt 0.2868652 0.2856445
vt 0.2868652 0.2856445
vt 0.3564453 0.2802734
vt 0.3564453 0.2802734
vt 0.3564453 0.2802734
vt 0.3564453 0.2802734
vt 0.2296143 0.2856445
vt 0.2296143 0.2856445
vt 0.2296143 0.2856445
vt 0.2296143 0.2856445
vt 0.2683105 0.2868652
vt 0.2683105 0.2868652
vt 0.2683105 0.2868652
vt 0.2683105 0.2868652
vt 0.2683105 0.2868652
vt 0.2683105 0.2868652
vt 0.2683105 0.2868652
vt 0.2683105 0.2868652
vt 0.2868652 0.2856445
vt 0.2868652 0.2856445
vt 0.2868652 0.2856445
vt 0.2868652 0.2856445
vt 0.3564453 0.2802734
vt 0.3564453 0.2802734
vt 0.3564453 0.2802734
vt 0.3564453 0.2802734
vt 0.161499 0.2775879
vt 0.161499 0.2775879
vt 0.161499 0.2775879
vt 0.161499 0.2775879
vt 0.2683105 0.2868652
vt 0.2683105 0.2868652
vt 0.2683105 0.2868652
vt 0.2683105 0.2868652
vt 0.2683105 0.2868652
vt 0.2683105 0.2868652
vt 0.2683105 0.2868652
vt 0.2683105 0.2868652
vt 0.3564453 0.2802734
vt 0.3564453 0.2802734
vt 0.3564453 0.2802734
vt 0.3564453 0.2802734
vt 0.3564453 0.2802734
vt 0.3564453 0.2802734
vt 0.3564453 0.2802734
vt 0.3564453 0.2802734
vt 0.2661133 0.2225342
vt 0.2661133 0.2225342
vt 0.2661133 0.2225342
vt 0.2661133 0.2225342
vt 0.2661133 0.2225342
vt 0.2661133 0.2225342
vt 0.2661133 0.2225342
vt 0.2661133 0.2225342
vt 0.2661133 0.2225342
vt 0.2661133 0.2225342
vt 0.2661133 0.2225342
vt 0.2661133 0.2225342
vt 0.2661133 0.2225342
vt 0.2661133 0.2225342
vt 0.2661133 0.2225342
vt 0.2661133 0.2225342

g Env_Plant_Corn_Mature_(16)_1737_61
usemtl Env_Plant_Corn_Mature_(16)_1737_61
usemap Env_Plant_Corn_Mature_(16)_1737_61
f 1/1/1 3/3/3 2/2/2
f 1/1/1 4/4/4 3/3/3
f 5/5/5 7/7/7 6/6/6
f 5/5/5 8/8/8 7/7/7
f 9/9/9 11/11/11 10/10/10
f 9/9/9 12/12/12 11/11/11
f 13/13/13 15/15/15 14/14/14
f 13/13/13 16/16/16 15/15/15
f 17/17/17 19/19/19 18/18/18
f 17/17/17 20/20/20 19/19/19
f 21/21/21 23/23/23 22/22/22
f 21/21/21 24/24/24 23/23/23
f 25/25/25 27/27/27 26/26/26
f 25/25/25 28/28/28 27/27/27
f 29/29/29 31/31/31 30/30/30
f 29/29/29 32/32/32 31/31/31
f 33/33/33 35/35/35 34/34/34
f 33/33/33 36/36/36 35/35/35
f 37/37/37 39/39/39 38/38/38
f 37/37/37 40/40/40 39/39/39
f 41/41/41 43/43/43 42/42/42
f 41/41/41 44/44/44 43/43/43
f 45/45/45 47/47/47 46/46/46
f 45/45/45 48/48/48 47/47/47
f 49/49/49 51/51/51 50/50/50
f 49/49/49 52/52/52 51/51/51
f 53/53/53 55/55/55 54/54/54
f 53/53/53 56/56/56 55/55/55
f 57/57/57 59/59/59 58/58/58
f 57/57/57 60/60/60 59/59/59
f 61/61/61 63/63/63 62/62/62
f 61/61/61 64/64/64 63/63/63
f 65/65/65 67/67/67 66/66/66
f 65/65/65 68/68/68 67/67/67
f 69/69/69 71/71/71 70/70/70
f 69/69/69 72/72/72 71/71/71
f 73/73/73 75/75/75 74/74/74
f 73/73/73 76/76/76 75/75/75
f 77/77/77 79/79/79 78/78/78
f 77/77/77 80/80/80 79/79/79
f 81/81/81 83/83/83 82/82/82
f 81/81/81 84/84/84 83/83/83
f 85/85/85 87/87/87 86/86/86
f 85/85/85 88/88/88 87/87/87
f 89/89/89 91/91/91 90/90/90
f 89/89/89 92/92/92 91/91/91
f 93/93/93 95/95/95 94/94/94
f 93/93/93 96/96/96 95/95/95
f 97/97/97 99/99/99 98/98/98
f 97/97/97 100/100/100 99/99/99
f 101/101/101 103/103/103 102/102/102
f 101/101/101 104/104/104 103/103/103
f 104/104/104 105/105/105 103/103/103
f 104/104/104 106/106/106 105/105/105
f 106/106/106 107/107/107 105/105/105
f 106/106/106 108/108/108 107/107/107
f 108/108/108 102/102/102 107/107/107
f 108/108/108 101/101/101 102/102/102
f 109/109/109 111/111/111 110/110/110
f 109/109/109 112/112/112 111/111/111
f 113/113/113 115/115/115 114/114/114
f 113/113/113 116/116/116 115/115/115
f 117/117/117 119/119/119 118/118/118
f 117/117/117 120/120/120 119/119/119
f 121/121/121 123/123/123 122/122/122
f 121/121/121 124/124/124 123/123/123
