#Env_Rocks_02_3982_242.obj

v -3.738878 -0.1175532 2.673198
v -4.301673 1.483153 2.110395
v -4.301673 1.483153 -0.4816469
v -3.73888 -0.1175532 -1.044453
v -4.301673 1.483153 2.110395
v -6.893724 1.483153 2.110392
v -6.893724 1.483153 -0.4816492
v -4.301673 1.483153 -0.4816469
v -6.893724 1.483153 2.110392
v -7.456518 -0.1175532 2.673198
v -7.456519 -0.1175532 -1.044452
v -6.893724 1.483153 -0.4816492
v -3.73888 -0.1175532 -1.044453
v -4.301673 1.483153 -0.4816469
v -6.893724 1.483153 -0.4816492
v -7.456519 -0.1175532 -1.044452
v -7.456518 -0.1175532 2.673198
v -6.893724 1.483153 2.110392
v -4.301673 1.483153 2.110395
v -3.738878 -0.1175532 2.673198
v -1.325005 -0.1175532 2.576856
v -1.8878 2.002693 2.014053
v -1.8878 2.002693 -0.5779878
v -1.325006 -0.1175532 -1.140794
v -1.8878 2.002693 2.014053
v -4.47985 2.002693 2.014051
v -4.47985 2.002693 -0.5779902
v -1.8878 2.002693 -0.5779878
v -4.47985 2.002693 2.014051
v -5.042645 -0.1175532 2.576856
v -5.042645 -0.1175532 -1.140793
v -4.47985 2.002693 -0.5779902
v -1.325006 -0.1175532 -1.140794
v -1.8878 2.002693 -0.5779878
v -4.47985 2.002693 -0.5779902
v -5.042645 -0.1175532 -1.140793
v -5.042645 -0.1175532 2.576856
v -4.47985 2.002693 2.014051
v -1.8878 2.002693 2.014053
v -1.325005 -0.1175532 2.576856
v 0.2248851 -0.1175532 1.859842
v -0.3379099 1.483153 1.29704
v -0.3379101 1.483153 -1.295002
v 0.2248833 -0.1175532 -1.857808
v -0.3379099 1.483153 1.29704
v -2.929961 1.483153 1.297037
v -2.929961 1.483153 -1.295004
v -0.3379101 1.483153 -1.295002
v -2.929961 1.483153 1.297037
v -3.492755 -0.1175532 1.859842
v -3.492756 -0.1175532 -1.857807
v -2.929961 1.483153 -1.295004
v 0.2248833 -0.1175532 -1.857808
v -0.3379101 1.483153 -1.295002
v -2.929961 1.483153 -1.295004
v -3.492756 -0.1175532 -1.857807
v -3.492755 -0.1175532 1.859842
v -2.929961 1.483153 1.297037
v -0.3379099 1.483153 1.29704
v 0.2248851 -0.1175532 1.859842
v 2.425967 -0.1175532 3.073435
v 1.863172 2.002693 2.510632
v 1.863173 2.002693 -0.08140836
v 2.425967 -0.1175532 -0.6442133
v 1.863172 2.002693 2.510632
v -0.7288778 2.002693 2.510631
v -0.7288771 2.002693 -0.0814099
v 1.863173 2.002693 -0.08140836
v -0.7288778 2.002693 2.510631
v -1.291672 -0.1175532 3.073436
v -1.291673 -0.1175532 -0.6442135
v -0.7288771 2.002693 -0.0814099
v 2.425967 -0.1175532 -0.6442133
v 1.863173 2.002693 -0.08140836
v -0.7288771 2.002693 -0.0814099
v -1.291673 -0.1175532 -0.6442135
v -1.291672 -0.1175532 3.073436
v -0.7288778 2.002693 2.510631
v 1.863172 2.002693 2.510632
v 2.425967 -0.1175532 3.073435
v 7.456526 -0.1175532 3.33212
v 6.893729 2.002693 2.769315
v 6.89373 2.002693 0.1772749
v 7.456524 -0.1175532 -0.3855301
v 6.893729 2.002693 2.769315
v 4.301679 2.002693 2.769314
v 4.30168 2.002693 0.1772733
v 6.89373 2.002693 0.1772749
v 4.301679 2.002693 2.769314
v 3.738884 -0.1175532 3.332119
v 3.738885 -0.1175532 -0.3855295
v 4.30168 2.002693 0.1772733
v 7.456524 -0.1175532 -0.3855301
v 6.89373 2.002693 0.1772749
v 4.30168 2.002693 0.1772733
v 3.738885 -0.1175532 -0.3855295
v 3.738884 -0.1175532 3.332119
v 4.301679 2.002693 2.769314
v 6.893729 2.002693 2.769315
v 7.456526 -0.1175532 3.33212
v 4.893654 -0.1175532 2.567744
v 4.330857 1.483153 2.004939
v 4.330858 1.483153 -0.5871015
v 4.893652 -0.1175532 -1.149906
v 4.330857 1.483153 2.004939
v 1.738807 1.483153 2.004938
v 1.738802 1.483153 -0.5870951
v 4.330858 1.483153 -0.5871015
v 1.738807 1.483153 2.004938
v 1.176013 -0.1175532 2.567743
v 1.176011 -0.1175532 -1.149907
v 1.738802 1.483153 -0.5870951
v 4.893652 -0.1175532 -1.149906
v 4.330858 1.483153 -0.5871015
v 1.738802 1.483153 -0.5870951
v 1.176011 -0.1175532 -1.149907
v 1.176013 -0.1175532 2.567743
v 1.738807 1.483153 2.004938
v 4.330857 1.483153 2.004939
v 4.893654 -0.1175532 2.567744
v -2.686918 -0.1175532 0.1828413
v -3.057434 0.6832164 -0.18767
v -3.057434 0.6832164 -1.894153
v -2.686922 -0.1175532 -2.264663
v -3.057434 0.6832164 -0.18767
v -4.763915 0.6832164 -0.1876706
v -4.763915 0.6832164 -1.894154
v -3.057434 0.6832164 -1.894153
v -4.763915 0.6832164 -0.1876706
v -5.134433 -0.1175532 0.182847
v -5.134431 -0.1175532 -2.264665
v -4.763915 0.6832164 -1.894154
v -2.686922 -0.1175532 -2.264663
v -3.057434 0.6832164 -1.894153
v -4.763915 0.6832164 -1.894154
v -5.134431 -0.1175532 -2.264665
v -5.134433 -0.1175532 0.182847
v -4.763915 0.6832164 -0.1876706
v -3.057434 0.6832164 -0.18767
v -2.686918 -0.1175532 0.1828413
v 2.10971 -0.1175532 0.2793221
v 1.603968 0.6832164 -0.09119268
v 1.603963 0.6832164 -1.797667
v 2.109706 -0.1175532 -2.168182
v 1.603968 0.6832164 -0.09119268
v -0.7253144 0.6832164 -0.09118924
v -0.725314 0.6832164 -1.797672
v 1.603963 0.6832164 -1.797667
v -0.7253144 0.6832164 -0.09118924
v -1.231057 -0.1175532 0.2793257
v -1.231055 -0.1175532 -2.168186
v -0.725314 0.6832164 -1.797672
v 2.109706 -0.1175532 -2.168182
v 1.603963 0.6832164 -1.797667
v -0.725314 0.6832164 -1.797672
v -1.231055 -0.1175532 -2.168186
v -1.231057 -0.1175532 0.2793257
v -0.7253144 0.6832164 -0.09118924
v 1.603968 0.6832164 -0.09119268
v 2.10971 -0.1175532 0.2793221
v 7.288605 -0.1175532 0.4454005
v 6.782863 0.6832164 0.07488578
v 6.782864 0.6832164 -1.631596
v 7.288605 -0.1175532 -2.002113
v 6.782863 0.6832164 0.07488578
v 4.45358 0.6832164 0.07488921
v 4.453582 0.6832164 -1.631593
v 6.782864 0.6832164 -1.631596
v 4.45358 0.6832164 0.07488921
v 3.94784 -0.1175532 0.4454058
v 3.94784 -0.1175532 -2.002108
v 4.453582 0.6832164 -1.631593
v 7.288605 -0.1175532 -2.002113
v 6.782864 0.6832164 -1.631596
v 4.453582 0.6832164 -1.631593
v 3.94784 -0.1175532 -2.002108
v 3.94784 -0.1175532 0.4454058
v 4.45358 0.6832164 0.07488921
v 6.782863 0.6832164 0.07488578
v 7.288605 -0.1175532 0.4454005
v -0.4573013 -0.1175532 -0.8846181
v -0.8461648 1.145042 -1.25513
v -0.8461634 1.145042 -2.961613
v -0.4573057 -0.1175532 -3.332122
v -0.8461648 1.145042 -1.25513
v -2.637147 1.145042 -1.255126
v -2.637147 1.145042 -2.961609
v -0.8461634 1.145042 -2.961613
v -2.637147 1.145042 -1.255126
v -3.026007 -0.1175532 -0.8846183
v -3.026012 -0.1175532 -3.332122
v -2.637147 1.145042 -2.961609
v -0.4573057 -0.1175532 -3.332122
v -0.8461634 1.145042 -2.961613
v -2.637147 1.145042 -2.961609
v -3.026012 -0.1175532 -3.332122
v -3.026007 -0.1175532 -0.8846183
v -2.637147 1.145042 -1.255126
v -0.8461648 1.145042 -1.25513
v -0.4573013 -0.1175532 -0.8846181

vn 0.7394302 0.3316872 -0.5858553
vn 0.7394302 0.3316872 -0.5858553
vn 0.7394302 0.3316872 -0.5858553
vn 0.7394302 0.3316872 -0.5858553
vn 0 1 0
vn 0 1 0
vn 0 1 0
vn 0 1 0
vn -0.7394302 0.3316872 0.5858553
vn -0.7394302 0.3316872 0.5858553
vn -0.7394302 0.3316872 0.5858553
vn -0.7394302 0.3316872 0.5858553
vn -0.5858541 0.3316932 -0.7394287
vn -0.5858541 0.3316932 -0.7394287
vn -0.5858541 0.3316932 -0.7394287
vn -0.5858541 0.3316932 -0.7394287
vn 0.5858541 0.3316932 0.7394287
vn 0.5858541 0.3316932 0.7394287
vn 0.5858541 0.3316932 0.7394287
vn 0.5858541 0.3316932 0.7394287
vn 0.7575679 0.2565537 -0.6002259
vn 0.7575679 0.2565537 -0.6002259
vn 0.7575679 0.2565537 -0.6002259
vn 0.7575679 0.2565537 -0.6002259
vn 0 1 0
vn 0 1 0
vn 0 1 0
vn 0 1 0
vn -0.7575679 0.2565537 0.6002259
vn -0.7575679 0.2565537 0.6002259
vn -0.7575679 0.2565537 0.6002259
vn -0.7575679 0.2565537 0.6002259
vn -0.6002251 0.2565586 -0.7575669
vn -0.6002251 0.2565586 -0.7575669
vn -0.6002251 0.2565586 -0.7575669
vn -0.6002251 0.2565586 -0.7575669
vn 0.6002251 0.2565586 0.7575669
vn 0.6002251 0.2565586 0.7575669
vn 0.6002251 0.2565586 0.7575669
vn 0.6002251 0.2565586 0.7575669
vn 0.7394302 0.3316872 -0.5858553
vn 0.7394302 0.3316872 -0.5858553
vn 0.7394302 0.3316872 -0.5858553
vn 0.7394302 0.3316872 -0.5858553
vn 0 1 0
vn 0 1 0
vn 0 1 0
vn 0 1 0
vn -0.7394302 0.3316872 0.5858553
vn -0.7394302 0.3316872 0.5858553
vn -0.7394302 0.3316872 0.5858553
vn -0.7394302 0.3316872 0.5858553
vn -0.5858541 0.3316932 -0.7394287
vn -0.5858541 0.3316932 -0.7394287
vn -0.5858541 0.3316932 -0.7394287
vn -0.5858541 0.3316932 -0.7394287
vn 0.5858541 0.3316932 0.7394287
vn 0.5858541 0.3316932 0.7394287
vn 0.5858541 0.3316932 0.7394287
vn 0.5858541 0.3316932 0.7394287
vn 0.7575679 0.2565537 -0.6002259
vn 0.7575679 0.2565537 -0.6002259
vn 0.7575679 0.2565537 -0.6002259
vn 0.7575679 0.2565537 -0.6002259
vn 0 1 0
vn 0 1 0
vn 0 1 0
vn 0 1 0
vn -0.7575679 0.2565537 0.6002259
vn -0.7575679 0.2565537 0.6002259
vn -0.7575679 0.2565537 0.6002259
vn -0.7575679 0.2565537 0.6002259
vn -0.6002251 0.2565586 -0.7575669
vn -0.6002251 0.2565586 -0.7575669
vn -0.6002251 0.2565586 -0.7575669
vn -0.6002251 0.2565586 -0.7575669
vn 0.6002251 0.2565586 0.7575669
vn 0.6002251 0.2565586 0.7575669
vn 0.6002251 0.2565586 0.7575669
vn 0.6002251 0.2565586 0.7575669
vn 0.7575679 0.2565537 -0.6002259
vn 0.7575679 0.2565537 -0.6002259
vn 0.7575679 0.2565537 -0.6002259
vn 0.7575679 0.2565537 -0.6002259
vn 0 1 0
vn 0 1 0
vn 0 1 0
vn 0 1 0
vn -0.7575679 0.2565537 0.6002259
vn -0.7575679 0.2565537 0.6002259
vn -0.7575679 0.2565537 0.6002259
vn -0.7575679 0.2565537 0.6002259
vn -0.6002251 0.2565586 -0.7575669
vn -0.6002251 0.2565586 -0.7575669
vn -0.6002251 0.2565586 -0.7575669
vn -0.6002251 0.2565586 -0.7575669
vn 0.6002251 0.2565586 0.7575669
vn 0.6002251 0.2565586 0.7575669
vn 0.6002251 0.2565586 0.7575669
vn 0.6002251 0.2565586 0.7575669
vn 0.7394302 0.3316872 -0.5858553
vn 0.7394302 0.3316872 -0.5858553
vn 0.7394302 0.3316872 -0.5858553
vn 0.7394302 0.3316872 -0.5858553
vn 0 1 0
vn 0 1 0
vn 0 1 0
vn 0 1 0
vn -0.7394302 0.3316872 0.5858553
vn -0.7394302 0.3316872 0.5858553
vn -0.7394302 0.3316872 0.5858553
vn -0.7394302 0.3316872 0.5858553
vn -0.5858541 0.3316932 -0.7394287
vn -0.5858541 0.3316932 -0.7394287
vn -0.5858541 0.3316932 -0.7394287
vn -0.5858541 0.3316932 -0.7394287
vn 0.5858541 0.3316932 0.7394287
vn 0.5858541 0.3316932 0.7394287
vn 0.5858541 0.3316932 0.7394287
vn 0.5858541 0.3316932 0.7394287
vn 0.7113462 0.419925 -0.5636041
vn 0.7113462 0.419925 -0.5636041
vn 0.7113462 0.419925 -0.5636041
vn 0.7113462 0.419925 -0.5636041
vn 0 1 0
vn 0 1 0
vn 0 1 0
vn 0 1 0
vn -0.7113462 0.419925 0.5636041
vn -0.7113462 0.419925 0.5636041
vn -0.7113462 0.419925 0.5636041
vn -0.7113462 0.419925 0.5636041
vn -0.5636041 0.419925 -0.7113462
vn -0.5636041 0.419925 -0.7113462
vn -0.5636041 0.419925 -0.7113462
vn -0.5636041 0.419925 -0.7113462
vn 0.5636041 0.419925 0.7113462
vn 0.5636041 0.419925 0.7113462
vn 0.5636041 0.419925 0.7113462
vn 0.5636041 0.419925 0.7113462
vn 0.6626987 0.5339869 -0.5250604
vn 0.6626987 0.5339869 -0.5250604
vn 0.6626987 0.5339869 -0.5250604
vn 0.6626987 0.5339869 -0.5250604
vn 0 1 0
vn 0 1 0
vn 0 1 0
vn 0 1 0
vn -0.6626987 0.5339869 0.5250604
vn -0.6626987 0.5339869 0.5250604
vn -0.6626987 0.5339869 0.5250604
vn -0.6626987 0.5339869 0.5250604
vn -0.5636041 0.419925 -0.7113462
vn -0.5636041 0.419925 -0.7113462
vn -0.5636041 0.419925 -0.7113462
vn -0.5636041 0.419925 -0.7113462
vn 0.5636041 0.419925 0.7113462
vn 0.5636041 0.419925 0.7113462
vn 0.5636041 0.419925 0.7113462
vn 0.5636041 0.419925 0.7113462
vn 0.6626991 0.5339862 -0.5250607
vn 0.6626991 0.5339862 -0.5250607
vn 0.6626991 0.5339862 -0.5250607
vn 0.6626991 0.5339862 -0.5250607
vn 0 1 0
vn 0 1 0
vn 0 1 0
vn 0 1 0
vn -0.6626991 0.5339862 0.5250607
vn -0.6626991 0.5339862 0.5250607
vn -0.6626991 0.5339862 0.5250607
vn -0.6626991 0.5339862 0.5250607
vn -0.5636041 0.419925 -0.7113462
vn -0.5636041 0.419925 -0.7113462
vn -0.5636041 0.419925 -0.7113462
vn -0.5636041 0.419925 -0.7113462
vn 0.5636041 0.419925 0.7113462
vn 0.5636041 0.419925 0.7113462
vn 0.5636041 0.419925 0.7113462
vn 0.5636041 0.419925 0.7113462
vn 0.7490793 0.2943428 -0.5935003
vn 0.7490793 0.2943428 -0.5935003
vn 0.7490793 0.2943428 -0.5935003
vn 0.7490793 0.2943428 -0.5935003
vn 0 1 0
vn 0 1 0
vn 0 1 0
vn 0 1 0
vn -0.7490793 0.2943428 0.5935003
vn -0.7490793 0.2943428 0.5935003
vn -0.7490793 0.2943428 0.5935003
vn -0.7490793 0.2943428 0.5935003
vn -0.5958835 0.2815803 -0.7520873
vn -0.5958835 0.2815803 -0.7520873
vn -0.5958835 0.2815803 -0.7520873
vn -0.5958835 0.2815803 -0.7520873
vn 0.5958835 0.2815803 0.7520873
vn 0.5958835 0.2815803 0.7520873
vn 0.5958835 0.2815803 0.7520873
vn 0.5958835 0.2815803 0.7520873

vt 0.2286377 0.4755859
vt 0.2297363 0.479248
vt 0.2347412 0.479248
vt 0.2358398 0.4755859
vt 0.2956543 0.479248
vt 0.2956543 0.4841309
vt 0.3005371 0.4841309
vt 0.3005371 0.479248
vt 0.2288818 0.479248
vt 0.2277832 0.4829102
vt 0.2351074 0.4829102
vt 0.2340088 0.479248
vt 0.263916 0.4836426
vt 0.263916 0.4836426
vt 0.263916 0.4836426
vt 0.263916 0.4836426
vt 0.263916 0.4836426
vt 0.263916 0.4836426
vt 0.263916 0.4836426
vt 0.263916 0.4836426
vt 0.2286377 0.4755859
vt 0.2297363 0.479248
vt 0.2347412 0.479248
vt 0.2358398 0.4755859
vt 0.2956543 0.479248
vt 0.2956543 0.4841309
vt 0.3005371 0.4841309
vt 0.3005371 0.479248
vt 0.2288818 0.479248
vt 0.2277832 0.4829102
vt 0.2351074 0.4829102
vt 0.2340088 0.479248
vt 0.263916 0.4836426
vt 0.263916 0.4836426
vt 0.263916 0.4836426
vt 0.263916 0.4836426
vt 0.263916 0.4836426
vt 0.263916 0.4836426
vt 0.263916 0.4836426
vt 0.263916 0.4836426
vt 0.2286377 0.4755859
vt 0.2297363 0.479248
vt 0.2347412 0.479248
vt 0.2358398 0.4755859
vt 0.2956543 0.479248
vt 0.2956543 0.4841309
vt 0.3005371 0.4841309
vt 0.3005371 0.479248
vt 0.2288818 0.479248
vt 0.2277832 0.4829102
vt 0.2351074 0.4829102
vt 0.2340088 0.479248
vt 0.263916 0.4836426
vt 0.263916 0.4836426
vt 0.263916 0.4836426
vt 0.263916 0.4836426
vt 0.263916 0.4836426
vt 0.263916 0.4836426
vt 0.263916 0.4836426
vt 0.263916 0.4836426
vt 0.2286377 0.4755859
vt 0.2297363 0.479248
vt 0.2347412 0.479248
vt 0.2358398 0.4755859
vt 0.2956543 0.479248
vt 0.2956543 0.4841309
vt 0.3005371 0.4841309
vt 0.3005371 0.479248
vt 0.2288818 0.479248
vt 0.2277832 0.4829102
vt 0.2351074 0.4829102
vt 0.2340088 0.479248
vt 0.263916 0.4836426
vt 0.263916 0.4836426
vt 0.263916 0.4836426
vt 0.263916 0.4836426
vt 0.263916 0.4836426
vt 0.263916 0.4836426
vt 0.263916 0.4836426
vt 0.263916 0.4836426
vt 0.2286377 0.4755859
vt 0.2297363 0.479248
vt 0.2347412 0.479248
vt 0.2358398 0.4755859
vt 0.2956543 0.479248
vt 0.2956543 0.4841309
vt 0.3005371 0.4841309
vt 0.3005371 0.479248
vt 0.2288818 0.479248
vt 0.2277832 0.4829102
vt 0.2351074 0.4829102
vt 0.2340088 0.479248
vt 0.263916 0.4836426
vt 0.263916 0.4836426
vt 0.263916 0.4836426
vt 0.263916 0.4836426
vt 0.263916 0.4836426
vt 0.263916 0.4836426
vt 0.263916 0.4836426
vt 0.263916 0.4836426
vt 0.2286377 0.4755859
vt 0.2297363 0.479248
vt 0.2347412 0.479248
vt 0.2358398 0.4755859
vt 0.2956543 0.479248
vt 0.2956543 0.4841309
vt 0.3005371 0.4841309
vt 0.3005371 0.479248
vt 0.2288818 0.479248
vt 0.2277832 0.4829102
vt 0.2351074 0.4829102
vt 0.2340088 0.479248
vt 0.263916 0.4836426
vt 0.263916 0.4836426
vt 0.263916 0.4836426
vt 0.263916 0.4836426
vt 0.263916 0.4836426
vt 0.263916 0.4836426
vt 0.263916 0.4836426
vt 0.263916 0.4836426
vt 0.2286377 0.4755859
vt 0.2297363 0.479248
vt 0.2347412 0.479248
vt 0.2358398 0.4755859
vt 0.2956543 0.479248
vt 0.2956543 0.4841309
vt 0.3005371 0.4841309
vt 0.3005371 0.479248
vt 0.2288818 0.479248
vt 0.2277832 0.4829102
vt 0.2351074 0.4829102
vt 0.2340088 0.479248
vt 0.263916 0.4836426
vt 0.263916 0.4836426
vt 0.263916 0.4836426
vt 0.263916 0.4836426
vt 0.263916 0.4836426
vt 0.263916 0.4836426
vt 0.263916 0.4836426
vt 0.263916 0.4836426
vt 0.2286377 0.4755859
vt 0.2297363 0.479248
vt 0.2347412 0.479248
vt 0.2358398 0.4755859
vt 0.2956543 0.479248
vt 0.2956543 0.4841309
vt 0.3005371 0.4841309
vt 0.3005371 0.479248
vt 0.2288818 0.479248
vt 0.2277832 0.4829102
vt 0.2351074 0.4829102
vt 0.2340088 0.479248
vt 0.263916 0.4836426
vt 0.263916 0.4836426
vt 0.263916 0.4836426
vt 0.263916 0.4836426
vt 0.263916 0.4836426
vt 0.263916 0.4836426
vt 0.263916 0.4836426
vt 0.263916 0.4836426
vt 0.2286377 0.4755859
vt 0.2297363 0.479248
vt 0.2347412 0.479248
vt 0.2358398 0.4755859
vt 0.2956543 0.479248
vt 0.2956543 0.4841309
vt 0.3005371 0.4841309
vt 0.3005371 0.479248
vt 0.2288818 0.479248
vt 0.2277832 0.4829102
vt 0.2351074 0.4829102
vt 0.2340088 0.479248
vt 0.263916 0.4836426
vt 0.263916 0.4836426
vt 0.263916 0.4836426
vt 0.263916 0.4836426
vt 0.263916 0.4836426
vt 0.263916 0.4836426
vt 0.263916 0.4836426
vt 0.263916 0.4836426
vt 0.2286377 0.4755859
vt 0.2297363 0.479248
vt 0.2347412 0.479248
vt 0.2358398 0.4755859
vt 0.2956543 0.479248
vt 0.2956543 0.4841309
vt 0.3005371 0.4841309
vt 0.3005371 0.479248
vt 0.2288818 0.479248
vt 0.2277832 0.4829102
vt 0.2351074 0.4829102
vt 0.2340088 0.479248
vt 0.263916 0.4836426
vt 0.263916 0.4836426
vt 0.263916 0.4836426
vt 0.263916 0.4836426
vt 0.263916 0.4836426
vt 0.263916 0.4836426
vt 0.263916 0.4836426
vt 0.263916 0.4836426

g Env_Rocks_02_3982_242
usemtl Env_Rocks_02_3982_242
usemap Env_Rocks_02_3982_242
f 1/1/1 3/3/3 2/2/2
f 1/1/1 4/4/4 3/3/3
f 5/5/5 7/7/7 6/6/6
f 5/5/5 8/8/8 7/7/7
f 9/9/9 11/11/11 10/10/10
f 9/9/9 12/12/12 11/11/11
f 13/13/13 15/15/15 14/14/14
f 13/13/13 16/16/16 15/15/15
f 17/17/17 19/19/19 18/18/18
f 17/17/17 20/20/20 19/19/19
f 21/21/21 23/23/23 22/22/22
f 21/21/21 24/24/24 23/23/23
f 25/25/25 27/27/27 26/26/26
f 25/25/25 28/28/28 27/27/27
f 29/29/29 31/31/31 30/30/30
f 29/29/29 32/32/32 31/31/31
f 33/33/33 35/35/35 34/34/34
f 33/33/33 36/36/36 35/35/35
f 37/37/37 39/39/39 38/38/38
f 37/37/37 40/40/40 39/39/39
f 41/41/41 43/43/43 42/42/42
f 41/41/41 44/44/44 43/43/43
f 45/45/45 47/47/47 46/46/46
f 45/45/45 48/48/48 47/47/47
f 49/49/49 51/51/51 50/50/50
f 49/49/49 52/52/52 51/51/51
f 53/53/53 55/55/55 54/54/54
f 53/53/53 56/56/56 55/55/55
f 57/57/57 59/59/59 58/58/58
f 57/57/57 60/60/60 59/59/59
f 61/61/61 63/63/63 62/62/62
f 61/61/61 64/64/64 63/63/63
f 65/65/65 67/67/67 66/66/66
f 65/65/65 68/68/68 67/67/67
f 69/69/69 71/71/71 70/70/70
f 69/69/69 72/72/72 71/71/71
f 73/73/73 75/75/75 74/74/74
f 73/73/73 76/76/76 75/75/75
f 77/77/77 79/79/79 78/78/78
f 77/77/77 80/80/80 79/79/79
f 81/81/81 83/83/83 82/82/82
f 81/81/81 84/84/84 83/83/83
f 85/85/85 87/87/87 86/86/86
f 85/85/85 88/88/88 87/87/87
f 89/89/89 91/91/91 90/90/90
f 89/89/89 92/92/92 91/91/91
f 93/93/93 95/95/95 94/94/94
f 93/93/93 96/96/96 95/95/95
f 97/97/97 99/99/99 98/98/98
f 97/97/97 100/100/100 99/99/99
f 101/101/101 103/103/103 102/102/102
f 101/101/101 104/104/104 103/103/103
f 105/105/105 107/107/107 106/106/106
f 105/105/105 108/108/108 107/107/107
f 109/109/109 111/111/111 110/110/110
f 109/109/109 112/112/112 111/111/111
f 113/113/113 115/115/115 114/114/114
f 113/113/113 116/116/116 115/115/115
f 117/117/117 119/119/119 118/118/118
f 117/117/117 120/120/120 119/119/119
f 121/121/121 123/123/123 122/122/122
f 121/121/121 124/124/124 123/123/123
f 125/125/125 127/127/127 126/126/126
f 125/125/125 128/128/128 127/127/127
f 129/129/129 131/131/131 130/130/130
f 129/129/129 132/132/132 131/131/131
f 133/133/133 135/135/135 134/134/134
f 133/133/133 136/136/136 135/135/135
f 137/137/137 139/139/139 138/138/138
f 137/137/137 140/140/140 139/139/139
f 141/141/141 143/143/143 142/142/142
f 141/141/141 144/144/144 143/143/143
f 145/145/145 147/147/147 146/146/146
f 145/145/145 148/148/148 147/147/147
f 149/149/149 151/151/151 150/150/150
f 149/149/149 152/152/152 151/151/151
f 153/153/153 155/155/155 154/154/154
f 153/153/153 156/156/156 155/155/155
f 157/157/157 159/159/159 158/158/158
f 157/157/157 160/160/160 159/159/159
f 161/161/161 163/163/163 162/162/162
f 161/161/161 164/164/164 163/163/163
f 165/165/165 167/167/167 166/166/166
f 165/165/165 168/168/168 167/167/167
f 169/169/169 171/171/171 170/170/170
f 169/169/169 172/172/172 171/171/171
f 173/173/173 175/175/175 174/174/174
f 173/173/173 176/176/176 175/175/175
f 177/177/177 179/179/179 178/178/178
f 177/177/177 180/180/180 179/179/179
f 181/181/181 183/183/183 182/182/182
f 181/181/181 184/184/184 183/183/183
f 185/185/185 187/187/187 186/186/186
f 185/185/185 188/188/188 187/187/187
f 189/189/189 191/191/191 190/190/190
f 189/189/189 192/192/192 191/191/191
f 193/193/193 195/195/195 194/194/194
f 193/193/193 196/196/196 195/195/195
f 197/197/197 199/199/199 198/198/198
f 197/197/197 200/200/200 199/199/199
