#Env_Dirt_Plough_(3)_1840_22.obj

v 10 0.2942034 -7.01028
v 10 0 -5.999997
v 0 0 -5.999997
v 0 0.2942034 -7.01028
v 10 0.2942034 -9.030829
v 10 0.1424541 -8.020562
v 0 0.1424541 -8.020562
v 0 0.2942034 -9.030829
v 10 0 -10
v 10 0.2942034 -9.030829
v 0 0.2942034 -9.030829
v 0 0 -10
v 10 0.1424541 -8.020562
v 10 0.2942034 -7.01028
v 0 0.2942034 -7.01028
v 0 0.1424541 -8.020562
v 0 0.1424541 -8.020562
v 0 0.2942034 -7.01028
v 0 0 -5.999997
v 0 0 -10
v 0 0.2942034 -9.030829
v 10 0.1424541 -8.020562
v 10 0.2942034 -9.030829
v 10 0 -10
v 10 0 -5.999997
v 10 0.2942034 -7.01028
v 10 0.2942034 -1.010283
v 10 0 0
v 0 0 0
v 0 0.2942034 -1.010283
v 10 0.2942034 -3.030832
v 10 0.1424541 -2.02055
v 0 0.1424541 -2.02055
v 0 0.2942034 -3.030832
v 10 0 -4.041115
v 10 0.2942034 -3.030832
v 0 0.2942034 -3.030832
v 0 0 -4.041115
v 10 0.1424541 -2.02055
v 10 0.2942034 -1.010283
v 0 0.2942034 -1.010283
v 0 0.1424541 -2.02055
v 0 0.1424541 -2.02055
v 0 0.2942034 -1.010283
v 0 0 0
v 0 0 -4.041115
v 0 0.2942034 -3.030832
v 10 0.1424541 -2.02055
v 10 0.2942034 -3.030832
v 10 0 -4.041115
v 10 0 0
v 10 0.2942034 -1.010283
v 10 0.2942034 -5.030826
v 10 0 -3.929971
v 0 -7.853754E-09 -3.929971
v 0 0.2942034 -5.030826
v 10 0 -6.120663
v 10 0.2942034 -5.030826
v 0 0.2942034 -5.030826
v 0 0 -6.120663
v 0 0.2942034 -5.030826
v 0 -7.853754E-09 -3.929971
v 0 0 -6.120663
v 10 0 -3.929971
v 10 0.2942034 -5.030826
v 10 0 -6.120663

vn 0 0.997524 0.07032792
vn 0 0.9601176 0.2795963
vn 0 0.9601176 0.2795963
vn 0 0.997524 0.07032792
vn 0 0.9974204 -0.07178102
vn 0 1 0
vn 0 1 0
vn 0 0.9974204 -0.07178102
vn 0 0.9568828 -0.2904741
vn 0 0.9974204 -0.07178102
vn 0 0.9974204 -0.07178102
vn 0 0.9568828 -0.2904741
vn 0 1 0
vn 0 0.997524 0.07032792
vn 0 0.997524 0.07032792
vn 0 1 0
vn -1 0 0
vn -1 0 0
vn -1 0 0
vn -1 0 0
vn -1 0 0
vn 1 0 0
vn 1 0 0
vn 1 0 0
vn 1 0 0
vn 1 0 0
vn 0 0.997524 0.07032792
vn 0 0.9601176 0.2795963
vn 0 0.9601176 0.2795963
vn 0 0.997524 0.07032792
vn 0 0.997524 -0.0703279
vn 0 1 0
vn 0 1 0
vn 0 0.997524 -0.0703279
vn 0 0.9601176 -0.2795964
vn 0 0.997524 -0.0703279
vn 0 0.997524 -0.0703279
vn 0 0.9601176 -0.2795964
vn 0 1 0
vn 0 0.997524 0.07032792
vn 0 0.997524 0.07032792
vn 0 1 0
vn -1 0 0
vn -1 0 0
vn -1 0 0
vn -1 0 0
vn -1 0 0
vn 1 0 0
vn 1 0 0
vn 1 0 0
vn 1 0 0
vn 1 0 0
vn 0 1 0
vn 0 0.9660947 0.2581877
vn 0 0.9660947 0.2581877
vn 0 1 0
vn 0 0.9654403 -0.260624
vn 0 1 0
vn 0 1 0
vn 0 0.9654403 -0.260624
vn -1 0 0
vn -1 0 0
vn -1 0 0
vn 1 0 0
vn 1 0 0
vn 1 0 0

vt 0.1347656 0.3937988
vt 0.1347656 0.3937988
vt 0.1347656 0.3937988
vt 0.1347656 0.3937988
vt 0.1347656 0.3937988
vt 0.1347656 0.3937988
vt 0.1347656 0.3937988
vt 0.1347656 0.3937988
vt 0.2001953 0.392334
vt 0.2001953 0.392334
vt 0.2001953 0.392334
vt 0.2001953 0.392334
vt 0.2001953 0.392334
vt 0.2001953 0.392334
vt 0.2001953 0.392334
vt 0.2001953 0.392334
vt 0.1134644 0.392334
vt 0.1134644 0.392334
vt 0.1134644 0.392334
vt 0.1134644 0.392334
vt 0.1134644 0.392334
vt 0.1134644 0.392334
vt 0.1134644 0.392334
vt 0.1134644 0.392334
vt 0.1134644 0.392334
vt 0.1134644 0.392334
vt 0.1347656 0.3937988
vt 0.1347656 0.3937988
vt 0.1347656 0.3937988
vt 0.1347656 0.3937988
vt 0.1347656 0.3937988
vt 0.1347656 0.3937988
vt 0.1347656 0.3937988
vt 0.1347656 0.3937988
vt 0.2001953 0.392334
vt 0.2001953 0.392334
vt 0.2001953 0.392334
vt 0.2001953 0.392334
vt 0.2001953 0.392334
vt 0.2001953 0.392334
vt 0.2001953 0.392334
vt 0.2001953 0.392334
vt 0.1134644 0.392334
vt 0.1134644 0.392334
vt 0.1134644 0.392334
vt 0.1134644 0.392334
vt 0.1134644 0.392334
vt 0.1134644 0.392334
vt 0.1134644 0.392334
vt 0.1134644 0.392334
vt 0.1134644 0.392334
vt 0.1134644 0.392334
vt 0.1347656 0.3937988
vt 0.1347656 0.3937988
vt 0.1347656 0.3937988
vt 0.1347656 0.3937988
vt 0.2001953 0.392334
vt 0.2001953 0.392334
vt 0.2001953 0.392334
vt 0.2001953 0.392334
vt 0.1134644 0.392334
vt 0.1134644 0.392334
vt 0.1134644 0.392334
vt 0.1134644 0.392334
vt 0.1134644 0.392334
vt 0.1134644 0.392334

g Env_Dirt_Plough_(3)_1840_22
usemtl Env_Dirt_Plough_(3)_1840_22
usemap Env_Dirt_Plough_(3)_1840_22
f 1/1/1 3/3/3 2/2/2
f 1/1/1 4/4/4 3/3/3
f 5/5/5 7/7/7 6/6/6
f 5/5/5 8/8/8 7/7/7
f 9/9/9 11/11/11 10/10/10
f 9/9/9 12/12/12 11/11/11
f 13/13/13 15/15/15 14/14/14
f 13/13/13 16/16/16 15/15/15
f 17/17/17 19/19/19 18/18/18
f 17/17/17 20/20/20 19/19/19
f 21/21/21 20/20/20 17/17/17
f 22/22/22 24/24/24 23/23/23
f 22/22/22 25/25/25 24/24/24
f 26/26/26 25/25/25 22/22/22
f 27/27/27 29/29/29 28/28/28
f 27/27/27 30/30/30 29/29/29
f 31/31/31 33/33/33 32/32/32
f 31/31/31 34/34/34 33/33/33
f 35/35/35 37/37/37 36/36/36
f 35/35/35 38/38/38 37/37/37
f 39/39/39 41/41/41 40/40/40
f 39/39/39 42/42/42 41/41/41
f 43/43/43 45/45/45 44/44/44
f 43/43/43 46/46/46 45/45/45
f 47/47/47 46/46/46 43/43/43
f 48/48/48 50/50/50 49/49/49
f 48/48/48 51/51/51 50/50/50
f 52/52/52 51/51/51 48/48/48
f 53/53/53 55/55/55 54/54/54
f 53/53/53 56/56/56 55/55/55
f 57/57/57 59/59/59 58/58/58
f 57/57/57 60/60/60 59/59/59
f 61/61/61 63/63/63 62/62/62
f 64/64/64 66/66/66 65/65/65
