#Env_Beach_Straight_4012_194.obj

v -1.271566E-06 0 -1.000008
v 6.000818 0 -1.000008
v 6.000818 0 -3.178914E-06
v -1.271566E-06 0 -3.178914E-06
v 13.73914 0 -3.178914E-06
v 13.73914 0 -1.000003
v 19.99995 0 -3.178914E-06
v 19.99995 0 -1.000003
v -1.271566E-06 -2.999999 -18.80605
v 6.000818 -2.999999 -18.80605
v 6.000818 -2.572312 -16.69765
v -1.271566E-06 -2.572312 -16.69765
v 13.73914 -2.342846 -15.56952
v 13.73914 -2.999999 -17.67792
v 19.99995 -2.572312 -16.69765
v 19.99995 -2.999999 -18.80605
v 6.000818 -2.999999 -20
v 6.000818 -2.999999 -18.80605
v -1.271566E-06 -2.999999 -18.80605
v -1.271566E-06 -2.999999 -20
v 13.73914 -2.999999 -20
v 13.73914 -2.999999 -17.67792
v 19.99995 -2.999999 -20
v 19.99995 -2.999999 -18.80605
v -1.271566E-06 -6.357829E-07 -4.024199
v 6.000818 -6.357829E-07 -4.024199
v 6.000818 0 -1.101286
v -1.271566E-06 0 -1.101286
v 13.73914 0 -1.101286
v 13.73914 0 -4.024199
v 19.99995 0 -1.101286
v 19.99995 0 -4.024199
v -1.271566E-06 -2.572312 -16.69765
v 6.000818 -2.572312 -16.69765
v 6.000818 -0.05425326 -4.29493
v -1.271566E-06 -0.05425389 -4.29493
v 13.73914 -0.05425326 -4.29493
v 13.73914 -2.342846 -15.56952
v 19.99995 -0.05425326 -4.29493
v 19.99995 -2.572312 -16.69765
v -1.271566E-06 -0.05425389 -4.29493
v 6.000818 -0.05425326 -4.29493
v 6.000818 -6.357829E-07 -4.024199
v -1.271566E-06 -6.357829E-07 -4.024199
v 13.73914 0 -4.024199
v 13.73914 -0.05425326 -4.29493
v 19.99995 0 -4.024199
v 19.99995 -0.05425326 -4.29493
v -1.271566E-06 0 -1.101286
v 6.000818 0 -1.101286
v 6.000818 0 -1.000008
v -1.271566E-06 0 -1.000008
v 13.73914 0 -1.000003
v 13.73914 0 -1.101286
v 19.99995 0 -1.000003
v 19.99995 0 -1.101286

vn 0 1 0
vn 0 1 0
vn 0 1 0
vn 0 1 0
vn 0 1 0
vn 0 1 0
vn 0 1 0
vn 0 1 0
vn 0 0.9800402 -0.1987996
vn 0.01098346 0.9745194 -0.2240343
vn 0.005484084 0.9773596 -0.2115138
vn 0 0.9800234 -0.1988826
vn -0.001293564 0.9745604 -0.2241208
vn -0.002590016 0.968461 -0.2491516
vn -0.01355656 0.9744719 -0.2240996
vn -0.02713674 0.9681076 -0.2490606
vn 0 1 0
vn 0 1 0
vn 0 1 0
vn 0 1 0
vn 0 1 0
vn 0 1 0
vn 0 1 0
vn 0 1 0
vn 0 1 0
vn 0 1 0
vn 0 1 0
vn 0 1 0
vn 0 1 0
vn 0 1 0
vn 0 1 0
vn 0 1 0
vn 0 0.9800234 -0.1988826
vn 0.005484084 0.9773596 -0.2115138
vn 0 0.980258 -0.1977225
vn 0 0.9802571 -0.1977268
vn 0 0.9802589 -0.1977184
vn -0.001293564 0.9745604 -0.2241208
vn 1.755242E-05 0.9802588 -0.1977185
vn -0.01355656 0.9744719 -0.2240996
vn 0 0.9802571 -0.1977268
vn 0 0.980258 -0.1977225
vn 0 0.9805063 -0.1964877
vn 0 0.9805063 -0.1964877
vn 0 0.9805062 -0.1964879
vn 0 0.9802589 -0.1977184
vn 0 0.9805062 -0.1964881
vn 1.755242E-05 0.9802588 -0.1977185
vn 0 1 0
vn 0 1 0
vn 0 1 0
vn 0 1 0
vn 0 1 0
vn 0 1 0
vn 0 1 0
vn 0 1 0

vt 0.3864746 0.06488037
vt 0.3864746 0.06488037
vt 0.3864746 0.06488037
vt 0.3864746 0.06488037
vt 0.3864746 0.06488037
vt 0.3864746 0.06488037
vt 0.3864746 0.06488037
vt 0.3864746 0.06488037
vt 0.04699707 0.621582
vt 0.04699707 0.621582
vt 0.04699707 0.621582
vt 0.04699707 0.621582
vt 0.04699707 0.621582
vt 0.04699707 0.621582
vt 0.04699707 0.621582
vt 0.04699707 0.621582
vt 0.3942871 0.3291016
vt 0.3942871 0.3291016
vt 0.3942871 0.3291016
vt 0.3942871 0.3291016
vt 0.3942871 0.3291016
vt 0.3942871 0.3291016
vt 0.3942871 0.3291016
vt 0.3942871 0.3291016
vt 0.2922363 0.4208984
vt 0.2922363 0.4208984
vt 0.2922363 0.4208984
vt 0.2922363 0.4208984
vt 0.2922363 0.4208984
vt 0.2922363 0.4208984
vt 0.2922363 0.4208984
vt 0.2922363 0.4208984
vt 0.01870728 0.621582
vt 0.01870728 0.621582
vt 0.01870728 0.621582
vt 0.01870728 0.621582
vt 0.01870728 0.621582
vt 0.01870728 0.621582
vt 0.01870728 0.621582
vt 0.01870728 0.621582
vt 0.4448242 0.3977051
vt 0.4448242 0.3977051
vt 0.4448242 0.3977051
vt 0.4448242 0.3977051
vt 0.4448242 0.3977051
vt 0.4448242 0.3977051
vt 0.4448242 0.3977051
vt 0.4448242 0.3977051
vt 0.3417969 0.06115723
vt 0.3417969 0.06115723
vt 0.3417969 0.06115723
vt 0.3417969 0.06115723
vt 0.3417969 0.06115723
vt 0.3417969 0.06115723
vt 0.3417969 0.06115723
vt 0.3417969 0.06115723

g Env_Beach_Straight_4012_194
usemtl Env_Beach_Straight_4012_194
usemap Env_Beach_Straight_4012_194
f 1/1/1 3/3/3 2/2/2
f 1/1/1 4/4/4 3/3/3
f 2/2/2 3/3/3 5/5/5
f 2/2/2 5/5/5 6/6/6
f 6/6/6 5/5/5 7/7/7
f 6/6/6 7/7/7 8/8/8
f 9/9/9 11/11/11 10/10/10
f 9/9/9 12/12/12 11/11/11
f 10/10/10 11/11/11 13/13/13
f 10/10/10 13/13/13 14/14/14
f 14/14/14 13/13/13 15/15/15
f 14/14/14 15/15/15 16/16/16
f 17/17/17 19/19/19 18/18/18
f 17/17/17 20/20/20 19/19/19
f 21/21/21 17/17/17 18/18/18
f 21/21/21 18/18/18 22/22/22
f 23/23/23 21/21/21 22/22/22
f 23/23/23 22/22/22 24/24/24
f 25/25/25 27/27/27 26/26/26
f 25/25/25 28/28/28 27/27/27
f 26/26/26 27/27/27 29/29/29
f 26/26/26 29/29/29 30/30/30
f 30/30/30 29/29/29 31/31/31
f 30/30/30 31/31/31 32/32/32
f 33/33/33 35/35/35 34/34/34
f 33/33/33 36/36/36 35/35/35
f 34/34/34 35/35/35 37/37/37
f 34/34/34 37/37/37 38/38/38
f 38/38/38 37/37/37 39/39/39
f 38/38/38 39/39/39 40/40/40
f 41/41/41 43/43/43 42/42/42
f 41/41/41 44/44/44 43/43/43
f 42/42/42 43/43/43 45/45/45
f 42/42/42 45/45/45 46/46/46
f 46/46/46 45/45/45 47/47/47
f 46/46/46 47/47/47 48/48/48
f 49/49/49 51/51/51 50/50/50
f 49/49/49 52/52/52 51/51/51
f 50/50/50 51/51/51 53/53/53
f 50/50/50 53/53/53 54/54/54
f 54/54/54 53/53/53 55/55/55
f 54/54/54 55/55/55 56/56/56
