#Floor_Wood_1086_80.obj

v -2.5 0 -2.410749
v 2.5 0 -2.410751
v 2.5 0 -1.875
v -2.5 0 -1.875
v -2.5 0 0.08924866
v 2.5 0 0.08924866
v 2.5 0 0.625
v -2.5 0 0.625
v -2.5 0 1.339249
v 2.5 0 1.339251
v 2.5 0 1.875002
v -2.5 0 1.875
v -2.5 0 -1.160751
v 2.5 0 -1.160751
v 2.5 0 -0.625
v -2.5 0 -0.625
v -2.5 0 -1.785749
v 2.5 0 -1.785751
v 2.5 0 -1.25
v -2.5 0 -1.25
v -2.5 0 -0.5357513
v 2.5 0 -0.5357513
v 2.5 0 0
v -2.5 0 0
v -2.5 0 0.7142487
v 2.5 0 0.7142506
v 2.5 0 1.249998
v -2.5 0 1.25
v -2.5 0 1.964249
v 2.5 0 1.96425
v 2.5 0 2.500001
v -2.5 0 2.5
v 2.5 0 -2.5
v 2.5 0 -2.410751
v -2.5 0 -2.410749
v -2.5 0 -2.5
v -2.5 0 -1.875
v 2.5 0 -1.875
v 2.5 0 -1.785751
v -2.5 0 -1.785749
v -2.5 0 -1.25
v 2.5 0 -1.25
v 2.5 0 -1.160751
v -2.5 0 -1.160751
v -2.5 0 -0.625
v 2.5 0 -0.625
v 2.5 0 -0.5357513
v -2.5 0 -0.5357513
v -2.5 0 0
v 2.5 0 0
v 2.5 0 0.08924866
v -2.5 0 0.08924866
v -2.5 0 0.625
v 2.5 0 0.625
v 2.5 0 0.7142506
v -2.5 0 0.7142487
v -2.5 0 1.25
v 2.5 0 1.249998
v 2.5 0 1.339251
v -2.5 0 1.339249
v -2.5 0 1.875
v 2.5 0 1.875002
v 2.5 0 1.96425
v -2.5 0 1.964249

vn 0 1 0
vn 0 1 0
vn 0 1 0
vn 0 1 0
vn 0 1 0
vn 0 1 0
vn 0 1 0
vn 0 1 0
vn 0 1 0
vn 0 1 0
vn 0 1 0
vn 0 1 0
vn 0 1 0
vn 0 1 0
vn 0 1 0
vn 0 1 0
vn 0 1 0
vn 0 1 0
vn 0 1 0
vn 0 1 0
vn 0 1 0
vn 0 1 0
vn 0 1 0
vn 0 1 0
vn 0 1 0
vn 0 1 0
vn 0 1 0
vn 0 1 0
vn 0 1 0
vn 0 1 0
vn 0 1 0
vn 0 1 0
vn 0 1 0
vn 0 1 0
vn 0 1 0
vn 0 1 0
vn 0 1 0
vn 0 1 0
vn 0 1 0
vn 0 1 0
vn 0 1 0
vn 0 1 0
vn 0 1 0
vn 0 1 0
vn 0 1 0
vn 0 1 0
vn 0 1 0
vn 0 1 0
vn 0 1 0
vn 0 1 0
vn 0 1 0
vn 0 1 0
vn 0 1 0
vn 0 1 0
vn 0 1 0
vn 0 1 0
vn 0 1 0
vn 0 1 0
vn 0 1 0
vn 0 1 0
vn 0 1 0
vn 0 1 0
vn 0 1 0
vn 0 1 0

vt 0.4204102 0.3996582
vt 0.4204102 0.3996582
vt 0.4204102 0.3996582
vt 0.4204102 0.3996582
vt 0.4204102 0.3996582
vt 0.4204102 0.3996582
vt 0.4204102 0.3996582
vt 0.4204102 0.3996582
vt 0.4204102 0.3996582
vt 0.4204102 0.3996582
vt 0.4204102 0.3996582
vt 0.4204102 0.3996582
vt 0.4204102 0.3996582
vt 0.4204102 0.3996582
vt 0.4204102 0.3996582
vt 0.4204102 0.3996582
vt 0.4204102 0.3996582
vt 0.4204102 0.3996582
vt 0.4204102 0.3996582
vt 0.4204102 0.3996582
vt 0.4204102 0.3996582
vt 0.4204102 0.3996582
vt 0.4204102 0.3996582
vt 0.4204102 0.3996582
vt 0.4204102 0.3996582
vt 0.4204102 0.3996582
vt 0.4204102 0.3996582
vt 0.4204102 0.3996582
vt 0.4204102 0.3996582
vt 0.4204102 0.3996582
vt 0.4204102 0.3996582
vt 0.4204102 0.3996582
vt 0.2666016 0.3964844
vt 0.2666016 0.3964844
vt 0.2666016 0.3964844
vt 0.2666016 0.3964844
vt 0.2666016 0.3964844
vt 0.2666016 0.3964844
vt 0.2666016 0.3964844
vt 0.2666016 0.3964844
vt 0.2666016 0.3964844
vt 0.2666016 0.3964844
vt 0.2666016 0.3964844
vt 0.2666016 0.3964844
vt 0.2666016 0.3964844
vt 0.2666016 0.3964844
vt 0.2666016 0.3964844
vt 0.2666016 0.3964844
vt 0.2666016 0.3964844
vt 0.2666016 0.3964844
vt 0.2666016 0.3964844
vt 0.2666016 0.3964844
vt 0.2666016 0.3964844
vt 0.2666016 0.3964844
vt 0.2666016 0.3964844
vt 0.2666016 0.3964844
vt 0.2666016 0.3964844
vt 0.2666016 0.3964844
vt 0.2666016 0.3964844
vt 0.2666016 0.3964844
vt 0.2666016 0.3964844
vt 0.2666016 0.3964844
vt 0.2666016 0.3964844
vt 0.2666016 0.3964844

g Floor_Wood_1086_80
usemtl Floor_Wood_1086_80
usemap Floor_Wood_1086_80
f 1/1/1 3/3/3 2/2/2
f 1/1/1 4/4/4 3/3/3
f 5/5/5 7/7/7 6/6/6
f 5/5/5 8/8/8 7/7/7
f 9/9/9 11/11/11 10/10/10
f 9/9/9 12/12/12 11/11/11
f 13/13/13 15/15/15 14/14/14
f 13/13/13 16/16/16 15/15/15
f 17/17/17 19/19/19 18/18/18
f 17/17/17 20/20/20 19/19/19
f 21/21/21 23/23/23 22/22/22
f 21/21/21 24/24/24 23/23/23
f 25/25/25 27/27/27 26/26/26
f 25/25/25 28/28/28 27/27/27
f 29/29/29 31/31/31 30/30/30
f 29/29/29 32/32/32 31/31/31
f 33/33/33 35/35/35 34/34/34
f 33/33/33 36/36/36 35/35/35
f 37/37/37 39/39/39 38/38/38
f 37/37/37 40/40/40 39/39/39
f 41/41/41 43/43/43 42/42/42
f 41/41/41 44/44/44 43/43/43
f 45/45/45 47/47/47 46/46/46
f 45/45/45 48/48/48 47/47/47
f 49/49/49 51/51/51 50/50/50
f 49/49/49 52/52/52 51/51/51
f 53/53/53 55/55/55 54/54/54
f 53/53/53 56/56/56 55/55/55
f 57/57/57 59/59/59 58/58/58
f 57/57/57 60/60/60 59/59/59
f 61/61/61 63/63/63 62/62/62
f 61/61/61 64/64/64 63/63/63
