#Floor_Carpet_Tiles_1043_24.obj

v -1.875001 1.862645E-10 -2.500001
v -1.875001 1.862645E-10 -1.875001
v -2.500001 1.862645E-10 -1.875001
v -2.500001 1.862645E-10 -2.500001
v -1.250001 1.862645E-10 -1.875001
v -1.250001 1.862645E-10 -1.250001
v -1.875001 1.862645E-10 -1.250001
v -0.6250011 1.862645E-10 -2.500001
v -0.6250006 1.862645E-10 -1.875001
v -1.250001 1.862645E-10 -2.500001
v -0.6250005 1.862645E-10 -1.250001
v -0.6250005 1.862645E-10 -0.625001
v -1.25 1.862645E-10 -0.625001
v -4.768372E-07 1.862645E-10 -1.250001
v -5.51343E-07 1.862645E-10 -1.875001
v 0.6249992 1.862645E-10 -2.500001
v 0.6249992 1.862645E-10 -1.875001
v -8.642673E-07 1.862645E-10 -2.500001
v 0.6249996 1.862645E-10 -1.250001
v 0.6249996 1.862645E-10 -0.625001
v -4.023314E-07 1.862645E-10 -0.625001
v 1.249999 1.862645E-10 -1.250001
v 1.249999 1.862645E-10 -1.875001
v -3.278255E-07 1.862645E-10 -9.536743E-07
v -0.6250004 1.862645E-10 -9.536743E-07
v 1.874999 1.862645E-10 -2.500001
v 1.875 1.862645E-10 -1.875001
v 1.249999 1.862645E-10 -2.500001
v 0.6249997 1.862645E-10 -9.536743E-07
v 0.6249998 1.862645E-10 0.624999
v -2.533197E-07 1.862645E-10 0.624999
v 1.25 1.862645E-10 -9.536743E-07
v 1.25 1.862645E-10 -0.625001
v 1.875 1.862645E-10 -0.625001
v 1.875 1.862645E-10 -1.250001
v 2.5 1.862645E-10 -1.250001
v 2.5 1.862645E-10 -1.875002
v 1.875 1.862645E-10 -9.536743E-07
v 1.875 1.862645E-10 0.624999
v 1.25 1.862645E-10 0.624999
v 2.5 1.862645E-10 -9.536743E-07
v 2.5 1.862645E-10 -0.625001
v 1.25 1.862645E-10 1.249999
v 0.6249999 1.862645E-10 1.249999
v 1.875 1.862645E-10 1.249999
v 1.875 1.862645E-10 1.874999
v 1.25 1.862645E-10 1.874999
v 2.5 1.862645E-10 1.249999
v 2.5 1.862645E-10 0.624999
v -1.788139E-07 1.862645E-10 1.249999
v 0.6249999 1.862645E-10 1.874999
v -1.043081E-07 1.862645E-10 1.874999
v 1.25 1.862645E-10 2.499999
v 0.625 1.862645E-10 2.499999
v -0.6250003 1.862645E-10 0.624999
v -0.6250002 1.862645E-10 1.249999
v -1.25 1.862645E-10 -9.536743E-07
v -1.25 1.862645E-10 0.624999
v -1.25 1.862645E-10 1.249999
v -0.6250001 1.862645E-10 1.874999
v -1.25 1.862645E-10 1.874999
v -1.875 1.862645E-10 0.624999
v -1.875 1.862645E-10 1.249999
v -2.980232E-08 1.862645E-10 2.499999
v -0.6250001 1.862645E-10 2.499999
v -2.5 1.862645E-10 -9.536743E-07
v -1.875 1.862645E-10 -9.536743E-07
v -2.5 1.862645E-10 0.624999
v -1.875 1.862645E-10 -0.625001
v -2.5 1.862645E-10 1.249999
v -1.875 1.862645E-10 1.874999
v -2.5 1.862645E-10 1.875
v -1.25 1.862645E-10 2.499999
v -1.875 1.862645E-10 2.499999
v -2.500001 1.862645E-10 -1.250001
v -2.5 1.862645E-10 -0.625001
v -1.250001 1.862645E-10 -2.500001
v -1.250001 1.862645E-10 -1.875001
v -1.875001 1.862645E-10 -1.875001
v -1.875001 1.862645E-10 -2.500001
v -0.6250006 1.862645E-10 -1.875001
v -0.6250005 1.862645E-10 -1.250001
v -1.250001 1.862645E-10 -1.250001
v -8.642673E-07 1.862645E-10 -2.500001
v -5.51343E-07 1.862645E-10 -1.875001
v -0.6250011 1.862645E-10 -2.500001
v -4.768372E-07 1.862645E-10 -1.250001
v -4.023314E-07 1.862645E-10 -0.625001
v -0.6250005 1.862645E-10 -0.625001
v 0.6249996 1.862645E-10 -1.250001
v 0.6249992 1.862645E-10 -1.875001
v 1.249999 1.862645E-10 -2.500001
v 1.249999 1.862645E-10 -1.875001
v 0.6249992 1.862645E-10 -2.500001
v 1.249999 1.862645E-10 -1.250001
v 1.25 1.862645E-10 -0.625001
v 0.6249996 1.862645E-10 -0.625001
v 1.875 1.862645E-10 -1.250001
v 1.875 1.862645E-10 -1.875001
v 0.6249997 1.862645E-10 -9.536743E-07
v -3.278255E-07 1.862645E-10 -9.536743E-07
v 2.499999 1.862645E-10 -2.500002
v 2.5 1.862645E-10 -1.875002
v 1.874999 1.862645E-10 -2.500001
v 1.25 1.862645E-10 -9.536743E-07
v 1.25 1.862645E-10 0.624999
v 0.6249998 1.862645E-10 0.624999
v 1.875 1.862645E-10 -9.536743E-07
v 1.875 1.862645E-10 -0.625001
v 2.5 1.862645E-10 -0.625001
v 2.5 1.862645E-10 -1.250001
v 2.5 1.862645E-10 -9.536743E-07
v 2.5 1.862645E-10 0.624999
v 1.875 1.862645E-10 0.624999
v 1.875 1.862645E-10 1.249999
v 1.25 1.862645E-10 1.249999
v -0.6250004 1.862645E-10 -9.536743E-07
v -2.533197E-07 1.862645E-10 0.624999
v -0.6250003 1.862645E-10 0.624999
v 0.6249999 1.862645E-10 1.249999
v 1.25 1.862645E-10 1.874999
v 0.6249999 1.862645E-10 1.874999
v -1.788139E-07 1.862645E-10 1.249999
v 2.5 1.862645E-10 1.249999
v 2.5 1.862645E-10 1.874999
v 1.875 1.862645E-10 1.874999
v 1.875 1.862645E-10 2.499999
v 1.25 1.862645E-10 2.499999
v -0.6250002 1.862645E-10 1.249999
v -1.043081E-07 1.862645E-10 1.874999
v -0.6250001 1.862645E-10 1.874999
v -1.25 1.862645E-10 0.624999
v -1.25 1.862645E-10 1.249999
v 0.625 1.862645E-10 2.499999
v -2.980232E-08 1.862645E-10 2.499999
v -1.875 1.862645E-10 -9.536743E-07
v -1.25 1.862645E-10 -9.536743E-07
v -1.875 1.862645E-10 0.624999
v -1.875 1.862645E-10 1.249999
v -1.25 1.862645E-10 1.874999
v -1.875 1.862645E-10 1.874999
v -2.5 1.862645E-10 0.624999
v -2.5 1.862645E-10 1.249999
v -0.6250001 1.862645E-10 2.499999
v -1.25 1.862645E-10 2.499999
v -1.25 1.862645E-10 -0.625001
v -1.875001 1.862645E-10 -1.250001
v -1.875 1.862645E-10 -0.625001
v -2.5 1.862645E-10 -0.625001
v -2.5 1.862645E-10 -9.536743E-07
v -2.500001 1.862645E-10 -1.875001
v -2.500001 1.862645E-10 -1.250001
v 2.5 1.862645E-10 1.874999
v 2.5 1.862645E-10 2.499999
v 1.875 1.862645E-10 2.499999
v -2.5 1.862645E-10 1.875
v -1.875 1.862645E-10 2.499999
v -2.5 1.862645E-10 2.5

vn 0 0.9999999 0
vn 0 0.9999999 0
vn 0 0.9999999 0
vn 0 0.9999999 0
vn 0 0.9999999 0
vn 0 0.9999999 0
vn 0 0.9999999 0
vn 0 0.9999999 0
vn 0 0.9999999 0
vn 0 0.9999999 0
vn 0 0.9999999 0
vn 0 0.9999999 0
vn 0 0.9999999 0
vn 0 0.9999999 0
vn 0 0.9999999 0
vn 0 0.9999999 0
vn 0 0.9999999 0
vn 0 0.9999999 0
vn 0 0.9999999 0
vn 0 0.9999999 0
vn 0 0.9999999 0
vn 0 0.9999999 0
vn 0 0.9999999 0
vn 0 0.9999999 0
vn 0 0.9999999 0
vn 0 0.9999999 0
vn 0 0.9999999 0
vn 0 0.9999999 0
vn 0 0.9999999 0
vn 0 0.9999999 0
vn 0 0.9999999 0
vn 0 0.9999999 0
vn 0 0.9999999 0
vn 0 0.9999999 0
vn 0 0.9999999 0
vn 0 0.9999999 0
vn 0 0.9999999 0
vn 0 0.9999999 0
vn 0 0.9999999 0
vn 0 0.9999999 0
vn 0 0.9999999 0
vn 0 0.9999999 0
vn 0 0.9999999 0
vn 0 0.9999999 0
vn 0 0.9999999 0
vn 0 0.9999999 0
vn 0 0.9999999 0
vn 0 0.9999999 0
vn 0 0.9999999 0
vn 0 0.9999999 0
vn 0 0.9999999 0
vn 0 0.9999999 0
vn 0 0.9999999 0
vn 0 0.9999999 0
vn 0 0.9999999 0
vn 0 0.9999999 0
vn 0 0.9999999 0
vn 0 0.9999999 0
vn 0 0.9999999 0
vn 0 0.9999999 0
vn 0 0.9999999 0
vn 0 0.9999999 0
vn 0 0.9999999 0
vn 0 0.9999999 0
vn 0 0.9999999 0
vn 0 0.9999999 0
vn 0 0.9999999 0
vn 0 0.9999999 0
vn 0 0.9999999 0
vn 0 0.9999999 0
vn 0 0.9999999 0
vn 0 0.9999999 0
vn 0 0.9999999 0
vn 0 0.9999999 0
vn 0 0.9999999 0
vn 0 0.9999999 0
vn 0 0.9999999 0
vn 0 0.9999999 0
vn 0 0.9999999 0
vn 0 0.9999999 0
vn 0 0.9999999 0
vn 0 0.9999999 0
vn 0 0.9999999 0
vn 0 0.9999999 0
vn 0 0.9999999 0
vn 0 0.9999999 0
vn 0 0.9999999 0
vn 0 0.9999999 0
vn 0 0.9999999 0
vn 0 0.9999999 0
vn 0 0.9999999 0
vn 0 0.9999999 0
vn 0 0.9999999 0
vn 0 0.9999999 0
vn 0 0.9999999 0
vn 0 0.9999999 0
vn 0 0.9999999 0
vn 0 0.9999999 0
vn 0 0.9999999 0
vn 0 0.9999999 0
vn 0 0.9999999 0
vn 0 0.9999999 0
vn 0 0.9999999 0
vn 0 0.9999999 0
vn 0 0.9999999 0
vn 0 0.9999999 0
vn 0 0.9999999 0
vn 0 0.9999999 0
vn 0 0.9999999 0
vn 0 0.9999999 0
vn 0 0.9999999 0
vn 0 0.9999999 0
vn 0 0.9999999 0
vn 0 0.9999999 0
vn 0 0.9999999 0
vn 0 0.9999999 0
vn 0 0.9999999 0
vn 0 0.9999999 0
vn 0 0.9999999 0
vn 0 0.9999999 0
vn 0 0.9999999 0
vn 0 0.9999999 0
vn 0 0.9999999 0
vn 0 0.9999999 0
vn 0 0.9999999 0
vn 0 0.9999999 0
vn 0 0.9999999 0
vn 0 0.9999999 0
vn 0 0.9999999 0
vn 0 0.9999999 0
vn 0 0.9999999 0
vn 0 0.9999999 0
vn 0 0.9999999 0
vn 0 0.9999999 0
vn 0 0.9999999 0
vn 0 0.9999999 0
vn 0 0.9999999 0
vn 0 0.9999999 0
vn 0 0.9999999 0
vn 0 0.9999999 0
vn 0 0.9999999 0
vn 0 0.9999999 0
vn 0 0.9999999 0
vn 0 0.9999999 0
vn 0 0.9999999 0
vn 0 0.9999999 0
vn 0 0.9999999 0
vn 0 0.9999999 0
vn 0 0.9999999 0
vn 0 0.9999999 0
vn 0 0.9999999 0
vn 0 0.9999999 0
vn 0 0.9999999 0
vn 0 0.9999999 0
vn 0 0.9999999 0
vn 0 0.9999999 0
vn 0 0.9999999 0
vn 0 0.9999999 0

vt 0.4528809 0.4772949
vt 0.4528809 0.4772949
vt 0.4528809 0.4772949
vt 0.4528809 0.4772949
vt 0.4528809 0.4772949
vt 0.4528809 0.4772949
vt 0.4528809 0.4772949
vt 0.4528809 0.4772949
vt 0.4528809 0.4772949
vt 0.4528809 0.4772949
vt 0.4528809 0.4772949
vt 0.4528809 0.4772949
vt 0.4528809 0.4772949
vt 0.4528809 0.4772949
vt 0.4528809 0.4772949
vt 0.4528809 0.4772949
vt 0.4528809 0.4772949
vt 0.4528809 0.4772949
vt 0.4528809 0.4772949
vt 0.4528809 0.4772949
vt 0.4528809 0.4772949
vt 0.4528809 0.4772949
vt 0.4528809 0.4772949
vt 0.4528809 0.4772949
vt 0.4528809 0.4772949
vt 0.4528809 0.4772949
vt 0.4528809 0.4772949
vt 0.4528809 0.4772949
vt 0.4528809 0.4772949
vt 0.4528809 0.4772949
vt 0.4528809 0.4772949
vt 0.4528809 0.4772949
vt 0.4528809 0.4772949
vt 0.4528809 0.4772949
vt 0.4528809 0.4772949
vt 0.4528809 0.4772949
vt 0.4528809 0.4772949
vt 0.4528809 0.4772949
vt 0.4528809 0.4772949
vt 0.4528809 0.4772949
vt 0.4528809 0.4772949
vt 0.4528809 0.4772949
vt 0.4528809 0.4772949
vt 0.4528809 0.4772949
vt 0.4528809 0.4772949
vt 0.4528809 0.4772949
vt 0.4528809 0.4772949
vt 0.4528809 0.4772949
vt 0.4528809 0.4772949
vt 0.4528809 0.4772949
vt 0.4528809 0.4772949
vt 0.4528809 0.4772949
vt 0.4528809 0.4772949
vt 0.4528809 0.4772949
vt 0.4528809 0.4772949
vt 0.4528809 0.4772949
vt 0.4528809 0.4772949
vt 0.4528809 0.4772949
vt 0.4528809 0.4772949
vt 0.4528809 0.4772949
vt 0.4528809 0.4772949
vt 0.4528809 0.4772949
vt 0.4528809 0.4772949
vt 0.4528809 0.4772949
vt 0.4528809 0.4772949
vt 0.4528809 0.4772949
vt 0.4528809 0.4772949
vt 0.4528809 0.4772949
vt 0.4528809 0.4772949
vt 0.4528809 0.4772949
vt 0.4528809 0.4772949
vt 0.4528809 0.4772949
vt 0.4528809 0.4772949
vt 0.4528809 0.4772949
vt 0.4528809 0.4772949
vt 0.4528809 0.4772949
vt 0.1706543 0.4777832
vt 0.1706543 0.4777832
vt 0.1706543 0.4777832
vt 0.1706543 0.4777832
vt 0.1706543 0.4777832
vt 0.1706543 0.4777832
vt 0.1706543 0.4777832
vt 0.1706543 0.4777832
vt 0.1706543 0.4777832
vt 0.1706543 0.4777832
vt 0.1706543 0.4777832
vt 0.1706543 0.4777832
vt 0.1706543 0.4777832
vt 0.1706543 0.4777832
vt 0.1706543 0.4777832
vt 0.1706543 0.4777832
vt 0.1706543 0.4777832
vt 0.1706543 0.4777832
vt 0.1706543 0.4777832
vt 0.1706543 0.4777832
vt 0.1706543 0.4777832
vt 0.1706543 0.4777832
vt 0.1706543 0.4777832
vt 0.1706543 0.4777832
vt 0.1706543 0.4777832
vt 0.1706543 0.4777832
vt 0.1706543 0.4777832
vt 0.1706543 0.4777832
vt 0.1706543 0.4777832
vt 0.1706543 0.4777832
vt 0.1706543 0.4777832
vt 0.1706543 0.4777832
vt 0.1706543 0.4777832
vt 0.1706543 0.4777832
vt 0.1706543 0.4777832
vt 0.1706543 0.4777832
vt 0.1706543 0.4777832
vt 0.1706543 0.4777832
vt 0.1706543 0.4777832
vt 0.1706543 0.4777832
vt 0.1706543 0.4777832
vt 0.1706543 0.4777832
vt 0.1706543 0.4777832
vt 0.1706543 0.4777832
vt 0.1706543 0.4777832
vt 0.1706543 0.4777832
vt 0.1706543 0.4777832
vt 0.1706543 0.4777832
vt 0.1706543 0.4777832
vt 0.1706543 0.4777832
vt 0.1706543 0.4777832
vt 0.1706543 0.4777832
vt 0.1706543 0.4777832
vt 0.1706543 0.4777832
vt 0.1706543 0.4777832
vt 0.1706543 0.4777832
vt 0.1706543 0.4777832
vt 0.1706543 0.4777832
vt 0.1706543 0.4777832
vt 0.1706543 0.4777832
vt 0.1706543 0.4777832
vt 0.1706543 0.4777832
vt 0.1706543 0.4777832
vt 0.1706543 0.4777832
vt 0.1706543 0.4777832
vt 0.1706543 0.4777832
vt 0.1706543 0.4777832
vt 0.1706543 0.4777832
vt 0.1706543 0.4777832
vt 0.1706543 0.4777832
vt 0.1706543 0.4777832
vt 0.1706543 0.4777832
vt 0.1706543 0.4777832
vt 0.1706543 0.4777832
vt 0.1706543 0.4777832
vt 0.1706543 0.4777832
vt 0.4528809 0.4772949
vt 0.4528809 0.4772949
vt 0.4528809 0.4772949
vt 0.1706543 0.4777832
vt 0.1706543 0.4777832
vt 0.1706543 0.4777832

g Floor_Carpet_Tiles_1043_24
usemtl Floor_Carpet_Tiles_1043_24
usemap Floor_Carpet_Tiles_1043_24
f 1/1/1 3/3/3 2/2/2
f 1/1/1 4/4/4 3/3/3
f 2/2/2 6/6/6 5/5/5
f 2/2/2 7/7/7 6/6/6
f 8/8/8 5/5/5 9/9/9
f 8/8/8 10/10/10 5/5/5
f 6/6/6 12/12/12 11/11/11
f 6/6/6 13/13/13 12/12/12
f 9/9/9 11/11/11 14/14/14
f 9/9/9 14/14/14 15/15/15
f 16/16/16 15/15/15 17/17/17
f 16/16/16 18/18/18 15/15/15
f 14/14/14 20/20/20 19/19/19
f 14/14/14 21/21/21 20/20/20
f 17/17/17 19/19/19 22/22/22
f 17/17/17 22/22/22 23/23/23
f 12/12/12 24/24/24 21/21/21
f 12/12/12 25/25/25 24/24/24
f 26/26/26 23/23/23 27/27/27
f 26/26/26 28/28/28 23/23/23
f 24/24/24 30/30/30 29/29/29
f 24/24/24 31/31/31 30/30/30
f 20/20/20 29/29/29 32/32/32
f 20/20/20 32/32/32 33/33/33
f 22/22/22 33/33/33 34/34/34
f 22/22/22 34/34/34 35/35/35
f 27/27/27 35/35/35 36/36/36
f 27/27/27 36/36/36 37/37/37
f 32/32/32 39/39/39 38/38/38
f 32/32/32 40/40/40 39/39/39
f 34/34/34 38/38/38 41/41/41
f 34/34/34 41/41/41 42/42/42
f 30/30/30 43/43/43 40/40/40
f 30/30/30 44/44/44 43/43/43
f 43/43/43 46/46/46 45/45/45
f 43/43/43 47/47/47 46/46/46
f 39/39/39 45/45/45 48/48/48
f 39/39/39 48/48/48 49/49/49
f 50/50/50 51/51/51 44/44/44
f 50/50/50 52/52/52 51/51/51
f 51/51/51 53/53/53 47/47/47
f 51/51/51 54/54/54 53/53/53
f 55/55/55 50/50/50 31/31/31
f 55/55/55 56/56/56 50/50/50
f 57/57/57 55/55/55 25/25/25
f 57/57/57 58/58/58 55/55/55
f 59/59/59 60/60/60 56/56/56
f 59/59/59 61/61/61 60/60/60
f 62/62/62 59/59/59 58/58/58
f 62/62/62 63/63/63 59/59/59
f 60/60/60 64/64/64 52/52/52
f 60/60/60 65/65/65 64/64/64
f 66/66/66 62/62/62 67/67/67
f 66/66/66 68/68/68 62/62/62
f 69/69/69 67/67/67 57/57/57
f 69/69/69 57/57/57 13/13/13
f 70/70/70 71/71/71 63/63/63
f 70/70/70 72/72/72 71/71/71
f 71/71/71 73/73/73 61/61/61
f 71/71/71 74/74/74 73/73/73
f 75/75/75 69/69/69 7/7/7
f 75/75/75 76/76/76 69/69/69
f 77/77/77 79/79/79 78/78/78
f 77/77/77 80/80/80 79/79/79
f 78/78/78 82/82/82 81/81/81
f 78/78/78 83/83/83 82/82/82
f 84/84/84 81/81/81 85/85/85
f 84/84/84 86/86/86 81/81/81
f 82/82/82 88/88/88 87/87/87
f 82/82/82 89/89/89 88/88/88
f 85/85/85 87/87/87 90/90/90
f 85/85/85 90/90/90 91/91/91
f 92/92/92 91/91/91 93/93/93
f 92/92/92 94/94/94 91/91/91
f 90/90/90 96/96/96 95/95/95
f 90/90/90 97/97/97 96/96/96
f 93/93/93 95/95/95 98/98/98
f 93/93/93 98/98/98 99/99/99
f 88/88/88 100/100/100 97/97/97
f 88/88/88 101/101/101 100/100/100
f 102/102/102 99/99/99 103/103/103
f 102/102/102 104/104/104 99/99/99
f 100/100/100 106/106/106 105/105/105
f 100/100/100 107/107/107 106/106/106
f 96/96/96 105/105/105 108/108/108
f 96/96/96 108/108/108 109/109/109
f 98/98/98 109/109/109 110/110/110
f 98/98/98 110/110/110 111/111/111
f 108/108/108 113/113/113 112/112/112
f 108/108/108 114/114/114 113/113/113
f 106/106/106 115/115/115 114/114/114
f 106/106/106 116/116/116 115/115/115
f 117/117/117 118/118/118 101/101/101
f 117/117/117 119/119/119 118/118/118
f 118/118/118 120/120/120 107/107/107
f 120/120/120 121/121/121 116/116/116
f 120/120/120 122/122/122 121/121/121
f 118/118/118 123/123/123 120/120/120
f 115/115/115 125/125/125 124/124/124
f 115/115/115 126/126/126 125/125/125
f 121/121/121 127/127/127 126/126/126
f 121/121/121 128/128/128 127/127/127
f 129/129/129 130/130/130 123/123/123
f 129/129/129 131/131/131 130/130/130
f 132/132/132 129/129/129 119/119/119
f 132/132/132 133/133/133 129/129/129
f 130/130/130 134/134/134 122/122/122
f 130/130/130 135/135/135 134/134/134
f 136/136/136 132/132/132 137/137/137
f 136/136/136 138/138/138 132/132/132
f 139/139/139 140/140/140 133/133/133
f 139/139/139 141/141/141 140/140/140
f 142/142/142 139/139/139 138/138/138
f 142/142/142 143/143/143 139/139/139
f 140/140/140 144/144/144 131/131/131
f 140/140/140 145/145/145 144/144/144
f 146/146/146 137/137/137 117/117/117
f 146/146/146 117/117/117 89/89/89
f 147/147/147 146/146/146 83/83/83
f 147/147/147 148/148/148 146/146/146
f 149/149/149 136/136/136 148/148/148
f 149/149/149 150/150/150 136/136/136
f 151/151/151 147/147/147 79/79/79
f 151/151/151 152/152/152 147/147/147
f 46/46/46 154/154/154 153/153/153
f 46/46/46 155/155/155 154/154/154
f 156/156/156 157/157/157 141/141/141
f 156/156/156 158/158/158 157/157/157
