#Grass03_(3)_875_35.obj

v -0.6759142 8.316771E-07 -0.008606605
v -0.6759142 8.320256E-07 2.38971
v 0.6759142 -8.313311E-07 2.38971
v 0.6759142 -8.316796E-07 -0.008606604
v 0.6759143 0.01337771 -0.008606566
v 0.6759143 0.01337771 2.38971
v -0.6759141 0.01337937 2.38971
v -0.6759141 0.01337937 -0.008606567

vn -0.02152839 -1.804489E-10 0.9997683
vn -0.02152839 -1.804489E-10 0.9997683
vn -0.02152839 -1.804489E-10 0.9997683
vn -0.02152839 -1.804489E-10 0.9997683
vn 0.02152847 1.804496E-10 -0.9997683
vn 0.02152847 1.804496E-10 -0.9997683
vn 0.02152847 1.804496E-10 -0.9997683
vn 0.02152847 1.804496E-10 -0.9997683

vt 0.4172363 0.4226074
vt 0.4150391 0.9580078
vt 0.6650391 0.9516602
vt 0.6508789 0.4309082
vt 0.4172363 0.4226074
vt 0.4150391 0.9580078
vt 0.6650391 0.9516602
vt 0.6508789 0.4309082

g Grass03_(3)_875_35
usemtl Grass03_(3)_875_35
usemap Grass03_(3)_875_35
f 1/1/1 3/3/3 2/2/2
f 1/1/1 4/4/4 3/3/3
f 5/5/5 7/7/7 6/6/6
f 5/5/5 8/8/8 7/7/7
