#Handle_2832_43.obj

v -0.1221275 0.1172307 0.5783905
v -0.1221276 0.1172307 0.8298044
v -0.1221257 -0.1172346 0.8298045
v -0.1221257 -0.1172346 0.5783905
v -0.1221276 0.1172307 0.8298044
v 0.112339 0.1172307 0.829807
v 0.1123409 -0.1172346 0.829807
v -0.1221257 -0.1172346 0.8298045
v 0.112339 0.1172307 0.829807
v 0.112339 0.1172307 0.5783905
v 0.1123409 -0.1172346 0.5783905
v 0.1123409 -0.1172346 0.829807
v -0.1221257 -0.1172346 0.5783905
v -0.1221257 -0.1172346 0.8298045
v 0.1123409 -0.1172346 0.829807
v 0.1123409 -0.1172346 0.5783905
v 0.112339 0.1172307 0.5783905
v 0.112339 0.1172307 0.829807
v -0.1221276 0.1172307 0.8298044
v -0.1221275 0.1172307 0.5783905
v -0.07653427 0.07163931 0.2581492
v -0.07653429 0.07163934 0.5783905
v -0.07653621 -0.07164323 0.5783905
v -0.07653619 -0.07164326 0.2581492
v -0.07653619 -0.07164326 0.2581492
v -0.07653621 -0.07164323 0.5783905
v 0.06674573 -0.07164324 0.5783905
v 0.06674575 -0.07164327 0.2581492
v 0.06674764 0.07163933 0.5783905
v 0.06674767 0.0716393 0.2581492
v 0.06674575 -0.07164327 0.2581492
v 0.06674573 -0.07164324 0.5783905
v 0.06674767 0.0716393 0.2581492
v 0.06674764 0.07163933 0.5783905
v -0.07653429 0.07163934 0.5783905
v -0.07653427 0.07163931 0.2581492
v -0.07653429 0.07163934 0.5783905
v -0.1221275 0.1172307 0.5783905
v -0.1221257 -0.1172346 0.5783905
v -0.07653621 -0.07164323 0.5783905
v 0.1123409 -0.1172346 0.5783905
v 0.06674573 -0.07164324 0.5783905
v 0.112339 0.1172307 0.5783905
v 0.06674764 0.07163933 0.5783905

vn -1 2.685623E-08 -8.940695E-08
vn -1 2.685623E-08 -8.940695E-08
vn -1 2.685623E-08 -8.940695E-08
vn -1 2.685623E-08 -8.940695E-08
vn 8.940695E-08 8.331686E-08 0.9999999
vn 8.940695E-08 8.331686E-08 0.9999999
vn 8.940695E-08 8.331686E-08 0.9999999
vn 8.940695E-08 8.331686E-08 0.9999999
vn 1 -2.685623E-08 8.940695E-08
vn 1 -2.685623E-08 8.940695E-08
vn 1 -2.685623E-08 8.940695E-08
vn 1 -2.685623E-08 8.940695E-08
vn 2.685623E-08 -0.9999998 -8.331686E-08
vn 2.685623E-08 -0.9999998 -8.331686E-08
vn 2.685623E-08 -0.9999998 -8.331686E-08
vn 2.685623E-08 -0.9999998 -8.331686E-08
vn -2.685623E-08 0.9999998 8.331686E-08
vn -2.685623E-08 0.9999998 8.331686E-08
vn -2.685623E-08 0.9999998 8.331686E-08
vn -2.685623E-08 0.9999998 8.331686E-08
vn -1 2.685623E-08 -8.940695E-08
vn -1 2.685623E-08 -8.940695E-08
vn -1 2.685623E-08 -8.940695E-08
vn -1 2.685623E-08 -8.940695E-08
vn 2.685623E-08 -0.9999998 -8.331686E-08
vn 2.685623E-08 -0.9999998 -8.331686E-08
vn 2.685623E-08 -0.9999998 -8.331686E-08
vn 2.685623E-08 -0.9999998 -8.331686E-08
vn 1 -2.685623E-08 8.940695E-08
vn 1 -2.685623E-08 8.940695E-08
vn 1 -2.685623E-08 8.940695E-08
vn 1 -2.685623E-08 8.940695E-08
vn -2.685623E-08 0.9999998 8.331686E-08
vn -2.685623E-08 0.9999998 8.331686E-08
vn -2.685623E-08 0.9999998 8.331686E-08
vn -2.685623E-08 0.9999998 8.331686E-08
vn -8.940695E-08 -8.331686E-08 -0.9999999
vn -8.940695E-08 -8.331686E-08 -0.9999999
vn -8.940695E-08 -8.331686E-08 -0.9999999
vn -8.940695E-08 -8.331686E-08 -0.9999999
vn -8.940695E-08 -8.331686E-08 -0.9999999
vn -8.940695E-08 -8.331686E-08 -0.9999999
vn -8.940695E-08 -8.331686E-08 -0.9999999
vn -8.940695E-08 -8.331686E-08 -0.9999999

vt 0.2949219 0.06378174
vt 0.2949219 0.06378174
vt 0.2949219 0.06378174
vt 0.2949219 0.06378174
vt 0.3251953 0.06378174
vt 0.3251953 0.06378174
vt 0.3251953 0.06378174
vt 0.3251953 0.06378174
vt 0.2949219 0.06378174
vt 0.2949219 0.06378174
vt 0.2949219 0.06378174
vt 0.2949219 0.06378174
vt 0.2651367 0.06378174
vt 0.2651367 0.06378174
vt 0.2651367 0.06378174
vt 0.2651367 0.06378174
vt 0.3649902 0.06378174
vt 0.3649902 0.06378174
vt 0.3649902 0.06378174
vt 0.3649902 0.06378174
vt 0.2331543 0.5092773
vt 0.2331543 0.5092773
vt 0.2331543 0.5092773
vt 0.2331543 0.5092773
vt 0.2034912 0.5092773
vt 0.2034912 0.5092773
vt 0.2034912 0.5092773
vt 0.2034912 0.5092773
vt 0.2331543 0.5092773
vt 0.2331543 0.5092773
vt 0.2331543 0.5092773
vt 0.2331543 0.5092773
vt 0.2944336 0.5092773
vt 0.2944336 0.5092773
vt 0.2944336 0.5092773
vt 0.2944336 0.5092773
vt 0.2349854 0.0637207
vt 0.2349854 0.0637207
vt 0.2349854 0.0637207
vt 0.2349854 0.0637207
vt 0.2349854 0.0637207
vt 0.2349854 0.0637207
vt 0.2349854 0.0637207
vt 0.2349854 0.0637207

g Handle_2832_43
usemtl Handle_2832_43
usemap Handle_2832_43
f 1/1/1 3/3/3 2/2/2
f 1/1/1 4/4/4 3/3/3
f 5/5/5 7/7/7 6/6/6
f 5/5/5 8/8/8 7/7/7
f 9/9/9 11/11/11 10/10/10
f 9/9/9 12/12/12 11/11/11
f 13/13/13 15/15/15 14/14/14
f 13/13/13 16/16/16 15/15/15
f 17/17/17 19/19/19 18/18/18
f 17/17/17 20/20/20 19/19/19
f 21/21/21 23/23/23 22/22/22
f 21/21/21 24/24/24 23/23/23
f 25/25/25 27/27/27 26/26/26
f 25/25/25 28/28/28 27/27/27
f 29/29/29 31/31/31 30/30/30
f 29/29/29 32/32/32 31/31/31
f 33/33/33 35/35/35 34/34/34
f 33/33/33 36/36/36 35/35/35
f 37/37/37 39/39/39 38/38/38
f 37/37/37 40/40/40 39/39/39
f 40/40/40 41/41/41 39/39/39
f 40/40/40 42/42/42 41/41/41
f 42/42/42 43/43/43 41/41/41
f 42/42/42 44/44/44 43/43/43
f 44/44/44 38/38/38 43/43/43
f 44/44/44 37/37/37 38/38/38
