#power_pole_1677_88.obj

v 0.1445465 9.335778 -0.1368484
v 0.1445465 9.335778 0.1368484
v -0.1445465 9.335778 0.1368484
v -0.1445465 9.335778 -0.1368484
v 0.1445465 0 0.1368484
v 0.1445465 3.903454 0.1368484
v 0.1445465 3.903454 -0.1368484
v 0.1445465 0 -0.1368484
v -0.1445465 9.335778 0.1368484
v 0.1445465 9.335778 0.1368484
v 0.1445465 4.865053 0.1368484
v -0.1445465 4.865053 0.1368484
v -0.1445465 9.335778 -0.1368484
v -0.1445465 9.335778 0.1368484
v -0.1445465 4.865053 0.1368484
v -0.1445465 4.865053 -0.1368484
v -0.1445465 0 -0.1368484
v 0.1445465 0 -0.1368484
v 0.1445465 3.903454 -0.1368484
v -0.1445465 3.903454 -0.1368484
v -0.5738144 6.30178 0.3482361
v -0.5738144 7.30178 0.3482361
v -0.1445465 7.30178 0.3482361
v -0.1445465 6.30178 0.3482361
v -0.5738144 7.30178 0.3482361
v -0.5738144 7.30178 -0.3482361
v -0.1445465 7.30178 -0.3482361
v -0.1445465 7.30178 0.3482361
v -0.5738144 7.30178 -0.3482361
v -0.5738144 6.30178 -0.3482361
v -0.1445465 6.30178 -0.3482361
v -0.1445465 7.30178 -0.3482361
v -0.5738144 6.30178 -0.3482361
v -0.5738144 6.30178 0.3482361
v -0.1445465 6.30178 0.3482361
v -0.1445465 6.30178 -0.3482361
v -0.1445465 6.30178 0.3482361
v -0.1445465 7.30178 0.3482361
v -0.1445465 7.30178 -0.3482361
v -0.1445465 6.30178 -0.3482361
v -0.5738144 6.30178 -0.3482361
v -0.5738144 7.30178 -0.3482361
v -0.5738144 7.30178 0.3482361
v -0.5738144 6.30178 0.3482361
v 0.1445465 4.865053 0.1368484
v 0.1445465 9.335778 0.1368484
v 0.1445465 9.335778 -0.1368484
v 0.1445465 4.865053 -0.1368484
v 0.1445465 4.865053 0.1368484
v 0.1734543 4.865053 0.1642151
v -0.1734543 4.865053 0.1642151
v -0.1445465 4.865053 0.1368484
v -0.1734543 4.865053 -0.1642151
v -0.1445465 4.865053 -0.1368484
v 0.1445465 4.865053 -0.1368484
v 0.1734543 4.865053 -0.1642151
v 0.1445465 4.865053 -0.1368484
v 0.1445465 9.335778 -0.1368484
v -0.1445465 9.335778 -0.1368484
v -0.1445465 4.865053 -0.1368484
v 0.1445465 3.903454 0.1368484
v 0.1734543 3.903454 0.1642151
v 0.1734543 3.903454 -0.1642151
v 0.1445465 3.903454 -0.1368484
v -0.1734543 3.903454 -0.1642151
v -0.1445465 3.903454 -0.1368484
v -0.1445465 3.903454 0.1368484
v -0.1734543 3.903454 0.1642151
v 0.1445465 3.903454 0.1368484
v 0.1445465 0 0.1368484
v -0.1445465 0 0.1368484
v -0.1445465 3.903454 0.1368484
v -0.1445465 3.903454 0.1368484
v -0.1445465 0 0.1368484
v -0.1445465 0 -0.1368484
v -0.1445465 3.903454 -0.1368484
v 0.1734543 4.865053 0.1642151
v 0.1734543 3.903454 0.1642151
v -0.1734543 3.903454 0.1642151
v -0.1734543 4.865053 0.1642151
v -0.1734543 4.865053 0.1642151
v -0.1734543 3.903454 0.1642151
v -0.1734543 3.903454 -0.1642151
v -0.1734543 4.865053 -0.1642151
v 0.1734543 3.903454 0.1642151
v 0.1734543 4.865053 0.1642151
v 0.1734543 4.865053 -0.1642151
v 0.1734543 3.903454 -0.1642151
v 0.1734543 3.903454 -0.1642151
v 0.1734543 4.865053 -0.1642151
v -0.1734543 4.865053 -0.1642151
v -0.1734543 3.903454 -0.1642151

vn 0 1 0
vn 0 1 0
vn 0 1 0
vn 0 1 0
vn 1 0 0
vn 1 0 0
vn 1 0 0
vn 1 0 0
vn 0 0 1
vn 0 0 1
vn 0 0 1
vn 0 0 1
vn -1 0 0
vn -1 0 0
vn -1 0 0
vn -1 0 0
vn 0 0 -1
vn 0 0 -1
vn 0 0 -1
vn 0 0 -1
vn 0 0 1
vn 0 0 1
vn 0 0 1
vn 0 0 1
vn 0 1 0
vn 0 1 0
vn 0 1 0
vn 0 1 0
vn 0 0 -1
vn 0 0 -1
vn 0 0 -1
vn 0 0 -1
vn 0 -1 0
vn 0 -1 0
vn 0 -1 0
vn 0 -1 0
vn 1 0 0
vn 1 0 0
vn 1 0 0
vn 1 0 0
vn -1 0 0
vn -1 0 0
vn -1 0 0
vn -1 0 0
vn 1 0 0
vn 1 0 0
vn 1 0 0
vn 1 0 0
vn 0 1 0
vn 0 1 0
vn 0 1 0
vn 0 1 0
vn 0 1 0
vn 0 1 0
vn 0 1 0
vn 0 1 0
vn 0 0 -1
vn 0 0 -1
vn 0 0 -1
vn 0 0 -1
vn 0 -1 0
vn 0 -1 0
vn 0 -1 0
vn 0 -1 0
vn 0 -1 0
vn 0 -1 0
vn 0 -1 0
vn 0 -1 0
vn 0 0 1
vn 0 0 1
vn 0 0 1
vn 0 0 1
vn -1 0 0
vn -1 0 0
vn -1 0 0
vn -1 0 0
vn 0 0 1
vn 0 0 1
vn 0 0 1
vn 0 0 1
vn -1 0 0
vn -1 0 0
vn -1 0 0
vn -1 0 0
vn 1 0 0
vn 1 0 0
vn 1 0 0
vn 1 0 0
vn 0 0 -1
vn 0 0 -1
vn 0 0 -1
vn 0 0 -1

vt 0.3674316 0.6411133
vt 0.324707 0.6411133
vt 0.324707 0.6860352
vt 0.3674316 0.6860352
vt 0.1060791 0.6948242
vt 0.1060791 0.6630859
vt 0.1026001 0.6630859
vt 0.1026001 0.6948242
vt 0.2344971 0.6181641
vt 0.230835 0.6181641
vt 0.230835 0.6552734
vt 0.2344971 0.6552734
vt 0.1021118 0.6181641
vt 0.09863281 0.6181641
vt 0.09863281 0.6552734
vt 0.1021118 0.6552734
vt 0.2386475 0.6181641
vt 0.2349854 0.6181641
vt 0.2349854 0.6503906
vt 0.2386475 0.6503906
vt 0.3505859 0.9360352
vt 0.3505859 0.9506836
vt 0.3649902 0.9506836
vt 0.3649902 0.9360352
vt 0.298584 0.940918
vt 0.298584 0.949707
vt 0.307373 0.949707
vt 0.307373 0.940918
vt 0.3513184 0.9589844
vt 0.3513184 0.9741211
vt 0.3662109 0.9741211
vt 0.3662109 0.9589844
vt 0.3850098 0.9775391
vt 0.3850098 0.9921875
vt 0.3999023 0.9921875
vt 0.3999023 0.9775391
vt 0.3520508 0.9379883
vt 0.3520508 0.9521484
vt 0.3664551 0.9521484
vt 0.3664551 0.9379883
vt 0.3234863 0.9379883
vt 0.3234863 0.9482422
vt 0.3337402 0.9482422
vt 0.3337402 0.9379883
vt 0.1060791 0.6552734
vt 0.1060791 0.6181641
vt 0.1026001 0.6181641
vt 0.1026001 0.6552734
vt 0.6992188 0.8891602
vt 0.6992188 0.8891602
vt 0.6992188 0.8891602
vt 0.6992188 0.8891602
vt 0.6992188 0.8891602
vt 0.6992188 0.8891602
vt 0.6992188 0.8891602
vt 0.6992188 0.8891602
vt 0.2349854 0.6582031
vt 0.2349854 0.6948242
vt 0.2386475 0.6948242
vt 0.2386475 0.6582031
vt 0.6044922 0.7109375
vt 0.6044922 0.7109375
vt 0.6044922 0.7109375
vt 0.6044922 0.7109375
vt 0.6044922 0.7109375
vt 0.6044922 0.7109375
vt 0.6044922 0.7109375
vt 0.6044922 0.7109375
vt 0.230835 0.6630859
vt 0.230835 0.6948242
vt 0.2344971 0.6948242
vt 0.2344971 0.6630859
vt 0.09863281 0.6630859
vt 0.09863281 0.6948242
vt 0.1021118 0.6948242
vt 0.1021118 0.6630859
vt 0.3276367 0.8046875
vt 0.3276367 0.7973633
vt 0.3239746 0.7973633
vt 0.3239746 0.8046875
vt 0.4597168 0.8046875
vt 0.4597168 0.7973633
vt 0.4562988 0.7973633
vt 0.4562988 0.8046875
vt 0.4523926 0.7973633
vt 0.4523926 0.8046875
vt 0.4558105 0.8046875
vt 0.4558105 0.7973633
vt 0.3234863 0.8095703
vt 0.3234863 0.8022461
vt 0.3198242 0.8022461
vt 0.3198242 0.8095703

g power_pole_1677_88
usemtl power_pole_1677_88
usemap power_pole_1677_88
f 1/1/1 3/3/3 2/2/2
f 1/1/1 4/4/4 3/3/3
f 5/5/5 7/7/7 6/6/6
f 5/5/5 8/8/8 7/7/7
f 9/9/9 11/11/11 10/10/10
f 9/9/9 12/12/12 11/11/11
f 13/13/13 15/15/15 14/14/14
f 13/13/13 16/16/16 15/15/15
f 17/17/17 19/19/19 18/18/18
f 17/17/17 20/20/20 19/19/19
f 21/21/21 23/23/23 22/22/22
f 21/21/21 24/24/24 23/23/23
f 25/25/25 27/27/27 26/26/26
f 25/25/25 28/28/28 27/27/27
f 29/29/29 31/31/31 30/30/30
f 29/29/29 32/32/32 31/31/31
f 33/33/33 35/35/35 34/34/34
f 33/33/33 36/36/36 35/35/35
f 37/37/37 39/39/39 38/38/38
f 37/37/37 40/40/40 39/39/39
f 41/41/41 43/43/43 42/42/42
f 41/41/41 44/44/44 43/43/43
f 45/45/45 47/47/47 46/46/46
f 45/45/45 48/48/48 47/47/47
f 49/49/49 51/51/51 50/50/50
f 49/49/49 52/52/52 51/51/51
f 52/52/52 53/53/53 51/51/51
f 52/52/52 54/54/54 53/53/53
f 50/50/50 55/55/55 49/49/49
f 50/50/50 56/56/56 55/55/55
f 56/56/56 54/54/54 55/55/55
f 56/56/56 53/53/53 54/54/54
f 57/57/57 59/59/59 58/58/58
f 57/57/57 60/60/60 59/59/59
f 61/61/61 63/63/63 62/62/62
f 61/61/61 64/64/64 63/63/63
f 64/64/64 65/65/65 63/63/63
f 64/64/64 66/66/66 65/65/65
f 62/62/62 67/67/67 61/61/61
f 62/62/62 68/68/68 67/67/67
f 68/68/68 66/66/66 67/67/67
f 68/68/68 65/65/65 66/66/66
f 69/69/69 71/71/71 70/70/70
f 69/69/69 72/72/72 71/71/71
f 73/73/73 75/75/75 74/74/74
f 73/73/73 76/76/76 75/75/75
f 77/77/77 79/79/79 78/78/78
f 77/77/77 80/80/80 79/79/79
f 81/81/81 83/83/83 82/82/82
f 81/81/81 84/84/84 83/83/83
f 85/85/85 87/87/87 86/86/86
f 85/85/85 88/88/88 87/87/87
f 89/89/89 91/91/91 90/90/90
f 89/89/89 92/92/92 91/91/91
