#Prop_ToiletSeat_01_618_15.obj

v -0.4097398 0.3978013 1.246787E-07
v -0.3246905 0.738169 -8.88009E-08
v -0.3097387 -5.284879E-08 1.230377E-07
v -1.683845E-07 0.8786089 -1.005844E-07
v 0.3246901 0.738169 -7.120357E-08
v 0.4097394 0.3978013 1.681244E-07
v 0.3097383 -5.284879E-08 1.286011E-07
v -0.3246905 0.738169 -8.88009E-08
v -0.3246897 0.738169 -0.05271885
v 6.40427E-07 0.8786089 -0.05271886
v -1.683845E-07 0.8786089 -1.005844E-07
v 0.4097394 0.3978013 1.681244E-07
v 0.4097402 0.3978013 -0.05271859
v 0.3097391 -5.284879E-08 -0.05271859
v 0.3097383 -5.284879E-08 1.286011E-07
v -0.3097387 -5.284879E-08 1.230377E-07
v -0.3097379 -5.284879E-08 -0.05271864
v -0.409739 0.3978013 -0.05271863
v -0.4097398 0.3978013 1.246787E-07
v 0.3097383 -5.284879E-08 1.286011E-07
v 0.3097391 -5.284879E-08 -0.05271859
v -0.3097379 -5.284879E-08 -0.05271864
v -0.3097387 -5.284879E-08 1.230377E-07
v 0.3246901 0.738169 -7.120357E-08
v 0.324691 0.738169 -0.05271883
v 0.4097402 0.3978013 -0.05271859
v 0.4097394 0.3978013 1.681244E-07
v -0.4097398 0.3978013 1.246787E-07
v -0.409739 0.3978013 -0.05271863
v -0.3246897 0.738169 -0.05271885
v -0.3246905 0.738169 -8.88009E-08
v -1.683845E-07 0.8786089 -1.005844E-07
v 6.40427E-07 0.8786089 -0.05271886
v 0.324691 0.738169 -0.05271883
v 0.3246901 0.738169 -7.120357E-08
v 0.3097391 -5.284879E-08 -0.05271859
v 0.4097402 0.3978013 -0.05271859
v 0.324691 0.738169 -0.05271883
v 6.40427E-07 0.8786089 -0.05271886
v -0.3097379 -5.284879E-08 -0.05271864
v -0.3246897 0.738169 -0.05271885
v -0.409739 0.3978013 -0.05271863

vn 0.1492057 0 0.9888062
vn 0.1492057 0 0.9888062
vn 0.1492057 0 0.9888062
vn 0.1492057 0 0.9888062
vn 0.1492057 0 0.9888062
vn 0.1492057 0 0.9888062
vn 0.1492057 0 0.9888062
vn -0.3925469 0.9178225 0.05923327
vn -0.3925469 0.9178225 0.05923327
vn -0.3925469 0.9178225 0.05923327
vn -0.3925469 0.9178225 0.05923327
vn 0.9589697 -0.2437995 -0.1447035
vn 0.9589697 -0.2437995 -0.1447035
vn 0.9589697 -0.2437995 -0.1447035
vn 0.9589697 -0.2437995 -0.1447035
vn -0.9589697 -0.2437995 0.1447035
vn -0.9589697 -0.2437995 0.1447035
vn -0.9589697 -0.2437995 0.1447035
vn -0.9589697 -0.2437995 0.1447035
vn 0 -1 0
vn 0 -1 0
vn 0 -1 0
vn 0 -1 0
vn 0.9593111 0.2424214 -0.144755
vn 0.9593111 0.2424214 -0.144755
vn 0.9593111 0.2424214 -0.144755
vn 0.9593111 0.2424214 -0.144755
vn -0.9593111 0.2424214 0.144755
vn -0.9593111 0.2424214 0.144755
vn -0.9593111 0.2424214 0.144755
vn -0.9593111 0.2424214 0.144755
vn 0.3925469 0.9178227 -0.05923326
vn 0.3925469 0.9178227 -0.05923326
vn 0.3925469 0.9178227 -0.05923326
vn 0.3925469 0.9178227 -0.05923326
vn -0.1492057 0 -0.9888062
vn -0.1492057 0 -0.9888062
vn -0.1492057 0 -0.9888062
vn -0.1492057 0 -0.9888062
vn -0.1492057 0 -0.9888062
vn -0.1492057 0 -0.9888062
vn -0.1492057 0 -0.9888062

vt 0.421875 0.4775391
vt 0.421875 0.4775391
vt 0.421875 0.4775391
vt 0.421875 0.4775391
vt 0.421875 0.4775391
vt 0.421875 0.4775391
vt 0.421875 0.4775391
vt 0.4504395 0.4775391
vt 0.4504395 0.4775391
vt 0.4504395 0.4775391
vt 0.4504395 0.4775391
vt 0.3876953 0.4775391
vt 0.3876953 0.4775391
vt 0.3876953 0.4775391
vt 0.3876953 0.4775391
vt 0.3876953 0.4775391
vt 0.3876953 0.4775391
vt 0.3876953 0.4775391
vt 0.3876953 0.4775391
vt 0.1474609 -0.6381836
vt 0.1474609 -0.578125
vt 0.8525391 -0.578125
vt 0.8525391 -0.6381836
vt 0.3876953 0.4775391
vt 0.3876953 0.4775391
vt 0.3876953 0.4775391
vt 0.3876953 0.4775391
vt 0.3876953 0.4775391
vt 0.3876953 0.4775391
vt 0.3876953 0.4775391
vt 0.3876953 0.4775391
vt 0.4504395 0.4775391
vt 0.4504395 0.4775391
vt 0.4504395 0.4775391
vt 0.4504395 0.4775391
vt 0.3278809 0.4763184
vt 0.3278809 0.4763184
vt 0.3278809 0.4763184
vt 0.3278809 0.4763184
vt 0.3278809 0.4763184
vt 0.3278809 0.4763184
vt 0.3278809 0.4763184

g Prop_ToiletSeat_01_618_15
usemtl Prop_ToiletSeat_01_618_15
usemap Prop_ToiletSeat_01_618_15
f 1/1/1 3/3/3 2/2/2
f 2/2/2 3/3/3 4/4/4
f 4/4/4 3/3/3 5/5/5
f 5/5/5 3/3/3 6/6/6
f 3/3/3 7/7/7 6/6/6
f 8/8/8 10/10/10 9/9/9
f 8/8/8 11/11/11 10/10/10
f 12/12/12 14/14/14 13/13/13
f 12/12/12 15/15/15 14/14/14
f 16/16/16 18/18/18 17/17/17
f 16/16/16 19/19/19 18/18/18
f 20/20/20 22/22/22 21/21/21
f 20/20/20 23/23/23 22/22/22
f 24/24/24 26/26/26 25/25/25
f 24/24/24 27/27/27 26/26/26
f 28/28/28 30/30/30 29/29/29
f 28/28/28 31/31/31 30/30/30
f 32/32/32 34/34/34 33/33/33
f 32/32/32 35/35/35 34/34/34
f 36/36/36 38/38/38 37/37/37
f 38/38/38 36/36/36 39/39/39
f 39/39/39 36/36/36 40/40/40
f 39/39/39 40/40/40 41/41/41
f 41/41/41 40/40/40 42/42/42
