#Prop_Toaster_996_169.obj

v -0.04096613 0.07918859 0.1645054
v -0.04096613 0.1092939 0.1645054
v -0.04096613 0.1092939 0.1837215
v -0.04096613 0.07918859 0.1837215
v -0.04096613 0.1092939 0.1645054
v 0.04096594 0.1092939 0.1645054
v 0.04096594 0.1092939 0.1837215
v -0.04096613 0.1092939 0.1837215
v 0.04096594 0.1092939 0.1645054
v 0.04096594 0.07918859 0.1645054
v 0.04096594 0.07918859 0.1837215
v 0.04096594 0.1092939 0.1837215
v 0.04096594 0.07918859 0.1645054
v -0.04096613 0.07918859 0.1645054
v -0.04096613 0.07918859 0.1837215
v 0.04096594 0.07918859 0.1837215
v -0.04096613 0.07918859 0.1837215
v -0.04096613 0.1092939 0.1837215
v 0.04096594 0.1092939 0.1837215
v 0.04096594 0.07918859 0.1837215

vn -1 0 0
vn -1 0 0
vn -1 0 0
vn -1 0 0
vn 0 1 0
vn 0 1 0
vn 0 1 0
vn 0 1 0
vn 1 0 0
vn 1 0 0
vn 1 0 0
vn 1 0 0
vn 0 -1 0
vn 0 -1 0
vn 0 -1 0
vn 0 -1 0
vn 0 0 1
vn 0 0 1
vn 0 0 1
vn 0 0 1

vt 0.2631836 0.4772949
vt 0.2631836 0.4772949
vt 0.2631836 0.4772949
vt 0.2631836 0.4772949
vt 0.3569336 0.479248
vt 0.3569336 0.479248
vt 0.3569336 0.479248
vt 0.3569336 0.479248
vt 0.2631836 0.4772949
vt 0.2631836 0.4772949
vt 0.2631836 0.4772949
vt 0.2631836 0.4772949
vt 0.2353516 0.4772949
vt 0.2353516 0.4772949
vt 0.2353516 0.4772949
vt 0.2353516 0.4772949
vt 0.3269043 0.4760742
vt 0.3269043 0.4760742
vt 0.3269043 0.4760742
vt 0.3269043 0.4760742

g Prop_Toaster_996_169
usemtl Prop_Toaster_996_169
usemap Prop_Toaster_996_169
f 1/1/1 3/3/3 2/2/2
f 1/1/1 4/4/4 3/3/3
f 5/5/5 7/7/7 6/6/6
f 5/5/5 8/8/8 7/7/7
f 9/9/9 11/11/11 10/10/10
f 9/9/9 12/12/12 11/11/11
f 13/13/13 15/15/15 14/14/14
f 13/13/13 16/16/16 15/15/15
f 17/17/17 19/19/19 18/18/18
f 17/17/17 20/20/20 19/19/19
