#Prop_Small_Table_08_1640_23.obj

v 1.054663 1.180759 0.6089132
v 1.054663 1.325533 0.6089132
v 1.054663 1.325533 -0.6089081
v 1.054663 1.180759 -0.6089081
v 1.054663 1.180759 -0.6089081
v 1.054663 1.325533 -0.6089081
v 0 1.325533 -1.217816
v 0 1.180759 -1.217816
v 0 1.180759 -1.217816
v 0 1.325533 -1.217816
v -1.054663 1.325533 -0.6089081
v -1.054663 1.180759 -0.6089081
v -1.054663 1.180759 -0.6089081
v -1.054663 1.325533 -0.6089081
v -1.054663 1.325533 0.6089132
v -1.054663 1.180759 0.6089132
v -1.054663 1.180759 0.6089132
v -1.054663 1.325533 0.6089132
v 0 1.325533 1.217821
v 0 1.180759 1.217821
v 0 1.180759 1.217821
v 0 1.325533 1.217821
v 1.054663 1.325533 0.6089132
v 1.054663 1.180759 0.6089132
v 1.054663 1.180759 -0.6089081
v 0 1.180759 5.053683E-06
v 1.054663 1.180759 0.6089132
v 0 1.180759 -1.217816
v -1.054663 1.180759 -0.6089081
v -1.054663 1.180759 0.6089132
v 0 1.180759 1.217821
v 1.054663 1.325533 0.6089132
v 0 1.325533 5.053683E-06
v 1.054663 1.325533 -0.6089081
v 0 1.325533 -1.217816
v -1.054663 1.325533 -0.6089081
v -1.054663 1.325533 0.6089132
v 0 1.325533 1.217821
v -0.103742 0.247558 -0.103742
v -0.103742 1.188431 -0.103742
v -0.103742 1.188431 0.1037521
v -0.103742 0.247558 0.1037521
v -0.103742 1.188431 -0.103742
v 0.103742 1.188431 -0.103742
v 0.103742 1.188431 0.1037521
v -0.103742 1.188431 0.1037521
v 0.103742 1.188431 -0.103742
v 0.103742 0.247558 -0.103742
v 0.103742 0.247558 0.1037521
v 0.103742 1.188431 0.1037521
v 0.103742 0 -0.103742
v -0.103742 0 -0.103742
v -0.103742 0 0.1037521
v 0.103742 0 0.1037521
v 0.636956 0 -0.04563475
v 0.636956 0 0.04564486
v -0.636956 0 0.04564486
v -0.636956 0 -0.04563475
v 0.04184449 0 0.6430761
v -0.0418546 0 0.6430761
v -0.0418546 0 -0.643066
v 0.04184449 0 -0.643066
v -0.103742 0.247558 0.1037521
v -0.103742 1.188431 0.1037521
v 0.103742 1.188431 0.1037521
v 0.103742 0.247558 0.1037521
v 0.103742 0.247558 -0.103742
v 0.103742 1.188431 -0.103742
v -0.103742 1.188431 -0.103742
v -0.103742 0.247558 -0.103742
v 0.636956 0.1066215 -0.04563475
v 0.636956 0 -0.04563475
v 0.636956 0 0.04564486
v 0.636956 0.1066215 0.04564486
v 0.04184449 0.1066215 0.6430761
v 0.04184449 0 0.6430761
v -0.0418546 0 0.6430761
v -0.0418546 0.1066215 0.6430761
v -0.636956 0.1066215 0.04564486
v -0.636956 0 0.04564486
v -0.636956 0 -0.04563475
v -0.636956 0.1066215 -0.04563475
v -0.0418546 0.1066215 -0.643066
v -0.0418546 0 -0.643066
v 0.04184449 0 -0.643066
v 0.04184449 0.1066215 -0.643066
v 0.103742 0.247558 -0.103742
v 0.636956 0.1066215 -0.04563475
v 0.636956 0.1066215 0.04564486
v 0.103742 0.247558 0.1037521
v 0.103742 0.247558 0.1037521
v 0.636956 0.1066215 0.04564486
v 0.636956 0 0.04564486
v 0.103742 0 0.1037521
v 0.103742 0 -0.103742
v 0.636956 0 -0.04563475
v 0.636956 0.1066215 -0.04563475
v 0.103742 0.247558 -0.103742
v -0.103742 0.247558 0.1037521
v -0.636956 0.1066215 0.04564486
v -0.636956 0.1066215 -0.04563475
v -0.103742 0.247558 -0.103742
v -0.103742 0.247558 -0.103742
v -0.636956 0.1066215 -0.04563475
v -0.636956 0 -0.04563475
v -0.103742 0 -0.103742
v -0.103742 0 0.1037521
v -0.636956 0 0.04564486
v -0.636956 0.1066215 0.04564486
v -0.103742 0.247558 0.1037521
v 0.103742 0.247558 0.1037521
v 0.04184449 0.1066215 0.6430761
v -0.0418546 0.1066215 0.6430761
v -0.103742 0.247558 0.1037521
v -0.103742 0.247558 0.1037521
v -0.0418546 0.1066215 0.6430761
v -0.0418546 0 0.6430761
v -0.103742 0 0.1037521
v 0.103742 0 0.1037521
v 0.04184449 0 0.6430761
v 0.04184449 0.1066215 0.6430761
v 0.103742 0.247558 0.1037521
v -0.103742 0.247558 -0.103742
v -0.0418546 0.1066215 -0.643066
v 0.04184449 0.1066215 -0.643066
v 0.103742 0.247558 -0.103742
v 0.103742 0.247558 -0.103742
v 0.04184449 0.1066215 -0.643066
v 0.04184449 0 -0.643066
v 0.103742 0 -0.103742
v -0.103742 0 -0.103742
v -0.0418546 0 -0.643066
v -0.0418546 0.1066215 -0.643066
v -0.103742 0.247558 -0.103742

vn 0.866025 0 0.5000007
vn 0.866025 0 0.5000007
vn 0.8660253 0 -0.5000001
vn 0.8660253 0 -0.5000001
vn 0.8660253 0 -0.5000001
vn 0.8660253 0 -0.5000001
vn 0 0 -1
vn 0 0 -1
vn 0 0 -1
vn 0 0 -1
vn -0.8660253 0 -0.5000002
vn -0.8660253 0 -0.5000002
vn -0.8660253 0 -0.5000002
vn -0.8660253 0 -0.5000002
vn -0.8660253 0 0.5000002
vn -0.8660253 0 0.5000002
vn -0.8660253 0 0.5000002
vn -0.8660253 0 0.5000002
vn 0 0 1
vn 0 0 1
vn 0 0 1
vn 0 0 1
vn 0.866025 0 0.5000007
vn 0.866025 0 0.5000007
vn 0 -1 0
vn 0 -1 0
vn 0 -1 0
vn 0 -1 0
vn 0 -1 0
vn 0 -1 0
vn 0 -1 0
vn 0 1 0
vn 0 1 0
vn 0 1 0
vn 0 1 0
vn 0 1 0
vn 0 1 0
vn 0 1 0
vn -0.9983686 0 -0.05709921
vn -1 0 0
vn -1 0 0
vn -0.9983686 0 0.05709921
vn 0 1 0
vn 0 1 0
vn 0 1 0
vn 0 1 0
vn 1 0 0
vn 0.9983684 0 -0.05710139
vn 0.9983684 0 0.05710139
vn 1 0 0
vn 0 -1 0
vn 0 -1 0
vn 0 -1 0
vn 0 -1 0
vn 0 -1 0
vn 0 -1 0
vn 0 -1 0
vn 0 -1 0
vn 0 -1 0
vn 0 -1 0
vn 0 -1 0
vn 0 -1 0
vn -0.05424703 0 0.9985275
vn 0 0 1
vn 0 0 1
vn 0.05424733 0 0.9985275
vn 0.05424733 0 -0.9985275
vn 0 0 -1
vn 0 0 -1
vn -0.05424703 0 -0.9985275
vn 1 0 0
vn 1 0 0
vn 1 0 0
vn 1 0 0
vn 0 0 1
vn 0 0 1
vn 0 0 1
vn 0 0 1
vn -1 0 0
vn -1 0 0
vn -1 0 0
vn -1 0 0
vn 0 0 -1
vn 0 0 -1
vn 0 0 -1
vn 0 0 -1
vn 0.1298856 0.9831661 -0.1285072
vn 0.2555406 0.9667984 0
vn 0.2555406 0.9667984 0
vn 0.1298856 0.9831661 0.1285072
vn 0.05424733 0 0.9985275
vn 0.1083349 0 0.9941145
vn 0.1083349 0 0.9941145
vn 0.1083349 0 0.9941145
vn 0.1083349 0 -0.9941145
vn 0.1083349 0 -0.9941145
vn 0.1083349 0 -0.9941145
vn 0.05424733 0 -0.9985275
vn -0.1298849 0.9831662 0.1285072
vn -0.2555394 0.9667987 0
vn -0.2555394 0.9667987 0
vn -0.1298849 0.9831662 -0.1285072
vn -0.05424703 0 -0.9985275
vn -0.1083343 0 -0.9941146
vn -0.1083343 0 -0.9941146
vn -0.1083343 0 -0.9941146
vn -0.1083343 0 0.9941146
vn -0.1083343 0 0.9941146
vn -0.1083343 0 0.9941146
vn -0.05424703 0 0.9985275
vn 0.1298856 0.9831661 0.1285072
vn 0 0.9675111 0.2528289
vn 0 0.9675111 0.2528289
vn -0.1298849 0.9831662 0.1285072
vn -0.9983686 0 0.05709921
vn -0.9934794 0 0.1140121
vn -0.9934794 0 0.1140121
vn -0.9934794 0 0.1140121
vn 0.9934789 0 0.1140164
vn 0.9934789 0 0.1140164
vn 0.9934789 0 0.1140164
vn 0.9983684 0 0.05710139
vn -0.1298849 0.9831662 -0.1285072
vn 0 0.9675111 -0.2528289
vn 0 0.9675111 -0.2528289
vn 0.1298856 0.9831661 -0.1285072
vn 0.9983684 0 -0.05710139
vn 0.9934789 0 -0.1140164
vn 0.9934789 0 -0.1140164
vn 0.9934789 0 -0.1140164
vn -0.9934794 0 -0.1140121
vn -0.9934794 0 -0.1140121
vn -0.9934794 0 -0.1140121
vn -0.9983686 0 -0.05709921

vt 0.1409912 0.04641724
vt 0.1409912 0.04641724
vt 0.1409912 0.04641724
vt 0.1409912 0.04641724
vt 0.1409912 0.04641724
vt 0.1409912 0.04641724
vt 0.1409912 0.04641724
vt 0.1409912 0.04641724
vt 0.1409912 0.04641724
vt 0.1409912 0.04641724
vt 0.1409912 0.04641724
vt 0.1409912 0.04641724
vt 0.1409912 0.04641724
vt 0.1409912 0.04641724
vt 0.1409912 0.04641724
vt 0.1409912 0.04641724
vt 0.1409912 0.04641724
vt 0.1409912 0.04641724
vt 0.1409912 0.04641724
vt 0.1409912 0.04641724
vt 0.1409912 0.04641724
vt 0.1409912 0.04641724
vt 0.1409912 0.04641724
vt 0.1409912 0.04641724
vt 0.1409912 0.04641724
vt 0.1409912 0.04641724
vt 0.1409912 0.04641724
vt 0.1409912 0.04641724
vt 0.1409912 0.04641724
vt 0.1409912 0.04641724
vt 0.1409912 0.04641724
vt 0.2033691 0.04641724
vt 0.2033691 0.04641724
vt 0.2033691 0.04641724
vt 0.2033691 0.04641724
vt 0.2033691 0.04641724
vt 0.2033691 0.04641724
vt 0.2033691 0.04641724
vt 0.1715088 0.04641724
vt 0.1715088 0.04641724
vt 0.1715088 0.04641724
vt 0.1715088 0.04641724
vt 0.1715088 0.04641724
vt 0.1715088 0.04641724
vt 0.1715088 0.04641724
vt 0.1715088 0.04641724
vt 0.1715088 0.04641724
vt 0.1715088 0.04641724
vt 0.1715088 0.04641724
vt 0.1715088 0.04641724
vt 0.1715088 0.04641724
vt 0.1715088 0.04641724
vt 0.1715088 0.04641724
vt 0.1715088 0.04641724
vt 0.1715088 0.04641724
vt 0.1715088 0.04641724
vt 0.1715088 0.04641724
vt 0.1715088 0.04641724
vt 0.1715088 0.04641724
vt 0.1715088 0.04641724
vt 0.1715088 0.04641724
vt 0.1715088 0.04641724
vt 0.1409912 0.04641724
vt 0.1409912 0.04641724
vt 0.1409912 0.04641724
vt 0.1409912 0.04641724
vt 0.1409912 0.04641724
vt 0.1409912 0.04641724
vt 0.1409912 0.04641724
vt 0.1409912 0.04641724
vt 0.1715088 0.04641724
vt 0.1715088 0.04641724
vt 0.1715088 0.04641724
vt 0.1715088 0.04641724
vt 0.1409912 0.04641724
vt 0.1409912 0.04641724
vt 0.1409912 0.04641724
vt 0.1409912 0.04641724
vt 0.1715088 0.04641724
vt 0.1715088 0.04641724
vt 0.1715088 0.04641724
vt 0.1715088 0.04641724
vt 0.1409912 0.04641724
vt 0.1409912 0.04641724
vt 0.1409912 0.04641724
vt 0.1409912 0.04641724
vt 0.2033691 0.04641724
vt 0.2033691 0.04641724
vt 0.2033691 0.04641724
vt 0.2033691 0.04641724
vt 0.1409912 0.04641724
vt 0.1409912 0.04641724
vt 0.1409912 0.04641724
vt 0.1409912 0.04641724
vt 0.1409912 0.04641724
vt 0.1409912 0.04641724
vt 0.1409912 0.04641724
vt 0.1409912 0.04641724
vt 0.2033691 0.04641724
vt 0.2033691 0.04641724
vt 0.2033691 0.04641724
vt 0.2033691 0.04641724
vt 0.1409912 0.04641724
vt 0.1409912 0.04641724
vt 0.1409912 0.04641724
vt 0.1409912 0.04641724
vt 0.1409912 0.04641724
vt 0.1409912 0.04641724
vt 0.1409912 0.04641724
vt 0.1409912 0.04641724
vt 0.2033691 0.04641724
vt 0.2033691 0.04641724
vt 0.2033691 0.04641724
vt 0.2033691 0.04641724
vt 0.1715088 0.04641724
vt 0.1715088 0.04641724
vt 0.1715088 0.04641724
vt 0.1715088 0.04641724
vt 0.1715088 0.04641724
vt 0.1715088 0.04641724
vt 0.1715088 0.04641724
vt 0.1715088 0.04641724
vt 0.2033691 0.04641724
vt 0.2033691 0.04641724
vt 0.2033691 0.04641724
vt 0.2033691 0.04641724
vt 0.1715088 0.04641724
vt 0.1715088 0.04641724
vt 0.1715088 0.04641724
vt 0.1715088 0.04641724
vt 0.1715088 0.04641724
vt 0.1715088 0.04641724
vt 0.1715088 0.04641724
vt 0.1715088 0.04641724

g Prop_Small_Table_08_1640_23
usemtl Prop_Small_Table_08_1640_23
usemap Prop_Small_Table_08_1640_23
f 1/1/1 3/3/3 2/2/2
f 1/1/1 4/4/4 3/3/3
f 5/5/5 7/7/7 6/6/6
f 5/5/5 8/8/8 7/7/7
f 9/9/9 11/11/11 10/10/10
f 9/9/9 12/12/12 11/11/11
f 13/13/13 15/15/15 14/14/14
f 13/13/13 16/16/16 15/15/15
f 17/17/17 19/19/19 18/18/18
f 17/17/17 20/20/20 19/19/19
f 21/21/21 23/23/23 22/22/22
f 21/21/21 24/24/24 23/23/23
f 25/25/25 27/27/27 26/26/26
f 28/28/28 25/25/25 26/26/26
f 29/29/29 28/28/28 26/26/26
f 30/30/30 29/29/29 26/26/26
f 31/31/31 30/30/30 26/26/26
f 27/27/27 31/31/31 26/26/26
f 32/32/32 34/34/34 33/33/33
f 34/34/34 35/35/35 33/33/33
f 35/35/35 36/36/36 33/33/33
f 36/36/36 37/37/37 33/33/33
f 37/37/37 38/38/38 33/33/33
f 38/38/38 32/32/32 33/33/33
f 39/39/39 41/41/41 40/40/40
f 39/39/39 42/42/42 41/41/41
f 43/43/43 45/45/45 44/44/44
f 43/43/43 46/46/46 45/45/45
f 47/47/47 49/49/49 48/48/48
f 47/47/47 50/50/50 49/49/49
f 51/51/51 53/53/53 52/52/52
f 51/51/51 54/54/54 53/53/53
f 54/54/54 51/51/51 55/55/55
f 54/54/54 55/55/55 56/56/56
f 52/52/52 53/53/53 57/57/57
f 52/52/52 57/57/57 58/58/58
f 53/53/53 54/54/54 59/59/59
f 53/53/53 59/59/59 60/60/60
f 51/51/51 52/52/52 61/61/61
f 51/51/51 61/61/61 62/62/62
f 63/63/63 65/65/65 64/64/64
f 63/63/63 66/66/66 65/65/65
f 67/67/67 69/69/69 68/68/68
f 67/67/67 70/70/70 69/69/69
f 71/71/71 73/73/73 72/72/72
f 71/71/71 74/74/74 73/73/73
f 75/75/75 77/77/77 76/76/76
f 75/75/75 78/78/78 77/77/77
f 79/79/79 81/81/81 80/80/80
f 79/79/79 82/82/82 81/81/81
f 83/83/83 85/85/85 84/84/84
f 83/83/83 86/86/86 85/85/85
f 87/87/87 89/89/89 88/88/88
f 87/87/87 90/90/90 89/89/89
f 91/91/91 93/93/93 92/92/92
f 91/91/91 94/94/94 93/93/93
f 95/95/95 97/97/97 96/96/96
f 95/95/95 98/98/98 97/97/97
f 99/99/99 101/101/101 100/100/100
f 99/99/99 102/102/102 101/101/101
f 103/103/103 105/105/105 104/104/104
f 103/103/103 106/106/106 105/105/105
f 107/107/107 109/109/109 108/108/108
f 107/107/107 110/110/110 109/109/109
f 111/111/111 113/113/113 112/112/112
f 111/111/111 114/114/114 113/113/113
f 115/115/115 117/117/117 116/116/116
f 115/115/115 118/118/118 117/117/117
f 119/119/119 121/121/121 120/120/120
f 119/119/119 122/122/122 121/121/121
f 123/123/123 125/125/125 124/124/124
f 123/123/123 126/126/126 125/125/125
f 127/127/127 129/129/129 128/128/128
f 127/127/127 130/130/130 129/129/129
f 131/131/131 133/133/133 132/132/132
f 131/131/131 134/134/134 133/133/133
