#Prop_Food_Bowl_03_1097_90.obj

v -0.1955977 0.1445263 -0.1955985
v -0.1614256 0.1445263 -0.1614284
v -0.1614256 0.1445263 0.1614266
v -0.1955976 0.1445263 0.1955987
v 0.1614256 0.1445263 0.1614266
v 0.1955976 0.1445263 0.1955987
v 0.1614256 0.1445263 -0.1614284
v 0.1955976 0.1445263 -0.1955985
v 0.03943907 0.09685402 -0.08857755
v 0.09092699 0.09685402 -0.08857755
v 0.09092699 0.09685402 -0.03708868
v 0.03943907 0.09685402 -0.03708868
v 0.1197185 0 -0.1197185
v -0.1197119 0 -0.1197185
v -0.1197119 0 0.1197167
v 0.1197185 0 0.1197167
v -0.1614256 0.1445263 -0.1614284
v -0.1318569 0.09685402 -0.1318606
v -0.1318569 0.09685402 0.1318627
v -0.1614256 0.1445263 0.1614266
v -0.1614256 0.1445263 0.1614266
v -0.1318569 0.09685402 0.1318627
v 0.1318597 0.09685402 0.1318627
v 0.1614256 0.1445263 0.1614266
v 0.1614256 0.1445263 0.1614266
v 0.1318597 0.09685402 0.1318627
v 0.1318597 0.09685402 -0.1318606
v 0.1614256 0.1445263 -0.1614284
v 0.1614256 0.1445263 -0.1614284
v 0.1318597 0.09685402 -0.1318606
v -0.1318569 0.09685402 -0.1318606
v -0.1614256 0.1445263 -0.1614284
v 0.1955976 0.1445263 -0.1955985
v 0.1197185 0 -0.1197185
v 0.1197185 0 0.1197167
v 0.1955976 0.1445263 0.1955987
v 0.1955976 0.1445263 0.1955987
v 0.1197185 0 0.1197167
v -0.1197119 0 0.1197167
v -0.1955976 0.1445263 0.1955987
v -0.1955976 0.1445263 0.1955987
v -0.1197119 0 0.1197167
v -0.1197119 0 -0.1197185
v -0.1955977 0.1445263 -0.1955985
v -0.1955977 0.1445263 -0.1955985
v -0.1197119 0 -0.1197185
v 0.1197185 0 -0.1197185
v 0.1955976 0.1445263 -0.1955985
v -0.1164411 0.09685402 -0.0671134
v -0.04683336 0.09685402 -0.0671134
v -0.04683365 0.09685402 0.002678394
v -0.1164414 0.09685402 0.002678394
v 0.01479536 0.09685402 0.08837251
v 0.01479527 0.09685402 0.04615679
v 0.05904003 0.09685402 0.04615755
v 0.05904013 0.09685402 0.08837099
v 0.1318597 0.09685402 0.1318627
v 0.09092699 0.09685402 -0.03708868
v 0.09092699 0.09685402 -0.08857755
v 0.1318597 0.09685402 -0.1318606
v 0.03943907 0.09685402 -0.08857755
v -0.1318569 0.09685402 -0.1318606
v -0.1164411 0.09685402 -0.0671134
v -0.1164414 0.09685402 0.002678394
v -0.1318569 0.09685402 0.1318627
v -0.04683365 0.09685402 0.002678394
v 0.03943907 0.09685402 -0.03708868
v -0.04683336 0.09685402 -0.0671134
v 0.05904013 0.09685402 0.08837099
v 0.01479536 0.09685402 0.08837251
v 0.05904003 0.09685402 0.04615755
v 0.01479527 0.09685402 0.04615679
v 0.03943907 0.09685402 -0.03708868
v 0.01479527 0.09685402 0.04615679
v 0.01479536 0.09685402 0.08837251
v 0.03943907 0.09685402 -0.03708868
v 0.01479536 0.09685402 0.08837251
v -0.1318569 0.09685402 0.1318627

vn 0 1 0
vn 0.2589202 0.9305479 0.2589225
vn 0.2589232 0.9305437 -0.2589348
vn 0 1 0
vn -0.2589324 0.9305406 -0.2589371
vn 0 1 0
vn -0.2589294 0.9305448 0.2589248
vn 0 1 0
vn 0 1 0
vn 0 1 0
vn 0 1 0
vn 0 1 0
vn 0 -1 0
vn 0 -1 0
vn 0 -1 0
vn 0 -1 0
vn 0.3187394 0.9478424 0
vn 0.2342344 0.9721801 0
vn 0.1844937 0.9828337 0
vn 0.3187394 0.9478424 0
vn 0 0.9478357 -0.3187592
vn 0 0.9828317 -0.1845041
vn 0 0.9721767 -0.2342482
vn 0 0.9478357 -0.3187592
vn -0.3187513 0.9478384 0
vn -0.2342427 0.9721782 0
vn -0.3187513 0.9478384 0
vn -0.3187513 0.9478384 0
vn 0 0.947841 0.3187434
vn 0 0.947841 0.3187434
vn 0 0.9721795 0.2342372
vn 0 0.947841 0.3187434
vn 0.885391 -0.464847 0
vn 0.885391 -0.464847 0
vn 0.885391 -0.464847 0
vn 0.885391 -0.464847 0
vn 0 -0.4648609 0.8853837
vn 0 -0.4648609 0.8853837
vn 0 -0.4648609 0.8853837
vn 0 -0.4648609 0.8853837
vn -0.8853742 -0.4648791 0
vn -0.8853742 -0.4648791 0
vn -0.8853742 -0.4648791 0
vn -0.8853742 -0.4648791 0
vn 0 -0.4648517 -0.8853886
vn 0 -0.4648517 -0.8853886
vn 0 -0.4648517 -0.8853886
vn 0 -0.4648517 -0.8853886
vn 0 1 0
vn 0 1 0
vn 0 1 0
vn 0 1 0
vn 0 1 0
vn 0 1 0
vn 0 1 0
vn 0 1 0
vn -0.2009777 0.9587568 -0.2009813
vn 0 1 0
vn 0 1 0
vn -0.2589294 0.9305448 0.2589248
vn 0 1 0
vn 0.2009689 0.9587609 0.2009707
vn 0 1 0
vn 0 1 0
vn 0.1635802 0.9728724 -0.1635876
vn 0 1 0
vn 0 1 0
vn 0 1 0
vn 0 1 0
vn 0 1 0
vn 0 1 0
vn 0 1 0
vn 0 1 0
vn 0 1 0
vn 0 1 0
vn 0 1 0
vn 0 1 0
vn 0.1635802 0.9728724 -0.1635876

vt 0.3881836 0.4753418
vt 0.3881836 0.4753418
vt 0.3881836 0.4753418
vt 0.3881836 0.4753418
vt 0.3881836 0.4753418
vt 0.3881836 0.4753418
vt 0.3881836 0.4753418
vt 0.3881836 0.4753418
vt 0.3586426 0.2209473
vt 0.3586426 0.2209473
vt 0.3586426 0.2209473
vt 0.3586426 0.2209473
vt 0.2956543 0.4753418
vt 0.2956543 0.4753418
vt 0.2956543 0.4753418
vt 0.2956543 0.4753418
vt 0.3586426 0.4753418
vt 0.3586426 0.4753418
vt 0.3586426 0.4753418
vt 0.3586426 0.4753418
vt 0.3586426 0.4753418
vt 0.3586426 0.4753418
vt 0.3586426 0.4753418
vt 0.3586426 0.4753418
vt 0.3586426 0.4753418
vt 0.3586426 0.4753418
vt 0.3586426 0.4753418
vt 0.3586426 0.4753418
vt 0.3586426 0.4753418
vt 0.3586426 0.4753418
vt 0.3586426 0.4753418
vt 0.3586426 0.4753418
vt 0.2956543 0.4753418
vt 0.2956543 0.4753418
vt 0.2956543 0.4753418
vt 0.2956543 0.4753418
vt 0.2956543 0.4753418
vt 0.2956543 0.4753418
vt 0.2956543 0.4753418
vt 0.2956543 0.4753418
vt 0.2956543 0.4753418
vt 0.2956543 0.4753418
vt 0.2956543 0.4753418
vt 0.2956543 0.4753418
vt 0.2956543 0.4753418
vt 0.2956543 0.4753418
vt 0.2956543 0.4753418
vt 0.2956543 0.4753418
vt 0.3586426 0.2209473
vt 0.3586426 0.2209473
vt 0.3586426 0.2209473
vt 0.3586426 0.2209473
vt 0.3586426 0.2209473
vt 0.3586426 0.2209473
vt 0.3586426 0.2209473
vt 0.3586426 0.2209473
vt 0.2956543 0.2209473
vt 0.2956543 0.2209473
vt 0.2956543 0.2209473
vt 0.2956543 0.2209473
vt 0.2956543 0.2209473
vt 0.2956543 0.2209473
vt 0.2956543 0.2209473
vt 0.2956543 0.2209473
vt 0.2956543 0.2209473
vt 0.2956543 0.2209473
vt 0.2956543 0.2209473
vt 0.2956543 0.2209473
vt 0.2956543 0.2209473
vt 0.2956543 0.2209473
vt 0.2956543 0.2209473
vt 0.2956543 0.2209473
vt 0.2956543 0.2209473
vt 0.2956543 0.2209473
vt 0.2956543 0.2209473
vt 0.2956543 0.2209473
vt 0.2956543 0.2209473
vt 0.2956543 0.2209473

g Prop_Food_Bowl_03_1097_90
usemtl Prop_Food_Bowl_03_1097_90
usemap Prop_Food_Bowl_03_1097_90
f 1/1/1 3/3/3 2/2/2
f 1/1/1 4/4/4 3/3/3
f 4/4/4 5/5/5 3/3/3
f 4/4/4 6/6/6 5/5/5
f 7/7/7 5/5/5 6/6/6
f 7/7/7 6/6/6 8/8/8
f 8/8/8 2/2/2 7/7/7
f 8/8/8 1/1/1 2/2/2
f 9/9/9 11/11/11 10/10/10
f 9/9/9 12/12/12 11/11/11
f 13/13/13 15/15/15 14/14/14
f 13/13/13 16/16/16 15/15/15
f 17/17/17 19/19/19 18/18/18
f 17/17/17 20/20/20 19/19/19
f 21/21/21 23/23/23 22/22/22
f 21/21/21 24/24/24 23/23/23
f 25/25/25 27/27/27 26/26/26
f 25/25/25 28/28/28 27/27/27
f 29/29/29 31/31/31 30/30/30
f 29/29/29 32/32/32 31/31/31
f 33/33/33 35/35/35 34/34/34
f 33/33/33 36/36/36 35/35/35
f 37/37/37 39/39/39 38/38/38
f 37/37/37 40/40/40 39/39/39
f 41/41/41 43/43/43 42/42/42
f 41/41/41 44/44/44 43/43/43
f 45/45/45 47/47/47 46/46/46
f 45/45/45 48/48/48 47/47/47
f 49/49/49 51/51/51 50/50/50
f 49/49/49 52/52/52 51/51/51
f 53/53/53 55/55/55 54/54/54
f 53/53/53 56/56/56 55/55/55
f 57/57/57 59/59/59 58/58/58
f 57/57/57 60/60/60 59/59/59
f 60/60/60 61/61/61 59/59/59
f 60/60/60 62/62/62 61/61/61
f 61/61/61 62/62/62 63/63/63
f 62/62/62 64/64/64 63/63/63
f 62/62/62 65/65/65 64/64/64
f 65/65/65 66/66/66 64/64/64
f 65/65/65 67/67/67 66/66/66
f 67/67/67 68/68/68 66/66/66
f 67/67/67 61/61/61 68/68/68
f 61/61/61 63/63/63 68/68/68
f 65/65/65 57/57/57 69/69/69
f 65/65/65 69/69/69 70/70/70
f 57/57/57 71/71/71 69/69/69
f 57/57/57 58/58/58 71/71/71
f 58/58/58 72/72/72 71/71/71
f 58/58/58 67/67/67 72/72/72
f 73/73/73 75/75/75 74/74/74
f 76/76/76 78/78/78 77/77/77
