#Prop_Couch_04_1584_194.obj

v 0.9915412 1.207165 -0.9581529
v 0.6366056 1.207165 -0.9581515
v 0.9915412 0 -0.9581529
v -0.9915386 0 -0.958151
v -0.6366031 1.207165 -0.9581525
v -0.9915386 1.207165 -0.958151
v -0.6366031 1.54243 -0.9581525
v 0.6366056 1.54243 -0.9581515
v 0.9915412 1.207165 -0.9581529
v 0.6366011 1.207165 -0.3777249
v 0.6366056 1.207165 -0.9581515
v 0.6366073 1.207165 0.8175792
v 0.9915332 1.207165 0.8175839
v 0.9915332 0 0.8175839
v 0.6366073 0.3499207 0.8175792
v 0.9915332 1.207165 0.8175839
v 0.6366073 0.6998414 0.8175792
v 0.6366073 1.207165 0.8175792
v -0.6366111 0.3499207 0.8175843
v -0.9915354 0 0.817582
v -0.9915354 1.207165 0.817582
v -0.6366111 0.6998414 0.8175843
v -0.6366111 1.207165 0.8175843
v -0.9915386 0 -0.958151
v -0.9915354 0 0.817582
v 0.9915332 0 0.8175839
v 0.9915412 0 -0.9581529
v -0.9915386 1.207165 -0.958151
v -0.9915354 1.207165 0.817582
v -0.9915354 0 0.817582
v -0.9915386 0 -0.958151
v -0.6366076 1.207165 -0.3777259
v -0.9915386 1.207165 -0.958151
v -0.6366031 1.207165 -0.9581525
v -0.6366111 1.207165 0.8175843
v -0.9915354 1.207165 0.817582
v 0.6366056 1.54243 -0.9581515
v 0.6366011 1.54243 -0.3777249
v -0.6366076 1.54243 -0.3777259
v -0.6366031 1.54243 -0.9581525
v 0.9915412 1.207165 -0.9581529
v 0.9915412 0 -0.9581529
v 0.9915332 0 0.8175839
v 0.9915332 1.207165 0.8175839
v -0.6366076 0.6998414 -0.3777259
v 0.6366011 0.6998414 -0.3777249
v 0.6366073 0.6998414 0.8175792
v -0.6366111 0.6998414 0.8175843
v -0.6366056 0.6998414 0.9581515
v 0.6366031 0.6998414 0.9581525
v -0.6366076 1.207165 -0.3777259
v 0.6366011 1.207165 -0.3777249
v 0.6366011 0.6998414 -0.3777249
v -0.6366076 0.6998414 -0.3777259
v 0.6366011 1.54243 -0.3777249
v -0.6366076 1.54243 -0.3777259
v -0.6366111 0.6998414 0.8175843
v -0.6366111 1.207165 0.8175843
v -0.6366076 1.207165 -0.3777259
v -0.6366076 0.6998414 -0.3777259
v 0.6366011 0.6998414 -0.3777249
v 0.6366011 1.207165 -0.3777249
v 0.6366073 1.207165 0.8175792
v 0.6366073 0.6998414 0.8175792
v 0.6366011 1.207165 -0.3777249
v 0.6366011 1.54243 -0.3777249
v 0.6366056 1.54243 -0.9581515
v 0.6366056 1.207165 -0.9581515
v -0.6366031 1.207165 -0.9581525
v -0.6366031 1.54243 -0.9581525
v -0.6366076 1.54243 -0.3777259
v -0.6366076 1.207165 -0.3777259
v -0.6366056 0.6998414 0.9581515
v 0.6366031 0.6998414 0.9581525
v 0.6366031 0.3499207 0.9581525
v -0.6366056 0.3499207 0.9581515
v -0.6366111 0.6998414 0.8175843
v -0.6366056 0.6998414 0.9581515
v -0.6366056 0.3499207 0.9581515
v -0.6366111 0.3499207 0.8175843
v -0.6366056 0.3499207 0.9581515
v 0.6366031 0.3499207 0.9581525
v 0.6366073 0.3499207 0.8175792
v -0.6366111 0.3499207 0.8175843
v 0.6366073 0.3499207 0.8175792
v 0.6366031 0.3499207 0.9581525
v 0.6366031 0.6998414 0.9581525
v 0.6366073 0.6998414 0.8175792

vn 0.5377014 0 -0.8431355
vn 0.5377014 0 -0.8431355
vn 0.5377014 0 -0.8431355
vn 0.5377014 0 -0.8431355
vn 0.5377014 0 -0.8431355
vn 0.5377014 0 -0.8431355
vn 0.5377014 0 -0.8431355
vn 0.5377014 0 -0.8431355
vn 0 0.9999999 0
vn 0 0.9999999 0
vn 0 0.9999999 0
vn 0 0.9999999 0
vn 0 0.9999999 0
vn -0.5377014 0 0.8431355
vn -0.5377014 0 0.8431355
vn -0.5377014 0 0.8431355
vn -0.5377014 0 0.8431355
vn -0.5377014 0 0.8431355
vn -0.5377014 0 0.8431355
vn -0.5377014 0 0.8431355
vn -0.5377014 0 0.8431355
vn -0.5377014 0 0.8431355
vn -0.5377014 0 0.8431355
vn 0 -0.9999999 0
vn 0 -0.9999999 0
vn 0 -0.9999999 0
vn 0 -0.9999999 0
vn -0.8431355 0 -0.5377014
vn -0.8431355 0 -0.5377014
vn -0.8431355 0 -0.5377014
vn -0.8431355 0 -0.5377014
vn 0 0.9999999 0
vn 0 0.9999999 0
vn 0 0.9999999 0
vn 0 0.9999999 0
vn 0 0.9999999 0
vn 0 0.9999999 0
vn 0 0.9999999 0
vn 0 0.9999999 0
vn 0 0.9999999 0
vn 0.8431355 0 0.5377014
vn 0.8431355 0 0.5377014
vn 0.8431355 0 0.5377014
vn 0.8431355 0 0.5377014
vn 0 0.9999999 0
vn 0 0.9999999 0
vn 0 0.9999999 0
vn 0 0.9999999 0
vn 0 0.9999999 0
vn 0 0.9999999 0
vn -0.5377014 0 0.8431355
vn -0.5377014 0 0.8431355
vn -0.5377014 0 0.8431355
vn -0.5377014 0 0.8431355
vn -0.5377014 0 0.8431355
vn -0.5377014 0 0.8431355
vn 0.8431355 0 0.5377014
vn 0.8431355 0 0.5377014
vn 0.8431355 0 0.5377014
vn 0.8431355 0 0.5377014
vn -0.8431355 0 -0.5377014
vn -0.8431355 0 -0.5377014
vn -0.8431355 0 -0.5377014
vn -0.8431355 0 -0.5377014
vn 0.8431355 0 0.5377014
vn 0.8431355 0 0.5377014
vn 0.8431355 0 0.5377014
vn 0.8431355 0 0.5377014
vn -0.8431355 0 -0.5377014
vn -0.8431355 0 -0.5377014
vn -0.8431355 0 -0.5377014
vn -0.8431355 0 -0.5377014
vn -0.5377014 0 0.8431355
vn -0.5377014 0 0.8431355
vn -0.5377014 0 0.8431355
vn -0.5377014 0 0.8431355
vn -0.8431355 0 -0.5377014
vn -0.8431355 0 -0.5377014
vn -0.8431355 0 -0.5377014
vn -0.8431355 0 -0.5377014
vn 0 -0.9999999 0
vn 0 -0.9999999 0
vn 0 -0.9999999 0
vn 0 -0.9999999 0
vn 0.8431355 0 0.5377014
vn 0.8431355 0 0.5377014
vn 0.8431355 0 0.5377014
vn 0.8431355 0 0.5377014

vt 0.2331543 0.442627
vt 0.2331543 0.442627
vt 0.2331543 0.442627
vt 0.2331543 0.442627
vt 0.2331543 0.442627
vt 0.2331543 0.442627
vt 0.2331543 0.442627
vt 0.2331543 0.442627
vt 0.3261719 0.442627
vt 0.3261719 0.442627
vt 0.3261719 0.442627
vt 0.3261719 0.442627
vt 0.3261719 0.442627
vt 0.2331543 0.442627
vt 0.2331543 0.442627
vt 0.2331543 0.442627
vt 0.2331543 0.442627
vt 0.2331543 0.442627
vt 0.2331543 0.442627
vt 0.2331543 0.442627
vt 0.2331543 0.442627
vt 0.2331543 0.442627
vt 0.2331543 0.442627
vt 0.1409912 0.442627
vt 0.1409912 0.442627
vt 0.1409912 0.442627
vt 0.1409912 0.442627
vt 0.1715088 0.442627
vt 0.1715088 0.442627
vt 0.1715088 0.442627
vt 0.1715088 0.442627
vt 0.3261719 0.442627
vt 0.3261719 0.442627
vt 0.3261719 0.442627
vt 0.3261719 0.442627
vt 0.3261719 0.442627
vt 0.3261719 0.442627
vt 0.3261719 0.442627
vt 0.3261719 0.442627
vt 0.3261719 0.442627
vt 0.1715088 0.442627
vt 0.1715088 0.442627
vt 0.1715088 0.442627
vt 0.1715088 0.442627
vt 0.3261719 0.442627
vt 0.3261719 0.442627
vt 0.3261719 0.442627
vt 0.3261719 0.442627
vt 0.3261719 0.442627
vt 0.3261719 0.442627
vt 0.2331543 0.442627
vt 0.2331543 0.442627
vt 0.2331543 0.442627
vt 0.2331543 0.442627
vt 0.2331543 0.442627
vt 0.2331543 0.442627
vt 0.2033691 0.442627
vt 0.2033691 0.442627
vt 0.2033691 0.442627
vt 0.2033691 0.442627
vt 0.2033691 0.442627
vt 0.2033691 0.442627
vt 0.2033691 0.442627
vt 0.2033691 0.442627
vt 0.1715088 0.442627
vt 0.1715088 0.442627
vt 0.1715088 0.442627
vt 0.1715088 0.442627
vt 0.1715088 0.442627
vt 0.1715088 0.442627
vt 0.1715088 0.442627
vt 0.1715088 0.442627
vt 0.2629395 0.442627
vt 0.2629395 0.442627
vt 0.2629395 0.442627
vt 0.2629395 0.442627
vt 0.2331543 0.442627
vt 0.2331543 0.442627
vt 0.2331543 0.442627
vt 0.2331543 0.442627
vt 0.2629395 0.442627
vt 0.2629395 0.442627
vt 0.2629395 0.442627
vt 0.2629395 0.442627
vt 0.2331543 0.442627
vt 0.2331543 0.442627
vt 0.2331543 0.442627
vt 0.2331543 0.442627

g Prop_Couch_04_1584_194
usemtl Prop_Couch_04_1584_194
usemap Prop_Couch_04_1584_194
f 1/1/1 3/3/3 2/2/2
f 3/3/3 4/4/4 2/2/2
f 2/2/2 4/4/4 5/5/5
f 6/6/6 5/5/5 4/4/4
f 2/2/2 5/5/5 7/7/7
f 2/2/2 7/7/7 8/8/8
f 9/9/9 11/11/11 10/10/10
f 9/9/9 10/10/10 12/12/12
f 9/9/9 12/12/12 13/13/13
f 14/14/14 16/16/16 15/15/15
f 15/15/15 16/16/16 17/17/17
f 16/16/16 18/18/18 17/17/17
f 19/19/19 14/14/14 15/15/15
f 19/19/19 20/20/20 14/14/14
f 20/20/20 19/19/19 21/21/21
f 19/19/19 22/22/22 21/21/21
f 22/22/22 23/23/23 21/21/21
f 24/24/24 26/26/26 25/25/25
f 24/24/24 27/27/27 26/26/26
f 28/28/28 30/30/30 29/29/29
f 28/28/28 31/31/31 30/30/30
f 32/32/32 34/34/34 33/33/33
f 35/35/35 32/32/32 33/33/33
f 35/35/35 33/33/33 36/36/36
f 37/37/37 39/39/39 38/38/38
f 37/37/37 40/40/40 39/39/39
f 41/41/41 43/43/43 42/42/42
f 41/41/41 44/44/44 43/43/43
f 45/45/45 47/47/47 46/46/46
f 45/45/45 48/48/48 47/47/47
f 49/49/49 47/47/47 48/48/48
f 49/49/49 50/50/50 47/47/47
f 51/51/51 53/53/53 52/52/52
f 51/51/51 54/54/54 53/53/53
f 55/55/55 51/51/51 52/52/52
f 55/55/55 56/56/56 51/51/51
f 57/57/57 59/59/59 58/58/58
f 57/57/57 60/60/60 59/59/59
f 61/61/61 63/63/63 62/62/62
f 61/61/61 64/64/64 63/63/63
f 65/65/65 67/67/67 66/66/66
f 65/65/65 68/68/68 67/67/67
f 69/69/69 71/71/71 70/70/70
f 69/69/69 72/72/72 71/71/71
f 73/73/73 75/75/75 74/74/74
f 73/73/73 76/76/76 75/75/75
f 77/77/77 79/79/79 78/78/78
f 77/77/77 80/80/80 79/79/79
f 81/81/81 83/83/83 82/82/82
f 81/81/81 84/84/84 83/83/83
f 85/85/85 87/87/87 86/86/86
f 85/85/85 88/88/88 87/87/87
