#Prop_Tv_06_1556_20.obj

v -0.7375107 -5.960464E-08 -0.2204189
v -0.7375107 0.1036496 -0.2204189
v -0.7375107 0.1036496 0.2204208
v -0.7375107 -5.960464E-08 0.2204208
v 0.7375107 0.1036496 -0.2204189
v 0.7375107 -5.960464E-08 -0.2204189
v 0.7375107 -5.960464E-08 0.2204208
v 0.7375107 0.1036496 0.2204208
v 0.7375107 -5.960464E-08 -0.2204189
v -0.7375107 -5.960464E-08 -0.2204189
v -0.7375107 -5.960464E-08 0.2204208
v 0.7375107 -5.960464E-08 0.2204208
v -0.7375107 -5.960464E-08 0.2204208
v -0.7375107 0.1036496 0.2204208
v 0.7375107 0.1036496 0.2204208
v 0.7375107 -5.960464E-08 0.2204208
v 0.7375107 -5.960464E-08 -0.2204189
v 0.7375107 0.1036496 -0.2204189
v -0.7375107 0.1036496 -0.2204189
v -0.7375107 -5.960464E-08 -0.2204189
v -0.7375107 0.1036496 -0.2204189
v -0.07779694 0.1036496 -0.07779884
v -0.07779694 0.1036496 0.07779503
v -0.7375107 0.1036496 0.2204208
v 0.07779694 0.1036496 0.07779503
v 0.7375107 0.1036496 0.2204208
v 0.07779694 0.1036496 -0.07779884
v 0.7375107 0.1036496 -0.2204189
v -0.07779694 0.1036496 -0.07779884
v -0.07779694 0.2903007 -0.07779884
v -0.07779694 0.2250807 0.07779503
v -0.07779694 0.1036496 0.07779503
v -0.07779694 0.1036496 0.07779503
v -0.07779694 0.2250807 0.07779503
v 0.07779694 0.2250807 0.07779503
v 0.07779694 0.1036496 0.07779503
v 0.07779694 0.1036496 0.07779503
v 0.07779694 0.2250807 0.07779503
v 0.07779694 0.2903007 -0.07779884
v 0.07779694 0.1036496 -0.07779884
v 0.07779694 0.1036496 -0.07779884
v 0.07779694 0.2903007 -0.07779884
v -0.07779694 0.2903007 -0.07779884
v -0.07779694 0.1036496 -0.07779884
v -0.7649612 0.2123035 -0.01316261
v -0.7649612 1.272133 -0.01316261
v -0.7649612 1.272133 0.1036072
v -0.7649612 0.2123035 0.1036072
v -0.7649612 1.272133 -0.01316261
v 0.7649612 1.272133 -0.01316261
v 0.7649612 1.272133 0.1036072
v -0.7649612 1.272133 0.1036072
v 0.7649612 1.272133 -0.01316261
v 0.7649612 0.2123035 -0.01316261
v 0.7649612 0.2123035 0.1036072
v 0.7649612 1.272133 0.1036072
v 0.7649612 0.2123035 -0.01316261
v -0.7649612 0.2123035 -0.01316261
v -0.7649612 0.2123035 0.1036072
v 0.7649612 0.2123035 0.1036072
v -0.6932983 0.2911038 -0.1198196
v 0.6932907 0.2911038 -0.1198196
v -0.6874924 0.4229861 0.07004738
v -0.6874924 1.160283 0.07004738
v 0.6874924 1.160283 0.07004738
v 0.6874924 0.4229861 0.07004738
v 0.6932907 0.2911038 -0.1198196
v 0.6932907 1.193332 -0.1198196
v -0.6932983 1.193332 -0.1198196
v -0.6932983 0.2911038 -0.1198196
v -0.1428757 0.2753245 0.1036072
v -0.1428757 0.3242933 0.1036072
v 0.1428757 0.3242933 0.1036072
v 0.142868 0.2753245 0.1036072
v 0.7649612 0.2123035 0.1036072
v 0.7092133 0.3873143 0.1036072
v 0.7092133 1.195954 0.1036072
v 0.7649612 1.272133 0.1036072
v -0.7092209 1.195954 0.1036072
v -0.7649612 1.272133 0.1036072
v -0.7092209 0.3873143 0.1036072
v -0.7649612 0.2123035 0.1036072
v 0.142868 0.2753245 0.1036072
v -0.1428757 0.2753245 0.1036072
v 0.1428757 0.3242933 0.1036072
v -0.1428757 0.3242933 0.1036072
v -0.7092209 0.3873143 0.1036072
v -0.6874924 0.4229861 0.07004738
v 0.6874924 0.4229861 0.07004738
v 0.7092133 0.3873143 0.1036072
v 0.7092133 0.3873143 0.1036072
v 0.6874924 0.4229861 0.07004738
v 0.6874924 1.160283 0.07004738
v 0.7092133 1.195954 0.1036072
v 0.7092133 1.195954 0.1036072
v 0.6874924 1.160283 0.07004738
v -0.6874924 1.160283 0.07004738
v -0.7092209 1.195954 0.1036072
v -0.7092209 1.195954 0.1036072
v -0.6874924 1.160283 0.07004738
v -0.6874924 0.4229861 0.07004738
v -0.7092209 0.3873143 0.1036072
v -0.7649612 0.2123035 -0.01316261
v -0.6932983 0.2911038 -0.1198196
v -0.6932983 1.193332 -0.1198196
v -0.7649612 1.272133 -0.01316261
v -0.7649612 1.272133 -0.01316261
v -0.6932983 1.193332 -0.1198196
v 0.6932907 1.193332 -0.1198196
v 0.7649612 1.272133 -0.01316261
v 0.7649612 1.272133 -0.01316261
v 0.6932907 1.193332 -0.1198196
v 0.6932907 0.2911038 -0.1198196
v 0.7649612 0.2123035 -0.01316261

vn -1 0 0
vn -1 0 0
vn -1 0 0
vn -1 0 0
vn 1 0 0
vn 1 0 0
vn 1 0 0
vn 1 0 0
vn 0 -1 0
vn 0 -1 0
vn 0 -1 0
vn 0 -1 0
vn 0 0 1
vn 0 0 1
vn 0 0 1
vn 0 0 1
vn 0 0 -1
vn 0 0 -1
vn 0 0 -1
vn 0 0 -1
vn 0 1 0
vn 0 1 0
vn 0 1 0
vn 0 1 0
vn 0 1 0
vn 0 1 0
vn 0 1 0
vn 0 1 0
vn -1 0 0
vn -1 0 0
vn -1 0 0
vn -1 0 0
vn 0 0 1
vn 0 0 1
vn 0 0 1
vn 0 0 1
vn 1 0 0
vn 1 0 0
vn 1 0 0
vn 1 0 0
vn 0 0 -1
vn 0 0 -1
vn 0 0 -1
vn 0 0 -1
vn -0.9565631 0 -0.2915252
vn -0.9565631 0 -0.2915252
vn -1 0 0
vn -1 0 0
vn 0 0.9498147 -0.3128131
vn 0 0.9498147 -0.3128131
vn 0 1 0
vn 0 1 0
vn 0.9565622 0 -0.2915281
vn 0.9565622 0 -0.2915281
vn 1 0 0
vn 1 0 0
vn 0 -0.9498146 -0.3128134
vn 0 -0.9498146 -0.3128134
vn 0 -1 0
vn 0 -1 0
vn 0 -0.4504279 -0.8928128
vn 0 -0.4504279 -0.8928128
vn 0.3335215 0.2722393 0.9025792
vn 0.3335217 -0.272241 0.9025786
vn -0.3335217 -0.272241 0.9025786
vn -0.3335215 0.2722393 0.9025792
vn 0.339798 -0.3292657 -0.8809775
vn 0.339798 0.3292659 -0.8809775
vn -0.3397999 0.3292664 -0.8809766
vn -0.3397998 -0.3292661 -0.8809767
vn 0 0 1
vn 0 0 1
vn 0 0 1
vn 0 0 1
vn 0 0 1
vn -0.1904812 0.1554817 0.9692999
vn -0.2435667 -0.1988142 0.9492882
vn 0 0 1
vn 0.2435667 -0.1988142 0.9492882
vn 0 0 1
vn 0.1904812 0.1554817 0.9692999
vn 0 0 1
vn 0 0 1
vn 0 0 1
vn 0 0 1
vn 0 0 1
vn 0 0.1807586 0.9835276
vn 0 0.3685516 0.9296073
vn 0 0.3685516 0.9296073
vn 0 0.1807586 0.9835276
vn -0.2305263 0 0.9730661
vn -0.4777974 0 0.8784701
vn -0.4777974 0 0.8784701
vn -0.3134222 0 0.9496139
vn 0 -0.2435847 0.9698796
vn 0 -0.3685539 0.9296064
vn 0 -0.3685539 0.9296064
vn 0 -0.2435847 0.9698796
vn 0.3134222 0 0.9496139
vn 0.4777974 0 0.8784701
vn 0.4777974 0 0.8784701
vn 0.2305263 0 0.9730661
vn -0.9565631 0 -0.2915252
vn -0.4702528 0 -0.8825318
vn -0.4702528 0 -0.8825318
vn -0.9565631 0 -0.2915252
vn 0 0.9498147 -0.3128131
vn 0 0.4504282 -0.8928127
vn 0 0.4504282 -0.8928127
vn 0 0.9498147 -0.3128131
vn 0.9565622 0 -0.2915281
vn 0.4702501 0 -0.8825332
vn 0.4702501 0 -0.8825332
vn 0.9565622 0 -0.2915281

vt 0.1409912 0.4753418
vt 0.1409912 0.4753418
vt 0.1409912 0.4753418
vt 0.1409912 0.4753418
vt 0.1409912 0.4753418
vt 0.1409912 0.4753418
vt 0.1409912 0.4753418
vt 0.1409912 0.4753418
vt 0.1715088 0.4753418
vt 0.1715088 0.4753418
vt 0.1715088 0.4753418
vt 0.1715088 0.4753418
vt 0.1715088 0.4753418
vt 0.1715088 0.4753418
vt 0.1715088 0.4753418
vt 0.1715088 0.4753418
vt 0.1715088 0.4753418
vt 0.1715088 0.4753418
vt 0.1715088 0.4753418
vt 0.1715088 0.4753418
vt 0.2033691 0.4753418
vt 0.2033691 0.4753418
vt 0.2033691 0.4753418
vt 0.2033691 0.4753418
vt 0.2033691 0.4753418
vt 0.2033691 0.4753418
vt 0.2033691 0.4753418
vt 0.2033691 0.4753418
vt 0.1409912 0.4753418
vt 0.1409912 0.4753418
vt 0.1409912 0.4753418
vt 0.1409912 0.4753418
vt 0.1715088 0.4753418
vt 0.1715088 0.4753418
vt 0.1715088 0.4753418
vt 0.1715088 0.4753418
vt 0.1409912 0.4753418
vt 0.1409912 0.4753418
vt 0.1409912 0.4753418
vt 0.1409912 0.4753418
vt 0.1715088 0.4753418
vt 0.1715088 0.4753418
vt 0.1715088 0.4753418
vt 0.1715088 0.4753418
vt 0.1098633 0.4753418
vt 0.1098633 0.4753418
vt 0.1098633 0.4753418
vt 0.1098633 0.4753418
vt 0.2033691 0.4753418
vt 0.2033691 0.4753418
vt 0.2033691 0.4753418
vt 0.2033691 0.4753418
vt 0.1098633 0.4753418
vt 0.1098633 0.4753418
vt 0.1098633 0.4753418
vt 0.1098633 0.4753418
vt 0.1098633 0.4753418
vt 0.1098633 0.4753418
vt 0.1098633 0.4753418
vt 0.1098633 0.4753418
vt 0.1098633 0.4753418
vt 0.1098633 0.4753418
vt 0.1715088 0.4753418
vt 0.1715088 0.4753418
vt 0.1715088 0.4753418
vt 0.1715088 0.4753418
vt 0.1715088 0.4753418
vt 0.1715088 0.4753418
vt 0.1715088 0.4753418
vt 0.1715088 0.4753418
vt 0.3261719 0.4753418
vt 0.3261719 0.4753418
vt 0.3261719 0.4753418
vt 0.3261719 0.4753418
vt 0.1409912 0.4753418
vt 0.1409912 0.4753418
vt 0.1409912 0.4753418
vt 0.1409912 0.4753418
vt 0.1409912 0.4753418
vt 0.1409912 0.4753418
vt 0.1409912 0.4753418
vt 0.1409912 0.4753418
vt 0.1409912 0.4753418
vt 0.1409912 0.4753418
vt 0.1409912 0.4753418
vt 0.1409912 0.4753418
vt 0.1098633 0.4753418
vt 0.1098633 0.4753418
vt 0.1098633 0.4753418
vt 0.1098633 0.4753418
vt 0.1098633 0.4753418
vt 0.1098633 0.4753418
vt 0.1098633 0.4753418
vt 0.1098633 0.4753418
vt 0.1098633 0.4753418
vt 0.1098633 0.4753418
vt 0.1098633 0.4753418
vt 0.1098633 0.4753418
vt 0.1098633 0.4753418
vt 0.1098633 0.4753418
vt 0.1098633 0.4753418
vt 0.1098633 0.4753418
vt 0.1409912 0.4753418
vt 0.1409912 0.4753418
vt 0.1409912 0.4753418
vt 0.1409912 0.4753418
vt 0.1715088 0.4753418
vt 0.1715088 0.4753418
vt 0.1715088 0.4753418
vt 0.1715088 0.4753418
vt 0.1409912 0.4753418
vt 0.1409912 0.4753418
vt 0.1409912 0.4753418
vt 0.1409912 0.4753418

g Prop_Tv_06_1556_20
usemtl Prop_Tv_06_1556_20
usemap Prop_Tv_06_1556_20
f 1/1/1 3/3/3 2/2/2
f 1/1/1 4/4/4 3/3/3
f 5/5/5 7/7/7 6/6/6
f 5/5/5 8/8/8 7/7/7
f 9/9/9 11/11/11 10/10/10
f 9/9/9 12/12/12 11/11/11
f 13/13/13 15/15/15 14/14/14
f 13/13/13 16/16/16 15/15/15
f 17/17/17 19/19/19 18/18/18
f 17/17/17 20/20/20 19/19/19
f 21/21/21 23/23/23 22/22/22
f 21/21/21 24/24/24 23/23/23
f 24/24/24 25/25/25 23/23/23
f 24/24/24 26/26/26 25/25/25
f 26/26/26 27/27/27 25/25/25
f 26/26/26 28/28/28 27/27/27
f 28/28/28 22/22/22 27/27/27
f 28/28/28 21/21/21 22/22/22
f 29/29/29 31/31/31 30/30/30
f 29/29/29 32/32/32 31/31/31
f 33/33/33 35/35/35 34/34/34
f 33/33/33 36/36/36 35/35/35
f 37/37/37 39/39/39 38/38/38
f 37/37/37 40/40/40 39/39/39
f 41/41/41 43/43/43 42/42/42
f 41/41/41 44/44/44 43/43/43
f 45/45/45 47/47/47 46/46/46
f 45/45/45 48/48/48 47/47/47
f 49/49/49 51/51/51 50/50/50
f 49/49/49 52/52/52 51/51/51
f 53/53/53 55/55/55 54/54/54
f 53/53/53 56/56/56 55/55/55
f 57/57/57 59/59/59 58/58/58
f 57/57/57 60/60/60 59/59/59
f 57/57/57 58/58/58 61/61/61
f 57/57/57 61/61/61 62/62/62
f 63/63/63 65/65/65 64/64/64
f 63/63/63 66/66/66 65/65/65
f 67/67/67 69/69/69 68/68/68
f 67/67/67 70/70/70 69/69/69
f 71/71/71 73/73/73 72/72/72
f 71/71/71 74/74/74 73/73/73
f 75/75/75 77/77/77 76/76/76
f 75/75/75 78/78/78 77/77/77
f 78/78/78 79/79/79 77/77/77
f 78/78/78 80/80/80 79/79/79
f 80/80/80 81/81/81 79/79/79
f 80/80/80 82/82/82 81/81/81
f 82/82/82 75/75/75 83/83/83
f 82/82/82 83/83/83 84/84/84
f 81/81/81 82/82/82 84/84/84
f 75/75/75 85/85/85 83/83/83
f 75/75/75 76/76/76 85/85/85
f 76/76/76 86/86/86 85/85/85
f 76/76/76 81/81/81 86/86/86
f 81/81/81 84/84/84 86/86/86
f 87/87/87 89/89/89 88/88/88
f 87/87/87 90/90/90 89/89/89
f 91/91/91 93/93/93 92/92/92
f 91/91/91 94/94/94 93/93/93
f 95/95/95 97/97/97 96/96/96
f 95/95/95 98/98/98 97/97/97
f 99/99/99 101/101/101 100/100/100
f 99/99/99 102/102/102 101/101/101
f 103/103/103 105/105/105 104/104/104
f 103/103/103 106/106/106 105/105/105
f 107/107/107 109/109/109 108/108/108
f 107/107/107 110/110/110 109/109/109
f 111/111/111 113/113/113 112/112/112
f 111/111/111 114/114/114 113/113/113
