#Prop_shelf_01_970_101.obj

v -1.673101 0.6291682 -0.4167065
v -1.673101 0.7391115 -0.4167065
v -1.673101 0.7391115 0.4167022
v -1.673101 0.6291682 0.4167022
v -1.673101 0.7391115 -0.4167065
v 1.673102 0.7391115 -0.4167065
v 1.673102 0.7391115 0.4167022
v -1.673101 0.7391115 0.4167022
v 1.673102 0.7391115 -0.4167065
v 1.673102 0.6291682 -0.4167065
v 1.673102 0.6291682 0.4167022
v 1.673102 0.7391115 0.4167022
v 1.673102 0.6291682 -0.4167065
v -1.673101 0.6291682 -0.4167065
v -1.673101 0.6291682 0.4167022
v 1.673102 0.6291682 0.4167022
v -1.673101 0.6291682 0.4167022
v -1.673101 0.7391115 0.4167022
v 1.673102 0.7391115 0.4167022
v 1.673102 0.6291682 0.4167022
v 1.673102 0.6291682 -0.4167065
v 1.673102 0.7391115 -0.4167065
v -1.673101 0.7391115 -0.4167065
v -1.673101 0.6291682 -0.4167065
v 1.46532 4.190952E-08 -0.3816912
v 1.46532 0.6291682 -0.3816912
v 1.46532 0.6291682 0.2728079
v 1.46532 0.4970658 0.2728079
v 1.46532 0.6291682 -0.3816912
v 1.61283 0.6291682 -0.3816912
v 1.61283 0.6291682 0.2728079
v 1.46532 0.6291682 0.2728079
v 1.61283 0.6291682 -0.3816912
v 1.61283 4.190952E-08 -0.3816912
v 1.61283 0.4970658 0.2728079
v 1.61283 0.6291682 0.2728079
v 1.61283 4.190952E-08 -0.3816912
v 1.46532 4.190952E-08 -0.3816912
v 1.46532 0.4970658 0.2728079
v 1.61283 0.4970658 0.2728079
v 1.61283 0.6291682 0.2728079
v 1.46532 0.6291682 0.2728079
v 1.61283 4.190952E-08 -0.3816912
v 1.61283 0.6291682 -0.3816912
v 1.46532 0.6291682 -0.3816912
v 1.46532 4.190952E-08 -0.3816912
v -1.612825 4.190952E-08 -0.3816874
v -1.612825 0.6291682 -0.3816874
v -1.612825 0.6291682 0.2728078
v -1.612825 0.4970658 0.2728078
v -1.612825 0.6291682 -0.3816874
v -1.465315 0.6291682 -0.3816874
v -1.465315 0.6291682 0.2728078
v -1.612825 0.6291682 0.2728078
v -1.465315 0.6291682 -0.3816874
v -1.465315 4.190952E-08 -0.3816874
v -1.465315 0.4970658 0.2728078
v -1.465315 0.6291682 0.2728078
v -1.465315 4.190952E-08 -0.3816874
v -1.612825 4.190952E-08 -0.3816874
v -1.612825 0.4970658 0.2728078
v -1.465315 0.4970658 0.2728078
v -1.465315 0.6291682 0.2728078
v -1.612825 0.6291682 0.2728078
v -1.465315 4.190952E-08 -0.3816874
v -1.465315 0.6291682 -0.3816874
v -1.612825 0.6291682 -0.3816874
v -1.612825 4.190952E-08 -0.3816874

vn -1 0 0
vn -1 0 0
vn -1 0 0
vn -1 0 0
vn 0 0.9999998 0
vn 0 0.9999998 0
vn 0 0.9999998 0
vn 0 0.9999998 0
vn 1 0 0
vn 1 0 0
vn 1 0 0
vn 1 0 0
vn 0 -0.9999998 0
vn 0 -0.9999998 0
vn 0 -0.9999998 0
vn 0 -0.9999998 0
vn 0 0 1
vn 0 0 1
vn 0 0 1
vn 0 0 1
vn 0 0 -1
vn 0 0 -1
vn 0 0 -1
vn 0 0 -1
vn -1 0 0
vn -1 0 0
vn -1 0 0
vn -1 0 0
vn 0 0.9999998 0
vn 0 0.9999998 0
vn 0 0.9999998 0
vn 0 0.9999998 0
vn 1 0 0
vn 1 0 0
vn 1 0 0
vn 1 0 0
vn 0 -0.7963692 0.6048105
vn 0 -0.7963692 0.6048105
vn 0 -0.4445162 0.8957708
vn 0 -0.4445162 0.8957708
vn 0 0 1
vn 0 0 1
vn 0 0 -1
vn 0 0 -1
vn 0 0 -1
vn 0 0 -1
vn -1 0 0
vn -1 0 0
vn -1 0 0
vn -1 0 0
vn 0 0.9999998 0
vn 0 0.9999998 0
vn 0 0.9999998 0
vn 0 0.9999998 0
vn 1 0 0
vn 1 0 0
vn 1 0 0
vn 1 0 0
vn 0 -0.7963675 0.6048127
vn 0 -0.7963675 0.6048127
vn 0 -0.4445149 0.8957714
vn 0 -0.4445149 0.8957714
vn 0 0 1
vn 0 0 1
vn 0 0 -1
vn 0 0 -1
vn 0 0 -1
vn 0 0 -1

vt 0.1715088 0.3962402
vt 0.1715088 0.3962402
vt 0.1715088 0.3962402
vt 0.1715088 0.3962402
vt 0.2956543 0.3962402
vt 0.2956543 0.3962402
vt 0.2956543 0.3962402
vt 0.2956543 0.3962402
vt 0.1715088 0.3962402
vt 0.1715088 0.3962402
vt 0.1715088 0.3962402
vt 0.1715088 0.3962402
vt 0.1715088 0.3962402
vt 0.1715088 0.3962402
vt 0.1715088 0.3962402
vt 0.1715088 0.3962402
vt 0.2331543 0.3962402
vt 0.2331543 0.3962402
vt 0.2331543 0.3962402
vt 0.2331543 0.3962402
vt 0.2331543 0.3962402
vt 0.2331543 0.3962402
vt 0.2331543 0.3962402
vt 0.2331543 0.3962402
vt 0.1715088 0.3962402
vt 0.1715088 0.3962402
vt 0.1715088 0.3962402
vt 0.1715088 0.3962402
vt 0.2331543 0.3962402
vt 0.2331543 0.3962402
vt 0.2331543 0.3962402
vt 0.2331543 0.3962402
vt 0.1715088 0.3962402
vt 0.1715088 0.3962402
vt 0.1715088 0.3962402
vt 0.1715088 0.3962402
vt 0.2331543 0.3962402
vt 0.2331543 0.3962402
vt 0.2331543 0.3962402
vt 0.2331543 0.3962402
vt 0.2331543 0.3962402
vt 0.2331543 0.3962402
vt 0.2331543 0.3962402
vt 0.2331543 0.3962402
vt 0.2331543 0.3962402
vt 0.2331543 0.3962402
vt 0.1715088 0.3962402
vt 0.1715088 0.3962402
vt 0.1715088 0.3962402
vt 0.1715088 0.3962402
vt 0.2331543 0.3962402
vt 0.2331543 0.3962402
vt 0.2331543 0.3962402
vt 0.2331543 0.3962402
vt 0.1715088 0.3962402
vt 0.1715088 0.3962402
vt 0.1715088 0.3962402
vt 0.1715088 0.3962402
vt 0.2331543 0.3962402
vt 0.2331543 0.3962402
vt 0.2331543 0.3962402
vt 0.2331543 0.3962402
vt 0.2331543 0.3962402
vt 0.2331543 0.3962402
vt 0.2331543 0.3962402
vt 0.2331543 0.3962402
vt 0.2331543 0.3962402
vt 0.2331543 0.3962402

g Prop_shelf_01_970_101
usemtl Prop_shelf_01_970_101
usemap Prop_shelf_01_970_101
f 1/1/1 3/3/3 2/2/2
f 1/1/1 4/4/4 3/3/3
f 5/5/5 7/7/7 6/6/6
f 5/5/5 8/8/8 7/7/7
f 9/9/9 11/11/11 10/10/10
f 9/9/9 12/12/12 11/11/11
f 13/13/13 15/15/15 14/14/14
f 13/13/13 16/16/16 15/15/15
f 17/17/17 19/19/19 18/18/18
f 17/17/17 20/20/20 19/19/19
f 21/21/21 23/23/23 22/22/22
f 21/21/21 24/24/24 23/23/23
f 25/25/25 27/27/27 26/26/26
f 25/25/25 28/28/28 27/27/27
f 29/29/29 31/31/31 30/30/30
f 29/29/29 32/32/32 31/31/31
f 33/33/33 35/35/35 34/34/34
f 33/33/33 36/36/36 35/35/35
f 37/37/37 39/39/39 38/38/38
f 37/37/37 40/40/40 39/39/39
f 39/39/39 40/40/40 41/41/41
f 39/39/39 41/41/41 42/42/42
f 43/43/43 45/45/45 44/44/44
f 43/43/43 46/46/46 45/45/45
f 47/47/47 49/49/49 48/48/48
f 47/47/47 50/50/50 49/49/49
f 51/51/51 53/53/53 52/52/52
f 51/51/51 54/54/54 53/53/53
f 55/55/55 57/57/57 56/56/56
f 55/55/55 58/58/58 57/57/57
f 59/59/59 61/61/61 60/60/60
f 59/59/59 62/62/62 61/61/61
f 61/61/61 62/62/62 63/63/63
f 61/61/61 63/63/63 64/64/64
f 65/65/65 67/67/67 66/66/66
f 65/65/65 68/68/68 67/67/67
