#Prop_BathFull_1560_14.obj

v 0 0.8248769 0
v 0 0.9561623 0
v 0 0.9561623 3.333129
v 0 0.8248769 3.333129
v 1.699999 0.9561623 0
v 1.699999 0.8248769 0
v 1.699999 0.8248769 3.333123
v 1.699999 0.9561623 3.333123
v 0 0.8248769 3.333129
v 0 0.9561623 3.333129
v 1.699999 0.9561623 3.333123
v 1.699999 0.8248769 3.333123
v 1.699999 0.9561623 0
v 0 0.9561623 0
v 0 0.8248769 0
v 1.699999 0.8248769 0
v 0 0.9561623 0
v 0.1275063 0.9561623 0.2822664
v 0.1275063 0.9561623 3.216039
v 0 0.9561623 3.333129
v 1.699999 0.9561623 3.333123
v 1.572492 0.9561623 3.216039
v 1.572492 0.9561623 0.2822664
v 1.699999 0.9561623 0
v 0.1275063 0.9561623 0.2822664
v 0.1275063 0.6928871 0.2822664
v 0.1275063 0.6928871 3.216039
v 0.1275063 0.9561623 3.216039
v 1.572492 0.9561623 3.216039
v 0.1275063 0.9561623 3.216039
v 0.1275063 0.6928871 3.216039
v 1.572492 0.6928871 3.216039
v 1.572492 0.9561623 3.216039
v 1.572492 0.6928871 3.216039
v 1.572492 0.6928871 0.2822664
v 1.572492 0.9561623 0.2822664
v 1.572492 0.6928871 0.2822664
v 0.1275063 0.6928871 0.2822664
v 0.1275063 0.9561623 0.2822664
v 1.572492 0.9561623 0.2822664
v 1.572492 0.6928871 0.2822664
v 1.572492 0.6928871 3.216039
v 0.1275063 0.6928871 3.216039
v 0.1275063 0.6928871 0.2822664
v 0 0.77182 0
v 0 0 0
v 1.699999 0 0
v 1.699999 0.77182 0
v 0 0 0
v 0 0.77182 0
v 0 0.77182 3.333129
v 0 0 3.333129
v 0 0 3.333129
v 0 0.77182 3.333129
v 1.699999 0.77182 3.333123
v 1.699999 0 3.333123
v 1.699999 0.77182 0
v 1.699999 0 0
v 1.699999 0 3.333123
v 1.699999 0.77182 3.333123
v 0 0.8248769 0
v 0 0.77182 0
v 1.699999 0.77182 0
v 1.699999 0.8248769 0
v 0 0.77182 0
v 0 0.8248769 0
v 0 0.8248769 3.333129
v 0 0.77182 3.333129
v 0 0.77182 3.333129
v 0 0.8248769 3.333129
v 1.699999 0.8248769 3.333123
v 1.699999 0.77182 3.333123
v 1.699999 0.8248769 0
v 1.699999 0.77182 0
v 1.699999 0.77182 3.333123
v 1.699999 0.8248769 3.333123
v 0.7872899 0.7292082 0.3138754
v 0.7872899 0.8546327 0.3138754
v 0.9127087 0.8546327 0.3138754
v 0.9127087 0.7292082 0.3138754
v 0.7872899 0.7292082 0.3138754
v 0.7872899 0.7292082 0.1930555
v 0.7872899 0.8546327 0.1930555
v 0.7872899 0.8546327 0.3138754
v 0.9127087 0.7292082 0.3138754
v 0.9127087 0.7292082 0.1930555
v 0.7872899 0.7292082 0.1930555
v 0.7872899 0.7292082 0.3138754
v 0.9127087 0.8546327 0.3138754
v 0.9127087 0.8546327 0.1930555
v 0.9127087 0.7292082 0.1930555
v 0.9127087 0.7292082 0.3138754
v 0.7872899 0.8546327 0.3138754
v 0.7872899 0.8546327 0.1930555
v 0.9127087 0.8546327 0.1930555
v 0.9127087 0.8546327 0.3138754

vn -1 0 0
vn -1 0 0
vn -1 0 0
vn -1 0 0
vn 1 0 0
vn 1 0 0
vn 1 0 0
vn 1 0 0
vn 0 0 1
vn 0 0 1
vn 0 0 1
vn 0 0 1
vn 0 0 -1
vn 0 0 -1
vn 0 0 -1
vn 0 0 -1
vn 0 1 0
vn 0 1 0
vn 0 1 0
vn 0 1 0
vn 0 1 0
vn 0 1 0
vn 0 1 0
vn 0 1 0
vn 1 0 0
vn 1 0 0
vn 1 0 0
vn 1 0 0
vn 0 0 -1
vn 0 0 -1
vn 0 0 -1
vn 0 0 -1
vn -1 0 0
vn -1 0 0
vn -1 0 0
vn -1 0 0
vn 0 0 1
vn 0 0 1
vn 0 0 1
vn 0 0 1
vn 0 1 0
vn 0 1 0
vn 0 1 0
vn 0 1 0
vn 0 0 -1
vn 0 0 -1
vn 0 0 -1
vn 0 0 -1
vn -1 0 0
vn -1 0 0
vn -1 0 0
vn -1 0 0
vn 0 0 1
vn 0 0 1
vn 0 0 1
vn 0 0 1
vn 1 0 0
vn 1 0 0
vn 1 0 0
vn 1 0 0
vn 0 0 -1
vn 0 0 -1
vn 0 0 -1
vn 0 0 -1
vn -1 0 0
vn -1 0 0
vn -1 0 0
vn -1 0 0
vn 0 0 1
vn 0 0 1
vn 0 0 1
vn 0 0 1
vn 1 0 0
vn 1 0 0
vn 1 0 0
vn 1 0 0
vn 0 0 1
vn 0 0 1
vn 0 0 1
vn 0 0 1
vn -1 0 0
vn -1 0 0
vn -1 0 0
vn -1 0 0
vn 0 -1 0
vn 0 -1 0
vn 0 -1 0
vn 0 -1 0
vn 1 0 0
vn 1 0 0
vn 1 0 0
vn 1 0 0
vn 0 1 0
vn 0 1 0
vn 0 1 0
vn 0 1 0

vt 0.423584 0.4746094
vt 0.423584 0.4746094
vt 0.423584 0.4746094
vt 0.423584 0.4746094
vt 0.423584 0.4746094
vt 0.423584 0.4746094
vt 0.423584 0.4746094
vt 0.423584 0.4746094
vt 0.3928223 0.4731445
vt 0.3928223 0.4731445
vt 0.3928223 0.4731445
vt 0.3928223 0.4731445
vt 0.3928223 0.4731445
vt 0.3928223 0.4731445
vt 0.3928223 0.4731445
vt 0.3928223 0.4731445
vt 0.4560547 0.4746094
vt 0.4560547 0.4746094
vt 0.4560547 0.4746094
vt 0.4560547 0.4746094
vt 0.4560547 0.4746094
vt 0.4560547 0.4746094
vt 0.4560547 0.4746094
vt 0.4560547 0.4746094
vt 0.4213867 0.473877
vt 0.4213867 0.473877
vt 0.4213867 0.473877
vt 0.4213867 0.473877
vt 0.4213867 0.473877
vt 0.4213867 0.473877
vt 0.4213867 0.473877
vt 0.4213867 0.473877
vt 0.4213867 0.473877
vt 0.4213867 0.473877
vt 0.4213867 0.473877
vt 0.4213867 0.473877
vt 0.4213867 0.473877
vt 0.4213867 0.473877
vt 0.4213867 0.473877
vt 0.4213867 0.473877
vt 0.390625 0.1293945
vt 0.390625 0.1293945
vt 0.390625 0.1293945
vt 0.390625 0.1293945
vt 0.3928223 0.4731445
vt 0.3928223 0.4731445
vt 0.3928223 0.4731445
vt 0.3928223 0.4731445
vt 0.423584 0.4746094
vt 0.423584 0.4746094
vt 0.423584 0.4746094
vt 0.423584 0.4746094
vt 0.3928223 0.4731445
vt 0.3928223 0.4731445
vt 0.3928223 0.4731445
vt 0.3928223 0.4731445
vt 0.423584 0.4746094
vt 0.423584 0.4746094
vt 0.423584 0.4746094
vt 0.423584 0.4746094
vt 0.3103027 0.4731445
vt 0.3103027 0.4731445
vt 0.3103027 0.4731445
vt 0.3103027 0.4731445
vt 0.3410645 0.4746094
vt 0.3410645 0.4746094
vt 0.3410645 0.4746094
vt 0.3410645 0.4746094
vt 0.3103027 0.4731445
vt 0.3103027 0.4731445
vt 0.3103027 0.4731445
vt 0.3103027 0.4731445
vt 0.3410645 0.4746094
vt 0.3410645 0.4746094
vt 0.3410645 0.4746094
vt 0.3410645 0.4746094
vt 0.3574219 0.4741211
vt 0.3574219 0.4750977
vt 0.3581543 0.4750977
vt 0.3581543 0.4741211
vt 0.3010254 0.4770508
vt 0.300293 0.4770508
vt 0.300293 0.4780273
vt 0.3010254 0.4780273
vt 0.2366943 0.4755859
vt 0.2359619 0.4755859
vt 0.2359619 0.4763184
vt 0.2366943 0.4763184
vt 0.3005371 0.4790039
vt 0.2998047 0.4790039
vt 0.2998047 0.4797363
vt 0.3005371 0.4797363
vt 0.3933105 0.4775391
vt 0.392334 0.4775391
vt 0.392334 0.4785156
vt 0.3933105 0.4785156

g Prop_BathFull_1560_14
usemtl Prop_BathFull_1560_14
usemap Prop_BathFull_1560_14
f 1/1/1 3/3/3 2/2/2
f 1/1/1 4/4/4 3/3/3
f 5/5/5 7/7/7 6/6/6
f 5/5/5 8/8/8 7/7/7
f 9/9/9 11/11/11 10/10/10
f 9/9/9 12/12/12 11/11/11
f 13/13/13 15/15/15 14/14/14
f 13/13/13 16/16/16 15/15/15
f 17/17/17 19/19/19 18/18/18
f 17/17/17 20/20/20 19/19/19
f 21/21/21 19/19/19 20/20/20
f 21/21/21 22/22/22 19/19/19
f 21/21/21 23/23/23 22/22/22
f 23/23/23 17/17/17 18/18/18
f 21/21/21 24/24/24 23/23/23
f 23/23/23 24/24/24 17/17/17
f 25/25/25 27/27/27 26/26/26
f 25/25/25 28/28/28 27/27/27
f 29/29/29 31/31/31 30/30/30
f 29/29/29 32/32/32 31/31/31
f 33/33/33 35/35/35 34/34/34
f 33/33/33 36/36/36 35/35/35
f 37/37/37 39/39/39 38/38/38
f 37/37/37 40/40/40 39/39/39
f 41/41/41 43/43/43 42/42/42
f 41/41/41 44/44/44 43/43/43
f 45/45/45 47/47/47 46/46/46
f 45/45/45 48/48/48 47/47/47
f 49/49/49 51/51/51 50/50/50
f 49/49/49 52/52/52 51/51/51
f 53/53/53 55/55/55 54/54/54
f 53/53/53 56/56/56 55/55/55
f 57/57/57 59/59/59 58/58/58
f 57/57/57 60/60/60 59/59/59
f 61/61/61 63/63/63 62/62/62
f 61/61/61 64/64/64 63/63/63
f 65/65/65 67/67/67 66/66/66
f 65/65/65 68/68/68 67/67/67
f 69/69/69 71/71/71 70/70/70
f 69/69/69 72/72/72 71/71/71
f 73/73/73 75/75/75 74/74/74
f 73/73/73 76/76/76 75/75/75
f 77/77/77 79/79/79 78/78/78
f 77/77/77 80/80/80 79/79/79
f 81/81/81 83/83/83 82/82/82
f 81/81/81 84/84/84 83/83/83
f 85/85/85 87/87/87 86/86/86
f 85/85/85 88/88/88 87/87/87
f 89/89/89 91/91/91 90/90/90
f 89/89/89 92/92/92 91/91/91
f 93/93/93 95/95/95 94/94/94
f 93/93/93 96/96/96 95/95/95
