#Prop_Candle_02_1007_179.obj

v -0.108733 -4.768372E-08 -0.1087333
v -0.108733 0.04163508 -0.1087333
v -0.108733 0.04163508 0.1087335
v -0.108733 -4.768372E-08 0.1087335
v 0.0005168915 0.5748584 -0.009451198
v 0.01941109 0.5748584 -0.009451198
v 0.01941109 0.5748584 0.009445285
v 0.0005168915 0.5748584 0.009445285
v 0.1087338 0.04163508 -0.1087333
v 0.1087338 -4.768372E-08 -0.1087333
v 0.1087338 -4.768372E-08 0.1087335
v 0.1087338 0.04163508 0.1087335
v 0.1087338 -4.768372E-08 -0.1087333
v -0.108733 -4.768372E-08 -0.1087333
v -0.108733 -4.768372E-08 0.1087335
v 0.1087338 -4.768372E-08 0.1087335
v -0.108733 -4.768372E-08 0.1087335
v -0.108733 0.04163508 0.1087335
v 0.1087338 0.04163508 0.1087335
v 0.1087338 -4.768372E-08 0.1087335
v 0.1087338 -4.768372E-08 -0.1087333
v 0.1087338 0.04163508 -0.1087333
v -0.108733 0.04163508 -0.1087333
v -0.108733 -4.768372E-08 -0.1087333
v -0.108733 0.04163508 -0.1087333
v -0.05187569 0.04163508 -0.05187368
v -0.05187569 0.04163508 0.05187082
v -0.108733 0.04163508 0.1087335
v 0.0518734 0.04163508 0.05187082
v 0.1087338 0.04163508 0.1087335
v 0.0518734 0.04163508 -0.05187368
v 0.1087338 0.04163508 -0.1087333
v 0.0518734 0.04163508 0.05187082
v 0.0518734 0.215759 0.05187082
v 0.0518734 0.215759 -0.05187368
v 0.0518734 0.04163508 -0.05187368
v 0.0518734 0.04163508 -0.05187368
v 0.0518734 0.215759 -0.05187368
v -0.05187569 0.215759 -0.05187368
v -0.05187569 0.04163508 -0.05187368
v -0.05187569 0.04163508 0.05187082
v -0.05187569 0.04163508 -0.05187368
v -0.05187569 0.215759 -0.05187368
v -0.05187569 0.215759 0.05187082
v 0.0518734 0.04163508 0.05187082
v -0.05187569 0.04163508 0.05187082
v -0.05187569 0.215759 0.05187082
v 0.0518734 0.215759 0.05187082
v -0.05187569 0.215759 -0.05187368
v -0.07245064 0.215759 -0.07244711
v -0.07245064 0.215759 0.07244273
v -0.05187569 0.215759 0.05187082
v -0.05187569 0.215759 0.05187082
v -0.07245064 0.215759 0.07244273
v 0.0724453 0.215759 0.07244273
v 0.0518734 0.215759 0.05187082
v 0.0518734 0.215759 0.05187082
v 0.0724453 0.215759 0.07244273
v 0.0724453 0.215759 -0.07244711
v 0.0518734 0.215759 -0.05187368
v 0.0518734 0.215759 -0.05187368
v 0.0724453 0.215759 -0.07244711
v -0.07245064 0.215759 -0.07244711
v -0.05187569 0.215759 -0.05187368
v -0.07245064 0.215759 -0.07244711
v -0.07245064 0.2512384 -0.07244711
v -0.07245064 0.2512384 0.07244273
v -0.07245064 0.215759 0.07244273
v -0.07245064 0.215759 0.07244273
v -0.07245064 0.2512384 0.07244273
v 0.0724453 0.2512384 0.07244273
v 0.0724453 0.215759 0.07244273
v 0.0724453 0.215759 0.07244273
v 0.0724453 0.2512384 0.07244273
v 0.0724453 0.2512384 -0.07244711
v 0.0724453 0.215759 -0.07244711
v 0.0724453 0.215759 -0.07244711
v 0.0724453 0.2512384 -0.07244711
v -0.07245064 0.2512384 -0.07244711
v -0.07245064 0.215759 -0.07244711
v -0.07245064 0.2512384 -0.07244711
v -0.0307766 0.2512384 -0.03077307
v -0.0307766 0.2512384 0.03076715
v -0.07245064 0.2512384 0.07244273
v 0.0307682 0.2512384 0.03076715
v 0.0724453 0.2512384 0.07244273
v 0.0307682 0.2512384 -0.03077307
v 0.0724453 0.2512384 -0.07244711
v -0.0307766 0.2512384 -0.03077307
v -0.0307766 0.5393951 -0.03077307
v -0.0307766 0.5393951 0.03076715
v -0.0307766 0.2512384 0.03076715
v -0.0307766 0.2512384 0.03076715
v -0.0307766 0.5393951 0.03076715
v 0.0307682 0.5393951 0.03076715
v 0.0307682 0.2512384 0.03076715
v 0.0307682 0.2512384 0.03076715
v 0.0307682 0.5393951 0.03076715
v 0.0307682 0.5393951 -0.03077307
v 0.0307682 0.2512384 -0.03077307
v 0.0307682 0.2512384 -0.03077307
v 0.0307682 0.5393951 -0.03077307
v -0.0307766 0.5393951 -0.03077307
v -0.0307766 0.2512384 -0.03077307
v -0.0307766 0.5393951 -0.03077307
v -0.009453202 0.5393951 -0.009450436
v -0.009453202 0.5393951 0.009444523
v -0.0307766 0.5393951 0.03076715
v 0.009440994 0.5393951 0.009444523
v 0.0307682 0.5393951 0.03076715
v 0.009440994 0.5393951 -0.009450436
v 0.0307682 0.5393951 -0.03077307
v -0.009453202 0.5393951 -0.009450436
v 0.0005168915 0.5748584 -0.009451198
v 0.0005168915 0.5748584 0.009445285
v -0.009453202 0.5393951 0.009444523
v -0.009453202 0.5393951 0.009444523
v 0.0005168915 0.5748584 0.009445285
v 0.01941109 0.5748584 0.009445285
v 0.009440994 0.5393951 0.009444523
v 0.009440994 0.5393951 0.009444523
v 0.01941109 0.5748584 0.009445285
v 0.01941109 0.5748584 -0.009451198
v 0.009440994 0.5393951 -0.009450436
v 0.009440994 0.5393951 -0.009450436
v 0.01941109 0.5748584 -0.009451198
v 0.0005168915 0.5748584 -0.009451198
v -0.009453202 0.5393951 -0.009450436

vn -1 0 0
vn -1 0 0
vn -1 0 0
vn -1 0 0
vn 0 1 0
vn 0 1 0
vn 0 1 0
vn 0 1 0
vn 1 0 0
vn 1 0 0
vn 1 0 0
vn 1 0 0
vn 0 -1 0
vn 0 -1 0
vn 0 -1 0
vn 0 -1 0
vn 0 0 1
vn 0 0 1
vn 0 0 1
vn 0 0 1
vn 0 0 -1
vn 0 0 -1
vn 0 0 -1
vn 0 0 -1
vn 0 1 0
vn 0 1 0
vn 0 1 0
vn 0 1 0
vn 0 1 0
vn 0 1 0
vn 0 1 0
vn 0 1 0
vn 1 0 0
vn 1 0 0
vn 1 0 0
vn 1 0 0
vn 0 0 -1
vn 0 0 -1
vn 0 0 -1
vn 0 0 -1
vn -1 0 0
vn -1 0 0
vn -1 0 0
vn -1 0 0
vn 0 0 1
vn 0 0 1
vn 0 0 1
vn 0 0 1
vn 0 -1 0
vn 0 -1 0
vn 0 -1 0
vn 0 -1 0
vn 0 -1 0
vn 0 -1 0
vn 0 -1 0
vn 0 -1 0
vn 0 -1 0
vn 0 -1 0
vn 0 -1 0
vn 0 -1 0
vn 0 -1 0
vn 0 -1 0
vn 0 -1 0
vn 0 -1 0
vn -1 0 0
vn -1 0 0
vn -1 0 0
vn -1 0 0
vn 0 0 1
vn 0 0 1
vn 0 0 1
vn 0 0 1
vn 1 0 0
vn 1 0 0
vn 1 0 0
vn 1 0 0
vn 0 0 -1
vn 0 0 -1
vn 0 0 -1
vn 0 0 -1
vn 0 1 0
vn 0 1 0
vn 0 1 0
vn 0 1 0
vn 0 1 0
vn 0 1 0
vn 0 1 0
vn 0 1 0
vn -1 0 0
vn -1 0 0
vn -1 0 0
vn -1 0 0
vn 0 0 1
vn 0 0 1
vn 0 0 1
vn 0 0 1
vn 1 0 0
vn 1 0 0
vn 1 0 0
vn 1 0 0
vn 0 0 -1
vn 0 0 -1
vn 0 0 -1
vn 0 0 -1
vn 0 1 0
vn 0 1 0
vn 0 1 0
vn 0 1 0
vn 0 1 0
vn 0 1 0
vn 0 1 0
vn 0 1 0
vn -0.9626768 0.2706535 0
vn -0.9626768 0.2706535 0
vn -0.9626768 0.2706535 0
vn -0.9626768 0.2706535 0
vn 0 0 1
vn 0 0 1
vn 0 0 1
vn 0 0 1
vn 0.9626768 -0.2706534 0
vn 0.9626768 -0.2706534 0
vn 0.9626768 -0.2706534 0
vn 0.9626768 -0.2706534 0
vn 0 0 -1
vn 0 0 -1
vn 0 0 -1
vn 0 0 -1

vt 0.2033691 0.08758545
vt 0.2033691 0.08758545
vt 0.2033691 0.08758545
vt 0.2033691 0.08758545
vt 0.1715088 0.4753418
vt 0.1715088 0.4753418
vt 0.1715088 0.4753418
vt 0.1715088 0.4753418
vt 0.2033691 0.08758545
vt 0.2033691 0.08758545
vt 0.2033691 0.08758545
vt 0.2033691 0.08758545
vt 0.2331543 0.08758545
vt 0.2331543 0.08758545
vt 0.2331543 0.08758545
vt 0.2331543 0.08758545
vt 0.2331543 0.08758545
vt 0.2331543 0.08758545
vt 0.2331543 0.08758545
vt 0.2331543 0.08758545
vt 0.2331543 0.08758545
vt 0.2331543 0.08758545
vt 0.2331543 0.08758545
vt 0.2331543 0.08758545
vt 0.2629395 0.08758545
vt 0.2629395 0.08758545
vt 0.2629395 0.08758545
vt 0.2629395 0.08758545
vt 0.2629395 0.08758545
vt 0.2629395 0.08758545
vt 0.2629395 0.08758545
vt 0.2629395 0.08758545
vt 0.2033691 0.08758545
vt 0.2033691 0.08758545
vt 0.2033691 0.08758545
vt 0.2033691 0.08758545
vt 0.2331543 0.08758545
vt 0.2331543 0.08758545
vt 0.2331543 0.08758545
vt 0.2331543 0.08758545
vt 0.2033691 0.08758545
vt 0.2033691 0.08758545
vt 0.2033691 0.08758545
vt 0.2033691 0.08758545
vt 0.2331543 0.08758545
vt 0.2331543 0.08758545
vt 0.2331543 0.08758545
vt 0.2331543 0.08758545
vt 0.1715088 0.08758545
vt 0.1715088 0.08758545
vt 0.1715088 0.08758545
vt 0.1715088 0.08758545
vt 0.2033691 0.08758545
vt 0.2033691 0.08758545
vt 0.2033691 0.08758545
vt 0.2033691 0.08758545
vt 0.1715088 0.08758545
vt 0.1715088 0.08758545
vt 0.1715088 0.08758545
vt 0.1715088 0.08758545
vt 0.2033691 0.08758545
vt 0.2033691 0.08758545
vt 0.2033691 0.08758545
vt 0.2033691 0.08758545
vt 0.2033691 0.08758545
vt 0.2033691 0.08758545
vt 0.2033691 0.08758545
vt 0.2033691 0.08758545
vt 0.2331543 0.08758545
vt 0.2331543 0.08758545
vt 0.2331543 0.08758545
vt 0.2331543 0.08758545
vt 0.2033691 0.08758545
vt 0.2033691 0.08758545
vt 0.2033691 0.08758545
vt 0.2033691 0.08758545
vt 0.2331543 0.08758545
vt 0.2331543 0.08758545
vt 0.2331543 0.08758545
vt 0.2331543 0.08758545
vt 0.2629395 0.08758545
vt 0.2629395 0.08758545
vt 0.2629395 0.08758545
vt 0.2629395 0.08758545
vt 0.2629395 0.08758545
vt 0.2629395 0.08758545
vt 0.2629395 0.08758545
vt 0.2629395 0.08758545
vt 0.2331543 0.442627
vt 0.2331543 0.442627
vt 0.2331543 0.442627
vt 0.2331543 0.442627
vt 0.2629395 0.442627
vt 0.2629395 0.442627
vt 0.2629395 0.442627
vt 0.2629395 0.442627
vt 0.2331543 0.442627
vt 0.2331543 0.442627
vt 0.2331543 0.442627
vt 0.2331543 0.442627
vt 0.2629395 0.442627
vt 0.2629395 0.442627
vt 0.2629395 0.442627
vt 0.2629395 0.442627
vt 0.2956543 0.442627
vt 0.2956543 0.442627
vt 0.2956543 0.442627
vt 0.2956543 0.442627
vt 0.2956543 0.442627
vt 0.2956543 0.442627
vt 0.2956543 0.442627
vt 0.2956543 0.442627
vt 0.1409912 0.4753418
vt 0.1409912 0.4753418
vt 0.1409912 0.4753418
vt 0.1409912 0.4753418
vt 0.1715088 0.4753418
vt 0.1715088 0.4753418
vt 0.1715088 0.4753418
vt 0.1715088 0.4753418
vt 0.1409912 0.4753418
vt 0.1409912 0.4753418
vt 0.1409912 0.4753418
vt 0.1409912 0.4753418
vt 0.1715088 0.4753418
vt 0.1715088 0.4753418
vt 0.1715088 0.4753418
vt 0.1715088 0.4753418

g Prop_Candle_02_1007_179
usemtl Prop_Candle_02_1007_179
usemap Prop_Candle_02_1007_179
f 1/1/1 3/3/3 2/2/2
f 1/1/1 4/4/4 3/3/3
f 5/5/5 7/7/7 6/6/6
f 5/5/5 8/8/8 7/7/7
f 9/9/9 11/11/11 10/10/10
f 9/9/9 12/12/12 11/11/11
f 13/13/13 15/15/15 14/14/14
f 13/13/13 16/16/16 15/15/15
f 17/17/17 19/19/19 18/18/18
f 17/17/17 20/20/20 19/19/19
f 21/21/21 23/23/23 22/22/22
f 21/21/21 24/24/24 23/23/23
f 25/25/25 27/27/27 26/26/26
f 25/25/25 28/28/28 27/27/27
f 28/28/28 29/29/29 27/27/27
f 28/28/28 30/30/30 29/29/29
f 30/30/30 31/31/31 29/29/29
f 30/30/30 32/32/32 31/31/31
f 32/32/32 26/26/26 31/31/31
f 32/32/32 25/25/25 26/26/26
f 33/33/33 35/35/35 34/34/34
f 33/33/33 36/36/36 35/35/35
f 37/37/37 39/39/39 38/38/38
f 37/37/37 40/40/40 39/39/39
f 41/41/41 43/43/43 42/42/42
f 41/41/41 44/44/44 43/43/43
f 45/45/45 47/47/47 46/46/46
f 45/45/45 48/48/48 47/47/47
f 49/49/49 51/51/51 50/50/50
f 49/49/49 52/52/52 51/51/51
f 53/53/53 55/55/55 54/54/54
f 53/53/53 56/56/56 55/55/55
f 57/57/57 59/59/59 58/58/58
f 57/57/57 60/60/60 59/59/59
f 61/61/61 63/63/63 62/62/62
f 61/61/61 64/64/64 63/63/63
f 65/65/65 67/67/67 66/66/66
f 65/65/65 68/68/68 67/67/67
f 69/69/69 71/71/71 70/70/70
f 69/69/69 72/72/72 71/71/71
f 73/73/73 75/75/75 74/74/74
f 73/73/73 76/76/76 75/75/75
f 77/77/77 79/79/79 78/78/78
f 77/77/77 80/80/80 79/79/79
f 81/81/81 83/83/83 82/82/82
f 81/81/81 84/84/84 83/83/83
f 84/84/84 85/85/85 83/83/83
f 84/84/84 86/86/86 85/85/85
f 86/86/86 87/87/87 85/85/85
f 86/86/86 88/88/88 87/87/87
f 88/88/88 82/82/82 87/87/87
f 88/88/88 81/81/81 82/82/82
f 89/89/89 91/91/91 90/90/90
f 89/89/89 92/92/92 91/91/91
f 93/93/93 95/95/95 94/94/94
f 93/93/93 96/96/96 95/95/95
f 97/97/97 99/99/99 98/98/98
f 97/97/97 100/100/100 99/99/99
f 101/101/101 103/103/103 102/102/102
f 101/101/101 104/104/104 103/103/103
f 105/105/105 107/107/107 106/106/106
f 105/105/105 108/108/108 107/107/107
f 108/108/108 109/109/109 107/107/107
f 108/108/108 110/110/110 109/109/109
f 110/110/110 111/111/111 109/109/109
f 110/110/110 112/112/112 111/111/111
f 112/112/112 106/106/106 111/111/111
f 112/112/112 105/105/105 106/106/106
f 113/113/113 115/115/115 114/114/114
f 113/113/113 116/116/116 115/115/115
f 117/117/117 119/119/119 118/118/118
f 117/117/117 120/120/120 119/119/119
f 121/121/121 123/123/123 122/122/122
f 121/121/121 124/124/124 123/123/123
f 125/125/125 127/127/127 126/126/126
f 125/125/125 128/128/128 127/127/127
