#Prop_Beachseat_03_3708_188.obj

v -0.8803437 -1.237629E-06 -1.410029
v -0.8803437 0.1901244 -1.336023
v -0.8803437 0.190125 0.3722568
v -0.8803437 -6.702041E-07 0.4462467
v -0.8803437 -1.237629E-06 -1.410029
v -0.8803437 -6.702041E-07 0.4462467
v -0.7158184 -6.702041E-07 0.4462467
v -0.7158184 -1.237629E-06 -1.410029
v -0.8803437 0.4526423 -1.912944
v -0.7158184 0.4526423 -1.912944
v -0.7158184 0.4526432 0.9491904
v -0.8803437 0.4526432 0.9491904
v -0.7158184 0.190125 0.3722568
v -0.7158184 0.1901244 -1.336023
v -0.7158184 -1.237629E-06 -1.410029
v -0.7158184 -6.702041E-07 0.4462467
v -0.8803437 0.190125 0.3722568
v -0.8803437 0.1901244 -1.336023
v -0.7158184 0.1901244 -1.336023
v -0.7158184 0.190125 0.3722568
v -0.7158184 0.4526421 -1.65034
v -0.8803437 0.4526421 -1.65034
v -0.8803437 0.4526421 0.6865602
v -0.7158184 0.4526421 0.6865602
v -0.7158184 0.1901244 -1.336023
v -0.7158184 0.4526421 -1.65034
v -0.7158184 0.4526423 -1.912944
v -0.7158184 -1.237629E-06 -1.410029
v -0.8803437 -1.237629E-06 -1.410029
v -0.8803437 0.4526423 -1.912944
v -0.8803437 0.4526421 -1.65034
v -0.8803437 0.1901244 -1.336023
v -0.8803437 0.190125 0.3722568
v -0.8803437 0.4526421 0.6865602
v -0.8803437 0.4526432 0.9491904
v -0.8803437 -6.702041E-07 0.4462467
v -0.7158184 -6.702041E-07 0.4462467
v -0.7158184 0.4526432 0.9491904
v -0.7158184 0.4526421 0.6865602
v -0.7158184 0.190125 0.3722568
v -0.9641984 0.4526428 -2.269423
v -0.9641984 0.7669744 -2.26942
v -0.9641984 0.7669748 0.863849
v -0.9641984 0.4526421 1.024526
v -0.9641984 1.871536 2.086904
v -0.9641984 1.61562 2.269427
v -0.9641984 0.4526428 -2.269423
v -0.9641984 0.4526421 1.024526
v -0.7071641 0.4526421 1.024526
v -0.7071641 0.452643 -2.01048
v 0.7071629 0.452643 -2.01048
v 0.7071629 0.4526421 1.024526
v 0.9641972 0.4526428 -2.269423
v 0.9641972 0.4526421 1.024526
v 0.9641972 0.7669748 0.863849
v 0.9641972 0.7669744 -2.26942
v 0.9641972 0.4526428 -2.269423
v 0.9641972 0.4526421 1.024526
v 0.9641972 1.871536 2.086904
v 0.9641972 1.61562 2.269427
v -0.9641984 0.7669748 0.863849
v -0.9641984 0.7669744 -2.26942
v -0.7071641 0.766974 -2.022239
v -0.7071641 0.7669748 0.863849
v 0.7071629 0.766974 -2.022239
v 0.9641972 0.7669744 -2.26942
v 0.9641972 0.7669748 0.863849
v 0.7071629 0.7669748 0.863849
v 0.7240314 -1.237629E-06 -1.410029
v 0.7240314 0.1901244 -1.336023
v 0.7240314 0.190125 0.3722568
v 0.7240314 -6.702041E-07 0.4462467
v 0.7240314 0.4526421 -1.65034
v 0.7240314 0.4526423 -1.912944
v 0.7240314 0.4526432 0.9491904
v 0.7240314 0.4526421 0.6865602
v 0.7240314 -1.237629E-06 -1.410029
v 0.7240314 -6.702041E-07 0.4462467
v 0.8885568 -6.702041E-07 0.4462467
v 0.8885568 -1.237629E-06 -1.410029
v 0.7240314 0.4526423 -1.912944
v 0.8885568 0.4526423 -1.912944
v 0.8885568 0.4526432 0.9491904
v 0.7240314 0.4526432 0.9491904
v 0.8885568 0.190125 0.3722568
v 0.8885568 0.1901244 -1.336023
v 0.8885568 -1.237629E-06 -1.410029
v 0.8885568 -6.702041E-07 0.4462467
v 0.8885568 0.4526423 -1.912944
v 0.8885568 0.4526421 -1.65034
v 0.8885568 0.4526421 0.6865602
v 0.8885568 0.4526432 0.9491904
v 0.7240314 0.190125 0.3722568
v 0.7240314 0.1901244 -1.336023
v 0.8885568 0.1901244 -1.336023
v 0.8885568 0.190125 0.3722568
v 0.8885568 0.4526421 -1.65034
v 0.7240314 0.4526421 -1.65034
v 0.7240314 0.4526421 0.6865602
v 0.8885568 0.4526421 0.6865602
v -0.9641984 1.871536 2.086904
v -0.7071641 1.714219 1.912724
v 0.7071629 1.714219 1.912724
v 0.9641972 1.871536 2.086904
v 0.9641972 0.7669748 0.863849
v 0.7071629 0.7669748 0.863849
v -0.7071641 0.7669748 0.863849
v -0.9641984 0.7669748 0.863849
v 0.7071629 0.766974 -2.022239
v 0.7071629 0.7669748 0.863849
v -0.7071641 0.7669748 0.863849
v -0.7071641 0.766974 -2.022239
v -0.9641984 0.4526428 -2.269423
v 0.9641972 0.4526428 -2.269423
v 0.9641972 0.7669744 -2.26942
v -0.9641984 0.7669744 -2.26942
v -0.9641984 1.61562 2.269427
v 0.9641972 1.61562 2.269427
v 0.7071629 1.449983 2.092119
v -0.7071641 1.449983 2.092119
v -0.9641984 0.4526421 1.024526
v -0.7071641 0.4526421 1.024526
v 0.7071629 0.4526421 1.024526
v 0.9641972 0.4526421 1.024526
v -0.9641984 1.871536 2.086904
v 0.9641972 1.871536 2.086904
v 0.9641972 1.61562 2.269427
v -0.9641984 1.61562 2.269427
v -0.7071641 1.714219 1.912724
v -0.7071641 0.7669748 0.863849
v 0.7071629 0.7669748 0.863849
v 0.7071629 1.714219 1.912724

vn -1 0 0
vn -1 0 0
vn -1 0 0
vn -1 0 0
vn 0 -0.9855731 -0.1692505
vn 0 -0.8457894 0.5335169
vn 0 -0.8457894 0.5335169
vn 0 -0.9855731 -0.1692505
vn 0 -0.859509 -0.5111206
vn 0 -0.859509 -0.5111206
vn 0 -0.5985096 0.8011156
vn 0 -0.5985096 0.8011156
vn 1 0 0
vn 1 0 0
vn 1 0 0
vn 1 0 0
vn 0 0.8554993 -0.5178039
vn 0 0.988535 0.1509912
vn 0 0.988535 0.1509912
vn 0 0.8554993 -0.5178039
vn 0 0.8778262 0.4789791
vn 0 0.8778262 0.4789791
vn 0 0.6276897 -0.7784637
vn 0 0.6276897 -0.7784637
vn 1 0 0
vn 1 0 0
vn 1 0 0
vn 1 0 0
vn -1 0 0
vn -1 0 0
vn -1 0 0
vn -1 0 0
vn -1 0 0
vn -1 0 0
vn -1 0 0
vn -1 0 0
vn 1 0 0
vn 1 0 0
vn 1 0 0
vn 1 0 0
vn -1 0 0
vn -1 0 0
vn -1 0 0
vn -1 0 0
vn -1 0 0
vn -1 0 0
vn 0 -0.9807853 0.1950903
vn 0 -0.8407965 0.5413512
vn 0 -0.8407965 0.5413513
vn 0 -0.9807853 0.1950903
vn 0 -0.9807853 0.1950903
vn 0 -0.8407965 0.5413513
vn 0 -0.9807853 0.1950903
vn 0 -0.8407965 0.5413512
vn 1 0 0
vn 1 0 0
vn 1 0 0
vn 1 0 0
vn 1 0 0
vn 1 0 0
vn 1.071353E-05 0.8453289 -0.5342462
vn 0 0.9807853 -0.1950903
vn 0 0.9807853 -0.1950903
vn 0 0.8453294 -0.5342454
vn 0 0.9807853 -0.1950903
vn 0 0.9807853 -0.1950903
vn -1.071352E-05 0.8453289 -0.5342462
vn 0 0.8453294 -0.5342454
vn -1 0 0
vn -1 0 0
vn -1 0 0
vn -1 0 0
vn -1 0 0
vn -1 0 0
vn -1 0 0
vn -1 0 0
vn 0 -0.9855731 -0.1692505
vn 0 -0.8457894 0.5335169
vn 0 -0.8457894 0.5335169
vn 0 -0.9855731 -0.1692505
vn 0 -0.859509 -0.5111204
vn 0 -0.859509 -0.5111204
vn 0 -0.5985096 0.8011156
vn 0 -0.5985096 0.8011156
vn 1 0 0
vn 1 0 0
vn 1 0 0
vn 1 0 0
vn 1 0 0
vn 1 0 0
vn 1 0 0
vn 1 0 0
vn 0 0.8554993 -0.517804
vn 0 0.988535 0.1509912
vn 0 0.988535 0.1509912
vn 0 0.8554993 -0.517804
vn 0 0.8778262 0.4789792
vn 0 0.8778262 0.4789792
vn 0 0.6276897 -0.7784637
vn 0 0.6276897 -0.7784637
vn 0 0.5971092 -0.80216
vn 0 0.597116 -0.8021549
vn 0 0.597116 -0.8021549
vn 0 0.5971092 -0.80216
vn -1.071352E-05 0.8453289 -0.5342462
vn 0 0.8453294 -0.5342454
vn 0 0.8453294 -0.5342454
vn 1.071353E-05 0.8453289 -0.5342462
vn 0 0.9807853 -0.1950903
vn 0 0.8453294 -0.5342454
vn 0 0.8453294 -0.5342454
vn 0 0.9807853 -0.1950903
vn 0 -0.1950903 -0.9807853
vn 0 -0.1950903 -0.9807853
vn 0 -0.1950903 -0.9807853
vn 0 -0.1950903 -0.9807853
vn 0 -0.5835246 0.8120953
vn 0 -0.5835246 0.8120953
vn 0 -0.5835237 0.8120961
vn 0 -0.5835237 0.8120961
vn 0 -0.8407965 0.5413512
vn 0 -0.8407965 0.5413513
vn 0 -0.8407965 0.5413513
vn 0 -0.8407965 0.5413512
vn 0 0.7283389 0.6852171
vn 0 0.7283389 0.6852171
vn 0 0.7283389 0.6852171
vn 0 0.7283389 0.6852171
vn 0 0.597116 -0.8021549
vn 0 0.8453294 -0.5342454
vn 0 0.8453294 -0.5342454
vn 0 0.597116 -0.8021549

vt 0.1657715 0.480957
vt 0.1657715 0.480957
vt 0.1657715 0.480957
vt 0.1657715 0.480957
vt 0.1645508 0.4772949
vt 0.1645508 0.4772949
vt 0.1645508 0.4772949
vt 0.1645508 0.4772949
vt 0.1645508 0.4772949
vt 0.1645508 0.4772949
vt 0.1645508 0.4772949
vt 0.1645508 0.4772949
vt 0.1385498 0.4797363
vt 0.1385498 0.4797363
vt 0.1385498 0.4797363
vt 0.1385498 0.4797363
vt 0.2315674 0.4748535
vt 0.2315674 0.4748535
vt 0.2315674 0.4748535
vt 0.2315674 0.4748535
vt 0.2315674 0.4748535
vt 0.2315674 0.4748535
vt 0.2315674 0.4748535
vt 0.2315674 0.4748535
vt 0.1347656 0.4724121
vt 0.1347656 0.4724121
vt 0.1347656 0.4724121
vt 0.1347656 0.4724121
vt 0.1993408 0.4748535
vt 0.1993408 0.4748535
vt 0.1993408 0.4748535
vt 0.1993408 0.4748535
vt 0.1993408 0.4748535
vt 0.1993408 0.4748535
vt 0.1993408 0.4748535
vt 0.1993408 0.4748535
vt 0.1347656 0.4724121
vt 0.1347656 0.4724121
vt 0.1347656 0.4724121
vt 0.1347656 0.4724121
vt 0.2329102 0.0838623
vt 0.2329102 0.0838623
vt 0.2329102 0.0838623
vt 0.2329102 0.0838623
vt 0.2329102 0.0838623
vt 0.2329102 0.0838623
vt 0.1621094 0.08013916
vt 0.1621094 0.08013916
vt 0.1621094 0.08013916
vt 0.1621094 0.08013916
vt 0.1621094 0.08013916
vt 0.1621094 0.08013916
vt 0.1621094 0.08013916
vt 0.1621094 0.08013916
vt 0.2329102 0.0838623
vt 0.2329102 0.0838623
vt 0.2329102 0.0838623
vt 0.2329102 0.0838623
vt 0.2329102 0.0838623
vt 0.2329102 0.0838623
vt 0.298584 0.08514404
vt 0.298584 0.08514404
vt 0.298584 0.08514404
vt 0.298584 0.08514404
vt 0.298584 0.08514404
vt 0.298584 0.08514404
vt 0.298584 0.08514404
vt 0.298584 0.08514404
vt 0.1347656 0.4724121
vt 0.1347656 0.4724121
vt 0.1347656 0.4724121
vt 0.1347656 0.4724121
vt 0.1347656 0.4724121
vt 0.1347656 0.4724121
vt 0.1347656 0.4724121
vt 0.1347656 0.4724121
vt 0.1645508 0.4772949
vt 0.1645508 0.4772949
vt 0.1645508 0.4772949
vt 0.1645508 0.4772949
vt 0.1645508 0.4772949
vt 0.1645508 0.4772949
vt 0.1645508 0.4772949
vt 0.1645508 0.4772949
vt 0.1993408 0.4748535
vt 0.1993408 0.4748535
vt 0.1993408 0.4748535
vt 0.1993408 0.4748535
vt 0.1993408 0.4748535
vt 0.1993408 0.4748535
vt 0.1993408 0.4748535
vt 0.1993408 0.4748535
vt 0.2315674 0.4748535
vt 0.2315674 0.4748535
vt 0.2315674 0.4748535
vt 0.2315674 0.4748535
vt 0.2315674 0.4748535
vt 0.2315674 0.4748535
vt 0.2315674 0.4748535
vt 0.2315674 0.4748535
vt 0.2675781 0.0826416
vt 0.2675781 0.0826416
vt 0.2675781 0.0826416
vt 0.2675781 0.0826416
vt 0.2675781 0.0826416
vt 0.2675781 0.0826416
vt 0.2675781 0.0826416
vt 0.2675781 0.0826416
vt 0.3259277 0.4475098
vt 0.3259277 0.4475098
vt 0.3259277 0.4475098
vt 0.3259277 0.4475098
vt 0.1981201 0.08758545
vt 0.1981201 0.08758545
vt 0.1981201 0.08758545
vt 0.1981201 0.08758545
vt 0.1956787 0.08636475
vt 0.1956787 0.08636475
vt 0.1956787 0.08636475
vt 0.1956787 0.08636475
vt 0.1956787 0.08636475
vt 0.1956787 0.08636475
vt 0.1956787 0.08636475
vt 0.1956787 0.08636475
vt 0.2687988 0.08886719
vt 0.2687988 0.08886719
vt 0.2687988 0.08886719
vt 0.2687988 0.08886719
vt 0.2949219 0.4450684
vt 0.2949219 0.4450684
vt 0.2949219 0.4450684
vt 0.2949219 0.4450684

g Prop_Beachseat_03_3708_188
usemtl Prop_Beachseat_03_3708_188
usemap Prop_Beachseat_03_3708_188
f 1/1/1 3/3/3 2/2/2
f 1/1/1 4/4/4 3/3/3
f 5/5/5 7/7/7 6/6/6
f 5/5/5 8/8/8 7/7/7
f 8/8/8 5/5/5 9/9/9
f 8/8/8 9/9/9 10/10/10
f 6/6/6 7/7/7 11/11/11
f 6/6/6 11/11/11 12/12/12
f 13/13/13 15/15/15 14/14/14
f 13/13/13 16/16/16 15/15/15
f 17/17/17 19/19/19 18/18/18
f 17/17/17 20/20/20 19/19/19
f 18/18/18 19/19/19 21/21/21
f 18/18/18 21/21/21 22/22/22
f 20/20/20 17/17/17 23/23/23
f 20/20/20 23/23/23 24/24/24
f 25/25/25 27/27/27 26/26/26
f 25/25/25 28/28/28 27/27/27
f 29/29/29 31/31/31 30/30/30
f 29/29/29 32/32/32 31/31/31
f 33/33/33 35/35/35 34/34/34
f 33/33/33 36/36/36 35/35/35
f 37/37/37 39/39/39 38/38/38
f 37/37/37 40/40/40 39/39/39
f 41/41/41 43/43/43 42/42/42
f 41/41/41 44/44/44 43/43/43
f 44/44/44 45/45/45 43/43/43
f 44/44/44 46/46/46 45/45/45
f 47/47/47 49/49/49 48/48/48
f 47/47/47 50/50/50 49/49/49
f 49/49/49 50/50/50 51/51/51
f 51/51/51 50/50/50 47/47/47
f 49/49/49 51/51/51 52/52/52
f 52/52/52 51/51/51 53/53/53
f 51/51/51 47/47/47 53/53/53
f 52/52/52 53/53/53 54/54/54
f 55/55/55 57/57/57 56/56/56
f 55/55/55 58/58/58 57/57/57
f 59/59/59 58/58/58 55/55/55
f 59/59/59 60/60/60 58/58/58
f 61/61/61 63/63/63 62/62/62
f 61/61/61 64/64/64 63/63/63
f 62/62/62 63/63/63 65/65/65
f 62/62/62 65/65/65 66/66/66
f 65/65/65 67/67/67 66/66/66
f 65/65/65 68/68/68 67/67/67
f 69/69/69 71/71/71 70/70/70
f 69/69/69 72/72/72 71/71/71
f 69/69/69 70/70/70 73/73/73
f 69/69/69 73/73/73 74/74/74
f 71/71/71 72/72/72 75/75/75
f 71/71/71 75/75/75 76/76/76
f 77/77/77 79/79/79 78/78/78
f 77/77/77 80/80/80 79/79/79
f 80/80/80 77/77/77 81/81/81
f 80/80/80 81/81/81 82/82/82
f 78/78/78 79/79/79 83/83/83
f 78/78/78 83/83/83 84/84/84
f 85/85/85 87/87/87 86/86/86
f 85/85/85 88/88/88 87/87/87
f 86/86/86 87/87/87 89/89/89
f 86/86/86 89/89/89 90/90/90
f 88/88/88 85/85/85 91/91/91
f 88/88/88 91/91/91 92/92/92
f 93/93/93 95/95/95 94/94/94
f 93/93/93 96/96/96 95/95/95
f 94/94/94 95/95/95 97/97/97
f 94/94/94 97/97/97 98/98/98
f 96/96/96 93/93/93 99/99/99
f 96/96/96 99/99/99 100/100/100
f 101/101/101 103/103/103 102/102/102
f 101/101/101 104/104/104 103/103/103
f 103/103/103 104/104/104 105/105/105
f 103/103/103 105/105/105 106/106/106
f 101/101/101 102/102/102 107/107/107
f 101/101/101 107/107/107 108/108/108
f 109/109/109 111/111/111 110/110/110
f 109/109/109 112/112/112 111/111/111
f 113/113/113 115/115/115 114/114/114
f 113/113/113 116/116/116 115/115/115
f 117/117/117 119/119/119 118/118/118
f 117/117/117 120/120/120 119/119/119
f 121/121/121 120/120/120 117/117/117
f 121/121/121 122/122/122 120/120/120
f 119/119/119 120/120/120 122/122/122
f 119/119/119 122/122/122 123/123/123
f 118/118/118 119/119/119 123/123/123
f 118/118/118 123/123/123 124/124/124
f 125/125/125 127/127/127 126/126/126
f 125/125/125 128/128/128 127/127/127
f 129/129/129 131/131/131 130/130/130
f 129/129/129 132/132/132 131/131/131
