#Prop_Dryer_1108_71.obj

v -0.5825107 1.862645E-10 -0.6323167
v -0.5825107 1.503988 -0.6323167
v -0.5825107 1.503988 0.5327036
v -0.5825107 1.862645E-10 0.5327036
v -0.5825107 1.503988 -0.6323167
v 0.5825101 1.503988 -0.6323167
v 0.5825101 1.503988 0.5327036
v -0.5825107 1.503988 0.5327036
v 0.5825101 1.503988 -0.6323167
v 0.5825101 1.862645E-10 -0.6323167
v 0.5825101 1.862645E-10 0.5327036
v 0.5825101 1.503988 0.5327036
v 0.5825101 1.862645E-10 -0.6323167
v -0.5825107 1.862645E-10 -0.6323167
v -0.5825107 1.862645E-10 0.5327036
v 0.5825101 1.862645E-10 0.5327036
v -0.1249988 1.378873 0.5327036
v -0.1249988 1.424508 0.5327036
v 0.1249981 1.424508 0.5327036
v 0.1249981 1.378873 0.5327036
v 0.5825101 1.862645E-10 -0.6323167
v 0.5825101 1.503988 -0.6323167
v -0.5825107 1.503988 -0.6323167
v -0.5825107 1.862645E-10 -0.6323167
v -0.5825107 1.862645E-10 0.5327036
v -0.4932621 1.130652 0.5327036
v 0.4932614 1.130652 0.5327036
v 0.5825101 1.862645E-10 0.5327036
v 0.4932614 1.44692 0.5327036
v 0.5825101 1.503988 0.5327036
v -0.4932621 1.44692 0.5327036
v -0.5825107 1.503988 0.5327036
v -0.4932621 1.130652 0.5327036
v -0.1249988 1.378873 0.5327036
v 0.1249981 1.378873 0.5327036
v 0.4932614 1.130652 0.5327036
v 0.1249981 1.424508 0.5327036
v 0.4932614 1.44692 0.5327036
v -0.1249988 1.424508 0.5327036
v -0.4932621 1.44692 0.5327036
v -0.2105167 1.372995 0.5327036
v -0.2105167 1.372995 0.6060717
v -0.2681797 1.372995 0.6060717
v -0.2681797 1.372995 0.5691568
v -0.3258464 1.372995 0.5691568
v -0.3835132 1.372995 0.5327036
v -0.3835132 1.372995 0.6060717
v -0.3258464 1.372995 0.6060717
v -0.3835132 1.199998 0.6060717
v -0.2105167 1.199998 0.6060717
v -0.2105167 1.199998 0.5327036
v -0.3835132 1.199998 0.5327036
v -0.3258464 1.285669 0.6060717
v -0.2681797 1.285669 0.6060717
v -0.2105167 1.199998 0.6060717
v -0.3835132 1.199998 0.6060717
v -0.3258464 1.372995 0.6060717
v -0.3835132 1.372995 0.6060717
v -0.2681797 1.372995 0.6060717
v -0.2105167 1.372995 0.6060717
v -0.3258464 1.39564 0.5691568
v -0.2681797 1.39564 0.5691568
v -0.2681797 1.39564 0.6144106
v -0.3258464 1.39564 0.6144106
v -0.3258464 1.39564 0.6144106
v -0.2681797 1.39564 0.6144106
v -0.2681797 1.285669 0.6144106
v -0.3258464 1.285669 0.6144106
v -0.3835132 1.199998 0.6060717
v -0.3835132 1.199998 0.5327036
v -0.3835132 1.372995 0.5327036
v -0.3835132 1.372995 0.6060717
v -0.3835132 1.199998 0.5327036
v -0.2105167 1.199998 0.5327036
v -0.2105167 1.372995 0.5327036
v -0.3835132 1.372995 0.5327036
v -0.2105167 1.372995 0.5327036
v -0.2105167 1.199998 0.5327036
v -0.2105167 1.199998 0.6060717
v -0.2105167 1.372995 0.6060717
v -0.3258464 1.372995 0.5691568
v -0.3258464 1.39564 0.5691568
v -0.3258464 1.39564 0.6144106
v -0.3258464 1.372995 0.6060717
v -0.3258464 1.285669 0.6144106
v -0.3258464 1.285669 0.6060717
v -0.2681797 1.372995 0.6060717
v -0.2681797 1.39564 0.6144106
v -0.2681797 1.39564 0.5691568
v -0.2681797 1.372995 0.5691568
v -0.2681797 1.285669 0.6060717
v -0.2681797 1.285669 0.6144106
v -0.2681797 1.372995 0.5691568
v -0.2681797 1.39564 0.5691568
v -0.3258464 1.39564 0.5691568
v -0.3258464 1.372995 0.5691568
v -0.3258464 1.285669 0.6060717
v -0.3258464 1.285669 0.6144106
v -0.2681797 1.285669 0.6144106
v -0.2681797 1.285669 0.6060717
v 0.2240086 0.9908529 0.5327074
v 0.2240086 0.9908529 0.6323168
v -0.2240093 0.9908529 0.6323168
v -0.2240093 0.9908529 0.5327074
v -0.2240093 0.9908529 0.5327074
v -0.2240093 0.9908529 0.6323168
v -0.4480121 0.6028607 0.6323168
v -0.4480121 0.6028607 0.5327074
v -0.4480121 0.6028607 0.5327074
v -0.4480121 0.6028607 0.6323168
v -0.2240093 0.2148686 0.6323168
v -0.2240093 0.2148686 0.5327074
v -0.2240093 0.2148686 0.5327074
v -0.2240093 0.2148686 0.6323168
v 0.2240086 0.2148685 0.6323168
v 0.2240086 0.2148685 0.5327074
v 0.2240086 0.2148685 0.5327074
v 0.2240086 0.2148685 0.6323168
v 0.4480153 0.6028607 0.6323168
v 0.4480153 0.6028607 0.5327074
v 0.4480153 0.6028607 0.5327074
v 0.4480153 0.6028607 0.6323168
v 0.2240086 0.9908529 0.6323168
v 0.2240086 0.9908529 0.5327074
v 0.1838818 0.9213482 0.6323168
v 1.955032E-06 0.6028607 0.6323168
v -0.1838825 0.9213482 0.6323168
v -0.3677585 0.6028607 0.6323168
v -0.1838825 0.2843734 0.6323168
v 0.1838818 0.2843733 0.6323168
v 0.2979413 0.7121646 0.6323168
v 0.2979413 0.6019904 0.6323168
v 0.2979413 0.496752 0.6323168
v 0.2240086 0.9908529 0.6323168
v 0.1838818 0.9213482 0.6323168
v -0.1838825 0.9213482 0.6323168
v -0.2240093 0.9908529 0.6323168
v -0.3677585 0.6028607 0.6323168
v -0.4480121 0.6028607 0.6323168
v -0.1838825 0.2843734 0.6323168
v -0.2240093 0.2148686 0.6323168
v 0.1838818 0.2843733 0.6323168
v 0.2240086 0.2148685 0.6323168
v 0.4480153 0.6028607 0.6323168
v 0.2979413 0.7121646 0.6323168
v 0.2979413 0.6019904 0.6323168
v 0.2979413 0.496752 0.6323168
v 0.07485776 1.339652 0.5327036
v 0.07485776 1.339652 0.5735323
v 0.04276853 1.339652 0.5735323
v 0.04276853 1.339652 0.5529863
v 0.01067929 1.339652 0.5529863
v -0.02141452 1.339652 0.5327036
v -0.02141452 1.339652 0.5735323
v 0.01067929 1.339652 0.5735323
v -0.02141452 1.243385 0.5735323
v 0.07485776 1.243385 0.5735323
v 0.07485776 1.243385 0.5327036
v -0.02141452 1.243385 0.5327036
v 0.01067929 1.291058 0.5735323
v 0.04276853 1.291058 0.5735323
v 0.07485776 1.243385 0.5735323
v -0.02141452 1.243385 0.5735323
v 0.01067929 1.339652 0.5735323
v -0.02141452 1.339652 0.5735323
v 0.04276853 1.339652 0.5735323
v 0.07485776 1.339652 0.5735323
v 0.01067929 1.352254 0.5529863
v 0.04276853 1.352254 0.5529863
v 0.04276853 1.352254 0.578171
v 0.01067929 1.352254 0.578171
v 0.01067929 1.352254 0.578171
v 0.04276853 1.352254 0.578171
v 0.04276853 1.291058 0.578171
v 0.01067929 1.291058 0.578171
v -0.02141452 1.243385 0.5735323
v -0.02141452 1.243385 0.5327036
v -0.02141452 1.339652 0.5327036
v -0.02141452 1.339652 0.5735323
v -0.02141452 1.243385 0.5327036
v 0.07485776 1.243385 0.5327036
v 0.07485776 1.339652 0.5327036
v -0.02141452 1.339652 0.5327036
v 0.07485776 1.339652 0.5327036
v 0.07485776 1.243385 0.5327036
v 0.07485776 1.243385 0.5735323
v 0.07485776 1.339652 0.5735323
v 0.01067929 1.339652 0.5529863
v 0.01067929 1.352254 0.5529863
v 0.01067929 1.352254 0.578171
v 0.01067929 1.339652 0.5735323
v 0.01067929 1.291058 0.578171
v 0.01067929 1.291058 0.5735323
v 0.04276853 1.339652 0.5735323
v 0.04276853 1.352254 0.578171
v 0.04276853 1.352254 0.5529863
v 0.04276853 1.339652 0.5529863
v 0.04276853 1.291058 0.5735323
v 0.04276853 1.291058 0.578171
v 0.04276853 1.339652 0.5529863
v 0.04276853 1.352254 0.5529863
v 0.01067929 1.352254 0.5529863
v 0.01067929 1.339652 0.5529863
v 0.01067929 1.291058 0.5735323
v 0.01067929 1.291058 0.578171
v 0.04276853 1.291058 0.578171
v 0.04276853 1.291058 0.5735323
v 0.3005543 1.339652 0.5327036
v 0.3005543 1.339652 0.5735323
v 0.2684651 1.339652 0.5735323
v 0.2684651 1.339652 0.5529863
v 0.2363759 1.339652 0.5529863
v 0.2042828 1.339652 0.5327036
v 0.2042828 1.339652 0.5735323
v 0.2363759 1.339652 0.5735323
v 0.2042828 1.243385 0.5735323
v 0.3005543 1.243385 0.5735323
v 0.3005543 1.243385 0.5327036
v 0.2042828 1.243385 0.5327036
v 0.2363759 1.291058 0.5735323
v 0.2684651 1.291058 0.5735323
v 0.3005543 1.243385 0.5735323
v 0.2042828 1.243385 0.5735323
v 0.2363759 1.339652 0.5735323
v 0.2042828 1.339652 0.5735323
v 0.2684651 1.339652 0.5735323
v 0.3005543 1.339652 0.5735323
v 0.2363759 1.352254 0.5529863
v 0.2684651 1.352254 0.5529863
v 0.2684651 1.352254 0.578171
v 0.2363759 1.352254 0.578171
v 0.2363759 1.352254 0.578171
v 0.2684651 1.352254 0.578171
v 0.2684651 1.291058 0.578171
v 0.2363759 1.291058 0.578171
v 0.2042828 1.243385 0.5735323
v 0.2042828 1.243385 0.5327036
v 0.2042828 1.339652 0.5327036
v 0.2042828 1.339652 0.5735323
v 0.2042828 1.243385 0.5327036
v 0.3005543 1.243385 0.5327036
v 0.3005543 1.339652 0.5327036
v 0.2042828 1.339652 0.5327036
v 0.3005543 1.339652 0.5327036
v 0.3005543 1.243385 0.5327036
v 0.3005543 1.243385 0.5735323
v 0.3005543 1.339652 0.5735323
v 0.2363759 1.339652 0.5529863
v 0.2363759 1.352254 0.5529863
v 0.2363759 1.352254 0.578171
v 0.2363759 1.339652 0.5735323
v 0.2363759 1.291058 0.578171
v 0.2363759 1.291058 0.5735323
v 0.2684651 1.339652 0.5735323
v 0.2684651 1.352254 0.578171
v 0.2684651 1.352254 0.5529863
v 0.2684651 1.339652 0.5529863
v 0.2684651 1.291058 0.5735323
v 0.2684651 1.291058 0.578171
v 0.2684651 1.339652 0.5529863
v 0.2684651 1.352254 0.5529863
v 0.2363759 1.352254 0.5529863
v 0.2363759 1.339652 0.5529863
v 0.2363759 1.291058 0.5735323
v 0.2363759 1.291058 0.578171
v 0.2684651 1.291058 0.578171
v 0.2684651 1.291058 0.5735323

vn -1 0 0
vn -1 0 0
vn -1 0 0
vn -1 0 0
vn 0 0.9999998 0
vn 0 0.9999998 0
vn 0 0.9999998 0
vn 0 0.9999998 0
vn 1 0 0
vn 1 0 0
vn 1 0 0
vn 1 0 0
vn 0 -0.9999998 0
vn 0 -0.9999998 0
vn 0 -0.9999998 0
vn 0 -0.9999998 0
vn 0 0 1
vn 0 0 1
vn 0 0 1
vn 0 0 1
vn 0 0 -1
vn 0 0 -1
vn 0 0 -1
vn 0 0 -1
vn 0 0 1
vn 0 0 1
vn 0 0 1
vn 0 0 1
vn 0 0 1
vn 0 0 1
vn 0 0 1
vn 0 0 1
vn 0 0 1
vn 0 0 1
vn 0 0 1
vn 0 0 1
vn 0 0 1
vn 0 0 1
vn 0 0 1
vn 0 0 1
vn 0 0.9999998 0
vn 0 0.9999998 0
vn 0 0.9999998 0
vn 0 0.9999998 0
vn 0 0.9999998 0
vn 0 0.9999998 0
vn 0 0.9999998 0
vn 0 0.9999998 0
vn 0 -0.9999998 0
vn 0 -0.9999998 0
vn 0 -0.9999998 0
vn 0 -0.9999998 0
vn 0 0 1
vn 0 0 1
vn 0 0 1
vn 0 0 1
vn 0 0 1
vn 0 0 1
vn 0 0 1
vn 0 0 1
vn 0 0.9999998 0
vn 0 0.9999998 0
vn 0 0.9999998 0
vn 0 0.9999998 0
vn 0 0 1
vn 0 0 1
vn 0 0 1
vn 0 0 1
vn -1 0 0
vn -1 0 0
vn -1 0 0
vn -1 0 0
vn 0 0 -1
vn 0 0 -1
vn 0 0 -1
vn 0 0 -1
vn 1 0 0
vn 1 0 0
vn 1 0 0
vn 1 0 0
vn -1 0 0
vn -1 0 0
vn -1 0 0
vn -1 0 0
vn -1 0 0
vn -1 0 0
vn 1 0 0
vn 1 0 0
vn 1 0 0
vn 1 0 0
vn 1 0 0
vn 1 0 0
vn 0 0 -1
vn 0 0 -1
vn 0 0 -1
vn 0 0 -1
vn 0 -0.9999998 0
vn 0 -0.9999998 0
vn 0 -0.9999998 0
vn 0 -0.9999998 0
vn 0.5000006 0.8660249 0
vn 0.5000006 0.8660249 0
vn -0.5000038 0.866023 0
vn -0.5000038 0.866023 0
vn -0.5000038 0.866023 0
vn -0.5000038 0.866023 0
vn -1 0 0
vn -1 0 0
vn -1 0 0
vn -1 0 0
vn -0.5000038 -0.866023 0
vn -0.5000038 -0.866023 0
vn -0.5000038 -0.866023 0
vn -0.5000038 -0.866023 0
vn 0.5000007 -0.8660249 0
vn 0.5000007 -0.8660249 0
vn 0.5000007 -0.8660249 0
vn 0.5000007 -0.8660249 0
vn 1 0 0
vn 1 0 0
vn 1 0 0
vn 1 0 0
vn 0.5000006 0.8660249 0
vn 0.5000006 0.8660249 0
vn 0 0 1
vn 0 0 1
vn 0 0 1
vn 0 0 1
vn 0 0 1
vn 0 0 1
vn 0 0 1
vn 0 0 1
vn 0 0 1
vn 0 0 1
vn 0 0 1
vn 0 0 1
vn 0 0 1
vn 0 0 1
vn 0 0 1
vn 0 0 1
vn 0 0 1
vn 0 0 1
vn 0 0 1
vn 0 0 1
vn 0 0 1
vn 0 0 1
vn 0 0 1
vn 0 0.9999998 0
vn 0 0.9999998 0
vn 0 0.9999998 0
vn 0 0.9999998 0
vn 0 0.9999998 0
vn 0 0.9999998 0
vn 0 0.9999998 0
vn 0 0.9999998 0
vn 0 -0.9999998 0
vn 0 -0.9999998 0
vn 0 -0.9999998 0
vn 0 -0.9999998 0
vn 0 0 1
vn 0 0 1
vn 0 0 1
vn 0 0 1
vn 0 0 1
vn 0 0 1
vn 0 0 1
vn 0 0 1
vn 0 0.9999998 0
vn 0 0.9999998 0
vn 0 0.9999998 0
vn 0 0.9999998 0
vn 0 0 1
vn 0 0 1
vn 0 0 1
vn 0 0 1
vn -1 0 0
vn -1 0 0
vn -1 0 0
vn -1 0 0
vn 0 0 -1
vn 0 0 -1
vn 0 0 -1
vn 0 0 -1
vn 1 0 0
vn 1 0 0
vn 1 0 0
vn 1 0 0
vn -1 0 0
vn -1 0 0
vn -1 0 0
vn -1 0 0
vn -1 0 0
vn -1 0 0
vn 1 0 0
vn 1 0 0
vn 1 0 0
vn 1 0 0
vn 1 0 0
vn 1 0 0
vn 0 0 -1
vn 0 0 -1
vn 0 0 -1
vn 0 0 -1
vn 0 -0.9999998 0
vn 0 -0.9999998 0
vn 0 -0.9999998 0
vn 0 -0.9999998 0
vn 0 0.9999998 0
vn 0 0.9999998 0
vn 0 0.9999998 0
vn 0 0.9999998 0
vn 0 0.9999998 0
vn 0 0.9999998 0
vn 0 0.9999998 0
vn 0 0.9999998 0
vn 0 -0.9999998 0
vn 0 -0.9999998 0
vn 0 -0.9999998 0
vn 0 -0.9999998 0
vn 0 0 1
vn 0 0 1
vn 0 0 1
vn 0 0 1
vn 0 0 1
vn 0 0 1
vn 0 0 1
vn 0 0 1
vn 0 0.9999998 0
vn 0 0.9999998 0
vn 0 0.9999998 0
vn 0 0.9999998 0
vn 0 0 1
vn 0 0 1
vn 0 0 1
vn 0 0 1
vn -1 0 0
vn -1 0 0
vn -1 0 0
vn -1 0 0
vn 0 0 -1
vn 0 0 -1
vn 0 0 -1
vn 0 0 -1
vn 1 0 0
vn 1 0 0
vn 1 0 0
vn 1 0 0
vn -1 0 0
vn -1 0 0
vn -1 0 0
vn -1 0 0
vn -1 0 0
vn -1 0 0
vn 1 0 0
vn 1 0 0
vn 1 0 0
vn 1 0 0
vn 1 0 0
vn 1 0 0
vn 0 0 -1
vn 0 0 -1
vn 0 0 -1
vn 0 0 -1
vn 0 -0.9999998 0
vn 0 -0.9999998 0
vn 0 -0.9999998 0
vn 0 -0.9999998 0

vt 0.2956543 0.4753418
vt 0.2956543 0.4753418
vt 0.2956543 0.4753418
vt 0.2956543 0.4753418
vt 0.3881836 0.4753418
vt 0.3881836 0.4753418
vt 0.3881836 0.4753418
vt 0.3881836 0.4753418
vt 0.2956543 0.4753418
vt 0.2956543 0.4753418
vt 0.2956543 0.4753418
vt 0.2956543 0.4753418
vt 0.3261719 0.4753418
vt 0.3261719 0.4753418
vt 0.3261719 0.4753418
vt 0.3261719 0.4753418
vt 0.2033691 0.4753418
vt 0.2033691 0.4753418
vt 0.2033691 0.4753418
vt 0.2033691 0.4753418
vt 0.3261719 0.4753418
vt 0.3261719 0.4753418
vt 0.3261719 0.4753418
vt 0.3261719 0.4753418
vt 0.3261719 0.4753418
vt 0.3261719 0.4753418
vt 0.3261719 0.4753418
vt 0.3261719 0.4753418
vt 0.3261719 0.4753418
vt 0.3261719 0.4753418
vt 0.3261719 0.4753418
vt 0.3261719 0.4753418
vt 0.3586426 0.4753418
vt 0.3586426 0.4753418
vt 0.3586426 0.4753418
vt 0.3586426 0.4753418
vt 0.3586426 0.4753418
vt 0.3586426 0.4753418
vt 0.3586426 0.4753418
vt 0.3586426 0.4753418
vt 0.3586426 0.4753418
vt 0.3586426 0.4753418
vt 0.3586426 0.4753418
vt 0.3586426 0.4753418
vt 0.3586426 0.4753418
vt 0.3586426 0.4753418
vt 0.3586426 0.4753418
vt 0.3586426 0.4753418
vt 0.2956543 0.4753418
vt 0.2956543 0.4753418
vt 0.2956543 0.4753418
vt 0.2956543 0.4753418
vt 0.3261719 0.4753418
vt 0.3261719 0.4753418
vt 0.3261719 0.4753418
vt 0.3261719 0.4753418
vt 0.3261719 0.4753418
vt 0.3261719 0.4753418
vt 0.3261719 0.4753418
vt 0.3261719 0.4753418
vt 0.2629395 0.4753418
vt 0.2629395 0.4753418
vt 0.2629395 0.4753418
vt 0.2629395 0.4753418
vt 0.2331543 0.4753418
vt 0.2331543 0.4753418
vt 0.2331543 0.4753418
vt 0.2331543 0.4753418
vt 0.2956543 0.4753418
vt 0.2956543 0.4753418
vt 0.2956543 0.4753418
vt 0.2956543 0.4753418
vt 0.3261719 0.4753418
vt 0.3261719 0.4753418
vt 0.3261719 0.4753418
vt 0.3261719 0.4753418
vt 0.2956543 0.4753418
vt 0.2956543 0.4753418
vt 0.2956543 0.4753418
vt 0.2956543 0.4753418
vt 0.2033691 0.4753418
vt 0.2033691 0.4753418
vt 0.2033691 0.4753418
vt 0.2033691 0.4753418
vt 0.2033691 0.4753418
vt 0.2033691 0.4753418
vt 0.2033691 0.4753418
vt 0.2033691 0.4753418
vt 0.2033691 0.4753418
vt 0.2033691 0.4753418
vt 0.2033691 0.4753418
vt 0.2033691 0.4753418
vt 0.2331543 0.4753418
vt 0.2331543 0.4753418
vt 0.2331543 0.4753418
vt 0.2331543 0.4753418
vt 0.2331543 0.4753418
vt 0.2331543 0.4753418
vt 0.2331543 0.4753418
vt 0.2331543 0.4753418
vt 0.2331543 0.08758545
vt 0.2331543 0.08758545
vt 0.2331543 0.08758545
vt 0.2331543 0.08758545
vt 0.2331543 0.08758545
vt 0.2331543 0.08758545
vt 0.2331543 0.08758545
vt 0.2331543 0.08758545
vt 0.2331543 0.08758545
vt 0.2331543 0.08758545
vt 0.2331543 0.08758545
vt 0.2331543 0.08758545
vt 0.2331543 0.08758545
vt 0.2331543 0.08758545
vt 0.2331543 0.08758545
vt 0.2331543 0.08758545
vt 0.2331543 0.08758545
vt 0.2331543 0.08758545
vt 0.2331543 0.08758545
vt 0.2331543 0.08758545
vt 0.2331543 0.08758545
vt 0.2331543 0.08758545
vt 0.2331543 0.08758545
vt 0.2331543 0.08758545
vt 0.4208984 0.08758545
vt 0.4208984 0.08758545
vt 0.4208984 0.08758545
vt 0.4208984 0.08758545
vt 0.4208984 0.08758545
vt 0.4208984 0.08758545
vt 0.4208984 0.08758545
vt 0.4208984 0.08758545
vt 0.4208984 0.08758545
vt 0.2629395 0.08758545
vt 0.2629395 0.08758545
vt 0.2629395 0.08758545
vt 0.2629395 0.08758545
vt 0.2629395 0.08758545
vt 0.2629395 0.08758545
vt 0.2629395 0.08758545
vt 0.2629395 0.08758545
vt 0.2629395 0.08758545
vt 0.2629395 0.08758545
vt 0.2629395 0.08758545
vt 0.2629395 0.08758545
vt 0.2629395 0.08758545
vt 0.2629395 0.08758545
vt 0.3586426 0.4753418
vt 0.3586426 0.4753418
vt 0.3586426 0.4753418
vt 0.3586426 0.4753418
vt 0.3586426 0.4753418
vt 0.3586426 0.4753418
vt 0.3586426 0.4753418
vt 0.3586426 0.4753418
vt 0.2956543 0.4753418
vt 0.2956543 0.4753418
vt 0.2956543 0.4753418
vt 0.2956543 0.4753418
vt 0.3261719 0.4753418
vt 0.3261719 0.4753418
vt 0.3261719 0.4753418
vt 0.3261719 0.4753418
vt 0.3261719 0.4753418
vt 0.3261719 0.4753418
vt 0.3261719 0.4753418
vt 0.3261719 0.4753418
vt 0.2629395 0.4753418
vt 0.2629395 0.4753418
vt 0.2629395 0.4753418
vt 0.2629395 0.4753418
vt 0.2331543 0.4753418
vt 0.2331543 0.4753418
vt 0.2331543 0.4753418
vt 0.2331543 0.4753418
vt 0.2956543 0.4753418
vt 0.2956543 0.4753418
vt 0.2956543 0.4753418
vt 0.2956543 0.4753418
vt 0.3261719 0.4753418
vt 0.3261719 0.4753418
vt 0.3261719 0.4753418
vt 0.3261719 0.4753418
vt 0.2956543 0.4753418
vt 0.2956543 0.4753418
vt 0.2956543 0.4753418
vt 0.2956543 0.4753418
vt 0.2033691 0.4753418
vt 0.2033691 0.4753418
vt 0.2033691 0.4753418
vt 0.2033691 0.4753418
vt 0.2033691 0.4753418
vt 0.2033691 0.4753418
vt 0.2033691 0.4753418
vt 0.2033691 0.4753418
vt 0.2033691 0.4753418
vt 0.2033691 0.4753418
vt 0.2033691 0.4753418
vt 0.2033691 0.4753418
vt 0.2331543 0.4753418
vt 0.2331543 0.4753418
vt 0.2331543 0.4753418
vt 0.2331543 0.4753418
vt 0.2331543 0.4753418
vt 0.2331543 0.4753418
vt 0.2331543 0.4753418
vt 0.2331543 0.4753418
vt 0.3586426 0.4753418
vt 0.3586426 0.4753418
vt 0.3586426 0.4753418
vt 0.3586426 0.4753418
vt 0.3586426 0.4753418
vt 0.3586426 0.4753418
vt 0.3586426 0.4753418
vt 0.3586426 0.4753418
vt 0.2956543 0.4753418
vt 0.2956543 0.4753418
vt 0.2956543 0.4753418
vt 0.2956543 0.4753418
vt 0.3261719 0.4753418
vt 0.3261719 0.4753418
vt 0.3261719 0.4753418
vt 0.3261719 0.4753418
vt 0.3261719 0.4753418
vt 0.3261719 0.4753418
vt 0.3261719 0.4753418
vt 0.3261719 0.4753418
vt 0.2629395 0.4753418
vt 0.2629395 0.4753418
vt 0.2629395 0.4753418
vt 0.2629395 0.4753418
vt 0.2331543 0.4753418
vt 0.2331543 0.4753418
vt 0.2331543 0.4753418
vt 0.2331543 0.4753418
vt 0.2956543 0.4753418
vt 0.2956543 0.4753418
vt 0.2956543 0.4753418
vt 0.2956543 0.4753418
vt 0.3261719 0.4753418
vt 0.3261719 0.4753418
vt 0.3261719 0.4753418
vt 0.3261719 0.4753418
vt 0.2956543 0.4753418
vt 0.2956543 0.4753418
vt 0.2956543 0.4753418
vt 0.2956543 0.4753418
vt 0.2033691 0.4753418
vt 0.2033691 0.4753418
vt 0.2033691 0.4753418
vt 0.2033691 0.4753418
vt 0.2033691 0.4753418
vt 0.2033691 0.4753418
vt 0.2033691 0.4753418
vt 0.2033691 0.4753418
vt 0.2033691 0.4753418
vt 0.2033691 0.4753418
vt 0.2033691 0.4753418
vt 0.2033691 0.4753418
vt 0.2331543 0.4753418
vt 0.2331543 0.4753418
vt 0.2331543 0.4753418
vt 0.2331543 0.4753418
vt 0.2331543 0.4753418
vt 0.2331543 0.4753418
vt 0.2331543 0.4753418
vt 0.2331543 0.4753418

g Prop_Dryer_1108_71
usemtl Prop_Dryer_1108_71
usemap Prop_Dryer_1108_71
f 1/1/1 3/3/3 2/2/2
f 1/1/1 4/4/4 3/3/3
f 5/5/5 7/7/7 6/6/6
f 5/5/5 8/8/8 7/7/7
f 9/9/9 11/11/11 10/10/10
f 9/9/9 12/12/12 11/11/11
f 13/13/13 15/15/15 14/14/14
f 13/13/13 16/16/16 15/15/15
f 17/17/17 19/19/19 18/18/18
f 17/17/17 20/20/20 19/19/19
f 21/21/21 23/23/23 22/22/22
f 21/21/21 24/24/24 23/23/23
f 25/25/25 27/27/27 26/26/26
f 25/25/25 28/28/28 27/27/27
f 28/28/28 29/29/29 27/27/27
f 28/28/28 30/30/30 29/29/29
f 30/30/30 31/31/31 29/29/29
f 30/30/30 32/32/32 31/31/31
f 32/32/32 26/26/26 31/31/31
f 32/32/32 25/25/25 26/26/26
f 33/33/33 35/35/35 34/34/34
f 33/33/33 36/36/36 35/35/35
f 36/36/36 37/37/37 35/35/35
f 36/36/36 38/38/38 37/37/37
f 38/38/38 39/39/39 37/37/37
f 38/38/38 40/40/40 39/39/39
f 40/40/40 34/34/34 39/39/39
f 40/40/40 33/33/33 34/34/34
f 41/41/41 43/43/43 42/42/42
f 41/41/41 44/44/44 43/43/43
f 41/41/41 45/45/45 44/44/44
f 41/41/41 46/46/46 45/45/45
f 45/45/45 46/46/46 47/47/47
f 45/45/45 47/47/47 48/48/48
f 49/49/49 51/51/51 50/50/50
f 49/49/49 52/52/52 51/51/51
f 53/53/53 55/55/55 54/54/54
f 53/53/53 56/56/56 55/55/55
f 56/56/56 53/53/53 57/57/57
f 56/56/56 57/57/57 58/58/58
f 59/59/59 54/54/54 55/55/55
f 59/59/59 55/55/55 60/60/60
f 61/61/61 63/63/63 62/62/62
f 61/61/61 64/64/64 63/63/63
f 65/65/65 67/67/67 66/66/66
f 65/65/65 68/68/68 67/67/67
f 69/69/69 71/71/71 70/70/70
f 69/69/69 72/72/72 71/71/71
f 73/73/73 75/75/75 74/74/74
f 73/73/73 76/76/76 75/75/75
f 77/77/77 79/79/79 78/78/78
f 77/77/77 80/80/80 79/79/79
f 81/81/81 83/83/83 82/82/82
f 81/81/81 84/84/84 83/83/83
f 84/84/84 85/85/85 83/83/83
f 84/84/84 86/86/86 85/85/85
f 87/87/87 89/89/89 88/88/88
f 87/87/87 90/90/90 89/89/89
f 91/91/91 87/87/87 88/88/88
f 91/91/91 88/88/88 92/92/92
f 93/93/93 95/95/95 94/94/94
f 93/93/93 96/96/96 95/95/95
f 97/97/97 99/99/99 98/98/98
f 97/97/97 100/100/100 99/99/99
f 101/101/101 103/103/103 102/102/102
f 101/101/101 104/104/104 103/103/103
f 105/105/105 107/107/107 106/106/106
f 105/105/105 108/108/108 107/107/107
f 109/109/109 111/111/111 110/110/110
f 109/109/109 112/112/112 111/111/111
f 113/113/113 115/115/115 114/114/114
f 113/113/113 116/116/116 115/115/115
f 117/117/117 119/119/119 118/118/118
f 117/117/117 120/120/120 119/119/119
f 121/121/121 123/123/123 122/122/122
f 121/121/121 124/124/124 123/123/123
f 125/125/125 127/127/127 126/126/126
f 127/127/127 128/128/128 126/126/126
f 128/128/128 129/129/129 126/126/126
f 129/129/129 130/130/130 126/126/126
f 126/126/126 131/131/131 125/125/125
f 132/132/132 131/131/131 126/126/126
f 126/126/126 133/133/133 132/132/132
f 130/130/130 133/133/133 126/126/126
f 134/134/134 136/136/136 135/135/135
f 134/134/134 137/137/137 136/136/136
f 137/137/137 138/138/138 136/136/136
f 137/137/137 139/139/139 138/138/138
f 139/139/139 140/140/140 138/138/138
f 139/139/139 141/141/141 140/140/140
f 141/141/141 142/142/142 140/140/140
f 141/141/141 143/143/143 142/142/142
f 144/144/144 134/134/134 135/135/135
f 144/144/144 135/135/135 145/145/145
f 144/144/144 145/145/145 146/146/146
f 147/147/147 144/144/144 146/146/146
f 143/143/143 147/147/147 142/142/142
f 143/143/143 144/144/144 147/147/147
f 148/148/148 150/150/150 149/149/149
f 148/148/148 151/151/151 150/150/150
f 148/148/148 152/152/152 151/151/151
f 148/148/148 153/153/153 152/152/152
f 152/152/152 153/153/153 154/154/154
f 152/152/152 154/154/154 155/155/155
f 156/156/156 158/158/158 157/157/157
f 156/156/156 159/159/159 158/158/158
f 160/160/160 162/162/162 161/161/161
f 160/160/160 163/163/163 162/162/162
f 163/163/163 160/160/160 164/164/164
f 163/163/163 164/164/164 165/165/165
f 166/166/166 161/161/161 162/162/162
f 166/166/166 162/162/162 167/167/167
f 168/168/168 170/170/170 169/169/169
f 168/168/168 171/171/171 170/170/170
f 172/172/172 174/174/174 173/173/173
f 172/172/172 175/175/175 174/174/174
f 176/176/176 178/178/178 177/177/177
f 176/176/176 179/179/179 178/178/178
f 180/180/180 182/182/182 181/181/181
f 180/180/180 183/183/183 182/182/182
f 184/184/184 186/186/186 185/185/185
f 184/184/184 187/187/187 186/186/186
f 188/188/188 190/190/190 189/189/189
f 188/188/188 191/191/191 190/190/190
f 191/191/191 192/192/192 190/190/190
f 191/191/191 193/193/193 192/192/192
f 194/194/194 196/196/196 195/195/195
f 194/194/194 197/197/197 196/196/196
f 198/198/198 194/194/194 195/195/195
f 198/198/198 195/195/195 199/199/199
f 200/200/200 202/202/202 201/201/201
f 200/200/200 203/203/203 202/202/202
f 204/204/204 206/206/206 205/205/205
f 204/204/204 207/207/207 206/206/206
f 208/208/208 210/210/210 209/209/209
f 208/208/208 211/211/211 210/210/210
f 208/208/208 212/212/212 211/211/211
f 208/208/208 213/213/213 212/212/212
f 212/212/212 213/213/213 214/214/214
f 212/212/212 214/214/214 215/215/215
f 216/216/216 218/218/218 217/217/217
f 216/216/216 219/219/219 218/218/218
f 220/220/220 222/222/222 221/221/221
f 220/220/220 223/223/223 222/222/222
f 223/223/223 220/220/220 224/224/224
f 223/223/223 224/224/224 225/225/225
f 226/226/226 221/221/221 222/222/222
f 226/226/226 222/222/222 227/227/227
f 228/228/228 230/230/230 229/229/229
f 228/228/228 231/231/231 230/230/230
f 232/232/232 234/234/234 233/233/233
f 232/232/232 235/235/235 234/234/234
f 236/236/236 238/238/238 237/237/237
f 236/236/236 239/239/239 238/238/238
f 240/240/240 242/242/242 241/241/241
f 240/240/240 243/243/243 242/242/242
f 244/244/244 246/246/246 245/245/245
f 244/244/244 247/247/247 246/246/246
f 248/248/248 250/250/250 249/249/249
f 248/248/248 251/251/251 250/250/250
f 251/251/251 252/252/252 250/250/250
f 251/251/251 253/253/253 252/252/252
f 254/254/254 256/256/256 255/255/255
f 254/254/254 257/257/257 256/256/256
f 258/258/258 254/254/254 255/255/255
f 258/258/258 255/255/255 259/259/259
f 260/260/260 262/262/262 261/261/261
f 260/260/260 263/263/263 262/262/262
f 264/264/264 266/266/266 265/265/265
f 264/264/264 267/267/267 266/266/266
