#Prop_Trough_1601_10.obj

v -2.572626 0 -0.4999997
v -2.572637 1.016055 -0.9100204
v -2.572645 1.016055 0.9100201
v -2.572632 0 0.4999992
v -2.411869 0.5368676 -0.4809533
v 2.41187 0.5368676 -0.4809587
v 2.411869 0.5368676 0.4809533
v -2.41187 0.5368676 0.4809587
v 2.572645 1.016055 -0.9100201
v 2.572632 0 -0.4999992
v 2.572626 0 0.4999997
v 2.572637 1.016055 0.9100204
v 2.572632 0 -0.4999992
v -2.572626 0 -0.4999997
v -2.572632 0 0.4999992
v 2.572626 0 0.4999997
v -2.572632 0 0.4999992
v -2.572645 1.016055 0.9100201
v 2.572637 1.016055 0.9100204
v 2.572626 0 0.4999997
v 2.572632 0 -0.4999992
v 2.572645 1.016055 -0.9100201
v -2.572637 1.016055 -0.9100204
v -2.572626 0 -0.4999997
v -2.572637 1.016055 -0.9100204
v -2.411873 1.016055 -0.6089416
v -2.411889 1.016055 0.6089354
v -2.572645 1.016055 0.9100201
v 2.411873 1.016055 0.6089416
v 2.572637 1.016055 0.9100204
v 2.411889 1.016055 -0.6089354
v 2.572645 1.016055 -0.9100201
v -2.411873 1.016055 -0.6089416
v -2.411869 0.5368676 -0.4809533
v -2.41187 0.5368676 0.4809587
v -2.411889 1.016055 0.6089354
v -2.411889 1.016055 0.6089354
v -2.41187 0.5368676 0.4809587
v 2.411869 0.5368676 0.4809533
v 2.411873 1.016055 0.6089416
v 2.411873 1.016055 0.6089416
v 2.411869 0.5368676 0.4809533
v 2.41187 0.5368676 -0.4809587
v 2.411889 1.016055 -0.6089354
v 2.411889 1.016055 -0.6089354
v 2.41187 0.5368676 -0.4809587
v -2.411869 0.5368676 -0.4809533
v -2.411873 1.016055 -0.6089416

vn -0.9999313 0 -0.01171597
vn -0.9999313 0 -0.01171597
vn -0.9999313 0 -0.01171597
vn -0.9999313 0 -0.01171597
vn 0 0.9999997 0
vn 0 0.9999997 0
vn 0 0.9999997 0
vn 0 0.9999997 0
vn 0.9999313 0 0.01171597
vn 0.9999313 0 0.01171597
vn 0.9999313 0 0.01171597
vn 0.9999313 0 0.01171597
vn 0 -0.9999997 0
vn 0 -0.9999997 0
vn 0 -0.9999997 0
vn 0 -0.9999997 0
vn -0.01086469 -0.3742187 0.9272767
vn -0.01086469 -0.3742187 0.9272767
vn -0.01086469 -0.3742187 0.9272767
vn -0.01086469 -0.3742187 0.9272767
vn 0.01086469 -0.3742187 -0.9272767
vn 0.01086469 -0.3742187 -0.9272767
vn 0.01086469 -0.3742187 -0.9272767
vn 0.01086469 -0.3742187 -0.9272767
vn 0 0.9999997 0
vn 0 0.9999997 0
vn 0 0.9999997 0
vn 0 0.9999997 0
vn 0 0.9999997 0
vn 0 0.9999997 0
vn 0 0.9999997 0
vn 0 0.9999997 0
vn 0.9999313 0 0.01171597
vn 0.9999313 0 0.01171597
vn 0.9999313 0 0.01171597
vn 0.9999313 0 0.01171597
vn 0.01131921 0.2580348 -0.9660693
vn 0.01131921 0.2580348 -0.9660693
vn 0.01131921 0.2580348 -0.9660693
vn 0.01131921 0.2580348 -0.9660693
vn -0.9999313 0 -0.01171597
vn -0.9999313 0 -0.01171597
vn -0.9999313 0 -0.01171597
vn -0.9999313 0 -0.01171597
vn -0.01131921 0.2580348 0.9660693
vn -0.01131921 0.2580348 0.9660693
vn -0.01131921 0.2580348 0.9660693
vn -0.01131921 0.2580348 0.9660693

vt 0.2714844 0.08355713
vt 0.2714844 0.08355713
vt 0.2714844 0.08355713
vt 0.2714844 0.08355713
vt 0.2700195 0.1308594
vt 0.2700195 0.1308594
vt 0.2700195 0.1308594
vt 0.2700195 0.1308594
vt 0.2714844 0.08355713
vt 0.2714844 0.08355713
vt 0.2714844 0.08355713
vt 0.2714844 0.08355713
vt 0.2338867 0.08355713
vt 0.2338867 0.08355713
vt 0.2338867 0.08355713
vt 0.2338867 0.08355713
vt 0.2338867 0.08355713
vt 0.2338867 0.08355713
vt 0.2338867 0.08355713
vt 0.2338867 0.08355713
vt 0.2338867 0.08355713
vt 0.2338867 0.08355713
vt 0.2338867 0.08355713
vt 0.2338867 0.08355713
vt 0.3061523 0.0848999
vt 0.3061523 0.0848999
vt 0.3061523 0.0848999
vt 0.3061523 0.0848999
vt 0.3061523 0.0848999
vt 0.3061523 0.0848999
vt 0.3061523 0.0848999
vt 0.3061523 0.0848999
vt 0.2088623 0.08770752
vt 0.2088623 0.08770752
vt 0.2088623 0.08770752
vt 0.2088623 0.08770752
vt 0.2338867 0.08355713
vt 0.2338867 0.08355713
vt 0.2338867 0.08355713
vt 0.2338867 0.08355713
vt 0.2088623 0.08770752
vt 0.2088623 0.08770752
vt 0.2088623 0.08770752
vt 0.2088623 0.08770752
vt 0.2338867 0.08355713
vt 0.2338867 0.08355713
vt 0.2338867 0.08355713
vt 0.2338867 0.08355713

g Prop_Trough_1601_10
usemtl Prop_Trough_1601_10
usemap Prop_Trough_1601_10
f 1/1/1 3/3/3 2/2/2
f 1/1/1 4/4/4 3/3/3
f 5/5/5 7/7/7 6/6/6
f 5/5/5 8/8/8 7/7/7
f 9/9/9 11/11/11 10/10/10
f 9/9/9 12/12/12 11/11/11
f 13/13/13 15/15/15 14/14/14
f 13/13/13 16/16/16 15/15/15
f 17/17/17 19/19/19 18/18/18
f 17/17/17 20/20/20 19/19/19
f 21/21/21 23/23/23 22/22/22
f 21/21/21 24/24/24 23/23/23
f 25/25/25 27/27/27 26/26/26
f 25/25/25 28/28/28 27/27/27
f 28/28/28 29/29/29 27/27/27
f 28/28/28 30/30/30 29/29/29
f 30/30/30 31/31/31 29/29/29
f 30/30/30 32/32/32 31/31/31
f 32/32/32 26/26/26 31/31/31
f 32/32/32 25/25/25 26/26/26
f 33/33/33 35/35/35 34/34/34
f 33/33/33 36/36/36 35/35/35
f 37/37/37 39/39/39 38/38/38
f 37/37/37 40/40/40 39/39/39
f 41/41/41 43/43/43 42/42/42
f 41/41/41 44/44/44 43/43/43
f 45/45/45 47/47/47 46/46/46
f 45/45/45 48/48/48 47/47/47
