#Prop_Desk_Lamp_982_113.obj

v 0.1494106 0.8467706 0.3161367
v 0.07254677 0.8920232 0.1508917
v 0.07254829 0.7841476 0.05385952
v 0.1494129 0.6245999 0.116297
v 0.07254677 0.857203 -0.0273592
v 0.07254677 0.9650785 0.06967373
v 0.04134407 0.9099645 -0.03935795
v 0.0413456 0.9714422 0.01594143
v 0.0413456 0.9714422 0.01594143
v -0.04134331 0.9714422 0.01594143
v -0.04134331 0.9099645 -0.03935795
v 0.04134407 0.9099645 -0.03935795
v -0.07254601 0.8920232 0.1508917
v -0.1494122 0.8467706 0.3161367
v -0.1494099 0.6245999 0.116297
v -0.07254372 0.7841476 0.05385952
v -0.07254601 0.9650785 0.06967373
v -0.07254601 0.857203 -0.0273592
v -0.04134331 0.9714422 0.01594143
v -0.04134331 0.9099645 -0.03935795
v -0.06319008 0.81452 0.2231749
v 0.06319084 0.81452 0.2231749
v 0.06319084 0.7205564 0.1386541
v -0.06319008 0.7205564 0.1386541
v 0.1494129 0.6245999 0.116297
v 0.07254829 0.7841476 0.05385952
v -0.07254372 0.7841476 0.05385952
v -0.1494099 0.6245999 0.116297
v -0.07254601 0.857203 -0.0273592
v 0.07254677 0.857203 -0.0273592
v -0.04134331 0.9099645 -0.03935795
v 0.04134407 0.9099645 -0.03935795
v -0.1494122 0.8467706 0.3161367
v -0.07254601 0.8920232 0.1508917
v 0.07254677 0.8920232 0.1508917
v 0.1494106 0.8467706 0.3161367
v 0.07254677 0.9650785 0.06967373
v -0.07254601 0.9650785 0.06967373
v 0.0413456 0.9714422 0.01594143
v -0.04134331 0.9714422 0.01594143
v -0.1494122 0.8467706 0.3161367
v -0.123119 0.8272226 0.2985556
v -0.1231167 0.6441482 0.1338827
v -0.1494099 0.6245999 0.116297
v 0.1231197 0.6441482 0.1338827
v 0.1494129 0.6245999 0.116297
v 0.1231174 0.8272226 0.2985556
v 0.1494106 0.8467706 0.3161367
v -0.123119 0.8272226 0.2985556
v -0.06319008 0.81452 0.2231749
v -0.06319008 0.7205564 0.1386541
v -0.1231167 0.6441482 0.1338827
v 0.06319084 0.7205564 0.1386541
v 0.1231197 0.6441482 0.1338827
v 0.06319084 0.81452 0.2231749
v 0.1231174 0.8272226 0.2985556
v 0.1355595 2.384186E-08 0.05920391
v 0.1355595 0.04953759 0.05920391
v 0.1355595 0.04953759 -0.2119104
v 0.1355595 2.384186E-08 -0.2119104
v 0.01397362 0.06904032 -0.02047977
v -0.01397057 0.06904032 -0.02047977
v -0.01397285 0.06904032 -0.08060245
v 0.01397362 0.06904032 -0.08060245
v -0.1355572 0.04953759 0.0592062
v -0.1355572 2.384186E-08 0.0592062
v -0.1355572 2.384186E-08 -0.2119104
v -0.1355572 0.04953759 -0.2119104
v -0.1355572 2.384186E-08 0.0592062
v 0.1355595 2.384186E-08 0.05920391
v 0.1355595 2.384186E-08 -0.2119104
v -0.1355572 2.384186E-08 -0.2119104
v 0.1355595 2.384186E-08 -0.2119104
v 0.1355595 0.04953759 -0.2119104
v -0.1355572 0.04953759 -0.2119104
v -0.1355572 2.384186E-08 -0.2119104
v -0.1355572 2.384186E-08 0.0592062
v -0.1355572 0.04953759 0.0592062
v 0.1355595 0.04953759 0.05920391
v 0.1355595 2.384186E-08 0.05920391
v 0.0192646 0.04639046 -0.1445749
v 0.0192646 0.09592793 -0.1445749
v 0.0192646 0.09592793 -0.1831034
v 0.0192646 0.04639046 -0.1831034
v 0.0192646 0.09592793 -0.1445749
v -0.01926384 0.09592793 -0.1445749
v -0.01926384 0.09592793 -0.1831034
v 0.0192646 0.09592793 -0.1831034
v -0.01926384 0.09592793 -0.1445749
v -0.01926384 0.04639046 -0.1445749
v -0.01926384 0.04639046 -0.1831034
v -0.01926384 0.09592793 -0.1831034
v -0.01926384 0.04639046 -0.1445749
v 0.0192646 0.04639046 -0.1445749
v 0.0192646 0.04639046 -0.1831034
v -0.01926384 0.04639046 -0.1831034
v 0.0192646 0.04639046 -0.1831034
v 0.0192646 0.09592793 -0.1831034
v -0.01926384 0.09592793 -0.1831034
v -0.01926384 0.04639046 -0.1831034
v -0.01926384 0.04639046 -0.1445749
v -0.01926384 0.09592793 -0.1445749
v 0.0192646 0.09592793 -0.1445749
v 0.0192646 0.04639046 -0.1445749
v 0.0345768 0.1011126 -0.1326563
v 0.0345768 0.5688127 -0.2363489
v 0.0345768 0.5574506 -0.2880915
v 0.0345768 0.08975041 -0.1843973
v 0.0345768 0.5688127 -0.2363489
v -0.03457604 0.5688127 -0.2363489
v -0.03457604 0.5574506 -0.2880915
v 0.0345768 0.5574506 -0.2880915
v -0.03457604 0.5688127 -0.2363489
v -0.03457604 0.1011126 -0.1326563
v -0.03457604 0.08975041 -0.1843973
v -0.03457604 0.5574506 -0.2880915
v -0.03457604 0.1011126 -0.1326563
v 0.0345768 0.1011126 -0.1326563
v 0.0345768 0.08975041 -0.1843973
v -0.03457604 0.08975041 -0.1843973
v 0.0345768 0.08975041 -0.1843973
v 0.0345768 0.5574506 -0.2880915
v -0.03457604 0.5574506 -0.2880915
v -0.03457604 0.08975041 -0.1843973
v -0.03457604 0.1011126 -0.1326563
v -0.03457604 0.5688127 -0.2363489
v 0.0345768 0.5688127 -0.2363489
v 0.0345768 0.1011126 -0.1326563
v 0.01393547 0.4178419 -0.2752894
v 0.01393547 0.811852 0.04820995
v 0.01393547 0.8455839 0.007359886
v 0.01393547 0.4515735 -0.3161371
v 0.01393547 0.811852 0.04820995
v -0.01393471 0.811852 0.04820995
v -0.01393471 0.8455839 0.007359886
v 0.01393547 0.8455839 0.007359886
v -0.01393471 0.811852 0.04820995
v -0.01393471 0.4178419 -0.2752894
v -0.01393471 0.4515735 -0.3161371
v -0.01393471 0.8455839 0.007359886
v -0.01393471 0.4178419 -0.2752894
v 0.01393547 0.4178419 -0.2752894
v 0.01393547 0.4515735 -0.3161371
v -0.01393471 0.4515735 -0.3161371
v 0.01393547 0.4515735 -0.3161371
v 0.01393547 0.8455839 0.007359886
v -0.01393471 0.8455839 0.007359886
v -0.01393471 0.4515735 -0.3161371
v -0.01393471 0.4178419 -0.2752894
v -0.01393471 0.811852 0.04820995
v 0.01393547 0.811852 0.04820995
v 0.01393547 0.4178419 -0.2752894
v 0.1355595 0.04953759 0.05920391
v 0.01397362 0.04953759 -0.02047977
v 0.01397362 0.04953759 -0.08060245
v 0.1355595 0.04953759 -0.2119104
v -0.01397285 0.04953759 -0.08060245
v -0.1355572 0.04953759 -0.2119104
v -0.01397057 0.04953759 -0.02047977
v -0.1355572 0.04953759 0.0592062
v 0.01397362 0.04953759 -0.02047977
v 0.01397362 0.06904032 -0.02047977
v 0.01397362 0.06904032 -0.08060245
v 0.01397362 0.04953759 -0.08060245
v 0.01397362 0.04953759 -0.08060245
v 0.01397362 0.06904032 -0.08060245
v -0.01397285 0.06904032 -0.08060245
v -0.01397285 0.04953759 -0.08060245
v -0.01397285 0.04953759 -0.08060245
v -0.01397285 0.06904032 -0.08060245
v -0.01397057 0.06904032 -0.02047977
v -0.01397057 0.04953759 -0.02047977
v -0.01397057 0.04953759 -0.02047977
v -0.01397057 0.06904032 -0.02047977
v 0.01397362 0.06904032 -0.02047977
v 0.01397362 0.04953759 -0.02047977

vn 0.893715 0.3000327 -0.3335474
vn 0.973066 0.1541687 -0.1713899
vn 0.973066 0.1541687 -0.1713899
vn 0.893715 0.3000327 -0.3335474
vn 0.9531492 0.2022967 -0.2249056
vn 0.9531492 0.2022967 -0.2249056
vn 0.4600782 0.5937765 -0.6601194
vn 0.4600782 0.5937765 -0.6601194
vn 0.3343211 0.837847 -0.4315572
vn -0.3343164 0.837849 -0.4315572
vn -0.3343183 0.3407341 -0.8787102
vn 0.3343225 0.3407295 -0.8787104
vn -0.9730648 0.1541661 -0.1713988
vn -0.8937105 0.3000273 -0.3335643
vn -0.8937105 0.3000273 -0.3335643
vn -0.9730648 0.1541661 -0.1713988
vn -0.9531471 0.2023039 -0.2249083
vn -0.9531471 0.2023039 -0.2249083
vn -0.4600718 0.5937817 -0.6601192
vn -0.4600718 0.5937817 -0.6601192
vn 0.229118 -0.8031195 0.5500035
vn -0.2291178 -0.803121 0.5500016
vn -0.2290781 -0.462526 0.8565003
vn 0.229078 -0.462524 0.8565015
vn 0 -0.3644269 -0.931232
vn 0 -0.5692886 -0.8221378
vn 0 -0.5692886 -0.8221378
vn 0 -0.3644269 -0.931232
vn 0 -0.5063447 -0.8623312
vn 0 -0.5063447 -0.8623312
vn 0 0.2517269 -0.9677984
vn 0 0.2517269 -0.9677984
vn 0 0.9644883 0.2641256
vn 0 0.8776231 0.4793514
vn 0 0.8776231 0.4793514
vn 0 0.9644883 0.2641256
vn 0 0.9109536 0.4125091
vn 0 0.9109536 0.4125091
vn 0 0.9358315 -0.3524477
vn 0 0.9358315 -0.3524477
vn 0 -0.6687409 0.7434956
vn 0.1692163 -0.7752041 0.6086249
vn 0.1691913 -0.5236596 0.834958
vn 0 -0.6687809 0.7434595
vn -0.1691913 -0.5236611 0.8349571
vn 0 -0.6687809 0.7434595
vn -0.1692162 -0.7752053 0.6086236
vn 0 -0.6687409 0.7434956
vn 0.1692163 -0.7752041 0.6086249
vn 0.229118 -0.8031195 0.5500035
vn 0.229078 -0.462524 0.8565015
vn 0.1691913 -0.5236596 0.834958
vn -0.2290781 -0.462526 0.8565003
vn -0.1691913 -0.5236611 0.8349571
vn -0.2291178 -0.803121 0.5500016
vn -0.1692162 -0.7752053 0.6086236
vn 1 0 0
vn 1 0 0
vn 1 0 0
vn 1 0 0
vn 0 1 0
vn 0 1 0
vn 0 1 0
vn 0 1 0
vn -1 0 0
vn -1 0 0
vn -1 0 0
vn -1 0 0
vn 0 -1 0
vn 0 -1 0
vn 0 -1 0
vn 0 -1 0
vn 0 0 -1
vn 0 0 -1
vn 0 0 -1
vn 0 0 -1
vn 0 0 1
vn 0 0 1
vn 0 0 1
vn 0 0 1
vn 1 0 0
vn 1 0 0
vn 1 0 0
vn 1 0 0
vn 0 1 0
vn 0 1 0
vn 0 1 0
vn 0 1 0
vn -1 0 0
vn -1 0 0
vn -1 0 0
vn -1 0 0
vn 0 -1 0
vn 0 -1 0
vn 0 -1 0
vn 0 -1 0
vn 0 0 -1
vn 0 0 -1
vn 0 0 -1
vn 0 0 -1
vn 0 0 1
vn 0 0 1
vn 0 0 1
vn 0 0 1
vn 1 0 0
vn 1 0 0
vn 1 0 0
vn 1 0 0
vn 0 0.9767283 -0.2144807
vn 0 0.9767283 -0.2144807
vn 0 0.9767283 -0.2144807
vn 0 0.9767283 -0.2144807
vn -1 0 0
vn -1 0 0
vn -1 0 0
vn -1 0 0
vn 0 -0.9767265 0.2144885
vn 0 -0.9767265 0.2144885
vn 0 -0.9767265 0.2144885
vn 0 -0.9767265 0.2144885
vn 0 -0.2164561 -0.9762923
vn 0 -0.2164561 -0.9762923
vn 0 -0.2164561 -0.9762923
vn 0 -0.2164561 -0.9762923
vn 0 0.2164523 0.9762932
vn 0 0.2164523 0.9762932
vn 0 0.2164523 0.9762932
vn 0 0.2164523 0.9762932
vn 1 0 0
vn 1 0 0
vn 1 0 0
vn 1 0 0
vn 0 0.7710887 0.6367278
vn 0 0.7710887 0.6367278
vn 0 0.7710887 0.6367278
vn 0 0.7710887 0.6367278
vn -1 0 0
vn -1 0 0
vn -1 0 0
vn -1 0 0
vn 0 -0.7710741 -0.6367455
vn 0 -0.7710741 -0.6367455
vn 0 -0.7710741 -0.6367455
vn 0 -0.7710741 -0.6367455
vn 0 0.6345596 -0.7728739
vn 0 0.6345596 -0.7728739
vn 0 0.6345596 -0.7728739
vn 0 0.6345596 -0.7728739
vn 0 -0.6345619 0.772872
vn 0 -0.6345619 0.772872
vn 0 -0.6345619 0.772872
vn 0 -0.6345619 0.772872
vn 0 1 0
vn 0 1 0
vn 0 1 0
vn 0 1 0
vn 0 1 0
vn 0 1 0
vn 0 1 0
vn 0 1 0
vn 1 0 0
vn 1 0 0
vn 1 0 0
vn 1 0 0
vn 0 0 -1
vn 0 0 -1
vn 0 0 -1
vn 0 0 -1
vn -1 0 0
vn -1 0 0
vn -1 0 0
vn -1 0 0
vn 0 0 1
vn 0 0 1
vn 0 0 1
vn 0 0 1

vt 0.1715088 0.4753418
vt 0.1715088 0.4753418
vt 0.1715088 0.4753418
vt 0.1715088 0.4753418
vt 0.1715088 0.4753418
vt 0.1715088 0.4753418
vt 0.1715088 0.4753418
vt 0.1715088 0.4753418
vt 0.1409912 0.4753418
vt 0.1409912 0.4753418
vt 0.1409912 0.4753418
vt 0.1409912 0.4753418
vt 0.1715088 0.4753418
vt 0.1715088 0.4753418
vt 0.1715088 0.4753418
vt 0.1715088 0.4753418
vt 0.1715088 0.4753418
vt 0.1715088 0.4753418
vt 0.1715088 0.4753418
vt 0.1715088 0.4753418
vt 0.2956543 0.442627
vt 0.2956543 0.442627
vt 0.2956543 0.442627
vt 0.2956543 0.442627
vt 0.1409912 0.4753418
vt 0.1409912 0.4753418
vt 0.1409912 0.4753418
vt 0.1409912 0.4753418
vt 0.1409912 0.4753418
vt 0.1409912 0.4753418
vt 0.1409912 0.4753418
vt 0.1409912 0.4753418
vt 0.2033691 0.4753418
vt 0.2033691 0.4753418
vt 0.2033691 0.4753418
vt 0.2033691 0.4753418
vt 0.2033691 0.4753418
vt 0.2033691 0.4753418
vt 0.2033691 0.4753418
vt 0.2033691 0.4753418
vt 0.1409912 0.4753418
vt 0.1409912 0.4753418
vt 0.1409912 0.4753418
vt 0.1409912 0.4753418
vt 0.1409912 0.4753418
vt 0.1409912 0.4753418
vt 0.1409912 0.4753418
vt 0.1409912 0.4753418
vt 0.1098633 0.4753418
vt 0.1098633 0.4753418
vt 0.1098633 0.4753418
vt 0.1098633 0.4753418
vt 0.1098633 0.4753418
vt 0.1098633 0.4753418
vt 0.1098633 0.4753418
vt 0.1098633 0.4753418
vt 0.1715088 0.4753418
vt 0.1715088 0.4753418
vt 0.1715088 0.4753418
vt 0.1715088 0.4753418
vt 0.2331543 0.4753418
vt 0.2331543 0.4753418
vt 0.2331543 0.4753418
vt 0.2331543 0.4753418
vt 0.1715088 0.4753418
vt 0.1715088 0.4753418
vt 0.1715088 0.4753418
vt 0.1715088 0.4753418
vt 0.1409912 0.4753418
vt 0.1409912 0.4753418
vt 0.1409912 0.4753418
vt 0.1409912 0.4753418
vt 0.1409912 0.4753418
vt 0.1409912 0.4753418
vt 0.1409912 0.4753418
vt 0.1409912 0.4753418
vt 0.1409912 0.4753418
vt 0.1409912 0.4753418
vt 0.1409912 0.4753418
vt 0.1409912 0.4753418
vt 0.1409912 0.4753418
vt 0.1409912 0.4753418
vt 0.1409912 0.4753418
vt 0.1409912 0.4753418
vt 0.1409912 0.4753418
vt 0.1409912 0.4753418
vt 0.1409912 0.4753418
vt 0.1409912 0.4753418
vt 0.1409912 0.4753418
vt 0.1409912 0.4753418
vt 0.1409912 0.4753418
vt 0.1409912 0.4753418
vt 0.1409912 0.4753418
vt 0.1409912 0.4753418
vt 0.1409912 0.4753418
vt 0.1409912 0.4753418
vt 0.1409912 0.4753418
vt 0.1409912 0.4753418
vt 0.1409912 0.4753418
vt 0.1409912 0.4753418
vt 0.1409912 0.4753418
vt 0.1409912 0.4753418
vt 0.1409912 0.4753418
vt 0.1409912 0.4753418
vt 0.1715088 0.4753418
vt 0.1715088 0.4753418
vt 0.1715088 0.4753418
vt 0.1715088 0.4753418
vt 0.2033691 0.4753418
vt 0.2033691 0.4753418
vt 0.2033691 0.4753418
vt 0.2033691 0.4753418
vt 0.1715088 0.4753418
vt 0.1715088 0.4753418
vt 0.1715088 0.4753418
vt 0.1715088 0.4753418
vt 0.1409912 0.4753418
vt 0.1409912 0.4753418
vt 0.1409912 0.4753418
vt 0.1409912 0.4753418
vt 0.1409912 0.4753418
vt 0.1409912 0.4753418
vt 0.1409912 0.4753418
vt 0.1409912 0.4753418
vt 0.1409912 0.4753418
vt 0.1409912 0.4753418
vt 0.1409912 0.4753418
vt 0.1409912 0.4753418
vt 0.1715088 0.4753418
vt 0.1715088 0.4753418
vt 0.1715088 0.4753418
vt 0.1715088 0.4753418
vt 0.1409912 0.4753418
vt 0.1409912 0.4753418
vt 0.1409912 0.4753418
vt 0.1409912 0.4753418
vt 0.1715088 0.4753418
vt 0.1715088 0.4753418
vt 0.1715088 0.4753418
vt 0.1715088 0.4753418
vt 0.1409912 0.4753418
vt 0.1409912 0.4753418
vt 0.1409912 0.4753418
vt 0.1409912 0.4753418
vt 0.1409912 0.4753418
vt 0.1409912 0.4753418
vt 0.1409912 0.4753418
vt 0.1409912 0.4753418
vt 0.1409912 0.4753418
vt 0.1409912 0.4753418
vt 0.1409912 0.4753418
vt 0.1409912 0.4753418
vt 0.2033691 0.4753418
vt 0.2033691 0.4753418
vt 0.2033691 0.4753418
vt 0.2033691 0.4753418
vt 0.2033691 0.4753418
vt 0.2033691 0.4753418
vt 0.2033691 0.4753418
vt 0.2033691 0.4753418
vt 0.1409912 0.4753418
vt 0.1409912 0.4753418
vt 0.1409912 0.4753418
vt 0.1409912 0.4753418
vt 0.1409912 0.4753418
vt 0.1409912 0.4753418
vt 0.1409912 0.4753418
vt 0.1409912 0.4753418
vt 0.1409912 0.4753418
vt 0.1409912 0.4753418
vt 0.1409912 0.4753418
vt 0.1409912 0.4753418
vt 0.1409912 0.4753418
vt 0.1409912 0.4753418
vt 0.1409912 0.4753418
vt 0.1409912 0.4753418

g Prop_Desk_Lamp_982_113
usemtl Prop_Desk_Lamp_982_113
usemap Prop_Desk_Lamp_982_113
f 1/1/1 3/3/3 2/2/2
f 1/1/1 4/4/4 3/3/3
f 2/2/2 3/3/3 5/5/5
f 2/2/2 5/5/5 6/6/6
f 6/6/6 5/5/5 7/7/7
f 6/6/6 7/7/7 8/8/8
f 9/9/9 11/11/11 10/10/10
f 9/9/9 12/12/12 11/11/11
f 13/13/13 15/15/15 14/14/14
f 13/13/13 16/16/16 15/15/15
f 16/16/16 13/13/13 17/17/17
f 16/16/16 17/17/17 18/18/18
f 18/18/18 17/17/17 19/19/19
f 18/18/18 19/19/19 20/20/20
f 21/21/21 23/23/23 22/22/22
f 21/21/21 24/24/24 23/23/23
f 25/25/25 27/27/27 26/26/26
f 25/25/25 28/28/28 27/27/27
f 26/26/26 27/27/27 29/29/29
f 26/26/26 29/29/29 30/30/30
f 30/30/30 29/29/29 31/31/31
f 30/30/30 31/31/31 32/32/32
f 33/33/33 35/35/35 34/34/34
f 33/33/33 36/36/36 35/35/35
f 34/34/34 35/35/35 37/37/37
f 34/34/34 37/37/37 38/38/38
f 38/38/38 37/37/37 39/39/39
f 38/38/38 39/39/39 40/40/40
f 41/41/41 43/43/43 42/42/42
f 41/41/41 44/44/44 43/43/43
f 44/44/44 45/45/45 43/43/43
f 44/44/44 46/46/46 45/45/45
f 46/46/46 47/47/47 45/45/45
f 46/46/46 48/48/48 47/47/47
f 48/48/48 42/42/42 47/47/47
f 48/48/48 41/41/41 42/42/42
f 49/49/49 51/51/51 50/50/50
f 49/49/49 52/52/52 51/51/51
f 52/52/52 53/53/53 51/51/51
f 52/52/52 54/54/54 53/53/53
f 54/54/54 55/55/55 53/53/53
f 54/54/54 56/56/56 55/55/55
f 56/56/56 50/50/50 55/55/55
f 56/56/56 49/49/49 50/50/50
f 57/57/57 59/59/59 58/58/58
f 57/57/57 60/60/60 59/59/59
f 61/61/61 63/63/63 62/62/62
f 61/61/61 64/64/64 63/63/63
f 65/65/65 67/67/67 66/66/66
f 65/65/65 68/68/68 67/67/67
f 69/69/69 71/71/71 70/70/70
f 69/69/69 72/72/72 71/71/71
f 73/73/73 75/75/75 74/74/74
f 73/73/73 76/76/76 75/75/75
f 77/77/77 79/79/79 78/78/78
f 77/77/77 80/80/80 79/79/79
f 81/81/81 83/83/83 82/82/82
f 81/81/81 84/84/84 83/83/83
f 85/85/85 87/87/87 86/86/86
f 85/85/85 88/88/88 87/87/87
f 89/89/89 91/91/91 90/90/90
f 89/89/89 92/92/92 91/91/91
f 93/93/93 95/95/95 94/94/94
f 93/93/93 96/96/96 95/95/95
f 97/97/97 99/99/99 98/98/98
f 97/97/97 100/100/100 99/99/99
f 101/101/101 103/103/103 102/102/102
f 101/101/101 104/104/104 103/103/103
f 105/105/105 107/107/107 106/106/106
f 105/105/105 108/108/108 107/107/107
f 109/109/109 111/111/111 110/110/110
f 109/109/109 112/112/112 111/111/111
f 113/113/113 115/115/115 114/114/114
f 113/113/113 116/116/116 115/115/115
f 117/117/117 119/119/119 118/118/118
f 117/117/117 120/120/120 119/119/119
f 121/121/121 123/123/123 122/122/122
f 121/121/121 124/124/124 123/123/123
f 125/125/125 127/127/127 126/126/126
f 125/125/125 128/128/128 127/127/127
f 129/129/129 131/131/131 130/130/130
f 129/129/129 132/132/132 131/131/131
f 133/133/133 135/135/135 134/134/134
f 133/133/133 136/136/136 135/135/135
f 137/137/137 139/139/139 138/138/138
f 137/137/137 140/140/140 139/139/139
f 141/141/141 143/143/143 142/142/142
f 141/141/141 144/144/144 143/143/143
f 145/145/145 147/147/147 146/146/146
f 145/145/145 148/148/148 147/147/147
f 149/149/149 151/151/151 150/150/150
f 149/149/149 152/152/152 151/151/151
f 153/153/153 155/155/155 154/154/154
f 153/153/153 156/156/156 155/155/155
f 156/156/156 157/157/157 155/155/155
f 156/156/156 158/158/158 157/157/157
f 158/158/158 159/159/159 157/157/157
f 158/158/158 160/160/160 159/159/159
f 160/160/160 154/154/154 159/159/159
f 160/160/160 153/153/153 154/154/154
f 161/161/161 163/163/163 162/162/162
f 161/161/161 164/164/164 163/163/163
f 165/165/165 167/167/167 166/166/166
f 165/165/165 168/168/168 167/167/167
f 169/169/169 171/171/171 170/170/170
f 169/169/169 172/172/172 171/171/171
f 173/173/173 175/175/175 174/174/174
f 173/173/173 176/176/176 175/175/175
