#Prop_Plant_02_1073_19.obj

v -0.0881619 4.768372E-08 -0.09783349
v -0.0881619 0.2496535 -0.09783349
v -0.0881619 0.2496544 0.0978334
v -0.0881619 4.768372E-08 0.0978334
v 0.107504 0.2496535 -0.09783349
v 0.107504 4.768372E-08 -0.09783349
v 0.107504 4.768372E-08 0.0978334
v 0.107504 0.2496544 0.0978334
v 0.107504 4.768372E-08 -0.09783349
v -0.0881619 4.768372E-08 -0.09783349
v -0.0881619 4.768372E-08 0.0978334
v 0.107504 4.768372E-08 0.0978334
v -0.0881619 4.768372E-08 0.0978334
v -0.0881619 0.2496544 0.0978334
v 0.107504 0.2496544 0.0978334
v 0.107504 4.768372E-08 0.0978334
v 0.107504 4.768372E-08 -0.09783349
v 0.107504 0.2496535 -0.09783349
v -0.0881619 0.2496535 -0.09783349
v -0.0881619 4.768372E-08 -0.09783349
v -0.0881619 0.2496535 -0.09783349
v -0.05306573 0.2496535 -0.06273675
v -0.05306573 0.2496544 0.06273685
v -0.0881619 0.2496544 0.0978334
v 0.07240634 0.2496544 0.06273685
v 0.107504 0.2496544 0.0978334
v 0.07240634 0.2496535 -0.06273675
v 0.107504 0.2496535 -0.09783349
v 0.07240634 0.2496535 -0.06273675
v 0.07240634 0.2496544 0.06273685
v -0.05306573 0.2496544 0.06273685
v -0.05306573 0.2496535 -0.06273675
v -0.06991144 0.4823855 0.06960368
v -0.06991144 0.4823855 -0.07006192
v 0.08721385 0.4823855 -0.0673243
v 0.08721308 0.4823855 0.06960368
v -0.08793931 0.321999 -0.08440385
v -0.06991144 0.4823855 -0.07006192
v -0.06991144 0.4823855 0.06960368
v -0.08793969 0.321999 0.08562846
v -0.06991144 0.4823855 -0.07006192
v -0.08793931 0.321999 -0.08440385
v 0.1052419 0.321999 -0.08272099
v 0.08721385 0.4823855 -0.0673243
v 0.105241 0.321999 0.08562846
v 0.08721308 0.4823855 0.06960368
v 0.08721385 0.4823855 -0.0673243
v 0.1052419 0.321999 -0.08272099
v -0.08793969 0.321999 0.08562846
v -0.06991144 0.4823855 0.06960368
v 0.08721308 0.4823855 0.06960368
v 0.105241 0.321999 0.08562846
v 0.03892474 0.2496546 -0.02660127
v -0.02162271 0.2496546 -0.02715077
v -0.02162271 0.2496546 0.02837539
v 0.03892474 0.2496546 0.02837539
v 0.1052419 0.321999 -0.08272099
v 0.03892474 0.321999 -0.02660127
v 0.03892474 0.321999 0.02837539
v 0.105241 0.321999 0.08562846
v -0.02162271 0.321999 0.02837539
v -0.08793969 0.321999 0.08562846
v -0.02162271 0.321999 -0.02715077
v -0.08793931 0.321999 -0.08440385
v 0.03892474 0.321999 -0.02660127
v 0.03892474 0.2496546 -0.02660127
v 0.03892474 0.2496546 0.02837539
v 0.03892474 0.321999 0.02837539
v 0.03892474 0.321999 0.02837539
v 0.03892474 0.2496546 0.02837539
v -0.02162271 0.2496546 0.02837539
v -0.02162271 0.321999 0.02837539
v -0.02162271 0.321999 0.02837539
v -0.02162271 0.2496546 0.02837539
v -0.02162271 0.2496546 -0.02715077
v -0.02162271 0.321999 -0.02715077
v -0.02162271 0.321999 -0.02715077
v -0.02162271 0.2496546 -0.02715077
v 0.03892474 0.2496546 -0.02660127
v 0.03892474 0.321999 -0.02660127

vn -1 0 0
vn -1 0 0
vn -1 0 0
vn -1 0 0
vn 1 0 0
vn 1 0 0
vn 1 0 0
vn 1 0 0
vn 0 -1 0
vn 0 -1 0
vn 0 -1 0
vn 0 -1 0
vn 0 0 1
vn 0 0 1
vn 0 0 1
vn 0 0 1
vn 0 0 -1
vn 0 0 -1
vn 0 0 -1
vn 0 0 -1
vn 0 1 0
vn 0 1 0
vn 0 1 0
vn 0 1 0
vn 0 1 0
vn 0 1 0
vn 0 1 0
vn 0 1 0
vn 0 1 0
vn 0 1 0
vn 0 1 0
vn 0 1 0
vn 0 1 0
vn 0 1 0
vn 0 1 0
vn 0 1 0
vn -0.9937419 0.1117003 0
vn -0.9937419 0.1117003 0
vn -0.9937419 0.1117003 0
vn -0.9937419 0.1117003 0
vn 0.01256371 0.0923062 -0.9956514
vn 0.01256371 0.0923062 -0.9956514
vn 0.01256371 0.0923062 -0.9956514
vn 0.01256371 0.0923062 -0.9956514
vn 0.9937419 0.1116999 0
vn 0.9937419 0.1116999 0
vn 0.9937419 0.1116999 0
vn 0.9937419 0.1116999 0
vn 0 0.09941841 0.9950457
vn 0 0.09941841 0.9950457
vn 0 0.09941841 0.9950457
vn 0 0.09941841 0.9950457
vn 0 -1 0
vn 0 -1 0
vn 0 -1 0
vn 0 -1 0
vn 0 -1 0
vn 0 -1 0
vn 0 -1 0
vn 0 -1 0
vn 0 -1 0
vn 0 -1 0
vn 0 -1 0
vn 0 -1 0
vn 1 0 0
vn 1 0 0
vn 1 0 0
vn 1 0 0
vn 0 0 1
vn 0 0 1
vn 0 0 1
vn 0 0 1
vn -1 0 0
vn -1 0 0
vn -1 0 0
vn -1 0 0
vn 0.009076047 0 -0.9999589
vn 0.009076047 0 -0.9999589
vn 0.009076047 0 -0.9999589
vn 0.009076047 0 -0.9999589

vt 0.2995605 0.08612061
vt 0.2995605 0.08612061
vt 0.2995605 0.08612061
vt 0.2995605 0.08612061
vt 0.2995605 0.08612061
vt 0.2995605 0.08612061
vt 0.2995605 0.08612061
vt 0.2995605 0.08612061
vt 0.1787109 0.08526611
vt 0.1787109 0.08526611
vt 0.1787109 0.08526611
vt 0.1787109 0.08526611
vt 0.3305664 0.08612061
vt 0.3305664 0.08612061
vt 0.3305664 0.08612061
vt 0.3305664 0.08612061
vt 0.3305664 0.08612061
vt 0.3305664 0.08612061
vt 0.3305664 0.08612061
vt 0.3305664 0.08612061
vt 0.3891602 0.08728027
vt 0.3891602 0.08728027
vt 0.3891602 0.08728027
vt 0.3891602 0.08728027
vt 0.3891602 0.08728027
vt 0.3891602 0.08728027
vt 0.3891602 0.08728027
vt 0.3891602 0.08728027
vt 0.04821777 0.4753418
vt 0.04821777 0.4753418
vt 0.04821777 0.4753418
vt 0.04821777 0.4753418
vt 0.326416 0.421875
vt 0.326416 0.421875
vt 0.326416 0.421875
vt 0.326416 0.421875
vt 0.2050781 0.4206543
vt 0.2050781 0.4206543
vt 0.2050781 0.4206543
vt 0.2050781 0.4206543
vt 0.2641602 0.4221191
vt 0.2641602 0.4221191
vt 0.2641602 0.4221191
vt 0.2641602 0.4221191
vt 0.3583984 0.4213867
vt 0.3583984 0.4213867
vt 0.3583984 0.4213867
vt 0.3583984 0.4213867
vt 0.2641602 0.4221191
vt 0.2641602 0.4221191
vt 0.2641602 0.4221191
vt 0.2641602 0.4221191
vt 0.2751465 0.3989258
vt 0.2751465 0.3989258
vt 0.2751465 0.3989258
vt 0.2751465 0.3989258
vt 0.1077881 0.4206543
vt 0.1077881 0.4206543
vt 0.1077881 0.4206543
vt 0.1077881 0.4206543
vt 0.1077881 0.4206543
vt 0.1077881 0.4206543
vt 0.1077881 0.4206543
vt 0.1077881 0.4206543
vt 0.2751465 0.3989258
vt 0.2751465 0.3989258
vt 0.2751465 0.3989258
vt 0.2751465 0.3989258
vt 0.3571777 0.3981934
vt 0.3571777 0.3981934
vt 0.3571777 0.3981934
vt 0.3571777 0.3981934
vt 0.2751465 0.3989258
vt 0.2751465 0.3989258
vt 0.2751465 0.3989258
vt 0.2751465 0.3989258
vt 0.3571777 0.3981934
vt 0.3571777 0.3981934
vt 0.3571777 0.3981934
vt 0.3571777 0.3981934

g Prop_Plant_02_1073_19
usemtl Prop_Plant_02_1073_19
usemap Prop_Plant_02_1073_19
f 1/1/1 3/3/3 2/2/2
f 1/1/1 4/4/4 3/3/3
f 5/5/5 7/7/7 6/6/6
f 5/5/5 8/8/8 7/7/7
f 9/9/9 11/11/11 10/10/10
f 9/9/9 12/12/12 11/11/11
f 13/13/13 15/15/15 14/14/14
f 13/13/13 16/16/16 15/15/15
f 17/17/17 19/19/19 18/18/18
f 17/17/17 20/20/20 19/19/19
f 21/21/21 23/23/23 22/22/22
f 21/21/21 24/24/24 23/23/23
f 24/24/24 25/25/25 23/23/23
f 24/24/24 26/26/26 25/25/25
f 26/26/26 27/27/27 25/25/25
f 26/26/26 28/28/28 27/27/27
f 28/28/28 22/22/22 27/27/27
f 28/28/28 21/21/21 22/22/22
f 29/29/29 31/31/31 30/30/30
f 29/29/29 32/32/32 31/31/31
f 33/33/33 35/35/35 34/34/34
f 33/33/33 36/36/36 35/35/35
f 37/37/37 39/39/39 38/38/38
f 37/37/37 40/40/40 39/39/39
f 41/41/41 43/43/43 42/42/42
f 41/41/41 44/44/44 43/43/43
f 45/45/45 47/47/47 46/46/46
f 45/45/45 48/48/48 47/47/47
f 49/49/49 51/51/51 50/50/50
f 49/49/49 52/52/52 51/51/51
f 53/53/53 55/55/55 54/54/54
f 53/53/53 56/56/56 55/55/55
f 57/57/57 59/59/59 58/58/58
f 57/57/57 60/60/60 59/59/59
f 60/60/60 61/61/61 59/59/59
f 60/60/60 62/62/62 61/61/61
f 62/62/62 63/63/63 61/61/61
f 62/62/62 64/64/64 63/63/63
f 64/64/64 58/58/58 63/63/63
f 64/64/64 57/57/57 58/58/58
f 65/65/65 67/67/67 66/66/66
f 65/65/65 68/68/68 67/67/67
f 69/69/69 71/71/71 70/70/70
f 69/69/69 72/72/72 71/71/71
f 73/73/73 75/75/75 74/74/74
f 73/73/73 76/76/76 75/75/75
f 77/77/77 79/79/79 78/78/78
f 77/77/77 80/80/80 79/79/79
