#Prop_Computer_Screen_946_125.obj

v -0.3989107 0.08668192 0.02954855
v -0.3989107 0.7911206 0.02954855
v -0.3989107 0.7911206 0.2373351
v -0.3989107 0.08668192 0.2373351
v -0.3989107 0.7911206 0.02954855
v 0.3989103 0.7911206 0.02954855
v 0.3989103 0.7911206 0.2373351
v -0.3989107 0.7911206 0.2373351
v 0.3989103 0.7911206 0.02954855
v 0.3989103 0.08668192 0.02954855
v 0.3989103 0.08668192 0.2373351
v 0.3989103 0.7911206 0.2373351
v 0.3989103 0.08668192 0.02954855
v -0.3989107 0.08668192 0.02954855
v -0.3989107 0.08668192 0.2373351
v 0.3989103 0.08668192 0.2373351
v -0.1981241 0.2938164 -0.2988549
v 0.1981237 0.2938164 -0.2988549
v -0.3336222 0.208624 0.2081794
v -0.3336222 0.7258313 0.2081794
v 0.333618 0.7258313 0.2081794
v 0.333618 0.208624 0.2081794
v 0.1981237 0.2938164 -0.2988549
v 0.1981237 0.6581849 -0.2988549
v -0.1981241 0.6581849 -0.2988549
v -0.1981241 0.2938164 -0.2988549
v 0.3989103 0.08668192 0.2373351
v 0.333618 0.208624 0.2373351
v 0.333618 0.7258313 0.2373351
v 0.3989103 0.7911206 0.2373351
v -0.3336222 0.7258313 0.2373351
v -0.3989107 0.7911206 0.2373351
v -0.3336222 0.208624 0.2373351
v -0.3989107 0.08668192 0.2373351
v -0.3335344 0.1133966 0.2373351
v -0.2947924 0.1133966 0.2373351
v -0.2947924 0.1456586 0.2373351
v -0.3336222 0.208624 0.2373351
v -0.3335344 0.1456588 0.2373351
v -0.3336222 0.208624 0.2373351
v -0.3336222 0.208624 0.2081794
v 0.333618 0.208624 0.2081794
v 0.333618 0.208624 0.2373351
v 0.333618 0.208624 0.2373351
v 0.333618 0.208624 0.2081794
v 0.333618 0.7258313 0.2081794
v 0.333618 0.7258313 0.2373351
v 0.333618 0.7258313 0.2373351
v 0.333618 0.7258313 0.2081794
v -0.3336222 0.7258313 0.2081794
v -0.3336222 0.7258313 0.2373351
v -0.3336222 0.7258313 0.2373351
v -0.3336222 0.7258313 0.2081794
v -0.3336222 0.208624 0.2081794
v -0.3336222 0.208624 0.2373351
v -0.3989107 0.08668192 0.02954855
v -0.1981241 0.2938164 -0.2988549
v -0.1981241 0.6581849 -0.2988549
v -0.3989107 0.7911206 0.02954855
v -0.3989107 0.7911206 0.02954855
v -0.1981241 0.6581849 -0.2988549
v 0.1981237 0.6581849 -0.2988549
v 0.3989103 0.7911206 0.02954855
v 0.3989103 0.7911206 0.02954855
v 0.1981237 0.6581849 -0.2988549
v 0.1981237 0.2938164 -0.2988549
v 0.3989103 0.08668192 0.02954855
v -0.3335344 0.1456588 0.2373351
v -0.2947924 0.1456586 0.2373351
v -0.2947924 0.1133966 0.2373351
v -0.3335344 0.1133966 0.2373351
v 0.3989103 0.08668192 0.2373351
v -0.2947924 0.1456586 0.2373351
v -0.3335344 0.1456588 0.2373351
v 0.3989103 0.08668192 0.2373351
v -0.3335344 0.1456588 0.2373351
v -0.3336222 0.208624 0.2373351
v -0.1394693 0.0439863 -0.06552515
v -0.1394693 0.1687432 -0.06552515
v -0.1394693 0.1304723 0.2040557
v -0.1394693 0.0439863 0.2040557
v -0.1394693 0.1687432 -0.06552515
v 0.1301191 0.1687432 -0.06552515
v 0.1301191 0.1304723 0.2040557
v -0.1394693 0.1304723 0.2040557
v 0.1301191 0.1687432 -0.06552515
v 0.1301191 0.0439863 -0.06552515
v 0.1301191 0.0439863 0.2040557
v 0.1301191 0.1304723 0.2040557
v 0.2249182 -2.384186E-08 -0.1603242
v -0.2342684 -2.384186E-08 -0.1603242
v -0.2342684 -2.384186E-08 0.2988586
v 0.2249182 -2.384186E-08 0.2988586
v -0.1394693 0.0439863 0.2040557
v -0.1394693 0.1304723 0.2040557
v 0.1301191 0.1304723 0.2040557
v 0.1301191 0.0439863 0.2040557
v 0.1301191 0.0439863 -0.06552515
v 0.1301191 0.1687432 -0.06552515
v -0.1394693 0.1687432 -0.06552515
v -0.1394693 0.0439863 -0.06552515
v 0.1301191 0.0439863 -0.06552515
v 0.2249182 0.0439863 -0.1603242
v 0.2249182 0.0439863 0.2988586
v 0.1301191 0.0439863 0.2040557
v -0.2342684 0.0439863 0.2988586
v -0.1394693 0.0439863 0.2040557
v -0.2342684 0.0439863 -0.1603242
v -0.1394693 0.0439863 -0.06552515
v 0.2249182 0.0439863 -0.1603242
v 0.2249182 -2.384186E-08 -0.1603242
v 0.2249182 -2.384186E-08 0.2988586
v 0.2249182 0.0439863 0.2988586
v 0.2249182 0.0439863 0.2988586
v 0.2249182 -2.384186E-08 0.2988586
v -0.2342684 -2.384186E-08 0.2988586
v -0.2342684 0.0439863 0.2988586
v -0.2342684 0.0439863 0.2988586
v -0.2342684 -2.384186E-08 0.2988586
v -0.2342684 -2.384186E-08 -0.1603242
v -0.2342684 0.0439863 -0.1603242
v -0.2342684 0.0439863 -0.1603242
v -0.2342684 -2.384186E-08 -0.1603242
v 0.2249182 -2.384186E-08 -0.1603242
v 0.2249182 0.0439863 -0.1603242

vn -0.9625932 0 -0.2709508
vn -0.9625932 0 -0.2709508
vn -1 0 0
vn -1 0 0
vn 0 0.9815642 -0.1911326
vn 0 0.9815642 -0.1911326
vn 0 1 0
vn 0 1 0
vn 0.9625932 0 -0.2709508
vn 0.9625932 0 -0.2709508
vn 1 0 0
vn 1 0 0
vn 0 -0.96068 -0.2776578
vn 0 -0.96068 -0.2776578
vn 0 -1 0
vn 0 -1 0
vn 0 -0.4829696 -0.8756371
vn 0 -0.4829696 -0.8756371
vn 0 0 1
vn 0 0 1
vn 0 0 1
vn 0 0 1
vn 0.3584 -0.3553086 -0.8633107
vn 0.4890651 0 -0.8722474
vn -0.4890651 0 -0.8722474
vn -0.3584 -0.3553086 -0.8633107
vn 0 0 1
vn 0 0 1
vn 0 0 1
vn 0 0 1
vn 0 0 1
vn 0 0 1
vn 0 0 1
vn 0 0 1
vn 0 0 1
vn 0 0 1
vn 0 0 1
vn 0 0 1
vn 0 0 1
vn 0 1 0
vn 0 1 0
vn 0 1 0
vn 0 1 0
vn -1 0 0
vn -1 0 0
vn -1 0 0
vn -1 0 0
vn 0 -1 0
vn 0 -1 0
vn 0 -1 0
vn 0 -1 0
vn 1 0 0
vn 1 0 0
vn 1 0 0
vn 1 0 0
vn -0.9625932 0 -0.2709508
vn -0.4890651 0 -0.8722474
vn -0.4890651 0 -0.8722474
vn -0.9625932 0 -0.2709508
vn 0 0.9815642 -0.1911326
vn 0 0.9269367 -0.3752178
vn 0 0.9269367 -0.3752178
vn 0 0.9815642 -0.1911326
vn 0.9625932 0 -0.2709508
vn 0.4890651 0 -0.8722474
vn 0.4890651 0 -0.8722474
vn 0.9625932 0 -0.2709508
vn 0 0 1
vn 0 0 1
vn 0 0 1
vn 0 0 1
vn 0 0 1
vn 0 0 1
vn 0 0 1
vn 0 0 1
vn 0 0 1
vn 0 0 1
vn -1 0 0
vn -1 0 0
vn -1 0 0
vn -1 0 0
vn 0 0.9900728 0.1405549
vn 0 0.9900728 0.1405549
vn 0 0.9900728 0.1405549
vn 0 0.9900728 0.1405549
vn 1 0 0
vn 1 0 0
vn 1 0 0
vn 1 0 0
vn 0 -1 0
vn 0 -1 0
vn 0 -1 0
vn 0 -1 0
vn 0 0 1
vn 0 0 1
vn 0 0 1
vn 0 0 1
vn 0 0 -1
vn 0 0 -1
vn 0 0 -1
vn 0 0 -1
vn 0 1 0
vn 0 1 0
vn 0 1 0
vn 0 1 0
vn 0 1 0
vn 0 1 0
vn 0 1 0
vn 0 1 0
vn 1 0 0
vn 1 0 0
vn 1 0 0
vn 1 0 0
vn 0 0 1
vn 0 0 1
vn 0 0 1
vn 0 0 1
vn -1 0 0
vn -1 0 0
vn -1 0 0
vn -1 0 0
vn 0 0 -1
vn 0 0 -1
vn 0 0 -1
vn 0 0 -1

vt 0.2331543 0.442627
vt 0.2331543 0.442627
vt 0.2331543 0.442627
vt 0.2331543 0.442627
vt 0.2956543 0.442627
vt 0.2956543 0.442627
vt 0.2956543 0.442627
vt 0.2956543 0.442627
vt 0.2331543 0.442627
vt 0.2331543 0.442627
vt 0.2331543 0.442627
vt 0.2331543 0.442627
vt 0.1409912 0.442627
vt 0.1409912 0.442627
vt 0.1409912 0.442627
vt 0.1409912 0.442627
vt 0.1409912 0.442627
vt 0.1409912 0.442627
vt 0.1098633 0.4753418
vt 0.1098633 0.4753418
vt 0.1098633 0.4753418
vt 0.1098633 0.4753418
vt 0.2331543 0.442627
vt 0.2331543 0.442627
vt 0.2331543 0.442627
vt 0.2331543 0.442627
vt 0.2629395 0.442627
vt 0.2629395 0.442627
vt 0.2629395 0.442627
vt 0.2629395 0.442627
vt 0.2629395 0.442627
vt 0.2629395 0.442627
vt 0.2629395 0.442627
vt 0.2629395 0.442627
vt 0.2629395 0.442627
vt 0.2629395 0.442627
vt 0.2629395 0.442627
vt 0.2629395 0.442627
vt 0.2629395 0.442627
vt 0.2033691 0.442627
vt 0.2033691 0.442627
vt 0.2033691 0.442627
vt 0.2033691 0.442627
vt 0.2033691 0.442627
vt 0.2033691 0.442627
vt 0.2033691 0.442627
vt 0.2033691 0.442627
vt 0.2033691 0.442627
vt 0.2033691 0.442627
vt 0.2033691 0.442627
vt 0.2033691 0.442627
vt 0.2033691 0.442627
vt 0.2033691 0.442627
vt 0.2033691 0.442627
vt 0.2033691 0.442627
vt 0.2033691 0.442627
vt 0.2033691 0.442627
vt 0.2033691 0.442627
vt 0.2033691 0.442627
vt 0.2629395 0.442627
vt 0.2629395 0.442627
vt 0.2629395 0.442627
vt 0.2629395 0.442627
vt 0.2033691 0.442627
vt 0.2033691 0.442627
vt 0.2033691 0.442627
vt 0.2033691 0.442627
vt 0.1715088 0.3320313
vt 0.1715088 0.3320313
vt 0.1715088 0.3320313
vt 0.1715088 0.3320313
vt 0.2629395 0.442627
vt 0.2629395 0.442627
vt 0.2629395 0.442627
vt 0.2629395 0.442627
vt 0.2629395 0.442627
vt 0.2629395 0.442627
vt 0.1715088 0.442627
vt 0.1715088 0.442627
vt 0.1715088 0.442627
vt 0.1715088 0.442627
vt 0.1715088 0.442627
vt 0.1715088 0.442627
vt 0.1715088 0.442627
vt 0.1715088 0.442627
vt 0.1715088 0.442627
vt 0.1715088 0.442627
vt 0.1715088 0.442627
vt 0.1715088 0.442627
vt 0.1715088 0.442627
vt 0.1715088 0.442627
vt 0.1715088 0.442627
vt 0.1715088 0.442627
vt 0.2033691 0.442627
vt 0.2033691 0.442627
vt 0.2033691 0.442627
vt 0.2033691 0.442627
vt 0.2033691 0.442627
vt 0.2033691 0.442627
vt 0.2033691 0.442627
vt 0.2033691 0.442627
vt 0.2629395 0.442627
vt 0.2629395 0.442627
vt 0.2629395 0.442627
vt 0.2629395 0.442627
vt 0.2629395 0.442627
vt 0.2629395 0.442627
vt 0.2629395 0.442627
vt 0.2629395 0.442627
vt 0.1715088 0.442627
vt 0.1715088 0.442627
vt 0.1715088 0.442627
vt 0.1715088 0.442627
vt 0.2033691 0.442627
vt 0.2033691 0.442627
vt 0.2033691 0.442627
vt 0.2033691 0.442627
vt 0.1715088 0.442627
vt 0.1715088 0.442627
vt 0.1715088 0.442627
vt 0.1715088 0.442627
vt 0.2033691 0.442627
vt 0.2033691 0.442627
vt 0.2033691 0.442627
vt 0.2033691 0.442627

g Prop_Computer_Screen_946_125
usemtl Prop_Computer_Screen_946_125
usemap Prop_Computer_Screen_946_125
f 1/1/1 3/3/3 2/2/2
f 1/1/1 4/4/4 3/3/3
f 5/5/5 7/7/7 6/6/6
f 5/5/5 8/8/8 7/7/7
f 9/9/9 11/11/11 10/10/10
f 9/9/9 12/12/12 11/11/11
f 13/13/13 15/15/15 14/14/14
f 13/13/13 16/16/16 15/15/15
f 13/13/13 14/14/14 17/17/17
f 13/13/13 17/17/17 18/18/18
f 19/19/19 21/21/21 20/20/20
f 19/19/19 22/22/22 21/21/21
f 23/23/23 25/25/25 24/24/24
f 23/23/23 26/26/26 25/25/25
f 27/27/27 29/29/29 28/28/28
f 27/27/27 30/30/30 29/29/29
f 30/30/30 31/31/31 29/29/29
f 30/30/30 32/32/32 31/31/31
f 32/32/32 33/33/33 31/31/31
f 28/28/28 33/33/33 27/27/27
f 32/32/32 34/34/34 33/33/33
f 33/33/33 34/34/34 35/35/35
f 34/34/34 36/36/36 35/35/35
f 34/34/34 27/27/27 36/36/36
f 27/27/27 37/37/37 36/36/36
f 38/38/38 35/35/35 39/39/39
f 40/40/40 42/42/42 41/41/41
f 40/40/40 43/43/43 42/42/42
f 44/44/44 46/46/46 45/45/45
f 44/44/44 47/47/47 46/46/46
f 48/48/48 50/50/50 49/49/49
f 48/48/48 51/51/51 50/50/50
f 52/52/52 54/54/54 53/53/53
f 52/52/52 55/55/55 54/54/54
f 56/56/56 58/58/58 57/57/57
f 56/56/56 59/59/59 58/58/58
f 60/60/60 62/62/62 61/61/61
f 60/60/60 63/63/63 62/62/62
f 64/64/64 66/66/66 65/65/65
f 64/64/64 67/67/67 66/66/66
f 68/68/68 70/70/70 69/69/69
f 68/68/68 71/71/71 70/70/70
f 72/72/72 74/74/74 73/73/73
f 75/75/75 77/77/77 76/76/76
f 78/78/78 80/80/80 79/79/79
f 78/78/78 81/81/81 80/80/80
f 82/82/82 84/84/84 83/83/83
f 82/82/82 85/85/85 84/84/84
f 86/86/86 88/88/88 87/87/87
f 86/86/86 89/89/89 88/88/88
f 90/90/90 92/92/92 91/91/91
f 90/90/90 93/93/93 92/92/92
f 94/94/94 96/96/96 95/95/95
f 94/94/94 97/97/97 96/96/96
f 98/98/98 100/100/100 99/99/99
f 98/98/98 101/101/101 100/100/100
f 102/102/102 104/104/104 103/103/103
f 102/102/102 105/105/105 104/104/104
f 105/105/105 106/106/106 104/104/104
f 105/105/105 107/107/107 106/106/106
f 107/107/107 108/108/108 106/106/106
f 107/107/107 109/109/109 108/108/108
f 109/109/109 103/103/103 108/108/108
f 109/109/109 102/102/102 103/103/103
f 110/110/110 112/112/112 111/111/111
f 110/110/110 113/113/113 112/112/112
f 114/114/114 116/116/116 115/115/115
f 114/114/114 117/117/117 116/116/116
f 118/118/118 120/120/120 119/119/119
f 118/118/118 121/121/121 120/120/120
f 122/122/122 124/124/124 123/123/123
f 122/122/122 125/125/125 124/124/124
