#Prop_ToiletRoll_02_614_19.obj

v -0.1845608 -0.05628079 0.1208212
v 0.1845608 -0.05628079 0.1208212
v 0.1845608 -0.008583546 0.2359726
v -0.1845608 -0.008583546 0.2359726
v -0.1845608 -0.008583546 0.2359726
v 0.1845608 -0.008583546 0.2359726
v 0.1845608 -0.05628079 0.351124
v -0.1845608 -0.05628079 0.351124
v -0.1845608 -0.05628079 0.351124
v 0.1845608 -0.05628079 0.351124
v 0.1845608 -0.1714323 0.3988213
v -0.1845608 -0.1714323 0.3988213
v -0.1845608 -0.1714323 0.3988213
v 0.1845608 -0.1714323 0.3988213
v 0.1845608 -0.2889098 0.3988213
v -0.1845608 -0.3309777 0.3988213
v 0.1845608 -0.334281 0.2359726
v -0.1845608 -0.3342808 0.2359726
v -0.1845608 -0.2865837 0.351124
v 0.1845608 -0.2865837 0.351124
v -0.1845608 -0.3342808 0.2359726
v 0.1845608 -0.334281 0.2359726
v 0.1845608 -0.2865837 0.1208212
v -0.1845608 -0.2865837 0.1208212
v -0.1845608 -0.2865837 0.1208212
v 0.1845608 -0.2865837 0.1208212
v 0.1845608 -0.1714323 0.07312398
v -0.1845608 -0.1714323 0.07312398
v -0.1845608 -0.1714323 0.07312398
v 0.1845608 -0.1714323 0.07312398
v 0.1845608 -0.05628079 0.1208212
v -0.1845608 -0.05628079 0.1208212
v -0.1845608 -0.09000784 0.2359726
v -0.1845608 -0.2528566 0.2359726
v -0.1845608 -0.1138565 0.1783969
v -0.1845608 -0.1138565 0.2935483
v -0.1845608 -0.1714323 0.317397
v -0.1845608 -0.229008 0.2935483
v -0.1845608 -0.1714323 0.1545483
v -0.1845608 -0.229008 0.1783969
v 0.1845608 -0.1138565 0.1783969
v 0.1845608 -0.2528566 0.2359726
v 0.1845608 -0.0900079 0.2359726
v 0.1845608 -0.1138565 0.2935483
v 0.1845608 -0.1714323 0.317397
v 0.1845608 -0.229008 0.2935483
v 0.1845608 -0.1714323 0.1545483
v 0.1845608 -0.229008 0.1783969
v -0.1845608 -0.3342808 0.2359726
v -0.1845608 -0.2528566 0.2359726
v -0.1845608 -0.229008 0.2935483
v -0.1845608 -0.2865837 0.351124
v -0.1845608 -0.2388167 0.374861
v -0.1845608 -0.1714323 0.3988213
v -0.1845608 -0.1714323 0.317397
v -0.1845608 -0.1138565 0.2935483
v -0.1845608 -0.05628079 0.351124
v -0.1845608 -0.09000784 0.2359726
v -0.1845608 -0.008583546 0.2359726
v -0.1845608 -0.1138565 0.1783969
v -0.1845608 -0.05628079 0.1208212
v -0.1845608 -0.1714323 0.1545483
v -0.1845608 -0.1714323 0.07312398
v -0.1845608 -0.229008 0.1783969
v -0.1845608 -0.2865837 0.1208212
v -0.1845608 -0.3309777 0.374861
v -0.1845608 -0.3309777 0.3988213
v 0.1845608 -0.05628079 0.351124
v 0.1845608 -0.1138565 0.2935483
v 0.1845608 -0.1714323 0.317397
v 0.1845608 -0.1714323 0.3988213
v 0.1845608 -0.008583546 0.2359726
v 0.1845608 -0.0900079 0.2359726
v 0.1845608 -0.05628079 0.1208212
v 0.1845608 -0.1138565 0.1783969
v 0.1845608 -0.1714323 0.07312398
v 0.1845608 -0.1714323 0.1545483
v 0.1845608 -0.2865837 0.1208212
v 0.1845608 -0.229008 0.1783969
v 0.1845608 -0.334281 0.2359726
v 0.1845608 -0.2528566 0.2359726
v 0.1845608 -0.2865837 0.351124
v 0.1845608 -0.229008 0.2935483
v 0.1845608 -0.2388167 0.374861
v 0.1845608 -0.2889098 0.374861
v 0.1845608 -0.2889098 0.3988213
v 0.2282314 -0.184866 0.2288372
v 0.2282314 -0.1069657 0.2909089
v 0.2282314 0.07728565 0.0531422
v 0.2282314 -0.06652117 0.0531422
v 0.2282314 -0.1069657 0.2909089
v 0.1881561 -0.1069657 0.2909089
v 0.1881561 0.07728565 0.05314222
v 0.2282314 0.07728565 0.0531422
v -0.2282314 -0.1069657 0.2909089
v -0.2282314 -0.184866 0.2288373
v -0.2282314 -0.06652117 0.0531422
v -0.2282314 0.07728565 0.0531422
v 0.1881561 -0.184866 0.2288373
v 0.2282314 -0.184866 0.2288372
v 0.2282314 -0.06652117 0.0531422
v 0.1881561 -0.06652117 0.05314222
v 0.1881561 -0.1069657 0.2909089
v 0.2282314 -0.1069657 0.2909089
v 0.2282314 -0.184866 0.2288372
v 0.1881561 -0.184866 0.2288373
v 0.2759972 -0.07444263 0.05314222
v 0.2759972 0.09293938 0.05314222
v 0.2759972 0.09293938 0
v 0.2759972 -0.07444263 0
v 0.2759972 0.09293938 0.05314222
v -0.2759972 0.09293938 0.05314222
v -0.2759972 0.09293938 0
v 0.2759972 0.09293938 0
v -0.2759972 0.09293938 0.05314222
v -0.2759972 -0.07444263 0.05314222
v -0.2759972 -0.07444263 0
v -0.2759972 0.09293938 0
v -0.2759972 -0.07444263 0.05314222
v 0.2759972 -0.07444263 0.05314222
v 0.2759972 -0.07444263 0
v -0.2759972 -0.07444263 0
v -0.2759972 -0.07444263 0.05314222
v -0.2759972 0.09293938 0.05314222
v 0.2759972 0.09293938 0.05314222
v 0.2759972 -0.07444263 0.05314222
v -0.1881561 -0.1069657 0.2909089
v -0.1881561 0.07728565 0.05314222
v 0.1881561 0.07728565 0.05314222
v 0.1881561 -0.1069657 0.2909089
v 0.1881561 -0.184866 0.2288373
v -0.1881561 -0.184866 0.2288373
v -0.1881561 -0.1069657 0.2909089
v 0.1881561 -0.1069657 0.2909089
v -0.1881561 -0.06652117 0.05314222
v -0.1881561 -0.184866 0.2288373
v 0.1881561 -0.184866 0.2288373
v 0.1881561 -0.06652117 0.05314222
v -0.1881561 -0.1069657 0.2909089
v -0.2282314 -0.1069657 0.2909089
v -0.2282314 0.07728565 0.0531422
v -0.1881561 0.07728565 0.05314222
v -0.2282314 -0.184866 0.2288373
v -0.2282314 -0.1069657 0.2909089
v -0.1881561 -0.1069657 0.2909089
v -0.1881561 -0.184866 0.2288373
v -0.2282314 -0.184866 0.2288373
v -0.1881561 -0.184866 0.2288373
v -0.1881561 -0.06652117 0.05314222
v -0.2282314 -0.06652117 0.0531422
v 0.1845608 -0.2889098 0.3988213
v 0.1845608 -0.2889098 0.374861
v -0.1845608 -0.3309777 0.374861
v -0.1845608 -0.3309777 0.3988213
v 0.1845608 -0.2388167 0.374861
v 0.1845608 -0.2865837 0.351124
v -0.1845608 -0.2865837 0.351124
v -0.1845608 -0.2388167 0.374861
v 0.1845608 -0.2889098 0.374861
v 0.1845608 -0.2388167 0.374861
v -0.1845608 -0.2388167 0.374861
v -0.1845608 -0.3309777 0.374861

vn 0 0.9238795 -0.3826834
vn 0 0.9238795 -0.3826834
vn 0 0.9238795 -0.3826834
vn 0 0.9238795 -0.3826834
vn 0 0.9238795 0.3826834
vn 0 0.9238795 0.3826834
vn 0 0.9238795 0.3826834
vn 0 0.9238795 0.3826834
vn 0 0.3826832 0.9238796
vn 0 0.3826832 0.9238796
vn 0 0.3826832 0.9238796
vn 0 0.3826832 0.9238796
vn 0 0 1
vn 0 0 1
vn 0 0 1
vn 0 0 1
vn 0 -0.9238795 0.3826835
vn 0 -0.9238795 0.3826835
vn 0 -0.9238795 0.3826835
vn 0 -0.9238795 0.3826835
vn 0 -0.9238795 -0.3826835
vn 0 -0.9238795 -0.3826835
vn 0 -0.9238795 -0.3826835
vn 0 -0.9238795 -0.3826835
vn 0 -0.3826833 -0.9238795
vn 0 -0.3826833 -0.9238795
vn 0 -0.3826833 -0.9238795
vn 0 -0.3826833 -0.9238795
vn 0 0.3826833 -0.9238795
vn 0 0.3826833 -0.9238795
vn 0 0.3826833 -0.9238795
vn 0 0.3826833 -0.9238795
vn -1 0 0
vn -1 0 0
vn -1 0 0
vn -1 0 0
vn -1 0 0
vn -1 0 0
vn -1 0 0
vn -1 0 0
vn 1 0 0
vn 1 0 0
vn 1 0 0
vn 1 0 0
vn 1 0 0
vn 1 0 0
vn 1 0 0
vn 1 0 0
vn -1 0 0
vn -1 0 0
vn -1 0 0
vn -1 0 0
vn -1 0 0
vn -1 0 0
vn -1 0 0
vn -1 0 0
vn -1 0 0
vn -1 0 0
vn -1 0 0
vn -1 0 0
vn -1 0 0
vn -1 0 0
vn -1 0 0
vn -1 0 0
vn -1 0 0
vn -1 0 0
vn -1 0 0
vn 1 0 0
vn 1 0 0
vn 1 0 0
vn 1 0 0
vn 1 0 0
vn 1 0 0
vn 1 0 0
vn 1 0 0
vn 1 0 0
vn 1 0 0
vn 1 0 0
vn 1 0 0
vn 1 0 0
vn 1 0 0
vn 1 0 0
vn 1 0 0
vn 1 0 0
vn 1 0 0
vn 1 0 0
vn 1 0 0
vn 1 0 0
vn 1 0 0
vn 1 0 0
vn 0 0.7904438 0.6125345
vn 0 0.7904438 0.6125345
vn 0 0.7904438 0.6125345
vn 0 0.7904438 0.6125345
vn -1 0 0
vn -1 0 0
vn -1 0 0
vn -1 0 0
vn 0 -0.8293941 -0.5586638
vn 0 -0.8293942 -0.5586638
vn 0 -0.8293942 -0.5586638
vn 0 -0.8293941 -0.5586638
vn 0 -0.623172 0.7820848
vn 0 -0.623172 0.7820848
vn 0 -0.623172 0.7820848
vn 0 -0.623172 0.7820848
vn 1 0 0
vn 1 0 0
vn 1 0 0
vn 1 0 0
vn 0 1 0
vn 0 1 0
vn 0 1 0
vn 0 1 0
vn -1 0 0
vn -1 0 0
vn -1 0 0
vn -1 0 0
vn 0 -1 0
vn 0 -1 0
vn 0 -1 0
vn 0 -1 0
vn 0 0 1
vn 0 0 1
vn 0 0 1
vn 0 0 1
vn 0 0.7904438 0.6125345
vn 0 0.7904438 0.6125345
vn 0 0.7904438 0.6125345
vn 0 0.7904438 0.6125345
vn 0 -0.623172 0.7820848
vn 0 -0.6231719 0.7820849
vn 0 -0.6231719 0.7820849
vn 0 -0.623172 0.7820848
vn 0 -0.8293941 -0.5586638
vn 0 -0.8293941 -0.5586638
vn 0 -0.8293941 -0.5586638
vn 0 -0.8293941 -0.5586638
vn 0 0.7904438 0.6125345
vn 0 0.7904438 0.6125345
vn 0 0.7904438 0.6125345
vn 0 0.7904438 0.6125345
vn 0 -0.6231719 0.7820849
vn 0 -0.6231719 0.7820849
vn 0 -0.6231719 0.7820849
vn 0 -0.6231719 0.7820849
vn 0 -0.8293942 -0.5586638
vn 0 -0.8293941 -0.5586638
vn 0 -0.8293941 -0.5586638
vn 0 -0.8293942 -0.5586638
vn 0.1132348 -0.9935682 0
vn 0.1132348 -0.9935682 0
vn 0.1132348 -0.9935682 0
vn 0.1132348 -0.9935682 0
vn 0 -0.4450145 0.8955233
vn 0 -0.4450145 0.8955233
vn 0 -0.4450145 0.8955233
vn 0 -0.4450145 0.8955233
vn 0 0 -1
vn 0 0 -1
vn 0 0 -1
vn 0 0 -1

vt 0.4833984 0.4423828
vt 0.4833984 0.4423828
vt 0.4833984 0.4423828
vt 0.4833984 0.4423828
vt 0.4833984 0.4423828
vt 0.4833984 0.4423828
vt 0.4833984 0.4423828
vt 0.4833984 0.4423828
vt 0.4226074 0.4438477
vt 0.4226074 0.4438477
vt 0.4226074 0.4438477
vt 0.4226074 0.4438477
vt 0.4226074 0.4438477
vt 0.4226074 0.4438477
vt 0.4226074 0.4438477
vt 0.4226074 0.4438477
vt 0.3591309 0.4440918
vt 0.3591309 0.4440918
vt 0.3591309 0.4440918
vt 0.3591309 0.4440918
vt 0.3591309 0.4440918
vt 0.3591309 0.4440918
vt 0.3591309 0.4440918
vt 0.3591309 0.4440918
vt 0.3908691 0.4445801
vt 0.3908691 0.4445801
vt 0.3908691 0.4445801
vt 0.3908691 0.4445801
vt 0.3908691 0.4445801
vt 0.3908691 0.4445801
vt 0.3908691 0.4445801
vt 0.3908691 0.4445801
vt 0.01959229 0.4785156
vt 0.01959229 0.4785156
vt 0.01959229 0.4785156
vt 0.01959229 0.4785156
vt 0.01959229 0.4785156
vt 0.01959229 0.4785156
vt 0.01959229 0.4785156
vt 0.01959229 0.4785156
vt 0.01959229 0.4785156
vt 0.01959229 0.4785156
vt 0.01959229 0.4785156
vt 0.01959229 0.4785156
vt 0.01959229 0.4785156
vt 0.01959229 0.4785156
vt 0.01959229 0.4785156
vt 0.01959229 0.4785156
vt 0.359375 0.4428711
vt 0.359375 0.4428711
vt 0.359375 0.4428711
vt 0.359375 0.4428711
vt 0.359375 0.4428711
vt 0.359375 0.4428711
vt 0.359375 0.4428711
vt 0.359375 0.4428711
vt 0.359375 0.4428711
vt 0.359375 0.4428711
vt 0.359375 0.4428711
vt 0.359375 0.4428711
vt 0.359375 0.4428711
vt 0.359375 0.4428711
vt 0.359375 0.4428711
vt 0.359375 0.4428711
vt 0.359375 0.4428711
vt 0.359375 0.4428711
vt 0.359375 0.4428711
vt 0.357666 0.4445801
vt 0.357666 0.4445801
vt 0.357666 0.4445801
vt 0.357666 0.4445801
vt 0.357666 0.4445801
vt 0.357666 0.4445801
vt 0.357666 0.4445801
vt 0.357666 0.4445801
vt 0.357666 0.4445801
vt 0.357666 0.4445801
vt 0.357666 0.4445801
vt 0.357666 0.4445801
vt 0.357666 0.4445801
vt 0.357666 0.4445801
vt 0.357666 0.4445801
vt 0.357666 0.4445801
vt 0.357666 0.4445801
vt 0.357666 0.4445801
vt 0.357666 0.4445801
vt 0.2963867 0.4777832
vt 0.2963867 0.4777832
vt 0.2963867 0.4777832
vt 0.2963867 0.4777832
vt 0.3286133 0.4750977
vt 0.3286133 0.4750977
vt 0.3286133 0.4750977
vt 0.3286133 0.4750977
vt 0.2963867 0.4777832
vt 0.2963867 0.4777832
vt 0.2963867 0.4777832
vt 0.2963867 0.4777832
vt 0.2342529 0.4768066
vt 0.2342529 0.4768066
vt 0.2342529 0.4768066
vt 0.2342529 0.4768066
vt 0.3293457 0.4758301
vt 0.3293457 0.4758301
vt 0.3293457 0.4758301
vt 0.3293457 0.4758301
vt 0.3078613 0.4743652
vt 0.3078613 0.4743652
vt 0.3078613 0.4743652
vt 0.3078613 0.4743652
vt 0.4245605 0.4748535
vt 0.4245605 0.4748535
vt 0.4245605 0.4748535
vt 0.4245605 0.4748535
vt 0.3078613 0.4743652
vt 0.3078613 0.4743652
vt 0.3078613 0.4743652
vt 0.3078613 0.4743652
vt 0.2644043 0.4741211
vt 0.2644043 0.4741211
vt 0.2644043 0.4741211
vt 0.2644043 0.4741211
vt 0.3295898 0.4765625
vt 0.3295898 0.4765625
vt 0.3295898 0.4765625
vt 0.3295898 0.4765625
vt 0.1442871 0.4772949
vt 0.1442871 0.4772949
vt 0.1442871 0.4772949
vt 0.1442871 0.4772949
vt 0.1442871 0.4772949
vt 0.1442871 0.4772949
vt 0.1442871 0.4772949
vt 0.1442871 0.4772949
vt 0.1442871 0.4772949
vt 0.1442871 0.4772949
vt 0.1442871 0.4772949
vt 0.1442871 0.4772949
vt 0.3286133 0.4750977
vt 0.3286133 0.4750977
vt 0.3286133 0.4750977
vt 0.3286133 0.4750977
vt 0.3293457 0.4758301
vt 0.3293457 0.4758301
vt 0.3293457 0.4758301
vt 0.3293457 0.4758301
vt 0.2342529 0.4768066
vt 0.2342529 0.4768066
vt 0.2342529 0.4768066
vt 0.2342529 0.4768066
vt 0.295166 0.4450684
vt 0.295166 0.4450684
vt 0.295166 0.4450684
vt 0.295166 0.4450684
vt 0.3310547 0.4438477
vt 0.3310547 0.4438477
vt 0.3310547 0.4438477
vt 0.3310547 0.4438477
vt 0.3625488 0.4421387
vt 0.3625488 0.4421387
vt 0.3625488 0.4421387
vt 0.3625488 0.4421387

g Prop_ToiletRoll_02_614_19
usemtl Prop_ToiletRoll_02_614_19
usemap Prop_ToiletRoll_02_614_19
f 1/1/1 3/3/3 2/2/2
f 1/1/1 4/4/4 3/3/3
f 5/5/5 7/7/7 6/6/6
f 5/5/5 8/8/8 7/7/7
f 9/9/9 11/11/11 10/10/10
f 9/9/9 12/12/12 11/11/11
f 13/13/13 15/15/15 14/14/14
f 13/13/13 16/16/16 15/15/15
f 17/17/17 19/19/19 18/18/18
f 17/17/17 20/20/20 19/19/19
f 21/21/21 23/23/23 22/22/22
f 21/21/21 24/24/24 23/23/23
f 25/25/25 27/27/27 26/26/26
f 25/25/25 28/28/28 27/27/27
f 29/29/29 31/31/31 30/30/30
f 29/29/29 32/32/32 31/31/31
f 33/33/33 35/35/35 34/34/34
f 36/36/36 33/33/33 34/34/34
f 37/37/37 36/36/36 34/34/34
f 38/38/38 37/37/37 34/34/34
f 35/35/35 39/39/39 34/34/34
f 39/39/39 40/40/40 34/34/34
f 41/41/41 43/43/43 42/42/42
f 43/43/43 44/44/44 42/42/42
f 44/44/44 45/45/45 42/42/42
f 45/45/45 46/46/46 42/42/42
f 47/47/47 41/41/41 42/42/42
f 48/48/48 47/47/47 42/42/42
f 49/49/49 51/51/51 50/50/50
f 49/49/49 52/52/52 51/51/51
f 53/53/53 51/51/51 52/52/52
f 51/51/51 53/53/53 54/54/54
f 51/51/51 54/54/54 55/55/55
f 54/54/54 56/56/56 55/55/55
f 54/54/54 57/57/57 56/56/56
f 57/57/57 58/58/58 56/56/56
f 57/57/57 59/59/59 58/58/58
f 59/59/59 60/60/60 58/58/58
f 59/59/59 61/61/61 60/60/60
f 61/61/61 62/62/62 60/60/60
f 61/61/61 63/63/63 62/62/62
f 63/63/63 64/64/64 62/62/62
f 63/63/63 65/65/65 64/64/64
f 65/65/65 50/50/50 64/64/64
f 65/65/65 49/49/49 50/50/50
f 54/54/54 53/53/53 66/66/66
f 54/54/54 66/66/66 67/67/67
f 68/68/68 70/70/70 69/69/69
f 68/68/68 71/71/71 70/70/70
f 72/72/72 68/68/68 69/69/69
f 72/72/72 69/69/69 73/73/73
f 74/74/74 72/72/72 73/73/73
f 74/74/74 73/73/73 75/75/75
f 76/76/76 74/74/74 75/75/75
f 76/76/76 75/75/75 77/77/77
f 78/78/78 76/76/76 77/77/77
f 78/78/78 77/77/77 79/79/79
f 80/80/80 78/78/78 79/79/79
f 80/80/80 79/79/79 81/81/81
f 82/82/82 80/80/80 81/81/81
f 82/82/82 81/81/81 83/83/83
f 71/71/71 83/83/83 70/70/70
f 83/83/83 84/84/84 82/82/82
f 84/84/84 83/83/83 71/71/71
f 71/71/71 85/85/85 84/84/84
f 71/71/71 86/86/86 85/85/85
f 87/87/87 89/89/89 88/88/88
f 87/87/87 90/90/90 89/89/89
f 91/91/91 93/93/93 92/92/92
f 91/91/91 94/94/94 93/93/93
f 95/95/95 97/97/97 96/96/96
f 95/95/95 98/98/98 97/97/97
f 99/99/99 101/101/101 100/100/100
f 99/99/99 102/102/102 101/101/101
f 103/103/103 105/105/105 104/104/104
f 103/103/103 106/106/106 105/105/105
f 107/107/107 109/109/109 108/108/108
f 107/107/107 110/110/110 109/109/109
f 111/111/111 113/113/113 112/112/112
f 111/111/111 114/114/114 113/113/113
f 115/115/115 117/117/117 116/116/116
f 115/115/115 118/118/118 117/117/117
f 119/119/119 121/121/121 120/120/120
f 119/119/119 122/122/122 121/121/121
f 123/123/123 125/125/125 124/124/124
f 123/123/123 126/126/126 125/125/125
f 127/127/127 129/129/129 128/128/128
f 127/127/127 130/130/130 129/129/129
f 131/131/131 133/133/133 132/132/132
f 131/131/131 134/134/134 133/133/133
f 135/135/135 137/137/137 136/136/136
f 135/135/135 138/138/138 137/137/137
f 139/139/139 141/141/141 140/140/140
f 139/139/139 142/142/142 141/141/141
f 143/143/143 145/145/145 144/144/144
f 143/143/143 146/146/146 145/145/145
f 147/147/147 149/149/149 148/148/148
f 147/147/147 150/150/150 149/149/149
f 151/151/151 153/153/153 152/152/152
f 151/151/151 154/154/154 153/153/153
f 155/155/155 157/157/157 156/156/156
f 155/155/155 158/158/158 157/157/157
f 159/159/159 161/161/161 160/160/160
f 159/159/159 162/162/162 161/161/161
