#Prop_Couch_01_1532_10.obj

v -2.051578 0 -0.8215055
v -1.657406 1.544008 -0.8215055
v -2.051589 1.544008 -0.8215055
v -0.5827769 1.544008 -0.8215055
v -0.6249681 1.972825 -0.8215055
v -1.657406 1.972825 -0.8215055
v 2.051589 0 -0.8215029
v 0.5828075 1.544008 -0.8215055
v 0.5406265 1.972825 -0.8215055
v -0.5405959 1.972825 -0.8215055
v 0.6249987 1.972825 -0.8215055
v 1.657417 1.972825 -0.8215055
v 1.657417 1.544008 -0.8215055
v 2.051589 1.544008 -0.8215029
v -1.657406 1.544008 -0.3368863
v -2.051589 1.544008 -0.8215055
v -1.657406 1.544008 -0.8215055
v -1.657406 1.544008 0.6417134
v -2.051589 1.544008 0.6417134
v -1.657406 0.4475614 0.6417134
v -0.6249681 0.4475614 0.6417134
v -2.051589 0 0.6417134
v -0.5405959 0.4475614 0.6417134
v 2.051589 0 0.6417134
v 0.5406265 0.4475614 0.6417134
v -1.657406 0.895123 0.6417134
v -2.051589 1.544008 0.6417134
v -1.657406 1.544008 0.6417134
v 0.6249987 0.4475614 0.6417134
v 1.657417 0.4475614 0.6417134
v 1.657417 0.895123 0.6417134
v 2.051589 1.544008 0.6417134
v 1.657417 1.544008 0.6417134
v -1.657406 1.972825 -0.8215055
v -0.6249681 1.972825 -0.8215055
v -0.6249681 1.972825 -0.3368863
v -1.657406 1.972825 -0.3368863
v -2.051578 0 -0.8215055
v -2.051589 1.544008 -0.8215055
v -2.051589 1.544008 0.6417134
v -2.051589 0 0.6417134
v -1.657406 1.544008 -0.3368863
v -1.485335 1.544008 -0.3368863
v -1.485335 1.414193 -0.3368863
v -1.657406 0.895123 -0.3368863
v -1.657406 1.972825 -0.3368863
v -1.313264 1.414193 -0.3368863
v -1.313264 1.544008 -0.3368863
v -0.6249681 1.972825 -0.3368863
v -0.9691107 1.544008 -0.3368863
v -0.7970394 1.544008 -0.3368863
v -0.9691107 1.414193 -0.3368863
v -0.6249681 1.544008 -0.3368863
v -0.7970394 1.414193 -0.3368863
v -0.6249681 0.895123 -0.3368863
v -1.657406 1.544008 0.6417134
v -1.657406 1.544008 -0.3368863
v -1.657406 0.895123 -0.3368863
v -1.657406 0.895123 0.6417134
v -1.657406 1.544008 -0.8215055
v -1.657406 1.972825 -0.8215055
v -1.657406 1.972825 -0.3368863
v -1.657406 1.544008 -0.3368863
v -0.5405959 1.972825 -0.8215055
v 0.5406265 1.972825 -0.8215055
v 0.5406265 1.972825 -0.3368863
v -0.5405959 1.972825 -0.3368863
v -2.051589 0 0.6417134
v 2.051589 0 0.6417134
v 2.051589 0 -0.8215029
v -2.051578 0 -0.8215055
v -0.5405959 1.544008 -0.3368863
v -0.3603905 1.544008 -0.3368863
v -0.3603905 1.414193 -0.3368863
v -0.5405959 0.895123 -0.3368863
v -0.5405959 1.972825 -0.3368863
v -0.180185 1.414193 -0.3368863
v -0.180185 1.544008 -0.3368863
v 0.1802157 1.544008 -0.3368863
v 0.5406265 1.972825 -0.3368863
v 0.3604211 1.544008 -0.3368863
v 0.1802157 1.414193 -0.3368863
v 0.5406265 1.544008 -0.3368863
v 0.3604211 1.414193 -0.3368863
v 0.5406265 0.895123 -0.3368863
v -0.5405959 1.972825 -0.3368863
v -0.6249681 1.972825 -0.3368863
v -0.6249681 1.972825 -0.8215055
v -0.5405959 1.972825 -0.8215055
v -0.6249681 1.544008 -0.3368863
v -0.5405959 1.544008 -0.3368863
v -0.5405959 0.895123 -0.3368863
v -0.6249681 0.895123 -0.3368863
v -0.6249681 1.972825 -0.3368863
v -0.5405959 1.972825 -0.3368863
v -0.5405959 0.895123 0.821508
v -0.5405959 0.4475614 0.821508
v -0.6249681 0.4475614 0.821508
v -0.6249681 0.895123 0.821508
v -1.657406 0.895123 0.821508
v -0.6249681 0.895123 0.821508
v -0.6249681 0.4475614 0.821508
v -1.657406 0.4475614 0.821508
v -0.5405959 0.895123 0.821508
v 0.5406265 0.895123 0.8215055
v 0.5406265 0.4475614 0.8215055
v -0.5405959 0.4475614 0.821508
v -0.6249681 0.895123 -0.3368863
v -0.5405959 0.895123 -0.3368863
v -0.5405959 0.895123 0.821508
v -0.6249681 0.895123 0.821508
v -0.6249681 0.4475614 0.6417134
v -0.6249681 0.4475614 0.821508
v -0.5405959 0.4475614 0.821508
v -0.5405959 0.4475614 0.6417134
v -1.657406 0.895123 0.6417134
v -1.657406 0.895123 -0.3368863
v -0.6249681 0.895123 -0.3368863
v -0.6249681 0.895123 0.821508
v -1.657406 0.895123 0.6597931
v -1.657406 0.895123 0.821508
v -1.657406 0.895123 0.821508
v -1.657406 0.4475614 0.821508
v -1.657406 0.4475614 0.6417134
v -1.657406 0.895123 0.6417134
v -1.657406 0.895123 0.6417134
v -1.657406 0.895123 0.6597931
v -1.657406 0.895123 0.821508
v -1.657406 0.4475614 0.821508
v -0.6249681 0.4475614 0.821508
v -0.6249681 0.4475614 0.6417134
v -1.657406 0.4475614 0.6417134
v -0.5405959 0.895123 -0.3368863
v 0.5406265 0.895123 -0.3368863
v 0.5406265 0.895123 0.8215055
v -0.5405959 0.895123 0.821508
v -0.5405959 0.4475614 0.821508
v 0.5406265 0.4475614 0.8215055
v 0.5406265 0.4475614 0.6417134
v -0.5405959 0.4475614 0.6417134
v 1.657417 1.544008 -0.3368863
v 1.657417 1.544008 -0.8215055
v 2.051589 1.544008 -0.8215029
v 1.657417 1.544008 0.6417134
v 2.051589 1.544008 0.6417134
v 1.657417 1.972825 -0.3368863
v 0.6249987 1.972825 -0.3368863
v 0.6249987 1.972825 -0.8215055
v 1.657417 1.972825 -0.8215055
v 1.657417 0.895123 0.6417134
v 0.6249987 0.895123 0.8215055
v 0.6249987 0.895123 -0.3368863
v 1.657417 0.895123 -0.3368863
v 1.657417 0.895123 0.8215055
v 1.485345 1.414193 -0.3368863
v 1.485345 1.544008 -0.3368863
v 1.657417 1.544008 -0.3368863
v 1.657417 0.895123 -0.3368863
v 1.657417 1.972825 -0.3368863
v 1.313274 1.544008 -0.3368863
v 0.6249987 1.972825 -0.3368863
v 0.9691414 1.544008 -0.3368863
v 0.79707 1.544008 -0.3368863
v 0.9691414 1.414193 -0.3368863
v 1.313274 1.414193 -0.3368863
v 0.6249987 1.544008 -0.3368863
v 0.79707 1.414193 -0.3368863
v 0.6249987 0.895123 -0.3368863
v 1.657417 1.544008 -0.3368863
v 1.657417 1.544008 0.6417134
v 1.657417 0.895123 0.6417134
v 1.657417 0.895123 -0.3368863
v 1.657417 1.544008 -0.8215055
v 1.657417 1.544008 -0.3368863
v 1.657417 1.972825 -0.3368863
v 1.657417 1.972825 -0.8215055
v 0.5406265 1.972825 -0.3368863
v 0.5406265 1.972825 -0.8215055
v 0.6249987 1.972825 -0.8215055
v 0.6249987 1.972825 -0.3368863
v 0.6249987 0.895123 -0.3368863
v 0.6249987 0.895123 0.8215055
v 0.5406265 0.895123 0.8215055
v 0.5406265 0.895123 -0.3368863
v 0.5406265 1.544008 -0.3368863
v 0.6249987 1.544008 -0.3368863
v 0.6249987 0.895123 -0.3368863
v 0.5406265 0.895123 -0.3368863
v 0.6249987 1.972825 -0.3368863
v 0.5406265 1.972825 -0.3368863
v 0.5406265 0.895123 0.8215055
v 0.6249987 0.895123 0.8215055
v 0.6249987 0.4475614 0.8215055
v 0.5406265 0.4475614 0.8215055
v 1.657417 0.4475614 0.8215055
v 0.6249987 0.4475614 0.8215055
v 0.6249987 0.895123 0.8215055
v 1.657417 0.895123 0.8215055
v 2.051589 1.544008 -0.8215029
v 2.051589 0 -0.8215029
v 2.051589 0 0.6417134
v 2.051589 1.544008 0.6417134
v 0.6249987 0.4475614 0.6417134
v 0.5406265 0.4475614 0.6417134
v 0.5406265 0.4475614 0.8215055
v 0.6249987 0.4475614 0.8215055
v 1.657417 0.895123 0.6417134
v 1.657417 0.4475614 0.6417134
v 1.657417 0.4475614 0.8215055
v 1.657417 0.895123 0.8215055
v 1.657417 0.4475614 0.6417134
v 0.6249987 0.4475614 0.6417134
v 0.6249987 0.4475614 0.8215055
v 1.657417 0.4475614 0.8215055
v -0.9691107 1.544008 -0.3368863
v -0.7970394 1.544008 -0.3368863
v -0.7970394 1.414193 -0.3368863
v -0.9691107 1.414193 -0.3368863
v 0.1802157 1.544008 -0.3368863
v 0.3604211 1.544008 -0.3368863
v 0.3604211 1.414193 -0.3368863
v 0.1802157 1.414193 -0.3368863
v 0.79707 1.414193 -0.3368863
v 0.79707 1.544008 -0.3368863
v 0.9691414 1.544008 -0.3368863
v 0.9691414 1.414193 -0.3368863
v -0.3603905 1.544008 -0.3368863
v -0.180185 1.544008 -0.3368863
v -0.180185 1.414193 -0.3368863
v -0.3603905 1.414193 -0.3368863
v 1.313274 1.414193 -0.3368863
v 1.313274 1.544008 -0.3368863
v 1.485345 1.544008 -0.3368863
v 1.485345 1.414193 -0.3368863
v -1.485335 1.544008 -0.3368863
v -1.313264 1.544008 -0.3368863
v -1.313264 1.414193 -0.3368863
v -1.485335 1.414193 -0.3368863

vn 0 0 -1
vn 0 0 -1
vn 0 0 -1
vn 0 0 -1
vn 0 0 -1
vn 0 0 -1
vn 0 0 -1
vn 0 0 -1
vn 0 0 -1
vn 0 0 -1
vn 0 0 -1
vn 0 0 -1
vn 0 0 -1
vn 0 0 -1
vn 0 1 0
vn 0 1 0
vn 0 1 0
vn 0 1 0
vn 0 1 0
vn 0 0 1
vn 0 0 1
vn 0 0 1
vn 0 0 1
vn 0 0 1
vn 0 0 1
vn 0 0 1
vn 0 0 1
vn 0 0 1
vn 0 0 1
vn 0 0 1
vn 0 0 1
vn 0 0 1
vn 0 0 1
vn 0 1 0
vn 0 1 0
vn 0 1 0
vn 0 1 0
vn -1 0 0
vn -1 0 0
vn -1 0 0
vn -1 0 0
vn 0 0 1
vn 0 0 1
vn 0 0 1
vn 0 0 1
vn 0 0 1
vn 0 0 1
vn 0 0 1
vn 0 0 1
vn 0 0 1
vn 0 0 1
vn 0 0 1
vn 0 0 1
vn 0 0 1
vn 0 0 1
vn 1 0 0
vn 1 0 0
vn 1 0 0
vn 1 0 0
vn -1 0 0
vn -1 0 0
vn -1 0 0
vn -1 0 0
vn 0 1 0
vn 0 1 0
vn 0 1 0
vn 0 1 0
vn 0 -1 0
vn 0 -1 0
vn 0 -1 0
vn 0 -1 0
vn 0 0 1
vn 0 0 1
vn 0 0 1
vn 0 0 1
vn 0 0 1
vn 0 0 1
vn 0 0 1
vn 0 0 1
vn 0 0 1
vn 0 0 1
vn 0 0 1
vn 0 0 1
vn 0 0 1
vn 0 0 1
vn 0 1 0
vn 0 1 0
vn 0 1 0
vn 0 1 0
vn 0 0 1
vn 0 0 1
vn 0 0 1
vn 0 0 1
vn 0 0 1
vn 0 0 1
vn 0 0 1
vn 0 0 1
vn 0 0 1
vn 0 0 1
vn 0 0 1
vn 0 0 1
vn 0 0 1
vn 0 0 1
vn 0 0 1
vn 0 0 1
vn 0 0 1
vn 0 0 1
vn 0 1 0
vn 0 1 0
vn 0 1 0
vn 0 1 0
vn 0 -1 0
vn 0 -1 0
vn 0 -1 0
vn 0 -1 0
vn 0 1 0
vn 0 1 0
vn 0 1 0
vn 0 1 0
vn 0 1 0
vn 0 1 0
vn -1 0 0
vn -1 0 0
vn -1 0 0
vn -1 0 0
vn 0 1 0
vn 0 1 0
vn 0 1 0
vn 0 -1 0
vn 0 -1 0
vn 0 -1 0
vn 0 -1 0
vn 0 1 0
vn 0 1 0
vn 0 1 0
vn 0 1 0
vn 0 -1 0
vn 0 -1 0
vn 0 -1 0
vn 0 -1 0
vn 0 1 0
vn 0 1 0
vn 0 1 0
vn 0 1 0
vn 0 1 0
vn 0 1 0
vn 0 1 0
vn 0 1 0
vn 0 1 0
vn 0 1 0
vn 0 1 0
vn 0 1 0
vn 0 1 0
vn 0 1 0
vn 0 0 1
vn 0 0 1
vn 0 0 1
vn 0 0 1
vn 0 0 1
vn 0 0 1
vn 0 0 1
vn 0 0 1
vn 0 0 1
vn 0 0 1
vn 0 0 1
vn 0 0 1
vn 0 0 1
vn 0 0 1
vn -1 0 0
vn -1 0 0
vn -1 0 0
vn -1 0 0
vn 1 0 0
vn 1 0 0
vn 1 0 0
vn 1 0 0
vn 0 1 0
vn 0 1 0
vn 0 1 0
vn 0 1 0
vn 0 1 0
vn 0 1 0
vn 0 1 0
vn 0 1 0
vn 0 0 1
vn 0 0 1
vn 0 0 1
vn 0 0 1
vn 0 0 1
vn 0 0 1
vn 0 0 1
vn 0 0 1
vn 0 0 1
vn 0 0 1
vn 0 0 1
vn 0 0 1
vn 0 0 1
vn 0 0 1
vn 1 0 0
vn 1 0 0
vn 1 0 0
vn 1 0 0
vn 0 -1 0
vn 0 -1 0
vn 0 -1 0
vn 0 -1 0
vn 1 0 0
vn 1 0 0
vn 1 0 0
vn 1 0 0
vn 0 -1 0
vn 0 -1 0
vn 0 -1 0
vn 0 -1 0
vn 0 0 1
vn 0 0 1
vn 0 0 1
vn 0 0 1
vn 0 0 1
vn 0 0 1
vn 0 0 1
vn 0 0 1
vn 0 0 1
vn 0 0 1
vn 0 0 1
vn 0 0 1
vn 0 0 1
vn 0 0 1
vn 0 0 1
vn 0 0 1
vn 0 0 1
vn 0 0 1
vn 0 0 1
vn 0 0 1
vn 0 0 1
vn 0 0 1
vn 0 0 1
vn 0 0 1

vt 0.1715088 0.4753418
vt 0.1715088 0.4753418
vt 0.1715088 0.4753418
vt 0.1715088 0.4753418
vt 0.1715088 0.4753418
vt 0.1715088 0.4753418
vt 0.1715088 0.4753418
vt 0.1715088 0.4753418
vt 0.1715088 0.4753418
vt 0.1715088 0.4753418
vt 0.1715088 0.4753418
vt 0.1715088 0.4753418
vt 0.1715088 0.4753418
vt 0.1715088 0.4753418
vt 0.2629395 0.4753418
vt 0.2629395 0.4753418
vt 0.2629395 0.4753418
vt 0.2629395 0.4753418
vt 0.2629395 0.4753418
vt 0.1715088 0.4753418
vt 0.1715088 0.4753418
vt 0.1715088 0.4753418
vt 0.1715088 0.4753418
vt 0.1715088 0.4753418
vt 0.1715088 0.4753418
vt 0.1715088 0.4753418
vt 0.1715088 0.4753418
vt 0.1715088 0.4753418
vt 0.1715088 0.4753418
vt 0.1715088 0.4753418
vt 0.1715088 0.4753418
vt 0.1715088 0.4753418
vt 0.1715088 0.4753418
vt 0.2629395 0.4753418
vt 0.2629395 0.4753418
vt 0.2629395 0.4753418
vt 0.2629395 0.4753418
vt 0.1098633 0.4753418
vt 0.1098633 0.4753418
vt 0.1098633 0.4753418
vt 0.1098633 0.4753418
vt 0.1715088 0.4753418
vt 0.1715088 0.4753418
vt 0.1715088 0.4753418
vt 0.1715088 0.4753418
vt 0.1715088 0.4753418
vt 0.1715088 0.4753418
vt 0.1715088 0.4753418
vt 0.1715088 0.4753418
vt 0.1715088 0.4753418
vt 0.1715088 0.4753418
vt 0.1715088 0.4753418
vt 0.1715088 0.4753418
vt 0.1715088 0.4753418
vt 0.1715088 0.4753418
vt 0.1409912 0.4753418
vt 0.1409912 0.4753418
vt 0.1409912 0.4753418
vt 0.1409912 0.4753418
vt 0.1098633 0.4753418
vt 0.1098633 0.4753418
vt 0.1098633 0.4753418
vt 0.1098633 0.4753418
vt 0.2629395 0.4753418
vt 0.2629395 0.4753418
vt 0.2629395 0.4753418
vt 0.2629395 0.4753418
vt 0.1715088 0.4753418
vt 0.1715088 0.4753418
vt 0.1715088 0.4753418
vt 0.1715088 0.4753418
vt 0.1715088 0.4753418
vt 0.1715088 0.4753418
vt 0.1715088 0.4753418
vt 0.1715088 0.4753418
vt 0.1715088 0.4753418
vt 0.1715088 0.4753418
vt 0.1715088 0.4753418
vt 0.1715088 0.4753418
vt 0.1715088 0.4753418
vt 0.1715088 0.4753418
vt 0.1715088 0.4753418
vt 0.1715088 0.4753418
vt 0.1715088 0.4753418
vt 0.1715088 0.4753418
vt 0.2033691 0.4753418
vt 0.2033691 0.4753418
vt 0.2033691 0.4753418
vt 0.2033691 0.4753418
vt 0.1098633 0.4753418
vt 0.1098633 0.4753418
vt 0.1098633 0.4753418
vt 0.1098633 0.4753418
vt 0.1098633 0.4753418
vt 0.1098633 0.4753418
vt 0.1098633 0.4753418
vt 0.1098633 0.4753418
vt 0.1098633 0.4753418
vt 0.1098633 0.4753418
vt 0.2033691 0.4753418
vt 0.2033691 0.4753418
vt 0.2033691 0.4753418
vt 0.2033691 0.4753418
vt 0.2033691 0.4753418
vt 0.2033691 0.4753418
vt 0.2033691 0.4753418
vt 0.2033691 0.4753418
vt 0.2033691 0.4753418
vt 0.2033691 0.4753418
vt 0.2033691 0.4753418
vt 0.2033691 0.4753418
vt 0.1098633 0.4753418
vt 0.1098633 0.4753418
vt 0.1098633 0.4753418
vt 0.1098633 0.4753418
vt 0.2629395 0.4753418
vt 0.2629395 0.4753418
vt 0.2629395 0.4753418
vt 0.2629395 0.4753418
vt 0.2629395 0.4753418
vt 0.2629395 0.4753418
vt 0.1715088 0.4753418
vt 0.1715088 0.4753418
vt 0.1715088 0.4753418
vt 0.1715088 0.4753418
vt 0.1715088 0.4753418
vt 0.1715088 0.4753418
vt 0.1715088 0.4753418
vt 0.2033691 0.4753418
vt 0.2033691 0.4753418
vt 0.2033691 0.4753418
vt 0.2033691 0.4753418
vt 0.2629395 0.4753418
vt 0.2629395 0.4753418
vt 0.2629395 0.4753418
vt 0.2629395 0.4753418
vt 0.2033691 0.4753418
vt 0.2033691 0.4753418
vt 0.2033691 0.4753418
vt 0.2033691 0.4753418
vt 0.2629395 0.4753418
vt 0.2629395 0.4753418
vt 0.2629395 0.4753418
vt 0.2629395 0.4753418
vt 0.2629395 0.4753418
vt 0.2629395 0.4753418
vt 0.2629395 0.4753418
vt 0.2629395 0.4753418
vt 0.2629395 0.4753418
vt 0.2629395 0.4753418
vt 0.2629395 0.4753418
vt 0.2629395 0.4753418
vt 0.2629395 0.4753418
vt 0.2629395 0.4753418
vt 0.1715088 0.4753418
vt 0.1715088 0.4753418
vt 0.1715088 0.4753418
vt 0.1715088 0.4753418
vt 0.1715088 0.4753418
vt 0.1715088 0.4753418
vt 0.1715088 0.4753418
vt 0.1715088 0.4753418
vt 0.1715088 0.4753418
vt 0.1715088 0.4753418
vt 0.1715088 0.4753418
vt 0.1715088 0.4753418
vt 0.1715088 0.4753418
vt 0.1715088 0.4753418
vt 0.1409912 0.4753418
vt 0.1409912 0.4753418
vt 0.1409912 0.4753418
vt 0.1409912 0.4753418
vt 0.1098633 0.4753418
vt 0.1098633 0.4753418
vt 0.1098633 0.4753418
vt 0.1098633 0.4753418
vt 0.2033691 0.4753418
vt 0.2033691 0.4753418
vt 0.2033691 0.4753418
vt 0.2033691 0.4753418
vt 0.2033691 0.4753418
vt 0.2033691 0.4753418
vt 0.2033691 0.4753418
vt 0.2033691 0.4753418
vt 0.1098633 0.4753418
vt 0.1098633 0.4753418
vt 0.1098633 0.4753418
vt 0.1098633 0.4753418
vt 0.1098633 0.4753418
vt 0.1098633 0.4753418
vt 0.1098633 0.4753418
vt 0.1098633 0.4753418
vt 0.1098633 0.4753418
vt 0.1098633 0.4753418
vt 0.2033691 0.4753418
vt 0.2033691 0.4753418
vt 0.2033691 0.4753418
vt 0.2033691 0.4753418
vt 0.1098633 0.4753418
vt 0.1098633 0.4753418
vt 0.1098633 0.4753418
vt 0.1098633 0.4753418
vt 0.1098633 0.4753418
vt 0.1098633 0.4753418
vt 0.1098633 0.4753418
vt 0.1098633 0.4753418
vt 0.1715088 0.4753418
vt 0.1715088 0.4753418
vt 0.1715088 0.4753418
vt 0.1715088 0.4753418
vt 0.2033691 0.4753418
vt 0.2033691 0.4753418
vt 0.2033691 0.4753418
vt 0.2033691 0.4753418
vt 0.2331543 0.4753418
vt 0.2331543 0.4753418
vt 0.2331543 0.4753418
vt 0.2331543 0.4753418
vt 0.2331543 0.4753418
vt 0.2331543 0.4753418
vt 0.2331543 0.4753418
vt 0.2331543 0.4753418
vt 0.2331543 0.4753418
vt 0.2331543 0.4753418
vt 0.2331543 0.4753418
vt 0.2331543 0.4753418
vt 0.2331543 0.4753418
vt 0.2331543 0.4753418
vt 0.2331543 0.4753418
vt 0.2331543 0.4753418
vt 0.2331543 0.4753418
vt 0.2331543 0.4753418
vt 0.2331543 0.4753418
vt 0.2331543 0.4753418
vt 0.2331543 0.4753418
vt 0.2331543 0.4753418
vt 0.2331543 0.4753418
vt 0.2331543 0.4753418

g Prop_Couch_01_1532_10
usemtl Prop_Couch_01_1532_10
usemap Prop_Couch_01_1532_10
f 1/1/1 3/3/3 2/2/2
f 4/4/4 1/1/1 2/2/2
f 2/2/2 5/5/5 4/4/4
f 2/2/2 6/6/6 5/5/5
f 7/7/7 1/1/1 4/4/4
f 7/7/7 4/4/4 8/8/8
f 4/4/4 9/9/9 8/8/8
f 4/4/4 10/10/10 9/9/9
f 4/4/4 5/5/5 10/10/10
f 8/8/8 9/9/9 11/11/11
f 12/12/12 8/8/8 11/11/11
f 12/12/12 13/13/13 8/8/8
f 7/7/7 8/8/8 13/13/13
f 13/13/13 14/14/14 7/7/7
f 15/15/15 17/17/17 16/16/16
f 18/18/18 15/15/15 16/16/16
f 18/18/18 16/16/16 19/19/19
f 20/20/20 22/22/22 21/21/21
f 23/23/23 21/21/21 22/22/22
f 23/23/23 22/22/22 24/24/24
f 23/23/23 24/24/24 25/25/25
f 26/26/26 22/22/22 20/20/20
f 26/26/26 27/27/27 22/22/22
f 27/27/27 26/26/26 28/28/28
f 25/25/25 24/24/24 29/29/29
f 24/24/24 30/30/30 29/29/29
f 31/31/31 30/30/30 24/24/24
f 31/31/31 24/24/24 32/32/32
f 33/33/33 31/31/31 32/32/32
f 34/34/34 36/36/36 35/35/35
f 34/34/34 37/37/37 36/36/36
f 38/38/38 40/40/40 39/39/39
f 38/38/38 41/41/41 40/40/40
f 42/42/42 44/44/44 43/43/43
f 42/42/42 45/45/45 44/44/44
f 42/42/42 43/43/43 46/46/46
f 44/44/44 45/45/45 47/47/47
f 46/46/46 43/43/43 48/48/48
f 48/48/48 49/49/49 46/46/46
f 48/48/48 50/50/50 49/49/49
f 47/47/47 50/50/50 48/48/48
f 50/50/50 51/51/51 49/49/49
f 47/47/47 52/52/52 50/50/50
f 49/49/49 51/51/51 53/53/53
f 54/54/54 53/53/53 51/51/51
f 52/52/52 55/55/55 54/54/54
f 54/54/54 55/55/55 53/53/53
f 47/47/47 55/55/55 52/52/52
f 47/47/47 45/45/45 55/55/55
f 56/56/56 58/58/58 57/57/57
f 56/56/56 59/59/59 58/58/58
f 60/60/60 62/62/62 61/61/61
f 60/60/60 63/63/63 62/62/62
f 64/64/64 66/66/66 65/65/65
f 64/64/64 67/67/67 66/66/66
f 68/68/68 70/70/70 69/69/69
f 68/68/68 71/71/71 70/70/70
f 72/72/72 74/74/74 73/73/73
f 72/72/72 75/75/75 74/74/74
f 76/76/76 72/72/72 73/73/73
f 74/74/74 75/75/75 77/77/77
f 76/76/76 73/73/73 78/78/78
f 76/76/76 78/78/78 79/79/79
f 77/77/77 79/79/79 78/78/78
f 76/76/76 79/79/79 80/80/80
f 80/80/80 79/79/79 81/81/81
f 77/77/77 82/82/82 79/79/79
f 80/80/80 81/81/81 83/83/83
f 84/84/84 83/83/83 81/81/81
f 82/82/82 85/85/85 84/84/84
f 84/84/84 85/85/85 83/83/83
f 77/77/77 85/85/85 82/82/82
f 77/77/77 75/75/75 85/85/85
f 86/86/86 88/88/88 87/87/87
f 86/86/86 89/89/89 88/88/88
f 90/90/90 92/92/92 91/91/91
f 90/90/90 93/93/93 92/92/92
f 94/94/94 90/90/90 91/91/91
f 94/94/94 91/91/91 95/95/95
f 96/96/96 98/98/98 97/97/97
f 96/96/96 99/99/99 98/98/98
f 100/100/100 102/102/102 101/101/101
f 100/100/100 103/103/103 102/102/102
f 104/104/104 106/106/106 105/105/105
f 104/104/104 107/107/107 106/106/106
f 108/108/108 110/110/110 109/109/109
f 108/108/108 111/111/111 110/110/110
f 112/112/112 114/114/114 113/113/113
f 112/112/112 115/115/115 114/114/114
f 116/116/116 118/118/118 117/117/117
f 118/118/118 116/116/116 119/119/119
f 119/119/119 116/116/116 120/120/120
f 119/119/119 120/120/120 121/121/121
f 122/122/122 124/124/124 123/123/123
f 124/124/124 122/122/122 125/125/125
f 126/126/126 128/128/128 127/127/127
f 129/129/129 131/131/131 130/130/130
f 129/129/129 132/132/132 131/131/131
f 133/133/133 135/135/135 134/134/134
f 133/133/133 136/136/136 135/135/135
f 137/137/137 139/139/139 138/138/138
f 137/137/137 140/140/140 139/139/139
f 141/141/141 143/143/143 142/142/142
f 144/144/144 143/143/143 141/141/141
f 144/144/144 145/145/145 143/143/143
f 146/146/146 148/148/148 147/147/147
f 146/146/146 149/149/149 148/148/148
f 150/150/150 152/152/152 151/151/151
f 150/150/150 153/153/153 152/152/152
f 150/150/150 151/151/151 154/154/154
f 155/155/155 157/157/157 156/156/156
f 155/155/155 158/158/158 157/157/157
f 157/157/157 159/159/159 156/156/156
f 156/156/156 159/159/159 160/160/160
f 160/160/160 159/159/159 161/161/161
f 160/160/160 161/161/161 162/162/162
f 162/162/162 161/161/161 163/163/163
f 164/164/164 160/160/160 162/162/162
f 164/164/164 165/165/165 160/160/160
f 158/158/158 155/155/155 165/165/165
f 164/164/164 158/158/158 165/165/165
f 163/163/163 161/161/161 166/166/166
f 166/166/166 167/167/167 163/163/163
f 168/168/168 164/164/164 167/167/167
f 166/166/166 168/168/168 167/167/167
f 164/164/164 168/168/168 158/158/158
f 169/169/169 171/171/171 170/170/170
f 169/169/169 172/172/172 171/171/171
f 173/173/173 175/175/175 174/174/174
f 173/173/173 176/176/176 175/175/175
f 177/177/177 179/179/179 178/178/178
f 177/177/177 180/180/180 179/179/179
f 181/181/181 183/183/183 182/182/182
f 181/181/181 184/184/184 183/183/183
f 185/185/185 187/187/187 186/186/186
f 185/185/185 188/188/188 187/187/187
f 189/189/189 185/185/185 186/186/186
f 189/189/189 190/190/190 185/185/185
f 191/191/191 193/193/193 192/192/192
f 191/191/191 194/194/194 193/193/193
f 195/195/195 197/197/197 196/196/196
f 195/195/195 198/198/198 197/197/197
f 199/199/199 201/201/201 200/200/200
f 199/199/199 202/202/202 201/201/201
f 203/203/203 205/205/205 204/204/204
f 203/203/203 206/206/206 205/205/205
f 207/207/207 209/209/209 208/208/208
f 207/207/207 210/210/210 209/209/209
f 211/211/211 213/213/213 212/212/212
f 211/211/211 214/214/214 213/213/213
f 215/215/215 217/217/217 216/216/216
f 215/215/215 218/218/218 217/217/217
f 219/219/219 221/221/221 220/220/220
f 219/219/219 222/222/222 221/221/221
f 223/223/223 225/225/225 224/224/224
f 223/223/223 226/226/226 225/225/225
f 227/227/227 229/229/229 228/228/228
f 227/227/227 230/230/230 229/229/229
f 231/231/231 233/233/233 232/232/232
f 231/231/231 234/234/234 233/233/233
f 235/235/235 237/237/237 236/236/236
f 235/235/235 238/238/238 237/237/237
