#Prop_Computer_Case_997_171.obj

v -0.1788578 0.2766407 0.2052651
v -0.1788578 0.4601025 0.2052651
v -0.1788555 0.4601025 0.299511
v -0.1788555 0.2766407 0.299511
v -0.1788563 0.7165633 -0.3285369
v 0.1788593 0.7165633 -0.3285369
v 0.1788593 0.7165633 0.3285409
v -0.1788563 0.7165633 0.3285409
v 0.1788616 0.4601025 0.2052651
v 0.1788616 0.2766407 0.2052651
v 0.1788601 0.3617457 0.299511
v 0.1788601 0.4601025 0.299511
v 0.1788601 0.2766407 0.299511
v 0.1788593 4.768372E-08 -0.3285369
v -0.1788563 4.768372E-08 -0.3285369
v -0.1788563 4.768372E-08 0.3285409
v 0.1788593 4.768372E-08 0.3285409
v -0.1387066 0.5893964 0.3285409
v -0.1387066 0.6043783 0.3285409
v 0.1387096 0.6043783 0.3285409
v 0.1387096 0.5893964 0.3285409
v 0.1469303 0.1860207 -0.3285361
v 0.1469303 0.6676667 -0.3285361
v -0.1101955 0.6676667 -0.3285392
v -0.1101955 0.1860207 -0.3285392
v -0.09794655 0.3095013 0.3285409
v -0.09794655 0.331485 0.3285409
v 0.0979496 0.331485 0.3285409
v 0.0979496 0.3095013 0.3285409
v 0.1788593 0.7165633 0.3285409
v 0.164867 0.6508629 0.3285409
v -0.1648602 0.6508629 0.3285409
v -0.1788563 0.7165633 0.3285409
v -0.1648602 0.5429116 0.3285409
v -0.1788563 4.768372E-08 0.3285409
v -0.113129 0.195122 0.3285409
v 0.1131321 0.195122 0.3285409
v 0.1788593 4.768372E-08 0.3285409
v -0.113129 0.3565867 0.3285409
v 0.164867 0.5429116 0.3285409
v 0.1131321 0.3565867 0.3285409
v 0.1788593 0.2540198 0.3285409
v 0.161903 0.2884968 0.3285409
v 0.1263615 0.2884964 0.3285409
v 0.1263615 0.25402 0.3285409
v 0.161903 0.2171212 0.3285409
v 0.1263615 0.2171212 0.3285409
v 0.1263615 0.2419856 0.3285409
v 0.161903 0.25402 0.3285409
v 0.161903 0.2419854 0.3285409
v 0.1037632 0.5558621 0.3285409
v 0.1037632 0.5764456 0.3285409
v 0.1272236 0.5764456 0.3285409
v 0.1272236 0.5558621 0.3285409
v 0.164867 0.5429116 0.3285409
v 0.1387096 0.5893964 0.3285409
v 0.1387096 0.6043783 0.3285409
v 0.164867 0.6508629 0.3285409
v -0.1387066 0.6043783 0.3285409
v -0.1648602 0.6508629 0.3285409
v -0.1387066 0.5893964 0.3285409
v -0.1648602 0.5429116 0.3285409
v 0.1272236 0.5558621 0.3285409
v 0.1037632 0.5558621 0.3285409
v 0.1272236 0.5764456 0.3285409
v 0.1037632 0.5764456 0.3285409
v 0.1263615 0.25402 0.3285409
v 0.1263615 0.2884964 0.3285409
v 0.161903 0.2884968 0.3285409
v 0.161903 0.25402 0.3285409
v 0.04225884 0.2857514 0.3285409
v 0.04225884 0.3007115 0.3285409
v 0.08895455 0.3007115 0.3285409
v 0.08895455 0.2857514 0.3285409
v 0.1131321 0.195122 0.3285409
v 0.0979496 0.3095013 0.3285409
v 0.0979496 0.331485 0.3285409
v 0.1131321 0.3565867 0.3285409
v -0.09794655 0.331485 0.3285409
v -0.113129 0.3565867 0.3285409
v -0.09794655 0.3095013 0.3285409
v -0.113129 0.195122 0.3285409
v 0.08895455 0.2857514 0.3285409
v 0.04225884 0.2857514 0.3285409
v 0.08895455 0.3007115 0.3285409
v 0.04225884 0.3007115 0.3285409
v 0.161903 0.2171212 0.3285409
v 0.1263615 0.2171212 0.3285409
v 0.1263615 0.2419856 0.3285409
v 0.161903 0.2419854 0.3285409
v -0.1788563 4.768372E-08 -0.3285369
v -0.1788578 0.2766407 0.2052651
v -0.1788555 0.2766407 0.299511
v -0.1788563 4.768372E-08 0.3285409
v -0.1788555 0.4601025 0.299511
v -0.1788563 0.7165633 0.3285409
v -0.1788578 0.4601025 0.2052651
v -0.1788563 0.7165633 -0.3285369
v 0.1788593 0.7165633 -0.3285369
v 0.1788616 0.4601025 0.2052651
v 0.1788601 0.4601025 0.299511
v 0.1788593 0.7165633 0.3285409
v 0.1788601 0.3617457 0.299511
v 0.1788593 0.2540198 0.3285409
v 0.1788593 4.768372E-08 -0.3285369
v 0.1788616 0.2766407 0.2052651
v 0.1788601 0.2766407 0.299511
v 0.1788593 4.768372E-08 0.3285409
v 0.1788593 4.768372E-08 -0.3285369
v 0.1469303 0.1860207 -0.3285361
v -0.1101955 0.1860207 -0.3285392
v -0.1788563 4.768372E-08 -0.3285369
v -0.1101955 0.6676667 -0.3285392
v -0.1788563 0.7165633 -0.3285369
v 0.1469303 0.6676667 -0.3285361
v 0.1788593 0.7165633 -0.3285369

vn -1 0 0
vn -1 0 0
vn -1 0 0
vn -1 0 0
vn 0 1 0
vn 0 1 0
vn 0 1 0
vn 0 1 0
vn 1 0 0
vn 1 0 0
vn 1 0 0
vn 1 0 0
vn 1 0 0
vn 0 -1 0
vn 0 -1 0
vn 0 -1 0
vn 0 -1 0
vn 0 0 1
vn 0 0 1
vn 0 0 1
vn 0 0 1
vn 0 0 -1
vn 0 0 -1
vn 0 0 -1
vn 0 0 -1
vn 0 0 1
vn 0 0 1
vn 0 0 1
vn 0 0 1
vn 0 0 1
vn 0 0 1
vn 0 0 1
vn 0 0 1
vn 0 0 1
vn 0 0 1
vn 0 0 1
vn 0 0 1
vn 0 0 1
vn 0 0 1
vn 0 0 1
vn 0 0 1
vn 0 0 1
vn 0 0 1
vn 0 0 1
vn 0 0 1
vn 0 0 1
vn 0 0 1
vn 0 0 1
vn 0 0 1
vn 0 0 1
vn 0 0 1
vn 0 0 1
vn 0 0 1
vn 0 0 1
vn 0 0 1
vn 0 0 1
vn 0 0 1
vn 0 0 1
vn 0 0 1
vn 0 0 1
vn 0 0 1
vn 0 0 1
vn 0 0 1
vn 0 0 1
vn 0 0 1
vn 0 0 1
vn 0 0 1
vn 0 0 1
vn 0 0 1
vn 0 0 1
vn 0 0 1
vn 0 0 1
vn 0 0 1
vn 0 0 1
vn 0 0 1
vn 0 0 1
vn 0 0 1
vn 0 0 1
vn 0 0 1
vn 0 0 1
vn 0 0 1
vn 0 0 1
vn 0 0 1
vn 0 0 1
vn 0 0 1
vn 0 0 1
vn 0 0 1
vn 0 0 1
vn 0 0 1
vn 0 0 1
vn -1 0 0
vn -1 0 0
vn -1 0 0
vn -1 0 0
vn -1 0 0
vn -1 0 0
vn -1 0 0
vn -1 0 0
vn 1 0 0
vn 1 0 0
vn 1 0 0
vn 1 0 0
vn 1 0 0
vn 1 0 0
vn 1 0 0
vn 1 0 0
vn 1 0 0
vn 1 0 0
vn 0 0 -1
vn 0 0 -1
vn 0 0 -1
vn 0 0 -1
vn 0 0 -1
vn 0 0 -1
vn 0 0 -1
vn 0 0 -1

vt 0.2033691 0.442627
vt 0.2033691 0.442627
vt 0.2033691 0.442627
vt 0.2033691 0.442627
vt 0.3261719 0.442627
vt 0.3261719 0.442627
vt 0.3261719 0.442627
vt 0.3261719 0.442627
vt 0.2033691 0.442627
vt 0.2033691 0.442627
vt 0.2033691 0.442627
vt 0.2033691 0.442627
vt 0.2033691 0.442627
vt 0.2956543 0.4753418
vt 0.2956543 0.4753418
vt 0.2956543 0.4753418
vt 0.2956543 0.4753418
vt 0.1409912 0.4753418
vt 0.1409912 0.4753418
vt 0.1409912 0.4753418
vt 0.1409912 0.4753418
vt 0.2033691 0.4753418
vt 0.2033691 0.4753418
vt 0.2033691 0.4753418
vt 0.2033691 0.4753418
vt 0.1409912 0.4753418
vt 0.1409912 0.4753418
vt 0.1409912 0.4753418
vt 0.1409912 0.4753418
vt 0.2956543 0.442627
vt 0.2956543 0.442627
vt 0.2956543 0.442627
vt 0.2956543 0.442627
vt 0.2956543 0.442627
vt 0.2956543 0.442627
vt 0.2956543 0.442627
vt 0.2956543 0.442627
vt 0.2956543 0.442627
vt 0.2956543 0.442627
vt 0.2956543 0.442627
vt 0.2956543 0.442627
vt 0.2956543 0.442627
vt 0.2956543 0.442627
vt 0.2956543 0.442627
vt 0.2956543 0.442627
vt 0.2956543 0.442627
vt 0.2956543 0.442627
vt 0.2956543 0.442627
vt 0.2956543 0.442627
vt 0.2956543 0.442627
vt 0.3586426 0.4753418
vt 0.3586426 0.4753418
vt 0.3586426 0.4753418
vt 0.3586426 0.4753418
vt 0.2956543 0.4753418
vt 0.2956543 0.4753418
vt 0.2956543 0.4753418
vt 0.2956543 0.4753418
vt 0.2956543 0.4753418
vt 0.2956543 0.4753418
vt 0.2956543 0.4753418
vt 0.2956543 0.4753418
vt 0.2956543 0.4753418
vt 0.2956543 0.4753418
vt 0.2956543 0.4753418
vt 0.2956543 0.4753418
vt 0.2033691 0.3320313
vt 0.2033691 0.3320313
vt 0.2033691 0.3320313
vt 0.2033691 0.3320313
vt 0.3586426 0.4753418
vt 0.3586426 0.4753418
vt 0.3586426 0.4753418
vt 0.3586426 0.4753418
vt 0.2956543 0.4753418
vt 0.2956543 0.4753418
vt 0.2956543 0.4753418
vt 0.2956543 0.4753418
vt 0.2956543 0.4753418
vt 0.2956543 0.4753418
vt 0.2956543 0.4753418
vt 0.2956543 0.4753418
vt 0.2956543 0.4753418
vt 0.2956543 0.4753418
vt 0.2956543 0.4753418
vt 0.2956543 0.4753418
vt 0.2629395 0.3112793
vt 0.2629395 0.3112793
vt 0.2629395 0.3112793
vt 0.2629395 0.3112793
vt 0.2629395 0.442627
vt 0.2629395 0.442627
vt 0.2629395 0.442627
vt 0.2629395 0.442627
vt 0.2629395 0.442627
vt 0.2629395 0.442627
vt 0.2629395 0.442627
vt 0.2629395 0.442627
vt 0.2629395 0.442627
vt 0.2629395 0.442627
vt 0.2629395 0.442627
vt 0.2629395 0.442627
vt 0.2629395 0.442627
vt 0.2629395 0.442627
vt 0.2629395 0.442627
vt 0.2629395 0.442627
vt 0.2629395 0.442627
vt 0.2629395 0.442627
vt 0.2956543 0.442627
vt 0.2956543 0.442627
vt 0.2956543 0.442627
vt 0.2956543 0.442627
vt 0.2956543 0.442627
vt 0.2956543 0.442627
vt 0.2956543 0.442627
vt 0.2956543 0.442627

g Prop_Computer_Case_997_171
usemtl Prop_Computer_Case_997_171
usemap Prop_Computer_Case_997_171
f 1/1/1 3/3/3 2/2/2
f 1/1/1 4/4/4 3/3/3
f 5/5/5 7/7/7 6/6/6
f 5/5/5 8/8/8 7/7/7
f 9/9/9 11/11/11 10/10/10
f 9/9/9 12/12/12 11/11/11
f 10/10/10 11/11/11 13/13/13
f 14/14/14 16/16/16 15/15/15
f 14/14/14 17/17/17 16/16/16
f 18/18/18 20/20/20 19/19/19
f 18/18/18 21/21/21 20/20/20
f 22/22/22 24/24/24 23/23/23
f 22/22/22 25/25/25 24/24/24
f 26/26/26 28/28/28 27/27/27
f 26/26/26 29/29/29 28/28/28
f 30/30/30 32/32/32 31/31/31
f 30/30/30 33/33/33 32/32/32
f 33/33/33 34/34/34 32/32/32
f 33/33/33 35/35/35 34/34/34
f 34/34/34 35/35/35 36/36/36
f 35/35/35 37/37/37 36/36/36
f 35/35/35 38/38/38 37/37/37
f 34/34/34 36/36/36 39/39/39
f 40/40/40 34/34/34 39/39/39
f 40/40/40 39/39/39 41/41/41
f 31/31/31 42/42/42 30/30/30
f 42/42/42 31/31/31 40/40/40
f 42/42/42 40/40/40 43/43/43
f 40/40/40 44/44/44 43/43/43
f 40/40/40 41/41/41 44/44/44
f 41/41/41 45/45/45 44/44/44
f 41/41/41 37/37/37 45/45/45
f 37/37/37 38/38/38 46/46/46
f 42/42/42 46/46/46 38/38/38
f 37/37/37 46/46/46 47/47/47
f 45/45/45 37/37/37 48/48/48
f 48/48/48 37/37/37 47/47/47
f 48/48/48 49/49/49 45/45/45
f 42/42/42 43/43/43 49/49/49
f 48/48/48 50/50/50 49/49/49
f 50/50/50 42/42/42 49/49/49
f 50/50/50 46/46/46 42/42/42
f 51/51/51 53/53/53 52/52/52
f 51/51/51 54/54/54 53/53/53
f 55/55/55 57/57/57 56/56/56
f 55/55/55 58/58/58 57/57/57
f 58/58/58 59/59/59 57/57/57
f 58/58/58 60/60/60 59/59/59
f 60/60/60 61/61/61 59/59/59
f 60/60/60 62/62/62 61/61/61
f 62/62/62 55/55/55 63/63/63
f 62/62/62 63/63/63 64/64/64
f 61/61/61 62/62/62 64/64/64
f 55/55/55 65/65/65 63/63/63
f 55/55/55 56/56/56 65/65/65
f 56/56/56 66/66/66 65/65/65
f 56/56/56 61/61/61 66/66/66
f 61/61/61 64/64/64 66/66/66
f 67/67/67 69/69/69 68/68/68
f 67/67/67 70/70/70 69/69/69
f 71/71/71 73/73/73 72/72/72
f 71/71/71 74/74/74 73/73/73
f 75/75/75 77/77/77 76/76/76
f 75/75/75 78/78/78 77/77/77
f 78/78/78 79/79/79 77/77/77
f 78/78/78 80/80/80 79/79/79
f 80/80/80 81/81/81 79/79/79
f 80/80/80 82/82/82 81/81/81
f 82/82/82 75/75/75 83/83/83
f 82/82/82 83/83/83 84/84/84
f 81/81/81 82/82/82 84/84/84
f 75/75/75 85/85/85 83/83/83
f 75/75/75 76/76/76 85/85/85
f 76/76/76 86/86/86 85/85/85
f 76/76/76 81/81/81 86/86/86
f 81/81/81 84/84/84 86/86/86
f 87/87/87 89/89/89 88/88/88
f 87/87/87 90/90/90 89/89/89
f 91/91/91 93/93/93 92/92/92
f 91/91/91 94/94/94 93/93/93
f 94/94/94 95/95/95 93/93/93
f 94/94/94 96/96/96 95/95/95
f 96/96/96 97/97/97 95/95/95
f 96/96/96 98/98/98 97/97/97
f 98/98/98 92/92/92 97/97/97
f 98/98/98 91/91/91 92/92/92
f 99/99/99 101/101/101 100/100/100
f 99/99/99 102/102/102 101/101/101
f 102/102/102 103/103/103 101/101/101
f 102/102/102 104/104/104 103/103/103
f 105/105/105 99/99/99 100/100/100
f 105/105/105 100/100/100 106/106/106
f 104/104/104 107/107/107 103/103/103
f 104/104/104 108/108/108 107/107/107
f 108/108/108 106/106/106 107/107/107
f 108/108/108 105/105/105 106/106/106
f 109/109/109 111/111/111 110/110/110
f 109/109/109 112/112/112 111/111/111
f 112/112/112 113/113/113 111/111/111
f 112/112/112 114/114/114 113/113/113
f 114/114/114 115/115/115 113/113/113
f 114/114/114 116/116/116 115/115/115
f 116/116/116 110/110/110 115/115/115
f 116/116/116 109/109/109 110/110/110
