#Prop_Big_Chair_02_601_17.obj

v 1.103828 1.015203 -0.6857932
v 0.8767569 1.088359 -0.6857932
v 1.103828 0 -0.6857932
v 0.6496825 1.088359 -0.6857932
v -0.6496761 1.088359 -0.6857932
v -1.103825 0 -0.6857932
v -0.8767474 1.088359 -0.6857932
v -1.103825 1.015203 -0.6857932
v 1.103828 1.015203 -0.6857932
v 1.103828 1.015203 -0.1624904
v 0.8767569 1.088359 -0.2013998
v 0.8767569 1.088359 -0.6857932
v 0.8767569 1.088359 0.9151764
v 1.103828 1.015203 0.9151764
v 0.6496825 1.088359 -0.2403052
v 0.6496825 1.088359 0.9151764
v -1.103825 0 -0.6857932
v -1.103825 1.015203 -0.6857932
v -1.103825 1.015203 -0.1624904
v -1.103825 1.015203 0.9151764
v -1.103825 0 0.9151764
v 1.103828 0 -0.6857932
v 1.103828 1.015203 -0.1624904
v 1.103828 1.015203 -0.6857932
v 1.103828 1.015203 0.9151764
v 1.103828 0 0.9151764
v -0.6496761 0.3154825 0.9151764
v -0.6496761 0 0.9151764
v -1.103825 0 0.9151764
v -0.6496761 0.7906032 0.9151764
v -0.8767474 1.088359 0.9151764
v -0.6496761 1.088359 0.9151764
v -1.103825 1.015203 0.9151764
v -0.6496761 0.2709089 1.044001
v 0.6496825 0.2709089 1.044001
v 0.6496825 0 1.044001
v -0.6496761 0 1.044001
v 0.6496825 0 0.9151764
v 1.103828 0 -0.6857932
v -1.103825 0 -0.6857932
v -0.6496761 0 0.9151764
v -1.103825 0 -0.6857932
v -1.103825 0 0.9151764
v -0.6496761 0 0.9151764
v -0.6496761 0 1.044001
v 0.6496825 0 1.044001
v 0.6496825 0 0.9151764
v -0.6496761 1.088359 0.9151764
v -0.8767474 1.088359 0.9151764
v -0.8767474 1.088359 -0.2013998
v -0.6496761 1.088359 -0.2403052
v -1.103825 1.015203 -0.1624904
v -1.103825 1.015203 -0.6857932
v -0.8767474 1.088359 -0.6857932
v -1.103825 1.015203 0.9151764
v -0.6496761 0.7906032 -0.1624904
v 0.6496825 0.7906032 -0.1624904
v 0.6496825 0.7906032 0.9151764
v -0.6496761 0.7906032 0.9151764
v -0.6496761 0.7906032 1.04191
v 0.6496825 0.7906032 1.04191
v -0.6496761 1.088359 -0.2403052
v 0.6496825 1.088359 -0.2403052
v 0.6496825 0.7906032 -0.1624904
v -0.6496761 0.7906032 -0.1624904
v 0.6496825 1.647432 -0.3971666
v 0.8767569 1.704581 -0.4128864
v 0.8767569 1.088359 -0.2013998
v -0.6496761 1.647432 -0.3971666
v -0.8767474 1.088359 -0.2013998
v -0.8767474 1.704581 -0.4128864
v -0.6496761 0.7906032 0.9151764
v -0.6496761 1.088359 0.9151764
v -0.6496761 1.088359 -0.2403052
v -0.6496761 0.7906032 -0.1624904
v 0.6496825 0.7906032 -0.1624904
v 0.6496825 1.088359 -0.2403052
v 0.6496825 1.088359 0.9151764
v 0.6496825 0.7906032 0.9151764
v -0.6496761 0.7906032 1.04191
v 0.6496825 0.7906032 1.04191
v 0.6496825 0.4230036 1.04191
v -0.6496761 0.4230036 1.04191
v 0.8767569 1.088359 0.9151764
v 1.103828 1.015203 0.9151764
v 1.103828 0 0.9151764
v 0.6496825 0.7906032 0.9151764
v 0.6496825 1.088359 0.9151764
v 0.6496825 0.3154825 0.9151764
v 0.6496825 0 0.9151764
v -0.6496761 0.7906032 0.9151764
v -0.6496761 0.7906032 1.04191
v -0.6496761 0.4230036 1.04191
v -0.6496761 0.3154825 0.9151764
v -0.6496761 0.4230036 1.04191
v 0.6496825 0.4230036 1.04191
v 0.6496825 0.3154825 0.9151764
v -0.6496761 0.3154825 0.9151764
v 0.6496825 0.3154825 0.9151764
v 0.6496825 0.4230036 1.04191
v 0.6496825 0.7906032 1.04191
v 0.6496825 0.7906032 0.9151764
v -0.6496761 0.3154825 0.9151764
v -0.6496761 0.2709089 1.044001
v -0.6496761 0 1.044001
v -0.6496761 0 0.9151764
v 0.6496825 0 0.9151764
v 0.6496825 0 1.044001
v 0.6496825 0.2709089 1.044001
v 0.6496825 0.3154825 0.9151764
v 0.6496825 0.3154825 0.9151764
v 0.6496825 0.2709089 1.044001
v -0.6496761 0.2709089 1.044001
v -0.6496761 0.3154825 0.9151764
v 1.103828 0 -0.6857932
v 0.6496825 0 0.9151764
v 1.103828 0 0.9151764
v -0.6496761 1.088359 -0.6857932
v -0.6496761 2.266475 -1.044004
v -0.8767474 2.132092 -1.044004
v -0.8767474 1.088359 -0.6857932
v 0.6496825 1.088359 -0.6857932
v 0.6496825 2.266475 -1.044004
v 0.8767569 1.088359 -0.6857932
v 0.8767569 2.132092 -1.044004
v -0.8767474 1.088359 -0.6857932
v -0.8767474 2.132092 -1.044004
v -0.8767474 1.704581 -0.4128864
v -0.8767474 1.088359 -0.2013998
v -0.8767474 1.741419 -0.425529
v -0.8767474 2.132092 -0.5596108
v 0.8767569 1.088359 -0.2013998
v 0.8767569 1.704581 -0.4128864
v 0.8767569 2.132092 -1.044004
v 0.8767569 1.088359 -0.6857932
v 0.8767569 1.741419 -0.425529
v 0.8767569 2.132092 -0.5596108
v -0.6496761 2.266475 -1.044004
v -0.6496761 2.266475 -0.5985162
v -0.8767474 2.132092 -0.5596108
v -0.8767474 2.132092 -1.044004
v 0.6496825 2.266475 -1.044004
v 0.6496825 2.266475 -0.5985162
v 0.8767569 2.132092 -1.044004
v 0.8767569 2.132092 -0.5596108
v -0.8767474 1.704581 -0.4128864
v -0.8767474 1.741419 -0.425529
v -0.6496761 1.689013 -0.409809
v -0.6496761 1.647432 -0.3971666
v 0.6496825 1.689013 -0.409809
v 0.6496825 1.647432 -0.3971666
v 0.8767569 1.741419 -0.425529
v 0.8767569 1.704581 -0.4128864
v -0.8767474 1.741419 -0.425529
v -0.8767474 2.132092 -0.5596108
v -0.6496761 2.266475 -0.5985162
v -0.6496761 1.689013 -0.409809
v 0.6496825 2.266475 -0.5985162
v 0.6496825 1.689013 -0.409809
v 0.8767569 2.132092 -0.5596108
v 0.8767569 1.741419 -0.425529

vn 0 0 -1
vn -0.03050071 -0.1030774 -0.9942055
vn 0 0 -1
vn -0.02288961 -0.1509848 -0.9882711
vn 0.02288975 -0.1509848 -0.9882711
vn 0 0 -1
vn 0.0305009 -0.1030774 -0.9942055
vn 0 0 -1
vn 0.3066485 0.9518229 0
vn 0.3066485 0.9518229 0
vn 0.2066568 0.9784135 0
vn 0.3066485 0.9518229 0
vn 0.155205 0.9878824 0
vn 0.3066485 0.9518229 0
vn 0 1 0
vn 0 1 0
vn -1 0 0
vn -1 0 0
vn -1 0 0
vn -1 0 0
vn -1 0 0
vn 1 0 0
vn 1 0 0
vn 1 0 0
vn 1 0 0
vn 1 0 0
vn 0 -0.2768254 0.9609203
vn 0 0 1
vn 0 0 1
vn 0 0 1
vn 0 0 1
vn 0 0 1
vn 0 0 1
vn 0 0 1
vn 0 0 1
vn 0 0 1
vn 0 0 1
vn 0 -1 0
vn 0 -1 0
vn 0 -1 0
vn 0 -1 0
vn 0 -1 0
vn 0 -1 0
vn 0 -1 0
vn 0 -1 0
vn 0 -1 0
vn 0 -1 0
vn 0 1 0
vn -0.155201 0.9878829 0
vn -0.2066515 0.9784146 0
vn 0 1 0
vn -0.3066409 0.9518252 0
vn -0.3066409 0.9518252 0
vn -0.3066409 0.9518252 0
vn -0.3066409 0.9518252 0
vn 0 1 0
vn 0 1 0
vn 0 1 0
vn 0 1 0
vn 0 1 0
vn 0 1 0
vn 0.02870589 0.2739279 0.9613218
vn -0.02870571 0.2739279 0.9613218
vn 0 0.2528461 0.9675065
vn 0 0.2528461 0.9675065
vn -0.0235598 0.2916845 0.9562244
vn -0.04712002 0.3026417 0.9519389
vn -0.08602923 0.2979563 0.9506949
vn 0.02355995 0.2916845 0.9562244
vn 0.08602978 0.2979564 0.9506949
vn 0.04712031 0.3026417 0.9519389
vn 1 0 0
vn 1 0 0
vn 1 0 0
vn 1 0 0
vn -1 0 0
vn -1 0 0
vn -1 0 0
vn -1 0 0
vn 0 0 1
vn 0 0 1
vn 0 -0.4201542 0.9074527
vn 0 -0.4201542 0.9074527
vn 0 0 1
vn 0 0 1
vn 0 0 1
vn 0 0 1
vn 0 0 1
vn 0 -0.2768254 0.9609203
vn 0 0 1
vn -1 0 0
vn -1 0 0
vn -1 0 0
vn -1 0 0
vn 0 -0.4201542 0.9074527
vn 0 -0.4201542 0.9074527
vn 0 -0.2768254 0.9609203
vn 0 -0.2768254 0.9609203
vn 1 0 0
vn 1 0 0
vn 1 0 0
vn 1 0 0
vn -1 0 0
vn -1 0 0
vn -1 0 0
vn -1 0 0
vn 1 0 0
vn 1 0 0
vn 1 0 0
vn 1 0 0
vn 0 0.9450305 0.3269824
vn 0 0.9450305 0.3269824
vn 0 0.9450305 0.3269824
vn 0 0.9450305 0.3269824
vn 0 -1 0
vn 0 -1 0
vn 0 -1 0
vn 0.02288975 -0.1509848 -0.9882711
vn 0.04526599 -0.2985824 -0.9533098
vn 0.09043601 -0.3056274 -0.9478466
vn 0.0305009 -0.1030774 -0.9942055
vn -0.02288961 -0.1509848 -0.9882711
vn -0.0452657 -0.2985823 -0.9533098
vn -0.03050071 -0.1030774 -0.9942055
vn -0.09043545 -0.3056274 -0.9478467
vn -1 0 0
vn -0.9712226 0.2381736 0
vn -1 0 0
vn -1 0 0
vn -1 0 0
vn -0.8687062 0.4953276 0
vn 1 0 0
vn 1 0 0
vn 0.9712225 0.2381741 0
vn 1 0 0
vn 1 0 0
vn 0.8687055 0.4953288 0
vn -0.2640185 0.9645176 0
vn -0.2640185 0.9645176 0
vn -0.8687062 0.4953276 0
vn -0.9712226 0.2381736 0
vn 0.2640172 0.964518 0
vn 0.2640172 0.964518 0
vn 0.9712225 0.2381741 0
vn 0.8687055 0.4953288 0
vn 0.04712031 0.3026417 0.9519389
vn -0.0002620131 0.3115878 0.9502174
vn -0.000131009 0.3061852 0.9519719
vn 0.02355995 0.2916845 0.9562244
vn 0.0001310081 0.3061852 0.9519719
vn -0.0235598 0.2916845 0.9562244
vn 0.0002620112 0.3115878 0.9502174
vn -0.04712002 0.3026417 0.9519389
vn -0.0002620131 0.3115878 0.9502174
vn -0.008662408 0.3162843 0.948625
vn -0.004331264 0.3134577 0.9495923
vn -0.000131009 0.3061852 0.9519719
vn 0.004331237 0.3134577 0.9495923
vn 0.0001310081 0.3061852 0.9519719
vn 0.008662353 0.3162843 0.948625
vn 0.0002620112 0.3115878 0.9502174

vt 0.1715088 0.442627
vt 0.1715088 0.442627
vt 0.1715088 0.442627
vt 0.1715088 0.442627
vt 0.1715088 0.442627
vt 0.1715088 0.442627
vt 0.1715088 0.442627
vt 0.1715088 0.442627
vt 0.2629395 0.442627
vt 0.2629395 0.442627
vt 0.2629395 0.442627
vt 0.2629395 0.442627
vt 0.2629395 0.442627
vt 0.2629395 0.442627
vt 0.2629395 0.442627
vt 0.2629395 0.442627
vt 0.1098633 0.442627
vt 0.1098633 0.442627
vt 0.1098633 0.442627
vt 0.1098633 0.442627
vt 0.1098633 0.442627
vt 0.1098633 0.442627
vt 0.1098633 0.442627
vt 0.1098633 0.442627
vt 0.1098633 0.442627
vt 0.1098633 0.442627
vt 0.1715088 0.442627
vt 0.1715088 0.442627
vt 0.1715088 0.442627
vt 0.1715088 0.442627
vt 0.1715088 0.442627
vt 0.1715088 0.442627
vt 0.1715088 0.442627
vt 0.1715088 0.442627
vt 0.1715088 0.442627
vt 0.1715088 0.442627
vt 0.1715088 0.442627
vt 0.1409912 0.442627
vt 0.1409912 0.442627
vt 0.1409912 0.442627
vt 0.1409912 0.442627
vt 0.1715088 0.442627
vt 0.1715088 0.442627
vt 0.1715088 0.442627
vt 0.1715088 0.442627
vt 0.1715088 0.442627
vt 0.1715088 0.442627
vt 0.2629395 0.442627
vt 0.2629395 0.442627
vt 0.2629395 0.442627
vt 0.2629395 0.442627
vt 0.2629395 0.442627
vt 0.2629395 0.442627
vt 0.2629395 0.442627
vt 0.2629395 0.442627
vt 0.2629395 0.442627
vt 0.2629395 0.442627
vt 0.2629395 0.442627
vt 0.2629395 0.442627
vt 0.2629395 0.442627
vt 0.2629395 0.442627
vt 0.2331543 0.442627
vt 0.2331543 0.442627
vt 0.2331543 0.442627
vt 0.2331543 0.442627
vt 0.2331543 0.442627
vt 0.2331543 0.442627
vt 0.2331543 0.442627
vt 0.2331543 0.442627
vt 0.2331543 0.442627
vt 0.2331543 0.442627
vt 0.1409912 0.442627
vt 0.1409912 0.442627
vt 0.1409912 0.442627
vt 0.1409912 0.442627
vt 0.1409912 0.442627
vt 0.1409912 0.442627
vt 0.1409912 0.442627
vt 0.1409912 0.442627
vt 0.2033691 0.442627
vt 0.2033691 0.442627
vt 0.2033691 0.442627
vt 0.2033691 0.442627
vt 0.1715088 0.442627
vt 0.1715088 0.442627
vt 0.1715088 0.442627
vt 0.1715088 0.442627
vt 0.1715088 0.442627
vt 0.1715088 0.442627
vt 0.1715088 0.442627
vt 0.1409912 0.442627
vt 0.1409912 0.442627
vt 0.1409912 0.442627
vt 0.1409912 0.442627
vt 0.1715088 0.442627
vt 0.1715088 0.442627
vt 0.1715088 0.442627
vt 0.1715088 0.442627
vt 0.1409912 0.442627
vt 0.1409912 0.442627
vt 0.1409912 0.442627
vt 0.1409912 0.442627
vt 0.1409912 0.442627
vt 0.1409912 0.442627
vt 0.1409912 0.442627
vt 0.1409912 0.442627
vt 0.1409912 0.442627
vt 0.1409912 0.442627
vt 0.1409912 0.442627
vt 0.1409912 0.442627
vt 0.2033691 0.442627
vt 0.2033691 0.442627
vt 0.2033691 0.442627
vt 0.2033691 0.442627
vt 0.1098633 0.442627
vt 0.1098633 0.442627
vt 0.1098633 0.442627
vt 0.1409912 0.442627
vt 0.1409912 0.442627
vt 0.1409912 0.442627
vt 0.1409912 0.442627
vt 0.1409912 0.442627
vt 0.1409912 0.442627
vt 0.1409912 0.442627
vt 0.1409912 0.442627
vt 0.1715088 0.442627
vt 0.1715088 0.442627
vt 0.1715088 0.442627
vt 0.1715088 0.442627
vt 0.1715088 0.442627
vt 0.1715088 0.442627
vt 0.1715088 0.442627
vt 0.1715088 0.442627
vt 0.1715088 0.442627
vt 0.1715088 0.442627
vt 0.1715088 0.442627
vt 0.1715088 0.442627
vt 0.3261719 0.442627
vt 0.3261719 0.442627
vt 0.3261719 0.442627
vt 0.3261719 0.442627
vt 0.3261719 0.442627
vt 0.3261719 0.442627
vt 0.3261719 0.442627
vt 0.3261719 0.442627
vt 0.1715088 0.442627
vt 0.1715088 0.442627
vt 0.1715088 0.442627
vt 0.1715088 0.442627
vt 0.1715088 0.442627
vt 0.1715088 0.442627
vt 0.1715088 0.442627
vt 0.1715088 0.442627
vt 0.2629395 0.442627
vt 0.2629395 0.442627
vt 0.2629395 0.442627
vt 0.2629395 0.442627
vt 0.2629395 0.442627
vt 0.2629395 0.442627
vt 0.2629395 0.442627
vt 0.2629395 0.442627

g Prop_Big_Chair_02_601_17
usemtl Prop_Big_Chair_02_601_17
usemap Prop_Big_Chair_02_601_17
f 1/1/1 3/3/3 2/2/2
f 3/3/3 4/4/4 2/2/2
f 3/3/3 5/5/5 4/4/4
f 3/3/3 6/6/6 5/5/5
f 5/5/5 6/6/6 7/7/7
f 6/6/6 8/8/8 7/7/7
f 9/9/9 11/11/11 10/10/10
f 9/9/9 12/12/12 11/11/11
f 10/10/10 11/11/11 13/13/13
f 10/10/10 13/13/13 14/14/14
f 13/13/13 11/11/11 15/15/15
f 13/13/13 15/15/15 16/16/16
f 17/17/17 19/19/19 18/18/18
f 17/17/17 20/20/20 19/19/19
f 17/17/17 21/21/21 20/20/20
f 22/22/22 24/24/24 23/23/23
f 25/25/25 22/22/22 23/23/23
f 25/25/25 26/26/26 22/22/22
f 27/27/27 29/29/29 28/28/28
f 30/30/30 29/29/29 27/27/27
f 30/30/30 31/31/31 29/29/29
f 31/31/31 30/30/30 32/32/32
f 33/33/33 29/29/29 31/31/31
f 34/34/34 36/36/36 35/35/35
f 34/34/34 37/37/37 36/36/36
f 38/38/38 40/40/40 39/39/39
f 38/38/38 41/41/41 40/40/40
f 42/42/42 44/44/44 43/43/43
f 44/44/44 46/46/46 45/45/45
f 44/44/44 47/47/47 46/46/46
f 48/48/48 50/50/50 49/49/49
f 48/48/48 51/51/51 50/50/50
f 49/49/49 50/50/50 52/52/52
f 50/50/50 53/53/53 52/52/52
f 50/50/50 54/54/54 53/53/53
f 49/49/49 52/52/52 55/55/55
f 56/56/56 58/58/58 57/57/57
f 56/56/56 59/59/59 58/58/58
f 60/60/60 58/58/58 59/59/59
f 60/60/60 61/61/61 58/58/58
f 62/62/62 64/64/64 63/63/63
f 62/62/62 65/65/65 64/64/64
f 62/62/62 63/63/63 66/66/66
f 63/63/63 67/67/67 66/66/66
f 63/63/63 68/68/68 67/67/67
f 62/62/62 66/66/66 69/69/69
f 70/70/70 62/62/62 69/69/69
f 70/70/70 69/69/69 71/71/71
f 72/72/72 74/74/74 73/73/73
f 72/72/72 75/75/75 74/74/74
f 76/76/76 78/78/78 77/77/77
f 76/76/76 79/79/79 78/78/78
f 80/80/80 82/82/82 81/81/81
f 80/80/80 83/83/83 82/82/82
f 84/84/84 86/86/86 85/85/85
f 86/86/86 84/84/84 87/87/87
f 87/87/87 84/84/84 88/88/88
f 86/86/86 87/87/87 89/89/89
f 86/86/86 89/89/89 90/90/90
f 91/91/91 93/93/93 92/92/92
f 91/91/91 94/94/94 93/93/93
f 95/95/95 97/97/97 96/96/96
f 95/95/95 98/98/98 97/97/97
f 99/99/99 101/101/101 100/100/100
f 99/99/99 102/102/102 101/101/101
f 103/103/103 105/105/105 104/104/104
f 103/103/103 106/106/106 105/105/105
f 107/107/107 109/109/109 108/108/108
f 107/107/107 110/110/110 109/109/109
f 111/111/111 113/113/113 112/112/112
f 111/111/111 114/114/114 113/113/113
f 115/115/115 117/117/117 116/116/116
f 118/118/118 120/120/120 119/119/119
f 118/118/118 121/121/121 120/120/120
f 122/122/122 118/118/118 119/119/119
f 122/122/122 119/119/119 123/123/123
f 124/124/124 122/122/122 123/123/123
f 124/124/124 123/123/123 125/125/125
f 126/126/126 128/128/128 127/127/127
f 126/126/126 129/129/129 128/128/128
f 127/127/127 128/128/128 130/130/130
f 127/127/127 130/130/130 131/131/131
f 132/132/132 134/134/134 133/133/133
f 132/132/132 135/135/135 134/134/134
f 133/133/133 134/134/134 136/136/136
f 136/136/136 134/134/134 137/137/137
f 138/138/138 140/140/140 139/139/139
f 138/138/138 141/141/141 140/140/140
f 139/139/139 142/142/142 138/138/138
f 139/139/139 143/143/143 142/142/142
f 143/143/143 144/144/144 142/142/142
f 143/143/143 145/145/145 144/144/144
f 146/146/146 148/148/148 147/147/147
f 146/146/146 149/149/149 148/148/148
f 149/149/149 150/150/150 148/148/148
f 149/149/149 151/151/151 150/150/150
f 151/151/151 152/152/152 150/150/150
f 151/151/151 153/153/153 152/152/152
f 154/154/154 156/156/156 155/155/155
f 154/154/154 157/157/157 156/156/156
f 157/157/157 158/158/158 156/156/156
f 157/157/157 159/159/159 158/158/158
f 159/159/159 160/160/160 158/158/158
f 159/159/159 161/161/161 160/160/160
