#Prop_Computer_Keyboard_973_98.obj

v -0.4454731 -4.768372E-08 -0.1628532
v -0.4454731 0.04884477 -0.1628532
v -0.4454731 0.04884477 0.1628495
v -0.4454731 -4.768372E-08 0.1628495
v -0.4082592 0.04884477 -0.1314635
v 0.1806309 0.04884477 -0.1314631
v 0.1806316 0.04884477 0.1314572
v -0.4082584 0.04884477 0.1314607
v 0.4454723 0.04884477 -0.1628532
v 0.4454723 -4.768372E-08 -0.1628532
v 0.4454723 -4.768372E-08 0.1628495
v 0.4454723 0.04884477 0.1628495
v -0.4454731 -4.768372E-08 0.1628495
v 0.4454723 -4.768372E-08 0.1628495
v 0.4454723 -4.768372E-08 -0.1628532
v -0.4454731 -4.768372E-08 -0.1628532
v -0.4454731 0.04884477 0.1628495
v 0.4454723 0.04884477 0.1628495
v 0.4454723 -4.768372E-08 0.1628495
v -0.4454731 -4.768372E-08 0.1628495
v -0.4454731 -4.768372E-08 -0.1628532
v 0.4454723 -4.768372E-08 -0.1628532
v 0.4454723 0.04884477 -0.1628532
v -0.4454731 0.04884477 -0.1628532
v -0.4454731 0.04884477 -0.1628532
v -0.4082592 0.04884477 -0.1314635
v -0.4082584 0.04884477 0.1314607
v -0.4454731 0.04884477 0.1628495
v 0.1806316 0.04884477 0.1314572
v 0.1806309 0.04884477 -0.1314631
v 0.4454723 0.04884477 -0.1628532
v 0.2255909 0.04884477 -0.1314631
v 0.4082577 0.04884477 -0.1314643
v 0.4454723 0.04884477 0.1628495
v 0.4082584 0.04884477 0.1314599
v 0.2255917 0.04884477 0.1314572
v 0.2255909 0.04884477 -0.1314631
v 0.4082577 0.04884477 -0.1314643
v 0.4082584 0.04884477 0.1314599
v 0.2255917 0.04884477 0.1314572

vn -1 0 0
vn -1 0 0
vn -1 0 0
vn -1 0 0
vn 0 1 0
vn 0 1 0
vn 0 1 0
vn 0 1 0
vn 1 0 0
vn 1 0 0
vn 1 0 0
vn 1 0 0
vn 0 -1 0
vn 0 -1 0
vn 0 -1 0
vn 0 -1 0
vn 0 0 1
vn 0 0 1
vn 0 0 1
vn 0 0 1
vn 0 0 -1
vn 0 0 -1
vn 0 0 -1
vn 0 0 -1
vn 0 1 0
vn 0 1 0
vn 0 1 0
vn 0 1 0
vn 0 1 0
vn 0 1 0
vn 0 1 0
vn 0 1 0
vn 0 1 0
vn 0 1 0
vn 0 1 0
vn 0 1 0
vn 0 1 0
vn 0 1 0
vn 0 1 0
vn 0 1 0

vt 0.2331543 0.442627
vt 0.2331543 0.442627
vt 0.2331543 0.442627
vt 0.2331543 0.442627
vt 0.3261719 0.4753418
vt 0.3261719 0.4753418
vt 0.3261719 0.4753418
vt 0.3261719 0.4753418
vt 0.2331543 0.442627
vt 0.2331543 0.442627
vt 0.2331543 0.442627
vt 0.2331543 0.442627
vt 0.2629395 0.442627
vt 0.2629395 0.442627
vt 0.2629395 0.442627
vt 0.2629395 0.442627
vt 0.2629395 0.442627
vt 0.2629395 0.442627
vt 0.2629395 0.442627
vt 0.2629395 0.442627
vt 0.2629395 0.442627
vt 0.2629395 0.442627
vt 0.2629395 0.442627
vt 0.2629395 0.442627
vt 0.2956543 0.442627
vt 0.2956543 0.442627
vt 0.2956543 0.442627
vt 0.2956543 0.442627
vt 0.2956543 0.442627
vt 0.2956543 0.442627
vt 0.2956543 0.442627
vt 0.2956543 0.442627
vt 0.2956543 0.442627
vt 0.2956543 0.442627
vt 0.2956543 0.442627
vt 0.2956543 0.442627
vt 0.3261719 0.4753418
vt 0.3261719 0.4753418
vt 0.3261719 0.4753418
vt 0.3261719 0.4753418

g Prop_Computer_Keyboard_973_98
usemtl Prop_Computer_Keyboard_973_98
usemap Prop_Computer_Keyboard_973_98
f 1/1/1 3/3/3 2/2/2
f 1/1/1 4/4/4 3/3/3
f 5/5/5 7/7/7 6/6/6
f 5/5/5 8/8/8 7/7/7
f 9/9/9 11/11/11 10/10/10
f 9/9/9 12/12/12 11/11/11
f 13/13/13 15/15/15 14/14/14
f 13/13/13 16/16/16 15/15/15
f 17/17/17 19/19/19 18/18/18
f 17/17/17 20/20/20 19/19/19
f 21/21/21 23/23/23 22/22/22
f 21/21/21 24/24/24 23/23/23
f 25/25/25 27/27/27 26/26/26
f 25/25/25 28/28/28 27/27/27
f 28/28/28 29/29/29 27/27/27
f 25/25/25 26/26/26 30/30/30
f 31/31/31 25/25/25 30/30/30
f 31/31/31 30/30/30 32/32/32
f 31/31/31 32/32/32 33/33/33
f 34/34/34 31/31/31 33/33/33
f 29/29/29 28/28/28 34/34/34
f 34/34/34 33/33/33 35/35/35
f 36/36/36 34/34/34 35/35/35
f 29/29/29 34/34/34 36/36/36
f 30/30/30 36/36/36 32/32/32
f 30/30/30 29/29/29 36/36/36
f 37/37/37 39/39/39 38/38/38
f 37/37/37 40/40/40 39/39/39
