#Prop_Haybale_01_(15)_1589_0.obj

v -0.6257325 0.04847781 0.9999989
v -0.6257325 1.29994 0.9999989
v 0.6257325 1.29994 0.9999989
v 0.6257325 0.04847781 0.9999989
v -0.6257325 1.29994 0.9999989
v -0.6257325 1.29994 -0.9999989
v 0.6257325 1.29994 -0.9999989
v 0.6257325 1.29994 0.9999989
v -0.6257325 1.29994 -0.9999989
v -0.6257325 0.04847781 -0.9999989
v 0.6257325 0.04847781 -0.9999989
v 0.6257325 1.29994 -0.9999989
v -0.6257325 0.04847781 -0.9999989
v -0.6257325 0.04847781 0.9999989
v 0.6257325 0.04847781 0.9999989
v 0.6257325 0.04847781 -0.9999989
v 0.6257325 0.04847781 0.9999989
v 0.6257325 1.29994 0.9999989
v 0.6257325 1.29994 -0.9999989
v 0.6257325 0.04847781 -0.9999989
v -0.6257325 0.04847781 -0.9999989
v -0.6257325 1.29994 -0.9999989
v -0.6257325 1.29994 0.9999989
v -0.6257325 0.04847781 0.9999989
v -0.6742047 0 -0.3588842
v -0.6742047 1.348417 -0.3588842
v 0.6742047 1.348417 -0.3588842
v 0.6742047 0 -0.3588842
v -0.6742047 1.348417 -0.3588842
v -0.6742047 1.348417 -0.5347705
v 0.6742047 1.348417 -0.5347705
v 0.6742047 1.348417 -0.3588842
v -0.6742047 1.348417 -0.5347705
v -0.6742047 0 -0.5347705
v 0.6742047 0 -0.5347705
v 0.6742047 1.348417 -0.5347705
v -0.6742047 0 -0.5347705
v -0.6742047 0 -0.3588842
v 0.6742047 0 -0.3588842
v 0.6742047 0 -0.5347705
v 0.6742047 0 -0.3588842
v 0.6742047 1.348417 -0.3588842
v 0.6742047 1.348417 -0.5347705
v 0.6742047 0 -0.5347705
v -0.6742047 0 -0.5347705
v -0.6742047 1.348417 -0.5347705
v -0.6742047 1.348417 -0.3588842
v -0.6742047 0 -0.3588842
v -0.6742047 0 0.3588842
v 0.6742047 0 0.3588842
v 0.6742047 1.348417 0.3588842
v -0.6742047 1.348417 0.3588842
v -0.6742047 1.348417 0.3588842
v 0.6742047 1.348417 0.3588842
v 0.6742047 1.348417 0.5347705
v -0.6742047 1.348417 0.5347705
v -0.6742047 1.348417 0.5347705
v 0.6742047 1.348417 0.5347705
v 0.6742047 0 0.5347705
v -0.6742047 0 0.5347705
v -0.6742047 0 0.5347705
v 0.6742047 0 0.5347705
v 0.6742047 0 0.3588842
v -0.6742047 0 0.3588842
v 0.6742047 0 0.3588842
v 0.6742047 0 0.5347705
v 0.6742047 1.348417 0.5347705
v 0.6742047 1.348417 0.3588842
v -0.6742047 0 0.5347705
v -0.6742047 0 0.3588842
v -0.6742047 1.348417 0.3588842
v -0.6742047 1.348417 0.5347705

vn 0 0 1
vn 0 0 1
vn 0 0 1
vn 0 0 1
vn 0 1 0
vn 0 1 0
vn 0 1 0
vn 0 1 0
vn 0 0 -1
vn 0 0 -1
vn 0 0 -1
vn 0 0 -1
vn 0 -1 0
vn 0 -1 0
vn 0 -1 0
vn 0 -1 0
vn 1 0 0
vn 1 0 0
vn 1 0 0
vn 1 0 0
vn -1 0 0
vn -1 0 0
vn -1 0 0
vn -1 0 0
vn 0 0 1
vn 0 0 1
vn 0 0 1
vn 0 0 1
vn 0 1 0
vn 0 1 0
vn 0 1 0
vn 0 1 0
vn 0 0 -1
vn 0 0 -1
vn 0 0 -1
vn 0 0 -1
vn 0 -1 0
vn 0 -1 0
vn 0 -1 0
vn 0 -1 0
vn 1 0 0
vn 1 0 0
vn 1 0 0
vn 1 0 0
vn -1 0 0
vn -1 0 0
vn -1 0 0
vn -1 0 0
vn 0 0 -1
vn 0 0 -1
vn 0 0 -1
vn 0 0 -1
vn 0 1 0
vn 0 1 0
vn 0 1 0
vn 0 1 0
vn 0 0 1
vn 0 0 1
vn 0 0 1
vn 0 0 1
vn 0 -1 0
vn 0 -1 0
vn 0 -1 0
vn 0 -1 0
vn 1 0 0
vn 1 0 0
vn 1 0 0
vn 1 0 0
vn -1 0 0
vn -1 0 0
vn -1 0 0
vn -1 0 0

vt 0.2282715 0.2174072
vt 0.2282715 0.2174072
vt 0.2282715 0.2174072
vt 0.2282715 0.2174072
vt 0.28125 0.2143555
vt 0.28125 0.2143555
vt 0.28125 0.2143555
vt 0.28125 0.2143555
vt 0.2282715 0.2174072
vt 0.2282715 0.2174072
vt 0.2282715 0.2174072
vt 0.2282715 0.2174072
vt 0.2050781 0.2189941
vt 0.2050781 0.2189941
vt 0.2050781 0.2189941
vt 0.2050781 0.2189941
vt 0.2609863 0.2189941
vt 0.2609863 0.2189941
vt 0.2609863 0.2189941
vt 0.2609863 0.2189941
vt 0.2609863 0.2189941
vt 0.2609863 0.2189941
vt 0.2609863 0.2189941
vt 0.2609863 0.2189941
vt 0.2021484 0.3999023
vt 0.2021484 0.3999023
vt 0.2021484 0.3999023
vt 0.2021484 0.3999023
vt 0.3486328 0.3999023
vt 0.3486328 0.3999023
vt 0.3486328 0.3999023
vt 0.3486328 0.3999023
vt 0.2021484 0.3999023
vt 0.2021484 0.3999023
vt 0.2021484 0.3999023
vt 0.2021484 0.3999023
vt 0.1375732 0.4001465
vt 0.1375732 0.4001465
vt 0.1375732 0.4001465
vt 0.1375732 0.4001465
vt 0.2924805 0.4001465
vt 0.2924805 0.4001465
vt 0.2924805 0.4001465
vt 0.2924805 0.4001465
vt 0.2924805 0.4001465
vt 0.2924805 0.4001465
vt 0.2924805 0.4001465
vt 0.2924805 0.4001465
vt 0.2021484 0.3999023
vt 0.2021484 0.3999023
vt 0.2021484 0.3999023
vt 0.2021484 0.3999023
vt 0.3486328 0.3999023
vt 0.3486328 0.3999023
vt 0.3486328 0.3999023
vt 0.3486328 0.3999023
vt 0.2021484 0.3999023
vt 0.2021484 0.3999023
vt 0.2021484 0.3999023
vt 0.2021484 0.3999023
vt 0.1375732 0.4001465
vt 0.1375732 0.4001465
vt 0.1375732 0.4001465
vt 0.1375732 0.4001465
vt 0.2924805 0.4001465
vt 0.2924805 0.4001465
vt 0.2924805 0.4001465
vt 0.2924805 0.4001465
vt 0.2924805 0.4001465
vt 0.2924805 0.4001465
vt 0.2924805 0.4001465
vt 0.2924805 0.4001465

g Prop_Haybale_01_(15)_1589_0
usemtl Prop_Haybale_01_(15)_1589_0
usemap Prop_Haybale_01_(15)_1589_0
f 1/1/1 3/3/3 2/2/2
f 1/1/1 4/4/4 3/3/3
f 5/5/5 7/7/7 6/6/6
f 5/5/5 8/8/8 7/7/7
f 9/9/9 11/11/11 10/10/10
f 9/9/9 12/12/12 11/11/11
f 13/13/13 15/15/15 14/14/14
f 13/13/13 16/16/16 15/15/15
f 17/17/17 19/19/19 18/18/18
f 17/17/17 20/20/20 19/19/19
f 21/21/21 23/23/23 22/22/22
f 21/21/21 24/24/24 23/23/23
f 25/25/25 27/27/27 26/26/26
f 25/25/25 28/28/28 27/27/27
f 29/29/29 31/31/31 30/30/30
f 29/29/29 32/32/32 31/31/31
f 33/33/33 35/35/35 34/34/34
f 33/33/33 36/36/36 35/35/35
f 37/37/37 39/39/39 38/38/38
f 37/37/37 40/40/40 39/39/39
f 41/41/41 43/43/43 42/42/42
f 41/41/41 44/44/44 43/43/43
f 45/45/45 47/47/47 46/46/46
f 45/45/45 48/48/48 47/47/47
f 49/49/49 51/51/51 50/50/50
f 49/49/49 52/52/52 51/51/51
f 53/53/53 55/55/55 54/54/54
f 53/53/53 56/56/56 55/55/55
f 57/57/57 59/59/59 58/58/58
f 57/57/57 60/60/60 59/59/59
f 61/61/61 63/63/63 62/62/62
f 61/61/61 64/64/64 63/63/63
f 65/65/65 67/67/67 66/66/66
f 65/65/65 68/68/68 67/67/67
f 69/69/69 71/71/71 70/70/70
f 69/69/69 72/72/72 71/71/71
