#Prop_Cupboard_02_1632_21.obj

v 0.02170563 0.7891704 0.3359718
v 0.02170563 1.101422 0.3359718
v 0.02170563 1.101422 0.3636513
v 0.02170563 0.7891704 0.3636513
v 0.02170563 1.101422 0.3359718
v 0.1031647 1.101422 0.3359718
v 0.1031647 1.101422 0.3636513
v 0.02170563 1.101422 0.3636513
v 0.1031647 1.101422 0.3359718
v 0.1031647 0.7891704 0.3359718
v 0.1031647 0.7891704 0.3636513
v 0.1031647 1.101422 0.3636513
v 0.1031647 0.7891704 0.3359718
v 0.02170563 0.7891704 0.3359718
v 0.02170563 0.7891704 0.3636513
v 0.1031647 0.7891704 0.3636513
v 0.02999878 0.9096352 0.467823
v 0.02999878 0.9809575 0.467823
v 0.09486389 0.9809575 0.467823
v 0.09486389 0.9096352 0.467823
v 0.02170563 0.7891704 0.3636513
v 0.04721832 0.9246156 0.3636513
v 0.07764435 0.9246156 0.3636475
v 0.1031647 0.7891704 0.3636513
v 0.07764435 0.9659772 0.3636475
v 0.1031647 1.101422 0.3636513
v 0.04721832 0.9659772 0.3636513
v 0.02170563 1.101422 0.3636513
v 0.04721832 0.9246156 0.3636513
v 0.04721832 0.9246156 0.4015236
v 0.07764435 0.9246156 0.4015198
v 0.07764435 0.9246156 0.3636475
v 0.07764435 0.9246156 0.3636475
v 0.07764435 0.9246156 0.4015198
v 0.07764435 0.9659772 0.4015198
v 0.07764435 0.9659772 0.3636475
v 0.07764435 0.9659772 0.3636475
v 0.07764435 0.9659772 0.4015198
v 0.04721832 0.9659772 0.4015236
v 0.04721832 0.9659772 0.3636513
v 0.04721832 0.9659772 0.3636513
v 0.04721832 0.9659772 0.4015236
v 0.04721832 0.9246156 0.4015236
v 0.04721832 0.9246156 0.3636513
v 0.04721832 0.9246156 0.4015236
v 0.02999878 0.9096352 0.4015236
v 0.09486389 0.9096352 0.4015236
v 0.07764435 0.9246156 0.4015198
v 0.09486389 0.9809575 0.4015236
v 0.07764435 0.9659772 0.4015198
v 0.02999878 0.9809575 0.4015236
v 0.04721832 0.9659772 0.4015236
v 0.02999878 0.9096352 0.4015236
v 0.02999878 0.9096352 0.467823
v 0.09486389 0.9096352 0.467823
v 0.09486389 0.9096352 0.4015236
v 0.09486389 0.9096352 0.4015236
v 0.09486389 0.9096352 0.467823
v 0.09486389 0.9809575 0.467823
v 0.09486389 0.9809575 0.4015236
v 0.09486389 0.9809575 0.4015236
v 0.09486389 0.9809575 0.467823
v 0.02999878 0.9809575 0.467823
v 0.02999878 0.9809575 0.4015236
v 0.02999878 0.9809575 0.4015236
v 0.02999878 0.9809575 0.467823
v 0.02999878 0.9096352 0.467823
v 0.02999878 0.9096352 0.4015236
v -0.1039581 0.7891704 0.3359718
v -0.1039581 1.101422 0.3359718
v -0.1039581 1.101422 0.3636513
v -0.1039581 0.7891704 0.3636513
v -0.1039581 1.101422 0.3359718
v -0.02250671 1.101422 0.3359718
v -0.02250671 1.101422 0.3636513
v -0.1039581 1.101422 0.3636513
v -0.02250671 1.101422 0.3359718
v -0.02250671 0.7891704 0.3359718
v -0.02250671 0.7891704 0.3636513
v -0.02250671 1.101422 0.3636513
v -0.02250671 0.7891704 0.3359718
v -0.1039581 0.7891704 0.3359718
v -0.1039581 0.7891704 0.3636513
v -0.02250671 0.7891704 0.3636513
v -0.09567261 0.9096352 0.467823
v -0.09567261 0.9809575 0.467823
v -0.03079224 0.9809575 0.467823
v -0.03079224 0.9096352 0.467823
v -0.1039581 0.7891704 0.3636513
v -0.07844543 0.9246156 0.3636513
v -0.04801941 0.9246156 0.3636475
v -0.02250671 0.7891704 0.3636513
v -0.04801941 0.9659772 0.3636475
v -0.02250671 1.101422 0.3636513
v -0.07844543 0.9659772 0.3636513
v -0.1039581 1.101422 0.3636513
v -0.07844543 0.9246156 0.3636513
v -0.07844543 0.9246156 0.4015236
v -0.04801941 0.9246156 0.4015198
v -0.04801941 0.9246156 0.3636475
v -0.04801941 0.9246156 0.3636475
v -0.04801941 0.9246156 0.4015198
v -0.04801941 0.9659772 0.4015198
v -0.04801941 0.9659772 0.3636475
v -0.04801941 0.9659772 0.3636475
v -0.04801941 0.9659772 0.4015198
v -0.07844543 0.9659772 0.4015236
v -0.07844543 0.9659772 0.3636513
v -0.07844543 0.9659772 0.3636513
v -0.07844543 0.9659772 0.4015236
v -0.07844543 0.9246156 0.4015236
v -0.07844543 0.9246156 0.3636513
v -0.07844543 0.9246156 0.4015236
v -0.09567261 0.9096352 0.4015236
v -0.03079224 0.9096352 0.4015236
v -0.04801941 0.9246156 0.4015198
v -0.03079224 0.9809575 0.4015236
v -0.04801941 0.9659772 0.4015198
v -0.09567261 0.9809575 0.4015236
v -0.07844543 0.9659772 0.4015236
v -0.09567261 0.9096352 0.4015236
v -0.09567261 0.9096352 0.467823
v -0.03079224 0.9096352 0.467823
v -0.03079224 0.9096352 0.4015236
v -0.03079224 0.9096352 0.4015236
v -0.03079224 0.9096352 0.467823
v -0.03079224 0.9809575 0.467823
v -0.03079224 0.9809575 0.4015236
v -0.03079224 0.9809575 0.4015236
v -0.03079224 0.9809575 0.467823
v -0.09567261 0.9809575 0.467823
v -0.09567261 0.9809575 0.4015236
v -0.09567261 0.9809575 0.4015236
v -0.09567261 0.9809575 0.467823
v -0.09567261 0.9096352 0.467823
v -0.09567261 0.9096352 0.4015236
v -0.7810287 0.258295 0.3359756
v -0.7810287 0.258295 -0.4037819
v -0.7810287 1.584471 -0.4037819
v -0.7810287 1.584471 0.3359756
v -0.8343811 1.659732 -0.4556541
v 0.8343658 1.659732 -0.4556541
v 0.8343658 1.659732 0.3878479
v -0.8343811 1.659732 0.3878479
v 0.7810287 1.584471 -0.4037819
v 0.7810287 0.258295 -0.4037819
v 0.7810287 0.258295 0.3359718
v 0.7810287 1.584471 0.3359718
v -0.8439331 0 0.4000206
v 0.8439255 0 0.4000206
v 0.8439255 0 -0.4678268
v -0.8439331 0 -0.4678307
v -0.1470947 1.484864 0.2971191
v -0.1470947 0.3579016 0.2971191
v -0.6172028 0.3579016 0.2971153
v -0.6172028 1.484864 0.2971153
v -0.7810287 0.258295 -0.4037819
v 0.7810287 0.258295 -0.4037819
v 0.7810287 1.584471 -0.4037819
v -0.7810287 1.584471 -0.4037819
v 0.7810287 0.258295 -0.4037819
v 0.8439255 0.258295 -0.4678268
v 0.8439255 0.258295 0.4000206
v 0.7810287 0.258295 0.3359718
v -0.7810287 0.258295 0.3359756
v -0.8439331 0.258295 0.4000206
v -0.8439331 0.258295 -0.4678307
v -0.7810287 0.258295 -0.4037819
v 0.8439255 0.258295 -0.4678268
v 0.8439255 0 -0.4678268
v 0.8439255 0 0.4000206
v 0.8439255 0.258295 0.4000206
v -0.8439331 0.258295 0.4000206
v 0.8439255 0.258295 0.4000206
v 0.8439255 0 0.4000206
v -0.8439331 0 0.4000206
v -0.8439331 0.258295 0.4000206
v -0.8439331 0 0.4000206
v -0.8439331 0 -0.4678307
v -0.8439331 0.258295 -0.4678307
v -0.8439331 0 -0.4678307
v 0.8439255 0 -0.4678268
v 0.8439255 0.258295 -0.4678268
v -0.8439331 0.258295 -0.4678307
v -0.7810287 1.584471 -0.4037819
v -0.8343811 1.584471 -0.4556541
v -0.8343811 1.584471 0.3878479
v -0.7810287 1.584471 0.3359756
v 0.7810287 1.584471 0.3359718
v 0.8343658 1.584471 0.3878479
v 0.8343658 1.584471 -0.4556541
v 0.7810287 1.584471 -0.4037819
v -0.8343811 1.584471 -0.4556541
v -0.8343811 1.659732 -0.4556541
v -0.8343811 1.659732 0.3878479
v -0.8343811 1.584471 0.3878479
v -0.8343811 1.659732 0.3878479
v 0.8343658 1.659732 0.3878479
v 0.8343658 1.584471 0.3878479
v -0.8343811 1.584471 0.3878479
v 0.8343658 1.584471 0.3878479
v 0.8343658 1.659732 0.3878479
v 0.8343658 1.659732 -0.4556541
v 0.8343658 1.584471 -0.4556541
v -0.8343811 1.584471 -0.4556541
v 0.8343658 1.584471 -0.4556541
v 0.8343658 1.659732 -0.4556541
v -0.8343811 1.659732 -0.4556541
v -0.7810287 0.258295 0.3359756
v -0.6865845 0.3088901 0.3359718
v -0.01166534 0.3088901 0.3359718
v -0.6865845 1.533875 0.3359718
v -0.7810287 1.584471 0.3359756
v -0.01166534 1.533876 0.3359718
v 0.7810287 1.584471 0.3359718
v 0.01165771 1.533876 0.3359756
v 0.6865692 1.533875 0.3359718
v 0.7810287 0.258295 0.3359718
v 0.6865692 0.3088901 0.3359718
v 0.01165771 0.3088901 0.3359756
v 0.6171875 0.3579016 0.2971153
v 0.1471024 0.3579016 0.2971153
v 0.1471024 1.484864 0.2971153
v 0.6171875 1.484864 0.2971153
v 0.01165771 1.533876 0.3359756
v 0.01165771 0.3088901 0.3359756
v -0.01166534 0.3088901 0.3359718
v -0.01166534 1.533876 0.3359718
v -0.01166534 1.533876 0.3359718
v -0.1470947 1.484864 0.3359756
v -0.6172028 1.484864 0.3359718
v -0.6865845 1.533875 0.3359718
v -0.6865845 0.3088901 0.3359718
v -0.6172028 0.3579016 0.3359718
v -0.1470947 0.3579016 0.3359756
v -0.01166534 0.3088901 0.3359718
v 0.01165771 0.3088901 0.3359756
v 0.1471024 0.3579016 0.3359718
v 0.6171875 0.3579016 0.3359718
v 0.6865692 0.3088901 0.3359718
v 0.6865692 1.533875 0.3359718
v 0.6171875 1.484864 0.3359718
v 0.1471024 1.484864 0.3359718
v 0.01165771 1.533876 0.3359756
v -0.1470947 1.484864 0.3359756
v -0.1470947 1.484864 0.2971191
v -0.6172028 1.484864 0.2971153
v -0.6172028 1.484864 0.3359718
v -0.6172028 1.484864 0.2971153
v -0.6172028 0.3579016 0.2971153
v -0.6172028 0.3579016 0.3359718
v -0.6172028 1.484864 0.3359718
v -0.6172028 0.3579016 0.3359718
v -0.6172028 0.3579016 0.2971153
v -0.1470947 0.3579016 0.2971191
v -0.1470947 0.3579016 0.3359756
v -0.1470947 1.484864 0.2971191
v -0.1470947 1.484864 0.3359756
v -0.1470947 0.3579016 0.3359756
v -0.1470947 0.3579016 0.2971191
v 0.1471024 0.3579016 0.3359718
v 0.1471024 0.3579016 0.2971153
v 0.6171875 0.3579016 0.2971153
v 0.6171875 0.3579016 0.3359718
v 0.6171875 0.3579016 0.2971153
v 0.6171875 1.484864 0.2971153
v 0.6171875 1.484864 0.3359718
v 0.6171875 0.3579016 0.3359718
v 0.1471024 0.3579016 0.2971153
v 0.1471024 0.3579016 0.3359718
v 0.1471024 1.484864 0.3359718
v 0.1471024 1.484864 0.2971153
v 0.6171875 1.484864 0.3359718
v 0.6171875 1.484864 0.2971153
v 0.1471024 1.484864 0.2971153
v 0.1471024 1.484864 0.3359718

vn -1 0 0
vn -1 0 0
vn -1 0 0
vn -1 0 0
vn 0 1 0
vn 0 1 0
vn 0 1 0
vn 0 1 0
vn 1 0 0
vn 1 0 0
vn 1 0 0
vn 1 0 0
vn 0 -1 0
vn 0 -1 0
vn 0 -1 0
vn 0 -1 0
vn 0 0 1
vn 0 0 1
vn 0 0 1
vn 0 0 1
vn 0 0 1
vn 0 0 1
vn 0 0 1
vn 0 0 1
vn 0 0 1
vn 0 0 1
vn 0 0 1
vn 0 0 1
vn 0 -1 0
vn 0 -1 0
vn 0 -1 0
vn 0 -1 0
vn 1 0 0
vn 1 0 0
vn 1 0 0
vn 1 0 0
vn 0 1 0
vn 0 1 0
vn 0 1 0
vn 0 1 0
vn -1 0 0
vn -1 0 0
vn -1 0 0
vn -1 0 0
vn 0 0 -1
vn 0 0 -1
vn 0 0 -1
vn 0 0 -1
vn 0 0 -1
vn 0 0 -1
vn 0 0 -1
vn 0 0 -1
vn 0 -1 0
vn 0 -1 0
vn 0 -1 0
vn 0 -1 0
vn 1 0 0
vn 1 0 0
vn 1 0 0
vn 1 0 0
vn 0 1 0
vn 0 1 0
vn 0 1 0
vn 0 1 0
vn -1 0 0
vn -1 0 0
vn -1 0 0
vn -1 0 0
vn -1 0 0
vn -1 0 0
vn -1 0 0
vn -1 0 0
vn 0 1 0
vn 0 1 0
vn 0 1 0
vn 0 1 0
vn 1 0 0
vn 1 0 0
vn 1 0 0
vn 1 0 0
vn 0 -1 0
vn 0 -1 0
vn 0 -1 0
vn 0 -1 0
vn 0 0 1
vn 0 0 1
vn 0 0 1
vn 0 0 1
vn 0 0 1
vn 0 0 1
vn 0 0 1
vn 0 0 1
vn 0 0 1
vn 0 0 1
vn 0 0 1
vn 0 0 1
vn 0 -1 0
vn 0 -1 0
vn 0 -1 0
vn 0 -1 0
vn 1 0 0
vn 1 0 0
vn 1 0 0
vn 1 0 0
vn 0 1 0
vn 0 1 0
vn 0 1 0
vn 0 1 0
vn -1 0 0
vn -1 0 0
vn -1 0 0
vn -1 0 0
vn 0 0 -1
vn 0 0 -1
vn 0 0 -1
vn 0 0 -1
vn 0 0 -1
vn 0 0 -1
vn 0 0 -1
vn 0 0 -1
vn 0 -1 0
vn 0 -1 0
vn 0 -1 0
vn 0 -1 0
vn 1 0 0
vn 1 0 0
vn 1 0 0
vn 1 0 0
vn 0 1 0
vn 0 1 0
vn 0 1 0
vn 0 1 0
vn -1 0 0
vn -1 0 0
vn -1 0 0
vn -1 0 0
vn -1 0 0
vn -1 0 0
vn -1 0 0
vn -1 0 0
vn 0 1 0
vn 0 1 0
vn 0 1 0
vn 0 1 0
vn 1 0 0
vn 1 0 0
vn 1 0 0
vn 1 0 0
vn 0 -1 0
vn 0 -1 0
vn 0 -1 0
vn 0 -1 0
vn 0 0 1
vn 0 0 1
vn 0 0 1
vn 0 0 1
vn 0 0 -1
vn 0 0 -1
vn 0 0 -1
vn 0 0 -1
vn 0 1 0
vn 0 1 0
vn 0 1 0
vn 0 1 0
vn 0 1 0
vn 0 1 0
vn 0 1 0
vn 0 1 0
vn 1 0 0
vn 1 0 0
vn 1 0 0
vn 1 0 0
vn 0 0 1
vn 0 0 1
vn 0 0 1
vn 0 0 1
vn -1 0 0
vn -1 0 0
vn -1 0 0
vn -1 0 0
vn 0 0 -1
vn 0 0 -1
vn 0 0 -1
vn 0 0 -1
vn 0 -1 0
vn 0 -1 0
vn 0 -1 0
vn 0 -1 0
vn 0 -1 0
vn 0 -1 0
vn 0 -1 0
vn 0 -1 0
vn -1 0 0
vn -1 0 0
vn -1 0 0
vn -1 0 0
vn 0 0 1
vn 0 0 1
vn 0 0 1
vn 0 0 1
vn 1 0 0
vn 1 0 0
vn 1 0 0
vn 1 0 0
vn 0 0 -1
vn 0 0 -1
vn 0 0 -1
vn 0 0 -1
vn 0 0 1
vn 0 0 1
vn 0 0 1
vn 0 0 1
vn 0 0 1
vn 0 0 1
vn 0 0 1
vn 0 0 1
vn 0 0 1
vn 0 0 1
vn 0 0 1
vn 0 0 1
vn 0 0 1
vn 0 0 1
vn 0 0 1
vn 0 0 1
vn 0 0 1
vn 0 0 1
vn 0 0 1
vn 0 0 1
vn 0 0 1
vn 0 0 1
vn 0 0 1
vn 0 0 1
vn 0 0 1
vn 0 0 1
vn 0 0 1
vn 0 0 1
vn 0 0 1
vn 0 0 1
vn 0 0 1
vn 0 0 1
vn 0 0 1
vn 0 0 1
vn 0 0 1
vn 0 0 1
vn 0 -1 0
vn 0 -1 0
vn 0 -1 0
vn 0 -1 0
vn 1 0 0
vn 1 0 0
vn 1 0 0
vn 1 0 0
vn 0 1 0
vn 0 1 0
vn 0 1 0
vn 0 1 0
vn -1 0 0
vn -1 0 0
vn -1 0 0
vn -1 0 0
vn 0 1 0
vn 0 1 0
vn 0 1 0
vn 0 1 0
vn -1 0 0
vn -1 0 0
vn -1 0 0
vn -1 0 0
vn 1 0 0
vn 1 0 0
vn 1 0 0
vn 1 0 0
vn 0 -1 0
vn 0 -1 0
vn 0 -1 0
vn 0 -1 0

vt 0.2033691 0.2209473
vt 0.2033691 0.2209473
vt 0.2033691 0.2209473
vt 0.2033691 0.2209473
vt 0.2629395 0.2209473
vt 0.2629395 0.2209473
vt 0.2629395 0.2209473
vt 0.2629395 0.2209473
vt 0.2033691 0.2209473
vt 0.2033691 0.2209473
vt 0.2033691 0.2209473
vt 0.2033691 0.2209473
vt 0.1715088 0.2209473
vt 0.1715088 0.2209473
vt 0.1715088 0.2209473
vt 0.1715088 0.2209473
vt 0.2331543 0.2209473
vt 0.2331543 0.2209473
vt 0.2331543 0.2209473
vt 0.2331543 0.2209473
vt 0.2331543 0.2209473
vt 0.2331543 0.2209473
vt 0.2331543 0.2209473
vt 0.2331543 0.2209473
vt 0.2331543 0.2209473
vt 0.2331543 0.2209473
vt 0.2331543 0.2209473
vt 0.2331543 0.2209473
vt 0.1715088 0.2209473
vt 0.1715088 0.2209473
vt 0.1715088 0.2209473
vt 0.1715088 0.2209473
vt 0.2033691 0.2209473
vt 0.2033691 0.2209473
vt 0.2033691 0.2209473
vt 0.2033691 0.2209473
vt 0.2629395 0.2209473
vt 0.2629395 0.2209473
vt 0.2629395 0.2209473
vt 0.2629395 0.2209473
vt 0.2033691 0.2209473
vt 0.2033691 0.2209473
vt 0.2033691 0.2209473
vt 0.2033691 0.2209473
vt 0.2331543 0.2209473
vt 0.2331543 0.2209473
vt 0.2331543 0.2209473
vt 0.2331543 0.2209473
vt 0.2331543 0.2209473
vt 0.2331543 0.2209473
vt 0.2331543 0.2209473
vt 0.2331543 0.2209473
vt 0.1715088 0.2209473
vt 0.1715088 0.2209473
vt 0.1715088 0.2209473
vt 0.1715088 0.2209473
vt 0.2033691 0.2209473
vt 0.2033691 0.2209473
vt 0.2033691 0.2209473
vt 0.2033691 0.2209473
vt 0.2629395 0.2209473
vt 0.2629395 0.2209473
vt 0.2629395 0.2209473
vt 0.2629395 0.2209473
vt 0.2033691 0.2209473
vt 0.2033691 0.2209473
vt 0.2033691 0.2209473
vt 0.2033691 0.2209473
vt 0.2033691 0.2209473
vt 0.2033691 0.2209473
vt 0.2033691 0.2209473
vt 0.2033691 0.2209473
vt 0.2629395 0.2209473
vt 0.2629395 0.2209473
vt 0.2629395 0.2209473
vt 0.2629395 0.2209473
vt 0.2033691 0.2209473
vt 0.2033691 0.2209473
vt 0.2033691 0.2209473
vt 0.2033691 0.2209473
vt 0.1715088 0.2209473
vt 0.1715088 0.2209473
vt 0.1715088 0.2209473
vt 0.1715088 0.2209473
vt 0.2331543 0.2209473
vt 0.2331543 0.2209473
vt 0.2331543 0.2209473
vt 0.2331543 0.2209473
vt 0.2331543 0.2209473
vt 0.2331543 0.2209473
vt 0.2331543 0.2209473
vt 0.2331543 0.2209473
vt 0.2331543 0.2209473
vt 0.2331543 0.2209473
vt 0.2331543 0.2209473
vt 0.2331543 0.2209473
vt 0.1715088 0.2209473
vt 0.1715088 0.2209473
vt 0.1715088 0.2209473
vt 0.1715088 0.2209473
vt 0.2033691 0.2209473
vt 0.2033691 0.2209473
vt 0.2033691 0.2209473
vt 0.2033691 0.2209473
vt 0.2629395 0.2209473
vt 0.2629395 0.2209473
vt 0.2629395 0.2209473
vt 0.2629395 0.2209473
vt 0.2033691 0.2209473
vt 0.2033691 0.2209473
vt 0.2033691 0.2209473
vt 0.2033691 0.2209473
vt 0.2331543 0.2209473
vt 0.2331543 0.2209473
vt 0.2331543 0.2209473
vt 0.2331543 0.2209473
vt 0.2331543 0.2209473
vt 0.2331543 0.2209473
vt 0.2331543 0.2209473
vt 0.2331543 0.2209473
vt 0.1715088 0.2209473
vt 0.1715088 0.2209473
vt 0.1715088 0.2209473
vt 0.1715088 0.2209473
vt 0.2033691 0.2209473
vt 0.2033691 0.2209473
vt 0.2033691 0.2209473
vt 0.2033691 0.2209473
vt 0.2629395 0.2209473
vt 0.2629395 0.2209473
vt 0.2629395 0.2209473
vt 0.2629395 0.2209473
vt 0.2033691 0.2209473
vt 0.2033691 0.2209473
vt 0.2033691 0.2209473
vt 0.2033691 0.2209473
vt 0.1715088 0.08758545
vt 0.1715088 0.08758545
vt 0.1715088 0.08758545
vt 0.1715088 0.08758545
vt 0.2629395 0.08758545
vt 0.2629395 0.08758545
vt 0.2629395 0.08758545
vt 0.2629395 0.08758545
vt 0.1715088 0.08758545
vt 0.1715088 0.08758545
vt 0.1715088 0.08758545
vt 0.1715088 0.08758545
vt 0.2033691 0.08758545
vt 0.2033691 0.08758545
vt 0.2033691 0.08758545
vt 0.2033691 0.08758545
vt 0.1715088 0.08758545
vt 0.1715088 0.08758545
vt 0.1715088 0.08758545
vt 0.1715088 0.08758545
vt 0.2033691 0.08758545
vt 0.2033691 0.08758545
vt 0.2033691 0.08758545
vt 0.2033691 0.08758545
vt 0.2629395 0.08758545
vt 0.2629395 0.08758545
vt 0.2629395 0.08758545
vt 0.2629395 0.08758545
vt 0.2629395 0.08758545
vt 0.2629395 0.08758545
vt 0.2629395 0.08758545
vt 0.2629395 0.08758545
vt 0.1715088 0.08758545
vt 0.1715088 0.08758545
vt 0.1715088 0.08758545
vt 0.1715088 0.08758545
vt 0.2033691 0.08758545
vt 0.2033691 0.08758545
vt 0.2033691 0.08758545
vt 0.2033691 0.08758545
vt 0.1715088 0.08758545
vt 0.1715088 0.08758545
vt 0.1715088 0.08758545
vt 0.1715088 0.08758545
vt 0.2033691 0.08758545
vt 0.2033691 0.08758545
vt 0.2033691 0.08758545
vt 0.2033691 0.08758545
vt 0.1409912 0.08758545
vt 0.1409912 0.08758545
vt 0.1409912 0.08758545
vt 0.1409912 0.08758545
vt 0.1409912 0.08758545
vt 0.1409912 0.08758545
vt 0.1409912 0.08758545
vt 0.1409912 0.08758545
vt 0.1715088 0.08758545
vt 0.1715088 0.08758545
vt 0.1715088 0.08758545
vt 0.1715088 0.08758545
vt 0.2033691 0.08758545
vt 0.2033691 0.08758545
vt 0.2033691 0.08758545
vt 0.2033691 0.08758545
vt 0.1715088 0.08758545
vt 0.1715088 0.08758545
vt 0.1715088 0.08758545
vt 0.1715088 0.08758545
vt 0.2033691 0.08758545
vt 0.2033691 0.08758545
vt 0.2033691 0.08758545
vt 0.2033691 0.08758545
vt 0.2033691 0.08758545
vt 0.2033691 0.08758545
vt 0.2033691 0.08758545
vt 0.2033691 0.08758545
vt 0.2033691 0.08758545
vt 0.2033691 0.08758545
vt 0.2033691 0.08758545
vt 0.2033691 0.08758545
vt 0.2033691 0.08758545
vt 0.2033691 0.08758545
vt 0.2033691 0.08758545
vt 0.2033691 0.08758545
vt 0.1715088 0.08758545
vt 0.1715088 0.08758545
vt 0.1715088 0.08758545
vt 0.1715088 0.08758545
vt 0.07800293 0.4753418
vt 0.07800293 0.4753418
vt 0.07800293 0.4753418
vt 0.07800293 0.4753418
vt 0.2331543 0.08758545
vt 0.2331543 0.08758545
vt 0.2331543 0.08758545
vt 0.2331543 0.08758545
vt 0.2331543 0.08758545
vt 0.2331543 0.08758545
vt 0.2331543 0.08758545
vt 0.2331543 0.08758545
vt 0.2331543 0.08758545
vt 0.2331543 0.08758545
vt 0.2331543 0.08758545
vt 0.2331543 0.08758545
vt 0.2331543 0.08758545
vt 0.2331543 0.08758545
vt 0.2331543 0.08758545
vt 0.2331543 0.08758545
vt 0.1409912 0.08758545
vt 0.1409912 0.08758545
vt 0.1409912 0.08758545
vt 0.1409912 0.08758545
vt 0.1409912 0.08758545
vt 0.1409912 0.08758545
vt 0.1409912 0.08758545
vt 0.1409912 0.08758545
vt 0.1409912 0.08758545
vt 0.1409912 0.08758545
vt 0.1409912 0.08758545
vt 0.1409912 0.08758545
vt 0.1409912 0.08758545
vt 0.1409912 0.08758545
vt 0.1409912 0.08758545
vt 0.1409912 0.08758545
vt 0.1409912 0.08758545
vt 0.1409912 0.08758545
vt 0.1409912 0.08758545
vt 0.1409912 0.08758545
vt 0.1409912 0.08758545
vt 0.1409912 0.08758545
vt 0.1409912 0.08758545
vt 0.1409912 0.08758545
vt 0.1409912 0.08758545
vt 0.1409912 0.08758545
vt 0.1409912 0.08758545
vt 0.1409912 0.08758545
vt 0.1409912 0.08758545
vt 0.1409912 0.08758545
vt 0.1409912 0.08758545
vt 0.1409912 0.08758545

g Prop_Cupboard_02_1632_21
usemtl Prop_Cupboard_02_1632_21
usemap Prop_Cupboard_02_1632_21
f 1/1/1 3/3/3 2/2/2
f 1/1/1 4/4/4 3/3/3
f 5/5/5 7/7/7 6/6/6
f 5/5/5 8/8/8 7/7/7
f 9/9/9 11/11/11 10/10/10
f 9/9/9 12/12/12 11/11/11
f 13/13/13 15/15/15 14/14/14
f 13/13/13 16/16/16 15/15/15
f 17/17/17 19/19/19 18/18/18
f 17/17/17 20/20/20 19/19/19
f 21/21/21 23/23/23 22/22/22
f 21/21/21 24/24/24 23/23/23
f 24/24/24 25/25/25 23/23/23
f 24/24/24 26/26/26 25/25/25
f 26/26/26 27/27/27 25/25/25
f 26/26/26 28/28/28 27/27/27
f 28/28/28 22/22/22 27/27/27
f 28/28/28 21/21/21 22/22/22
f 29/29/29 31/31/31 30/30/30
f 29/29/29 32/32/32 31/31/31
f 33/33/33 35/35/35 34/34/34
f 33/33/33 36/36/36 35/35/35
f 37/37/37 39/39/39 38/38/38
f 37/37/37 40/40/40 39/39/39
f 41/41/41 43/43/43 42/42/42
f 41/41/41 44/44/44 43/43/43
f 45/45/45 47/47/47 46/46/46
f 45/45/45 48/48/48 47/47/47
f 48/48/48 49/49/49 47/47/47
f 48/48/48 50/50/50 49/49/49
f 50/50/50 51/51/51 49/49/49
f 50/50/50 52/52/52 51/51/51
f 52/52/52 46/46/46 51/51/51
f 52/52/52 45/45/45 46/46/46
f 53/53/53 55/55/55 54/54/54
f 53/53/53 56/56/56 55/55/55
f 57/57/57 59/59/59 58/58/58
f 57/57/57 60/60/60 59/59/59
f 61/61/61 63/63/63 62/62/62
f 61/61/61 64/64/64 63/63/63
f 65/65/65 67/67/67 66/66/66
f 65/65/65 68/68/68 67/67/67
f 69/69/69 71/71/71 70/70/70
f 69/69/69 72/72/72 71/71/71
f 73/73/73 75/75/75 74/74/74
f 73/73/73 76/76/76 75/75/75
f 77/77/77 79/79/79 78/78/78
f 77/77/77 80/80/80 79/79/79
f 81/81/81 83/83/83 82/82/82
f 81/81/81 84/84/84 83/83/83
f 85/85/85 87/87/87 86/86/86
f 85/85/85 88/88/88 87/87/87
f 89/89/89 91/91/91 90/90/90
f 89/89/89 92/92/92 91/91/91
f 92/92/92 93/93/93 91/91/91
f 92/92/92 94/94/94 93/93/93
f 94/94/94 95/95/95 93/93/93
f 94/94/94 96/96/96 95/95/95
f 96/96/96 90/90/90 95/95/95
f 96/96/96 89/89/89 90/90/90
f 97/97/97 99/99/99 98/98/98
f 97/97/97 100/100/100 99/99/99
f 101/101/101 103/103/103 102/102/102
f 101/101/101 104/104/104 103/103/103
f 105/105/105 107/107/107 106/106/106
f 105/105/105 108/108/108 107/107/107
f 109/109/109 111/111/111 110/110/110
f 109/109/109 112/112/112 111/111/111
f 113/113/113 115/115/115 114/114/114
f 113/113/113 116/116/116 115/115/115
f 116/116/116 117/117/117 115/115/115
f 116/116/116 118/118/118 117/117/117
f 118/118/118 119/119/119 117/117/117
f 118/118/118 120/120/120 119/119/119
f 120/120/120 114/114/114 119/119/119
f 120/120/120 113/113/113 114/114/114
f 121/121/121 123/123/123 122/122/122
f 121/121/121 124/124/124 123/123/123
f 125/125/125 127/127/127 126/126/126
f 125/125/125 128/128/128 127/127/127
f 129/129/129 131/131/131 130/130/130
f 129/129/129 132/132/132 131/131/131
f 133/133/133 135/135/135 134/134/134
f 133/133/133 136/136/136 135/135/135
f 137/137/137 139/139/139 138/138/138
f 137/137/137 140/140/140 139/139/139
f 141/141/141 143/143/143 142/142/142
f 141/141/141 144/144/144 143/143/143
f 145/145/145 147/147/147 146/146/146
f 145/145/145 148/148/148 147/147/147
f 149/149/149 151/151/151 150/150/150
f 149/149/149 152/152/152 151/151/151
f 153/153/153 155/155/155 154/154/154
f 153/153/153 156/156/156 155/155/155
f 157/157/157 159/159/159 158/158/158
f 157/157/157 160/160/160 159/159/159
f 161/161/161 163/163/163 162/162/162
f 161/161/161 164/164/164 163/163/163
f 165/165/165 163/163/163 164/164/164
f 165/165/165 166/166/166 163/163/163
f 165/165/165 167/167/167 166/166/166
f 167/167/167 161/161/161 162/162/162
f 165/165/165 168/168/168 167/167/167
f 167/167/167 168/168/168 161/161/161
f 169/169/169 171/171/171 170/170/170
f 169/169/169 172/172/172 171/171/171
f 173/173/173 175/175/175 174/174/174
f 173/173/173 176/176/176 175/175/175
f 177/177/177 179/179/179 178/178/178
f 177/177/177 180/180/180 179/179/179
f 181/181/181 183/183/183 182/182/182
f 181/181/181 184/184/184 183/183/183
f 185/185/185 187/187/187 186/186/186
f 185/185/185 188/188/188 187/187/187
f 187/187/187 188/188/188 189/189/189
f 187/187/187 189/189/189 190/190/190
f 189/189/189 191/191/191 190/190/190
f 185/185/185 186/186/186 191/191/191
f 189/189/189 192/192/192 191/191/191
f 185/185/185 191/191/191 192/192/192
f 193/193/193 195/195/195 194/194/194
f 193/193/193 196/196/196 195/195/195
f 197/197/197 199/199/199 198/198/198
f 197/197/197 200/200/200 199/199/199
f 201/201/201 203/203/203 202/202/202
f 201/201/201 204/204/204 203/203/203
f 205/205/205 207/207/207 206/206/206
f 205/205/205 208/208/208 207/207/207
f 209/209/209 211/211/211 210/210/210
f 212/212/212 209/209/209 210/210/210
f 212/212/212 213/213/213 209/209/209
f 213/213/213 212/212/212 214/214/214
f 215/215/215 213/213/213 214/214/214
f 215/215/215 214/214/214 216/216/216
f 215/215/215 216/216/216 217/217/217
f 218/218/218 215/215/215 217/217/217
f 211/211/211 209/209/209 218/218/218
f 218/218/218 217/217/217 219/219/219
f 220/220/220 218/218/218 219/219/219
f 211/211/211 218/218/218 220/220/220
f 221/221/221 223/223/223 222/222/222
f 221/221/221 224/224/224 223/223/223
f 225/225/225 227/227/227 226/226/226
f 225/225/225 228/228/228 227/227/227
f 229/229/229 231/231/231 230/230/230
f 229/229/229 232/232/232 231/231/231
f 231/231/231 232/232/232 233/233/233
f 231/231/231 233/233/233 234/234/234
f 233/233/233 235/235/235 234/234/234
f 235/235/235 229/229/229 230/230/230
f 233/233/233 236/236/236 235/235/235
f 235/235/235 236/236/236 229/229/229
f 237/237/237 239/239/239 238/238/238
f 237/237/237 240/240/240 239/239/239
f 239/239/239 240/240/240 241/241/241
f 239/239/239 241/241/241 242/242/242
f 243/243/243 237/237/237 238/238/238
f 241/241/241 243/243/243 242/242/242
f 243/243/243 244/244/244 237/237/237
f 241/241/241 244/244/244 243/243/243
f 245/245/245 247/247/247 246/246/246
f 245/245/245 248/248/248 247/247/247
f 249/249/249 251/251/251 250/250/250
f 249/249/249 252/252/252 251/251/251
f 253/253/253 255/255/255 254/254/254
f 253/253/253 256/256/256 255/255/255
f 257/257/257 259/259/259 258/258/258
f 257/257/257 260/260/260 259/259/259
f 261/261/261 263/263/263 262/262/262
f 261/261/261 264/264/264 263/263/263
f 265/265/265 267/267/267 266/266/266
f 265/265/265 268/268/268 267/267/267
f 269/269/269 271/271/271 270/270/270
f 269/269/269 272/272/272 271/271/271
f 273/273/273 275/275/275 274/274/274
f 273/273/273 276/276/276 275/275/275
