#Prop_Tree_01_3758_229.obj

v -0.2411359 0.5012162 0.2197107
v -0.2411359 2.170902 0.2197107
v 0.188694 2.170902 0.2197107
v 0.188694 0.5012162 0.2197107
v -0.2411359 2.170902 -0.2343095
v -0.2411359 0.5012162 -0.2343095
v 0.188694 0.5012162 -0.2343095
v 0.188694 2.170902 -0.2343095
v 0.188694 0.5012162 0.2197107
v 0.188694 2.170902 0.2197107
v 0.188694 2.170902 -0.2343095
v 0.188694 0.5012162 -0.2343095
v -0.2411359 0.5012162 -0.2343095
v -0.2411359 2.170902 -0.2343095
v -0.2411359 2.170902 0.2197107
v -0.2411359 0.5012162 0.2197107
v 0.7136777 2.241641 -1.072343
v -0.6996219 2.240971 -1.07428
v -0.6980909 2.400866 1.074366
v 0.7120807 2.401545 1.072117
v -0.3530947 -0.01415253 0.3379765
v -0.2411359 0.5012162 0.2197107
v 0.188694 0.5012162 0.2197107
v 0.3006579 -0.01415253 0.3379765
v 0.3006579 -0.01415253 0.3379765
v 0.188694 0.5012162 0.2197107
v 0.188694 0.5012162 -0.2343095
v 0.3006579 -0.01415253 -0.3525753
v -0.2411359 0.5012162 -0.2343095
v -0.3530947 -0.01415253 -0.3525753
v 0.3006579 -0.01415253 -0.3525753
v 0.188694 0.5012162 -0.2343095
v -0.3530947 -0.01415253 -0.3525753
v -0.2411359 0.5012162 -0.2343095
v -0.2411359 0.5012162 0.2197107
v -0.3530947 -0.01415253 0.3379765
v -0.4219882 2.439086 -0.3948981
v -0.2411359 2.170902 -0.2343095
v 0.188694 2.170902 -0.2343095
v 0.3658638 2.438236 -0.3977566
v 0.188694 2.170902 0.2197107
v 0.3651263 2.486053 0.3920434
v 0.3658638 2.438236 -0.3977566
v 0.188694 2.170902 -0.2343095
v -0.2411359 2.170902 0.2197107
v -0.4211439 2.48694 0.3886305
v 0.3651263 2.486053 0.3920434
v 0.188694 2.170902 0.2197107
v -0.2411359 2.170902 -0.2343095
v -0.4219882 2.439086 -0.3948981
v -0.4211439 2.48694 0.3886305
v -0.2411359 2.170902 0.2197107
v 0.987395 2.429555 -1.525595
v 0.8347054 2.422863 -1.268438
v 0.8327726 2.589531 1.266698
v 0.9849994 2.636824 1.519276
v -0.8194339 2.588825 1.269419
v -0.9729424 2.635946 1.522659
v -0.8212954 2.422165 -1.270783
v -0.9752566 2.428686 -1.528514
v 0.8347054 2.422863 -1.268438
v 0.7136777 2.241641 -1.072343
v 0.7120807 2.401545 1.072117
v 0.8327726 2.589531 1.266698
v 0.8327726 2.589531 1.266698
v 0.7120807 2.401545 1.072117
v -0.6980909 2.400866 1.074366
v -0.8194339 2.588825 1.269419
v -0.8194339 2.588825 1.269419
v -0.6980909 2.400866 1.074366
v -0.6996219 2.240971 -1.07428
v -0.8212954 2.422165 -1.270783
v -0.8212954 2.422165 -1.270783
v -0.6996219 2.240971 -1.07428
v 0.7136777 2.241641 -1.072343
v 0.8347054 2.422863 -1.268438
v -0.7807274 4.424997 1.206776
v -0.8629875 4.107855 0.8060754
v -0.8648186 3.967525 -0.8121853
v -0.7824821 4.215324 -1.2075
v -0.9615085 2.633566 -1.28092
v -0.9752566 2.428686 -1.528514
v -0.9739901 2.828325 1.176406
v -0.9729424 2.635946 1.522659
v 0.987395 2.429555 -1.525595
v 0.808328 2.596215 -1.537914
v -0.7961896 2.595504 -1.540772
v -0.9752566 2.428686 -1.528514
v 0.7961261 4.214849 -1.205292
v 0.644769 3.901014 -1.269252
v -0.7824821 4.215324 -1.2075
v -0.631588 4.067108 -1.271531
v -0.9752566 2.428686 -1.528514
v -0.7961896 2.595504 -1.540772
v -0.631588 4.067108 -1.271531
v -0.7824821 4.215324 -1.2075
v -0.7807274 4.424997 1.206776
v -0.6669019 4.419775 1.02483
v 0.6810188 4.419263 1.022694
v 0.7943051 4.424367 1.204208
v 0.6825345 4.24275 -1.022777
v 0.7961261 4.214849 -1.205292
v -0.6683566 4.243154 -1.024608
v -0.7824821 4.215324 -1.2075
v 0.9849994 2.636824 1.519276
v 1.013899 2.803632 1.174891
v 1.016229 2.679503 -1.182486
v 0.987395 2.429555 -1.525595
v 0.8145078 4.06367 -0.8835812
v 0.7961261 4.214849 -1.205292
v 0.8576088 4.220108 0.9211318
v 0.7943051 4.424367 1.204208
v -0.9729424 2.635946 1.522659
v -0.7914594 2.77661 1.518091
v 0.8074939 2.784148 1.538614
v 0.9849994 2.636824 1.519276
v 0.6442197 4.259242 1.272674
v 0.7943051 4.424367 1.204208
v -0.6310997 4.259767 1.275319
v -0.7807274 4.424997 1.206776
v -1.316331 2.818657 -1.060629
v -1.116573 3.898963 -0.6630611
v -1.113949 4.038157 0.6491845
v -1.316331 2.818657 -1.060629
v -1.113949 4.038157 0.6491845
v -1.332994 2.973311 0.9514103
v -0.9615085 2.633566 -1.28092
v -1.316331 2.818657 -1.060629
v -1.332994 2.973311 0.9514103
v -0.9739901 2.828325 1.176406
v -0.9739901 2.828325 1.176406
v -1.332994 2.973311 0.9514103
v -1.113949 4.038157 0.6491845
v -0.8629875 4.107855 0.8060703
v -0.8629875 4.107855 0.8060703
v -1.113949 4.038157 0.6491845
v -1.116573 3.898963 -0.6630611
v -0.8648186 3.967525 -0.8121853
v -0.8648186 3.967525 -0.8121853
v -1.116573 3.898963 -0.6630611
v -1.316331 2.818657 -1.060629
v -0.9615085 2.633566 -1.28092
v 1.334237 2.840355 0.9617608
v 1.159438 3.933989 0.634882
v 1.075342 4.004743 -0.7116502
v 1.334237 2.840355 0.9617608
v 1.075342 4.004743 -0.7116502
v 1.231698 2.739742 -0.9696865
v 1.013899 2.803632 1.174891
v 1.334237 2.840355 0.9617608
v 1.231698 2.739742 -0.9696865
v 1.016229 2.679503 -1.182486
v 1.016229 2.679503 -1.182486
v 1.231698 2.739742 -0.9696865
v 1.075342 4.004743 -0.7116502
v 0.8145078 4.06367 -0.8835812
v 0.8145078 4.06367 -0.8835812
v 1.075342 4.004743 -0.7116502
v 1.159438 3.933989 0.634882
v 0.8145078 4.06367 -0.8835812
v 1.159438 3.933989 0.634882
v 0.8576088 4.220108 0.9211318
v 0.8576088 4.220108 0.9211318
v 1.159438 3.933989 0.634882
v 1.334237 2.840355 0.9617608
v 0.8576088 4.220108 0.9211318
v 1.334237 2.840355 0.9617608
v 1.013899 2.803632 1.174891
v 0.703851 2.663751 -1.789765
v 0.4359779 3.707584 -1.533173
v -0.3763033 3.875603 -1.551931
v -0.6858482 2.747986 -1.844427
v 0.808328 2.596215 -1.537914
v 0.703851 2.663751 -1.789765
v -0.6858482 2.747986 -1.844427
v -0.7961896 2.595504 -1.540772
v -0.7961896 2.595504 -1.540772
v -0.6858482 2.747986 -1.844427
v -0.3763033 3.875603 -1.551931
v -0.631588 4.067108 -1.271531
v -0.631588 4.067108 -1.271531
v -0.3763033 3.875603 -1.551931
v 0.4359779 3.707584 -1.533173
v 0.644769 3.901014 -1.269252
v 0.644769 3.901014 -1.269252
v 0.4359779 3.707584 -1.533173
v 0.703851 2.663751 -1.789765
v 0.808328 2.596215 -1.537914
v -0.641084 2.924969 1.853062
v -0.4146487 4.05105 1.578028
v 0.4689623 4.146337 1.579971
v -0.641084 2.924969 1.853062
v 0.4689623 4.146337 1.579971
v 0.6325162 2.951697 1.834152
v -0.7914594 2.77661 1.518091
v -0.641084 2.924969 1.853062
v 0.6325162 2.951697 1.834152
v 0.8074939 2.784148 1.538614
v 0.8074939 2.784148 1.538614
v 0.6325162 2.951697 1.834152
v 0.4689623 4.146337 1.579971
v 0.6442197 4.259242 1.272674
v 0.6442197 4.259242 1.272674
v 0.4689623 4.146337 1.579971
v -0.4146487 4.05105 1.578028
v -0.6310997 4.259767 1.275319
v -0.6310997 4.259767 1.275319
v -0.4146487 4.05105 1.578028
v -0.641084 2.924969 1.853062
v -0.6310997 4.259767 1.275319
v -0.641084 2.924969 1.853062
v -0.7914594 2.77661 1.518091
v -0.4471804 4.666392 0.6950321
v -0.4446017 4.492073 -0.7888801
v 0.4581693 4.503034 -0.8843797
v 0.5091896 4.627673 0.7090346
v -0.6669019 4.419775 1.02483
v -0.4471804 4.666392 0.6950321
v 0.5091896 4.627673 0.7090346
v 0.6810188 4.419263 1.022694
v 0.6810188 4.419263 1.022694
v 0.5091896 4.627673 0.7090346
v 0.4581693 4.503034 -0.8843797
v 0.6825345 4.24275 -1.022777
v 0.6825345 4.24275 -1.022777
v 0.4581693 4.503034 -0.8843797
v -0.4446017 4.492073 -0.7888801
v -0.6683566 4.243154 -1.024608
v -0.6683566 4.243154 -1.024608
v -0.4446017 4.492073 -0.7888801
v -0.4471804 4.666392 0.6950321
v -0.6669019 4.419775 1.02483

vn 0 0 1
vn 0 0 1
vn 0 0 1
vn 0 0 1
vn 0 0 -1
vn 0 0 -1
vn 0 0 -1
vn 0 0 -1
vn 1 0 0
vn 1 0 0
vn 1 0 0
vn 1 0 0
vn -1 0 0
vn -1 0 0
vn -1 0 0
vn -1 0 0
vn 0.0004842289 -0.9972368 0.07428578
vn 0.0004842289 -0.9972368 0.07428579
vn 0.0004842289 -0.9972368 0.07428578
vn 0.0004842289 -0.9972368 0.07428578
vn 0 0.2236619 0.9746668
vn 0 0.223662 0.9746668
vn 0 0.223662 0.9746668
vn 0 0.2236619 0.9746668
vn 0.9772055 0.2122959 0
vn 0.9772055 0.2122959 0
vn 0.9772055 0.2122959 0
vn 0.9772055 0.2122959 0
vn 0 0.2236619 -0.9746668
vn 0 0.2236619 -0.9746668
vn 0 0.2236619 -0.9746668
vn 0 0.2236619 -0.9746668
vn -0.9772058 0.2122942 0
vn -0.9772058 0.2122942 0
vn -0.9772058 0.2122942 0
vn -0.9772058 0.2122942 0
vn -0.002371107 -0.5177086 -0.8555537
vn -0.002371107 -0.5177085 -0.8555537
vn -0.002371107 -0.5177085 -0.8555537
vn -0.002371107 -0.5177085 -0.8555537
vn 0.8545029 -0.5190434 0.02046411
vn 0.8545029 -0.5190433 0.02046411
vn 0.8545029 -0.5190434 0.02046411
vn 0.8545029 -0.5190434 0.02046411
vn -0.002817742 -0.4756001 0.8796571
vn -0.002817742 -0.4756001 0.8796571
vn -0.002817742 -0.4756001 0.8796571
vn -0.002817742 -0.4756001 0.8796571
vn -0.8504662 -0.5256143 0.02090242
vn -0.8504661 -0.5256144 0.02090242
vn -0.8504662 -0.5256143 0.02090242
vn -0.8504661 -0.5256144 0.02090242
vn 0.05778273 -0.9983197 0.004334036
vn 0.09414602 -0.9952829 0.02341826
vn 0.09440635 -0.9881151 0.1213093
vn 0.05842668 -0.9876358 0.1454712
vn -0.09264517 -0.9883128 0.1210573
vn -0.05737104 -0.9877799 0.144912
vn -0.09263854 -0.9954224 0.02350062
vn -0.05709576 -0.9983576 0.004702627
vn 0.8360826 -0.5472285 0.03881902
vn 0.8360825 -0.5472286 0.03881901
vn 0.8360825 -0.5472285 0.03881901
vn 0.8360825 -0.5472285 0.03881901
vn 0.001452702 -0.7196338 0.6943523
vn 0.001452702 -0.7196337 0.6943523
vn 0.001452702 -0.7196337 0.6943523
vn 0.001452702 -0.7196338 0.6943523
vn -0.8346952 -0.5493394 0.03886241
vn -0.8346951 -0.5493394 0.03886241
vn -0.8346952 -0.5493394 0.03886241
vn -0.8346952 -0.5493394 0.03886241
vn 0.001273484 -0.7347857 -0.6782981
vn 0.001273484 -0.7347857 -0.6782981
vn 0.001273484 -0.7347857 -0.6782981
vn 0.001273484 -0.7347857 -0.6782981
vn -0.9830003 0.176649 0.05005439
vn -0.9773966 0.2097046 0.02683154
vn -0.9746899 0.2173268 -0.05242817
vn -0.9809803 0.1815504 -0.06868061
vn -0.9961009 0.07278566 -0.04985248
vn -0.9958531 0.07469226 -0.05194019
vn -0.9962853 0.0744949 0.04319756
vn -0.9947906 0.08562714 0.05531521
vn 0.06626876 0.05857763 -0.9960808
vn 0.06666792 0.05939864 -0.9960056
vn -0.1133371 0.05925471 -0.9917881
vn -0.1127046 0.05851833 -0.9919038
vn 0.05027219 0.2486639 -0.9672843
vn 0.0790211 0.2325453 -0.9693701
vn -0.1002024 0.2365415 -0.9664406
vn -0.09077567 0.2391243 -0.9667364
vn -0.1127046 0.05851833 -0.9919038
vn -0.1133371 0.05925471 -0.9917881
vn -0.09077567 0.2391243 -0.9667364
vn -0.1002024 0.2365415 -0.9664406
vn -0.03407356 0.9982412 -0.04851428
vn -0.05272677 0.9968412 -0.05939423
vn 0.05361518 0.9967942 -0.05938658
vn 0.03467727 0.9982267 -0.04838436
vn 0.05337054 0.991784 -0.1162588
vn 0.03395663 0.9910625 -0.1290042
vn -0.05233815 0.9918532 -0.116138
vn -0.03314147 0.9911179 -0.1287902
vn 0.9954926 0.03057866 0.08977459
vn 0.9976562 -0.02228393 0.06469528
vn 0.9992616 -0.009930841 -0.03711881
vn 0.9987348 0.01766548 -0.04708169
vn 0.9814886 0.1823368 -0.0585935
vn 0.9843217 0.1589438 -0.07647093
vn 0.982897 0.1753354 0.05631232
vn 0.9835248 0.1560664 0.0912262
vn -0.1029165 0.08514348 0.9910392
vn -0.09126527 0.0688889 0.993441
vn 0.1249975 0.07680825 0.9891795
vn 0.137178 0.08890855 0.9865482
vn 0.1318696 0.2870058 0.9488087
vn 0.127604 0.2903231 0.9483827
vn -0.09185896 0.2799801 0.9556009
vn -0.08854979 0.2837551 0.9547994
vn -0.9810733 0.1924779 -0.02115667
vn -0.9810733 0.1924778 -0.02115666
vn -0.9810733 0.1924778 -0.02115666
vn -0.9810733 0.1924779 -0.02115667
vn -0.9810733 0.1924778 -0.02115666
vn -0.9810733 0.1924778 -0.02115666
vn -0.4190997 -0.9053864 0.06805005
vn -0.4190997 -0.9053864 0.06805005
vn -0.4190998 -0.9053864 0.06805006
vn -0.4190998 -0.9053864 0.06805006
vn -0.4783694 0.3037254 0.8239622
vn -0.4783694 0.3037253 0.8239622
vn -0.4783694 0.3037253 0.8239622
vn -0.4783694 0.3037253 0.8239622
vn -0.2627666 0.9605376 -0.09122064
vn -0.2627666 0.9605376 -0.09122064
vn -0.2627665 0.9605376 -0.09122063
vn -0.2627665 0.9605376 -0.09122063
vn -0.4369941 0.3508433 -0.828218
vn -0.4369941 0.3508433 -0.828218
vn -0.4369941 0.3508433 -0.828218
vn -0.4369941 0.3508433 -0.828218
vn 0.9888757 0.1371597 -0.05755104
vn 0.9888757 0.1371597 -0.05755104
vn 0.9888757 0.1371597 -0.05755103
vn 0.9888757 0.1371597 -0.05755104
vn 0.9888757 0.1371597 -0.05755103
vn 0.9888757 0.1371597 -0.05755104
vn 0.1779004 -0.9829087 0.04734949
vn 0.1779003 -0.9829087 0.04734948
vn 0.1779004 -0.9829087 0.04734949
vn 0.1779004 -0.9829087 0.04734949
vn 0.6094092 0.2411592 -0.7552899
vn 0.6094092 0.2411592 -0.7552898
vn 0.6094092 0.2411592 -0.7552898
vn 0.6094092 0.2411592 -0.7552898
vn 0.5157343 0.8556138 -0.04408168
vn 0.5157343 0.8556138 -0.04408167
vn 0.5157343 0.8556138 -0.04408168
vn 0.5157343 0.8556138 -0.04408168
vn 0.5157343 0.8556138 -0.04408168
vn 0.5157343 0.8556138 -0.04408168
vn 0.6650811 0.2504644 0.703516
vn 0.6650811 0.2504645 0.703516
vn 0.665081 0.2504644 0.703516
vn 0.6650811 0.2504644 0.703516
vn 0.665081 0.2504644 0.703516
vn 0.665081 0.2504644 0.7035161
vn 0.06018341 0.2436222 -0.9680011
vn 0.06018341 0.2436222 -0.9680011
vn 0.0601834 0.2436222 -0.9680011
vn 0.06018341 0.2436222 -0.9680011
vn -0.01885219 -0.9294997 -0.368341
vn -0.01885219 -0.9294997 -0.368341
vn -0.01885219 -0.9294996 -0.368341
vn -0.01885219 -0.9294997 -0.368341
vn -0.8102446 0.2611943 -0.5246726
vn -0.8102447 0.2611943 -0.5246725
vn -0.8102446 0.2611943 -0.5246725
vn -0.8102446 0.2611943 -0.5246726
vn 0.1359467 0.814324 -0.5642651
vn 0.1359467 0.814324 -0.5642651
vn 0.1359467 0.8143239 -0.564265
vn 0.1359467 0.814324 -0.5642651
vn 0.7930097 0.2680228 -0.5470826
vn 0.7930097 0.2680228 -0.5470826
vn 0.7930098 0.2680228 -0.5470825
vn 0.7930098 0.2680228 -0.5470826
vn -0.004914239 0.222457 0.9749302
vn -0.004914239 0.222457 0.9749302
vn -0.004914239 0.222457 0.97493
vn -0.004914239 0.222457 0.9749302
vn -0.004914239 0.222457 0.97493
vn -0.004914238 0.222457 0.97493
vn 0.0104116 -0.8938461 0.4482531
vn 0.0104116 -0.8938461 0.4482531
vn 0.0104116 -0.8938461 0.4482531
vn 0.0104116 -0.8938461 0.4482531
vn 0.8552345 0.1980018 0.478925
vn 0.8552345 0.1980018 0.478925
vn 0.8552345 0.1980018 0.478925
vn 0.8552345 0.1980018 0.478925
vn -0.03860001 0.8828423 0.4680806
vn -0.03860001 0.8828423 0.4680806
vn -0.03860001 0.8828423 0.4680806
vn -0.03860001 0.8828423 0.4680806
vn -0.8356029 0.2234603 0.5018299
vn -0.8356029 0.2234603 0.5018299
vn -0.8356029 0.2234603 0.5018299
vn -0.8356029 0.2234603 0.5018299
vn -0.8356029 0.2234603 0.5018299
vn -0.8356029 0.2234603 0.5018299
vn 0.01061464 0.995242 -0.09685414
vn 0.01061465 0.995242 -0.09685415
vn 0.01061464 0.995242 -0.09685414
vn 0.01061464 0.995242 -0.09685414
vn 0.01091688 0.8160437 0.5778872
vn 0.01091688 0.8160436 0.5778872
vn 0.01091688 0.8160436 0.5778872
vn 0.01091688 0.8160436 0.5778872
vn 0.7736362 0.6305194 -0.06270654
vn 0.7736362 0.6305195 -0.06270654
vn 0.7736363 0.6305194 -0.06270654
vn 0.7736363 0.6305194 -0.06270654
vn -0.0362439 0.5916789 -0.8053586
vn -0.0362439 0.5916789 -0.8053586
vn -0.0362439 0.5916789 -0.8053586
vn -0.0362439 0.5916789 -0.8053586
vn -0.7497165 0.6584955 -0.06564167
vn -0.7497165 0.6584955 -0.06564167
vn -0.7497165 0.6584955 -0.06564166
vn -0.7497165 0.6584955 -0.06564168

vt 0.2946777 0.3974609
vt 0.2946777 0.3996582
vt 0.2961426 0.3996582
vt 0.2961426 0.3974609
vt 0.2907715 0.3952637
vt 0.2907715 0.3974609
vt 0.2922363 0.3974609
vt 0.2922363 0.3952637
vt 0.3913574 0.3981934
vt 0.3913574 0.4003906
vt 0.3925781 0.4003906
vt 0.3925781 0.3981934
vt 0.3879395 0.3979492
vt 0.3879395 0.4001465
vt 0.3891602 0.4001465
vt 0.3891602 0.3979492
vt 0.2342529 0.1516113
vt 0.2312012 0.1516113
vt 0.2312012 0.15625
vt 0.2342529 0.15625
vt 0.2946777 0.3933105
vt 0.2946777 0.3974609
vt 0.2961426 0.3974609
vt 0.2961426 0.3933105
vt 0.3913574 0.3937988
vt 0.3913574 0.3981934
vt 0.3925781 0.3981934
vt 0.3925781 0.3937988
vt 0.2907715 0.3974609
vt 0.2907715 0.4016113
vt 0.2922363 0.4016113
vt 0.2922363 0.3974609
vt 0.3879395 0.3935547
vt 0.3879395 0.3979492
vt 0.3891602 0.3979492
vt 0.3891602 0.3935547
vt 0.2907715 0.3933105
vt 0.2907715 0.3952637
vt 0.2922363 0.3952637
vt 0.2922363 0.3933105
vt 0.3913574 0.4003906
vt 0.3913574 0.4025879
vt 0.3925781 0.4025879
vt 0.3925781 0.4003906
vt 0.2946777 0.3996582
vt 0.2946777 0.4016113
vt 0.2961426 0.4016113
vt 0.2961426 0.3996582
vt 0.3879395 0.4001465
vt 0.3879395 0.4023438
vt 0.3891602 0.4023438
vt 0.3891602 0.4001465
vt 0.2348633 0.1506348
vt 0.2344971 0.1512451
vt 0.2344971 0.1567383
vt 0.2348633 0.1572266
vt 0.230957 0.1567383
vt 0.2305908 0.1572266
vt 0.230957 0.1512451
vt 0.2305908 0.1506348
vt 0.3613281 0.1497803
vt 0.3613281 0.1499023
vt 0.3613281 0.1514893
vt 0.3613281 0.1516113
vt 0.420166 0.1518555
vt 0.420166 0.1518555
vt 0.4194336 0.1518555
vt 0.4191895 0.1518555
vt 0.3601074 0.1516113
vt 0.3601074 0.1514893
vt 0.3601074 0.1499023
vt 0.3601074 0.1497803
vt 0.4191895 0.1552734
vt 0.4194336 0.1552734
vt 0.420166 0.1552734
vt 0.420166 0.1552734
vt 0.3588867 0.1566162
vt 0.3586426 0.1563721
vt 0.3574219 0.1563721
vt 0.3571777 0.1564941
vt 0.3571777 0.1552734
vt 0.3569336 0.1551514
vt 0.3588867 0.1555176
vt 0.3591309 0.1552734
vt 0.4204102 0.1552734
vt 0.420166 0.1551514
vt 0.4191895 0.1551514
vt 0.4191895 0.1552734
vt 0.420166 0.1544189
vt 0.420166 0.154541
vt 0.4191895 0.1544189
vt 0.4194336 0.154541
vt 0.4191895 0.1552734
vt 0.4191895 0.1551514
vt 0.4194336 0.154541
vt 0.4191895 0.1544189
vt 0.4833984 0.1546631
vt 0.4833984 0.1544189
vt 0.4814453 0.1544189
vt 0.4814453 0.1546631
vt 0.4814453 0.1517334
vt 0.4814453 0.1514893
vt 0.4833984 0.1517334
vt 0.4833984 0.1514893
vt 0.3623047 0.1552734
vt 0.3625488 0.1553955
vt 0.3642578 0.1553955
vt 0.364502 0.1551514
vt 0.3640137 0.1563721
vt 0.3642578 0.1564941
vt 0.362793 0.1564941
vt 0.3625488 0.1566162
vt 0.4191895 0.1541748
vt 0.4191895 0.1541748
vt 0.420166 0.1542969
vt 0.4204102 0.1541748
vt 0.420166 0.1549072
vt 0.420166 0.1550293
vt 0.4194336 0.1549072
vt 0.4191895 0.1550293
vt 0.3571777 0.1555176
vt 0.3574219 0.15625
vt 0.3583984 0.1563721
vt 0.3571777 0.1555176
vt 0.3583984 0.1563721
vt 0.3586426 0.1555176
vt 0.2305908 0.151123
vt 0.2298584 0.1516113
vt 0.2298584 0.1560059
vt 0.2305908 0.1564941
vt 0.4191895 0.1542969
vt 0.4189453 0.1542969
vt 0.4189453 0.1547852
vt 0.4191895 0.1547852
vt 0.4836426 0.1540527
vt 0.4841309 0.1539307
vt 0.4841309 0.1522217
vt 0.4836426 0.1519775
vt 0.4191895 0.154541
vt 0.4189453 0.154541
vt 0.4189453 0.1550293
vt 0.4191895 0.1551514
vt 0.3586426 0.4177246
vt 0.3586426 0.4255371
vt 0.359375 0.4255371
vt 0.3586426 0.4177246
vt 0.359375 0.4255371
vt 0.359375 0.4177246
vt 0.2348633 0.1564941
vt 0.2355957 0.1560059
vt 0.2353516 0.1518555
vt 0.2348633 0.1513672
vt 0.4204102 0.1551514
vt 0.4204102 0.1551514
vt 0.4204102 0.154541
vt 0.420166 0.154541
vt 0.4814453 0.1518555
vt 0.480957 0.1520996
vt 0.480957 0.1538086
vt 0.4814453 0.1518555
vt 0.480957 0.1538086
vt 0.4814453 0.1541748
vt 0.4211426 0.1549072
vt 0.4213867 0.1547852
vt 0.4211426 0.1542969
vt 0.4211426 0.1549072
vt 0.4211426 0.1542969
vt 0.4211426 0.1542969
vt 0.420166 0.1551514
vt 0.4199219 0.154541
vt 0.4194336 0.154541
vt 0.4194336 0.1551514
vt 0.2344971 0.1506348
vt 0.2342529 0.1500244
vt 0.2312012 0.1499023
vt 0.230957 0.1506348
vt 0.3569336 0.1552734
vt 0.3566895 0.1553955
vt 0.3569336 0.1563721
vt 0.3571777 0.1563721
vt 0.4831543 0.1513672
vt 0.4829102 0.151001
vt 0.4819336 0.151001
vt 0.4816895 0.1513672
vt 0.3613281 0.1558838
vt 0.361084 0.1560059
vt 0.3613281 0.1568604
vt 0.3613281 0.1569824
vt 0.4194336 0.1542969
vt 0.4194336 0.1547852
vt 0.4199219 0.1549072
vt 0.4194336 0.1542969
vt 0.4199219 0.1549072
vt 0.420166 0.1542969
vt 0.230957 0.1572266
vt 0.2313232 0.157959
vt 0.2341309 0.157959
vt 0.2344971 0.1572266
vt 0.3623047 0.1553955
vt 0.3620605 0.1555176
vt 0.3623047 0.1564941
vt 0.3625488 0.1564941
vt 0.4816895 0.1546631
vt 0.4819336 0.1551514
vt 0.4829102 0.1551514
vt 0.4831543 0.1546631
vt 0.3588867 0.1564941
vt 0.3591309 0.1563721
vt 0.359375 0.1555176
vt 0.3588867 0.1564941
vt 0.359375 0.1555176
vt 0.3591309 0.1553955
vt 0.4829102 0.1539307
vt 0.4829102 0.1519775
vt 0.4819336 0.1518555
vt 0.4816895 0.1539307
vt 0.4194336 0.1541748
vt 0.4194336 0.1542969
vt 0.4199219 0.1542969
vt 0.420166 0.1541748
vt 0.3613281 0.1552734
vt 0.361084 0.1555176
vt 0.361084 0.1567383
vt 0.3613281 0.1568604
vt 0.420166 0.1544189
vt 0.4199219 0.1542969
vt 0.4194336 0.1542969
vt 0.4194336 0.1544189
vt 0.3571777 0.1564941
vt 0.3574219 0.1567383
vt 0.3586426 0.1568604
vt 0.3588867 0.1566162

g Prop_Tree_01_3758_229
usemtl Prop_Tree_01_3758_229
usemap Prop_Tree_01_3758_229
f 1/1/1 3/3/3 2/2/2
f 1/1/1 4/4/4 3/3/3
f 5/5/5 7/7/7 6/6/6
f 5/5/5 8/8/8 7/7/7
f 9/9/9 11/11/11 10/10/10
f 9/9/9 12/12/12 11/11/11
f 13/13/13 15/15/15 14/14/14
f 13/13/13 16/16/16 15/15/15
f 17/17/17 19/19/19 18/18/18
f 17/17/17 20/20/20 19/19/19
f 21/21/21 23/23/23 22/22/22
f 21/21/21 24/24/24 23/23/23
f 25/25/25 27/27/27 26/26/26
f 25/25/25 28/28/28 27/27/27
f 29/29/29 31/31/31 30/30/30
f 29/29/29 32/32/32 31/31/31
f 33/33/33 35/35/35 34/34/34
f 33/33/33 36/36/36 35/35/35
f 37/37/37 39/39/39 38/38/38
f 37/37/37 40/40/40 39/39/39
f 41/41/41 43/43/43 42/42/42
f 41/41/41 44/44/44 43/43/43
f 45/45/45 47/47/47 46/46/46
f 45/45/45 48/48/48 47/47/47
f 49/49/49 51/51/51 50/50/50
f 49/49/49 52/52/52 51/51/51
f 53/53/53 55/55/55 54/54/54
f 53/53/53 56/56/56 55/55/55
f 56/56/56 57/57/57 55/55/55
f 56/56/56 58/58/58 57/57/57
f 58/58/58 59/59/59 57/57/57
f 58/58/58 60/60/60 59/59/59
f 60/60/60 54/54/54 59/59/59
f 60/60/60 53/53/53 54/54/54
f 61/61/61 63/63/63 62/62/62
f 61/61/61 64/64/64 63/63/63
f 65/65/65 67/67/67 66/66/66
f 65/65/65 68/68/68 67/67/67
f 69/69/69 71/71/71 70/70/70
f 69/69/69 72/72/72 71/71/71
f 73/73/73 75/75/75 74/74/74
f 73/73/73 76/76/76 75/75/75
f 77/77/77 79/79/79 78/78/78
f 77/77/77 80/80/80 79/79/79
f 80/80/80 81/81/81 79/79/79
f 80/80/80 82/82/82 81/81/81
f 82/82/82 83/83/83 81/81/81
f 82/82/82 84/84/84 83/83/83
f 84/84/84 78/78/78 83/83/83
f 84/84/84 77/77/77 78/78/78
f 85/85/85 87/87/87 86/86/86
f 85/85/85 88/88/88 87/87/87
f 89/89/89 85/85/85 86/86/86
f 89/89/89 86/86/86 90/90/90
f 91/91/91 89/89/89 90/90/90
f 91/91/91 90/90/90 92/92/92
f 93/93/93 95/95/95 94/94/94
f 93/93/93 96/96/96 95/95/95
f 97/97/97 99/99/99 98/98/98
f 97/97/97 100/100/100 99/99/99
f 100/100/100 101/101/101 99/99/99
f 100/100/100 102/102/102 101/101/101
f 102/102/102 103/103/103 101/101/101
f 102/102/102 104/104/104 103/103/103
f 104/104/104 98/98/98 103/103/103
f 104/104/104 97/97/97 98/98/98
f 105/105/105 107/107/107 106/106/106
f 105/105/105 108/108/108 107/107/107
f 108/108/108 109/109/109 107/107/107
f 108/108/108 110/110/110 109/109/109
f 110/110/110 111/111/111 109/109/109
f 110/110/110 112/112/112 111/111/111
f 112/112/112 106/106/106 111/111/111
f 112/112/112 105/105/105 106/106/106
f 113/113/113 115/115/115 114/114/114
f 113/113/113 116/116/116 115/115/115
f 116/116/116 117/117/117 115/115/115
f 116/116/116 118/118/118 117/117/117
f 118/118/118 119/119/119 117/117/117
f 118/118/118 120/120/120 119/119/119
f 120/120/120 114/114/114 119/119/119
f 120/120/120 113/113/113 114/114/114
f 121/121/121 123/123/123 122/122/122
f 124/124/124 126/126/126 125/125/125
f 127/127/127 129/129/129 128/128/128
f 127/127/127 130/130/130 129/129/129
f 131/131/131 133/133/133 132/132/132
f 131/131/131 134/134/134 133/133/133
f 135/135/135 137/137/137 136/136/136
f 135/135/135 138/138/138 137/137/137
f 139/139/139 141/141/141 140/140/140
f 139/139/139 142/142/142 141/141/141
f 143/143/143 145/145/145 144/144/144
f 146/146/146 148/148/148 147/147/147
f 149/149/149 151/151/151 150/150/150
f 149/149/149 152/152/152 151/151/151
f 153/153/153 155/155/155 154/154/154
f 153/153/153 156/156/156 155/155/155
f 157/157/157 159/159/159 158/158/158
f 160/160/160 162/162/162 161/161/161
f 163/163/163 165/165/165 164/164/164
f 166/166/166 168/168/168 167/167/167
f 169/169/169 171/171/171 170/170/170
f 169/169/169 172/172/172 171/171/171
f 173/173/173 175/175/175 174/174/174
f 173/173/173 176/176/176 175/175/175
f 177/177/177 179/179/179 178/178/178
f 177/177/177 180/180/180 179/179/179
f 181/181/181 183/183/183 182/182/182
f 181/181/181 184/184/184 183/183/183
f 185/185/185 187/187/187 186/186/186
f 185/185/185 188/188/188 187/187/187
f 189/189/189 191/191/191 190/190/190
f 192/192/192 194/194/194 193/193/193
f 195/195/195 197/197/197 196/196/196
f 195/195/195 198/198/198 197/197/197
f 199/199/199 201/201/201 200/200/200
f 199/199/199 202/202/202 201/201/201
f 203/203/203 205/205/205 204/204/204
f 203/203/203 206/206/206 205/205/205
f 207/207/207 209/209/209 208/208/208
f 210/210/210 212/212/212 211/211/211
f 213/213/213 215/215/215 214/214/214
f 213/213/213 216/216/216 215/215/215
f 217/217/217 219/219/219 218/218/218
f 217/217/217 220/220/220 219/219/219
f 221/221/221 223/223/223 222/222/222
f 221/221/221 224/224/224 223/223/223
f 225/225/225 227/227/227 226/226/226
f 225/225/225 228/228/228 227/227/227
f 229/229/229 231/231/231 230/230/230
f 229/229/229 232/232/232 231/231/231
