#Prop_Plate_01_998_170.obj

v -0.279483 0.04766107 -0.2794829
v -0.279483 0.07975364 -0.2794829
v -0.279483 0.07975364 0.2794831
v -0.279483 0.04766107 0.2794831
v -0.157563 0.04070287 -0.1575629
v 0.1575631 0.04070287 -0.1575629
v 0.1575631 0.04070287 0.1575631
v -0.157563 0.04070287 0.1575631
v 0.2794831 0.07975364 -0.2794829
v 0.2794831 0.04766107 -0.2794829
v 0.2794831 0.04766107 0.2794831
v 0.2794831 0.07975364 0.2794831
v 0.1459527 -4.768372E-08 -0.1459552
v -0.1459526 -4.768372E-08 -0.1459552
v -0.1459526 -4.768372E-08 0.1459554
v 0.1459527 -4.768372E-08 0.1459554
v 0.2794831 0.04766107 -0.2794829
v 0.2794831 0.04766107 0.2794831
v -0.279483 0.04766107 0.2794831
v -0.279483 0.04766107 -0.2794829
v -0.279483 0.04766107 0.2794831
v -0.279483 0.07975364 0.2794831
v 0.2794831 0.07975364 0.2794831
v 0.2794831 0.04766107 0.2794831
v 0.2794831 0.04766107 -0.2794829
v 0.2794831 0.07975364 -0.2794829
v -0.279483 0.07975364 -0.2794829
v -0.279483 0.04766107 -0.2794829
v -0.279483 0.07975364 -0.2794829
v -0.157563 0.04070287 -0.1575629
v -0.157563 0.04070287 0.1575631
v -0.279483 0.07975364 0.2794831
v 0.1575631 0.04070287 0.1575631
v 0.2794831 0.07975364 0.2794831
v 0.1575631 0.04070287 -0.1575629
v 0.2794831 0.07975364 -0.2794829
v -0.1566551 0.06035209 -0.1543559
v -0.1566551 0.06035209 0.1551652
v -0.1566551 0.04070287 0.1551652
v -0.1566551 0.04070287 -0.1543559
v -0.1566551 0.06035209 -0.1543559
v 0.1612668 0.06035209 -0.1543559
v 0.1612668 0.06035209 0.1551652
v -0.1566551 0.06035209 0.1551652
v 0.1612668 0.04070287 -0.1543559
v 0.1612668 0.04070287 0.1551652
v 0.1612668 0.06035209 0.1551652
v 0.1612668 0.06035209 -0.1543559
v -0.1566551 0.04070287 0.1551652
v 0.1612668 0.04070287 0.1551652
v 0.1612668 0.04070287 -0.1543559
v -0.1566551 0.04070287 -0.1543559
v 0.1612668 0.06035209 0.1551652
v 0.1612668 0.04070287 0.1551652
v -0.1566551 0.04070287 0.1551652
v -0.1566551 0.06035209 0.1551652
v -0.1566551 0.04070287 -0.1543559
v 0.1612668 0.04070287 -0.1543559
v 0.1612668 0.06035209 -0.1543559
v -0.1566551 0.06035209 -0.1543559
v -0.07580676 0.05859761 -0.1336612
v -0.07580676 0.1264717 -0.1336612
v -0.108921 0.1264717 -0.07441016
v -0.108921 0.05859761 -0.07441016
v -0.07580676 0.1264717 -0.1336612
v -0.01655574 0.1264717 -0.1005469
v -0.04966998 0.1264717 -0.04129591
v -0.108921 0.1264717 -0.07441016
v -0.01655574 0.1264717 -0.1005469
v -0.01655574 0.05859761 -0.1005469
v -0.04966998 0.05859761 -0.04129591
v -0.04966998 0.1264717 -0.04129591
v -0.01655574 0.05859761 -0.1005469
v -0.07580676 0.05859761 -0.1336612
v -0.108921 0.05859761 -0.07441016
v -0.04966998 0.05859761 -0.04129591
v -0.108921 0.05859761 -0.07441016
v -0.108921 0.1264717 -0.07441016
v -0.04966998 0.1264717 -0.04129591
v -0.04966998 0.05859761 -0.04129591
v -0.01655574 0.05859761 -0.1005469
v -0.01655574 0.1264717 -0.1005469
v -0.07580676 0.1264717 -0.1336612
v -0.07580676 0.05859761 -0.1336612
v 0.0230206 0.05859761 -0.137234
v 0.0230206 0.1264717 -0.137234
v 0.01855321 0.1264717 -0.008042812
v 0.01855321 0.05859761 -0.008042812
v 0.0230206 0.1264717 -0.137234
v 0.1522118 0.1264717 -0.1327693
v 0.1477471 0.1264717 -0.00357542
v 0.01855321 0.1264717 -0.008042812
v 0.1522118 0.1264717 -0.1327693
v 0.1522118 0.05859761 -0.1327693
v 0.1477471 0.05859761 -0.00357542
v 0.1477471 0.1264717 -0.00357542
v 0.1522118 0.05859761 -0.1327693
v 0.0230206 0.05859761 -0.137234
v 0.01855321 0.05859761 -0.008042812
v 0.1477471 0.05859761 -0.00357542
v 0.01855321 0.05859761 -0.008042812
v 0.01855321 0.1264717 -0.008042812
v 0.1477471 0.1264717 -0.00357542
v 0.1477471 0.05859761 -0.00357542
v 0.1522118 0.05859761 -0.1327693
v 0.1522118 0.1264717 -0.1327693
v 0.0230206 0.1264717 -0.137234
v 0.0230206 0.05859761 -0.137234
v -0.1431701 0.07271781 0.1415227
v -0.1493385 0.07139011 0.05253267
v -0.1481769 0.1321449 0.05154734
v -0.1420032 0.1334724 0.1405374
v -0.1074844 0.05039268 0.02097254
v 0.07832227 0.06569839 0.05322428
v 0.07953725 0.1291345 0.05219088
v -0.1055645 0.1504911 0.01934366
v 0.2152253 0.05817838 0.05298395
v 0.2204964 0.0593122 0.1289804
v 0.2218983 0.13253 0.1277921
v 0.2166272 0.1313961 0.05178766
v 0.08475499 0.06708483 0.146145
v -0.09732394 0.05258022 0.1676194
v -0.09540401 0.1526784 0.1659959
v 0.08597264 0.130521 0.1451196
v -0.1420032 0.1334724 0.1405374
v -0.1431701 0.07271781 0.1415227
v -0.09540401 0.1526784 0.1659959
v -0.1055645 0.1504911 0.01934366
v 0.07953725 0.1291345 0.05219088
v 0.08597264 0.130521 0.1451196
v -0.1481769 0.1321449 0.05154734
v -0.1420032 0.1334724 0.1405374
v 0.08475499 0.06708483 0.146145
v 0.07832227 0.06569839 0.05322428
v -0.1074844 0.05039268 0.02097254
v -0.09732394 0.05258022 0.1676194
v -0.1431701 0.07271781 0.1415227
v -0.1493385 0.07139011 0.05253267
v -0.1055645 0.1504911 0.01934366
v -0.1481769 0.1321449 0.05154734
v -0.1493385 0.07139011 0.05253267
v -0.1074844 0.05039268 0.02097254
v 0.07832227 0.06569839 0.05322428
v 0.08028493 0.07739959 0.07832766
v 0.08106999 0.1181886 0.07766275
v 0.07953725 0.1291345 0.05219088
v 0.08399663 0.1188198 0.1200135
v 0.08597264 0.130521 0.1451196
v 0.08321156 0.07803092 0.1206758
v 0.08475499 0.06708483 0.146145
v 0.08028493 0.07739959 0.07832766
v 0.1512772 0.07593036 0.07153711
v 0.1520596 0.1167194 0.07087488
v 0.08106999 0.1181886 0.07766275
v 0.08106999 0.1181886 0.07766275
v 0.1520596 0.1167194 0.07087488
v 0.1549916 0.1173507 0.113223
v 0.08399663 0.1188198 0.1200135
v 0.08399663 0.1188198 0.1200135
v 0.1549916 0.1173507 0.113223
v 0.1542038 0.07656169 0.1138906
v 0.08321156 0.07803092 0.1206758
v 0.08321156 0.07803092 0.1206758
v 0.1542038 0.07656169 0.1138906
v 0.1512772 0.07593036 0.07153711
v 0.08028493 0.07739959 0.07832766
v 0.1512772 0.07593036 0.07153711
v 0.1860871 0.05873332 0.05278368
v 0.187489 0.1319511 0.0515954
v 0.1520596 0.1167194 0.07087488
v 0.2166272 0.1313961 0.05178766
v 0.2152253 0.05817838 0.05298395
v 0.1520596 0.1167194 0.07087488
v 0.187489 0.1319511 0.0515954
v 0.1927521 0.1330827 0.1276025
v 0.1549916 0.1173507 0.113223
v 0.2218983 0.13253 0.1277921
v 0.2166272 0.1313961 0.05178766
v 0.1549916 0.1173507 0.113223
v 0.1927521 0.1330827 0.1276025
v 0.1913502 0.05986514 0.1287854
v 0.1542038 0.07656169 0.1138906
v 0.2204964 0.0593122 0.1289804
v 0.2218983 0.13253 0.1277921
v 0.1542038 0.07656169 0.1138906
v 0.1913502 0.05986514 0.1287854
v 0.1860871 0.05873332 0.05278368
v 0.1512772 0.07593036 0.07153711
v 0.2152253 0.05817838 0.05298395
v 0.2204964 0.0593122 0.1289804
v -0.1235168 0.05789008 -0.06180372
v -0.1235168 0.1055225 -0.06180372
v -0.1467563 0.1055225 -0.020222
v -0.1467563 0.05789008 -0.020222
v -0.1235168 0.1055225 -0.06180372
v -0.08193507 0.1055225 -0.03856955
v -0.1051719 0.1055225 0.003014851
v -0.1467563 0.1055225 -0.020222
v -0.08193507 0.1055225 -0.03856955
v -0.08193507 0.05789008 -0.03856955
v -0.1051719 0.05789008 0.003014851
v -0.1051719 0.1055225 0.003014851
v -0.08193507 0.05789008 -0.03856955
v -0.1235168 0.05789008 -0.06180372
v -0.1467563 0.05789008 -0.020222
v -0.1051719 0.05789008 0.003014851
v -0.1467563 0.05789008 -0.020222
v -0.1467563 0.1055225 -0.020222
v -0.1051719 0.1055225 0.003014851
v -0.1051719 0.05789008 0.003014851
v -0.08193507 0.05789008 -0.03856955
v -0.08193507 0.1055225 -0.03856955
v -0.1235168 0.1055225 -0.06180372
v -0.1235168 0.05789008 -0.06180372

vn -1 0 0
vn -1 0 0
vn -1 0 0
vn -1 0 0
vn 0.1038751 0.9891511 0.1038751
vn -0.1038751 0.9891511 0.1038751
vn -0.1038751 0.9891511 -0.1038751
vn 0.1038751 0.9891511 -0.1038751
vn 1 0 0
vn 1 0 0
vn 1 0 0
vn 1 0 0
vn 0.1150232 -0.9866807 -0.1150253
vn -0.1150232 -0.9866807 -0.1150253
vn -0.1150232 -0.9866807 0.1150253
vn 0.1150232 -0.9866807 0.1150253
vn 0.1730393 -0.9695947 -0.1730424
vn 0.1730393 -0.9695947 0.1730424
vn -0.1730393 -0.9695947 0.1730424
vn -0.1730393 -0.9695947 -0.1730424
vn 0 0 1
vn 0 0 1
vn 0 0 1
vn 0 0 1
vn 0 0 -1
vn 0 0 -1
vn 0 0 -1
vn 0 0 -1
vn 0.1561933 0.9752985 0.1561933
vn 0.1038751 0.9891511 0.1038751
vn 0.1038751 0.9891511 -0.1038751
vn 0.1561933 0.9752985 -0.1561933
vn -0.1038751 0.9891511 -0.1038751
vn -0.1561933 0.9752985 -0.1561933
vn -0.1038751 0.9891511 0.1038751
vn -0.1561933 0.9752985 0.1561933
vn -1 0 0
vn -1 0 0
vn -1 0 0
vn -1 0 0
vn 0 1 0
vn 0 1 0
vn 0 1 0
vn 0 1 0
vn 1 0 0
vn 1 0 0
vn 1 0 0
vn 1 0 0
vn 0 -1 0
vn 0 -1 0
vn 0 -1 0
vn 0 -1 0
vn 0 0 1
vn 0 0 1
vn 0 0 1
vn 0 0 1
vn 0 0 -1
vn 0 0 -1
vn 0 0 -1
vn 0 0 -1
vn -0.8729222 0 -0.4878593
vn -0.8729222 0 -0.4878593
vn -0.8729222 0 -0.4878593
vn -0.8729222 0 -0.4878593
vn 0 1 0
vn 0 1 0
vn 0 1 0
vn 0 1 0
vn 0.8729223 0 0.4878592
vn 0.8729223 0 0.4878592
vn 0.8729223 0 0.4878592
vn 0.8729223 0 0.4878592
vn 0 -1 0
vn 0 -1 0
vn 0 -1 0
vn 0 -1 0
vn -0.4878592 0 0.8729223
vn -0.4878592 0 0.8729223
vn -0.4878592 0 0.8729223
vn -0.4878592 0 0.8729223
vn 0.4878593 0 -0.8729222
vn 0.4878593 0 -0.8729222
vn 0.4878593 0 -0.8729222
vn 0.4878593 0 -0.8729222
vn -0.9994026 0 -0.034559
vn -0.9994026 0 -0.034559
vn -0.9994026 0 -0.034559
vn -0.9994026 0 -0.034559
vn 0 1 0
vn 0 1 0
vn 0 1 0
vn 0 1 0
vn 0.9994034 0 0.03453765
vn 0.9994034 0 0.03453765
vn 0.9994034 0 0.03453765
vn 0.9994034 0 0.03453765
vn 0 -1 0
vn 0 -1 0
vn 0 -1 0
vn 0 -1 0
vn -0.03455831 0 0.9994026
vn -0.03455831 0 0.9994026
vn -0.03455831 0 0.9994026
vn -0.03455831 0 0.9994026
vn 0.03453859 0 -0.9994034
vn 0.03453859 0 -0.9994034
vn 0.03453859 0 -0.9994034
vn 0.03453859 0 -0.9994034
vn -0.8440128 0.02487061 0.535746
vn -0.9098893 0.01069297 -0.4147134
vn -0.9098893 0.01069297 -0.4147134
vn -0.8440128 0.02487061 0.535746
vn -0.2344394 -0.01132283 -0.9720648
vn 0.1725315 -0.01933983 -0.9848141
vn 0.1725315 -0.01933983 -0.9848141
vn -0.2344394 -0.01132283 -0.9720648
vn 0.9974203 -0.02021922 -0.06887612
vn 0.9974203 -0.02021922 -0.06887612
vn 0.9974203 -0.02021922 -0.06887612
vn 0.9974203 -0.02021922 -0.06887612
vn 0.1160162 0.01386118 0.9931505
vn -0.1947927 0.01963257 0.9806479
vn -0.1947927 0.01963257 0.9806479
vn 0.1160162 0.01386118 0.9931505
vn -0.8440128 0.02487061 0.535746
vn -0.8440128 0.02487061 0.535746
vn -0.1388626 0.9902983 -0.005143835
vn -0.1388626 0.9902983 -0.005143835
vn 0.1186179 0.992673 -0.02302478
vn 0.1186179 0.992673 -0.02302478
vn -0.3870919 0.9219484 0.01307981
vn -0.3870919 0.9219484 0.01307981
vn 0.08049283 -0.9967119 0.009294025
vn 0.08049283 -0.9967119 0.009294025
vn -0.1766764 -0.9839007 0.02692235
vn -0.1766764 -0.9839007 0.02692235
vn -0.4220771 -0.905551 0.04275734
vn -0.4220771 -0.905551 0.04275734
vn -0.2344394 -0.01132283 -0.9720648
vn -0.9098893 0.01069297 -0.4147134
vn -0.9098893 0.01069297 -0.4147134
vn -0.2344394 -0.01132283 -0.9720648
vn 0.9974401 -0.01991619 -0.06867757
vn 0.9974401 -0.01991619 -0.06867757
vn 0.9974294 -0.02044493 -0.06867601
vn 0.9974294 -0.02044493 -0.06867601
vn 0.997413 -0.0204576 -0.06891153
vn 0.997413 -0.0204576 -0.06891153
vn 0.9974235 -0.01992886 -0.06891309
vn 0.9974235 -0.01992886 -0.06891309
vn -0.0954852 -0.01435769 -0.9953272
vn -0.2917115 -0.00995179 -0.9564546
vn -0.2917115 -0.00995179 -0.9564546
vn -0.0954852 -0.01435769 -0.9953272
vn 0.01913546 0.9996853 -0.01622326
vn -0.1889974 0.9819764 -0.001544466
vn -0.1889974 0.9819764 -0.001544466
vn 0.01913546 0.9996853 -0.01622326
vn 0.09546377 0.01438424 0.995329
vn -0.1378555 0.01875325 0.9902748
vn -0.1378555 0.01875325 0.9902748
vn 0.09546377 0.01438424 0.995329
vn -0.01913822 -0.9996853 0.01622174
vn -0.2264628 -0.9735522 0.03017576
vn -0.2264628 -0.9735522 0.03017576
vn -0.01913822 -0.9996853 0.01622174
vn -0.2917115 -0.00995179 -0.9564546
vn -0.2425462 -0.01112603 -0.9700761
vn -0.2425462 -0.01112603 -0.9700761
vn -0.2917115 -0.00995179 -0.9564546
vn 0.006422625 -0.01640477 -0.9998448
vn 0.006422625 -0.01640477 -0.9998448
vn -0.1889974 0.9819764 -0.001544466
vn -0.1890116 0.9819736 -0.001544754
vn -0.1890116 0.9819736 -0.001544754
vn -0.1889974 0.9819764 -0.001544466
vn 0.01910657 0.9996858 -0.01622383
vn 0.01910657 0.9996858 -0.01622383
vn -0.1378555 0.01875325 0.9902748
vn -0.188116 0.01953179 0.9819526
vn -0.188116 0.01953179 0.9819526
vn -0.1378555 0.01875325 0.9902748
vn -0.006286348 0.01631084 0.9998472
vn -0.006286348 0.01631084 0.9998472
vn -0.2264628 -0.9735522 0.03017576
vn -0.2264498 -0.9735551 0.03017813
vn -0.2264498 -0.9735551 0.03017813
vn -0.2264628 -0.9735522 0.03017576
vn -0.01911147 -0.9996856 0.01622619
vn -0.01911147 -0.9996856 0.01622619
vn -0.8729195 0 -0.4878641
vn -0.8729195 0 -0.4878641
vn -0.8729195 0 -0.4878641
vn -0.8729195 0 -0.4878641
vn 0 1 0
vn 0 1 0
vn 0 1 0
vn 0 1 0
vn 0.8729568 0 0.4877974
vn 0.8729568 0 0.4877974
vn 0.8729568 0 0.4877974
vn 0.8729568 0 0.4877974
vn 0 -1 0
vn 0 -1 0
vn 0 -1 0
vn 0 -1 0
vn -0.4877976 0 0.8729568
vn -0.4877976 0 0.8729568
vn -0.4877976 0 0.8729568
vn -0.4877976 0 0.8729568
vn 0.4877788 0 -0.8729673
vn 0.4877788 0 -0.8729673
vn 0.4877788 0 -0.8729673
vn 0.4877788 0 -0.8729673

vt 0.3261719 0.4753418
vt 0.3261719 0.4753418
vt 0.3261719 0.4753418
vt 0.3261719 0.4753418
vt 0.3261719 0.4753418
vt 0.3261719 0.4753418
vt 0.3261719 0.4753418
vt 0.3261719 0.4753418
vt 0.3261719 0.4753418
vt 0.3261719 0.4753418
vt 0.3261719 0.4753418
vt 0.3261719 0.4753418
vt 0.2956543 0.4753418
vt 0.2956543 0.4753418
vt 0.2956543 0.4753418
vt 0.2956543 0.4753418
vt 0.2956543 0.4753418
vt 0.2956543 0.4753418
vt 0.2956543 0.4753418
vt 0.2956543 0.4753418
vt 0.3261719 0.4753418
vt 0.3261719 0.4753418
vt 0.3261719 0.4753418
vt 0.3261719 0.4753418
vt 0.3261719 0.4753418
vt 0.3261719 0.4753418
vt 0.3261719 0.4753418
vt 0.3261719 0.4753418
vt 0.3586426 0.4753418
vt 0.3586426 0.4753418
vt 0.3586426 0.4753418
vt 0.3586426 0.4753418
vt 0.3586426 0.4753418
vt 0.3586426 0.4753418
vt 0.3586426 0.4753418
vt 0.3586426 0.4753418
vt 0.1409912 0.4230957
vt 0.1409912 0.4230957
vt 0.1409912 0.4230957
vt 0.1409912 0.4230957
vt 0.2033691 0.4226074
vt 0.2033691 0.4226074
vt 0.2033691 0.4226074
vt 0.2033691 0.4226074
vt 0.1409912 0.4230957
vt 0.1409912 0.4230957
vt 0.1409912 0.4230957
vt 0.1409912 0.4230957
vt 0.1715088 0.420166
vt 0.1715088 0.420166
vt 0.1715088 0.420166
vt 0.1715088 0.420166
vt 0.1715088 0.420166
vt 0.1715088 0.420166
vt 0.1715088 0.420166
vt 0.1715088 0.420166
vt 0.1715088 0.420166
vt 0.1715088 0.420166
vt 0.1715088 0.420166
vt 0.1715088 0.420166
vt 0.1409912 0.170166
vt 0.1409912 0.170166
vt 0.1409912 0.170166
vt 0.1409912 0.170166
vt 0.2033691 0.170166
vt 0.2033691 0.170166
vt 0.2033691 0.170166
vt 0.2033691 0.170166
vt 0.1409912 0.170166
vt 0.1409912 0.170166
vt 0.1409912 0.170166
vt 0.1409912 0.170166
vt 0.1715088 0.170166
vt 0.1715088 0.170166
vt 0.1715088 0.170166
vt 0.1715088 0.170166
vt 0.1715088 0.170166
vt 0.1715088 0.170166
vt 0.1715088 0.170166
vt 0.1715088 0.170166
vt 0.1715088 0.170166
vt 0.1715088 0.170166
vt 0.1715088 0.170166
vt 0.1715088 0.170166
vt 0.1409912 0.442627
vt 0.1409912 0.442627
vt 0.1409912 0.442627
vt 0.1409912 0.442627
vt 0.2033691 0.442627
vt 0.2033691 0.442627
vt 0.2033691 0.442627
vt 0.2033691 0.442627
vt 0.1409912 0.442627
vt 0.1409912 0.442627
vt 0.1409912 0.442627
vt 0.1409912 0.442627
vt 0.1715088 0.442627
vt 0.1715088 0.442627
vt 0.1715088 0.442627
vt 0.1715088 0.442627
vt 0.1715088 0.442627
vt 0.1715088 0.442627
vt 0.1715088 0.442627
vt 0.1715088 0.442627
vt 0.1715088 0.442627
vt 0.1715088 0.442627
vt 0.1715088 0.442627
vt 0.1715088 0.442627
vt 0.1409912 0.3764648
vt 0.1409912 0.3764648
vt 0.1409912 0.3764648
vt 0.1409912 0.3764648
vt 0.1715088 0.3764648
vt 0.1715088 0.3764648
vt 0.1715088 0.3764648
vt 0.1715088 0.3764648
vt 0.3881836 0.4753418
vt 0.3881836 0.4753418
vt 0.3881836 0.4753418
vt 0.3881836 0.4753418
vt 0.1409912 0.3764648
vt 0.1409912 0.3764648
vt 0.1409912 0.3764648
vt 0.1409912 0.3764648
vt 0.1409912 0.3764648
vt 0.1409912 0.3764648
vt 0.2331543 0.3764648
vt 0.2331543 0.3764648
vt 0.2331543 0.3764648
vt 0.2331543 0.3764648
vt 0.2331543 0.3764648
vt 0.2331543 0.3764648
vt 0.1098633 0.3764648
vt 0.1098633 0.3764648
vt 0.1098633 0.3764648
vt 0.1098633 0.3764648
vt 0.1098633 0.3764648
vt 0.1098633 0.3764648
vt 0.1409912 0.3764648
vt 0.1409912 0.3764648
vt 0.1409912 0.3764648
vt 0.1409912 0.3764648
vt 0.1715088 0.3764648
vt 0.1715088 0.3764648
vt 0.1715088 0.3764648
vt 0.1715088 0.3764648
vt 0.1715088 0.3764648
vt 0.1715088 0.3764648
vt 0.1715088 0.3764648
vt 0.1715088 0.3764648
vt 0.2033691 0.442627
vt 0.2033691 0.442627
vt 0.2033691 0.442627
vt 0.2033691 0.442627
vt 0.2487793 0.442627
vt 0.2487793 0.442627
vt 0.2487793 0.442627
vt 0.2487793 0.442627
vt 0.2033691 0.442627
vt 0.2033691 0.442627
vt 0.2033691 0.442627
vt 0.2033691 0.442627
vt 0.1715088 0.442627
vt 0.1715088 0.442627
vt 0.1715088 0.442627
vt 0.1715088 0.442627
vt 0.3261719 0.4753418
vt 0.3261719 0.4753418
vt 0.3261719 0.4753418
vt 0.3261719 0.4753418
vt 0.3261719 0.4753418
vt 0.3261719 0.4753418
vt 0.3881836 0.4753418
vt 0.3881836 0.4753418
vt 0.3881836 0.4753418
vt 0.3881836 0.4753418
vt 0.3881836 0.4753418
vt 0.3881836 0.4753418
vt 0.3261719 0.4753418
vt 0.3261719 0.4753418
vt 0.3261719 0.4753418
vt 0.3261719 0.4753418
vt 0.3261719 0.4753418
vt 0.3261719 0.4753418
vt 0.2956543 0.4753418
vt 0.2956543 0.4753418
vt 0.2956543 0.4753418
vt 0.2956543 0.4753418
vt 0.2956543 0.4753418
vt 0.2956543 0.4753418
vt 0.1409912 0.2209473
vt 0.1409912 0.2209473
vt 0.1409912 0.2209473
vt 0.1409912 0.2209473
vt 0.2033691 0.2209473
vt 0.2033691 0.2209473
vt 0.2033691 0.2209473
vt 0.2033691 0.2209473
vt 0.1409912 0.2209473
vt 0.1409912 0.2209473
vt 0.1409912 0.2209473
vt 0.1409912 0.2209473
vt 0.1715088 0.2209473
vt 0.1715088 0.2209473
vt 0.1715088 0.2209473
vt 0.1715088 0.2209473
vt 0.1715088 0.2209473
vt 0.1715088 0.2209473
vt 0.1715088 0.2209473
vt 0.1715088 0.2209473
vt 0.1715088 0.2209473
vt 0.1715088 0.2209473
vt 0.1715088 0.2209473
vt 0.1715088 0.2209473

g Prop_Plate_01_998_170
usemtl Prop_Plate_01_998_170
usemap Prop_Plate_01_998_170
f 1/1/1 3/3/3 2/2/2
f 1/1/1 4/4/4 3/3/3
f 5/5/5 7/7/7 6/6/6
f 5/5/5 8/8/8 7/7/7
f 9/9/9 11/11/11 10/10/10
f 9/9/9 12/12/12 11/11/11
f 13/13/13 15/15/15 14/14/14
f 13/13/13 16/16/16 15/15/15
f 17/17/17 16/16/16 13/13/13
f 17/17/17 18/18/18 16/16/16
f 18/18/18 15/15/15 16/16/16
f 18/18/18 19/19/19 15/15/15
f 19/19/19 14/14/14 15/15/15
f 19/19/19 20/20/20 14/14/14
f 20/20/20 13/13/13 14/14/14
f 20/20/20 17/17/17 13/13/13
f 21/21/21 23/23/23 22/22/22
f 21/21/21 24/24/24 23/23/23
f 25/25/25 27/27/27 26/26/26
f 25/25/25 28/28/28 27/27/27
f 29/29/29 31/31/31 30/30/30
f 29/29/29 32/32/32 31/31/31
f 32/32/32 33/33/33 31/31/31
f 32/32/32 34/34/34 33/33/33
f 34/34/34 35/35/35 33/33/33
f 34/34/34 36/36/36 35/35/35
f 36/36/36 30/30/30 35/35/35
f 36/36/36 29/29/29 30/30/30
f 37/37/37 39/39/39 38/38/38
f 37/37/37 40/40/40 39/39/39
f 41/41/41 43/43/43 42/42/42
f 41/41/41 44/44/44 43/43/43
f 45/45/45 47/47/47 46/46/46
f 45/45/45 48/48/48 47/47/47
f 49/49/49 51/51/51 50/50/50
f 49/49/49 52/52/52 51/51/51
f 53/53/53 55/55/55 54/54/54
f 53/53/53 56/56/56 55/55/55
f 57/57/57 59/59/59 58/58/58
f 57/57/57 60/60/60 59/59/59
f 61/61/61 63/63/63 62/62/62
f 61/61/61 64/64/64 63/63/63
f 65/65/65 67/67/67 66/66/66
f 65/65/65 68/68/68 67/67/67
f 69/69/69 71/71/71 70/70/70
f 69/69/69 72/72/72 71/71/71
f 73/73/73 75/75/75 74/74/74
f 73/73/73 76/76/76 75/75/75
f 77/77/77 79/79/79 78/78/78
f 77/77/77 80/80/80 79/79/79
f 81/81/81 83/83/83 82/82/82
f 81/81/81 84/84/84 83/83/83
f 85/85/85 87/87/87 86/86/86
f 85/85/85 88/88/88 87/87/87
f 89/89/89 91/91/91 90/90/90
f 89/89/89 92/92/92 91/91/91
f 93/93/93 95/95/95 94/94/94
f 93/93/93 96/96/96 95/95/95
f 97/97/97 99/99/99 98/98/98
f 97/97/97 100/100/100 99/99/99
f 101/101/101 103/103/103 102/102/102
f 101/101/101 104/104/104 103/103/103
f 105/105/105 107/107/107 106/106/106
f 105/105/105 108/108/108 107/107/107
f 109/109/109 111/111/111 110/110/110
f 109/109/109 112/112/112 111/111/111
f 113/113/113 115/115/115 114/114/114
f 113/113/113 116/116/116 115/115/115
f 117/117/117 119/119/119 118/118/118
f 117/117/117 120/120/120 119/119/119
f 121/121/121 123/123/123 122/122/122
f 121/121/121 124/124/124 123/123/123
f 122/122/122 123/123/123 125/125/125
f 122/122/122 125/125/125 126/126/126
f 127/127/127 129/129/129 128/128/128
f 127/127/127 130/130/130 129/129/129
f 127/127/127 128/128/128 131/131/131
f 127/127/127 131/131/131 132/132/132
f 133/133/133 135/135/135 134/134/134
f 133/133/133 136/136/136 135/135/135
f 135/135/135 136/136/136 137/137/137
f 135/135/135 137/137/137 138/138/138
f 139/139/139 141/141/141 140/140/140
f 139/139/139 142/142/142 141/141/141
f 143/143/143 145/145/145 144/144/144
f 143/143/143 146/146/146 145/145/145
f 146/146/146 147/147/147 145/145/145
f 146/146/146 148/148/148 147/147/147
f 148/148/148 149/149/149 147/147/147
f 148/148/148 150/150/150 149/149/149
f 150/150/150 144/144/144 149/149/149
f 150/150/150 143/143/143 144/144/144
f 151/151/151 153/153/153 152/152/152
f 151/151/151 154/154/154 153/153/153
f 155/155/155 157/157/157 156/156/156
f 155/155/155 158/158/158 157/157/157
f 159/159/159 161/161/161 160/160/160
f 159/159/159 162/162/162 161/161/161
f 163/163/163 165/165/165 164/164/164
f 163/163/163 166/166/166 165/165/165
f 167/167/167 169/169/169 168/168/168
f 167/167/167 170/170/170 169/169/169
f 168/168/168 169/169/169 171/171/171
f 168/168/168 171/171/171 172/172/172
f 173/173/173 175/175/175 174/174/174
f 173/173/173 176/176/176 175/175/175
f 174/174/174 175/175/175 177/177/177
f 174/174/174 177/177/177 178/178/178
f 179/179/179 181/181/181 180/180/180
f 179/179/179 182/182/182 181/181/181
f 180/180/180 181/181/181 183/183/183
f 180/180/180 183/183/183 184/184/184
f 185/185/185 187/187/187 186/186/186
f 185/185/185 188/188/188 187/187/187
f 186/186/186 187/187/187 189/189/189
f 186/186/186 189/189/189 190/190/190
f 191/191/191 193/193/193 192/192/192
f 191/191/191 194/194/194 193/193/193
f 195/195/195 197/197/197 196/196/196
f 195/195/195 198/198/198 197/197/197
f 199/199/199 201/201/201 200/200/200
f 199/199/199 202/202/202 201/201/201
f 203/203/203 205/205/205 204/204/204
f 203/203/203 206/206/206 205/205/205
f 207/207/207 209/209/209 208/208/208
f 207/207/207 210/210/210 209/209/209
f 211/211/211 213/213/213 212/212/212
f 211/211/211 214/214/214 213/213/213
