#Prop_Books_02_961_134.obj

v -0.2895065 -2.384186E-08 -0.1722944
v -0.2895065 0.3887222 -0.1722944
v -0.2895073 0.3887222 0.1722986
v -0.2895073 -2.384186E-08 0.1722986
v -0.2895065 0.3887222 -0.1722944
v -0.2688232 0.3887222 -0.1722937
v -0.2688232 0.3887222 0.138341
v -0.2895073 0.3887222 0.1722986
v -0.1600815 0.3887222 0.1383425
v -0.139399 0.3887222 0.1722979
v -0.1393982 0.3887222 0.1383432
v -0.1600823 0.3887222 -0.172296
v -0.139399 0.3887222 -0.1722952
v -0.139399 0.3445928 -0.1722952
v -0.1191994 0.3445928 -0.1722967
v -0.1191994 0.3445928 0.1383417
v -0.1393982 0.3445928 0.1383432
v -0.139399 0.3445928 0.1722979
v -0.0340271 0.3445928 0.1383417
v -0.01382828 0.3445928 0.1722986
v -0.01382828 0.3445928 0.1383402
v -0.0340271 0.3445928 -0.1722937
v -0.01382828 0.3445928 -0.1722944
v -0.01382828 0.3887222 -0.1722944
v 0.008455658 0.3887222 -0.1722967
v 0.008455658 0.3887222 0.1383417
v -0.01382828 0.3887222 0.1722986
v 0.1385307 0.3887222 0.1383402
v 0.1608147 0.3887222 0.1722963
v 0.1608147 0.3887222 0.1383417
v 0.1385307 0.3887222 -0.1722944
v 0.1608139 0.3887222 -0.1722967
v 0.1608139 0.4495151 -0.1722967
v 0.181469 0.4495151 -0.1722967
v 0.181469 0.4495151 0.1383417
v 0.1608147 0.4495153 0.1722963
v 0.289505 0.4495151 0.1722963
v 0.2688507 0.4495151 0.1383425
v 0.2688507 0.4495151 -0.172296
v 0.289505 0.4495151 -0.1722967
v 0.181469 -2.384186E-08 -0.1722967
v 0.1608139 -2.384186E-08 -0.1722967
v 0.1608147 -2.384186E-08 0.1383417
v 0.181469 -2.384186E-08 0.1383417
v 0.1608147 -2.384186E-08 0.1722963
v 0.2688507 -2.384186E-08 0.1383425
v 0.289505 -2.384186E-08 0.1722963
v 0.289505 -2.384186E-08 -0.1722967
v 0.2688507 -2.384186E-08 -0.172296
v 0.008455658 -2.384186E-08 -0.1722967
v -0.01382828 -2.384186E-08 -0.1722944
v -0.01382828 -2.384186E-08 0.1383402
v 0.008455658 -2.384186E-08 0.1383417
v -0.01382828 -2.384186E-08 0.1722986
v 0.1385307 -2.384186E-08 0.1383402
v 0.1608147 -2.384186E-08 0.1722963
v 0.1608147 -2.384186E-08 0.1383417
v 0.1608139 -2.384186E-08 -0.1722967
v 0.1385307 -2.384186E-08 -0.1722944
v -0.1191994 -2.384186E-08 -0.1722967
v -0.139399 -2.384186E-08 -0.1722952
v -0.1393982 -2.384186E-08 0.1383432
v -0.1191994 -2.384186E-08 0.1383417
v -0.139399 -2.384186E-08 0.1722979
v -0.0340271 -2.384186E-08 0.1383417
v -0.01382828 -2.384186E-08 0.1722986
v -0.01382828 -2.384186E-08 0.1383402
v -0.01382828 -2.384186E-08 -0.1722944
v -0.0340271 -2.384186E-08 -0.1722937
v -0.2688232 -2.384186E-08 -0.1722937
v -0.2895065 -2.384186E-08 -0.1722944
v -0.2895073 -2.384186E-08 0.1722986
v -0.2688232 -2.384186E-08 0.138341
v -0.1600815 -2.384186E-08 0.1383425
v -0.139399 -2.384186E-08 0.1722979
v -0.1393982 -2.384186E-08 0.1383432
v -0.139399 -2.384186E-08 -0.1722952
v -0.1600823 -2.384186E-08 -0.172296
v -0.2895073 -2.384186E-08 0.1722986
v -0.2895073 0.3445928 0.1722986
v -0.2895073 0.3887222 0.1722986
v 0.008455658 -2.384186E-08 -0.1722967
v -0.01382828 0.3445928 -0.1722944
v -0.01382828 -2.384186E-08 -0.1722944
v -0.01382828 0.3887222 -0.1722944
v 0.008455658 0.3887222 -0.1722967
v -0.1191994 -2.384186E-08 -0.1722967
v -0.1191994 0.3445928 -0.1722967
v -0.139399 0.3445928 -0.1722952
v -0.139399 -2.384186E-08 -0.1722952
v -0.2688232 -2.384186E-08 -0.1722937
v -0.2688232 0.3887222 -0.1722937
v -0.2895065 0.3887222 -0.1722944
v -0.2895065 -2.384186E-08 -0.1722944
v -0.1393982 0.3445928 0.1383432
v -0.1393982 0.3887222 0.1383432
v -0.139399 0.3887222 -0.1722952
v -0.139399 0.3445928 -0.1722952
v -0.139399 0.3445928 0.1722979
v -0.139399 0.3887222 0.1722979
v -0.01382828 0.3445928 -0.1722944
v -0.01382828 0.3887222 -0.1722944
v -0.01382828 0.3887222 0.1722986
v -0.01382828 0.3445928 0.1383402
v -0.01382828 0.3445928 0.1722986
v 0.289505 -2.384186E-08 0.1722963
v 0.289505 0.4495151 0.1722963
v 0.289505 0.4495151 -0.1722967
v 0.289505 -2.384186E-08 -0.1722967
v 0.181469 -2.384186E-08 -0.1722967
v 0.181469 0.4495151 -0.1722967
v 0.1608139 0.3887222 -0.1722967
v 0.1608139 -2.384186E-08 -0.1722967
v 0.1608139 0.4495151 -0.1722967
v 0.1608139 0.3887222 -0.1722967
v 0.1608139 0.4495151 -0.1722967
v 0.1608147 0.4495153 0.1722963
v 0.1608147 0.3887222 0.1383417
v 0.1608147 0.3887222 0.1722963
v -0.2895073 0.3887222 0.1722986
v -0.2895073 0.3445928 0.1722986
v -0.2895073 -2.384186E-08 0.1722986
v 0.289505 -2.384186E-08 -0.1722967
v 0.289505 0.4495151 -0.1722967
v 0.2688507 0.4495151 -0.172296
v 0.2688507 -2.384186E-08 -0.172296
v 0.181469 0.4495151 -0.1722967
v 0.2688507 0.4495151 -0.172296
v 0.2688507 0.4495151 0.1383425
v 0.181469 0.4495151 0.1383417
v 0.2688507 -2.384186E-08 -0.172296
v 0.2688507 0.4495151 -0.172296
v 0.181469 0.4495151 -0.1722967
v 0.181469 -2.384186E-08 -0.1722967
v 0.2688507 -2.384186E-08 -0.172296
v 0.181469 -2.384186E-08 -0.1722967
v 0.181469 -2.384186E-08 0.1383417
v 0.2688507 -2.384186E-08 0.1383425
v 0.1608147 0.3887222 0.1722963
v 0.289505 -2.384186E-08 0.1722963
v 0.1608147 -2.384186E-08 0.1722963
v 0.289505 0.4495151 0.1722963
v 0.1608147 0.4495153 0.1722963
v 0.1608139 -2.384186E-08 -0.1722967
v 0.1608139 0.3887222 -0.1722967
v 0.1385307 0.3887222 -0.1722944
v 0.1385307 -2.384186E-08 -0.1722944
v 0.008455658 0.3887222 -0.1722967
v 0.1385307 0.3887222 -0.1722944
v 0.1385307 0.3887222 0.1383402
v 0.008455658 0.3887222 0.1383417
v 0.1385307 -2.384186E-08 -0.1722944
v 0.1385307 0.3887222 -0.1722944
v 0.008455658 0.3887222 -0.1722967
v 0.008455658 -2.384186E-08 -0.1722967
v 0.1385307 -2.384186E-08 -0.1722944
v 0.008455658 -2.384186E-08 -0.1722967
v 0.008455658 -2.384186E-08 0.1383417
v 0.1385307 -2.384186E-08 0.1383402
v -0.01382828 0.3445928 0.1722986
v 0.1608147 0.3887222 0.1722963
v 0.1608147 -2.384186E-08 0.1722963
v -0.01382828 -2.384186E-08 0.1722986
v -0.01382828 0.3887222 0.1722986
v -0.01382828 -2.384186E-08 -0.1722944
v -0.01382828 0.3445928 -0.1722944
v -0.0340271 0.3445928 -0.1722937
v -0.0340271 -2.384186E-08 -0.1722937
v -0.1191994 0.3445928 -0.1722967
v -0.0340271 0.3445928 -0.1722937
v -0.0340271 0.3445928 0.1383417
v -0.1191994 0.3445928 0.1383417
v -0.0340271 -2.384186E-08 -0.1722937
v -0.0340271 0.3445928 -0.1722937
v -0.1191994 0.3445928 -0.1722967
v -0.1191994 -2.384186E-08 -0.1722967
v -0.0340271 -2.384186E-08 -0.1722937
v -0.1191994 -2.384186E-08 -0.1722967
v -0.1191994 -2.384186E-08 0.1383417
v -0.0340271 -2.384186E-08 0.1383417
v -0.139399 0.3445928 0.1722979
v -0.01382828 0.3445928 0.1722986
v -0.01382828 -2.384186E-08 0.1722986
v -0.139399 -2.384186E-08 0.1722979
v -0.139399 0.3445928 -0.1722952
v -0.139399 0.3887222 -0.1722952
v -0.1600823 0.3887222 -0.172296
v -0.139399 -2.384186E-08 -0.1722952
v -0.1600823 -2.384186E-08 -0.172296
v -0.2688232 0.3887222 -0.1722937
v -0.1600823 0.3887222 -0.172296
v -0.1600815 0.3887222 0.1383425
v -0.2688232 0.3887222 0.138341
v -0.1600823 -2.384186E-08 -0.172296
v -0.1600823 0.3887222 -0.172296
v -0.2688232 0.3887222 -0.1722937
v -0.2688232 -2.384186E-08 -0.1722937
v -0.1600823 -2.384186E-08 -0.172296
v -0.2688232 -2.384186E-08 -0.1722937
v -0.2688232 -2.384186E-08 0.138341
v -0.1600815 -2.384186E-08 0.1383425
v -0.2895073 0.3887222 0.1722986
v -0.139399 0.3445928 0.1722979
v -0.139399 -2.384186E-08 0.1722979
v -0.2895073 -2.384186E-08 0.1722986
v -0.139399 0.3887222 0.1722979

vn -1 0 0
vn -1 0 0
vn -1 0 0
vn -1 0 0
vn 0 1 0
vn 0 1 0
vn 0 1 0
vn 0 1 0
vn 0 1 0
vn 0 1 0
vn 0 1 0
vn 0 1 0
vn 0 1 0
vn 0 1 0
vn 0 1 0
vn 0 1 0
vn 0 1 0
vn 0 1 0
vn 0 1 0
vn 0 1 0
vn 0 1 0
vn 0 1 0
vn 0 1 0
vn 0 1 0
vn 0 1 0
vn 0 1 0
vn 0 1 0
vn 0 1 0
vn 0 1 0
vn 0 1 0
vn 0 1 0
vn 0 1 0
vn 0 1 0
vn 0 1 0
vn 0 1 0
vn 0 1 0
vn 0 1 0
vn 0 1 0
vn 0 1 0
vn 0 1 0
vn 0 -1 0
vn 0 -1 0
vn 0 -1 0
vn 0 -1 0
vn 0 -1 0
vn 0 -1 0
vn 0 -1 0
vn 0 -1 0
vn 0 -1 0
vn 0 -1 0
vn 0 -1 0
vn 0 -1 0
vn 0 -1 0
vn 0 -1 0
vn 0 -1 0
vn 0 -1 0
vn 0 -1 0
vn 0 -1 0
vn 0 -1 0
vn 0 -1 0
vn 0 -1 0
vn 0 -1 0
vn 0 -1 0
vn 0 -1 0
vn 0 -1 0
vn 0 -1 0
vn 0 -1 0
vn 0 -1 0
vn 0 -1 0
vn 0 -1 0
vn 0 -1 0
vn 0 -1 0
vn 0 -1 0
vn 0 -1 0
vn 0 -1 0
vn 0 -1 0
vn 0 -1 0
vn 0 -1 0
vn 0 1 0
vn 0 1 0
vn 0 1 0
vn 0 0 -1
vn 0 0 -1
vn 0 0 -1
vn 0 0 -1
vn 0 0 -1
vn 0 0 -1
vn 0 0 -1
vn 0 0 -1
vn 0 0 -1
vn 0 0 -1
vn 0 0 -1
vn 0 0 -1
vn 0 0 -1
vn 1 0 0
vn 1 0 0
vn 1 0 0
vn 1 0 0
vn 1 0 0
vn 1 0 0
vn -1 0 0
vn -1 0 0
vn -1 0 0
vn -1 0 0
vn -1 0 0
vn 1 0 0
vn 1 0 0
vn 1 0 0
vn 1 0 0
vn 0 0 -1
vn 0 0 -1
vn 0 0 -1
vn 0 0 -1
vn 0 0 -1
vn -1 0 0
vn -1 0 0
vn -1 0 0
vn -1 0 0
vn -1 0 0
vn 0 1 0
vn 0 1 0
vn 0 1 0
vn 0 0 -1
vn 0 0 -1
vn 0 0 -1
vn 0 0 -1
vn 0 1 0
vn 0 1 0
vn 0 1 0
vn 0 1 0
vn 0 0 -1
vn 0 0 -1
vn 0 0 -1
vn 0 0 -1
vn 0 -1 0
vn 0 -1 0
vn 0 -1 0
vn 0 -1 0
vn 0 0 1
vn 0 0 1
vn 0 0 1
vn 0 0 1
vn 0 0 1
vn 0 0 -1
vn 0 0 -1
vn 0 0 -1
vn 0 0 -1
vn 0 1 0
vn 0 1 0
vn 0 1 0
vn 0 1 0
vn 0 0 -1
vn 0 0 -1
vn 0 0 -1
vn 0 0 -1
vn 0 -1 0
vn 0 -1 0
vn 0 -1 0
vn 0 -1 0
vn 0 0 1
vn 0 0 1
vn 0 0 1
vn 0 0 1
vn 0 0 1
vn 0 0 -1
vn 0 0 -1
vn 0 0 -1
vn 0 0 -1
vn 0 1 0
vn 0 1 0
vn 0 1 0
vn 0 1 0
vn 0 0 -1
vn 0 0 -1
vn 0 0 -1
vn 0 0 -1
vn 0 -1 0
vn 0 -1 0
vn 0 -1 0
vn 0 -1 0
vn 0 0 1
vn 0 0 1
vn 0 0 1
vn 0 0 1
vn 0 0 -1
vn 0 0 -1
vn 0 0 -1
vn 0 0 -1
vn 0 0 -1
vn 0 1 0
vn 0 1 0
vn 0 1 0
vn 0 1 0
vn 0 0 -1
vn 0 0 -1
vn 0 0 -1
vn 0 0 -1
vn 0 -1 0
vn 0 -1 0
vn 0 -1 0
vn 0 -1 0
vn 0 0 1
vn 0 0 1
vn 0 0 1
vn 0 0 1
vn 0 0 1

vt 0.1715088 0.182373
vt 0.1715088 0.182373
vt 0.1715088 0.182373
vt 0.1715088 0.182373
vt 0.2331543 0.182373
vt 0.2331543 0.182373
vt 0.2331543 0.182373
vt 0.2331543 0.182373
vt 0.2331543 0.182373
vt 0.2331543 0.182373
vt 0.2331543 0.182373
vt 0.2331543 0.182373
vt 0.2331543 0.182373
vt 0.2331543 0.3320313
vt 0.2331543 0.3320313
vt 0.2331543 0.3320313
vt 0.2331543 0.3320313
vt 0.2331543 0.3320313
vt 0.2331543 0.3320313
vt 0.2331543 0.3320313
vt 0.2331543 0.3320313
vt 0.2331543 0.3320313
vt 0.2331543 0.3320313
vt 0.2629395 0.3764648
vt 0.2629395 0.3764648
vt 0.2629395 0.3764648
vt 0.2629395 0.3764648
vt 0.2629395 0.3764648
vt 0.2629395 0.3764648
vt 0.2629395 0.3764648
vt 0.2629395 0.3764648
vt 0.2629395 0.3764648
vt 0.2331543 0.182373
vt 0.2331543 0.182373
vt 0.2331543 0.182373
vt 0.2331543 0.182373
vt 0.2331543 0.182373
vt 0.2331543 0.182373
vt 0.2331543 0.182373
vt 0.2331543 0.182373
vt 0.1715088 0.182373
vt 0.1715088 0.182373
vt 0.1715088 0.182373
vt 0.1715088 0.182373
vt 0.1715088 0.182373
vt 0.1715088 0.182373
vt 0.1715088 0.182373
vt 0.1715088 0.182373
vt 0.1715088 0.182373
vt 0.2033691 0.3764648
vt 0.2033691 0.3764648
vt 0.2033691 0.3764648
vt 0.2033691 0.3764648
vt 0.2033691 0.3764648
vt 0.2033691 0.3764648
vt 0.2033691 0.3764648
vt 0.2033691 0.3764648
vt 0.2033691 0.3764648
vt 0.2033691 0.3764648
vt 0.1715088 0.3320313
vt 0.1715088 0.3320313
vt 0.1715088 0.3320313
vt 0.1715088 0.3320313
vt 0.1715088 0.3320313
vt 0.1715088 0.3320313
vt 0.1715088 0.3320313
vt 0.1715088 0.3320313
vt 0.1715088 0.3320313
vt 0.1715088 0.3320313
vt 0.1715088 0.182373
vt 0.1715088 0.182373
vt 0.1715088 0.182373
vt 0.1715088 0.182373
vt 0.1715088 0.182373
vt 0.1715088 0.182373
vt 0.1715088 0.182373
vt 0.1715088 0.182373
vt 0.1715088 0.182373
vt 0.2033691 0.182373
vt 0.2033691 0.182373
vt 0.2033691 0.182373
vt 0.2331543 0.3764648
vt 0.2331543 0.3764648
vt 0.2331543 0.3764648
vt 0.2331543 0.3764648
vt 0.2331543 0.3764648
vt 0.2033691 0.3320313
vt 0.2033691 0.3320313
vt 0.2033691 0.3320313
vt 0.2033691 0.3320313
vt 0.2033691 0.182373
vt 0.2033691 0.182373
vt 0.2033691 0.182373
vt 0.2033691 0.182373
vt 0.1715088 0.182373
vt 0.1715088 0.182373
vt 0.1715088 0.182373
vt 0.1715088 0.182373
vt 0.1715088 0.182373
vt 0.1715088 0.182373
vt 0.2033691 0.3764648
vt 0.2033691 0.3764648
vt 0.2033691 0.3764648
vt 0.2033691 0.3764648
vt 0.2033691 0.3764648
vt 0.1715088 0.182373
vt 0.1715088 0.182373
vt 0.1715088 0.182373
vt 0.1715088 0.182373
vt 0.2033691 0.182373
vt 0.2033691 0.182373
vt 0.2033691 0.182373
vt 0.2033691 0.182373
vt 0.2033691 0.182373
vt 0.1715088 0.182373
vt 0.1715088 0.182373
vt 0.1715088 0.182373
vt 0.1715088 0.182373
vt 0.1715088 0.182373
vt 0.1715088 0.182373
vt 0.1715088 0.182373
vt 0.1715088 0.182373
vt 0.2033691 0.182373
vt 0.2033691 0.182373
vt 0.2033691 0.182373
vt 0.2033691 0.182373
vt 0.2331543 0.442627
vt 0.2331543 0.442627
vt 0.2331543 0.442627
vt 0.2331543 0.442627
vt 0.2033691 0.442627
vt 0.2033691 0.442627
vt 0.2033691 0.442627
vt 0.2033691 0.442627
vt 0.1715088 0.442627
vt 0.1715088 0.442627
vt 0.1715088 0.442627
vt 0.1715088 0.442627
vt 0.2033691 0.182373
vt 0.2033691 0.182373
vt 0.2033691 0.182373
vt 0.2033691 0.182373
vt 0.2033691 0.182373
vt 0.2331543 0.3764648
vt 0.2331543 0.3764648
vt 0.2331543 0.3764648
vt 0.2331543 0.3764648
vt 0.2629395 0.442627
vt 0.2629395 0.442627
vt 0.2629395 0.442627
vt 0.2629395 0.442627
vt 0.2331543 0.442627
vt 0.2331543 0.442627
vt 0.2331543 0.442627
vt 0.2331543 0.442627
vt 0.2033691 0.442627
vt 0.2033691 0.442627
vt 0.2033691 0.442627
vt 0.2033691 0.442627
vt 0.2331543 0.3764648
vt 0.2331543 0.3764648
vt 0.2331543 0.3764648
vt 0.2331543 0.3764648
vt 0.2331543 0.3764648
vt 0.2033691 0.3320313
vt 0.2033691 0.3320313
vt 0.2033691 0.3320313
vt 0.2033691 0.3320313
vt 0.2331543 0.442627
vt 0.2331543 0.442627
vt 0.2331543 0.442627
vt 0.2331543 0.442627
vt 0.2033691 0.442627
vt 0.2033691 0.442627
vt 0.2033691 0.442627
vt 0.2033691 0.442627
vt 0.1715088 0.442627
vt 0.1715088 0.442627
vt 0.1715088 0.442627
vt 0.1715088 0.442627
vt 0.2033691 0.3320313
vt 0.2033691 0.3320313
vt 0.2033691 0.3320313
vt 0.2033691 0.3320313
vt 0.2033691 0.182373
vt 0.2033691 0.182373
vt 0.2033691 0.182373
vt 0.2033691 0.182373
vt 0.2033691 0.182373
vt 0.2331543 0.442627
vt 0.2331543 0.442627
vt 0.2331543 0.442627
vt 0.2331543 0.442627
vt 0.2033691 0.442627
vt 0.2033691 0.442627
vt 0.2033691 0.442627
vt 0.2033691 0.442627
vt 0.1715088 0.442627
vt 0.1715088 0.442627
vt 0.1715088 0.442627
vt 0.1715088 0.442627
vt 0.2033691 0.182373
vt 0.2033691 0.182373
vt 0.2033691 0.182373
vt 0.2033691 0.182373
vt 0.2033691 0.182373

g Prop_Books_02_961_134
usemtl Prop_Books_02_961_134
usemap Prop_Books_02_961_134
f 1/1/1 3/3/3 2/2/2
f 1/1/1 4/4/4 3/3/3
f 5/5/5 7/7/7 6/6/6
f 5/5/5 8/8/8 7/7/7
f 9/9/9 7/7/7 8/8/8
f 9/9/9 8/8/8 10/10/10
f 11/11/11 9/9/9 10/10/10
f 12/12/12 9/9/9 11/11/11
f 12/12/12 11/11/11 13/13/13
f 14/14/14 16/16/16 15/15/15
f 14/14/14 17/17/17 16/16/16
f 16/16/16 17/17/17 18/18/18
f 19/19/19 16/16/16 18/18/18
f 19/19/19 18/18/18 20/20/20
f 21/21/21 19/19/19 20/20/20
f 22/22/22 19/19/19 21/21/21
f 22/22/22 21/21/21 23/23/23
f 24/24/24 26/26/26 25/25/25
f 24/24/24 27/27/27 26/26/26
f 28/28/28 26/26/26 27/27/27
f 28/28/28 27/27/27 29/29/29
f 30/30/30 28/28/28 29/29/29
f 31/31/31 28/28/28 30/30/30
f 31/31/31 30/30/30 32/32/32
f 33/33/33 35/35/35 34/34/34
f 33/33/33 36/36/36 35/35/35
f 35/35/35 36/36/36 37/37/37
f 35/35/35 37/37/37 38/38/38
f 39/39/39 38/38/38 37/37/37
f 39/39/39 37/37/37 40/40/40
f 41/41/41 43/43/43 42/42/42
f 41/41/41 44/44/44 43/43/43
f 43/43/43 44/44/44 45/45/45
f 45/45/45 44/44/44 46/46/46
f 45/45/45 46/46/46 47/47/47
f 48/48/48 47/47/47 46/46/46
f 48/48/48 46/46/46 49/49/49
f 50/50/50 52/52/52 51/51/51
f 50/50/50 53/53/53 52/52/52
f 52/52/52 53/53/53 54/54/54
f 54/54/54 53/53/53 55/55/55
f 54/54/54 55/55/55 56/56/56
f 56/56/56 55/55/55 57/57/57
f 58/58/58 57/57/57 55/55/55
f 58/58/58 55/55/55 59/59/59
f 60/60/60 62/62/62 61/61/61
f 60/60/60 63/63/63 62/62/62
f 62/62/62 63/63/63 64/64/64
f 64/64/64 63/63/63 65/65/65
f 64/64/64 65/65/65 66/66/66
f 66/66/66 65/65/65 67/67/67
f 68/68/68 67/67/67 65/65/65
f 68/68/68 65/65/65 69/69/69
f 70/70/70 72/72/72 71/71/71
f 70/70/70 73/73/73 72/72/72
f 72/72/72 73/73/73 74/74/74
f 72/72/72 74/74/74 75/75/75
f 75/75/75 74/74/74 76/76/76
f 77/77/77 76/76/76 74/74/74
f 77/77/77 74/74/74 78/78/78
f 79/79/79 81/81/81 80/80/80
f 82/82/82 84/84/84 83/83/83
f 82/82/82 83/83/83 85/85/85
f 82/82/82 85/85/85 86/86/86
f 87/87/87 89/89/89 88/88/88
f 87/87/87 90/90/90 89/89/89
f 91/91/91 93/93/93 92/92/92
f 91/91/91 94/94/94 93/93/93
f 95/95/95 97/97/97 96/96/96
f 95/95/95 98/98/98 97/97/97
f 99/99/99 95/95/95 96/96/96
f 99/99/99 96/96/96 100/100/100
f 101/101/101 103/103/103 102/102/102
f 101/101/101 104/104/104 103/103/103
f 103/103/103 104/104/104 105/105/105
f 106/106/106 108/108/108 107/107/107
f 106/106/106 109/109/109 108/108/108
f 110/110/110 112/112/112 111/111/111
f 110/110/110 113/113/113 112/112/112
f 111/111/111 112/112/112 114/114/114
f 115/115/115 117/117/117 116/116/116
f 115/115/115 118/118/118 117/117/117
f 117/117/117 118/118/118 119/119/119
f 120/120/120 122/122/122 121/121/121
f 123/123/123 125/125/125 124/124/124
f 123/123/123 126/126/126 125/125/125
f 127/127/127 129/129/129 128/128/128
f 127/127/127 130/130/130 129/129/129
f 131/131/131 133/133/133 132/132/132
f 131/131/131 134/134/134 133/133/133
f 135/135/135 137/137/137 136/136/136
f 135/135/135 138/138/138 137/137/137
f 139/139/139 141/141/141 140/140/140
f 139/139/139 140/140/140 142/142/142
f 143/143/143 139/139/139 142/142/142
f 144/144/144 146/146/146 145/145/145
f 144/144/144 147/147/147 146/146/146
f 148/148/148 150/150/150 149/149/149
f 148/148/148 151/151/151 150/150/150
f 152/152/152 154/154/154 153/153/153
f 152/152/152 155/155/155 154/154/154
f 156/156/156 158/158/158 157/157/157
f 156/156/156 159/159/159 158/158/158
f 160/160/160 162/162/162 161/161/161
f 160/160/160 163/163/163 162/162/162
f 164/164/164 160/160/160 161/161/161
f 165/165/165 167/167/167 166/166/166
f 165/165/165 168/168/168 167/167/167
f 169/169/169 171/171/171 170/170/170
f 169/169/169 172/172/172 171/171/171
f 173/173/173 175/175/175 174/174/174
f 173/173/173 176/176/176 175/175/175
f 177/177/177 179/179/179 178/178/178
f 177/177/177 180/180/180 179/179/179
f 181/181/181 183/183/183 182/182/182
f 181/181/181 184/184/184 183/183/183
f 185/185/185 187/187/187 186/186/186
f 188/188/188 187/187/187 185/185/185
f 188/188/188 189/189/189 187/187/187
f 190/190/190 192/192/192 191/191/191
f 190/190/190 193/193/193 192/192/192
f 194/194/194 196/196/196 195/195/195
f 194/194/194 197/197/197 196/196/196
f 198/198/198 200/200/200 199/199/199
f 198/198/198 201/201/201 200/200/200
f 202/202/202 204/204/204 203/203/203
f 202/202/202 205/205/205 204/204/204
f 202/202/202 203/203/203 206/206/206
