#road_crossing_mesh_3063_43.obj

v -1.271566E-06 -0.1947956 -3.165323
v -1.271566E-06 -0.1947956 -10
v 2.499994 -0.1947956 -10
v 2.499994 -0.1947956 -3.165323
v -1.271566E-06 -0.1947956 -2.869128
v 2.499994 -0.1947956 -2.869128
v 2.499994 -0.1947956 -2.869128
v 2.499994 0 -2.869128
v -1.271566E-06 0 -2.869128
v -1.271566E-06 -0.1947956 -2.869128
v 2.499994 0 -6.357829E-07
v -1.271566E-06 0 -6.357829E-07
v -1.271566E-06 0 -2.869128
v 2.499994 0 -2.869128
v 4.999989 0 -6.357829E-07
v 2.499994 0 -6.357829E-07
v 2.499994 0 -2.869128
v 4.999989 0 -2.869128
v 4.999989 -0.1947956 -2.869128
v 4.999989 0 -2.869128
v 2.499994 0 -2.869128
v 2.499994 -0.1947956 -2.869128
v 2.499994 -0.1947956 -3.165323
v 4.999989 -0.1947956 -3.165323
v 4.999989 -0.1947956 -2.869128
v 2.499994 -0.1947956 -2.869128
v 2.499994 -0.1947956 -10
v 4.999989 -0.1947956 -10
v 2.499994 0 -6.357829E-07
v 2.499994 -0.1947956 -6.357829E-07
v -1.271566E-06 -0.1947956 -6.357829E-07
v -1.271566E-06 0 -6.357829E-07
v 4.999989 0 -6.357829E-07
v 4.999989 -0.1947956 -6.357829E-07
v 2.499994 -0.1947956 -6.357829E-07
v 2.499994 0 -6.357829E-07

vn 0 1 0
vn 0 1 0
vn 0 1 0
vn 0 1 0
vn 0 1 0
vn 0 1 0
vn 0 0 -1
vn 0 0 -1
vn 0 0 -1
vn 0 0 -1
vn 0 1 0
vn 0 1 0
vn 0 1 0
vn 0 1 0
vn 0 1 0
vn 0 1 0
vn 0 1 0
vn 0 1 0
vn 0 0 -1
vn 0 0 -1
vn 0 0 -1
vn 0 0 -1
vn 0 1 0
vn 0 1 0
vn 0 1 0
vn 0 1 0
vn 0 1 0
vn 0 1 0
vn 0 0 1
vn 0 0 1
vn 0 0 1
vn 0 0 1
vn 0 0 1
vn 0 0 1
vn 0 0 1
vn 0 0 1

vt 0.3754883 0.00642395
vt 0.9931641 0.00642395
vt 0.9931641 0.4890137
vt 0.3754883 0.4890137
vt 0.3410645 0.00642395
vt 0.3410645 0.5
vt 0.3410645 0.5
vt 0.3178711 0.5
vt 0.3178711 0.00642395
vt 0.3410645 0.00642395
vt 0.007686615 0.5
vt 0.007686615 0.00642395
vt 0.3178711 0.00642395
vt 0.3178711 0.5
vt 0.007686615 0.00642395
vt 0.007686615 0.5
vt 0.3178711 0.5
vt 0.3178711 0.00642395
vt 0.3410645 0.00642395
vt 0.3178711 0.00642395
vt 0.3178711 0.5
vt 0.3410645 0.5
vt 0.3754883 0.4890137
vt 0.3754883 0.00642395
vt 0.3410645 0.00642395
vt 0.3410645 0.5
vt 0.9931641 0.4890137
vt 0.9931641 0.00642395
vt 0.3325195 0.4648438
vt 0.3325195 0.4570313
vt 0.3244629 0.4570313
vt 0.3244629 0.4648438
vt 0.3325195 0.4648438
vt 0.3325195 0.4570313
vt 0.3244629 0.4570313
vt 0.3244629 0.4648438

g road_crossing_mesh_3063_43
usemtl road_crossing_mesh_3063_43
usemap road_crossing_mesh_3063_43
f 1/1/1 3/3/3 2/2/2
f 1/1/1 4/4/4 3/3/3
f 5/5/5 4/4/4 1/1/1
f 5/5/5 6/6/6 4/4/4
f 7/7/7 9/9/9 8/8/8
f 7/7/7 10/10/10 9/9/9
f 11/11/11 13/13/13 12/12/12
f 11/11/11 14/14/14 13/13/13
f 15/15/15 17/17/17 16/16/16
f 15/15/15 18/18/18 17/17/17
f 19/19/19 21/21/21 20/20/20
f 19/19/19 22/22/22 21/21/21
f 23/23/23 25/25/25 24/24/24
f 23/23/23 26/26/26 25/25/25
f 27/27/27 23/23/23 24/24/24
f 27/27/27 24/24/24 28/28/28
f 29/29/29 31/31/31 30/30/30
f 29/29/29 32/32/32 31/31/31
f 33/33/33 35/35/35 34/34/34
f 33/33/33 36/36/36 35/35/35
