#road_bend_left_mesh_3881_94.obj

v -4.999991 -0.1947956 -3.165327
v -4.999991 -0.1947956 -10
v -3.157721 -0.1947956 -3.165327
v -3.157721 -0.1947956 -10
v -4.999991 -0.1947956 -2.869134
v -2.869122 -0.1947956 -2.869134
v -4.999991 0 -2.869134
v -2.869122 -0.1947956 -2.869134
v -2.869122 0 -2.869134
v -4.999991 0 -2.869134
v -2.869122 0 -2.869134
v -2.869122 0 -2.540597
v -4.999991 0 -2.869134
v -4.999991 0 -3.178914E-06
v -2.869122 0 -3.178914E-06
v -2.869122 -0.1947956 -2.869134
v -3.157721 -0.1947956 -3.165327
v -2.869122 -0.1947956 -10
v -3.157721 -0.1947956 -3.165327
v -3.157721 -0.1947956 -10
v -2.869122 -0.1947956 -10
v -2.869122 0 -2.540597
v -2.535686 0 -2.543857
v -2.869122 0 -3.178914E-06
v -1.271566E-06 0 -3.178914E-06
v -1.271566E-06 0 -2.869134
v -2.541754 0 -2.869134
v -1.271566E-06 0 -10
v -1.271566E-06 0 -2.869134
v -2.541754 0 -2.869134
v -2.869122 0 -10
v -2.869122 0 -2.869134
v -2.869122 0 -2.869134
v -2.869122 -0.1947956 -2.869134
v -2.869122 0 -10
v -2.869122 -0.1947956 -10
v -2.541754 0 -2.869134
v -2.535686 0 -2.543857
v -2.869122 0 -2.869134
v -2.869122 0 -2.869134
v -2.535686 0 -2.543857
v -2.869122 0 -2.540597
v -4.999991 0 -3.178914E-06
v -2.869122 0 -3.178914E-06
v -4.999991 -0.1947956 -3.178914E-06
v -2.869122 -0.1947956 -3.178914E-06
v -1.271566E-06 0 -3.178914E-06
v -1.271566E-06 -0.1947956 -3.178914E-06
v -1.271566E-06 0 -3.178914E-06
v -1.271566E-06 0 -2.869134
v -1.271566E-06 -0.1947956 -3.178914E-06
v -1.271566E-06 -0.1947956 -2.869134
v -1.271566E-06 0 -10
v -1.271566E-06 -0.1947956 -10
v -4.999991 -0.1947956 -3.165327
v -3.157721 -0.1947956 -3.165327
v -4.999991 -0.1947956 -2.869134
v -2.869122 -0.1947956 -2.869134

vn 0 1 0
vn 0 1 0
vn 0 1 0
vn 0 1 0
vn 0 0 -1
vn 0 0 -1
vn 0 0 -1
vn 0 0 -1
vn 0 0 -1
vn 0 0 -1
vn 0 1 0
vn 0 1 0
vn 0 1 0
vn 0 1 0
vn 0 1 0
vn 0 1 0
vn 0 1 0
vn 0 1 0
vn 0 1 0
vn 0 1 0
vn 0 1 0
vn 0 1 0
vn 0 1 0
vn 0 1 0
vn 0 1 0
vn 0 1 0
vn 0 1 0
vn 0 1 0
vn 0 1 0
vn 0 1 0
vn 0 1 0
vn 0 1 0
vn -1 0 0
vn -1 0 0
vn -1 0 0
vn -1 0 0
vn 0 1 0
vn 0 1 0
vn 0 1 0
vn 0 1 0
vn 0 1 0
vn 0 1 0
vn 0 0 1
vn 0 0 1
vn 0 0 1
vn 0 0 1
vn 0 0 1
vn 0 0 1
vn 1 0 0
vn 1 0 0
vn 1 0 0
vn 1 0 0
vn 1 0 0
vn 1 0 0
vn 0 1 0
vn 0 1 0
vn 0 1 0
vn 0 1 0

vt 0.5751953 0.7714844
vt 0.5991211 0.7714844
vt 0.5751953 0.7436523
vt 0.5991211 0.7436523
vt 0.3410645 1
vt 0.322998 0.5014648
vt 0.3178711 1
vt 0.322998 0.5014648
vt 0.3322754 0.4951172
vt 0.3178711 1
vt 0.3178711 0.5014648
vt 0.2814941 0.5014648
vt 0.3178711 1
vt 0.009887695 1
vt 0.009887695 0.5014648
vt 0.3498535 0.3161621
vt 0.3754883 0.5146484
vt 0.3586426 0.4750977
vt 0.3754883 0.5146484
vt 0.362793 0.4743652
vt 0.3586426 0.4750977
vt 0.2529297 0.4992676
vt 0.2531738 0.5576172
vt 0.009887695 0.5014648
vt 0.009887695 1
vt 0.2849121 1
vt 0.2854004 0.5571289
vt 0.009887695 1
vt 0.009887695 0.01031494
vt 0.2817383 0.01031494
vt 0.3178711 1
vt 0.3178711 0.01031494
vt 0.3178711 0.01031494
vt 0.3410645 0.5146484
vt 0.3178711 1
vt 0.3410645 1
vt 0.2814941 0.4924316
vt 0.2814941 0.4675293
vt 0.3181152 0.4924316
vt 0.3181152 0.4924316
vt 0.2814941 0.4675293
vt 0.2819824 0.4929199
vt 0.3393555 0.5727539
vt 0.3393555 0.5854492
vt 0.3334961 0.5727539
vt 0.3334961 0.5854492
vt 0.3393555 0.5981445
vt 0.3334961 0.5981445
vt 0.331543 0.5727539
vt 0.331543 0.5854492
vt 0.3256836 0.5727539
vt 0.3256836 0.5854492
vt 0.331543 0.6166992
vt 0.3256836 0.6166992
vt 0.3754883 1
vt 0.3754883 0.5146484
vt 0.3410645 1
vt 0.3498535 0.3161621

g road_bend_left_mesh_3881_94
usemtl road_bend_left_mesh_3881_94
usemap road_bend_left_mesh_3881_94
f 1/1/1 3/3/3 2/2/2
f 2/2/2 3/3/3 4/4/4
f 5/5/5 7/7/7 6/6/6
f 8/8/8 10/10/10 9/9/9
f 11/11/11 13/13/13 12/12/12
f 12/12/12 13/13/13 14/14/14
f 15/15/15 12/12/12 14/14/14
f 16/16/16 18/18/18 17/17/17
f 19/19/19 21/21/21 20/20/20
f 22/22/22 24/24/24 23/23/23
f 25/25/25 23/23/23 24/24/24
f 25/25/25 26/26/26 23/23/23
f 27/27/27 23/23/23 26/26/26
f 28/28/28 30/30/30 29/29/29
f 28/28/28 31/31/31 30/30/30
f 32/32/32 30/30/30 31/31/31
f 33/33/33 35/35/35 34/34/34
f 34/34/34 35/35/35 36/36/36
f 37/37/37 39/39/39 38/38/38
f 40/40/40 42/42/42 41/41/41
f 43/43/43 45/45/45 44/44/44
f 44/44/44 45/45/45 46/46/46
f 44/44/44 46/46/46 47/47/47
f 47/47/47 46/46/46 48/48/48
f 49/49/49 51/51/51 50/50/50
f 50/50/50 51/51/51 52/52/52
f 50/50/50 52/52/52 53/53/53
f 53/53/53 52/52/52 54/54/54
f 55/55/55 57/57/57 56/56/56
f 56/56/56 57/57/57 58/58/58
