#rubbish_truck_fr_wheel_mesh_3662_243.obj

v -0.1607268 0.4779549 -0.2759426
v -0.1607269 0.2759475 -0.4779499
v 0.1607271 0.2759473 -0.4779499
v 0.1607271 0.4779548 -0.2759426
v -0.1607269 0.2759475 -0.4779499
v -0.1607268 4.263657E-07 -0.5518939
v 0.1607267 2.502017E-07 -0.5518939
v 0.1607271 0.2759473 -0.4779499
v -0.1607268 4.263657E-07 -0.5518939
v -0.1607271 -0.2759466 -0.4779499
v 0.1607268 -0.2759468 -0.4779499
v 0.1607267 2.502017E-07 -0.5518939
v -0.1607271 -0.2759466 -0.4779499
v -0.1607267 -0.4779536 -0.2759426
v 0.1607267 -0.4779533 -0.2759426
v 0.1607268 -0.2759468 -0.4779499
v -0.1607267 -0.4779536 -0.2759426
v -0.160727 -0.5518937 5.00679E-06
v 0.160727 -0.5518938 5.00679E-06
v 0.1607267 -0.4779533 -0.2759426
v -0.160727 -0.5518937 5.00679E-06
v -0.1607267 -0.4779536 0.2759488
v 0.1607267 -0.4779533 0.2759488
v 0.160727 -0.5518938 5.00679E-06
v -0.1607267 -0.4779536 0.2759488
v -0.1607271 -0.2759466 0.4779561
v 0.1607268 -0.2759468 0.4779561
v 0.1607267 -0.4779533 0.2759488
v -0.1607271 -0.2759466 0.4779561
v -0.1607268 4.263657E-07 0.5518963
v 0.1607267 2.502017E-07 0.5518963
v 0.1607268 -0.2759468 0.4779561
v -0.1607268 4.263657E-07 0.5518963
v -0.1607269 0.2759475 0.4779561
v 0.1607271 0.2759473 0.4779561
v 0.1607267 2.502017E-07 0.5518963
v -0.1607269 0.2759475 0.4779561
v -0.1607268 0.4779549 0.2759488
v 0.1607271 0.4779548 0.2759488
v 0.1607271 0.2759473 0.4779561
v -0.1607268 0.4779549 0.2759488
v -0.160727 0.5518941 5.00679E-06
v 0.160727 0.5518939 5.00679E-06
v 0.1607271 0.4779548 0.2759488
v -0.160727 0.5518941 5.00679E-06
v -0.1607268 0.4779549 -0.2759426
v 0.1607271 0.4779548 -0.2759426
v 0.160727 0.5518939 5.00679E-06
v 0.1607271 0.4779548 -0.2759426
v 0.1607271 0.2759473 -0.4779499
v 0.1607267 2.502017E-07 5.00679E-06
v 0.1607267 2.502017E-07 -0.5518939
v 0.1607268 -0.2759468 -0.4779499
v 0.1607267 -0.4779533 -0.2759426
v 0.160727 -0.5518938 5.00679E-06
v 0.1607267 -0.4779533 0.2759488
v 0.1607268 -0.2759468 0.4779561
v 0.1607267 2.502017E-07 0.5518963
v 0.1607271 0.2759473 0.4779561
v 0.1607271 0.4779548 0.2759488
v 0.160727 0.5518939 5.00679E-06
v -0.1607268 0.4779549 -0.2759426
v -0.160727 0.5518941 5.00679E-06
v -0.1607269 0.2759475 -0.4779499
v -0.160727 0.5518941 5.00679E-06
v -0.1607268 4.263657E-07 -0.5518939
v -0.160727 0.5518941 5.00679E-06
v -0.1607271 -0.2759466 -0.4779499
v -0.160727 0.5518941 5.00679E-06
v -0.1607267 -0.4779536 -0.2759426
v -0.1607267 -0.4779536 -0.2759426
v -0.160727 -0.5518937 5.00679E-06
v -0.160727 -0.5518937 5.00679E-06
v -0.160727 0.5518941 5.00679E-06
v -0.1607267 -0.4779536 0.2759488
v -0.1607271 -0.2759466 0.4779561
v -0.1607268 4.263657E-07 0.5518963
v -0.1607269 0.2759475 0.4779561
v -0.1607268 0.4779549 0.2759488
v -0.1607271 -0.2759466 0.4779561
v -0.160727 0.5518941 5.00679E-06

vn -0.7067062 0.02376463 -0.7071079
vn -0.7067062 0.02376463 -0.7071079
vn -0.7067062 0.02376463 -0.7071079
vn -0.7067062 0.02376463 -0.7071079
vn -0.2586776 0.008698633 -0.9659245
vn -0.2586776 0.008698633 -0.9659245
vn -0.2586776 0.008698633 -0.9659245
vn -0.2586776 0.008698633 -0.9659245
vn 0.2586775 -0.008698631 -0.9659245
vn 0.2586775 -0.008698631 -0.9659245
vn 0.2586775 -0.008698631 -0.9659245
vn 0.2586775 -0.008698631 -0.9659245
vn 0.7067067 -0.02376465 -0.7071074
vn 0.7067067 -0.02376465 -0.7071074
vn 0.7067067 -0.02376465 -0.7071074
vn 0.7067067 -0.02376465 -0.7071074
vn 0.9653801 -0.03246314 -0.2588195
vn 0.9653801 -0.03246314 -0.2588195
vn 0.9653801 -0.03246314 -0.2588195
vn 0.9653801 -0.03246314 -0.2588195
vn 0.9653792 -0.03246311 0.2588226
vn 0.9653792 -0.03246311 0.2588226
vn 0.9653792 -0.03246311 0.2588226
vn 0.9653792 -0.03246311 0.2588226
vn 0.7067139 -0.02376489 0.7071003
vn 0.7067139 -0.02376489 0.7071003
vn 0.7067139 -0.02376489 0.7071003
vn 0.7067139 -0.02376489 0.7071003
vn 0.2586636 -0.00869816 0.9659283
vn 0.2586636 -0.00869816 0.9659283
vn 0.2586636 -0.00869816 0.9659283
vn 0.2586636 -0.00869816 0.9659283
vn -0.2586637 0.008698163 0.9659283
vn -0.2586637 0.008698163 0.9659283
vn -0.2586637 0.008698163 0.9659283
vn -0.2586637 0.008698163 0.9659283
vn -0.7067133 0.02376487 0.7071008
vn -0.7067133 0.02376487 0.7071008
vn -0.7067133 0.02376487 0.7071008
vn -0.7067133 0.02376487 0.7071008
vn -0.9653801 0.03246314 0.2588193
vn -0.9653801 0.03246314 0.2588193
vn -0.9653801 0.03246314 0.2588193
vn -0.9653801 0.03246314 0.2588193
vn -0.965381 0.03246317 -0.2588162
vn -0.965381 0.03246317 -0.2588162
vn -0.965381 0.03246317 -0.2588162
vn -0.965381 0.03246317 -0.2588162
vn 0.03360832 0.9994351 0
vn 0.03360832 0.9994351 0
vn 0.03360832 0.9994351 0
vn 0.03360832 0.9994351 0
vn 0.03360832 0.9994351 0
vn 0.03360832 0.9994351 0
vn 0.03360832 0.9994351 0
vn 0.03360832 0.9994351 0
vn 0.03360832 0.9994351 0
vn 0.03360832 0.9994351 0
vn 0.03360832 0.9994351 0
vn 0.03360832 0.9994351 0
vn 0.03360832 0.9994351 0
vn -0.03360832 -0.9994351 0
vn -0.03360832 -0.9994351 0
vn -0.03360832 -0.9994351 0
vn -0.03360832 -0.9994351 0
vn -0.03360832 -0.9994351 0
vn -0.03360832 -0.9994351 0
vn -0.03360832 -0.9994351 0
vn -0.03360832 -0.9994351 0
vn -0.03360832 -0.9994351 0
vn -0.03360832 -0.9994351 0
vn -0.03360832 -0.9994351 0
vn -0.03360832 -0.9994351 0
vn -0.03360832 -0.9994351 0
vn -0.03360832 -0.9994351 0
vn -0.03360832 -0.9994351 0
vn -0.03360832 -0.9994351 0
vn -0.03360832 -0.9994351 0
vn -0.03360832 -0.9994351 0
vn -0.03360832 -0.9994351 0
vn -0.03360832 -0.9994351 0

vt 0.4650879 0.8608398
vt 0.4702148 0.8608398
vt 0.4702148 0.8891602
vt 0.4650879 0.8891602
vt 0.4702148 0.8608398
vt 0.4753418 0.8608398
vt 0.4753418 0.8891602
vt 0.4702148 0.8891602
vt 0.4753418 0.8608398
vt 0.4807129 0.8608398
vt 0.4807129 0.8891602
vt 0.4753418 0.8891602
vt 0.4807129 0.8608398
vt 0.4858398 0.8608398
vt 0.4858398 0.8891602
vt 0.4807129 0.8891602
vt 0.4858398 0.8608398
vt 0.4909668 0.8608398
vt 0.4909668 0.8891602
vt 0.4858398 0.8891602
vt 0.4909668 0.8608398
vt 0.4963379 0.8608398
vt 0.4963379 0.8891602
vt 0.4909668 0.8891602
vt 0.4963379 0.8608398
vt 0.5014648 0.8608398
vt 0.5014648 0.8891602
vt 0.4963379 0.8891602
vt 0.5014648 0.8608398
vt 0.5068359 0.8608398
vt 0.5068359 0.8891602
vt 0.5014648 0.8891602
vt 0.5068359 0.8608398
vt 0.5117188 0.8608398
vt 0.5117188 0.8891602
vt 0.5068359 0.8891602
vt 0.5117188 0.8608398
vt 0.5170898 0.8608398
vt 0.5170898 0.8891602
vt 0.5117188 0.8891602
vt 0.5170898 0.8608398
vt 0.5224609 0.8608398
vt 0.5224609 0.8891602
vt 0.5170898 0.8891602
vt 0.5224609 0.8608398
vt 0.5273438 0.8608398
vt 0.5273438 0.8891602
vt 0.5224609 0.8891602
vt 0.5327148 0.6450195
vt 0.5712891 0.6557617
vt 0.5327148 0.7226563
vt 0.5996094 0.684082
vt 0.6103516 0.7226563
vt 0.5996094 0.7612305
vt 0.5712891 0.7895508
vt 0.5327148 0.7998047
vt 0.4941406 0.7895508
vt 0.4658203 0.7612305
vt 0.4553223 0.7226563
vt 0.4658203 0.684082
vt 0.4941406 0.6557617
vt 0.4650879 0.8608398
vt 0.5224609 0.8608398
vt 0.4702148 0.8608398
vt 0.5224609 0.8608398
vt 0.4753418 0.8608398
vt 0.5224609 0.8608398
vt 0.4807129 0.8608398
vt 0.5224609 0.8608398
vt 0.4858398 0.8608398
vt 0.4858398 0.8608398
vt 0.4909668 0.8608398
vt 0.4909668 0.8608398
vt 0.5224609 0.8608398
vt 0.4963379 0.8608398
vt 0.5014648 0.8608398
vt 0.5068359 0.8608398
vt 0.5117188 0.8608398
vt 0.5170898 0.8608398
vt 0.5014648 0.8608398
vt 0.5224609 0.8608398

g rubbish_truck_fr_wheel_mesh_3662_243
usemtl rubbish_truck_fr_wheel_mesh_3662_243
usemap rubbish_truck_fr_wheel_mesh_3662_243
f 1/1/1 3/3/3 2/2/2
f 1/1/1 4/4/4 3/3/3
f 5/5/5 7/7/7 6/6/6
f 5/5/5 8/8/8 7/7/7
f 9/9/9 11/11/11 10/10/10
f 9/9/9 12/12/12 11/11/11
f 13/13/13 15/15/15 14/14/14
f 13/13/13 16/16/16 15/15/15
f 17/17/17 19/19/19 18/18/18
f 17/17/17 20/20/20 19/19/19
f 21/21/21 23/23/23 22/22/22
f 21/21/21 24/24/24 23/23/23
f 25/25/25 27/27/27 26/26/26
f 25/25/25 28/28/28 27/27/27
f 29/29/29 31/31/31 30/30/30
f 29/29/29 32/32/32 31/31/31
f 33/33/33 35/35/35 34/34/34
f 33/33/33 36/36/36 35/35/35
f 37/37/37 39/39/39 38/38/38
f 37/37/37 40/40/40 39/39/39
f 41/41/41 43/43/43 42/42/42
f 41/41/41 44/44/44 43/43/43
f 45/45/45 47/47/47 46/46/46
f 45/45/45 48/48/48 47/47/47
f 49/49/49 51/51/51 50/50/50
f 50/50/50 51/51/51 52/52/52
f 52/52/52 51/51/51 53/53/53
f 53/53/53 51/51/51 54/54/54
f 54/54/54 51/51/51 55/55/55
f 55/55/55 51/51/51 56/56/56
f 56/56/56 51/51/51 57/57/57
f 57/57/57 51/51/51 58/58/58
f 58/58/58 51/51/51 59/59/59
f 59/59/59 51/51/51 60/60/60
f 60/60/60 51/51/51 61/61/61
f 61/61/61 51/51/51 49/49/49
f 62/62/62 64/64/64 63/63/63
f 64/64/64 66/66/66 65/65/65
f 66/66/66 68/68/68 67/67/67
f 68/68/68 70/70/70 69/69/69
f 71/71/71 72/72/72 63/63/63
f 73/73/73 75/75/75 74/74/74
f 75/75/75 76/76/76 74/74/74
f 77/77/77 78/78/78 74/74/74
f 78/78/78 79/79/79 74/74/74
f 80/80/80 77/77/77 81/81/81
