#rubble_01_(2)_1796_127.obj

v 0.870248 0 -4.154265
v -0.03670824 0 -3.599137
v -0.03670824 0.2653828 -3.599137
v 0.870248 0.2653828 -4.154265
v 0.870248 0.2653828 -4.154265
v -0.03670824 0.2653828 -3.599137
v -0.5598119 0.2653828 -4.561624
v -0.5598119 0.2653828 -4.561624
v 0.244693 0.2653828 -4.645173
v 0.244693 0.2653828 -4.645173
v -0.5598119 0.2653828 -4.561624
v -0.5598119 0 -4.561624
v 0.244693 0 -4.645173
v 0.244693 0 -4.645173
v -0.5598119 0 -4.561624
v -0.03670824 0 -3.599137
v -0.03670824 0 -3.599137
v 0.870248 0 -4.154265
v -0.03670824 0 -3.599137
v -0.5598119 0 -4.561624
v -0.5598119 0.2653828 -4.561624
v -0.03670824 0.2653828 -3.599137
v 0.244693 0 -4.645173
v 0.870248 0 -4.154265
v 0.870248 0.2653828 -4.154265
v 0.244693 0.2653828 -4.645173
v -1.319959 0 -0.9646091
v -1.109058 0 4.627846
v -1.109058 0.2653828 4.627846
v -1.319959 0.2653828 -0.9646091
v -1.319959 0.2653828 -0.9646091
v -1.109058 0.2653828 4.627846
v -1.516618 0.2653828 4.645175
v -1.727521 0.2653828 -0.9473022
v -1.727521 0.2653828 -0.9473022
v -1.516618 0.2653828 4.645175
v -1.516618 0 4.645175
v -1.727521 0 -0.9473022
v -1.727521 0 -0.9473022
v -1.516618 0 4.645175
v -1.109058 0 4.627846
v -1.319959 0 -0.9646091
v -1.109058 0 4.627846
v -1.516618 0 4.645175
v -1.516618 0.2653828 4.645175
v -1.109058 0.2653828 4.627846
v -1.727521 0 -0.9473022
v -1.319959 0 -0.9646091
v -1.319959 0.2653828 -0.9646091
v -1.727521 0.2653828 -0.9473022
v 1.530472 0 1.588178
v 0.2459251 0 1.575276
v 0.2459251 0.2653828 1.575276
v 1.530472 0.2653828 1.588178
v 1.530472 0.2653828 1.588178
v 0.2459251 0.2653828 1.575276
v 0.2580854 0.2653828 0.2120696
v 1.542632 0.2653828 0.2249715
v 1.542632 0.2653828 0.2249715
v 0.2580854 0.2653828 0.2120696
v 0.2580854 0 0.2120696
v 1.542632 0 0.2249715
v 1.542632 0 0.2249715
v 0.2580854 0 0.2120696
v 0.2459251 0 1.575276
v 1.530472 0 1.588178
v 0.2459251 0 1.575276
v 0.2580854 0 0.2120696
v 0.2580854 0.2653828 0.2120696
v 0.2459251 0.2653828 1.575276
v 1.542632 0 0.2249715
v 1.530472 0 1.588178
v 1.530472 0.2653828 1.588178
v 1.542632 0.2653828 0.2249715
v -3.114268 0 2.23208
v -3.495998 0 2.690552
v -3.495998 0.2653828 2.690552
v -3.114268 0.2653828 2.23208
v -3.114268 0.2653828 2.23208
v -3.495998 0.2653828 2.690552
v -3.928004 0.2653828 2.285446
v -3.546283 0.2653828 1.82697
v -3.546283 0.2653828 1.82697
v -3.928004 0.2653828 2.285446
v -3.928004 0 2.285446
v -3.546283 0 1.82697
v -3.546283 0 1.82697
v -3.928004 0 2.285446
v -3.495998 0 2.690552
v -3.114268 0 2.23208
v -3.495998 0 2.690552
v -3.928004 0 2.285446
v -3.928004 0.2653828 2.285446
v -3.495998 0.2653828 2.690552
v -3.546283 0 1.82697
v -3.114268 0 2.23208
v -3.114268 0.2653828 2.23208
v -3.546283 0.2653828 1.82697
v 1.617063 0 2.817277
v 1.342418 0 3.14712
v 1.342418 0.2653828 3.14712
v 1.617063 0.2653828 2.817277
v 1.617063 0.2653828 2.817277
v 1.342418 0.2653828 3.14712
v 1.031597 0.2653828 2.855661
v 1.306233 0.2653828 2.525814
v 1.306233 0.2653828 2.525814
v 1.031597 0.2653828 2.855661
v 1.031597 0 2.855661
v 1.306233 0 2.525814
v 1.306233 0 2.525814
v 1.031597 0 2.855661
v 1.342418 0 3.14712
v 1.617063 0 2.817277
v 1.342418 0 3.14712
v 1.031597 0 2.855661
v 1.031597 0.2653828 2.855661
v 1.342418 0.2653828 3.14712
v 1.306233 0 2.525814
v 1.617063 0 2.817277
v 1.617063 0.2653828 2.817277
v 1.306233 0.2653828 2.525814
v 3.928001 0 -1.892298
v 1.755164 0 -0.5247483
v 1.755164 0.2653828 -0.5247483
v 3.928001 0.2653828 -1.892298
v 3.928001 0.2653828 -1.892298
v 1.755164 0.2653828 -0.5247483
v 1.551373 0.2653828 -0.8997079
v 3.724218 0.2653828 -2.267276
v 3.724218 0.2653828 -2.267276
v 1.551373 0.2653828 -0.8997079
v 1.551373 0 -0.8997079
v 3.724218 0 -2.267276
v 3.724218 0 -2.267276
v 1.551373 0 -0.8997079
v 1.755164 0 -0.5247483
v 3.928001 0 -1.892298
v 1.755164 0 -0.5247483
v 1.551373 0 -0.8997079
v 1.551373 0.2653828 -0.8997079
v 1.755164 0.2653828 -0.5247483
v 3.724218 0 -2.267276
v 3.928001 0 -1.892298
v 3.928001 0.2653828 -1.892298
v 3.724218 0.2653828 -2.267276
v 1.798597 0 -1.857391
v -2.334586 0 -1.898891
v -2.334586 0.2653828 -1.898891
v 1.798597 0.2653828 -1.857391
v 1.798597 0.2653828 -1.857391
v -2.334586 0.2653828 -1.898891
v -2.322443 0.2653828 -3.262083
v 1.81074 0.2653828 -3.220583
v 1.81074 0.2653828 -3.220583
v -2.322443 0.2653828 -3.262083
v -2.322443 0 -3.262083
v 1.81074 0 -3.220583
v 1.81074 0 -3.220583
v -2.322443 0 -3.262083
v -2.334586 0 -1.898891
v 1.798597 0 -1.857391
v -2.334586 0 -1.898891
v -2.322443 0 -3.262083
v -2.322443 0.2653828 -3.262083
v -2.334586 0.2653828 -1.898891
v 1.81074 0 -3.220583
v 1.798597 0 -1.857391
v 1.798597 0.2653828 -1.857391
v 1.81074 0.2653828 -3.220583

vn -0.5811262 0 0.8138136
vn -0.5811262 0 0.8138136
vn -0.5811262 0 0.8138136
vn -0.5811262 0 0.8138136
vn 0 0.9999999 0
vn 0 0.9999999 0
vn 0 0.9999999 0
vn 0 0.9999999 0
vn 0 0.9999999 0
vn 0.9927508 0 -0.1201905
vn 0.8752272 0 -0.4837122
vn 0.8752272 0 -0.4837122
vn 0.9927508 0 -0.1201905
vn 0 -0.9999999 0
vn 0 -0.9999999 0
vn 0 -0.9999999 0
vn 0 -0.9999999 0
vn 0 -0.9999999 0
vn -0.7828652 0 -0.6221914
vn -0.7828652 0 -0.6221914
vn -0.7828652 0 -0.6221914
vn -0.7828652 0 -0.6221914
vn 0.9927508 0 -0.1201905
vn 0.9653728 0 0.2608742
vn 0.9653728 0 0.2608742
vn 0.9927508 0 -0.1201905
vn 0.4251433 0 0.905126
vn 0.4251433 0 0.905126
vn 0.4251433 0 0.905126
vn 0.4251433 0 0.905126
vn 0 0.9999999 0
vn 0 0.9999999 0
vn 0 0.9999999 0
vn 0 0.9999999 0
vn -0.4251435 0 -0.905126
vn -0.4251435 0 -0.905126
vn -0.4251435 0 -0.905126
vn -0.4251435 0 -0.905126
vn 0 -0.9999999 0
vn 0 -0.9999999 0
vn 0 -0.9999999 0
vn 0 -0.9999999 0
vn -0.9030953 0 0.4294402
vn -0.9030953 0 0.4294402
vn -0.9030953 0 0.4294402
vn -0.9030953 0 0.4294402
vn 0.9030943 0 -0.4294422
vn 0.9030943 0 -0.4294422
vn 0.9030943 0 -0.4294422
vn 0.9030943 0 -0.4294422
vn -0.924381 0 0.3814708
vn -0.924381 0 0.3814708
vn -0.924381 0 0.3814708
vn -0.924381 0 0.3814708
vn 0 0.9999999 0
vn 0 0.9999999 0
vn 0 0.9999999 0
vn 0 0.9999999 0
vn 0.924381 0 -0.3814707
vn 0.924381 0 -0.3814707
vn 0.924381 0 -0.3814707
vn 0.924381 0 -0.3814707
vn 0 -0.9999999 0
vn 0 -0.9999999 0
vn 0 -0.9999999 0
vn 0 -0.9999999 0
vn -0.38251 0 -0.9239514
vn -0.38251 0 -0.9239514
vn -0.38251 0 -0.9239514
vn -0.38251 0 -0.9239514
vn 0.38251 0 0.9239514
vn 0.38251 0 0.9239514
vn 0.38251 0 0.9239514
vn 0.38251 0 0.9239514
vn -0.2887172 0 0.9574145
vn -0.2887172 0 0.9574145
vn -0.2887172 0 0.9574145
vn -0.2887172 0 0.9574145
vn 0 0.9999999 0
vn 0 0.9999999 0
vn 0 0.9999999 0
vn 0 0.9999999 0
vn 0.2887171 0 -0.9574145
vn 0.2887171 0 -0.9574145
vn 0.2887171 0 -0.9574145
vn 0.2887171 0 -0.9574145
vn 0 -0.9999999 0
vn 0 -0.9999999 0
vn 0 -0.9999999 0
vn 0 -0.9999999 0
vn -0.9387432 0 -0.3446175
vn -0.9387432 0 -0.3446175
vn -0.9387432 0 -0.3446175
vn -0.9387432 0 -0.3446175
vn 0.9387431 0 0.3446176
vn 0.9387431 0 0.3446176
vn 0.9387431 0 0.3446176
vn 0.9387431 0 0.3446176
vn -0.2887176 0 0.9574144
vn -0.2887176 0 0.9574144
vn -0.2887176 0 0.9574144
vn -0.2887176 0 0.9574144
vn 0 0.9999999 0
vn 0 0.9999999 0
vn 0 0.9999999 0
vn 0 0.9999999 0
vn 0.2887176 0 -0.9574144
vn 0.2887176 0 -0.9574144
vn 0.2887176 0 -0.9574144
vn 0.2887176 0 -0.9574144
vn 0 -0.9999999 0
vn 0 -0.9999999 0
vn 0 -0.9999999 0
vn 0 -0.9999999 0
vn -0.9387432 0 -0.3446173
vn -0.9387432 0 -0.3446173
vn -0.9387432 0 -0.3446173
vn -0.9387432 0 -0.3446173
vn 0.9387432 0 0.3446173
vn 0.9387432 0 0.3446173
vn 0.9387432 0 0.3446173
vn 0.9387432 0 0.3446173
vn -0.5709185 0 0.8210068
vn -0.5709185 0 0.8210068
vn -0.5709185 0 0.8210068
vn -0.5709185 0 0.8210068
vn 0 0.9999999 0
vn 0 0.9999999 0
vn 0 0.9999999 0
vn 0 0.9999999 0
vn 0.5709184 0 -0.8210069
vn 0.5709184 0 -0.8210069
vn 0.5709184 0 -0.8210069
vn 0.5709184 0 -0.8210069
vn 0 -0.9999999 0
vn 0 -0.9999999 0
vn 0 -0.9999999 0
vn 0 -0.9999999 0
vn -0.7828673 0 -0.6221888
vn -0.7828673 0 -0.6221888
vn -0.7828673 0 -0.6221888
vn -0.7828673 0 -0.6221888
vn 0.7828668 0 0.6221894
vn 0.7828668 0 0.6221894
vn 0.7828668 0 0.6221894
vn 0.7828668 0 0.6221894
vn -0.924381 0 0.3814708
vn -0.924381 0 0.3814708
vn -0.924381 0 0.3814708
vn -0.924381 0 0.3814708
vn 0 0.9999999 0
vn 0 0.9999999 0
vn 0 0.9999999 0
vn 0 0.9999999 0
vn 0.924381 0 -0.3814707
vn 0.924381 0 -0.3814707
vn 0.924381 0 -0.3814707
vn 0.924381 0 -0.3814707
vn 0 -0.9999999 0
vn 0 -0.9999999 0
vn 0 -0.9999999 0
vn 0 -0.9999999 0
vn -0.3825119 0 -0.9239506
vn -0.3825119 0 -0.9239506
vn -0.3825119 0 -0.9239506
vn -0.3825119 0 -0.9239506
vn 0.3825119 0 0.9239506
vn 0.3825119 0 0.9239506
vn 0.3825119 0 0.9239506
vn 0.3825119 0 0.9239506

vt 0.01075745 0.7524414
vt 0.01435089 0.7524414
vt 0.01435089 0.7583008
vt 0.01075745 0.7583008
vt 0.08483887 0.7558594
vt 0.08843994 0.7558594
vt 0.08843994 0.7617188
vt 0.08843994 0.7617188
vt 0.08483887 0.7617188
vt 0.01748657 0.7583008
vt 0.02107239 0.7583008
vt 0.02107239 0.7641602
vt 0.01748657 0.7641602
vt 0.1346436 0.7661133
vt 0.1383057 0.7661133
vt 0.1383057 0.7719727
vt 0.1383057 0.7719727
vt 0.1346436 0.7719727
vt 0.04620361 0.7646484
vt 0.04980469 0.7646484
vt 0.04980469 0.7705078
vt 0.04620361 0.7705078
vt 0.04989624 0.7646484
vt 0.05349731 0.7646484
vt 0.05349731 0.7705078
vt 0.04989624 0.7705078
vt 0.01075745 0.7524414
vt 0.01435089 0.7524414
vt 0.01435089 0.7583008
vt 0.01075745 0.7583008
vt 0.08483887 0.7558594
vt 0.08843994 0.7558594
vt 0.08843994 0.7617188
vt 0.08483887 0.7617188
vt 0.01748657 0.7583008
vt 0.02107239 0.7583008
vt 0.02107239 0.7641602
vt 0.01748657 0.7641602
vt 0.1346436 0.7661133
vt 0.1383057 0.7661133
vt 0.1383057 0.7719727
vt 0.1346436 0.7719727
vt 0.04620361 0.7646484
vt 0.04980469 0.7646484
vt 0.04980469 0.7705078
vt 0.04620361 0.7705078
vt 0.04989624 0.7646484
vt 0.05349731 0.7646484
vt 0.05349731 0.7705078
vt 0.04989624 0.7705078
vt 0.01075745 0.7524414
vt 0.01435089 0.7524414
vt 0.01435089 0.7583008
vt 0.01075745 0.7583008
vt 0.08483887 0.7558594
vt 0.08843994 0.7558594
vt 0.08843994 0.7617188
vt 0.08483887 0.7617188
vt 0.01748657 0.7583008
vt 0.02107239 0.7583008
vt 0.02107239 0.7641602
vt 0.01748657 0.7641602
vt 0.1346436 0.7661133
vt 0.1383057 0.7661133
vt 0.1383057 0.7719727
vt 0.1346436 0.7719727
vt 0.04620361 0.7646484
vt 0.04980469 0.7646484
vt 0.04980469 0.7705078
vt 0.04620361 0.7705078
vt 0.04989624 0.7646484
vt 0.05349731 0.7646484
vt 0.05349731 0.7705078
vt 0.04989624 0.7705078
vt 0.01075745 0.7524414
vt 0.01435089 0.7524414
vt 0.01435089 0.7583008
vt 0.01075745 0.7583008
vt 0.08483887 0.7558594
vt 0.08843994 0.7558594
vt 0.08843994 0.7617188
vt 0.08483887 0.7617188
vt 0.01748657 0.7583008
vt 0.02107239 0.7583008
vt 0.02107239 0.7641602
vt 0.01748657 0.7641602
vt 0.1346436 0.7661133
vt 0.1383057 0.7661133
vt 0.1383057 0.7719727
vt 0.1346436 0.7719727
vt 0.04620361 0.7646484
vt 0.04980469 0.7646484
vt 0.04980469 0.7705078
vt 0.04620361 0.7705078
vt 0.04989624 0.7646484
vt 0.05349731 0.7646484
vt 0.05349731 0.7705078
vt 0.04989624 0.7705078
vt 0.01075745 0.7524414
vt 0.01435089 0.7524414
vt 0.01435089 0.7583008
vt 0.01075745 0.7583008
vt 0.08483887 0.7558594
vt 0.08843994 0.7558594
vt 0.08843994 0.7617188
vt 0.08483887 0.7617188
vt 0.01748657 0.7583008
vt 0.02107239 0.7583008
vt 0.02107239 0.7641602
vt 0.01748657 0.7641602
vt 0.1346436 0.7661133
vt 0.1383057 0.7661133
vt 0.1383057 0.7719727
vt 0.1346436 0.7719727
vt 0.04620361 0.7646484
vt 0.04980469 0.7646484
vt 0.04980469 0.7705078
vt 0.04620361 0.7705078
vt 0.04989624 0.7646484
vt 0.05349731 0.7646484
vt 0.05349731 0.7705078
vt 0.04989624 0.7705078
vt 0.01075745 0.7524414
vt 0.01435089 0.7524414
vt 0.01435089 0.7583008
vt 0.01075745 0.7583008
vt 0.08483887 0.7558594
vt 0.08843994 0.7558594
vt 0.08843994 0.7617188
vt 0.08483887 0.7617188
vt 0.01748657 0.7583008
vt 0.02107239 0.7583008
vt 0.02107239 0.7641602
vt 0.01748657 0.7641602
vt 0.1346436 0.7661133
vt 0.1383057 0.7661133
vt 0.1383057 0.7719727
vt 0.1346436 0.7719727
vt 0.04620361 0.7646484
vt 0.04980469 0.7646484
vt 0.04980469 0.7705078
vt 0.04620361 0.7705078
vt 0.04989624 0.7646484
vt 0.05349731 0.7646484
vt 0.05349731 0.7705078
vt 0.04989624 0.7705078
vt 0.01075745 0.7524414
vt 0.01435089 0.7524414
vt 0.01435089 0.7583008
vt 0.01075745 0.7583008
vt 0.08483887 0.7558594
vt 0.08843994 0.7558594
vt 0.08843994 0.7617188
vt 0.08483887 0.7617188
vt 0.01748657 0.7583008
vt 0.02107239 0.7583008
vt 0.02107239 0.7641602
vt 0.01748657 0.7641602
vt 0.1346436 0.7661133
vt 0.1383057 0.7661133
vt 0.1383057 0.7719727
vt 0.1346436 0.7719727
vt 0.04620361 0.7646484
vt 0.04980469 0.7646484
vt 0.04980469 0.7705078
vt 0.04620361 0.7705078
vt 0.04989624 0.7646484
vt 0.05349731 0.7646484
vt 0.05349731 0.7705078
vt 0.04989624 0.7705078

g rubble_01_(2)_1796_127
usemtl rubble_01_(2)_1796_127
usemap rubble_01_(2)_1796_127
f 1/1/1 3/3/3 2/2/2
f 1/1/1 4/4/4 3/3/3
f 5/5/5 7/7/7 6/6/6
f 5/5/5 9/9/9 8/8/8
f 10/10/10 12/12/12 11/11/11
f 10/10/10 13/13/13 12/12/12
f 14/14/14 16/16/16 15/15/15
f 14/14/14 18/18/18 17/17/17
f 19/19/19 21/21/21 20/20/20
f 19/19/19 22/22/22 21/21/21
f 23/23/23 25/25/25 24/24/24
f 23/23/23 26/26/26 25/25/25
f 27/27/27 29/29/29 28/28/28
f 27/27/27 30/30/30 29/29/29
f 31/31/31 33/33/33 32/32/32
f 31/31/31 34/34/34 33/33/33
f 35/35/35 37/37/37 36/36/36
f 35/35/35 38/38/38 37/37/37
f 39/39/39 41/41/41 40/40/40
f 39/39/39 42/42/42 41/41/41
f 43/43/43 45/45/45 44/44/44
f 43/43/43 46/46/46 45/45/45
f 47/47/47 49/49/49 48/48/48
f 47/47/47 50/50/50 49/49/49
f 51/51/51 53/53/53 52/52/52
f 51/51/51 54/54/54 53/53/53
f 55/55/55 57/57/57 56/56/56
f 55/55/55 58/58/58 57/57/57
f 59/59/59 61/61/61 60/60/60
f 59/59/59 62/62/62 61/61/61
f 63/63/63 65/65/65 64/64/64
f 63/63/63 66/66/66 65/65/65
f 67/67/67 69/69/69 68/68/68
f 67/67/67 70/70/70 69/69/69
f 71/71/71 73/73/73 72/72/72
f 71/71/71 74/74/74 73/73/73
f 75/75/75 77/77/77 76/76/76
f 75/75/75 78/78/78 77/77/77
f 79/79/79 81/81/81 80/80/80
f 79/79/79 82/82/82 81/81/81
f 83/83/83 85/85/85 84/84/84
f 83/83/83 86/86/86 85/85/85
f 87/87/87 89/89/89 88/88/88
f 87/87/87 90/90/90 89/89/89
f 91/91/91 93/93/93 92/92/92
f 91/91/91 94/94/94 93/93/93
f 95/95/95 97/97/97 96/96/96
f 95/95/95 98/98/98 97/97/97
f 99/99/99 101/101/101 100/100/100
f 99/99/99 102/102/102 101/101/101
f 103/103/103 105/105/105 104/104/104
f 103/103/103 106/106/106 105/105/105
f 107/107/107 109/109/109 108/108/108
f 107/107/107 110/110/110 109/109/109
f 111/111/111 113/113/113 112/112/112
f 111/111/111 114/114/114 113/113/113
f 115/115/115 117/117/117 116/116/116
f 115/115/115 118/118/118 117/117/117
f 119/119/119 121/121/121 120/120/120
f 119/119/119 122/122/122 121/121/121
f 123/123/123 125/125/125 124/124/124
f 123/123/123 126/126/126 125/125/125
f 127/127/127 129/129/129 128/128/128
f 127/127/127 130/130/130 129/129/129
f 131/131/131 133/133/133 132/132/132
f 131/131/131 134/134/134 133/133/133
f 135/135/135 137/137/137 136/136/136
f 135/135/135 138/138/138 137/137/137
f 139/139/139 141/141/141 140/140/140
f 139/139/139 142/142/142 141/141/141
f 143/143/143 145/145/145 144/144/144
f 143/143/143 146/146/146 145/145/145
f 147/147/147 149/149/149 148/148/148
f 147/147/147 150/150/150 149/149/149
f 151/151/151 153/153/153 152/152/152
f 151/151/151 154/154/154 153/153/153
f 155/155/155 157/157/157 156/156/156
f 155/155/155 158/158/158 157/157/157
f 159/159/159 161/161/161 160/160/160
f 159/159/159 162/162/162 161/161/161
f 163/163/163 165/165/165 164/164/164
f 163/163/163 166/166/166 165/165/165
f 167/167/167 169/169/169 168/168/168
f 167/167/167 170/170/170 169/169/169
