#rubble_01_(1)_1779_128.obj

v 0.8702602 0 -4.154272
v -0.03671545 0 -3.599135
v -0.03671545 0.2653828 -3.599135
v 0.8702602 0.2653828 -4.154272
v 0.8702602 0.2653828 -4.154272
v -0.03671545 0.2653828 -3.599135
v -0.5598174 0.2653828 -4.561625
v -0.5598174 0.2653828 -4.561625
v 0.2446846 0.2653828 -4.645162
v 0.2446846 0.2653828 -4.645162
v -0.5598174 0.2653828 -4.561625
v -0.5598174 0 -4.561625
v 0.2446846 0 -4.645162
v 0.2446846 0 -4.645162
v -0.5598174 0 -4.561625
v -0.03671545 0 -3.599135
v -0.03671545 0 -3.599135
v 0.8702602 0 -4.154272
v -0.03671545 0 -3.599135
v -0.5598174 0 -4.561625
v -0.5598174 0.2653828 -4.561625
v -0.03671545 0.2653828 -3.599135
v 0.2446846 0 -4.645162
v 0.8702602 0 -4.154272
v 0.8702602 0.2653828 -4.154272
v 0.2446846 0.2653828 -4.645162
v -1.31997 0 -0.9646097
v -1.109058 0 4.627854
v -1.109058 0.2653828 4.627854
v -1.31997 0.2653828 -0.9646097
v -1.31997 0.2653828 -0.9646097
v -1.109058 0.2653828 4.627854
v -1.516617 0.2653828 4.645162
v -1.72753 0.2653828 -0.9473018
v -1.72753 0.2653828 -0.9473018
v -1.516617 0.2653828 4.645162
v -1.516617 0 4.645162
v -1.72753 0 -0.9473018
v -1.72753 0 -0.9473018
v -1.516617 0 4.645162
v -1.109058 0 4.627854
v -1.31997 0 -0.9646097
v -1.109058 0 4.627854
v -1.516617 0 4.645162
v -1.516617 0.2653828 4.645162
v -1.109058 0.2653828 4.627854
v -1.72753 0 -0.9473018
v -1.31997 0 -0.9646097
v -1.31997 0.2653828 -0.9646097
v -1.72753 0.2653828 -0.9473018
v 1.530471 0 1.588174
v 0.2459209 0 1.575271
v 0.2459209 0.2653828 1.575271
v 1.530471 0.2653828 1.588174
v 1.530471 0.2653828 1.588174
v 0.2459209 0.2653828 1.575271
v 0.2580875 0.2653828 0.2120705
v 1.542638 0.2653828 0.2249729
v 1.542638 0.2653828 0.2249729
v 0.2580875 0.2653828 0.2120705
v 0.2580875 0 0.2120705
v 1.542638 0 0.2249729
v 1.542638 0 0.2249729
v 0.2580875 0 0.2120705
v 0.2459209 0 1.575271
v 1.530471 0 1.588174
v 0.2459209 0 1.575271
v 0.2580875 0 0.2120705
v 0.2580875 0.2653828 0.2120705
v 0.2459209 0.2653828 1.575271
v 1.542638 0 0.2249729
v 1.530471 0 1.588174
v 1.530471 0.2653828 1.588174
v 1.542638 0.2653828 0.2249729
v -3.114259 0 2.232078
v -3.495994 0 2.69055
v -3.495994 0.2653828 2.69055
v -3.114259 0.2653828 2.232078
v -3.114259 0.2653828 2.232078
v -3.495994 0.2653828 2.69055
v -3.928004 0.2653828 2.285444
v -3.546289 0.2653828 1.826971
v -3.546289 0.2653828 1.826971
v -3.928004 0.2653828 2.285444
v -3.928004 0 2.285444
v -3.546289 0 1.826971
v -3.546289 0 1.826971
v -3.928004 0 2.285444
v -3.495994 0 2.69055
v -3.114259 0 2.232078
v -3.495994 0 2.69055
v -3.928004 0 2.285444
v -3.928004 0.2653828 2.285444
v -3.495994 0.2653828 2.69055
v -3.546289 0 1.826971
v -3.114259 0 2.232078
v -3.114259 0.2653828 2.232078
v -3.546289 0.2653828 1.826971
v 1.617069 0 2.817268
v 1.34242 0 3.147128
v 1.34242 0.2653828 3.147128
v 1.617069 0.2653828 2.817268
v 1.617069 0.2653828 2.817268
v 1.34242 0.2653828 3.147128
v 1.031585 0.2653828 2.855661
v 1.306234 0.2653828 2.525811
v 1.306234 0.2653828 2.525811
v 1.031585 0.2653828 2.855661
v 1.031585 0 2.855661
v 1.306234 0 2.525811
v 1.306234 0 2.525811
v 1.031585 0 2.855661
v 1.34242 0 3.147128
v 1.617069 0 2.817268
v 1.34242 0 3.147128
v 1.031585 0 2.855661
v 1.031585 0.2653828 2.855661
v 1.34242 0.2653828 3.147128
v 1.306234 0 2.525811
v 1.617069 0 2.817268
v 1.617069 0.2653828 2.817268
v 1.306234 0.2653828 2.525811
v 3.928004 0 -1.892308
v 1.755159 0 -0.5247504
v 1.755159 0.2653828 -0.5247504
v 3.928004 0.2653828 -1.892308
v 3.928004 0.2653828 -1.892308
v 1.755159 0.2653828 -0.5247504
v 1.55137 0.2653828 -0.8997149
v 3.724214 0.2653828 -2.267272
v 3.724214 0.2653828 -2.267272
v 1.55137 0.2653828 -0.8997149
v 1.55137 0 -0.8997149
v 3.724214 0 -2.267272
v 3.724214 0 -2.267272
v 1.55137 0 -0.8997149
v 1.755159 0 -0.5247504
v 3.928004 0 -1.892308
v 1.755159 0 -0.5247504
v 1.55137 0 -0.8997149
v 1.55137 0.2653828 -0.8997149
v 1.755159 0.2653828 -0.5247504
v 3.724214 0 -2.267272
v 3.928004 0 -1.892308
v 3.928004 0.2653828 -1.892308
v 3.724214 0.2653828 -2.267272
v 1.798606 0 -1.857388
v -2.3346 0 -1.898882
v -2.3346 0.2653828 -1.898882
v 1.798606 0.2653828 -1.857388
v 1.798606 0.2653828 -1.857388
v -2.3346 0.2653828 -1.898882
v -2.322434 0.2653828 -3.262082
v 1.810753 0.2653828 -3.220589
v 1.810753 0.2653828 -3.220589
v -2.322434 0.2653828 -3.262082
v -2.322434 0 -3.262082
v 1.810753 0 -3.220589
v 1.810753 0 -3.220589
v -2.322434 0 -3.262082
v -2.3346 0 -1.898882
v 1.798606 0 -1.857388
v -2.3346 0 -1.898882
v -2.322434 0 -3.262082
v -2.322434 0.2653828 -3.262082
v -2.3346 0.2653828 -1.898882
v 1.810753 0 -3.220589
v 1.798606 0 -1.857388
v 1.798606 0.2653828 -1.857388
v 1.810753 0.2653828 -3.220589

vn 0.5220551 0 0.8529118
vn 0.5220551 0 0.8529118
vn 0.5220551 0 0.8529118
vn 0.5220551 0 0.8529118
vn 0 1 0
vn 0 1 0
vn 0 1 0
vn 0 1 0
vn 0 1 0
vn 0.2772629 0 -0.960794
vn -0.1032807 0 -0.9946523
vn -0.1032807 0 -0.9946523
vn 0.2772629 0 -0.960794
vn 0 -1 0
vn 0 -1 0
vn 0 -1 0
vn 0 -1 0
vn 0 -1 0
vn -0.8786201 0 0.4775214
vn -0.8786201 0 0.4775214
vn -0.8786201 0 0.4775214
vn -0.8786201 0 0.4775214
vn 0.2772629 0 -0.960794
vn 0.6173373 0 -0.7866986
vn 0.6173373 0 -0.7866986
vn 0.2772629 0 -0.960794
vn 0.9992896 0 -0.03768541
vn 0.9992896 0 -0.03768541
vn 0.9992896 0 -0.03768541
vn 0.9992896 0 -0.03768541
vn 0 1 0
vn 0 1 0
vn 0 1 0
vn 0 1 0
vn -0.9992896 0 0.03768559
vn -0.9992896 0 0.03768559
vn -0.9992896 0 0.03768559
vn -0.9992896 0 0.03768559
vn 0 -1 0
vn 0 -1 0
vn 0 -1 0
vn 0 -1 0
vn 0.04243413 0 0.9990993
vn 0.04243413 0 0.9990993
vn 0.04243413 0 0.9990993
vn 0.04243413 0 0.9990993
vn -0.04243637 0 -0.9990991
vn -0.04243637 0 -0.9990991
vn -0.04243637 0 -0.9990991
vn -0.04243637 0 -0.9990991
vn -0.01003889 0 0.9999497
vn -0.01003889 0 0.9999497
vn -0.01003889 0 0.9999497
vn -0.01003889 0 0.9999497
vn 0 1 0
vn 0 1 0
vn 0 1 0
vn 0 1 0
vn 0.01003893 0 -0.9999497
vn 0.01003893 0 -0.9999497
vn 0.01003893 0 -0.9999497
vn 0.01003893 0 -0.9999497
vn 0 -1 0
vn 0 -1 0
vn 0 -1 0
vn 0 -1 0
vn -0.9999603 0 -0.008914464
vn -0.9999603 0 -0.008914464
vn -0.9999603 0 -0.008914464
vn -0.9999603 0 -0.008914464
vn 0.9999603 0 0.008914465
vn 0.9999603 0 0.008914465
vn 0.9999603 0 0.008914465
vn 0.9999603 0 0.008914465
vn 0.7684938 0 0.6398573
vn 0.7684938 0 0.6398573
vn 0.7684938 0 0.6398573
vn 0.7684938 0 0.6398573
vn 0 1 0
vn 0 1 0
vn 0 1 0
vn 0 1 0
vn -0.7684938 0 -0.6398572
vn -0.7684938 0 -0.6398572
vn -0.7684938 0 -0.6398572
vn -0.7684938 0 -0.6398572
vn 0 -1 0
vn 0 -1 0
vn 0 -1 0
vn 0 -1 0
vn -0.6840184 0 0.7294648
vn -0.6840184 0 0.7294648
vn -0.6840184 0 0.7294648
vn -0.6840184 0 0.7294648
vn 0.6840184 0 -0.7294647
vn 0.6840184 0 -0.7294647
vn 0.6840184 0 -0.7294647
vn 0.6840184 0 -0.7294647
vn 0.7684935 0 0.6398576
vn 0.7684935 0 0.6398576
vn 0.7684935 0 0.6398576
vn 0.7684935 0 0.6398576
vn 0 1 0
vn 0 1 0
vn 0 1 0
vn 0 1 0
vn -0.7684935 0 -0.6398576
vn -0.7684935 0 -0.6398576
vn -0.7684935 0 -0.6398576
vn -0.7684935 0 -0.6398576
vn 0 -1 0
vn 0 -1 0
vn 0 -1 0
vn 0 -1 0
vn -0.6840183 0 0.7294648
vn -0.6840183 0 0.7294648
vn -0.6840183 0 0.7294648
vn -0.6840183 0 0.7294648
vn 0.6840183 0 -0.7294648
vn 0.6840183 0 -0.7294648
vn 0.6840183 0 -0.7294648
vn 0.6840183 0 -0.7294648
vn 0.532665 0 0.8463262
vn 0.532665 0 0.8463262
vn 0.532665 0 0.8463262
vn 0.532665 0 0.8463262
vn 0 1 0
vn 0 1 0
vn 0 1 0
vn 0 1 0
vn -0.5326651 0 -0.8463262
vn -0.5326651 0 -0.8463262
vn -0.5326651 0 -0.8463262
vn -0.5326651 0 -0.8463262
vn 0 -1 0
vn 0 -1 0
vn 0 -1 0
vn 0 -1 0
vn -0.8786185 0 0.4775245
vn -0.8786185 0 0.4775245
vn -0.8786185 0 0.4775245
vn -0.8786185 0 0.4775245
vn 0.8786188 0 -0.4775238
vn 0.8786188 0 -0.4775238
vn 0.8786188 0 -0.4775238
vn 0.8786188 0 -0.4775238
vn -0.01003886 0 0.9999497
vn -0.01003886 0 0.9999497
vn -0.01003886 0 0.9999497
vn -0.01003886 0 0.9999497
vn 0 1 0
vn 0 1 0
vn 0 1 0
vn 0 1 0
vn 0.01003892 0 -0.9999497
vn 0.01003892 0 -0.9999497
vn 0.01003892 0 -0.9999497
vn 0.01003892 0 -0.9999497
vn 0 -1 0
vn 0 -1 0
vn 0 -1 0
vn 0 -1 0
vn -0.9999603 0 -0.008912365
vn -0.9999603 0 -0.008912365
vn -0.9999603 0 -0.008912365
vn -0.9999603 0 -0.008912365
vn 0.9999603 0 0.008912366
vn 0.9999603 0 0.008912366
vn 0.9999603 0 0.008912366
vn 0.9999603 0 0.008912366

vt 0.01075745 0.7524414
vt 0.01435089 0.7524414
vt 0.01435089 0.7583008
vt 0.01075745 0.7583008
vt 0.08483887 0.7558594
vt 0.08843994 0.7558594
vt 0.08843994 0.7617188
vt 0.08843994 0.7617188
vt 0.08483887 0.7617188
vt 0.01748657 0.7583008
vt 0.02107239 0.7583008
vt 0.02107239 0.7641602
vt 0.01748657 0.7641602
vt 0.1346436 0.7661133
vt 0.1383057 0.7661133
vt 0.1383057 0.7719727
vt 0.1383057 0.7719727
vt 0.1346436 0.7719727
vt 0.04620361 0.7646484
vt 0.04980469 0.7646484
vt 0.04980469 0.7705078
vt 0.04620361 0.7705078
vt 0.04989624 0.7646484
vt 0.05349731 0.7646484
vt 0.05349731 0.7705078
vt 0.04989624 0.7705078
vt 0.01075745 0.7524414
vt 0.01435089 0.7524414
vt 0.01435089 0.7583008
vt 0.01075745 0.7583008
vt 0.08483887 0.7558594
vt 0.08843994 0.7558594
vt 0.08843994 0.7617188
vt 0.08483887 0.7617188
vt 0.01748657 0.7583008
vt 0.02107239 0.7583008
vt 0.02107239 0.7641602
vt 0.01748657 0.7641602
vt 0.1346436 0.7661133
vt 0.1383057 0.7661133
vt 0.1383057 0.7719727
vt 0.1346436 0.7719727
vt 0.04620361 0.7646484
vt 0.04980469 0.7646484
vt 0.04980469 0.7705078
vt 0.04620361 0.7705078
vt 0.04989624 0.7646484
vt 0.05349731 0.7646484
vt 0.05349731 0.7705078
vt 0.04989624 0.7705078
vt 0.01075745 0.7524414
vt 0.01435089 0.7524414
vt 0.01435089 0.7583008
vt 0.01075745 0.7583008
vt 0.08483887 0.7558594
vt 0.08843994 0.7558594
vt 0.08843994 0.7617188
vt 0.08483887 0.7617188
vt 0.01748657 0.7583008
vt 0.02107239 0.7583008
vt 0.02107239 0.7641602
vt 0.01748657 0.7641602
vt 0.1346436 0.7661133
vt 0.1383057 0.7661133
vt 0.1383057 0.7719727
vt 0.1346436 0.7719727
vt 0.04620361 0.7646484
vt 0.04980469 0.7646484
vt 0.04980469 0.7705078
vt 0.04620361 0.7705078
vt 0.04989624 0.7646484
vt 0.05349731 0.7646484
vt 0.05349731 0.7705078
vt 0.04989624 0.7705078
vt 0.01075745 0.7524414
vt 0.01435089 0.7524414
vt 0.01435089 0.7583008
vt 0.01075745 0.7583008
vt 0.08483887 0.7558594
vt 0.08843994 0.7558594
vt 0.08843994 0.7617188
vt 0.08483887 0.7617188
vt 0.01748657 0.7583008
vt 0.02107239 0.7583008
vt 0.02107239 0.7641602
vt 0.01748657 0.7641602
vt 0.1346436 0.7661133
vt 0.1383057 0.7661133
vt 0.1383057 0.7719727
vt 0.1346436 0.7719727
vt 0.04620361 0.7646484
vt 0.04980469 0.7646484
vt 0.04980469 0.7705078
vt 0.04620361 0.7705078
vt 0.04989624 0.7646484
vt 0.05349731 0.7646484
vt 0.05349731 0.7705078
vt 0.04989624 0.7705078
vt 0.01075745 0.7524414
vt 0.01435089 0.7524414
vt 0.01435089 0.7583008
vt 0.01075745 0.7583008
vt 0.08483887 0.7558594
vt 0.08843994 0.7558594
vt 0.08843994 0.7617188
vt 0.08483887 0.7617188
vt 0.01748657 0.7583008
vt 0.02107239 0.7583008
vt 0.02107239 0.7641602
vt 0.01748657 0.7641602
vt 0.1346436 0.7661133
vt 0.1383057 0.7661133
vt 0.1383057 0.7719727
vt 0.1346436 0.7719727
vt 0.04620361 0.7646484
vt 0.04980469 0.7646484
vt 0.04980469 0.7705078
vt 0.04620361 0.7705078
vt 0.04989624 0.7646484
vt 0.05349731 0.7646484
vt 0.05349731 0.7705078
vt 0.04989624 0.7705078
vt 0.01075745 0.7524414
vt 0.01435089 0.7524414
vt 0.01435089 0.7583008
vt 0.01075745 0.7583008
vt 0.08483887 0.7558594
vt 0.08843994 0.7558594
vt 0.08843994 0.7617188
vt 0.08483887 0.7617188
vt 0.01748657 0.7583008
vt 0.02107239 0.7583008
vt 0.02107239 0.7641602
vt 0.01748657 0.7641602
vt 0.1346436 0.7661133
vt 0.1383057 0.7661133
vt 0.1383057 0.7719727
vt 0.1346436 0.7719727
vt 0.04620361 0.7646484
vt 0.04980469 0.7646484
vt 0.04980469 0.7705078
vt 0.04620361 0.7705078
vt 0.04989624 0.7646484
vt 0.05349731 0.7646484
vt 0.05349731 0.7705078
vt 0.04989624 0.7705078
vt 0.01075745 0.7524414
vt 0.01435089 0.7524414
vt 0.01435089 0.7583008
vt 0.01075745 0.7583008
vt 0.08483887 0.7558594
vt 0.08843994 0.7558594
vt 0.08843994 0.7617188
vt 0.08483887 0.7617188
vt 0.01748657 0.7583008
vt 0.02107239 0.7583008
vt 0.02107239 0.7641602
vt 0.01748657 0.7641602
vt 0.1346436 0.7661133
vt 0.1383057 0.7661133
vt 0.1383057 0.7719727
vt 0.1346436 0.7719727
vt 0.04620361 0.7646484
vt 0.04980469 0.7646484
vt 0.04980469 0.7705078
vt 0.04620361 0.7705078
vt 0.04989624 0.7646484
vt 0.05349731 0.7646484
vt 0.05349731 0.7705078
vt 0.04989624 0.7705078

g rubble_01_(1)_1779_128
usemtl rubble_01_(1)_1779_128
usemap rubble_01_(1)_1779_128
f 1/1/1 3/3/3 2/2/2
f 1/1/1 4/4/4 3/3/3
f 5/5/5 7/7/7 6/6/6
f 5/5/5 9/9/9 8/8/8
f 10/10/10 12/12/12 11/11/11
f 10/10/10 13/13/13 12/12/12
f 14/14/14 16/16/16 15/15/15
f 14/14/14 18/18/18 17/17/17
f 19/19/19 21/21/21 20/20/20
f 19/19/19 22/22/22 21/21/21
f 23/23/23 25/25/25 24/24/24
f 23/23/23 26/26/26 25/25/25
f 27/27/27 29/29/29 28/28/28
f 27/27/27 30/30/30 29/29/29
f 31/31/31 33/33/33 32/32/32
f 31/31/31 34/34/34 33/33/33
f 35/35/35 37/37/37 36/36/36
f 35/35/35 38/38/38 37/37/37
f 39/39/39 41/41/41 40/40/40
f 39/39/39 42/42/42 41/41/41
f 43/43/43 45/45/45 44/44/44
f 43/43/43 46/46/46 45/45/45
f 47/47/47 49/49/49 48/48/48
f 47/47/47 50/50/50 49/49/49
f 51/51/51 53/53/53 52/52/52
f 51/51/51 54/54/54 53/53/53
f 55/55/55 57/57/57 56/56/56
f 55/55/55 58/58/58 57/57/57
f 59/59/59 61/61/61 60/60/60
f 59/59/59 62/62/62 61/61/61
f 63/63/63 65/65/65 64/64/64
f 63/63/63 66/66/66 65/65/65
f 67/67/67 69/69/69 68/68/68
f 67/67/67 70/70/70 69/69/69
f 71/71/71 73/73/73 72/72/72
f 71/71/71 74/74/74 73/73/73
f 75/75/75 77/77/77 76/76/76
f 75/75/75 78/78/78 77/77/77
f 79/79/79 81/81/81 80/80/80
f 79/79/79 82/82/82 81/81/81
f 83/83/83 85/85/85 84/84/84
f 83/83/83 86/86/86 85/85/85
f 87/87/87 89/89/89 88/88/88
f 87/87/87 90/90/90 89/89/89
f 91/91/91 93/93/93 92/92/92
f 91/91/91 94/94/94 93/93/93
f 95/95/95 97/97/97 96/96/96
f 95/95/95 98/98/98 97/97/97
f 99/99/99 101/101/101 100/100/100
f 99/99/99 102/102/102 101/101/101
f 103/103/103 105/105/105 104/104/104
f 103/103/103 106/106/106 105/105/105
f 107/107/107 109/109/109 108/108/108
f 107/107/107 110/110/110 109/109/109
f 111/111/111 113/113/113 112/112/112
f 111/111/111 114/114/114 113/113/113
f 115/115/115 117/117/117 116/116/116
f 115/115/115 118/118/118 117/117/117
f 119/119/119 121/121/121 120/120/120
f 119/119/119 122/122/122 121/121/121
f 123/123/123 125/125/125 124/124/124
f 123/123/123 126/126/126 125/125/125
f 127/127/127 129/129/129 128/128/128
f 127/127/127 130/130/130 129/129/129
f 131/131/131 133/133/133 132/132/132
f 131/131/131 134/134/134 133/133/133
f 135/135/135 137/137/137 136/136/136
f 135/135/135 138/138/138 137/137/137
f 139/139/139 141/141/141 140/140/140
f 139/139/139 142/142/142 141/141/141
f 143/143/143 145/145/145 144/144/144
f 143/143/143 146/146/146 145/145/145
f 147/147/147 149/149/149 148/148/148
f 147/147/147 150/150/150 149/149/149
f 151/151/151 153/153/153 152/152/152
f 151/151/151 154/154/154 153/153/153
f 155/155/155 157/157/157 156/156/156
f 155/155/155 158/158/158 157/157/157
f 159/159/159 161/161/161 160/160/160
f 159/159/159 162/162/162 161/161/161
f 163/163/163 165/165/165 164/164/164
f 163/163/163 166/166/166 165/165/165
f 167/167/167 169/169/169 168/168/168
f 167/167/167 170/170/170 169/169/169
