#SA_Prop_Barrier_01_1417_216.obj

v 0.1990967 0.8705826 -0.2191772
v 0.1990967 1.076828 -0.2191772
v 0.1990967 1.076828 -0.6903687
v 0.1990967 0.8705826 -0.6903687
v -0.1990967 1.099014 1.226929
v -0.1990967 1.696793 1.226929
v 0.1990967 1.696793 1.226929
v 0.1990967 1.099014 1.226929
v -0.1990967 1.696793 1.226929
v -0.1990967 1.696793 -1.226929
v 0.04278564 1.696793 -1.226929
v 0.1990967 1.696793 -1.05188
v 0.1990967 1.696793 1.226929
v -0.1990967 1.099014 -1.226929
v -0.1990967 1.696793 -1.226929
v -0.1990967 1.696793 1.226929
v -0.1990967 1.099014 1.226929
v 0.3480835 0.5213547 -1.226929
v 0.1990967 0.8483963 -1.226929
v 0.3049316 0.4806824 -1.226929
v -0.1990967 0.8483963 -1.226929
v -0.1990967 1.099014 -1.226929
v 0.1990967 1.099014 -1.226929
v 0.3070679 0.4256439 -1.226929
v 0.40271 0.1705513 -1.226929
v 0.2766724 0.07156897 -1.226929
v 0.3646851 0.1027193 -1.226929
v -0.09265137 0.1268892 -1.226929
v -0.06445313 0.04013443 -1.226929
v 0.05133057 0 -1.226929
v 0.2766724 0 -1.226929
v -0.25177 0.2378998 -1.226929
v -0.2681885 0.3639221 -1.226929
v -0.3620605 0.4906616 -1.226929
v 0.402771 0.4013023 -1.226929
v 0.5 0.1879158 -1.226929
v 0.5 0.1477499 -1.226929
v -0.1990967 0.8483963 1.226929
v -0.5 0.1879158 1.226929
v -0.5 0.1879158 -0.06860352
v -0.4758911 0.2407722 -0.1760254
v -0.4602661 0.2751503 -1.025635
v -0.3620605 0.4906616 -1.100037
v -0.3620605 0.4906616 -1.226929
v -0.1990967 0.8483963 -1.226929
v -0.5 0.1879158 -0.7327881
v -0.5 0.1879158 -0.4189453
v -0.5 0.1879158 1.226929
v -0.5 0 1.226929
v -0.5 0 -0.5095215
v -0.5 0.1003151 -0.1323853
v -0.5 0.08915615 -0.6629028
v -0.5 0.1879158 -0.06860352
v -0.5 0.100316 -0.2215576
v -0.5 0.1879158 -0.7327881
v -0.5 0.1879158 -0.4189453
v 0.5 0.109602 -0.9123535
v 0.5 0.05678129 -0.8831177
v 0.5 0.06365681 -0.4863281
v 0.5 0.1879158 1.226929
v 0.5 0 1.226929
v 0.5 0 -0.3141479
v 0.5 0.1879158 -1.226929
v 0.5 0.1477499 -1.226929
v -0.1990967 0.8483963 -1.226929
v -0.1990967 1.099014 -1.226929
v -0.1990967 1.099014 1.226929
v -0.1990967 0.8483963 1.226929
v -0.1990967 0.8483963 1.226929
v -0.1990967 1.099014 1.226929
v 0.1990967 1.099014 1.226929
v 0.1990967 0.8483963 1.226929
v -0.5 0.1879158 1.226929
v 0.5 0.1879158 1.226929
v 0.5 0 1.226929
v -0.5 0 1.226929
v -0.1990967 1.099014 -1.226929
v 0.1990967 1.099014 -1.226929
v 0.1990967 1.465439 -1.226929
v 0.04278564 1.696793 -1.226929
v -0.1990967 1.696793 -1.226929
v 0.04278564 1.696793 -1.226929
v 0.1990967 1.465439 -1.226929
v 0.1990967 1.696793 -1.05188
v 0.5 0 -1.226929
v 0.5 0 -0.3141479
v 0.5 0.05678129 -0.8831177
v 0.5 0.1477499 -1.226929
v 0.5 0.109602 -0.9123535
v 0.5 0.06365681 -0.4863281
v 0.2766724 0 -1.226929
v 0.5 0 -1.226929
v 0.5 0.1477499 -1.226929
v 0.3646851 0.1027193 -1.226929
v 0.40271 0.1705513 -1.226929
v 0.2766724 0.07156897 -1.226929
v -0.5 0.1879158 -0.06860352
v -0.5 0.1003151 -0.1323853
v -0.5 0.100316 -0.2215576
v -0.5 0.1879158 -0.4189453
v -0.5 0.1879158 -0.4189453
v -0.4758911 0.2407722 -0.1760254
v -0.5 0.1879158 -0.06860352
v 0.402771 0.4013023 -1.226929
v 0.5 0.1879158 -1.226929
v 0.5 0.1879158 1.226929
v 0.402832 0.4011879 -1.169067
v 0.1990967 0.8483963 1.226929
v 0.3480835 0.5213547 -1.226929
v 0.1990967 0.8483963 -1.226929
v 0.402771 0.4013023 -1.226929
v 0.3480835 0.5213547 -1.226929
v 0.3049316 0.4806824 -1.226929
v 0.3070679 0.4256439 -1.226929
v 0.3480835 0.5213547 -1.226929
v 0.402771 0.4013023 -1.226929
v 0.402832 0.4011879 -1.169067
v -0.5 0 -1.226929
v 0.05133057 0 -1.226929
v -0.06445313 0.04013443 -1.226929
v -0.5 0.1879158 -1.226929
v -0.09265137 0.1268892 -1.226929
v -0.25177 0.2378998 -1.226929
v -0.2681885 0.3639221 -1.226929
v -0.3620605 0.4906616 -1.226929
v -0.5 0.1879158 -1.226929
v -0.3620605 0.4906616 -1.226929
v -0.3620605 0.4906616 -1.100037
v -0.4602661 0.2751503 -1.025635
v -0.5 0.1879158 -0.7327881
v -0.5 0.08915615 -0.6629028
v -0.5 0 -0.5095215
v -0.5 0 -1.226929
v -0.5 0.1879158 -1.226929
v -0.5 0.1879158 -0.7327881
v 0.1990967 0.8483963 1.226929
v 0.1990967 0.8705826 -0.2191772
v 0.1990967 0.8705826 -0.6903687
v 0.1990967 0.8483963 -1.226929
v 0.1990967 1.076828 -0.6903687
v 0.1990967 1.099014 -1.226929
v 0.1990967 1.076828 -0.2191772
v 0.1990967 1.099014 1.226929
v 0.1990967 1.099014 1.226929
v 0.1990967 1.335831 0.3018799
v 0.1990967 1.335831 0.0737915
v 0.1990967 1.099014 -1.226929
v 0.1990967 1.542068 0.0737915
v 0.1990967 1.465439 -1.226929
v 0.1990967 1.696793 -1.05188
v 0.1990967 1.542068 0.3018799
v 0.1990967 1.696793 1.226929
v 0.1990967 1.335831 0.3018799
v 0.1990967 1.542068 0.3018799
v 0.1990967 1.542068 0.0737915
v 0.1990967 1.335831 0.0737915

vn 1 0 0
vn 1 0 0
vn 1 0 0
vn 1 0 0
vn 0 0 1
vn 0 0 1
vn 0 0 1
vn 0 0 1
vn 0 1 0
vn 0 1 0
vn 0 1 0
vn 0 1 0
vn 0 1 0
vn -1 0 0
vn -1 0 0
vn -1 0 0
vn -1 0 0
vn 0 0 -1
vn 0 0 -1
vn 0 0 -1
vn 0 0 -1
vn 0 0 -1
vn 0 0 -1
vn 0 0 -1
vn 0 0 -1
vn 0 0 -1
vn 0 0 -1
vn 0 0 -1
vn 0 0 -1
vn 0 0 -1
vn 0 0 -1
vn 0 0 -1
vn 0 0 -1
vn 0 0 -1
vn 0 0 -1
vn 0 0 -1
vn 0 0 -1
vn -0.9100021 0.4146036 -1.778407E-05
vn -0.9100107 0.4145849 0
vn -0.9099189 0.4147862 -4.083152E-05
vn -0.9099241 0.4147747 -1.755749E-05
vn -0.9100109 0.4145842 0
vn -0.9099951 0.414619 0
vn -0.9100143 0.4145769 0
vn -0.9100239 0.4145558 0
vn -0.9099541 0.4147089 0
vn -0.909826 0.4149899 0
vn -1 0 0
vn -1 0 0
vn -1 0 0
vn -1 0 0
vn -1 0 0
vn -1 0 0
vn -1 0 0
vn -1 0 0
vn -1 0 0
vn 1 0 0
vn 1 0 0
vn 1 0 0
vn 1 0 0
vn 1 0 0
vn 1 0 0
vn 1 0 0
vn 1 0 0
vn -1 0 0
vn -1 0 0
vn -1 0 0
vn -1 0 0
vn 0 0 1
vn 0 0 1
vn 0 0 1
vn 0 0 1
vn 0 0 1
vn 0 0 1
vn 0 0 1
vn 0 0 1
vn 0 0 -1
vn 0 0 -1
vn 0 0 -1
vn 0 0 -1
vn 0 0 -1
vn 0.6660961 0.4500388 -0.594795
vn 0.6660961 0.4500388 -0.594795
vn 0.6660961 0.4500388 -0.594795
vn 1 0 0
vn 1 0 0
vn 1 0 0
vn 1 0 0
vn 1 0 0
vn 1 0 0
vn 0 0 -1
vn 0 0 -1
vn 0 0 -1
vn 0 0 -1
vn 0 0 -1
vn 0 0 -1
vn -1 0 0
vn -1 0 0
vn -1 0 0
vn -1 0 0
vn -0.909826 0.4149899 0
vn -0.9099241 0.4147747 -1.755749E-05
vn -0.9099189 0.4147862 -4.083152E-05
vn 0.9102087 0.4141499 0
vn 0.9099884 0.4146338 0
vn 0.9102027 0.414163 0
vn 0.9101632 0.4142501 0
vn 0.9100111 0.4145839 0
vn 0.910017 0.4145709 0
vn 0.9100186 0.4145674 0
vn 0 0 -1
vn 0 0 -1
vn 0 0 -1
vn 0 0 -1
vn 0.910017 0.4145709 0
vn 0.9102087 0.4141499 0
vn 0.9101632 0.4142501 0
vn 0 0 -1
vn 0 0 -1
vn 0 0 -1
vn 0 0 -1
vn 0 0 -1
vn 0 0 -1
vn 0 0 -1
vn 0 0 -1
vn -0.9100078 0.4145909 0
vn -0.9100143 0.4145769 0
vn -0.9099951 0.414619 0
vn -0.9100109 0.4145842 0
vn -0.9099541 0.4147089 0
vn -1 0 0
vn -1 0 0
vn -1 0 0
vn -1 0 0
vn -1 0 0
vn 1 0 0
vn 1 0 0
vn 1 0 0
vn 1 0 0
vn 1 0 0
vn 1 0 0
vn 1 0 0
vn 1 0 0
vn 1 0 0
vn 1 0 0
vn 1 0 0
vn 1 0 0
vn 1 0 0
vn 1 0 0
vn 1 0 0
vn 1 0 0
vn 1 0 0
vn 1 0 0
vn 1 0 0
vn 1 0 0
vn 1 0 0

vt 0.6772461 0.1159668
vt 0.6772461 0.1362305
vt 0.7182617 0.1362305
vt 0.7182617 0.1159668
vt 0.1713867 0.375
vt 0.1713867 0.375
vt 0.1713867 0.375
vt 0.1713867 0.375
vt 0.3591309 0.4750977
vt 0.3591309 0.4750977
vt 0.3591309 0.4750977
vt 0.3591309 0.4750977
vt 0.3591309 0.4750977
vt 0.2332764 0.3786621
vt 0.2332764 0.3786621
vt 0.2332764 0.3786621
vt 0.2332764 0.3786621
vt 0.2634277 0.4777832
vt 0.2634277 0.4777832
vt 0.2634277 0.4777832
vt 0.2634277 0.4777832
vt 0.2634277 0.4777832
vt 0.2634277 0.4777832
vt 0.2634277 0.4777832
vt 0.2634277 0.4777832
vt 0.2634277 0.4777832
vt 0.2634277 0.4777832
vt 0.2634277 0.4777832
vt 0.2634277 0.4777832
vt 0.2634277 0.4777832
vt 0.2634277 0.4777832
vt 0.2634277 0.4777832
vt 0.2634277 0.4777832
vt 0.2634277 0.4777832
vt 0.2634277 0.4777832
vt 0.2634277 0.4777832
vt 0.2634277 0.4777832
vt 0.3278809 0.4770508
vt 0.3278809 0.4770508
vt 0.3278809 0.4770508
vt 0.3278809 0.4770508
vt 0.3278809 0.4770508
vt 0.3278809 0.4770508
vt 0.3278809 0.4770508
vt 0.3278809 0.4770508
vt 0.3278809 0.4770508
vt 0.3278809 0.4770508
vt 0.2973633 0.4772949
vt 0.2973633 0.4772949
vt 0.2973633 0.4772949
vt 0.2973633 0.4772949
vt 0.2973633 0.4772949
vt 0.2973633 0.4772949
vt 0.2973633 0.4772949
vt 0.2973633 0.4772949
vt 0.2973633 0.4772949
vt 0.3027344 0.4785156
vt 0.3027344 0.4785156
vt 0.3027344 0.4785156
vt 0.3027344 0.4785156
vt 0.3027344 0.4785156
vt 0.3027344 0.4785156
vt 0.3027344 0.4785156
vt 0.3027344 0.4785156
vt 0.296875 0.4748535
vt 0.296875 0.4748535
vt 0.296875 0.4748535
vt 0.296875 0.4748535
vt 0.2663574 0.4797363
vt 0.2663574 0.4797363
vt 0.2663574 0.4797363
vt 0.2663574 0.4797363
vt 0.2663574 0.4797363
vt 0.2663574 0.4797363
vt 0.2663574 0.4797363
vt 0.2663574 0.4797363
vt 0.1713867 0.375
vt 0.1713867 0.375
vt 0.1713867 0.375
vt 0.1713867 0.375
vt 0.1713867 0.375
vt 0.3269043 0.4782715
vt 0.3269043 0.4782715
vt 0.3269043 0.4782715
vt 0.2049561 0.3981934
vt 0.2049561 0.3981934
vt 0.2049561 0.3981934
vt 0.2049561 0.3981934
vt 0.2049561 0.3981934
vt 0.2049561 0.3981934
vt 0.1413574 0.3955078
vt 0.1413574 0.3955078
vt 0.1413574 0.3955078
vt 0.1413574 0.3955078
vt 0.1413574 0.3955078
vt 0.1413574 0.3955078
vt 0.355957 0.4770508
vt 0.355957 0.4770508
vt 0.355957 0.4770508
vt 0.355957 0.4770508
vt 0.355957 0.4770508
vt 0.355957 0.4770508
vt 0.355957 0.4770508
vt 0.3278809 0.4770508
vt 0.3278809 0.4770508
vt 0.3278809 0.4770508
vt 0.3278809 0.4770508
vt 0.3278809 0.4770508
vt 0.3278809 0.4770508
vt 0.3278809 0.4770508
vt 0.1772461 0.3984375
vt 0.1772461 0.3984375
vt 0.1772461 0.3984375
vt 0.1772461 0.3984375
vt 0.2358398 0.3984375
vt 0.2358398 0.3984375
vt 0.2358398 0.3984375
vt 0.1090088 0.3984375
vt 0.1090698 0.3984375
vt 0.1090698 0.3984375
vt 0.1090088 0.3984375
vt 0.1090698 0.3984375
vt 0.1090698 0.3984375
vt 0.1090698 0.3984375
vt 0.1090088 0.3984375
vt 0.234375 0.3967285
vt 0.234375 0.3967285
vt 0.234375 0.3967285
vt 0.234375 0.3967285
vt 0.234375 0.3967285
vt 0.234375 0.3967285
vt 0.234375 0.3967285
vt 0.234375 0.3967285
vt 0.234375 0.3967285
vt 0.234375 0.3967285
vt 0.296875 0.4748535
vt 0.296875 0.4748535
vt 0.296875 0.4748535
vt 0.296875 0.4748535
vt 0.296875 0.4748535
vt 0.296875 0.4748535
vt 0.296875 0.4748535
vt 0.296875 0.4748535
vt 0.2332764 0.3786621
vt 0.2332764 0.3786621
vt 0.2332764 0.3786621
vt 0.2332764 0.3786621
vt 0.2332764 0.3786621
vt 0.2332764 0.3786621
vt 0.2332764 0.3786621
vt 0.2332764 0.3786621
vt 0.2332764 0.3786621
vt 0.6743164 0.1453857
vt 0.6743164 0.1656494
vt 0.6943359 0.1656494
vt 0.6943359 0.1453857

g SA_Prop_Barrier_01_1417_216
usemtl SA_Prop_Barrier_01_1417_216
usemap SA_Prop_Barrier_01_1417_216
f 1/1/1 3/3/3 2/2/2
f 1/1/1 4/4/4 3/3/3
f 5/5/5 7/7/7 6/6/6
f 5/5/5 8/8/8 7/7/7
f 9/9/9 11/11/11 10/10/10
f 11/11/11 9/9/9 12/12/12
f 12/12/12 9/9/9 13/13/13
f 14/14/14 16/16/16 15/15/15
f 14/14/14 17/17/17 16/16/16
f 18/18/18 20/20/20 19/19/19
f 20/20/20 21/21/21 19/19/19
f 22/22/22 19/19/19 21/21/21
f 22/22/22 23/23/23 19/19/19
f 24/24/24 21/21/21 20/20/20
f 21/21/21 24/24/24 25/25/25
f 21/21/21 25/25/25 26/26/26
f 25/25/25 27/27/27 26/26/26
f 28/28/28 21/21/21 26/26/26
f 29/29/29 28/28/28 26/26/26
f 30/30/30 29/29/29 26/26/26
f 30/30/30 26/26/26 31/31/31
f 21/21/21 28/28/28 32/32/32
f 21/21/21 32/32/32 33/33/33
f 21/21/21 33/33/33 34/34/34
f 25/25/25 24/24/24 35/35/35
f 25/25/25 35/35/35 36/36/36
f 37/37/37 25/25/25 36/36/36
f 38/38/38 40/40/40 39/39/39
f 40/40/40 38/38/38 41/41/41
f 41/41/41 38/38/38 42/42/42
f 42/42/42 38/38/38 43/43/43
f 43/43/43 38/38/38 44/44/44
f 44/44/44 38/38/38 45/45/45
f 46/46/46 41/41/41 42/42/42
f 41/41/41 46/46/46 47/47/47
f 48/48/48 50/50/50 49/49/49
f 50/50/50 48/48/48 51/51/51
f 50/50/50 51/51/51 52/52/52
f 51/51/51 48/48/48 53/53/53
f 54/54/54 52/52/52 51/51/51
f 52/52/52 54/54/54 55/55/55
f 55/55/55 54/54/54 56/56/56
f 57/57/57 59/59/59 58/58/58
f 60/60/60 59/59/59 57/57/57
f 61/61/61 59/59/59 60/60/60
f 59/59/59 61/61/61 62/62/62
f 60/60/60 57/57/57 63/63/63
f 63/63/63 57/57/57 64/64/64
f 65/65/65 67/67/67 66/66/66
f 65/65/65 68/68/68 67/67/67
f 69/69/69 71/71/71 70/70/70
f 69/69/69 72/72/72 71/71/71
f 73/73/73 72/72/72 69/69/69
f 73/73/73 74/74/74 72/72/72
f 73/73/73 75/75/75 74/74/74
f 76/76/76 75/75/75 73/73/73
f 77/77/77 79/79/79 78/78/78
f 79/79/79 77/77/77 80/80/80
f 80/80/80 77/77/77 81/81/81
f 82/82/82 84/84/84 83/83/83
f 85/85/85 87/87/87 86/86/86
f 87/87/87 85/85/85 88/88/88
f 87/87/87 88/88/88 89/89/89
f 90/90/90 86/86/86 87/87/87
f 91/91/91 93/93/93 92/92/92
f 93/93/93 91/91/91 94/94/94
f 93/93/93 94/94/94 95/95/95
f 94/94/94 91/91/91 96/96/96
f 97/97/97 99/99/99 98/98/98
f 99/99/99 97/97/97 100/100/100
f 101/101/101 103/103/103 102/102/102
f 104/104/104 106/106/106 105/105/105
f 106/106/106 104/104/104 107/107/107
f 107/107/107 108/108/108 106/106/106
f 108/108/108 107/107/107 109/109/109
f 108/108/108 109/109/109 110/110/110
f 111/111/111 113/113/113 112/112/112
f 111/111/111 114/114/114 113/113/113
f 115/115/115 117/117/117 116/116/116
f 118/118/118 120/120/120 119/119/119
f 121/121/121 120/120/120 118/118/118
f 121/121/121 122/122/122 120/120/120
f 121/121/121 123/123/123 122/122/122
f 121/121/121 124/124/124 123/123/123
f 125/125/125 124/124/124 121/121/121
f 126/126/126 128/128/128 127/127/127
f 126/126/126 129/129/129 128/128/128
f 126/126/126 130/130/130 129/129/129
f 131/131/131 133/133/133 132/132/132
f 133/133/133 131/131/131 134/134/134
f 134/134/134 131/131/131 135/135/135
f 136/136/136 138/138/138 137/137/137
f 136/136/136 139/139/139 138/138/138
f 139/139/139 140/140/140 138/138/138
f 139/139/139 141/141/141 140/140/140
f 141/141/141 142/142/142 140/140/140
f 141/141/141 143/143/143 142/142/142
f 143/143/143 137/137/137 142/142/142
f 143/143/143 136/136/136 137/137/137
f 144/144/144 146/146/146 145/145/145
f 144/144/144 147/147/147 146/146/146
f 147/147/147 148/148/148 146/146/146
f 147/147/147 149/149/149 148/148/148
f 149/149/149 150/150/150 148/148/148
f 150/150/150 151/151/151 148/148/148
f 150/150/150 152/152/152 151/151/151
f 152/152/152 145/145/145 151/151/151
f 152/152/152 144/144/144 145/145/145
f 153/153/153 155/155/155 154/154/154
f 153/153/153 156/156/156 155/155/155
