#SA_Prop_Crate_01_(1)_1407_201.obj

v -0.7266987 1.520931 0.5531148
v 0.5511182 1.520931 -0.7247055
v 0.6891338 1.520931 -0.58669
v -0.5886832 1.520931 0.6911303
v -0.5886832 1.520931 0.6911303
v 0.6891338 1.520931 -0.58669
v 0.6891338 1.395636 -0.58669
v -0.5886832 1.395636 0.6911303
v -0.7266987 1.395636 0.5531148
v 0.5511182 1.395636 -0.7247055
v 0.5511182 1.520931 -0.7247055
v -0.7266987 1.520931 0.5531148
v -0.5872774 0.1824161 0.6729098
v -0.5872774 1.371632 0.6729098
v 0.5875728 1.371632 0.6729098
v 0.5875728 0.1824161 0.6729098
v -0.5878988 1.460101 0.6005507
v -0.5878988 1.460101 -0.6004963
v 0.5876 1.460101 -0.6004963
v 0.5876 1.460101 0.6005507
v -0.5872774 1.371632 -0.6728283
v -0.5872774 0.1824161 -0.6728283
v 0.5875728 0.1824161 -0.6728283
v 0.5875728 1.371632 -0.6728283
v -0.5878988 0.09449647 -0.6004963
v -0.5878988 0.09449647 0.6005507
v 0.5876 0.09449647 0.6005507
v 0.5876 0.09449647 -0.6004963
v 0.6733614 0.1825947 0.6004216
v 0.6733614 1.371715 0.6004216
v 0.6733614 1.371715 -0.6004963
v 0.6733614 0.1825947 -0.6004963
v -0.6732596 0.1825947 -0.6004963
v -0.6732596 1.371715 -0.6004963
v -0.6732596 1.371715 0.6004216
v -0.6732596 0.1825947 0.6004216
v -0.77716 0 0.77716
v -0.5872774 0.1824161 0.77716
v 0.5875728 0.1824161 0.77716
v 0.77716 0 0.77716
v 0.77716 0 0.77716
v 0.5875728 0.1824161 0.77716
v 0.5875728 1.371632 0.77716
v 0.77716 1.554323 0.77716
v -0.5872774 1.371632 0.77716
v -0.77716 1.554323 0.77716
v -0.5872774 0.1824161 0.77716
v -0.77716 0 0.77716
v -0.77716 1.554323 -0.77716
v -0.5872774 1.371632 -0.77716
v 0.5875728 1.371632 -0.77716
v 0.77716 1.554323 -0.77716
v 0.5875728 0.1824161 -0.77716
v 0.77716 0 -0.77716
v -0.5872774 0.1824161 -0.77716
v -0.77716 0 -0.77716
v -0.5872774 0.1824161 0.77716
v -0.5872774 0.1824161 0.6729098
v 0.5875728 0.1824161 0.6729098
v 0.5875728 0.1824161 0.77716
v 0.5875728 0.1824161 0.77716
v 0.5875728 0.1824161 0.6729098
v 0.5875728 1.371632 0.6729098
v 0.5875728 1.371632 0.77716
v 0.5875728 1.371632 0.77716
v 0.5875728 1.371632 0.6729098
v -0.5872774 1.371632 0.6729098
v -0.5872774 1.371632 0.77716
v -0.5872774 1.371632 0.77716
v -0.5872774 1.371632 0.6729098
v -0.5872774 0.1824161 0.6729098
v -0.5872774 0.1824161 0.77716
v -0.5872774 1.371632 -0.77716
v -0.5872774 1.371632 -0.6728283
v 0.5875728 1.371632 -0.6728283
v 0.5875728 1.371632 -0.77716
v 0.5875728 1.371632 -0.77716
v 0.5875728 1.371632 -0.6728283
v 0.5875728 0.1824161 -0.6728283
v 0.5875728 0.1824161 -0.77716
v 0.5875728 0.1824161 -0.77716
v 0.5875728 0.1824161 -0.6728283
v -0.5872774 0.1824161 -0.6728283
v -0.5872774 0.1824161 -0.77716
v -0.5872774 0.1824161 -0.77716
v -0.5872774 0.1824161 -0.6728283
v -0.5872774 1.371632 -0.6728283
v -0.5872774 1.371632 -0.77716
v 0.77716 0 0.77716
v 0.77716 0.1825947 0.6004216
v 0.77716 0.1825947 -0.6004963
v 0.77716 0 -0.77716
v 0.77716 1.371715 -0.6004963
v 0.77716 1.554323 -0.77716
v 0.77716 1.371715 0.6004216
v 0.77716 1.554323 0.77716
v -0.77716 0 -0.77716
v -0.77716 0.1825947 -0.6004963
v -0.77716 0.1825947 0.6004216
v -0.77716 0 0.77716
v -0.77716 1.371715 0.6004216
v -0.77716 1.554323 0.77716
v -0.77716 1.371715 -0.6004963
v -0.77716 1.554323 -0.77716
v 0.77716 0.1825947 0.6004216
v 0.6733614 0.1825947 0.6004216
v 0.6733614 0.1825947 -0.6004963
v 0.77716 0.1825947 -0.6004963
v 0.77716 0.1825947 -0.6004963
v 0.6733614 0.1825947 -0.6004963
v 0.6733614 1.371715 -0.6004963
v 0.77716 1.371715 -0.6004963
v 0.77716 1.371715 -0.6004963
v 0.6733614 1.371715 -0.6004963
v 0.6733614 1.371715 0.6004216
v 0.77716 1.371715 0.6004216
v 0.77716 1.371715 0.6004216
v 0.6733614 1.371715 0.6004216
v 0.6733614 0.1825947 0.6004216
v 0.77716 0.1825947 0.6004216
v -0.77716 0.1825947 -0.6004963
v -0.6732596 0.1825947 -0.6004963
v -0.6732596 0.1825947 0.6004216
v -0.77716 0.1825947 0.6004216
v -0.77716 0.1825947 0.6004216
v -0.6732596 0.1825947 0.6004216
v -0.6732596 1.371715 0.6004216
v -0.77716 1.371715 0.6004216
v -0.77716 1.371715 0.6004216
v -0.6732596 1.371715 0.6004216
v -0.6732596 1.371715 -0.6004963
v -0.77716 1.371715 -0.6004963
v -0.77716 1.371715 -0.6004963
v -0.6732596 1.371715 -0.6004963
v -0.6732596 0.1825947 -0.6004963
v -0.77716 0.1825947 -0.6004963
v -0.77716 1.554323 0.77716
v -0.5878988 1.554323 0.6005507
v 0.5876 1.554323 0.6005507
v 0.77716 1.554323 0.77716
v 0.5876 1.554323 -0.6004963
v 0.77716 1.554323 -0.77716
v -0.5878988 1.554323 -0.6004963
v -0.77716 1.554323 -0.77716
v -0.77716 0 -0.77716
v -0.5878988 0 -0.6004963
v 0.5876 0 -0.6004963
v 0.77716 0 -0.77716
v 0.5876 0 0.6005507
v 0.77716 0 0.77716
v -0.5878988 0 0.6005507
v -0.77716 0 0.77716
v -0.5878988 1.554323 0.6005507
v -0.5878988 1.460101 0.6005507
v 0.5876 1.460101 0.6005507
v 0.5876 1.554323 0.6005507
v 0.5876 1.554323 0.6005507
v 0.5876 1.460101 0.6005507
v 0.5876 1.460101 -0.6004963
v 0.5876 1.554323 -0.6004963
v 0.5876 1.554323 -0.6004963
v 0.5876 1.460101 -0.6004963
v -0.5878988 1.460101 -0.6004963
v -0.5878988 1.554323 -0.6004963
v -0.5878988 1.554323 -0.6004963
v -0.5878988 1.460101 -0.6004963
v -0.5878988 1.460101 0.6005507
v -0.5878988 1.554323 0.6005507
v -0.5878988 0 -0.6004963
v -0.5878988 0.09449647 -0.6004963
v 0.5876 0.09449647 -0.6004963
v 0.5876 0 -0.6004963
v 0.5876 0 -0.6004963
v 0.5876 0.09449647 -0.6004963
v 0.5876 0.09449647 0.6005507
v 0.5876 0 0.6005507
v 0.5876 0 0.6005507
v 0.5876 0.09449647 0.6005507
v -0.5878988 0.09449647 0.6005507
v -0.5878988 0 0.6005507
v -0.5878988 0 0.6005507
v -0.5878988 0.09449647 0.6005507
v -0.5878988 0.09449647 -0.6004963
v -0.5878988 0 -0.6004963
v -0.7437716 0.05045947 0.5531148
v -0.7437716 1.328279 -0.7247055
v -0.7437716 1.466295 -0.58669
v -0.7437716 0.1884764 0.6911303
v -0.7437716 0.1884764 0.6911303
v -0.7437716 1.466295 -0.58669
v -0.6184723 1.466295 -0.58669
v -0.6184723 0.1884764 0.6911303
v -0.6184723 0.05045947 0.5531148
v -0.6184723 1.328279 -0.7247055
v -0.7437716 1.328279 -0.7247055
v -0.7437716 0.05045947 0.5531148
v -0.7266987 0.2240474 0.7437682
v 0.5511182 1.501866 0.7437682
v 0.6891338 1.36385 0.7437682
v -0.5886832 0.08603062 0.7437682
v -0.5886832 0.08603062 0.7437682
v 0.6891338 1.36385 0.7437682
v 0.6891338 1.36385 0.6184723
v -0.5886832 0.08603062 0.6184723
v -0.7266987 0.2240474 0.6184723
v 0.5511182 1.501866 0.6184723
v 0.5511182 1.501866 0.7437682
v -0.7266987 0.2240474 0.7437682
v 0.7437716 0.05045947 -0.5531148
v 0.7437716 1.328279 0.7247055
v 0.7437716 1.466295 0.58669
v 0.7437716 0.1884764 -0.6911303
v 0.7437716 0.1884764 -0.6911303
v 0.7437716 1.466295 0.58669
v 0.6184723 1.466295 0.58669
v 0.6184723 0.1884764 -0.6911303
v 0.6184723 0.05045947 -0.5531148
v 0.6184723 1.328279 0.7247055
v 0.7437716 1.328279 0.7247055
v 0.7437716 0.05045947 -0.5531148
v 0.7266987 0.2240474 -0.7437682
v -0.5511182 1.501866 -0.7437682
v -0.6891338 1.36385 -0.7437682
v 0.5886832 0.08603062 -0.7437682
v 0.5886832 0.08603062 -0.7437682
v -0.6891338 1.36385 -0.7437682
v -0.6891338 1.36385 -0.6184723
v 0.5886832 0.08603062 -0.6184723
v 0.7266987 0.2240474 -0.6184723
v -0.5511182 1.501866 -0.6184723
v -0.5511182 1.501866 -0.7437682
v 0.7266987 0.2240474 -0.7437682
v 0.7266987 0.03339174 0.5531148
v -0.5511182 0.03339174 -0.7247055
v -0.6891338 0.03339174 -0.58669
v 0.5886832 0.03339174 0.6911303
v 0.5886832 0.03339174 0.6911303
v -0.6891338 0.03339174 -0.58669
v -0.6891338 0.1586875 -0.58669
v 0.5886832 0.1586875 0.6911303
v 0.7266987 0.1586875 0.5531148
v -0.5511182 0.1586875 -0.7247055
v -0.5511182 0.03339174 -0.7247055
v 0.7266987 0.03339174 0.5531148

vn 0 1 0
vn 0 1 0
vn 0 1 0
vn 0 1 0
vn 0.7071075 0 0.707106
vn 0.7071075 0 0.707106
vn 0.7071075 0 0.707106
vn 0.7071075 0 0.707106
vn -0.7071075 0 -0.707106
vn -0.7071075 0 -0.707106
vn -0.7071075 0 -0.707106
vn -0.7071075 0 -0.707106
vn 0 0 1
vn 0 0 1
vn 0 0 1
vn 0 0 1
vn 0 1 0
vn 0 1 0
vn 0 1 0
vn 0 1 0
vn 0 0 -1
vn 0 0 -1
vn 0 0 -1
vn 0 0 -1
vn 0 -1 0
vn 0 -1 0
vn 0 -1 0
vn 0 -1 0
vn 1 0 0
vn 1 0 0
vn 1 0 0
vn 1 0 0
vn -1 0 0
vn -1 0 0
vn -1 0 0
vn -1 0 0
vn 0 0 1
vn 0 0 1
vn 0 0 1
vn 0 0 1
vn 0 0 1
vn 0 0 1
vn 0 0 1
vn 0 0 1
vn 0 0 1
vn 0 0 1
vn 0 0 1
vn 0 0 1
vn 0 0 -1
vn 0 0 -1
vn 0 0 -1
vn 0 0 -1
vn 0 0 -1
vn 0 0 -1
vn 0 0 -1
vn 0 0 -1
vn 0 1 0
vn 0 1 0
vn 0 1 0
vn 0 1 0
vn -1 0 0
vn -1 0 0
vn -1 0 0
vn -1 0 0
vn 0 -1 0
vn 0 -1 0
vn 0 -1 0
vn 0 -1 0
vn 1 0 0
vn 1 0 0
vn 1 0 0
vn 1 0 0
vn 0 -1 0
vn 0 -1 0
vn 0 -1 0
vn 0 -1 0
vn -1 0 0
vn -1 0 0
vn -1 0 0
vn -1 0 0
vn 0 1 0
vn 0 1 0
vn 0 1 0
vn 0 1 0
vn 1 0 0
vn 1 0 0
vn 1 0 0
vn 1 0 0
vn 1 0 0
vn 1 0 0
vn 1 0 0
vn 1 0 0
vn 1 0 0
vn 1 0 0
vn 1 0 0
vn 1 0 0
vn -1 0 0
vn -1 0 0
vn -1 0 0
vn -1 0 0
vn -1 0 0
vn -1 0 0
vn -1 0 0
vn -1 0 0
vn 0 1 0
vn 0 1 0
vn 0 1 0
vn 0 1 0
vn 0 0 1
vn 0 0 1
vn 0 0 1
vn 0 0 1
vn 0 -1 0
vn 0 -1 0
vn 0 -1 0
vn 0 -1 0
vn 0 0 -1
vn 0 0 -1
vn 0 0 -1
vn 0 0 -1
vn 0 1 0
vn 0 1 0
vn 0 1 0
vn 0 1 0
vn 0 0 -1
vn 0 0 -1
vn 0 0 -1
vn 0 0 -1
vn 0 -1 0
vn 0 -1 0
vn 0 -1 0
vn 0 -1 0
vn 0 0 1
vn 0 0 1
vn 0 0 1
vn 0 0 1
vn 0 1 0
vn 0 1 0
vn 0 1 0
vn 0 1 0
vn 0 1 0
vn 0 1 0
vn 0 1 0
vn 0 1 0
vn 0 -1 0
vn 0 -1 0
vn 0 -1 0
vn 0 -1 0
vn 0 -1 0
vn 0 -1 0
vn 0 -1 0
vn 0 -1 0
vn 0 0 -1
vn 0 0 -1
vn 0 0 -1
vn 0 0 -1
vn -1 0 0
vn -1 0 0
vn -1 0 0
vn -1 0 0
vn 0 0 1
vn 0 0 1
vn 0 0 1
vn 0 0 1
vn 1 0 0
vn 1 0 0
vn 1 0 0
vn 1 0 0
vn 0 0 1
vn 0 0 1
vn 0 0 1
vn 0 0 1
vn -1 0 0
vn -1 0 0
vn -1 0 0
vn -1 0 0
vn 0 0 -1
vn 0 0 -1
vn 0 0 -1
vn 0 0 -1
vn 1 0 0
vn 1 0 0
vn 1 0 0
vn 1 0 0
vn -1 0 0
vn -1 0 0
vn -1 0 0
vn -1 0 0
vn 0 0.7071069 0.7071066
vn 0 0.7071069 0.7071066
vn 0 0.7071069 0.7071066
vn 0 0.7071069 0.7071066
vn 0 -0.707107 -0.7071065
vn 0 -0.707107 -0.7071065
vn 0 -0.707107 -0.7071065
vn 0 -0.707107 -0.7071065
vn 0 0 1
vn 0 0 1
vn 0 0 1
vn 0 0 1
vn 0.7071074 -0.7071061 0
vn 0.7071074 -0.7071061 0
vn 0.7071074 -0.7071061 0
vn 0.7071074 -0.7071061 0
vn -0.7071074 0.7071062 0
vn -0.7071074 0.7071062 0
vn -0.7071074 0.7071062 0
vn -0.7071074 0.7071062 0
vn 1 0 0
vn 1 0 0
vn 1 0 0
vn 1 0 0
vn 0 0.7071069 -0.7071066
vn 0 0.7071069 -0.7071066
vn 0 0.7071069 -0.7071066
vn 0 0.7071069 -0.7071066
vn 0 -0.707107 0.7071065
vn 0 -0.707107 0.7071065
vn 0 -0.707107 0.7071065
vn 0 -0.707107 0.7071065
vn 0 0 -1
vn 0 0 -1
vn 0 0 -1
vn 0 0 -1
vn -0.7071074 -0.7071061 0
vn -0.7071074 -0.7071061 0
vn -0.7071074 -0.7071061 0
vn -0.7071074 -0.7071061 0
vn 0.7071074 0.7071062 0
vn 0.7071074 0.7071062 0
vn 0.7071074 0.7071062 0
vn 0.7071074 0.7071062 0
vn 0 -1 0
vn 0 -1 0
vn 0 -1 0
vn 0 -1 0
vn -0.7071075 0 0.707106
vn -0.7071075 0 0.707106
vn -0.7071075 0 0.707106
vn -0.7071075 0 0.707106
vn 0.7071075 0 -0.707106
vn 0.7071075 0 -0.707106
vn 0.7071075 0 -0.707106
vn 0.7071075 0 -0.707106

vt 0.3786621 0.3986816
vt 0.3786621 0.3986816
vt 0.3786621 0.3986816
vt 0.3786621 0.3986816
vt 0.2429199 0.3974609
vt 0.2429199 0.3974609
vt 0.2429199 0.3974609
vt 0.2429199 0.3974609
vt 0.2429199 0.3974609
vt 0.2429199 0.3974609
vt 0.2429199 0.3974609
vt 0.2429199 0.3974609
vt 0.2108154 0.3974609
vt 0.2108154 0.3974609
vt 0.2108154 0.3974609
vt 0.2108154 0.3974609
vt 0.3588867 0.3986816
vt 0.3588867 0.3986816
vt 0.3588867 0.3986816
vt 0.3588867 0.3986816
vt 0.2108154 0.3974609
vt 0.2108154 0.3974609
vt 0.2108154 0.3974609
vt 0.2108154 0.3974609
vt 0.1052246 0.3974609
vt 0.1052246 0.3974609
vt 0.1052246 0.3974609
vt 0.1052246 0.3974609
vt 0.2619629 0.3974609
vt 0.2619629 0.3974609
vt 0.2619629 0.3974609
vt 0.2619629 0.3974609
vt 0.2619629 0.3974609
vt 0.2619629 0.3974609
vt 0.2619629 0.3974609
vt 0.2619629 0.3974609
vt 0.239624 0.3974609
vt 0.239624 0.3974609
vt 0.239624 0.3974609
vt 0.239624 0.3974609
vt 0.2429199 0.3974609
vt 0.2429199 0.3974609
vt 0.2429199 0.3974609
vt 0.2429199 0.3974609
vt 0.2429199 0.3974609
vt 0.2429199 0.3974609
vt 0.2429199 0.3974609
vt 0.2429199 0.3974609
vt 0.2429199 0.3974609
vt 0.2429199 0.3974609
vt 0.2429199 0.3974609
vt 0.2429199 0.3974609
vt 0.2429199 0.3974609
vt 0.2429199 0.3974609
vt 0.2429199 0.3974609
vt 0.2429199 0.3974609
vt 0.2409668 0.3986816
vt 0.2409668 0.3986816
vt 0.2409668 0.3986816
vt 0.2409668 0.3986816
vt 0.1506348 0.3974609
vt 0.1506348 0.3974609
vt 0.1506348 0.3974609
vt 0.1506348 0.3974609
vt 0.1506348 0.3974609
vt 0.1506348 0.3974609
vt 0.1506348 0.3974609
vt 0.1506348 0.3974609
vt 0.1506348 0.3974609
vt 0.1506348 0.3974609
vt 0.1506348 0.3974609
vt 0.1506348 0.3974609
vt 0.1506348 0.3974609
vt 0.1506348 0.3974609
vt 0.1506348 0.3974609
vt 0.1506348 0.3974609
vt 0.1506348 0.3974609
vt 0.1506348 0.3974609
vt 0.1506348 0.3974609
vt 0.1506348 0.3974609
vt 0.3786621 0.3986816
vt 0.3786621 0.3986816
vt 0.3786621 0.3986816
vt 0.3786621 0.3986816
vt 0.1506348 0.3974609
vt 0.1506348 0.3974609
vt 0.1506348 0.3974609
vt 0.1506348 0.3974609
vt 0.2941895 0.3974609
vt 0.2941895 0.3974609
vt 0.2941895 0.3974609
vt 0.2941895 0.3974609
vt 0.2941895 0.3974609
vt 0.2941895 0.3974609
vt 0.2941895 0.3974609
vt 0.2941895 0.3974609
vt 0.2941895 0.3974609
vt 0.2941895 0.3974609
vt 0.2941895 0.3974609
vt 0.2941895 0.3974609
vt 0.2941895 0.3974609
vt 0.2941895 0.3974609
vt 0.2941895 0.3974609
vt 0.2941895 0.3974609
vt 0.3786621 0.3986816
vt 0.3786621 0.3986816
vt 0.3786621 0.3986816
vt 0.3786621 0.3986816
vt 0.2017822 0.3974609
vt 0.2017822 0.3974609
vt 0.2017822 0.3974609
vt 0.2017822 0.3974609
vt 0.2017822 0.3974609
vt 0.2017822 0.3974609
vt 0.2017822 0.3974609
vt 0.2017822 0.3974609
vt 0.2017822 0.3974609
vt 0.2017822 0.3974609
vt 0.2017822 0.3974609
vt 0.2017822 0.3974609
vt 0.3786621 0.3986816
vt 0.3786621 0.3986816
vt 0.3786621 0.3986816
vt 0.3786621 0.3986816
vt 0.2017822 0.3974609
vt 0.2017822 0.3974609
vt 0.2017822 0.3974609
vt 0.2017822 0.3974609
vt 0.2017822 0.3974609
vt 0.2017822 0.3974609
vt 0.2017822 0.3974609
vt 0.2017822 0.3974609
vt 0.2017822 0.3974609
vt 0.2017822 0.3974609
vt 0.2017822 0.3974609
vt 0.2017822 0.3974609
vt 0.3786621 0.3986816
vt 0.3786621 0.3986816
vt 0.3786621 0.3986816
vt 0.3786621 0.3986816
vt 0.3786621 0.3986816
vt 0.3786621 0.3986816
vt 0.3786621 0.3986816
vt 0.3786621 0.3986816
vt 0.1052246 0.3974609
vt 0.1052246 0.3974609
vt 0.1052246 0.3974609
vt 0.1052246 0.3974609
vt 0.1052246 0.3974609
vt 0.1052246 0.3974609
vt 0.1052246 0.3974609
vt 0.1052246 0.3974609
vt 0.2429199 0.3974609
vt 0.2429199 0.3974609
vt 0.2429199 0.3974609
vt 0.2429199 0.3974609
vt 0.2429199 0.3974609
vt 0.2429199 0.3974609
vt 0.2429199 0.3974609
vt 0.2429199 0.3974609
vt 0.2429199 0.3974609
vt 0.2429199 0.3974609
vt 0.2429199 0.3974609
vt 0.2429199 0.3974609
vt 0.2429199 0.3974609
vt 0.2429199 0.3974609
vt 0.2429199 0.3974609
vt 0.2429199 0.3974609
vt 0.1052246 0.3974609
vt 0.1052246 0.3974609
vt 0.1052246 0.3974609
vt 0.1052246 0.3974609
vt 0.1052246 0.3974609
vt 0.1052246 0.3974609
vt 0.1052246 0.3974609
vt 0.1052246 0.3974609
vt 0.1052246 0.3974609
vt 0.1052246 0.3974609
vt 0.1052246 0.3974609
vt 0.1052246 0.3974609
vt 0.1052246 0.3974609
vt 0.1052246 0.3974609
vt 0.1052246 0.3974609
vt 0.1052246 0.3974609
vt 0.2941895 0.3974609
vt 0.2941895 0.3974609
vt 0.2941895 0.3974609
vt 0.2941895 0.3974609
vt 0.3786621 0.3986816
vt 0.3786621 0.3986816
vt 0.3786621 0.3986816
vt 0.3786621 0.3986816
vt 0.1506348 0.3974609
vt 0.1506348 0.3974609
vt 0.1506348 0.3974609
vt 0.1506348 0.3974609
vt 0.2429199 0.3974609
vt 0.2429199 0.3974609
vt 0.2429199 0.3974609
vt 0.2429199 0.3974609
vt 0.1506348 0.3974609
vt 0.1506348 0.3974609
vt 0.1506348 0.3974609
vt 0.1506348 0.3974609
vt 0.3786621 0.3986816
vt 0.3786621 0.3986816
vt 0.3786621 0.3986816
vt 0.3786621 0.3986816
vt 0.2941895 0.3974609
vt 0.2941895 0.3974609
vt 0.2941895 0.3974609
vt 0.2941895 0.3974609
vt 0.3786621 0.3986816
vt 0.3786621 0.3986816
vt 0.3786621 0.3986816
vt 0.3786621 0.3986816
vt 0.1506348 0.3974609
vt 0.1506348 0.3974609
vt 0.1506348 0.3974609
vt 0.1506348 0.3974609
vt 0.2429199 0.3974609
vt 0.2429199 0.3974609
vt 0.2429199 0.3974609
vt 0.2429199 0.3974609
vt 0.1506348 0.3974609
vt 0.1506348 0.3974609
vt 0.1506348 0.3974609
vt 0.1506348 0.3974609
vt 0.3786621 0.3986816
vt 0.3786621 0.3986816
vt 0.3786621 0.3986816
vt 0.3786621 0.3986816
vt 0.1052246 0.3974609
vt 0.1052246 0.3974609
vt 0.1052246 0.3974609
vt 0.1052246 0.3974609
vt 0.1052246 0.3974609
vt 0.1052246 0.3974609
vt 0.1052246 0.3974609
vt 0.1052246 0.3974609
vt 0.1052246 0.3974609
vt 0.1052246 0.3974609
vt 0.1052246 0.3974609
vt 0.1052246 0.3974609

g SA_Prop_Crate_01_(1)_1407_201
usemtl SA_Prop_Crate_01_(1)_1407_201
usemap SA_Prop_Crate_01_(1)_1407_201
f 1/1/1 3/3/3 2/2/2
f 1/1/1 4/4/4 3/3/3
f 5/5/5 7/7/7 6/6/6
f 5/5/5 8/8/8 7/7/7
f 9/9/9 11/11/11 10/10/10
f 9/9/9 12/12/12 11/11/11
f 13/13/13 15/15/15 14/14/14
f 13/13/13 16/16/16 15/15/15
f 17/17/17 19/19/19 18/18/18
f 17/17/17 20/20/20 19/19/19
f 21/21/21 23/23/23 22/22/22
f 21/21/21 24/24/24 23/23/23
f 25/25/25 27/27/27 26/26/26
f 25/25/25 28/28/28 27/27/27
f 29/29/29 31/31/31 30/30/30
f 29/29/29 32/32/32 31/31/31
f 33/33/33 35/35/35 34/34/34
f 33/33/33 36/36/36 35/35/35
f 37/37/37 39/39/39 38/38/38
f 37/37/37 40/40/40 39/39/39
f 41/41/41 43/43/43 42/42/42
f 41/41/41 44/44/44 43/43/43
f 44/44/44 45/45/45 43/43/43
f 44/44/44 46/46/46 45/45/45
f 46/46/46 47/47/47 45/45/45
f 46/46/46 48/48/48 47/47/47
f 49/49/49 51/51/51 50/50/50
f 49/49/49 52/52/52 51/51/51
f 52/52/52 53/53/53 51/51/51
f 52/52/52 54/54/54 53/53/53
f 54/54/54 55/55/55 53/53/53
f 54/54/54 56/56/56 55/55/55
f 56/56/56 50/50/50 55/55/55
f 56/56/56 49/49/49 50/50/50
f 57/57/57 59/59/59 58/58/58
f 57/57/57 60/60/60 59/59/59
f 61/61/61 63/63/63 62/62/62
f 61/61/61 64/64/64 63/63/63
f 65/65/65 67/67/67 66/66/66
f 65/65/65 68/68/68 67/67/67
f 69/69/69 71/71/71 70/70/70
f 69/69/69 72/72/72 71/71/71
f 73/73/73 75/75/75 74/74/74
f 73/73/73 76/76/76 75/75/75
f 77/77/77 79/79/79 78/78/78
f 77/77/77 80/80/80 79/79/79
f 81/81/81 83/83/83 82/82/82
f 81/81/81 84/84/84 83/83/83
f 85/85/85 87/87/87 86/86/86
f 85/85/85 88/88/88 87/87/87
f 89/89/89 91/91/91 90/90/90
f 89/89/89 92/92/92 91/91/91
f 92/92/92 93/93/93 91/91/91
f 92/92/92 94/94/94 93/93/93
f 94/94/94 95/95/95 93/93/93
f 94/94/94 96/96/96 95/95/95
f 96/96/96 90/90/90 95/95/95
f 96/96/96 89/89/89 90/90/90
f 97/97/97 99/99/99 98/98/98
f 97/97/97 100/100/100 99/99/99
f 100/100/100 101/101/101 99/99/99
f 100/100/100 102/102/102 101/101/101
f 102/102/102 103/103/103 101/101/101
f 102/102/102 104/104/104 103/103/103
f 104/104/104 98/98/98 103/103/103
f 104/104/104 97/97/97 98/98/98
f 105/105/105 107/107/107 106/106/106
f 105/105/105 108/108/108 107/107/107
f 109/109/109 111/111/111 110/110/110
f 109/109/109 112/112/112 111/111/111
f 113/113/113 115/115/115 114/114/114
f 113/113/113 116/116/116 115/115/115
f 117/117/117 119/119/119 118/118/118
f 117/117/117 120/120/120 119/119/119
f 121/121/121 123/123/123 122/122/122
f 121/121/121 124/124/124 123/123/123
f 125/125/125 127/127/127 126/126/126
f 125/125/125 128/128/128 127/127/127
f 129/129/129 131/131/131 130/130/130
f 129/129/129 132/132/132 131/131/131
f 133/133/133 135/135/135 134/134/134
f 133/133/133 136/136/136 135/135/135
f 137/137/137 139/139/139 138/138/138
f 137/137/137 140/140/140 139/139/139
f 140/140/140 141/141/141 139/139/139
f 140/140/140 142/142/142 141/141/141
f 142/142/142 143/143/143 141/141/141
f 142/142/142 144/144/144 143/143/143
f 144/144/144 138/138/138 143/143/143
f 144/144/144 137/137/137 138/138/138
f 145/145/145 147/147/147 146/146/146
f 145/145/145 148/148/148 147/147/147
f 148/148/148 149/149/149 147/147/147
f 148/148/148 150/150/150 149/149/149
f 150/150/150 151/151/151 149/149/149
f 150/150/150 152/152/152 151/151/151
f 152/152/152 146/146/146 151/151/151
f 152/152/152 145/145/145 146/146/146
f 153/153/153 155/155/155 154/154/154
f 153/153/153 156/156/156 155/155/155
f 157/157/157 159/159/159 158/158/158
f 157/157/157 160/160/160 159/159/159
f 161/161/161 163/163/163 162/162/162
f 161/161/161 164/164/164 163/163/163
f 165/165/165 167/167/167 166/166/166
f 165/165/165 168/168/168 167/167/167
f 169/169/169 171/171/171 170/170/170
f 169/169/169 172/172/172 171/171/171
f 173/173/173 175/175/175 174/174/174
f 173/173/173 176/176/176 175/175/175
f 177/177/177 179/179/179 178/178/178
f 177/177/177 180/180/180 179/179/179
f 181/181/181 183/183/183 182/182/182
f 181/181/181 184/184/184 183/183/183
f 185/185/185 187/187/187 186/186/186
f 185/185/185 188/188/188 187/187/187
f 189/189/189 191/191/191 190/190/190
f 189/189/189 192/192/192 191/191/191
f 193/193/193 195/195/195 194/194/194
f 193/193/193 196/196/196 195/195/195
f 197/197/197 199/199/199 198/198/198
f 197/197/197 200/200/200 199/199/199
f 201/201/201 203/203/203 202/202/202
f 201/201/201 204/204/204 203/203/203
f 205/205/205 207/207/207 206/206/206
f 205/205/205 208/208/208 207/207/207
f 209/209/209 211/211/211 210/210/210
f 209/209/209 212/212/212 211/211/211
f 213/213/213 215/215/215 214/214/214
f 213/213/213 216/216/216 215/215/215
f 217/217/217 219/219/219 218/218/218
f 217/217/217 220/220/220 219/219/219
f 221/221/221 223/223/223 222/222/222
f 221/221/221 224/224/224 223/223/223
f 225/225/225 227/227/227 226/226/226
f 225/225/225 228/228/228 227/227/227
f 229/229/229 231/231/231 230/230/230
f 229/229/229 232/232/232 231/231/231
f 233/233/233 235/235/235 234/234/234
f 233/233/233 236/236/236 235/235/235
f 237/237/237 239/239/239 238/238/238
f 237/237/237 240/240/240 239/239/239
f 241/241/241 243/243/243 242/242/242
f 241/241/241 244/244/244 243/243/243
