#SA_Prop_BeerCan_02_1319_186.obj

v -0.06098828 1.69616 0.0811538
v -0.06098823 1.719296 0.08115449
v 0.06098808 1.719296 0.08115376
v 0.06098803 1.69616 0.08115306
v -0.04498834 1.797993 0.02214641
v -0.04498833 1.797993 -0.02214822
v -0.0006835916 1.797993 -0.02214666
v -0.0006835999 1.797993 0.02214798
v -0.06098827 1.719296 -0.08115431
v -0.06098833 1.69616 -0.081155
v 0.06098816 1.69616 -0.08115388
v 0.06098804 1.719296 -0.08115504
v -0.06902283 1.443127 -0.06900734
v -0.06902294 1.443127 0.06900743
v 0.06902269 1.443127 0.06900713
v 0.06902284 1.443127 -0.06900764
v 0.08115906 1.48024 0.02405009
v 0.08115895 1.769595 0.02404907
v 0.08115897 1.769595 -0.02406962
v 0.08115907 1.48024 -0.02406859
v -0.08115912 1.48024 -0.02406953
v -0.08115906 1.769594 -0.02406871
v -0.08115909 1.769594 0.02404998
v -0.08115914 1.480241 0.02404915
v -0.06902283 1.443127 -0.06900734
v -0.08115916 1.480241 -0.08115476
v -0.08115911 1.48024 0.08115403
v -0.06902294 1.443127 0.06900743
v -0.06902294 1.443127 0.06900743
v -0.08115911 1.48024 0.08115403
v 0.0811589 1.480241 0.08115312
v 0.06902269 1.443127 0.06900713
v 0.06902269 1.443127 0.06900713
v 0.0811589 1.480241 0.08115312
v 0.08115903 1.48024 -0.08115382
v 0.06902284 1.443127 -0.06900764
v -0.08115916 1.480241 -0.08115476
v -0.06902283 1.443127 -0.06900734
v 0.06902284 1.443127 -0.06900764
v 0.08115903 1.48024 -0.08115382
v -0.08115905 1.769594 0.08115486
v -0.06902301 1.797993 0.06900704
v 0.06902283 1.797993 0.06900858
v 0.08115897 1.769595 0.08115395
v -0.08115909 1.769595 -0.08115393
v -0.06902287 1.797993 -0.06900774
v -0.06902301 1.797993 0.06900704
v -0.08115905 1.769594 0.08115486
v -0.06902287 1.797993 -0.06900774
v -0.08115909 1.769595 -0.08115393
v 0.08115893 1.769595 -0.08115484
v 0.06902277 1.797993 -0.06900804
v 0.08115897 1.769595 0.08115395
v 0.06902283 1.797993 0.06900858
v 0.06902277 1.797993 -0.06900804
v 0.08115893 1.769595 -0.08115484
v 0.0811589 1.480241 0.08115312
v 0.08115906 1.48024 0.02405009
v 0.08115907 1.48024 -0.02406859
v 0.0811589 1.480241 0.08115312
v 0.08115907 1.48024 -0.02406859
v 0.08115903 1.48024 -0.08115382
v 0.08115903 1.48024 -0.08115382
v 0.08115907 1.48024 -0.02406859
v 0.08115897 1.769595 -0.02406962
v 0.08115893 1.769595 -0.08115484
v 0.08115893 1.769595 -0.08115484
v 0.08115897 1.769595 -0.02406962
v 0.08115895 1.769595 0.02404907
v 0.08115893 1.769595 -0.08115484
v 0.08115895 1.769595 0.02404907
v 0.08115897 1.769595 0.08115395
v 0.08115897 1.769595 0.08115395
v 0.08115895 1.769595 0.02404907
v 0.08115906 1.48024 0.02405009
v 0.0811589 1.480241 0.08115312
v -0.08115916 1.480241 -0.08115476
v -0.08115912 1.48024 -0.02406953
v -0.08115914 1.480241 0.02404915
v -0.08115916 1.480241 -0.08115476
v -0.08115914 1.480241 0.02404915
v -0.08115911 1.48024 0.08115403
v -0.08115911 1.48024 0.08115403
v -0.08115914 1.480241 0.02404915
v -0.08115909 1.769594 0.02404998
v -0.08115905 1.769594 0.08115486
v -0.08115905 1.769594 0.08115486
v -0.08115909 1.769594 0.02404998
v -0.08115906 1.769594 -0.02406871
v -0.08115905 1.769594 0.08115486
v -0.08115906 1.769594 -0.02406871
v -0.08115909 1.769595 -0.08115393
v -0.08115909 1.769595 -0.08115393
v -0.08115906 1.769594 -0.02406871
v -0.08115912 1.48024 -0.02406953
v -0.08115916 1.480241 -0.08115476
v -0.06902301 1.797993 0.06900704
v -0.05555923 1.797993 0.05554336
v 0.05556891 1.797993 0.05554402
v 0.06902283 1.797993 0.06900858
v 0.05556886 1.797993 -0.05556492
v 0.06902277 1.797993 -0.06900804
v -0.0555591 1.797993 -0.05556372
v -0.06902287 1.797993 -0.06900774
v -0.05555923 1.797993 0.05554336
v -0.04498834 1.797993 0.02214641
v -0.0006835999 1.797993 0.02214798
v 0.05556891 1.797993 0.05554402
v -0.0555591 1.797993 -0.05556372
v -0.04498833 1.797993 -0.02214822
v 0.05556886 1.797993 -0.05556492
v -0.0006835916 1.797993 -0.02214666
v 0.0440866 1.797993 -0.02677381
v 0.04408663 1.797993 0.02675466
v -0.0003170484 1.797993 -0.01824354
v -0.0003171046 1.797993 0.01824388
v 0.03200981 1.797993 0.0133299
v 0.008936144 1.797993 0.009079883
v 0.008936203 1.797993 -0.009089174
v 0.0320098 1.797993 -0.01334986
v 0.04408663 1.797993 0.02675466
v 0.03200981 1.797993 0.0133299
v 0.0320098 1.797993 -0.01334986
v 0.0440866 1.797993 -0.02677381
v 0.008936203 1.797993 -0.009089174
v -0.0003170484 1.797993 -0.01824354
v 0.008936144 1.797993 0.009079883
v -0.0003171046 1.797993 0.01824388
v -0.08115911 1.48024 0.08115403
v -0.0485845 1.64952 0.08115444
v 0.04858441 1.64952 0.08115418
v 0.0811589 1.480241 0.08115312
v 0.06098803 1.69616 0.08115306
v 0.06098808 1.719296 0.08115376
v 0.08115897 1.769595 0.08115395
v 0.04858433 1.668923 0.08115336
v -0.06098823 1.719296 0.08115449
v -0.08115905 1.769594 0.08115486
v -0.06098828 1.69616 0.0811538
v -0.04858458 1.668923 0.08115362
v -0.08115909 1.769595 -0.08115393
v -0.06098827 1.719296 -0.08115431
v 0.06098804 1.719296 -0.08115504
v 0.08115893 1.769595 -0.08115484
v 0.06098816 1.69616 -0.08115388
v 0.04858436 1.64952 -0.08115462
v 0.08115903 1.48024 -0.08115382
v 0.04858446 1.668923 -0.08115359
v -0.04858455 1.64952 -0.08115436
v -0.08115916 1.480241 -0.08115476
v -0.04858445 1.668923 -0.08115333
v -0.06098833 1.69616 -0.081155
v -0.04858445 1.668923 -0.08115333
v -0.04858455 1.64952 -0.08115436
v 0.04858436 1.64952 -0.08115462
v 0.04858446 1.668923 -0.08115359
v -0.0485845 1.64952 0.08115444
v -0.04858458 1.668923 0.08115362
v 0.04858433 1.668923 0.08115336
v 0.04858441 1.64952 0.08115418

vn 0.9706266 -0.09010732 0.2230802
vn 0.9706266 -0.09010732 0.2230802
vn 0.9706266 -0.09010732 0.2230802
vn 0.9706266 -0.09010732 0.2230802
vn -0.2221251 0.02062082 0.9748001
vn -0.2221251 0.02062082 0.9748001
vn -0.2221251 0.02062082 0.9748001
vn -0.2221251 0.02062082 0.9748001
vn -0.9706266 0.09010732 -0.2230802
vn -0.9706266 0.09010732 -0.2230802
vn -0.9706266 0.09010732 -0.2230802
vn -0.9706266 0.09010732 -0.2230802
vn 0.2221251 -0.02062082 -0.9748001
vn 0.2221251 -0.02062082 -0.9748001
vn 0.2221251 -0.02062082 -0.9748001
vn 0.2221251 -0.02062082 -0.9748001
vn 0.09243667 0.9957186 -5.960464E-08
vn 0.09243667 0.9957186 -5.960464E-08
vn 0.09243667 0.9957186 -5.960464E-08
vn 0.09243667 0.9957186 -5.960464E-08
vn -0.09243667 -0.9957186 5.960464E-08
vn -0.09243667 -0.9957186 5.960464E-08
vn -0.09243667 -0.9957186 5.960464E-08
vn -0.09243667 -0.9957186 5.960464E-08
vn -0.01881985 -0.952812 -0.3029773
vn -0.01881985 -0.952812 -0.3029773
vn -0.01881985 -0.952812 -0.3029773
vn -0.01881985 -0.952812 -0.3029773
vn 0.9915704 -0.09205163 -0.0911857
vn 0.9915704 -0.09205163 -0.0911857
vn 0.9915704 -0.09205163 -0.0911857
vn 0.9915704 -0.09205163 -0.0911857
vn 0.1568971 0.9399937 -0.3029774
vn 0.1568971 0.9399937 -0.3029774
vn 0.1568971 0.9399937 -0.3029774
vn 0.1568971 0.9399937 -0.3029774
vn -0.8533914 0.07922389 -0.5152153
vn -0.8533914 0.07922389 -0.5152153
vn -0.8533914 0.07922389 -0.5152153
vn -0.8533914 0.07922389 -0.5152153
vn 0.8050777 -0.07473872 0.588442
vn 0.8050777 -0.07473872 0.588442
vn 0.8050777 -0.07473872 0.588442
vn 0.8050777 -0.07473872 0.588442
vn -0.1722894 -0.9075094 0.3830706
vn -0.1722894 -0.9075094 0.3830706
vn -0.1722894 -0.9075094 0.3830706
vn -0.1722894 -0.9075094 0.3830706
vn -0.9797765 0.09095675 0.178227
vn -0.9797765 0.09095675 0.178227
vn -0.9797765 0.09095675 0.178227
vn -0.9797765 0.09095675 0.178227
vn -0.002289124 0.9237163 0.3830705
vn -0.002289124 0.9237163 0.3830705
vn -0.002289124 0.9237163 0.3830705
vn -0.002289124 0.9237163 0.3830705
vn -0.2221251 0.02062082 0.9748001
vn -0.2221251 0.02062082 0.9748001
vn -0.2221251 0.02062082 0.9748001
vn -0.2221251 0.02062082 0.9748001
vn -0.2221251 0.02062082 0.9748001
vn -0.2221251 0.02062082 0.9748001
vn 0.09243667 0.9957186 -5.960464E-08
vn 0.09243667 0.9957186 -5.960464E-08
vn 0.09243667 0.9957186 -5.960464E-08
vn 0.09243667 0.9957186 -5.960464E-08
vn -0.2221251 0.02062082 0.9748001
vn -0.2221251 0.02062082 0.9748001
vn -0.2221251 0.02062082 0.9748001
vn -0.2221251 0.02062082 0.9748001
vn -0.2221251 0.02062082 0.9748001
vn -0.2221251 0.02062082 0.9748001
vn 0.09243667 0.9957186 -5.960464E-08
vn 0.09243667 0.9957186 -5.960464E-08
vn 0.09243667 0.9957186 -5.960464E-08
vn 0.09243667 0.9957186 -5.960464E-08
vn -0.2221251 0.02062082 0.9748001
vn -0.2221251 0.02062082 0.9748001
vn -0.2221251 0.02062082 0.9748001
vn -0.2221251 0.02062082 0.9748001
vn -0.2221251 0.02062082 0.9748001
vn -0.2221251 0.02062082 0.9748001
vn -0.09243667 -0.9957186 5.960464E-08
vn -0.09243667 -0.9957186 5.960464E-08
vn -0.09243667 -0.9957186 5.960464E-08
vn -0.09243667 -0.9957186 5.960464E-08
vn -0.2221251 0.02062082 0.9748001
vn -0.2221251 0.02062082 0.9748001
vn -0.2221251 0.02062082 0.9748001
vn -0.2221251 0.02062082 0.9748001
vn -0.2221251 0.02062082 0.9748001
vn -0.2221251 0.02062082 0.9748001
vn -0.09243667 -0.9957186 5.960464E-08
vn -0.09243667 -0.9957186 5.960464E-08
vn -0.09243667 -0.9957186 5.960464E-08
vn -0.09243667 -0.9957186 5.960464E-08
vn -0.2221251 0.02062082 0.9748001
vn -0.2221251 0.02062082 0.9748001
vn -0.2221251 0.02062082 0.9748001
vn -0.2221251 0.02062082 0.9748001
vn -0.2221251 0.02062082 0.9748001
vn -0.2221251 0.02062082 0.9748001
vn -0.2221251 0.02062082 0.9748001
vn -0.2221251 0.02062082 0.9748001
vn -0.2221251 0.02062082 0.9748001
vn -0.2221251 0.02062082 0.9748001
vn -0.2221251 0.02062082 0.9748001
vn -0.2221251 0.02062082 0.9748001
vn -0.2221251 0.02062082 0.9748001
vn -0.2221251 0.02062082 0.9748001
vn -0.2221251 0.02062082 0.9748001
vn -0.2221251 0.02062082 0.9748001
vn -0.2221251 0.02062082 0.9748001
vn -0.2221251 0.02062082 0.9748001
vn -0.2221251 0.02062082 0.9748001
vn -0.2221251 0.02062082 0.9748001
vn -0.2221251 0.02062082 0.9748001
vn -0.2221251 0.02062082 0.9748001
vn -0.2221251 0.02062082 0.9748001
vn -0.2221251 0.02062082 0.9748001
vn -0.2221251 0.02062082 0.9748001
vn -0.2221251 0.02062082 0.9748001
vn -0.2221251 0.02062082 0.9748001
vn -0.2221251 0.02062082 0.9748001
vn -0.2221251 0.02062082 0.9748001
vn -0.2221251 0.02062082 0.9748001
vn -0.2221251 0.02062082 0.9748001
vn -0.2221251 0.02062082 0.9748001
vn 0.9706266 -0.09010732 0.2230802
vn 0.9706266 -0.09010732 0.2230802
vn 0.9706266 -0.09010732 0.2230802
vn 0.9706266 -0.09010732 0.2230802
vn 0.9706266 -0.09010732 0.2230802
vn 0.9706266 -0.09010732 0.2230802
vn 0.9706266 -0.09010732 0.2230802
vn 0.9706266 -0.09010732 0.2230802
vn 0.9706266 -0.09010732 0.2230802
vn 0.9706266 -0.09010732 0.2230802
vn 0.9706266 -0.09010732 0.2230802
vn 0.9706266 -0.09010732 0.2230802
vn -0.9706266 0.09010732 -0.2230802
vn -0.9706266 0.09010732 -0.2230802
vn -0.9706266 0.09010732 -0.2230802
vn -0.9706266 0.09010732 -0.2230802
vn -0.9706266 0.09010732 -0.2230802
vn -0.9706266 0.09010732 -0.2230802
vn -0.9706266 0.09010732 -0.2230802
vn -0.9706266 0.09010732 -0.2230802
vn -0.9706266 0.09010732 -0.2230802
vn -0.9706266 0.09010732 -0.2230802
vn -0.9706266 0.09010732 -0.2230802
vn -0.9706266 0.09010732 -0.2230802
vn -0.9706266 0.09010732 -0.2230802
vn -0.9706266 0.09010732 -0.2230802
vn -0.9706266 0.09010732 -0.2230802
vn -0.9706266 0.09010732 -0.2230802
vn 0.9706266 -0.09010732 0.2230802
vn 0.9706266 -0.09010732 0.2230802
vn 0.9706266 -0.09010732 0.2230802
vn 0.9706266 -0.09010732 0.2230802

vt 0.385498 0.06500244
vt 0.385498 0.06500244
vt 0.385498 0.06500244
vt 0.385498 0.06500244
vt 0.1097412 0.4772949
vt 0.1097412 0.4772949
vt 0.1097412 0.4772949
vt 0.1097412 0.4772949
vt 0.385498 0.06500244
vt 0.385498 0.06500244
vt 0.385498 0.06500244
vt 0.385498 0.06500244
vt 0.302002 0.06317139
vt 0.302002 0.06317139
vt 0.302002 0.06317139
vt 0.302002 0.06317139
vt 0.3288574 0.06317139
vt 0.3288574 0.06317139
vt 0.3288574 0.06317139
vt 0.3288574 0.06317139
vt 0.3288574 0.06317139
vt 0.3288574 0.06317139
vt 0.3288574 0.06317139
vt 0.3288574 0.06317139
vt 0.3288574 0.06317139
vt 0.3288574 0.06317139
vt 0.3288574 0.06317139
vt 0.3288574 0.06317139
vt 0.3571777 0.06317139
vt 0.3571777 0.06317139
vt 0.3571777 0.06317139
vt 0.3571777 0.06317139
vt 0.3288574 0.06317139
vt 0.3288574 0.06317139
vt 0.3288574 0.06317139
vt 0.3288574 0.06317139
vt 0.3571777 0.06317139
vt 0.3571777 0.06317139
vt 0.3571777 0.06317139
vt 0.3571777 0.06317139
vt 0.3571777 0.06317139
vt 0.3571777 0.06317139
vt 0.3571777 0.06317139
vt 0.3571777 0.06317139
vt 0.3288574 0.06317139
vt 0.3288574 0.06317139
vt 0.3288574 0.06317139
vt 0.3288574 0.06317139
vt 0.3571777 0.06317139
vt 0.3571777 0.06317139
vt 0.3571777 0.06317139
vt 0.3571777 0.06317139
vt 0.3288574 0.06317139
vt 0.3288574 0.06317139
vt 0.3288574 0.06317139
vt 0.3288574 0.06317139
vt 0.3288574 0.06317139
vt 0.3288574 0.06317139
vt 0.3288574 0.06317139
vt 0.3288574 0.06317139
vt 0.3288574 0.06317139
vt 0.3288574 0.06317139
vt 0.2331543 0.1816406
vt 0.2331543 0.1816406
vt 0.2331543 0.1816406
vt 0.2331543 0.1816406
vt 0.3288574 0.06317139
vt 0.3288574 0.06317139
vt 0.3288574 0.06317139
vt 0.3288574 0.06317139
vt 0.3288574 0.06317139
vt 0.3288574 0.06317139
vt 0.2331543 0.1816406
vt 0.2331543 0.1816406
vt 0.2331543 0.1816406
vt 0.2331543 0.1816406
vt 0.3288574 0.06317139
vt 0.3288574 0.06317139
vt 0.3288574 0.06317139
vt 0.3288574 0.06317139
vt 0.3288574 0.06317139
vt 0.3288574 0.06317139
vt 0.2331543 0.1816406
vt 0.2331543 0.1816406
vt 0.2331543 0.1816406
vt 0.2331543 0.1816406
vt 0.3288574 0.06317139
vt 0.3288574 0.06317139
vt 0.3288574 0.06317139
vt 0.3288574 0.06317139
vt 0.3288574 0.06317139
vt 0.3288574 0.06317139
vt 0.2331543 0.1816406
vt 0.2331543 0.1816406
vt 0.2331543 0.1816406
vt 0.2331543 0.1816406
vt 0.3886719 0.06317139
vt 0.3886719 0.06317139
vt 0.3886719 0.06317139
vt 0.3886719 0.06317139
vt 0.3886719 0.06317139
vt 0.3886719 0.06317139
vt 0.3886719 0.06317139
vt 0.3886719 0.06317139
vt 0.3330078 0.06317139
vt 0.3330078 0.06317139
vt 0.3330078 0.06317139
vt 0.3330078 0.06317139
vt 0.3330078 0.06317139
vt 0.3330078 0.06317139
vt 0.3330078 0.06317139
vt 0.3330078 0.06317139
vt 0.3330078 0.06317139
vt 0.3330078 0.06317139
vt 0.3330078 0.06317139
vt 0.3330078 0.06317139
vt 0.3330078 0.06317139
vt 0.3330078 0.06317139
vt 0.3330078 0.06317139
vt 0.3330078 0.06317139
vt 0.3886719 0.06317139
vt 0.3886719 0.06317139
vt 0.3886719 0.06317139
vt 0.3886719 0.06317139
vt 0.3886719 0.06317139
vt 0.3886719 0.06317139
vt 0.3886719 0.06317139
vt 0.3886719 0.06317139
vt 0.2614746 0.1816406
vt 0.2614746 0.1816406
vt 0.2614746 0.1816406
vt 0.2614746 0.1816406
vt 0.2614746 0.1816406
vt 0.2614746 0.1816406
vt 0.2614746 0.1816406
vt 0.2614746 0.1816406
vt 0.2614746 0.1816406
vt 0.2614746 0.1816406
vt 0.2614746 0.1816406
vt 0.2614746 0.1816406
vt 0.2614746 0.1816406
vt 0.2614746 0.1816406
vt 0.2614746 0.1816406
vt 0.2614746 0.1816406
vt 0.2614746 0.1816406
vt 0.2614746 0.1816406
vt 0.2614746 0.1816406
vt 0.2614746 0.1816406
vt 0.2614746 0.1816406
vt 0.2614746 0.1816406
vt 0.2614746 0.1816406
vt 0.2614746 0.1816406
vt 0.385498 0.06500244
vt 0.385498 0.06500244
vt 0.385498 0.06500244
vt 0.385498 0.06500244
vt 0.385498 0.06500244
vt 0.385498 0.06500244
vt 0.385498 0.06500244
vt 0.385498 0.06500244

g SA_Prop_BeerCan_02_1319_186
usemtl SA_Prop_BeerCan_02_1319_186
usemap SA_Prop_BeerCan_02_1319_186
f 1/1/1 3/3/3 2/2/2
f 1/1/1 4/4/4 3/3/3
f 5/5/5 7/7/7 6/6/6
f 5/5/5 8/8/8 7/7/7
f 9/9/9 11/11/11 10/10/10
f 9/9/9 12/12/12 11/11/11
f 13/13/13 15/15/15 14/14/14
f 13/13/13 16/16/16 15/15/15
f 17/17/17 19/19/19 18/18/18
f 17/17/17 20/20/20 19/19/19
f 21/21/21 23/23/23 22/22/22
f 21/21/21 24/24/24 23/23/23
f 25/25/25 27/27/27 26/26/26
f 25/25/25 28/28/28 27/27/27
f 29/29/29 31/31/31 30/30/30
f 29/29/29 32/32/32 31/31/31
f 33/33/33 35/35/35 34/34/34
f 33/33/33 36/36/36 35/35/35
f 37/37/37 39/39/39 38/38/38
f 37/37/37 40/40/40 39/39/39
f 41/41/41 43/43/43 42/42/42
f 41/41/41 44/44/44 43/43/43
f 45/45/45 47/47/47 46/46/46
f 45/45/45 48/48/48 47/47/47
f 49/49/49 51/51/51 50/50/50
f 49/49/49 52/52/52 51/51/51
f 53/53/53 55/55/55 54/54/54
f 53/53/53 56/56/56 55/55/55
f 57/57/57 59/59/59 58/58/58
f 60/60/60 62/62/62 61/61/61
f 63/63/63 65/65/65 64/64/64
f 63/63/63 66/66/66 65/65/65
f 67/67/67 69/69/69 68/68/68
f 70/70/70 72/72/72 71/71/71
f 73/73/73 75/75/75 74/74/74
f 73/73/73 76/76/76 75/75/75
f 77/77/77 79/79/79 78/78/78
f 80/80/80 82/82/82 81/81/81
f 83/83/83 85/85/85 84/84/84
f 83/83/83 86/86/86 85/85/85
f 87/87/87 89/89/89 88/88/88
f 90/90/90 92/92/92 91/91/91
f 93/93/93 95/95/95 94/94/94
f 93/93/93 96/96/96 95/95/95
f 97/97/97 99/99/99 98/98/98
f 97/97/97 100/100/100 99/99/99
f 100/100/100 101/101/101 99/99/99
f 100/100/100 102/102/102 101/101/101
f 102/102/102 103/103/103 101/101/101
f 102/102/102 104/104/104 103/103/103
f 104/104/104 98/98/98 103/103/103
f 104/104/104 97/97/97 98/98/98
f 105/105/105 107/107/107 106/106/106
f 105/105/105 108/108/108 107/107/107
f 109/109/109 105/105/105 106/106/106
f 109/109/109 106/106/106 110/110/110
f 111/111/111 109/109/109 110/110/110
f 111/111/111 110/110/110 112/112/112
f 108/108/108 111/111/111 113/113/113
f 108/108/108 113/113/113 114/114/114
f 107/107/107 108/108/108 114/114/114
f 111/111/111 115/115/115 113/113/113
f 111/111/111 112/112/112 115/115/115
f 112/112/112 116/116/116 115/115/115
f 112/112/112 107/107/107 116/116/116
f 107/107/107 114/114/114 116/116/116
f 117/117/117 119/119/119 118/118/118
f 117/117/117 120/120/120 119/119/119
f 121/121/121 123/123/123 122/122/122
f 121/121/121 124/124/124 123/123/123
f 124/124/124 125/125/125 123/123/123
f 124/124/124 126/126/126 125/125/125
f 126/126/126 127/127/127 125/125/125
f 126/126/126 128/128/128 127/127/127
f 128/128/128 122/122/122 127/127/127
f 128/128/128 121/121/121 122/122/122
f 129/129/129 131/131/131 130/130/130
f 129/129/129 132/132/132 131/131/131
f 132/132/132 133/133/133 131/131/131
f 132/132/132 134/134/134 133/133/133
f 134/134/134 132/132/132 135/135/135
f 131/131/131 133/133/133 136/136/136
f 135/135/135 137/137/137 134/134/134
f 135/135/135 138/138/138 137/137/137
f 138/138/138 139/139/139 137/137/137
f 130/130/130 139/139/139 129/129/129
f 129/129/129 139/139/139 138/138/138
f 139/139/139 130/130/130 140/140/140
f 140/140/140 133/133/133 139/139/139
f 140/140/140 136/136/136 133/133/133
f 141/141/141 143/143/143 142/142/142
f 141/141/141 144/144/144 143/143/143
f 143/143/143 144/144/144 145/145/145
f 144/144/144 146/146/146 145/145/145
f 146/146/146 144/144/144 147/147/147
f 145/145/145 146/146/146 148/148/148
f 147/147/147 149/149/149 146/146/146
f 147/147/147 150/150/150 149/149/149
f 142/142/142 150/150/150 141/141/141
f 150/150/150 151/151/151 149/149/149
f 151/151/151 150/150/150 152/152/152
f 152/152/152 150/150/150 142/142/142
f 152/152/152 148/148/148 151/151/151
f 152/152/152 145/145/145 148/148/148
f 153/153/153 155/155/155 154/154/154
f 153/153/153 156/156/156 155/155/155
f 157/157/157 159/159/159 158/158/158
f 157/157/157 160/160/160 159/159/159
