#SA_Prop_Desk_01_585_41.obj

v -1.068275 1.348457 0.8524625
v -1.068275 1.445029 0.8524625
v 1.068291 1.445029 0.8524625
v 1.068291 1.348457 0.8524625
v 1.068291 1.445029 0.8524625
v -1.068275 1.445029 0.8524625
v -1.068275 1.445029 -0.8524476
v 1.068291 1.445029 -0.8524476
v -1.068275 1.445029 -0.8524476
v -1.068275 1.348457 -0.8524476
v 1.068291 1.348457 -0.8524476
v 1.068291 1.445029 -0.8524476
v -1.068275 1.348457 -0.8524476
v -1.068275 1.348457 0.8524625
v 1.068291 1.348457 0.8524625
v 1.068291 1.348457 -0.8524476
v 1.068291 1.348457 -0.8524476
v 1.068291 1.348457 0.8524625
v 1.068291 1.445029 0.8524625
v 1.068291 1.445029 -0.8524476
v -1.068275 1.445029 0.8524625
v -1.068275 1.348457 0.8524625
v -1.068275 1.348457 -0.8524476
v -1.068275 1.445029 -0.8524476
v 0.6415706 -0.01690686 0.6810607
v 0.6415706 0.0925837 0.6810607
v 0.6415706 0.0925837 -0.6342469
v 0.6415706 -0.01690686 -0.6342469
v 0.6415706 0.0925837 0.6810607
v 0.4696662 0.0925837 0.6810607
v 0.4696662 0.0925837 -0.6342469
v 0.6415706 0.0925837 -0.6342469
v 0.4696662 0.0925837 0.6810607
v 0.4696662 -0.01690686 0.6810607
v 0.4696662 -0.01690686 -0.6342469
v 0.4696662 0.0925837 -0.6342469
v 0.4696662 -0.01690686 0.6810607
v 0.6415706 -0.01690686 0.6810607
v 0.6415706 -0.01690686 -0.6342469
v 0.4696662 -0.01690686 -0.6342469
v 0.6415706 -0.01690686 -0.6342469
v 0.6415706 0.0925837 -0.6342469
v 0.4696662 0.0925837 -0.6342469
v 0.4696662 -0.01690686 -0.6342469
v 0.4696662 -0.01690686 0.6810607
v 0.4696662 0.0925837 0.6810607
v 0.6415706 0.0925837 0.6810607
v 0.6415706 -0.01690686 0.6810607
v 0.5266266 -0.008473665 -0.08021554
v 0.5951082 -0.008473665 -0.08021554
v 0.5951082 1.407385 -0.08021554
v 0.5266266 1.407385 -0.08021554
v 0.5951082 -0.008473665 -0.08021554
v 0.5951082 -0.008473665 0.1270294
v 0.5951082 1.407385 0.1270294
v 0.5951082 1.407385 -0.08021554
v 0.5951082 -0.008473665 0.1270294
v 0.5266266 -0.008473665 0.1270294
v 0.5266266 1.407385 0.1270294
v 0.5951082 1.407385 0.1270294
v 0.5266266 -0.008473665 0.1270294
v 0.5266266 -0.008473665 -0.08021554
v 0.5266266 1.407385 -0.08021554
v 0.5266266 1.407385 0.1270294
v 0.5266266 1.407385 -0.08021554
v 0.5951082 1.407385 -0.08021554
v 0.5951082 1.407385 0.1270294
v 0.5266266 1.407385 0.1270294
v 0.5266266 -0.008473665 0.1270294
v 0.5951082 -0.008473665 0.1270294
v 0.5951082 -0.008473665 -0.08021554
v 0.5266266 -0.008473665 -0.08021554
v -0.5296553 -0.008473665 0.1270294
v -0.5981384 -0.008473665 0.1270294
v -0.5981384 1.407385 0.1270294
v -0.5296553 1.407385 0.1270294
v -0.5981384 -0.008473665 0.1270294
v -0.5981384 -0.008473665 -0.08021554
v -0.5981384 1.407385 -0.08021554
v -0.5981384 1.407385 0.1270294
v -0.5981384 -0.008473665 -0.08021554
v -0.5296553 -0.008473665 -0.08021554
v -0.5296553 1.407385 -0.08021554
v -0.5981384 1.407385 -0.08021554
v -0.5296553 -0.008473665 -0.08021554
v -0.5296553 -0.008473665 0.1270294
v -0.5296553 1.407385 0.1270294
v -0.5296553 1.407385 -0.08021554
v -0.5296553 1.407385 0.1270294
v -0.5981384 1.407385 0.1270294
v -0.5981384 1.407385 -0.08021554
v -0.5296553 1.407385 -0.08021554
v -0.5296553 -0.008473665 -0.08021554
v -0.5981384 -0.008473665 -0.08021554
v -0.5981384 -0.008473665 0.1270294
v -0.5296553 -0.008473665 0.1270294
v -0.4743807 -0.01690686 0.6810607
v -0.4743807 0.0925837 0.6810607
v -0.4743807 0.0925837 -0.6342469
v -0.4743807 -0.01690686 -0.6342469
v -0.4743807 0.0925837 0.6810607
v -0.6462866 0.0925837 0.6810607
v -0.6462866 0.0925837 -0.6342469
v -0.4743807 0.0925837 -0.6342469
v -0.6462866 0.0925837 0.6810607
v -0.6462866 -0.01690686 0.6810607
v -0.6462866 -0.01690686 -0.6342469
v -0.6462866 0.0925837 -0.6342469
v -0.6462866 -0.01690686 0.6810607
v -0.4743807 -0.01690686 0.6810607
v -0.4743807 -0.01690686 -0.6342469
v -0.6462866 -0.01690686 -0.6342469
v -0.4743807 -0.01690686 -0.6342469
v -0.4743807 0.0925837 -0.6342469
v -0.6462866 0.0925837 -0.6342469
v -0.6462866 -0.01690686 -0.6342469
v -0.6462866 -0.01690686 0.6810607
v -0.6462866 0.0925837 0.6810607
v -0.4743807 0.0925837 0.6810607
v -0.4743807 -0.01690686 0.6810607

vn 0 0 1
vn 0 0 1
vn 0 0 1
vn 0 0 1
vn 0 1 0
vn 0 1 0
vn 0 1 0
vn 0 1 0
vn 0 0 -1
vn 0 0 -1
vn 0 0 -1
vn 0 0 -1
vn 0 -1 0
vn 0 -1 0
vn 0 -1 0
vn 0 -1 0
vn 1 0 0
vn 1 0 0
vn 1 0 0
vn 1 0 0
vn -1 0 0
vn -1 0 0
vn -1 0 0
vn -1 0 0
vn 1 0 0
vn 1 0 0
vn 1 0 0
vn 1 0 0
vn 0 1 0
vn 0 1 0
vn 0 1 0
vn 0 1 0
vn -1 0 0
vn -1 0 0
vn -1 0 0
vn -1 0 0
vn 0 -1 0
vn 0 -1 0
vn 0 -1 0
vn 0 -1 0
vn 0 0 -1
vn 0 0 -1
vn 0 0 -1
vn 0 0 -1
vn 0 0 1
vn 0 0 1
vn 0 0 1
vn 0 0 1
vn 0 0 -1
vn 0 0 -1
vn 0 0 -1
vn 0 0 -1
vn 1 0 0
vn 1 0 0
vn 1 0 0
vn 1 0 0
vn 0 0 1
vn 0 0 1
vn 0 0 1
vn 0 0 1
vn -1 0 0
vn -1 0 0
vn -1 0 0
vn -1 0 0
vn 0 1 0
vn 0 1 0
vn 0 1 0
vn 0 1 0
vn 0 -1 0
vn 0 -1 0
vn 0 -1 0
vn 0 -1 0
vn 0 0 1
vn 0 0 1
vn 0 0 1
vn 0 0 1
vn -1 0 0
vn -1 0 0
vn -1 0 0
vn -1 0 0
vn 0 0 -1
vn 0 0 -1
vn 0 0 -1
vn 0 0 -1
vn 1 0 0
vn 1 0 0
vn 1 0 0
vn 1 0 0
vn 0 1 0
vn 0 1 0
vn 0 1 0
vn 0 1 0
vn 0 -1 0
vn 0 -1 0
vn 0 -1 0
vn 0 -1 0
vn 1 0 0
vn 1 0 0
vn 1 0 0
vn 1 0 0
vn 0 1 0
vn 0 1 0
vn 0 1 0
vn 0 1 0
vn -1 0 0
vn -1 0 0
vn -1 0 0
vn -1 0 0
vn 0 -1 0
vn 0 -1 0
vn 0 -1 0
vn 0 -1 0
vn 0 0 -1
vn 0 0 -1
vn 0 0 -1
vn 0 0 -1
vn 0 0 1
vn 0 0 1
vn 0 0 1
vn 0 0 1

vt 0.293457 0.3972168
vt 0.293457 0.3972168
vt 0.293457 0.3972168
vt 0.293457 0.3972168
vt 0.3886719 0.3972168
vt 0.3886719 0.3972168
vt 0.3886719 0.3972168
vt 0.3886719 0.3972168
vt 0.293457 0.3972168
vt 0.293457 0.3972168
vt 0.293457 0.3972168
vt 0.293457 0.3972168
vt 0.2381592 0.3972168
vt 0.2381592 0.3972168
vt 0.2381592 0.3972168
vt 0.2381592 0.3972168
vt 0.2648926 0.3972168
vt 0.2648926 0.3972168
vt 0.2648926 0.3972168
vt 0.2648926 0.3972168
vt 0.2648926 0.3972168
vt 0.2648926 0.3972168
vt 0.2648926 0.3972168
vt 0.2648926 0.3972168
vt 0.2340088 0.06216431
vt 0.2340088 0.06216431
vt 0.2340088 0.06216431
vt 0.2340088 0.06216431
vt 0.291748 0.06216431
vt 0.291748 0.06216431
vt 0.291748 0.06216431
vt 0.291748 0.06216431
vt 0.2340088 0.06216431
vt 0.2340088 0.06216431
vt 0.2340088 0.06216431
vt 0.2340088 0.06216431
vt 0.2340088 0.06216431
vt 0.2340088 0.06216431
vt 0.2340088 0.06216431
vt 0.2340088 0.06216431
vt 0.2340088 0.06216431
vt 0.2340088 0.06216431
vt 0.2340088 0.06216431
vt 0.2340088 0.06216431
vt 0.2340088 0.06216431
vt 0.2340088 0.06216431
vt 0.2340088 0.06216431
vt 0.2340088 0.06216431
vt 0.2340088 0.06216431
vt 0.2340088 0.06216431
vt 0.2340088 0.06216431
vt 0.2340088 0.06216431
vt 0.2663574 0.06216431
vt 0.2663574 0.06216431
vt 0.2663574 0.06216431
vt 0.2663574 0.06216431
vt 0.2340088 0.06216431
vt 0.2340088 0.06216431
vt 0.2340088 0.06216431
vt 0.2340088 0.06216431
vt 0.2036133 0.06216431
vt 0.2036133 0.06216431
vt 0.2036133 0.06216431
vt 0.2036133 0.06216431
vt 0.2340088 0.06216431
vt 0.2340088 0.06216431
vt 0.2340088 0.06216431
vt 0.2340088 0.06216431
vt 0.2340088 0.06216431
vt 0.2340088 0.06216431
vt 0.2340088 0.06216431
vt 0.2340088 0.06216431
vt 0.2340088 0.06216431
vt 0.2340088 0.06216431
vt 0.2340088 0.06216431
vt 0.2340088 0.06216431
vt 0.2663574 0.06216431
vt 0.2663574 0.06216431
vt 0.2663574 0.06216431
vt 0.2663574 0.06216431
vt 0.2340088 0.06216431
vt 0.2340088 0.06216431
vt 0.2340088 0.06216431
vt 0.2340088 0.06216431
vt 0.2036133 0.06216431
vt 0.2036133 0.06216431
vt 0.2036133 0.06216431
vt 0.2036133 0.06216431
vt 0.2340088 0.06216431
vt 0.2340088 0.06216431
vt 0.2340088 0.06216431
vt 0.2340088 0.06216431
vt 0.2340088 0.06216431
vt 0.2340088 0.06216431
vt 0.2340088 0.06216431
vt 0.2340088 0.06216431
vt 0.2340088 0.06216431
vt 0.2340088 0.06216431
vt 0.2340088 0.06216431
vt 0.2340088 0.06216431
vt 0.291748 0.06216431
vt 0.291748 0.06216431
vt 0.291748 0.06216431
vt 0.291748 0.06216431
vt 0.2340088 0.06216431
vt 0.2340088 0.06216431
vt 0.2340088 0.06216431
vt 0.2340088 0.06216431
vt 0.2340088 0.06216431
vt 0.2340088 0.06216431
vt 0.2340088 0.06216431
vt 0.2340088 0.06216431
vt 0.2340088 0.06216431
vt 0.2340088 0.06216431
vt 0.2340088 0.06216431
vt 0.2340088 0.06216431
vt 0.2340088 0.06216431
vt 0.2340088 0.06216431
vt 0.2340088 0.06216431
vt 0.2340088 0.06216431

g SA_Prop_Desk_01_585_41
usemtl SA_Prop_Desk_01_585_41
usemap SA_Prop_Desk_01_585_41
f 1/1/1 3/3/3 2/2/2
f 1/1/1 4/4/4 3/3/3
f 5/5/5 7/7/7 6/6/6
f 5/5/5 8/8/8 7/7/7
f 9/9/9 11/11/11 10/10/10
f 9/9/9 12/12/12 11/11/11
f 13/13/13 15/15/15 14/14/14
f 13/13/13 16/16/16 15/15/15
f 17/17/17 19/19/19 18/18/18
f 17/17/17 20/20/20 19/19/19
f 21/21/21 23/23/23 22/22/22
f 21/21/21 24/24/24 23/23/23
f 25/25/25 27/27/27 26/26/26
f 25/25/25 28/28/28 27/27/27
f 29/29/29 31/31/31 30/30/30
f 29/29/29 32/32/32 31/31/31
f 33/33/33 35/35/35 34/34/34
f 33/33/33 36/36/36 35/35/35
f 37/37/37 39/39/39 38/38/38
f 37/37/37 40/40/40 39/39/39
f 41/41/41 43/43/43 42/42/42
f 41/41/41 44/44/44 43/43/43
f 45/45/45 47/47/47 46/46/46
f 45/45/45 48/48/48 47/47/47
f 49/49/49 51/51/51 50/50/50
f 49/49/49 52/52/52 51/51/51
f 53/53/53 55/55/55 54/54/54
f 53/53/53 56/56/56 55/55/55
f 57/57/57 59/59/59 58/58/58
f 57/57/57 60/60/60 59/59/59
f 61/61/61 63/63/63 62/62/62
f 61/61/61 64/64/64 63/63/63
f 65/65/65 67/67/67 66/66/66
f 65/65/65 68/68/68 67/67/67
f 69/69/69 71/71/71 70/70/70
f 69/69/69 72/72/72 71/71/71
f 73/73/73 75/75/75 74/74/74
f 73/73/73 76/76/76 75/75/75
f 77/77/77 79/79/79 78/78/78
f 77/77/77 80/80/80 79/79/79
f 81/81/81 83/83/83 82/82/82
f 81/81/81 84/84/84 83/83/83
f 85/85/85 87/87/87 86/86/86
f 85/85/85 88/88/88 87/87/87
f 89/89/89 91/91/91 90/90/90
f 89/89/89 92/92/92 91/91/91
f 93/93/93 95/95/95 94/94/94
f 93/93/93 96/96/96 95/95/95
f 97/97/97 99/99/99 98/98/98
f 97/97/97 100/100/100 99/99/99
f 101/101/101 103/103/103 102/102/102
f 101/101/101 104/104/104 103/103/103
f 105/105/105 107/107/107 106/106/106
f 105/105/105 108/108/108 107/107/107
f 109/109/109 111/111/111 110/110/110
f 109/109/109 112/112/112 111/111/111
f 113/113/113 115/115/115 114/114/114
f 113/113/113 116/116/116 115/115/115
f 117/117/117 119/119/119 118/118/118
f 117/117/117 120/120/120 119/119/119
