#SA_Prop_Rubble_01_(4)_1413_197.obj

v -0.1939928 -0.06288621 1.254745
v -0.1939928 0.1252854 1.254745
v 0.0812608 0.1572349 1.308684
v 0.0812608 -0.09483575 1.308684
v -0.1939928 0.1252854 1.254745
v -0.4170537 0.1053754 0.7147783
v 0.1245118 0.1305633 0.7006646
v 0.0812608 0.1572349 1.308684
v -0.4170537 0.1053754 0.7147783
v -0.4170537 -0.04297621 0.7147783
v 0.1245118 -0.06816409 0.7006646
v 0.1245118 0.1305633 0.7006646
v 0.0812608 -0.09483575 1.308684
v 0.0812608 0.1572349 1.308684
v 0.1245118 0.1305633 0.7006646
v 0.1245118 -0.06816409 0.7006646
v -0.4170537 -0.04297621 0.7147783
v -0.4170537 0.1053754 0.7147783
v -0.1939928 0.1252854 1.254745
v -0.1939928 -0.06288621 1.254745
v 0.3795473 -0.07686197 -0.2403035
v 0.3795473 0.2173981 -0.2403035
v 0.6811138 0.2673599 -1.047593
v 0.6811138 -0.1268247 -1.047593
v 0.3795473 0.2173981 -0.2403035
v -0.1774218 0.1862621 -0.4710055
v -0.09185832 0.2256519 -1.145016
v 0.6811138 0.2673599 -1.047593
v -0.1774218 0.1862621 -0.4710055
v -0.1774218 -0.04572696 -0.4710055
v -0.09185832 -0.08511674 -1.145016
v -0.09185832 0.2256519 -1.145016
v 0.6811138 -0.1268247 -1.047593
v 0.6811138 0.2673599 -1.047593
v -0.09185832 0.2256519 -1.145016
v -0.09185832 -0.08511674 -1.145016
v -0.1774218 -0.04572696 -0.4710055
v -0.1774218 0.1862621 -0.4710055
v 0.3795473 0.2173981 -0.2403035
v 0.3795473 -0.07686197 -0.2403035
v -0.521919 -0.1879989 0.4952783
v -0.521919 0.1062611 0.4952783
v -1.432457 0.156223 -0.2658491
v -1.432457 -0.2379618 -0.2658491
v -0.521919 0.1062611 0.4952783
v -0.9829708 0.07512529 0.9001956
v -1.795097 0.1145151 0.4255909
v -1.432457 0.156223 -0.2658491
v -0.9829708 0.07512529 0.9001956
v -0.9829708 -0.1568639 0.9001956
v -1.795097 -0.1962536 0.4255909
v -1.795097 0.1145151 0.4255909
v -1.432457 -0.2379618 -0.2658491
v -1.432457 0.156223 -0.2658491
v -1.795097 0.1145151 0.4255909
v -1.795097 -0.1962536 0.4255909
v -0.9829708 -0.1568639 0.9001956
v -0.9829708 0.07512529 0.9001956
v -0.521919 0.1062611 0.4952783
v -0.521919 -0.1879989 0.4952783
v 0.8832553 -0.2285197 -0.336556
v 0.8004078 0.1957854 -0.341794
v 0.4312366 0.2028446 0.009475833
v 0.5422211 -0.3655476 0.01650608
v 0.8004078 0.1957854 -0.341794
v 1.37098 0.2685828 0.3050124
v 0.8355026 0.233069 1.12003
v 0.4312366 0.2028446 0.009475833
v 1.37098 0.2685828 0.3050124
v 1.43631 -0.06593241 0.3091458
v 0.923004 -0.2150408 1.125564
v 0.8355026 0.233069 1.12003
v 0.5422211 -0.3655476 0.01650608
v 0.4312366 0.2028446 0.009475833
v 0.8355026 0.233069 1.12003
v 0.923004 -0.2150408 1.125564
v 1.43631 -0.06593241 0.3091458
v 1.37098 0.2685828 0.3050124
v 0.8004078 0.1957854 -0.341794
v 0.8832553 -0.2285197 -0.336556

vn -0.1923066 0 0.9813349
vn -0.1923066 0 0.9813349
vn -0.1923066 0 0.9813349
vn -0.1923066 0 0.9813349
vn -0.06830544 0.9972204 -0.02976534
vn -0.06830544 0.9972204 -0.02976534
vn -0.06830544 0.9972204 -0.02976534
vn -0.06830544 0.9972204 -0.02976534
vn -0.02605336 0 -0.9996605
vn -0.02605336 0 -0.9996605
vn -0.02605336 0 -0.9996605
vn -0.02605336 0 -0.9996605
vn 0.9974795 0 0.07095485
vn 0.9974795 0 0.07095485
vn 0.9974795 0 0.07095485
vn 0.9974795 0 0.07095485
vn -0.9242427 0 0.3818054
vn -0.9242427 0 0.3818054
vn -0.9242427 0 0.3818054
vn -0.9242427 0 0.3818054
vn 0.9367734 0 0.3499366
vn 0.9367734 0 0.3499366
vn 0.9367734 0 0.3499366
vn 0.9367734 0 0.3499366
vn -0.06523488 0.9969393 0.0430863
vn -0.06523488 0.9969393 0.0430863
vn -0.06523488 0.9969393 0.0430863
vn -0.06523488 0.9969393 0.0430863
vn -0.9920384 0 -0.1259362
vn -0.9920384 0 -0.1259362
vn -0.9920384 0 -0.1259362
vn -0.9920384 0 -0.1259362
vn 0.1250483 0 -0.9921507
vn 0.1250483 0 -0.9921507
vn 0.1250483 0 -0.9921507
vn 0.1250483 0 -0.9921507
vn -0.3826798 0 0.9238811
vn -0.3826798 0 0.9238811
vn -0.3826798 0 0.9238811
vn -0.3826798 0 0.9238811
vn 0.6413504 0 -0.7672482
vn 0.6413504 0 -0.7672482
vn 0.6413504 0 -0.7672482
vn 0.6413504 0 -0.7672482
vn 0.002727451 0.9976587 0.06833513
vn 0.002727451 0.9976587 0.06833513
vn 0.002727451 0.9976587 0.06833513
vn 0.002727451 0.9976587 0.06833513
vn -0.5045572 0 0.8633782
vn -0.5045572 0 0.8633782
vn -0.5045572 0 0.8633782
vn -0.5045572 0 0.8633782
vn -0.8855907 0 -0.4644665
vn -0.8855907 0 -0.4644665
vn -0.8855907 0 -0.4644665
vn -0.8855907 0 -0.4644665
vn 0.6598864 0 0.7513654
vn 0.6598864 0 0.7513654
vn 0.6598864 0 0.7513654
vn 0.6598864 0 0.7513654
vn -0.683738 -0.1423505 -0.7157085
vn -0.683738 -0.1423505 -0.7157085
vn -0.683738 -0.1423505 -0.7157085
vn -0.683738 -0.1423505 -0.7157085
vn -0.06226454 0.9977722 -0.0239531
vn -0.06226454 0.9977722 -0.0239531
vn -0.06226454 0.9977722 -0.0239531
vn -0.06226454 0.9977722 -0.0239531
vn 0.8206586 0.1670116 0.5464674
vn 0.8206586 0.1670116 0.5464674
vn 0.8206586 0.1670116 0.5464674
vn 0.8206586 0.1670116 0.5464674
vn -0.9234408 -0.1761001 0.3409485
vn -0.9234408 -0.1761001 0.3409485
vn -0.9234408 -0.1761001 0.3409485
vn -0.9234408 -0.1761001 0.3409485
vn 0.7353984 0.1354033 -0.6639693
vn 0.7353984 0.1354033 -0.6639693
vn 0.7353984 0.1354033 -0.6639693
vn 0.7353984 0.1354033 -0.6639693

vt 0.1707764 0.06268311
vt 0.1707764 0.06268311
vt 0.1707764 0.06268311
vt 0.1707764 0.06268311
vt 0.2316895 0.06268311
vt 0.2316895 0.06268311
vt 0.2316895 0.06268311
vt 0.2316895 0.06268311
vt 0.1707764 0.06268311
vt 0.1707764 0.06268311
vt 0.1707764 0.06268311
vt 0.1707764 0.06268311
vt 0.2023926 0.06268311
vt 0.2023926 0.06268311
vt 0.2023926 0.06268311
vt 0.2023926 0.06268311
vt 0.2023926 0.06268311
vt 0.2023926 0.06268311
vt 0.2023926 0.06268311
vt 0.2023926 0.06268311
vt 0.1707764 0.06268311
vt 0.1707764 0.06268311
vt 0.1707764 0.06268311
vt 0.1707764 0.06268311
vt 0.2316895 0.06237793
vt 0.2316895 0.06237793
vt 0.2316895 0.06237793
vt 0.2316895 0.06237793
vt 0.1707764 0.06268311
vt 0.1707764 0.06268311
vt 0.1707764 0.06268311
vt 0.1707764 0.06268311
vt 0.2023926 0.06268311
vt 0.2023926 0.06268311
vt 0.2023926 0.06268311
vt 0.2023926 0.06268311
vt 0.2023926 0.06268311
vt 0.2023926 0.06268311
vt 0.2023926 0.06268311
vt 0.2023926 0.06268311
vt 0.1707764 0.06268311
vt 0.1707764 0.06268311
vt 0.1707764 0.06268311
vt 0.1707764 0.06268311
vt 0.2316895 0.06237793
vt 0.2316895 0.06237793
vt 0.2316895 0.06237793
vt 0.2316895 0.06237793
vt 0.1707764 0.06268311
vt 0.1707764 0.06268311
vt 0.1707764 0.06268311
vt 0.1707764 0.06268311
vt 0.2023926 0.06268311
vt 0.2023926 0.06268311
vt 0.2023926 0.06268311
vt 0.2023926 0.06268311
vt 0.2023926 0.06268311
vt 0.2023926 0.06268311
vt 0.2023926 0.06268311
vt 0.2023926 0.06268311
vt 0.1368408 0.06268311
vt 0.1368408 0.06268311
vt 0.1368408 0.06268311
vt 0.1368408 0.06268311
vt 0.1977539 0.06268311
vt 0.1977539 0.06268311
vt 0.1977539 0.06268311
vt 0.1977539 0.06268311
vt 0.1368408 0.06268311
vt 0.1368408 0.06268311
vt 0.1368408 0.06268311
vt 0.1368408 0.06268311
vt 0.168457 0.06268311
vt 0.168457 0.06268311
vt 0.168457 0.06268311
vt 0.168457 0.06268311
vt 0.168457 0.06268311
vt 0.168457 0.06268311
vt 0.168457 0.06268311
vt 0.168457 0.06268311

g SA_Prop_Rubble_01_(4)_1413_197
usemtl SA_Prop_Rubble_01_(4)_1413_197
usemap SA_Prop_Rubble_01_(4)_1413_197
f 1/1/1 3/3/3 2/2/2
f 1/1/1 4/4/4 3/3/3
f 5/5/5 7/7/7 6/6/6
f 5/5/5 8/8/8 7/7/7
f 9/9/9 11/11/11 10/10/10
f 9/9/9 12/12/12 11/11/11
f 13/13/13 15/15/15 14/14/14
f 13/13/13 16/16/16 15/15/15
f 17/17/17 19/19/19 18/18/18
f 17/17/17 20/20/20 19/19/19
f 21/21/21 23/23/23 22/22/22
f 21/21/21 24/24/24 23/23/23
f 25/25/25 27/27/27 26/26/26
f 25/25/25 28/28/28 27/27/27
f 29/29/29 31/31/31 30/30/30
f 29/29/29 32/32/32 31/31/31
f 33/33/33 35/35/35 34/34/34
f 33/33/33 36/36/36 35/35/35
f 37/37/37 39/39/39 38/38/38
f 37/37/37 40/40/40 39/39/39
f 41/41/41 43/43/43 42/42/42
f 41/41/41 44/44/44 43/43/43
f 45/45/45 47/47/47 46/46/46
f 45/45/45 48/48/48 47/47/47
f 49/49/49 51/51/51 50/50/50
f 49/49/49 52/52/52 51/51/51
f 53/53/53 55/55/55 54/54/54
f 53/53/53 56/56/56 55/55/55
f 57/57/57 59/59/59 58/58/58
f 57/57/57 60/60/60 59/59/59
f 61/61/61 63/63/63 62/62/62
f 61/61/61 64/64/64 63/63/63
f 65/65/65 67/67/67 66/66/66
f 65/65/65 68/68/68 67/67/67
f 69/69/69 71/71/71 70/70/70
f 69/69/69 72/72/72 71/71/71
f 73/73/73 75/75/75 74/74/74
f 73/73/73 76/76/76 75/75/75
f 77/77/77 79/79/79 78/78/78
f 77/77/77 80/80/80 79/79/79
