#SA_Prop_PowerLine_Plants_02_605_40.obj

v 1.183922 -3.003354 -0.3467672
v 0.9822006 -2.45829 -0.3205982
v 0.2576523 -2.438324 -0.3251989
v 0.1105423 -3.003354 -0.4337423
v 0.9822006 -2.45829 -0.3205982
v 0.9659804 -2.398257 0.4220088
v 0.4040451 -2.404005 0.4910776
v 0.2576523 -2.438324 -0.3251989
v 0.9659804 -2.398257 0.4220088
v 1.211449 -3.003354 0.6512644
v 0.4566726 -3.003354 0.8056833
v 0.4040451 -2.404005 0.4910776
v 0.1105423 -3.003354 -0.4337423
v 0.2576523 -2.438324 -0.3251989
v 0.4040451 -2.404005 0.4910776
v 0.4566726 -3.003354 0.8056833
v 1.211449 -3.003354 0.6512644
v 0.9659804 -2.398257 0.4220088
v 0.9822006 -2.45829 -0.3205982
v 1.183922 -3.003354 -0.3467672
v -0.9909132 -2.686419 -0.6729848
v -0.1915511 -2.652909 -0.5861775
v -0.1964491 -2.665131 -0.1549337
v -1.042854 -2.682344 -0.2555807
v -1.042854 -2.682344 -0.2555807
v -0.1964491 -2.665131 -0.1549337
v 0.08771525 -3.071311 0.2012217
v -1.211448 -3.071311 0.02048123
v -1.080574 -3.071311 -0.9097707
v 0.12574 -3.071311 -0.7569388
v -0.1915511 -2.652909 -0.5861775
v -0.9909132 -2.686419 -0.6729848
v -0.1915511 -2.652909 -0.5861775
v 0.12574 -3.071311 -0.7569388
v 0.08771525 -3.071311 0.2012217
v -0.1964491 -2.665131 -0.1549337
v -1.080574 -3.071311 -0.9097707
v -0.9909132 -2.686419 -0.6729848
v -1.042854 -2.682344 -0.2555807
v -1.211448 -3.071311 0.02048123
v 0.8053588 -1.289665 0.3311579
v 0.7485924 -0.4729362 0.2971843
v 0.7700348 -0.4964864 -0.06942356
v 0.7931519 -1.29519 -0.0945546
v 0.7485924 -0.4729362 0.2971843
v 0.2440283 -0.377609 0.302296
v 0.2522469 -0.401159 -0.2394293
v 0.7700348 -0.4964864 -0.06942356
v 0.2440283 -0.377609 0.302296
v 0.1886521 -1.34716 0.3191263
v 0.1833839 -1.387746 -0.2287099
v 0.2522469 -0.401159 -0.2394293
v 0.1886521 -1.34716 0.3191263
v 0.8053588 -1.289665 0.3311579
v 0.7931519 -1.29519 -0.0945546
v 0.1833839 -1.387746 -0.2287099
v 0.7931519 -1.29519 -0.0945546
v 0.7700348 -0.4964864 -0.06942356
v 0.2522469 -0.401159 -0.2394293
v 0.1833839 -1.387746 -0.2287099
v 0.1886521 -1.34716 0.3191263
v 0.2440283 -0.377609 0.302296
v 0.7485924 -0.4729362 0.2971843
v 0.8053588 -1.289665 0.3311579
v 0.4435064 0.294328 -0.1796148
v 0.429905 0.5985892 -0.1981922
v 0.4184207 0.6330721 0.2638668
v 0.394329 0.299382 0.3010981
v 0.429905 0.5985892 -0.1981922
v 0.7291946 0.7022681 -0.04378857
v 0.6973002 0.6923411 0.3035166
v 0.4184207 0.6330721 0.2638668
v 0.7291946 0.7022681 -0.04378857
v 0.752516 0.299382 -0.04393365
v 0.7348634 0.2838116 0.3022349
v 0.6973002 0.6923411 0.3035166
v 0.752516 0.299382 -0.04393365
v 0.4435064 0.294328 -0.1796148
v 0.394329 0.299382 0.3010981
v 0.7348634 0.2838116 0.3022349
v 0.394329 0.299382 0.3010981
v 0.4184207 0.6330721 0.2638668
v 0.6973002 0.6923411 0.3035166
v 0.7348634 0.2838116 0.3022349
v 0.752516 0.299382 -0.04393365
v 0.7291946 0.7022681 -0.04378857
v 0.429905 0.5985892 -0.1981922
v 0.4435064 0.294328 -0.1796148
v 0.1844102 2.271377 0.2632793
v 0.2544556 2.953631 0.2067531
v 0.4941826 2.933922 0.2883646
v 0.5292054 2.271377 0.3255656
v 0.2544556 2.953631 0.2067531
v 0.2873497 3.071311 -0.1363027
v 0.5397339 3.0516 -0.09872791
v 0.4941826 2.933922 0.2883646
v 0.2873497 3.071311 -0.1363027
v 0.1882439 2.271377 -0.1666067
v 0.5379602 2.240462 -0.1462362
v 0.5397339 3.0516 -0.09872791
v 0.1882439 2.271377 -0.1666067
v 0.1844102 2.271377 0.2632793
v 0.5292054 2.271377 0.3255656
v 0.5379602 2.240462 -0.1462362
v 0.5292054 2.271377 0.3255656
v 0.4941826 2.933922 0.2883646
v 0.5397339 3.0516 -0.09872791
v 0.5379602 2.240462 -0.1462362
v 0.1882439 2.271377 -0.1666067
v 0.2873497 3.071311 -0.1363027
v 0.2544556 2.953631 0.2067531
v 0.1844102 2.271377 0.2632793
v -0.1267433 -2.987405 0.7570994
v -0.4993019 -2.348065 0.7280772
v -0.5151346 -2.349358 0.6762202
v -0.1749114 -2.987405 0.4267008
v -0.4993019 -2.348065 0.7280772
v -0.5285301 -2.356059 0.7374079
v -0.5443647 -2.357352 0.6855509
v -0.5151346 -2.349358 0.6762202
v -0.5285301 -2.356059 0.7374079
v -0.3054807 -2.987405 0.8688852
v -0.4177665 -2.987405 0.5010796
v -0.5443647 -2.357352 0.6855509
v -0.3054807 -2.987405 0.8688852
v -0.1267433 -2.987405 0.7570994
v -0.1749114 -2.987405 0.4267008
v -0.4177665 -2.987405 0.5010796
v -0.1749114 -2.987405 0.4267008
v -0.5151346 -2.349358 0.6762202
v -0.5443647 -2.357352 0.6855509
v -0.4177665 -2.987405 0.5010796
v -0.3054807 -2.987405 0.8688852
v -0.5285301 -2.356059 0.7374079
v -0.4993019 -2.348065 0.7280772
v -0.1267433 -2.987405 0.7570994
v -0.1573065 -2.987405 0.427647
v 0.0799923 -2.293342 0.8333094
v 0.04641907 -2.296298 0.8903316
v -0.2978495 -2.987405 0.7106745
v 0.0799923 -2.293342 0.8333094
v 0.1124248 -2.30385 0.8513072
v 0.07885189 -2.306805 0.9083292
v 0.04641907 -2.296298 0.8903316
v 0.1124248 -2.30385 0.8513072
v 0.03715138 -2.987405 0.505375
v -0.2009486 -2.987405 0.9097788
v 0.07885189 -2.306805 0.9083292
v 0.03715138 -2.987405 0.505375
v -0.1573065 -2.987405 0.427647
v -0.2978495 -2.987405 0.7106745
v -0.2009486 -2.987405 0.9097788
v -0.2978495 -2.987405 0.7106745
v 0.04641907 -2.296298 0.8903316
v 0.07885189 -2.306805 0.9083292
v -0.2009486 -2.987405 0.9097788
v 0.03715138 -2.987405 0.505375
v 0.1124248 -2.30385 0.8513072
v 0.0799923 -2.293342 0.8333094
v -0.1573065 -2.987405 0.427647
v -0.2988414 -2.987405 0.6062129
v -0.1740264 -2.473022 0.2540096
v -0.1197719 -2.473022 0.2540095
v -0.09331508 -2.987405 0.6473123
v -0.1740264 -2.473022 0.2540096
v -0.1740264 -2.483491 0.2248728
v -0.1197719 -2.483491 0.2248728
v -0.1197719 -2.473022 0.2540095
v -0.1740264 -2.483491 0.2248728
v -0.3392906 -2.987405 0.418751
v 0.04549212 -2.987405 0.418751
v -0.1197719 -2.483491 0.2248728
v -0.3392906 -2.987405 0.418751
v -0.2988414 -2.987405 0.6062129
v -0.09331508 -2.987405 0.6473123
v 0.04549212 -2.987405 0.418751
v -0.09331508 -2.987405 0.6473123
v -0.1197719 -2.473022 0.2540095
v -0.1197719 -2.483491 0.2248728
v 0.04549212 -2.987405 0.418751
v -0.3392906 -2.987405 0.418751
v -0.1740264 -2.483491 0.2248728
v -0.1740264 -2.473022 0.2540096
v -0.2988414 -2.987405 0.6062129

vn 0.9051234 0.1228193 -0.4070221
vn 0.9051234 0.1228193 -0.4070221
vn 0.9051234 0.1228193 -0.4070221
vn 0.9051234 0.1228193 -0.4070221
vn 0.05796248 0.9981013 -0.02083568
vn 0.05796248 0.9981013 -0.02083568
vn 0.05796248 0.9981013 -0.02083568
vn 0.05796248 0.9981013 -0.02083568
vn -0.7208627 0.4372865 0.537715
vn -0.7208627 0.4372865 0.537715
vn -0.7208627 0.4372865 0.537715
vn -0.7208627 0.4372865 0.537715
vn -0.6457453 0.1189945 -0.7542236
vn -0.6457453 0.1189945 -0.7542236
vn -0.6457453 0.1189945 -0.7542236
vn -0.6457453 0.1189945 -0.7542236
vn 0.4429792 0.3594845 0.821304
vn 0.4429792 0.3594845 0.821304
vn 0.4429792 0.3594845 0.821304
vn 0.4429792 0.3594845 0.821304
vn -0.02112062 0.9994709 -0.0247348
vn -0.02112062 0.9994709 -0.0247348
vn -0.02112062 0.9994709 -0.0247348
vn -0.02112062 0.9994709 -0.0247348
vn -0.7481609 0.6090566 0.2632589
vn -0.7481609 0.6090566 0.2632589
vn -0.7481609 0.6090566 0.2632589
vn -0.7481609 0.6090566 0.2632589
vn 0.8235773 0.4720023 -0.3145382
vn 0.8235773 0.4720023 -0.3145382
vn 0.8235773 0.4720023 -0.3145382
vn 0.8235773 0.4720023 -0.3145382
vn 0.3410016 0.5934365 0.7290754
vn 0.3410016 0.5934365 0.7290754
vn 0.3410016 0.5934365 0.7290754
vn 0.3410016 0.5934365 0.7290754
vn -0.316423 0.3080357 -0.8972126
vn -0.316423 0.3080357 -0.8972126
vn -0.316423 0.3080357 -0.8972126
vn -0.316423 0.3080357 -0.8972126
vn 0.4478894 0.04944122 0.8927209
vn 0.4478894 0.04944122 0.8927209
vn 0.4478894 0.04944122 0.8927209
vn 0.4478894 0.04944122 0.8927209
vn 0.1266224 0.9807494 0.1486513
vn 0.1266224 0.9807494 0.1486513
vn 0.1266224 0.9807494 0.1486513
vn 0.1266224 0.9807494 0.1486513
vn -0.4505671 0.06329317 -0.890496
vn -0.4505671 0.06329317 -0.890496
vn -0.4505671 0.06329317 -0.890496
vn -0.4505671 0.06329317 -0.890496
vn 0.01311072 -0.9922286 0.1237358
vn 0.01311072 -0.9922286 0.1237358
vn 0.01311072 -0.9922286 0.1237358
vn 0.01311072 -0.9922286 0.1237358
vn 0.9777433 0.001120398 -0.2098016
vn 0.9777433 0.001120398 -0.2098016
vn 0.9777433 0.001120398 -0.2098016
vn 0.9777433 0.001120398 -0.2098016
vn -0.891369 0.02842538 0.4523861
vn -0.891369 0.02842538 0.4523861
vn -0.891369 0.02842538 0.4523861
vn -0.891369 0.02842538 0.4523861
vn -0.3987247 0.01075234 -0.9170076
vn -0.3987247 0.01075234 -0.9170076
vn -0.3987247 0.01075234 -0.9170076
vn -0.3987247 0.01075234 -0.9170076
vn -0.07944781 0.965293 -0.2487917
vn -0.07944781 0.965293 -0.2487917
vn -0.07944781 0.965293 -0.2487917
vn -0.07944781 0.965293 -0.2487917
vn 0.3890617 0.07449151 0.9181948
vn 0.3890617 0.07449151 0.9181948
vn 0.3890617 0.07449151 0.9181948
vn 0.3890617 0.07449151 0.9181948
vn 0.006190599 -0.9998167 -0.01811793
vn 0.006190599 -0.9998167 -0.01811793
vn 0.006190599 -0.9998167 -0.01811793
vn 0.006190599 -0.9998167 -0.01811793
vn -0.9177747 0.0470153 0.3943084
vn -0.9177747 0.0470153 0.3943084
vn -0.9177747 0.0470153 0.3943084
vn -0.9177747 0.0470153 0.3943084
vn 0.9995581 -0.001043355 -0.02970344
vn 0.9995581 -0.001043355 -0.02970344
vn 0.9995581 -0.001043355 -0.02970344
vn 0.9995581 -0.001043355 -0.02970344
vn -0.969663 0.07367893 0.2330773
vn -0.969663 0.07367893 0.2330773
vn -0.969663 0.07367893 0.2330773
vn -0.969663 0.07367893 0.2330773
vn -0.2721534 0.9517138 0.1420333
vn -0.2721534 0.9517138 0.1420333
vn -0.2721534 0.9517138 0.1420333
vn -0.2721534 0.9517138 0.1420333
vn 0.9295436 0.04180655 -0.3663343
vn 0.9295436 0.04180655 -0.3663343
vn 0.9295436 0.04180655 -0.3663343
vn 0.9295436 0.04180655 -0.3663343
vn -0.05197905 -0.9982631 -0.02773063
vn -0.05197905 -0.9982631 -0.02773063
vn -0.05197905 -0.9982631 -0.02773063
vn -0.05197905 -0.9982631 -0.02773063
vn 0.3980433 0.02205137 0.9171014
vn 0.3980433 0.02205137 0.9171014
vn 0.3980433 0.02205137 0.9171014
vn 0.3980433 0.02205137 0.9171014
vn -0.4273887 0.1128113 -0.8970019
vn -0.4273887 0.1128113 -0.8970019
vn -0.4273887 0.1128113 -0.8970019
vn -0.4273887 0.1128113 -0.8970019
vn 0.5186759 0.5010662 0.6927539
vn 0.5186759 0.5010662 0.6927539
vn 0.5186759 0.5010662 0.6927539
vn 0.5186759 0.5010662 0.6927539
vn -0.1593342 0.9673653 -0.1970198
vn -0.1593342 0.9673653 -0.1970198
vn -0.1593342 0.9673653 -0.1970198
vn -0.1593342 0.9673653 -0.1970198
vn -0.672182 -0.2672559 -0.6904676
vn -0.672182 -0.2672559 -0.6904676
vn -0.672182 -0.2672559 -0.6904676
vn -0.672182 -0.2672559 -0.6904676
vn 0 -1 0
vn 0 -1 0
vn 0 -1 0
vn 0 -1 0
vn 0.6952897 0.2112293 -0.6869894
vn 0.6952897 0.2112293 -0.6869894
vn 0.6952897 0.2112293 -0.6869894
vn 0.6952897 0.2112293 -0.6869894
vn -0.5185955 0.3228781 0.7917123
vn -0.5185955 0.3228781 0.7917123
vn -0.5185955 0.3228781 0.7917123
vn -0.5185955 0.3228781 0.7917123
vn -0.005226523 0.4922337 -0.8704473
vn -0.005226523 0.4922337 -0.8704473
vn -0.005226523 0.4922337 -0.8704473
vn -0.005226523 0.4922337 -0.8704473
vn -0.05849733 0.9609408 0.2705009
vn -0.05849733 0.9609408 0.2705009
vn -0.05849733 0.9609408 0.2705009
vn -0.05849733 0.9609408 0.2705009
vn -0.05215111 -0.3322431 0.9417509
vn -0.05215111 -0.3322431 0.9417509
vn -0.05215111 -0.3322431 0.9417509
vn -0.05215111 -0.3322431 0.9417509
vn 0 -1 0
vn 0 -1 0
vn 0 -1 0
vn 0 -1 0
vn -0.8143165 0.3045676 -0.494092
vn -0.8143165 0.3045676 -0.494092
vn -0.8143165 0.3045676 -0.494092
vn -0.8143165 0.3045676 -0.494092
vn 0.9246241 0.3770463 -0.05391082
vn 0.9246241 0.3770463 -0.05391082
vn 0.9246241 0.3770463 -0.05391082
vn 0.9246241 0.3770463 -0.05391082
vn -0.7669497 0.5899793 0.2524135
vn -0.7669497 0.5899793 0.2524135
vn -0.7669497 0.5899793 0.2524135
vn -0.7669497 0.5899793 0.2524135
vn 0.3007161 0.9411004 -0.1545951
vn 0.3007161 0.9411004 -0.1545951
vn 0.3007161 0.9411004 -0.1545951
vn 0.3007161 0.9411004 -0.1545951
vn 0.830043 -0.3590837 -0.4267169
vn 0.830043 -0.3590837 -0.4267169
vn 0.830043 -0.3590837 -0.4267169
vn 0.830043 -0.3590837 -0.4267169
vn 0 -1 0
vn 0 -1 0
vn 0 -1 0
vn 0 -1 0
vn -0.003442258 0.3971054 0.9177665
vn -0.003442258 0.3971054 0.9177665
vn -0.003442258 0.3971054 0.9177665
vn -0.003442258 0.3971054 0.9177665
vn -0.5614989 0.347061 -0.7511774
vn -0.5614989 0.347061 -0.7511774
vn -0.5614989 0.347061 -0.7511774
vn -0.5614989 0.347061 -0.7511774

vt 0.2365723 0.2868652
vt 0.2365723 0.2868652
vt 0.2365723 0.2868652
vt 0.2365723 0.2868652
vt 0.2905273 0.2868652
vt 0.2905273 0.2868652
vt 0.2905273 0.2868652
vt 0.2905273 0.2868652
vt 0.2365723 0.2868652
vt 0.2365723 0.2868652
vt 0.2365723 0.2868652
vt 0.2365723 0.2868652
vt 0.2304688 0.2868652
vt 0.2304688 0.2868652
vt 0.2304688 0.2868652
vt 0.2304688 0.2868652
vt 0.263916 0.2868652
vt 0.263916 0.2868652
vt 0.263916 0.2868652
vt 0.263916 0.2868652
vt 0.2990723 0.2868652
vt 0.2990723 0.2868652
vt 0.2990723 0.2868652
vt 0.2990723 0.2868652
vt 0.2374268 0.2868652
vt 0.2374268 0.2868652
vt 0.2374268 0.2868652
vt 0.2374268 0.2868652
vt 0.2036133 0.2868652
vt 0.2036133 0.2868652
vt 0.2036133 0.2868652
vt 0.2036133 0.2868652
vt 0.2304688 0.2868652
vt 0.2304688 0.2868652
vt 0.2304688 0.2868652
vt 0.2304688 0.2868652
vt 0.2028809 0.2868652
vt 0.2028809 0.2868652
vt 0.2028809 0.2868652
vt 0.2028809 0.2868652
vt 0.2587891 0.2868652
vt 0.2587891 0.2868652
vt 0.2587891 0.2868652
vt 0.2587891 0.2868652
vt 0.2905273 0.2868652
vt 0.2905273 0.2868652
vt 0.2905273 0.2868652
vt 0.2905273 0.2868652
vt 0.2587891 0.2868652
vt 0.2587891 0.2868652
vt 0.2587891 0.2868652
vt 0.2587891 0.2868652
vt 0.2036133 0.2868652
vt 0.2036133 0.2868652
vt 0.2036133 0.2868652
vt 0.2036133 0.2868652
vt 0.2304688 0.2868652
vt 0.2304688 0.2868652
vt 0.2304688 0.2868652
vt 0.2304688 0.2868652
vt 0.2304688 0.2868652
vt 0.2304688 0.2868652
vt 0.2304688 0.2868652
vt 0.2304688 0.2868652
vt 0.2587891 0.2868652
vt 0.2587891 0.2868652
vt 0.2587891 0.2868652
vt 0.2587891 0.2868652
vt 0.2905273 0.2868652
vt 0.2905273 0.2868652
vt 0.2905273 0.2868652
vt 0.2905273 0.2868652
vt 0.2587891 0.2868652
vt 0.2587891 0.2868652
vt 0.2587891 0.2868652
vt 0.2587891 0.2868652
vt 0.2036133 0.2868652
vt 0.2036133 0.2868652
vt 0.2036133 0.2868652
vt 0.2036133 0.2868652
vt 0.2304688 0.2868652
vt 0.2304688 0.2868652
vt 0.2304688 0.2868652
vt 0.2304688 0.2868652
vt 0.2304688 0.2868652
vt 0.2304688 0.2868652
vt 0.2304688 0.2868652
vt 0.2304688 0.2868652
vt 0.2587891 0.2868652
vt 0.2587891 0.2868652
vt 0.2587891 0.2868652
vt 0.2587891 0.2868652
vt 0.2905273 0.2868652
vt 0.2905273 0.2868652
vt 0.2905273 0.2868652
vt 0.2905273 0.2868652
vt 0.2587891 0.2868652
vt 0.2587891 0.2868652
vt 0.2587891 0.2868652
vt 0.2587891 0.2868652
vt 0.2036133 0.2868652
vt 0.2036133 0.2868652
vt 0.2036133 0.2868652
vt 0.2036133 0.2868652
vt 0.2304688 0.2868652
vt 0.2304688 0.2868652
vt 0.2304688 0.2868652
vt 0.2304688 0.2868652
vt 0.2304688 0.2868652
vt 0.2304688 0.2868652
vt 0.2304688 0.2868652
vt 0.2304688 0.2868652
vt 0.3571777 0.2871094
vt 0.3571777 0.2871094
vt 0.3571777 0.2871094
vt 0.3571777 0.2871094
vt 0.3886719 0.2871094
vt 0.3886719 0.2871094
vt 0.3886719 0.2871094
vt 0.3886719 0.2871094
vt 0.3571777 0.2871094
vt 0.3571777 0.2871094
vt 0.3571777 0.2871094
vt 0.3571777 0.2871094
vt 0.302002 0.2871094
vt 0.302002 0.2871094
vt 0.302002 0.2871094
vt 0.302002 0.2871094
vt 0.3288574 0.2871094
vt 0.3288574 0.2871094
vt 0.3288574 0.2871094
vt 0.3288574 0.2871094
vt 0.3288574 0.2871094
vt 0.3288574 0.2871094
vt 0.3288574 0.2871094
vt 0.3288574 0.2871094
vt 0.3571777 0.2871094
vt 0.3571777 0.2871094
vt 0.3571777 0.2871094
vt 0.3571777 0.2871094
vt 0.3886719 0.2871094
vt 0.3886719 0.2871094
vt 0.3886719 0.2871094
vt 0.3886719 0.2871094
vt 0.3571777 0.2871094
vt 0.3571777 0.2871094
vt 0.3571777 0.2871094
vt 0.3571777 0.2871094
vt 0.302002 0.2871094
vt 0.302002 0.2871094
vt 0.302002 0.2871094
vt 0.302002 0.2871094
vt 0.3288574 0.2871094
vt 0.3288574 0.2871094
vt 0.3288574 0.2871094
vt 0.3288574 0.2871094
vt 0.3288574 0.2871094
vt 0.3288574 0.2871094
vt 0.3288574 0.2871094
vt 0.3288574 0.2871094
vt 0.3571777 0.2871094
vt 0.3571777 0.2871094
vt 0.3571777 0.2871094
vt 0.3571777 0.2871094
vt 0.3886719 0.2871094
vt 0.3886719 0.2871094
vt 0.3886719 0.2871094
vt 0.3886719 0.2871094
vt 0.3571777 0.2871094
vt 0.3571777 0.2871094
vt 0.3571777 0.2871094
vt 0.3571777 0.2871094
vt 0.302002 0.2871094
vt 0.302002 0.2871094
vt 0.302002 0.2871094
vt 0.302002 0.2871094
vt 0.3288574 0.2871094
vt 0.3288574 0.2871094
vt 0.3288574 0.2871094
vt 0.3288574 0.2871094
vt 0.3288574 0.2871094
vt 0.3288574 0.2871094
vt 0.3288574 0.2871094
vt 0.3288574 0.2871094

g SA_Prop_PowerLine_Plants_02_605_40
usemtl SA_Prop_PowerLine_Plants_02_605_40
usemap SA_Prop_PowerLine_Plants_02_605_40
f 1/1/1 3/3/3 2/2/2
f 1/1/1 4/4/4 3/3/3
f 5/5/5 7/7/7 6/6/6
f 5/5/5 8/8/8 7/7/7
f 9/9/9 11/11/11 10/10/10
f 9/9/9 12/12/12 11/11/11
f 13/13/13 15/15/15 14/14/14
f 13/13/13 16/16/16 15/15/15
f 17/17/17 19/19/19 18/18/18
f 17/17/17 20/20/20 19/19/19
f 21/21/21 23/23/23 22/22/22
f 21/21/21 24/24/24 23/23/23
f 25/25/25 27/27/27 26/26/26
f 25/25/25 28/28/28 27/27/27
f 29/29/29 31/31/31 30/30/30
f 29/29/29 32/32/32 31/31/31
f 33/33/33 35/35/35 34/34/34
f 33/33/33 36/36/36 35/35/35
f 37/37/37 39/39/39 38/38/38
f 37/37/37 40/40/40 39/39/39
f 41/41/41 43/43/43 42/42/42
f 41/41/41 44/44/44 43/43/43
f 45/45/45 47/47/47 46/46/46
f 45/45/45 48/48/48 47/47/47
f 49/49/49 51/51/51 50/50/50
f 49/49/49 52/52/52 51/51/51
f 53/53/53 55/55/55 54/54/54
f 53/53/53 56/56/56 55/55/55
f 57/57/57 59/59/59 58/58/58
f 57/57/57 60/60/60 59/59/59
f 61/61/61 63/63/63 62/62/62
f 61/61/61 64/64/64 63/63/63
f 65/65/65 67/67/67 66/66/66
f 65/65/65 68/68/68 67/67/67
f 69/69/69 71/71/71 70/70/70
f 69/69/69 72/72/72 71/71/71
f 73/73/73 75/75/75 74/74/74
f 73/73/73 76/76/76 75/75/75
f 77/77/77 79/79/79 78/78/78
f 77/77/77 80/80/80 79/79/79
f 81/81/81 83/83/83 82/82/82
f 81/81/81 84/84/84 83/83/83
f 85/85/85 87/87/87 86/86/86
f 85/85/85 88/88/88 87/87/87
f 89/89/89 91/91/91 90/90/90
f 89/89/89 92/92/92 91/91/91
f 93/93/93 95/95/95 94/94/94
f 93/93/93 96/96/96 95/95/95
f 97/97/97 99/99/99 98/98/98
f 97/97/97 100/100/100 99/99/99
f 101/101/101 103/103/103 102/102/102
f 101/101/101 104/104/104 103/103/103
f 105/105/105 107/107/107 106/106/106
f 105/105/105 108/108/108 107/107/107
f 109/109/109 111/111/111 110/110/110
f 109/109/109 112/112/112 111/111/111
f 113/113/113 115/115/115 114/114/114
f 113/113/113 116/116/116 115/115/115
f 117/117/117 119/119/119 118/118/118
f 117/117/117 120/120/120 119/119/119
f 121/121/121 123/123/123 122/122/122
f 121/121/121 124/124/124 123/123/123
f 125/125/125 127/127/127 126/126/126
f 125/125/125 128/128/128 127/127/127
f 129/129/129 131/131/131 130/130/130
f 129/129/129 132/132/132 131/131/131
f 133/133/133 135/135/135 134/134/134
f 133/133/133 136/136/136 135/135/135
f 137/137/137 139/139/139 138/138/138
f 137/137/137 140/140/140 139/139/139
f 141/141/141 143/143/143 142/142/142
f 141/141/141 144/144/144 143/143/143
f 145/145/145 147/147/147 146/146/146
f 145/145/145 148/148/148 147/147/147
f 149/149/149 151/151/151 150/150/150
f 149/149/149 152/152/152 151/151/151
f 153/153/153 155/155/155 154/154/154
f 153/153/153 156/156/156 155/155/155
f 157/157/157 159/159/159 158/158/158
f 157/157/157 160/160/160 159/159/159
f 161/161/161 163/163/163 162/162/162
f 161/161/161 164/164/164 163/163/163
f 165/165/165 167/167/167 166/166/166
f 165/165/165 168/168/168 167/167/167
f 169/169/169 171/171/171 170/170/170
f 169/169/169 172/172/172 171/171/171
f 173/173/173 175/175/175 174/174/174
f 173/173/173 176/176/176 175/175/175
f 177/177/177 179/179/179 178/178/178
f 177/177/177 180/180/180 179/179/179
f 181/181/181 183/183/183 182/182/182
f 181/181/181 184/184/184 183/183/183
