#SA_Prop_Rubble_01_(6)_1534_214.obj

v -0.1939926 -0.06288628 1.254746
v -0.1939926 0.1252854 1.254746
v 0.08126067 0.1572349 1.308685
v 0.0812607 -0.09483574 1.308685
v -0.1939926 0.1252854 1.254746
v -0.4170532 0.1053754 0.7147789
v 0.1245117 0.1305633 0.7006646
v 0.08126067 0.1572349 1.308685
v -0.4170532 0.1053754 0.7147789
v -0.4170532 -0.04297621 0.714779
v 0.1245117 -0.0681641 0.7006646
v 0.1245117 0.1305633 0.7006646
v 0.0812607 -0.09483574 1.308685
v 0.08126067 0.1572349 1.308685
v 0.1245117 0.1305633 0.7006646
v 0.1245117 -0.0681641 0.7006646
v -0.4170532 -0.04297621 0.714779
v -0.4170532 0.1053754 0.7147789
v -0.1939926 0.1252854 1.254746
v -0.1939926 -0.06288628 1.254746
v 0.3795471 -0.076862 -0.2403031
v 0.3795471 0.217398 -0.240303
v 0.6811143 0.2673599 -1.047592
v 0.6811143 -0.1268247 -1.047592
v 0.3795471 0.217398 -0.240303
v -0.1774216 0.1862622 -0.4710045
v -0.09185787 0.2256519 -1.145016
v 0.6811143 0.2673599 -1.047592
v -0.1774216 0.1862622 -0.4710045
v -0.1774216 -0.04572696 -0.4710045
v -0.0918579 -0.08511675 -1.145016
v -0.09185787 0.2256519 -1.145016
v 0.6811143 -0.1268247 -1.047592
v 0.6811143 0.2673599 -1.047592
v -0.09185787 0.2256519 -1.145016
v -0.0918579 -0.08511675 -1.145016
v -0.1774216 -0.04572696 -0.4710045
v -0.1774216 0.1862622 -0.4710045
v 0.3795471 0.217398 -0.240303
v 0.3795471 -0.076862 -0.2403031
v -0.5219192 -0.187999 0.4952775
v -0.5219192 0.1062611 0.4952774
v -1.432457 0.156223 -0.2658501
v -1.432457 -0.2379616 -0.2658501
v -0.5219192 0.1062611 0.4952774
v -0.9829711 0.07512522 0.9001961
v -1.795097 0.114515 0.4255905
v -1.432457 0.156223 -0.2658501
v -0.9829711 0.07512522 0.9001961
v -0.9829712 -0.1568639 0.9001961
v -1.795097 -0.1962537 0.4255905
v -1.795097 0.114515 0.4255905
v -1.432457 -0.2379616 -0.2658501
v -1.432457 0.156223 -0.2658501
v -1.795097 0.114515 0.4255905
v -1.795097 -0.1962537 0.4255905
v -0.9829712 -0.1568639 0.9001961
v -0.9829711 0.07512522 0.9001961
v -0.5219192 0.1062611 0.4952774
v -0.5219192 -0.187999 0.4952775
v 0.883255 -0.2285198 -0.3365555
v 0.8004074 0.1957855 -0.3417931
v 0.4312363 0.2028446 0.009475665
v 0.5422211 -0.3655475 0.01650617
v 0.8004074 0.1957855 -0.3417931
v 1.370979 0.2685828 0.3050117
v 0.8355026 0.233069 1.12003
v 0.4312363 0.2028446 0.009475665
v 1.370979 0.2685828 0.3050117
v 1.43631 -0.0659324 0.3091469
v 0.9230042 -0.2150408 1.125565
v 0.8355026 0.233069 1.12003
v 0.5422211 -0.3655475 0.01650617
v 0.4312363 0.2028446 0.009475665
v 0.8355026 0.233069 1.12003
v 0.9230042 -0.2150408 1.125565
v 1.43631 -0.0659324 0.3091469
v 1.370979 0.2685828 0.3050117
v 0.8004074 0.1957855 -0.3417931
v 0.883255 -0.2285198 -0.3365555

vn -0.1909685 -0.07101888 0.9790239
vn -0.1909685 -0.07101888 0.9790239
vn -0.1909685 -0.07101888 0.9790239
vn -0.1909685 -0.07101888 0.9790239
vn 0.04960333 0.9966156 0.06555204
vn 0.04960333 0.9966156 0.06555204
vn 0.04960333 0.9966156 0.06555204
vn 0.04960333 0.9966156 0.06555204
vn -0.02587208 0.09836318 -0.9948143
vn -0.02587208 0.09836318 -0.9948143
vn -0.02587208 0.09836318 -0.9948143
vn -0.02587208 0.09836318 -0.9948143
vn 0.990539 -0.1236939 0.05943245
vn 0.990539 -0.1236939 0.05943245
vn 0.990539 -0.1236939 0.05943245
vn 0.990539 -0.1236939 0.05943245
vn -0.9178119 0.0719419 0.3904432
vn -0.9178119 0.0719419 0.3904432
vn -0.9178119 0.0719419 0.3904432
vn -0.9178119 0.0719419 0.3904432
vn 0.9302553 -0.1431761 0.337825
vn 0.9302553 -0.1431761 0.337825
vn 0.9302553 -0.1431761 0.337825
vn 0.9302553 -0.1431761 0.337825
vn 0.05261942 0.989032 0.1380107
vn 0.05261942 0.989032 0.1380107
vn 0.05261942 0.989032 0.1380107
vn 0.05261942 0.989032 0.1380107
vn -0.9851357 0.128298 -0.1142245
vn -0.9851357 0.128298 -0.1142245
vn -0.9851357 0.128298 -0.1142245
vn -0.9851357 0.128298 -0.1142245
vn 0.1241782 0.07993438 -0.9890352
vn 0.1241782 0.07993438 -0.9890352
vn 0.1241782 0.07993438 -0.9890352
vn 0.1241782 0.07993438 -0.9890352
vn -0.3800172 -0.04322476 0.9239691
vn -0.3800172 -0.04322476 0.9239691
vn -0.3800172 -0.04322476 0.9239691
vn -0.3800172 -0.04322476 0.9239691
vn 0.6368878 -0.002031341 -0.770954
vn 0.6368878 -0.002031341 -0.770954
vn 0.6368878 -0.002031341 -0.770954
vn 0.6368878 -0.002031341 -0.770954
vn 0.1201936 0.9793691 0.1624496
vn 0.1201936 0.9793691 0.1624496
vn 0.1201936 0.9793691 0.1624496
vn 0.1201936 0.9793691 0.1624496
vn -0.5010465 -0.02316934 0.8651103
vn -0.5010465 -0.02316934 0.8651103
vn -0.5010465 -0.02316934 0.8651103
vn -0.5010465 -0.02316934 0.8651103
vn -0.8794287 0.1480957 -0.4524078
vn -0.8794287 0.1480957 -0.4524078
vn -0.8794287 0.1480957 -0.4524078
vn -0.8794287 0.1480957 -0.4524078
vn 0.6552949 -0.148991 0.7405339
vn 0.6552949 -0.148991 0.7405339
vn 0.6552949 -0.148991 0.7405339
vn 0.6552949 -0.148991 0.7405339
vn -0.6957439 0.007671408 -0.7182491
vn -0.6957439 0.007671408 -0.7182491
vn -0.6957439 0.007671408 -0.7182491
vn -0.6957439 0.007671408 -0.7182491
vn 0.05566717 0.9958988 0.07132222
vn 0.05566717 0.9958988 0.07132222
vn 0.05566717 0.9958988 0.07132222
vn 0.05566717 0.9958988 0.07132222
vn 0.8346159 0.0167918 0.5505765
vn 0.8346159 0.0167918 0.5505765
vn 0.8346159 0.0167918 0.5505765
vn 0.8346159 0.0167918 0.5505765
vn -0.9377531 -0.09833498 0.3330905
vn -0.9377531 -0.09833498 0.3330905
vn -0.9377531 -0.09833498 0.3330905
vn -0.9377531 -0.09833498 0.3330905
vn 0.7462267 0.1109458 -0.6563818
vn 0.7462267 0.1109458 -0.6563818
vn 0.7462267 0.1109458 -0.6563818
vn 0.7462267 0.1109458 -0.6563818

vt 0.1707764 0.06268311
vt 0.1707764 0.06268311
vt 0.1707764 0.06268311
vt 0.1707764 0.06268311
vt 0.2316895 0.06268311
vt 0.2316895 0.06268311
vt 0.2316895 0.06268311
vt 0.2316895 0.06268311
vt 0.1707764 0.06268311
vt 0.1707764 0.06268311
vt 0.1707764 0.06268311
vt 0.1707764 0.06268311
vt 0.2023926 0.06268311
vt 0.2023926 0.06268311
vt 0.2023926 0.06268311
vt 0.2023926 0.06268311
vt 0.2023926 0.06268311
vt 0.2023926 0.06268311
vt 0.2023926 0.06268311
vt 0.2023926 0.06268311
vt 0.1707764 0.06268311
vt 0.1707764 0.06268311
vt 0.1707764 0.06268311
vt 0.1707764 0.06268311
vt 0.2316895 0.06237793
vt 0.2316895 0.06237793
vt 0.2316895 0.06237793
vt 0.2316895 0.06237793
vt 0.1707764 0.06268311
vt 0.1707764 0.06268311
vt 0.1707764 0.06268311
vt 0.1707764 0.06268311
vt 0.2023926 0.06268311
vt 0.2023926 0.06268311
vt 0.2023926 0.06268311
vt 0.2023926 0.06268311
vt 0.2023926 0.06268311
vt 0.2023926 0.06268311
vt 0.2023926 0.06268311
vt 0.2023926 0.06268311
vt 0.1707764 0.06268311
vt 0.1707764 0.06268311
vt 0.1707764 0.06268311
vt 0.1707764 0.06268311
vt 0.2316895 0.06237793
vt 0.2316895 0.06237793
vt 0.2316895 0.06237793
vt 0.2316895 0.06237793
vt 0.1707764 0.06268311
vt 0.1707764 0.06268311
vt 0.1707764 0.06268311
vt 0.1707764 0.06268311
vt 0.2023926 0.06268311
vt 0.2023926 0.06268311
vt 0.2023926 0.06268311
vt 0.2023926 0.06268311
vt 0.2023926 0.06268311
vt 0.2023926 0.06268311
vt 0.2023926 0.06268311
vt 0.2023926 0.06268311
vt 0.1368408 0.06268311
vt 0.1368408 0.06268311
vt 0.1368408 0.06268311
vt 0.1368408 0.06268311
vt 0.1977539 0.06268311
vt 0.1977539 0.06268311
vt 0.1977539 0.06268311
vt 0.1977539 0.06268311
vt 0.1368408 0.06268311
vt 0.1368408 0.06268311
vt 0.1368408 0.06268311
vt 0.1368408 0.06268311
vt 0.168457 0.06268311
vt 0.168457 0.06268311
vt 0.168457 0.06268311
vt 0.168457 0.06268311
vt 0.168457 0.06268311
vt 0.168457 0.06268311
vt 0.168457 0.06268311
vt 0.168457 0.06268311

g SA_Prop_Rubble_01_(6)_1534_214
usemtl SA_Prop_Rubble_01_(6)_1534_214
usemap SA_Prop_Rubble_01_(6)_1534_214
f 1/1/1 3/3/3 2/2/2
f 1/1/1 4/4/4 3/3/3
f 5/5/5 7/7/7 6/6/6
f 5/5/5 8/8/8 7/7/7
f 9/9/9 11/11/11 10/10/10
f 9/9/9 12/12/12 11/11/11
f 13/13/13 15/15/15 14/14/14
f 13/13/13 16/16/16 15/15/15
f 17/17/17 19/19/19 18/18/18
f 17/17/17 20/20/20 19/19/19
f 21/21/21 23/23/23 22/22/22
f 21/21/21 24/24/24 23/23/23
f 25/25/25 27/27/27 26/26/26
f 25/25/25 28/28/28 27/27/27
f 29/29/29 31/31/31 30/30/30
f 29/29/29 32/32/32 31/31/31
f 33/33/33 35/35/35 34/34/34
f 33/33/33 36/36/36 35/35/35
f 37/37/37 39/39/39 38/38/38
f 37/37/37 40/40/40 39/39/39
f 41/41/41 43/43/43 42/42/42
f 41/41/41 44/44/44 43/43/43
f 45/45/45 47/47/47 46/46/46
f 45/45/45 48/48/48 47/47/47
f 49/49/49 51/51/51 50/50/50
f 49/49/49 52/52/52 51/51/51
f 53/53/53 55/55/55 54/54/54
f 53/53/53 56/56/56 55/55/55
f 57/57/57 59/59/59 58/58/58
f 57/57/57 60/60/60 59/59/59
f 61/61/61 63/63/63 62/62/62
f 61/61/61 64/64/64 63/63/63
f 65/65/65 67/67/67 66/66/66
f 65/65/65 68/68/68 67/67/67
f 69/69/69 71/71/71 70/70/70
f 69/69/69 72/72/72 71/71/71
f 73/73/73 75/75/75 74/74/74
f 73/73/73 76/76/76 75/75/75
f 77/77/77 79/79/79 78/78/78
f 77/77/77 80/80/80 79/79/79
