#SA_Prop_Plant_01_1449_209.obj

v -0.0686245 -0.01126337 0.008617401
v 0.2666264 2.311635 -0.3132553
v 0.3257437 2.30663 -0.3164024
v 0.1533375 -0.01126337 -0.003204346
v 0.2666264 2.311635 -0.3132553
v 0.2630215 2.307568 -0.3724365
v 0.3221378 2.302563 -0.3755875
v 0.3257437 2.30663 -0.3164024
v 0.2630215 2.307568 -0.3724365
v -0.0821619 -0.01126337 -0.2136002
v 0.139801 -0.01126337 -0.2254219
v 0.3221378 2.302563 -0.3755875
v 0.1533375 -0.01126337 -0.003204346
v 0.3257437 2.30663 -0.3164024
v 0.3221378 2.302563 -0.3755875
v 0.139801 -0.01126337 -0.2254219
v -0.0821619 -0.01126337 -0.2136002
v 0.2630215 2.307568 -0.3724365
v 0.2666264 2.311635 -0.3132553
v -0.0686245 -0.01126337 0.008617401
v -0.3257437 -0.01126337 -0.01802826
v -0.2878485 1.965159 -0.2289085
v -0.2385979 1.965764 -0.22826
v -0.1408234 -0.01126337 -0.01559448
v -0.2878485 1.965159 -0.2289085
v -0.2871599 1.962515 -0.2780685
v -0.2379084 1.96312 -0.27742
v -0.2385979 1.965764 -0.22826
v -0.2871599 1.962515 -0.2780685
v -0.3231544 -0.01126337 -0.20261
v -0.1382341 -0.01126337 -0.2001762
v -0.2379084 1.96312 -0.27742
v -0.1408234 -0.01126337 -0.01559448
v -0.2385979 1.965764 -0.22826
v -0.2379084 1.96312 -0.27742
v -0.1382341 -0.01126337 -0.2001762
v -0.3231544 -0.01126337 -0.20261
v -0.2871599 1.962515 -0.2780685
v -0.2878485 1.965159 -0.2289085
v -0.3257437 -0.01126337 -0.01802826
v -0.1257839 -0.01126337 0.2460976
v -0.1705465 2.387986 0.3755875
v -0.1105213 2.390884 0.3618317
v 0.09958839 -0.01126337 0.1944466
v -0.1705465 2.387986 0.3755875
v -0.184514 2.391681 0.31567
v -0.1244879 2.394579 0.3019104
v -0.1105213 2.390884 0.3618317
v -0.184514 2.391681 0.31567
v -0.1782274 -0.01126337 0.02112579
v 0.04714584 -0.01126337 -0.03052902
v -0.1244879 2.394579 0.3019104
v 0.09958839 -0.01126337 0.1944466
v -0.1105213 2.390884 0.3618317
v -0.1244879 2.394579 0.3019104
v 0.04714584 -0.01126337 -0.03052902
v -0.1782274 -0.01126337 0.02112579
v -0.184514 2.391681 0.31567
v -0.1705465 2.387986 0.3755875
v -0.1257839 -0.01126337 0.2460976

vn 0.05503066 0.1294647 0.9900558
vn 0.05503066 0.1294647 0.9900558
vn 0.05503066 0.1294647 0.9900558
vn 0.05503066 0.1294647 0.9900558
vn 0.08025889 0.9940829 -0.07319628
vn 0.08025889 0.9940829 -0.07319628
vn 0.08025889 0.9940829 -0.07319628
vn 0.08025889 0.9940829 -0.07319628
vn -0.05415364 -0.06031483 -0.9967093
vn -0.05415364 -0.06031483 -0.9967093
vn -0.05415364 -0.06031483 -0.9967093
vn -0.05415364 -0.06031483 -0.9967093
vn 0.9948481 -0.08213942 -0.05941604
vn 0.9948481 -0.08213942 -0.05941604
vn 0.9948481 -0.08213942 -0.05941604
vn 0.9948481 -0.08213942 -0.05941604
vn -0.986885 0.1506686 0.05794048
vn -0.986885 0.1506686 0.05794048
vn -0.986885 0.1506686 0.05794048
vn -0.986885 0.1506686 0.05794048
vn -0.01336121 0.106315 0.9942427
vn -0.01336121 0.106315 0.9942427
vn -0.01336121 0.106315 0.9942427
vn -0.01336121 0.106315 0.9942427
vn -0.01154844 0.998481 -0.053875
vn -0.01154844 0.998481 -0.053875
vn -0.01154844 0.998481 -0.053875
vn -0.01154844 0.998481 -0.053875
vn 0.01325081 -0.0384321 -0.9991733
vn 0.01325081 -0.0384321 -0.9991733
vn 0.01325081 -0.0384321 -0.9991733
vn 0.01325081 -0.0384321 -0.9991733
vn 0.9986142 0.05088541 0.01343173
vn 0.9986142 0.05088541 0.01343173
vn 0.9986142 0.05088541 0.01343173
vn 0.9986142 0.05088541 0.01343173
vn -0.9997428 0.01766978 -0.01421915
vn -0.9997428 0.01766978 -0.01421915
vn -0.9997428 0.01766978 -0.01421915
vn -0.9997428 0.01766978 -0.01421915
vn 0.2235918 -0.04832256 0.9734843
vn 0.2235918 -0.04832256 0.9734843
vn 0.2235918 -0.04832256 0.9734843
vn 0.2235918 -0.04832256 0.9734843
vn -0.03232841 0.9970913 0.06901982
vn -0.03232841 0.9970913 0.06901982
vn -0.03232841 0.9970913 0.06901982
vn -0.03232841 0.9970913 0.06901982
vn -0.2229767 0.1179179 -0.9676656
vn -0.2229767 0.1179179 -0.9676656
vn -0.2229767 0.1179179 -0.9676656
vn -0.2229767 0.1179179 -0.9676656
vn 0.9692662 0.10031 -0.2246353
vn 0.9692662 0.10031 -0.2246353
vn 0.9692662 0.10031 -0.2246353
vn 0.9692662 0.10031 -0.2246353
vn -0.9735275 -0.03035306 0.2265455
vn -0.9735275 -0.03035306 0.2265455
vn -0.9735275 -0.03035306 0.2265455
vn -0.9735275 -0.03035306 0.2265455

vt 0.3571777 0.2885742
vt 0.3571777 0.2885742
vt 0.3571777 0.2885742
vt 0.3571777 0.2885742
vt 0.3886719 0.2885742
vt 0.3886719 0.2885742
vt 0.3886719 0.2885742
vt 0.3886719 0.2885742
vt 0.3571777 0.2885742
vt 0.3571777 0.2885742
vt 0.3571777 0.2885742
vt 0.3571777 0.2885742
vt 0.3288574 0.2885742
vt 0.3288574 0.2885742
vt 0.3288574 0.2885742
vt 0.3288574 0.2885742
vt 0.3288574 0.2885742
vt 0.3288574 0.2885742
vt 0.3288574 0.2885742
vt 0.3288574 0.2885742
vt 0.3571777 0.2885742
vt 0.3571777 0.2885742
vt 0.3571777 0.2885742
vt 0.3571777 0.2885742
vt 0.3886719 0.2885742
vt 0.3886719 0.2885742
vt 0.3886719 0.2885742
vt 0.3886719 0.2885742
vt 0.3571777 0.2885742
vt 0.3571777 0.2885742
vt 0.3571777 0.2885742
vt 0.3571777 0.2885742
vt 0.3288574 0.2885742
vt 0.3288574 0.2885742
vt 0.3288574 0.2885742
vt 0.3288574 0.2885742
vt 0.3288574 0.2885742
vt 0.3288574 0.2885742
vt 0.3288574 0.2885742
vt 0.3288574 0.2885742
vt 0.3571777 0.2885742
vt 0.3571777 0.2885742
vt 0.3571777 0.2885742
vt 0.3571777 0.2885742
vt 0.3886719 0.2885742
vt 0.3886719 0.2885742
vt 0.3886719 0.2885742
vt 0.3886719 0.2885742
vt 0.3571777 0.2885742
vt 0.3571777 0.2885742
vt 0.3571777 0.2885742
vt 0.3571777 0.2885742
vt 0.3288574 0.2885742
vt 0.3288574 0.2885742
vt 0.3288574 0.2885742
vt 0.3288574 0.2885742
vt 0.3288574 0.2885742
vt 0.3288574 0.2885742
vt 0.3288574 0.2885742
vt 0.3288574 0.2885742

g SA_Prop_Plant_01_1449_209
usemtl SA_Prop_Plant_01_1449_209
usemap SA_Prop_Plant_01_1449_209
f 1/1/1 3/3/3 2/2/2
f 1/1/1 4/4/4 3/3/3
f 5/5/5 7/7/7 6/6/6
f 5/5/5 8/8/8 7/7/7
f 9/9/9 11/11/11 10/10/10
f 9/9/9 12/12/12 11/11/11
f 13/13/13 15/15/15 14/14/14
f 13/13/13 16/16/16 15/15/15
f 17/17/17 19/19/19 18/18/18
f 17/17/17 20/20/20 19/19/19
f 21/21/21 23/23/23 22/22/22
f 21/21/21 24/24/24 23/23/23
f 25/25/25 27/27/27 26/26/26
f 25/25/25 28/28/28 27/27/27
f 29/29/29 31/31/31 30/30/30
f 29/29/29 32/32/32 31/31/31
f 33/33/33 35/35/35 34/34/34
f 33/33/33 36/36/36 35/35/35
f 37/37/37 39/39/39 38/38/38
f 37/37/37 40/40/40 39/39/39
f 41/41/41 43/43/43 42/42/42
f 41/41/41 44/44/44 43/43/43
f 45/45/45 47/47/47 46/46/46
f 45/45/45 48/48/48 47/47/47
f 49/49/49 51/51/51 50/50/50
f 49/49/49 52/52/52 51/51/51
f 53/53/53 55/55/55 54/54/54
f 53/53/53 56/56/56 55/55/55
f 57/57/57 59/59/59 58/58/58
f 57/57/57 60/60/60 59/59/59
