#SA_Prop_Chair_Damaged_01_609_54.obj

v -0.1842908 0.9034964 -0.5142759
v -0.09989464 0.9034965 -0.4793854
v -0.2562726 0.9034965 -0.2658319
v -0.1441976 0.7642062 -0.5192889
v -0.358262 0.7642062 -0.6077754
v -0.6828366 0.7642062 0.1774218
v 0.5955843 0.7642062 -0.2134867
v 0.2710084 0.7642062 0.5717105
v -0.1441976 0.7642062 -0.5192889
v 0.5955843 0.7642062 -0.2134867
v 0.4609782 0.9398459 -0.2691261
v -0.07905252 0.9398459 -0.4923619
v 0.5482305 1.937138 -0.2330613
v 0.6828402 1.937138 -0.1774218
v 0.1364048 0.9398456 0.5160615
v 0.2710084 0.7642062 0.5717105
v -0.6828366 0.7642062 0.1774218
v -0.6828366 0.9398459 0.1774218
v 0.2236571 1.937138 0.5521359
v 0.3582667 1.937138 0.6077754
v -0.6828366 0.9398459 0.1774218
v -0.6828366 0.7642062 0.1774218
v -0.358262 0.7642062 -0.6077754
v -0.358262 0.9398459 -0.6077754
v 0.1640944 0 0.4635062
v 0.1293149 0.7642062 0.4779436
v 0.2496543 0.7642062 0.5276916
v 0.235218 0 0.4929157
v 0.1293149 0.7642062 0.4779436
v 0.1790606 0.7642062 0.3576031
v 0.2993999 0.7642062 0.4073416
v 0.2496543 0.7642062 0.5276916
v 0.1790606 0.7642062 0.3576031
v 0.1934968 0 0.392379
v 0.2646204 0 0.421779
v 0.2993999 0.7642062 0.4073416
v 0.1934968 0 0.392379
v 0.1640944 0 0.4635062
v 0.235218 0 0.4929157
v 0.2646204 0 0.421779
v 0.235218 0 0.4929157
v 0.2496543 0.7642062 0.5276916
v 0.2993999 0.7642062 0.4073416
v 0.2646204 0 0.421779
v 0.1934968 0 0.392379
v 0.1790606 0.7642062 0.3576031
v 0.1293149 0.7642062 0.4779436
v 0.1640944 0 0.4635062
v -0.6030178 0 0.1464081
v -0.6377913 0.7642062 0.1608455
v -0.517458 0.7642062 0.2105935
v -0.5318906 0 0.1758176
v -0.6377913 0.7642062 0.1608455
v -0.5880457 0.7642062 0.04050499
v -0.4677123 0.7642062 0.09024344
v -0.517458 0.7642062 0.2105935
v -0.5880457 0.7642062 0.04050499
v -0.573613 0 0.07528085
v -0.5024858 0 0.1046809
v -0.4677123 0.7642062 0.09024344
v -0.573613 0 0.07528085
v -0.6030178 0 0.1464081
v -0.5318906 0 0.1758176
v -0.5024858 0 0.1046809
v -0.5318906 0 0.1758176
v -0.517458 0.7642062 0.2105935
v -0.4677123 0.7642062 0.09024344
v -0.5024858 0 0.1046809
v -0.573613 0 0.07528085
v -0.5880457 0.7642062 0.04050499
v -0.6377913 0.7642062 0.1608455
v -0.6030178 0 0.1464081
v -0.3528575 0 -0.4587606
v -0.3876357 0.7642062 -0.4443231
v -0.2672964 0.7642062 -0.3945751
v -0.2817326 0 -0.429351
v -0.3876357 0.7642062 -0.4443231
v -0.3378901 0.7642062 -0.5646636
v -0.2175508 0.7642062 -0.5149252
v -0.2672964 0.7642062 -0.3945751
v -0.3378901 0.7642062 -0.5646636
v -0.3234527 0 -0.5298878
v -0.2523291 0 -0.5004877
v -0.2175508 0.7642062 -0.5149252
v -0.3234527 0 -0.5298878
v -0.3528575 0 -0.4587606
v -0.2817326 0 -0.429351
v -0.2523291 0 -0.5004877
v -0.2817326 0 -0.429351
v -0.2672964 0.7642062 -0.3945751
v -0.2175508 0.7642062 -0.5149252
v -0.2523291 0 -0.5004877
v -0.3234527 0 -0.5298878
v -0.3378901 0.7642062 -0.5646636
v -0.3876357 0.7642062 -0.4443231
v -0.3528575 0 -0.4587606
v 0.4142511 0 -0.1416624
v 0.3794729 0.7642062 -0.127225
v 0.499811 0.7642062 -0.07747702
v 0.4853748 0 -0.1122624
v 0.3794729 0.7642062 -0.127225
v 0.4292185 0.7642062 -0.2475655
v 0.5495566 0.7642062 -0.1978271
v 0.499811 0.7642062 -0.07747702
v 0.4292185 0.7642062 -0.2475655
v 0.4436547 0 -0.2127897
v 0.5147784 0 -0.1833896
v 0.5495566 0.7642062 -0.1978271
v 0.4436547 0 -0.2127897
v 0.4142511 0 -0.1416624
v 0.4853748 0 -0.1122624
v 0.5147784 0 -0.1833896
v 0.4853748 0 -0.1122624
v 0.499811 0.7642062 -0.07747702
v 0.5495566 0.7642062 -0.1978271
v 0.5147784 0 -0.1833896
v 0.4436547 0 -0.2127897
v 0.4292185 0.7642062 -0.2475655
v 0.3794729 0.7642062 -0.127225
v 0.4142511 0 -0.1416624
v 0.4434709 1.937138 0.4016506
v 0.3582667 1.937138 0.6077754
v 0.2236571 1.937138 0.5521359
v 0.3123704 1.937138 0.3375225
v 0.6828402 1.937138 -0.1774218
v 0.5955843 0.7642062 -0.2134867
v 0.2710084 0.7642062 0.5717105
v 0.4276418 1.386858 0.3083994
v 0.5060784 1.937138 0.2502009
v 0.3582667 1.937138 0.6077754
v 0.4434709 1.937138 0.4016506
v 0.5482305 1.937138 -0.2330613
v 0.6828402 1.937138 -0.1774218
v 0.5060784 1.937138 0.2502009
v 0.3717326 1.937138 0.1939217
v 0.2852919 1.349823 0.2574769
v 0.4609782 0.9398459 -0.2691261
v 0.5482305 1.937138 -0.2330613
v 0.3717326 1.937138 0.1939217
v 0.1364048 0.9398456 0.5160615
v 0.2236571 1.937138 0.5521359
v 0.3123704 1.937138 0.3375225
v 0.4434709 1.937138 0.4016506
v 0.3123704 1.937138 0.3375225
v 0.2852919 1.349823 0.2574769
v 0.4276418 1.386858 0.3083994
v 0.4276418 1.386858 0.3083994
v 0.2852919 1.349823 0.2574769
v 0.3717326 1.937138 0.1939217
v 0.5060784 1.937138 0.2502009
v -0.1513292 0.7648217 -0.5006501
v -0.09989464 0.9034965 -0.4793854
v -0.1842908 0.9034964 -0.5142759
v -0.358262 0.9398459 -0.6077754
v -0.358262 0.7642062 -0.6077754
v -0.1441976 0.7642062 -0.5192889
v -0.1859451 0.9398458 -0.5365431
v -0.6828366 0.9398459 0.1774218
v -0.358262 0.9398459 -0.6077754
v -0.1859451 0.9398458 -0.5365431
v -0.2771147 0.9398459 -0.2218799
v 0.1364048 0.9398456 0.5160615
v 0.4609782 0.9398459 -0.2691261
v -0.07905252 0.9398459 -0.4923619
v -0.1859451 0.9398458 -0.5365431
v -0.1842908 0.9034964 -0.5142759
v -0.2562726 0.9034965 -0.2658319
v -0.2771147 0.9398459 -0.2218799
v -0.2771147 0.9398459 -0.2218799
v -0.2562726 0.9034965 -0.2658319
v -0.09989464 0.9034965 -0.4793854
v -0.07905252 0.9398459 -0.4923619
v -0.1441976 0.7642062 -0.5192889
v -0.1513292 0.7648217 -0.5006501
v -0.1842908 0.9034964 -0.5142759
v -0.1859451 0.9398458 -0.5365431
v -0.07905252 0.9398459 -0.4923619
v -0.09989464 0.9034965 -0.4793854
v -0.1513292 0.7648217 -0.5006501
v -0.1441976 0.7642062 -0.5192889

vn 0 0.9999999 0
vn 0 0.9999999 0
vn 0 0.9999999 0
vn 0 -0.9999999 0
vn 0 -0.9999999 0
vn 0 -0.9999999 0
vn 0 -0.9999999 0
vn 0 -0.9999999 0
vn 0.3820151 0 -0.924156
vn 0.3820162 0 -0.9241556
vn 0.3820162 0 -0.9241556
vn 0.3820166 0 -0.9241554
vn 0.3820156 0 -0.9241558
vn 0.3820156 0 -0.9241558
vn -0.3820238 0 0.9241524
vn -0.3820238 0 0.9241524
vn -0.3820153 0 0.9241559
vn -0.3820153 0 0.9241559
vn -0.3820322 0 0.9241489
vn -0.3820322 0 0.9241489
vn -0.9241556 0 -0.3820161
vn -0.9241556 0 -0.3820161
vn -0.9241556 0 -0.3820161
vn -0.9241556 0 -0.3820161
vn -0.3817865 -0.03481884 0.9235944
vn -0.3817865 -0.03481884 0.9235944
vn -0.3817865 -0.03481884 0.9235944
vn -0.3817865 -0.03481884 0.9235944
vn 0 0.9999999 0
vn 0 0.9999999 0
vn 0 0.9999999 0
vn 0 0.9999999 0
vn 0.3817862 -0.03482072 -0.9235944
vn 0.3817862 -0.03482072 -0.9235944
vn 0.3817862 -0.03482072 -0.9235944
vn 0.3817862 -0.03482072 -0.9235944
vn 0 -0.9999999 0
vn 0 -0.9999999 0
vn 0 -0.9999999 0
vn 0 -0.9999999 0
vn 0.9235954 -0.03482101 0.381784
vn 0.9235954 -0.03482101 0.381784
vn 0.9235954 -0.03482101 0.381784
vn 0.9235954 -0.03482101 0.381784
vn -0.9235954 -0.03482105 -0.3817841
vn -0.9235954 -0.03482105 -0.3817841
vn -0.9235954 -0.03482105 -0.3817841
vn -0.9235954 -0.03482105 -0.3817841
vn -0.3817883 -0.03481853 0.9235936
vn -0.3817883 -0.03481853 0.9235936
vn -0.3817883 -0.03481853 0.9235936
vn -0.3817883 -0.03481853 0.9235936
vn 0 0.9999999 0
vn 0 0.9999999 0
vn 0 0.9999999 0
vn 0 0.9999999 0
vn 0.3817884 -0.03481854 -0.9235935
vn 0.3817884 -0.03481854 -0.9235935
vn 0.3817884 -0.03481854 -0.9235935
vn 0.3817884 -0.03481854 -0.9235935
vn 0 -0.9999999 0
vn 0 -0.9999999 0
vn 0 -0.9999999 0
vn 0 -0.9999999 0
vn 0.9235961 -0.03481634 0.3817823
vn 0.9235961 -0.03481634 0.3817823
vn 0.9235961 -0.03481634 0.3817823
vn 0.9235961 -0.03481634 0.3817823
vn -0.9235954 -0.03481606 -0.3817843
vn -0.9235954 -0.03481606 -0.3817843
vn -0.9235954 -0.03481606 -0.3817843
vn -0.9235954 -0.03481606 -0.3817843
vn -0.3817885 -0.03481887 0.9235935
vn -0.3817885 -0.03481887 0.9235935
vn -0.3817885 -0.03481887 0.9235935
vn -0.3817885 -0.03481887 0.9235935
vn 0 0.9999999 0
vn 0 0.9999999 0
vn 0 0.9999999 0
vn 0 0.9999999 0
vn 0.3817851 -0.03481865 -0.923595
vn 0.3817851 -0.03481865 -0.923595
vn 0.3817851 -0.03481865 -0.923595
vn 0.3817851 -0.03481865 -0.923595
vn 0 -0.9999999 0
vn 0 -0.9999999 0
vn 0 -0.9999999 0
vn 0 -0.9999999 0
vn 0.9235954 -0.03482104 0.3817841
vn 0.9235954 -0.03482104 0.3817841
vn 0.9235954 -0.03482104 0.3817841
vn 0.9235954 -0.03482104 0.3817841
vn -0.9235952 -0.03482097 -0.3817841
vn -0.9235952 -0.03482097 -0.3817841
vn -0.9235952 -0.03482097 -0.3817841
vn -0.9235952 -0.03482097 -0.3817841
vn -0.3817873 -0.0348193 0.9235941
vn -0.3817873 -0.0348193 0.9235941
vn -0.3817873 -0.0348193 0.9235941
vn -0.3817873 -0.0348193 0.9235941
vn 0 0.9999999 0
vn 0 0.9999999 0
vn 0 0.9999999 0
vn 0 0.9999999 0
vn 0.3817843 -0.0348185 -0.9235954
vn 0.3817843 -0.0348185 -0.9235954
vn 0.3817843 -0.0348185 -0.9235954
vn 0.3817843 -0.0348185 -0.9235954
vn 0 -0.9999999 0
vn 0 -0.9999999 0
vn 0 -0.9999999 0
vn 0 -0.9999999 0
vn 0.9235954 -0.034821 0.3817841
vn 0.9235954 -0.034821 0.3817841
vn 0.9235954 -0.034821 0.3817841
vn 0.9235954 -0.034821 0.3817841
vn -0.9235952 -0.034821 -0.3817842
vn -0.9235952 -0.034821 -0.3817842
vn -0.9235952 -0.034821 -0.3817842
vn -0.9235952 -0.034821 -0.3817842
vn 0 0.9999999 0
vn 0 0.9999999 0
vn 0 0.9999999 0
vn 0 0.9999999 0
vn 0.916407 -0.07415223 0.3933185
vn 0.921176 -0.0802375 0.3807841
vn 0.9192019 -0.07058297 0.3874092
vn 0.9193317 -0.07835741 0.3856024
vn 0.920326 -0.09094398 0.3804328
vn 0.9244606 -0.08558839 0.3715468
vn 0.9203261 -0.09094397 0.3804327
vn 0 0.9999999 0
vn 0 0.9999999 0
vn 0 0.9999999 0
vn 0 0.9999999 0
vn -0.920042 0.09424864 -0.3803153
vn -0.920042 0.09424878 -0.3803153
vn -0.920042 0.09424859 -0.3803153
vn -0.920042 0.09424852 -0.3803153
vn -0.9200419 0.09424877 -0.3803155
vn -0.9200419 0.09424856 -0.3803154
vn -0.920042 0.0942485 -0.3803153
vn 0.3701282 0.1262409 -0.920363
vn 0.3701282 0.1262409 -0.920363
vn 0.3701282 0.1262409 -0.920363
vn 0.3701282 0.1262409 -0.920363
vn -0.374703 0.1522035 0.9145663
vn -0.374703 0.1522035 0.9145663
vn -0.374703 0.1522035 0.9145663
vn -0.374703 0.1522035 0.9145663
vn 0.3820176 0 -0.924155
vn 0.3820176 0 -0.924155
vn 0.3820176 0 -0.924155
vn 0.3820135 0 -0.9241566
vn 0.3820135 0 -0.9241566
vn 0.3820151 0 -0.924156
vn 0.3820135 0 -0.9241566
vn 0 0.9999999 0
vn 0 0.9999999 0
vn 0 0.9999999 0
vn 0 0.9999999 0
vn 0 0.9999999 0
vn 0 0.9999999 0
vn 0 0.9999999 0
vn 0.9240454 0.229412 0.3057941
vn 0.9240454 0.229412 0.3057941
vn 0.9391888 0.2094681 0.2721166
vn 0.9391888 0.2094681 0.2721166
vn -0.7823951 0.2441675 -0.5729224
vn -0.7823951 0.2441675 -0.5729224
vn -0.7823951 0.2441675 -0.5729224
vn -0.7823951 0.2441675 -0.5729224
vn 0.9072746 0.248952 0.338933
vn 0.9072746 0.248952 0.338933
vn 0.9240454 0.229412 0.3057941
vn 0.9240454 0.229412 0.3057941
vn -0.8626028 0.3724295 -0.342363
vn -0.8626028 0.3724295 -0.342363
vn -0.8626028 0.3724295 -0.342363
vn -0.8626028 0.3724295 -0.342363

vt 0.2358398 0.04641724
vt 0.2358398 0.04641724
vt 0.2358398 0.04641724
vt 0.1098633 0.04641724
vt 0.1098633 0.04641724
vt 0.1098633 0.04641724
vt 0.1098633 0.04641724
vt 0.1098633 0.04641724
vt 0.1409912 0.04641724
vt 0.1409912 0.04641724
vt 0.1409912 0.04641724
vt 0.1409912 0.04641724
vt 0.1409912 0.04641724
vt 0.1409912 0.04641724
vt 0.1409912 0.04641724
vt 0.1409912 0.04641724
vt 0.1409912 0.04641724
vt 0.1409912 0.04641724
vt 0.1409912 0.04641724
vt 0.1409912 0.04641724
vt 0.1715088 0.04641724
vt 0.1715088 0.04641724
vt 0.1715088 0.04641724
vt 0.1715088 0.04641724
vt 0.1098633 0.04641724
vt 0.1098633 0.04641724
vt 0.1098633 0.04641724
vt 0.1098633 0.04641724
vt 0.1098633 0.04641724
vt 0.1098633 0.04641724
vt 0.1098633 0.04641724
vt 0.1098633 0.04641724
vt 0.1098633 0.04641724
vt 0.1098633 0.04641724
vt 0.1098633 0.04641724
vt 0.1098633 0.04641724
vt 0.1098633 0.04641724
vt 0.1098633 0.04641724
vt 0.1098633 0.04641724
vt 0.1098633 0.04641724
vt 0.1715088 0.04641724
vt 0.1715088 0.04641724
vt 0.1715088 0.04641724
vt 0.1715088 0.04641724
vt 0.1715088 0.04641724
vt 0.1715088 0.04641724
vt 0.1715088 0.04641724
vt 0.1715088 0.04641724
vt 0.1098633 0.04641724
vt 0.1098633 0.04641724
vt 0.1098633 0.04641724
vt 0.1098633 0.04641724
vt 0.1098633 0.04641724
vt 0.1098633 0.04641724
vt 0.1098633 0.04641724
vt 0.1098633 0.04641724
vt 0.1098633 0.04641724
vt 0.1098633 0.04641724
vt 0.1098633 0.04641724
vt 0.1098633 0.04641724
vt 0.1098633 0.04641724
vt 0.1098633 0.04641724
vt 0.1098633 0.04641724
vt 0.1098633 0.04641724
vt 0.1715088 0.04641724
vt 0.1715088 0.04641724
vt 0.1715088 0.04641724
vt 0.1715088 0.04641724
vt 0.1715088 0.04641724
vt 0.1715088 0.04641724
vt 0.1715088 0.04641724
vt 0.1715088 0.04641724
vt 0.1098633 0.04641724
vt 0.1098633 0.04641724
vt 0.1098633 0.04641724
vt 0.1098633 0.04641724
vt 0.1098633 0.04641724
vt 0.1098633 0.04641724
vt 0.1098633 0.04641724
vt 0.1098633 0.04641724
vt 0.1098633 0.04641724
vt 0.1098633 0.04641724
vt 0.1098633 0.04641724
vt 0.1098633 0.04641724
vt 0.1098633 0.04641724
vt 0.1098633 0.04641724
vt 0.1098633 0.04641724
vt 0.1098633 0.04641724
vt 0.1715088 0.04641724
vt 0.1715088 0.04641724
vt 0.1715088 0.04641724
vt 0.1715088 0.04641724
vt 0.1715088 0.04641724
vt 0.1715088 0.04641724
vt 0.1715088 0.04641724
vt 0.1715088 0.04641724
vt 0.1098633 0.04641724
vt 0.1098633 0.04641724
vt 0.1098633 0.04641724
vt 0.1098633 0.04641724
vt 0.1098633 0.04641724
vt 0.1098633 0.04641724
vt 0.1098633 0.04641724
vt 0.1098633 0.04641724
vt 0.1098633 0.04641724
vt 0.1098633 0.04641724
vt 0.1098633 0.04641724
vt 0.1098633 0.04641724
vt 0.1098633 0.04641724
vt 0.1098633 0.04641724
vt 0.1098633 0.04641724
vt 0.1098633 0.04641724
vt 0.1715088 0.04641724
vt 0.1715088 0.04641724
vt 0.1715088 0.04641724
vt 0.1715088 0.04641724
vt 0.1715088 0.04641724
vt 0.1715088 0.04641724
vt 0.1715088 0.04641724
vt 0.1715088 0.04641724
vt 0.2629395 0.04641724
vt 0.2629395 0.04641724
vt 0.2629395 0.04641724
vt 0.2629395 0.04641724
vt 0.1715088 0.04641724
vt 0.1715088 0.04641724
vt 0.1715088 0.04641724
vt 0.1715088 0.04641724
vt 0.1715088 0.04641724
vt 0.1715088 0.04641724
vt 0.1715088 0.04641724
vt 0.2629395 0.04641724
vt 0.2629395 0.04641724
vt 0.2629395 0.04641724
vt 0.2629395 0.04641724
vt 0.2033691 0.04641724
vt 0.2033691 0.04641724
vt 0.2033691 0.04641724
vt 0.2033691 0.04641724
vt 0.2033691 0.04641724
vt 0.2033691 0.04641724
vt 0.2033691 0.04641724
vt 0.1129761 0.1086426
vt 0.1129761 0.1086426
vt 0.1129761 0.1086426
vt 0.1129761 0.1086426
vt 0.07775879 0.1086426
vt 0.07775879 0.1086426
vt 0.07775879 0.1086426
vt 0.07775879 0.1086426
vt 0.1409912 0.04641724
vt 0.1409912 0.04641724
vt 0.1409912 0.04641724
vt 0.1409912 0.04641724
vt 0.1409912 0.04641724
vt 0.1409912 0.04641724
vt 0.1409912 0.04641724
vt 0.2629395 0.04641724
vt 0.2629395 0.04641724
vt 0.2629395 0.04641724
vt 0.2629395 0.04641724
vt 0.2629395 0.04641724
vt 0.2629395 0.04641724
vt 0.2629395 0.04641724
vt 0.1994629 0.04641724
vt 0.1994629 0.04641724
vt 0.1994629 0.04641724
vt 0.1994629 0.04641724
vt 0.1994629 0.04641724
vt 0.1994629 0.04641724
vt 0.1994629 0.04641724
vt 0.1994629 0.04641724
vt 0.07751465 0.04641724
vt 0.07751465 0.04641724
vt 0.07751465 0.04641724
vt 0.07751465 0.04641724
vt 0.07751465 0.04641724
vt 0.07751465 0.04641724
vt 0.07751465 0.04641724
vt 0.07751465 0.04641724

g SA_Prop_Chair_Damaged_01_609_54
usemtl SA_Prop_Chair_Damaged_01_609_54
usemap SA_Prop_Chair_Damaged_01_609_54
f 1/1/1 3/3/3 2/2/2
f 4/4/4 6/6/6 5/5/5
f 6/6/6 4/4/4 7/7/7
f 6/6/6 7/7/7 8/8/8
f 9/9/9 11/11/11 10/10/10
f 9/9/9 12/12/12 11/11/11
f 10/10/10 11/11/11 13/13/13
f 10/10/10 13/13/13 14/14/14
f 15/15/15 17/17/17 16/16/16
f 15/15/15 18/18/18 17/17/17
f 19/19/19 15/15/15 16/16/16
f 19/19/19 16/16/16 20/20/20
f 21/21/21 23/23/23 22/22/22
f 21/21/21 24/24/24 23/23/23
f 25/25/25 27/27/27 26/26/26
f 25/25/25 28/28/28 27/27/27
f 29/29/29 31/31/31 30/30/30
f 29/29/29 32/32/32 31/31/31
f 33/33/33 35/35/35 34/34/34
f 33/33/33 36/36/36 35/35/35
f 37/37/37 39/39/39 38/38/38
f 37/37/37 40/40/40 39/39/39
f 41/41/41 43/43/43 42/42/42
f 41/41/41 44/44/44 43/43/43
f 45/45/45 47/47/47 46/46/46
f 45/45/45 48/48/48 47/47/47
f 49/49/49 51/51/51 50/50/50
f 49/49/49 52/52/52 51/51/51
f 53/53/53 55/55/55 54/54/54
f 53/53/53 56/56/56 55/55/55
f 57/57/57 59/59/59 58/58/58
f 57/57/57 60/60/60 59/59/59
f 61/61/61 63/63/63 62/62/62
f 61/61/61 64/64/64 63/63/63
f 65/65/65 67/67/67 66/66/66
f 65/65/65 68/68/68 67/67/67
f 69/69/69 71/71/71 70/70/70
f 69/69/69 72/72/72 71/71/71
f 73/73/73 75/75/75 74/74/74
f 73/73/73 76/76/76 75/75/75
f 77/77/77 79/79/79 78/78/78
f 77/77/77 80/80/80 79/79/79
f 81/81/81 83/83/83 82/82/82
f 81/81/81 84/84/84 83/83/83
f 85/85/85 87/87/87 86/86/86
f 85/85/85 88/88/88 87/87/87
f 89/89/89 91/91/91 90/90/90
f 89/89/89 92/92/92 91/91/91
f 93/93/93 95/95/95 94/94/94
f 93/93/93 96/96/96 95/95/95
f 97/97/97 99/99/99 98/98/98
f 97/97/97 100/100/100 99/99/99
f 101/101/101 103/103/103 102/102/102
f 101/101/101 104/104/104 103/103/103
f 105/105/105 107/107/107 106/106/106
f 105/105/105 108/108/108 107/107/107
f 109/109/109 111/111/111 110/110/110
f 109/109/109 112/112/112 111/111/111
f 113/113/113 115/115/115 114/114/114
f 113/113/113 116/116/116 115/115/115
f 117/117/117 119/119/119 118/118/118
f 117/117/117 120/120/120 119/119/119
f 121/121/121 123/123/123 122/122/122
f 121/121/121 124/124/124 123/123/123
f 125/125/125 127/127/127 126/126/126
f 127/127/127 125/125/125 128/128/128
f 128/128/128 125/125/125 129/129/129
f 128/128/128 130/130/130 127/127/127
f 130/130/130 128/128/128 131/131/131
f 132/132/132 134/134/134 133/133/133
f 132/132/132 135/135/135 134/134/134
f 136/136/136 138/138/138 137/137/137
f 138/138/138 136/136/136 139/139/139
f 140/140/140 136/136/136 137/137/137
f 136/136/136 140/140/140 141/141/141
f 136/136/136 141/141/141 142/142/142
f 143/143/143 145/145/145 144/144/144
f 143/143/143 146/146/146 145/145/145
f 147/147/147 149/149/149 148/148/148
f 147/147/147 150/150/150 149/149/149
f 151/151/151 153/153/153 152/152/152
f 154/154/154 156/156/156 155/155/155
f 154/154/154 157/157/157 156/156/156
f 158/158/158 160/160/160 159/159/159
f 160/160/160 158/158/158 161/161/161
f 162/162/162 161/161/161 158/158/158
f 163/163/163 161/161/161 162/162/162
f 161/161/161 163/163/163 164/164/164
f 165/165/165 167/167/167 166/166/166
f 165/165/165 168/168/168 167/167/167
f 169/169/169 171/171/171 170/170/170
f 169/169/169 172/172/172 171/171/171
f 173/173/173 175/175/175 174/174/174
f 173/173/173 176/176/176 175/175/175
f 177/177/177 179/179/179 178/178/178
f 177/177/177 180/180/180 179/179/179
