#SA_Veh_Clean_SheriffCar_Wheel_FL_1468_179.obj

v -0.1514761 0.5307282 0.1422092
v 0.1514771 0.5307283 0.1422091
v 0.1514755 0.3885202 0.3885168
v -0.151475 0.3885202 0.3885171
v -0.151475 0.3885202 0.3885171
v 0.1514755 0.3885202 0.3885168
v 0.1514746 0.1422092 0.5307271
v -0.1514759 0.1422092 0.5307274
v -0.1514759 0.1422092 0.5307274
v 0.1514746 0.1422092 0.5307271
v 0.1514747 -0.1422081 0.5307255
v -0.1514758 -0.1422081 0.5307258
v -0.1514758 -0.1422081 0.5307258
v 0.1514747 -0.1422081 0.5307255
v 0.1514753 -0.3885176 0.3885199
v -0.1514751 -0.3885164 0.3885203
v -0.1514751 -0.3885164 0.3885203
v 0.1514753 -0.3885176 0.3885199
v 0.1514747 -0.5307281 0.1422022
v -0.1514758 -0.5307281 0.1422025
v -0.1514758 -0.5307281 0.1422025
v 0.1514747 -0.5307281 0.1422022
v 0.1514758 -0.5307252 -0.1422056
v -0.1514746 -0.5307252 -0.1422053
v -0.1514746 -0.5307252 -0.1422053
v 0.1514758 -0.5307252 -0.1422056
v 0.1514751 -0.3885194 -0.3885217
v -0.1514754 -0.3885194 -0.3885214
v -0.1514754 -0.3885194 -0.3885214
v 0.1514751 -0.3885194 -0.3885217
v 0.1514756 -0.1422061 -0.5307238
v -0.1514749 -0.1422062 -0.5307235
v -0.1514749 -0.1422062 -0.5307235
v 0.1514756 -0.1422061 -0.5307238
v 0.1514758 0.142209 -0.5307304
v -0.1514746 0.142209 -0.5307301
v -0.1514746 0.142209 -0.5307301
v 0.1514758 0.142209 -0.5307304
v 0.1514749 0.3885207 -0.3885165
v -0.1514756 0.3885207 -0.3885162
v -0.1514756 0.3885207 -0.3885162
v 0.1514749 0.3885207 -0.3885165
v 0.1514762 0.5307267 -0.1422154
v -0.1514769 0.5307266 -0.1422152
v -0.1514769 0.5307266 -0.1422152
v 0.1514762 0.5307267 -0.1422154
v 0.1514771 0.5307283 0.1422091
v -0.1514761 0.5307282 0.1422092
v 0.1514771 0.5307283 0.1422091
v 0.1514754 -6.419046E-07 -6.613437E-06
v 0.1514755 0.3885202 0.3885168
v 0.1514754 -6.419046E-07 -6.613437E-06
v 0.1514746 0.1422092 0.5307271
v 0.1514754 -6.419046E-07 -6.613437E-06
v 0.1514747 -0.1422081 0.5307255
v 0.1514754 -6.419046E-07 -6.613437E-06
v 0.1514753 -0.3885176 0.3885199
v 0.1514754 -6.419046E-07 -6.613437E-06
v 0.1514747 -0.5307281 0.1422022
v 0.1514754 -6.419046E-07 -6.613437E-06
v 0.1514758 -0.5307252 -0.1422056
v 0.1514754 -6.419046E-07 -6.613437E-06
v 0.1514751 -0.3885194 -0.3885217
v 0.1514754 -6.419046E-07 -6.613437E-06
v 0.1514756 -0.1422061 -0.5307238
v 0.1514754 -6.419046E-07 -6.613437E-06
v 0.1514758 0.142209 -0.5307304
v 0.1514754 -6.419046E-07 -6.613437E-06
v 0.1514749 0.3885207 -0.3885165
v 0.1514754 -6.419046E-07 -6.613437E-06
v 0.1514762 0.5307267 -0.1422154
v 0.1514754 -6.419046E-07 -6.613437E-06
v -0.151475 0.3885202 0.3885171
v -0.1514759 0.1422092 0.5307274
v -0.1514761 0.5307282 0.1422092
v -0.1514758 -0.1422081 0.5307258
v -0.1514751 -0.3885164 0.3885203
v -0.1514758 -0.5307281 0.1422025
v -0.1514746 -0.5307252 -0.1422053
v -0.1514754 -0.3885194 -0.3885214
v -0.1514749 -0.1422062 -0.5307235
v -0.1514746 0.142209 -0.5307301
v -0.1514756 0.3885207 -0.3885162
v -0.1514769 0.5307266 -0.1422152

vn 0.02208518 0.9046713 0.4255365
vn 0.02208518 0.9046713 0.4255365
vn 0.02208518 0.9046713 0.4255365
vn 0.02208518 0.9046713 0.4255365
vn 0.03704722 0.570441 0.8205024
vn 0.03704722 0.570441 0.8205024
vn 0.03704722 0.570441 0.8205024
vn 0.03704722 0.570441 0.8205024
vn 0.04208309 0.08334448 0.9956316
vn 0.04208309 0.08334448 0.9956316
vn 0.04208309 0.08334448 0.9956316
vn 0.04208309 0.08334448 0.9956316
vn 0.03584278 -0.42607 0.9039795
vn 0.03584278 -0.42607 0.9039795
vn 0.03584278 -0.42607 0.9039795
vn 0.03584278 -0.42607 0.9039795
vn 0.01999804 -0.821332 0.5700989
vn 0.01999804 -0.821332 0.5700989
vn 0.01999804 -0.821332 0.5700989
vn 0.01999804 -0.821332 0.5700989
vn -0.001204777 -0.9965091 0.08346885
vn -0.001204777 -0.9965091 0.08346885
vn -0.001204777 -0.9965091 0.08346885
vn -0.001204777 -0.9965091 0.08346885
vn -0.02208434 -0.9046811 -0.4255153
vn -0.02208434 -0.9046811 -0.4255153
vn -0.02208434 -0.9046811 -0.4255153
vn -0.02208434 -0.9046811 -0.4255153
vn -0.03704782 -0.5704166 -0.8205193
vn -0.03704782 -0.5704166 -0.8205193
vn -0.03704782 -0.5704166 -0.8205193
vn -0.03704782 -0.5704166 -0.8205193
vn -0.04208309 -0.08334448 -0.9956316
vn -0.04208309 -0.08334448 -0.9956316
vn -0.04208309 -0.08334448 -0.9956316
vn -0.04208309 -0.08334448 -0.9956316
vn -0.03584232 0.4260892 -0.9039705
vn -0.03584232 0.4260892 -0.9039705
vn -0.03584232 0.4260892 -0.9039705
vn -0.03584232 0.4260892 -0.9039705
vn -0.01999852 0.8213248 -0.5701094
vn -0.01999852 0.8213248 -0.5701094
vn -0.01999852 0.8213248 -0.5701094
vn -0.01999852 0.8213248 -0.5701094
vn 0.001204777 0.9965091 -0.08346885
vn 0.001204777 0.9965091 -0.08346885
vn 0.001204777 0.9965091 -0.08346885
vn 0.001204777 0.9965091 -0.08346885
vn 0.9991134 -0.004711952 -0.04183581
vn 0.9991134 -0.004711952 -0.04183581
vn 0.9991134 -0.004711952 -0.04183581
vn 0.9991134 -0.004711952 -0.04183581
vn 0.9991134 -0.004711952 -0.04183581
vn 0.9991134 -0.004711952 -0.04183581
vn 0.9991134 -0.004711952 -0.04183581
vn 0.9991134 -0.004711952 -0.04183581
vn 0.9991134 -0.004711952 -0.04183581
vn 0.9991134 -0.004711952 -0.04183581
vn 0.9991134 -0.004711952 -0.04183581
vn 0.9991134 -0.004711952 -0.04183581
vn 0.9991134 -0.004711952 -0.04183581
vn 0.9991134 -0.004711952 -0.04183581
vn 0.9991134 -0.004711952 -0.04183581
vn 0.9991134 -0.004711952 -0.04183581
vn 0.9991134 -0.004711952 -0.04183581
vn 0.9991134 -0.004711952 -0.04183581
vn 0.9991134 -0.004711952 -0.04183581
vn 0.9991134 -0.004711952 -0.04183581
vn 0.9991134 -0.004711952 -0.04183581
vn 0.9991134 -0.004711952 -0.04183581
vn 0.9991134 -0.004711952 -0.04183581
vn 0.9991134 -0.004711952 -0.04183581
vn -0.9991134 0.004711952 0.04183581
vn -0.9991134 0.004711952 0.04183581
vn -0.9991134 0.004711952 0.04183581
vn -0.9991134 0.004711952 0.04183581
vn -0.9991134 0.004711952 0.04183581
vn -0.9991134 0.004711952 0.04183581
vn -0.9991134 0.004711952 0.04183581
vn -0.9991134 0.004711952 0.04183581
vn -0.9991134 0.004711952 0.04183581
vn -0.9991134 0.004711952 0.04183581
vn -0.9991134 0.004711952 0.04183581
vn -0.9991134 0.004711952 0.04183581

vt 0.005622864 0.9892578
vt 0.005622864 0.9892578
vt 0.005622864 0.9892578
vt 0.005622864 0.9892578
vt 0.005622864 0.9892578
vt 0.005622864 0.9892578
vt 0.005622864 0.9892578
vt 0.005622864 0.9892578
vt 0.005622864 0.9892578
vt 0.005622864 0.9892578
vt 0.005622864 0.9892578
vt 0.005622864 0.9892578
vt 0.005622864 0.9892578
vt 0.005622864 0.9892578
vt 0.005622864 0.9892578
vt 0.005622864 0.9892578
vt 0.005622864 0.9892578
vt 0.005622864 0.9892578
vt 0.005622864 0.9892578
vt 0.005622864 0.9892578
vt 0.005622864 0.9892578
vt 0.005622864 0.9892578
vt 0.005622864 0.9892578
vt 0.005622864 0.9892578
vt 0.005622864 0.9892578
vt 0.005622864 0.9892578
vt 0.005622864 0.9892578
vt 0.005622864 0.9892578
vt 0.005622864 0.9892578
vt 0.005622864 0.9892578
vt 0.005622864 0.9892578
vt 0.005622864 0.9892578
vt 0.005622864 0.9892578
vt 0.005622864 0.9892578
vt 0.005622864 0.9892578
vt 0.005622864 0.9892578
vt 0.005622864 0.9892578
vt 0.005622864 0.9892578
vt 0.005622864 0.9892578
vt 0.005622864 0.9892578
vt 0.005622864 0.9892578
vt 0.005622864 0.9892578
vt 0.005622864 0.9892578
vt 0.005622864 0.9892578
vt 0.005622864 0.9892578
vt 0.005622864 0.9892578
vt 0.005622864 0.9892578
vt 0.005622864 0.9892578
vt 0.005519867 0.9370117
vt 0.005809784 0.8662109
vt 0.005809784 0.9370117
vt 0.005809784 0.8662109
vt 0.005809784 0.9370117
vt 0.005809784 0.8662109
vt 0.005809784 0.9370117
vt 0.005809784 0.8662109
vt 0.005809784 0.9370117
vt 0.005809784 0.8662109
vt 0.005809784 0.9370117
vt 0.005809784 0.8662109
vt 0.005809784 0.9370117
vt 0.005809784 0.8662109
vt 0.005809784 0.9370117
vt 0.005809784 0.8662109
vt 0.005809784 0.9370117
vt 0.005809784 0.8662109
vt 0.005809784 0.9370117
vt 0.005809784 0.8662109
vt 0.005809784 0.9370117
vt 0.005809784 0.8662109
vt 0.005809784 0.9370117
vt 0.005809784 0.8662109
vt 0.00724411 0.9521484
vt 0.00724411 0.9521484
vt 0.00724411 0.9521484
vt 0.00724411 0.9521484
vt 0.00724411 0.9521484
vt 0.00724411 0.9521484
vt 0.00724411 0.9521484
vt 0.00724411 0.9521484
vt 0.00724411 0.9521484
vt 0.00724411 0.9521484
vt 0.00724411 0.9521484
vt 0.00724411 0.9521484

g SA_Veh_Clean_SheriffCar_Wheel_FL_1468_179
usemtl SA_Veh_Clean_SheriffCar_Wheel_FL_1468_179
usemap SA_Veh_Clean_SheriffCar_Wheel_FL_1468_179
f 1/1/1 3/3/3 2/2/2
f 1/1/1 4/4/4 3/3/3
f 5/5/5 7/7/7 6/6/6
f 5/5/5 8/8/8 7/7/7
f 9/9/9 11/11/11 10/10/10
f 9/9/9 12/12/12 11/11/11
f 13/13/13 15/15/15 14/14/14
f 13/13/13 16/16/16 15/15/15
f 17/17/17 19/19/19 18/18/18
f 17/17/17 20/20/20 19/19/19
f 21/21/21 23/23/23 22/22/22
f 21/21/21 24/24/24 23/23/23
f 25/25/25 27/27/27 26/26/26
f 25/25/25 28/28/28 27/27/27
f 29/29/29 31/31/31 30/30/30
f 29/29/29 32/32/32 31/31/31
f 33/33/33 35/35/35 34/34/34
f 33/33/33 36/36/36 35/35/35
f 37/37/37 39/39/39 38/38/38
f 37/37/37 40/40/40 39/39/39
f 41/41/41 43/43/43 42/42/42
f 41/41/41 44/44/44 43/43/43
f 45/45/45 47/47/47 46/46/46
f 45/45/45 48/48/48 47/47/47
f 49/49/49 51/51/51 50/50/50
f 51/51/51 53/53/53 52/52/52
f 53/53/53 55/55/55 54/54/54
f 55/55/55 57/57/57 56/56/56
f 57/57/57 59/59/59 58/58/58
f 59/59/59 61/61/61 60/60/60
f 61/61/61 63/63/63 62/62/62
f 63/63/63 65/65/65 64/64/64
f 65/65/65 67/67/67 66/66/66
f 67/67/67 69/69/69 68/68/68
f 69/69/69 71/71/71 70/70/70
f 71/71/71 49/49/49 72/72/72
f 73/73/73 75/75/75 74/74/74
f 74/74/74 75/75/75 76/76/76
f 76/76/76 75/75/75 77/77/77
f 77/77/77 75/75/75 78/78/78
f 78/78/78 75/75/75 79/79/79
f 79/79/79 75/75/75 80/80/80
f 80/80/80 75/75/75 81/81/81
f 81/81/81 75/75/75 82/82/82
f 82/82/82 75/75/75 83/83/83
f 83/83/83 75/75/75 84/84/84
