#SD_Env_Wall_Half_19_2643_55.obj

v -3.337851E-06 -2.384186E-07 2.543143E-06
v -3.337851E-06 0.4779292 2.543143E-06
v 4.999997 0.4779292 2.185624E-07
v 4.999997 -2.384186E-07 2.185624E-07
v -3.337851E-06 2.013407 2.543143E-06
v -3.337851E-06 2.5 2.543143E-06
v 4.999997 2.5 2.185624E-07
v 4.999997 2.013407 2.185624E-07
v -3.337851E-06 0.4779292 2.543143E-06
v -1.751105E-06 0.4779292 -0.2719549
v 4.999998 0.4779292 -0.2719521
v 4.999997 0.4779292 2.185624E-07
v -1.751105E-06 2.013407 -0.2719549
v -3.337851E-06 2.013407 2.543143E-06
v 4.999997 2.013407 2.185624E-07
v 4.999998 2.013406 -0.2719521
v -1.751105E-06 0.4779292 -0.2719549
v -1.751105E-06 2.013407 -0.2719549
v 4.999998 2.013406 -0.2719521
v 4.999998 0.4779292 -0.2719521

vn -3.516674E-06 0 1
vn -3.516674E-06 0 1
vn -3.516674E-06 0 1
vn -3.516674E-06 0 1
vn -3.516674E-06 0 1
vn -3.516674E-06 0 1
vn -3.516674E-06 0 1
vn -3.516674E-06 0 1
vn 0 1 0
vn 0 1 0
vn 0 1 0
vn 0 1 0
vn 0 -1 0
vn 0 -1 0
vn 0 -1 0
vn 0 -1 0
vn -3.516674E-06 0 1
vn -3.516674E-06 0 1
vn -3.516674E-06 0 1
vn -3.516674E-06 0 1

vt 0.004470825 0.8398438
vt 0.004470825 0.8681641
vt 0.1600342 0.8681641
vt 0.1600342 0.8398438
vt 0.004470825 0.9672852
vt 0.004470825 0.9956055
vt 0.1600342 0.9956055
vt 0.1600342 0.9672852
vt 0.004470825 0.8681641
vt 0.004470825 0.8686523
vt 0.1600342 0.8686523
vt 0.1600342 0.8681641
vt 0.004470825 0.9667969
vt 0.004470825 0.9672852
vt 0.1600342 0.9672852
vt 0.1600342 0.9667969
vt 0.03277588 0.8901367
vt 0.03277588 0.9331055
vt 0.1322021 0.9331055
vt 0.1322021 0.8901367

g SD_Env_Wall_Half_19_2643_55
usemtl SD_Env_Wall_Half_19_2643_55
usemap SD_Env_Wall_Half_19_2643_55
f 1/1/1 3/3/3 2/2/2
f 1/1/1 4/4/4 3/3/3
f 5/5/5 7/7/7 6/6/6
f 5/5/5 8/8/8 7/7/7
f 9/9/9 11/11/11 10/10/10
f 9/9/9 12/12/12 11/11/11
f 13/13/13 15/15/15 14/14/14
f 13/13/13 16/16/16 15/15/15
f 17/17/17 19/19/19 18/18/18
f 17/17/17 20/20/20 19/19/19
