#SD_Env_Wall_Half_29_2514_320.obj

v -9.487335E-06 2.5 7.597199E-07
v 4.99999 2.5 5.37863E-08
v 4.99999 2.013409 5.37863E-08
v -9.487335E-06 2.013409 7.597199E-07
v 4.99999 2.013409 5.37863E-08
v 4.999994 2.013409 -0.2719548
v -5.822702E-06 2.013409 -0.2719541
v -9.487335E-06 2.013409 7.597199E-07
v 4.99999 0.4779282 5.37863E-08
v 4.99999 0 5.37863E-08
v -9.487335E-06 0 7.597199E-07
v -9.487335E-06 0.4779282 7.597199E-07
v 4.999994 0.4779282 -0.2719548
v 4.99999 0.4779282 5.37863E-08
v -9.487335E-06 0.4779282 7.597199E-07
v -5.822702E-06 0.4779282 -0.2719541
v 4.999994 2.013409 -0.2719548
v 4.999994 0.4779282 -0.2719548
v -5.822702E-06 0.4779282 -0.2719541
v -5.822702E-06 2.013409 -0.2719541

vn 1 0 5.185604E-06
vn 1 0 5.185604E-06
vn 1 0 5.185604E-06
vn 1 0 5.185604E-06
vn 0 -1 0
vn 0 -1 0
vn 0 -1 0
vn 0 -1 0
vn 1 0 5.185604E-06
vn 1 0 5.185604E-06
vn 1 0 5.185604E-06
vn 1 0 5.185604E-06
vn 0 1 0
vn 0 1 0
vn 0 1 0
vn 0 1 0
vn 1 0 5.185604E-06
vn 1 0 5.185604E-06
vn 1 0 5.185604E-06
vn 1 0 5.185604E-06

vt 0.004470825 0.6821289
vt 0.004470825 0.8378906
vt 0.03475952 0.8378906
vt 0.03475952 0.6821289
vt 0.03475952 0.8378906
vt 0.03530884 0.8378906
vt 0.03530884 0.6821289
vt 0.03475952 0.6821289
vt 0.1303711 0.8378906
vt 0.1600342 0.8378906
vt 0.1600342 0.6821289
vt 0.1303711 0.6821289
vt 0.1298828 0.8378906
vt 0.1303711 0.8378906
vt 0.1303711 0.6821289
vt 0.1298828 0.6821289
vt 0.1322021 0.9301758
vt 0.1322021 0.9057617
vt 0.03268433 0.9057617
vt 0.03268433 0.9301758

g SD_Env_Wall_Half_29_2514_320
usemtl SD_Env_Wall_Half_29_2514_320
usemap SD_Env_Wall_Half_29_2514_320
f 1/1/1 3/3/3 2/2/2
f 1/1/1 4/4/4 3/3/3
f 5/5/5 7/7/7 6/6/6
f 5/5/5 8/8/8 7/7/7
f 9/9/9 11/11/11 10/10/10
f 9/9/9 12/12/12 11/11/11
f 13/13/13 15/15/15 14/14/14
f 13/13/13 16/16/16 15/15/15
f 17/17/17 19/19/19 18/18/18
f 17/17/17 20/20/20 19/19/19
