#SD_Env_Floor_Stone_Broken_02_2556_136.obj

v -4.101944 0 -4.950813
v -4.101944 0 -2.50002
v -4.950791 0 -2.50002
v -4.950791 0 -4.950813
v -4.999999 0 0
v -4.950791 0 -0.04922994
v -4.101944 0 -0.04922994
v -3.966118 0 -0.04922994
v -3.141442 0 -0.04922994
v -3.028008 0 -0.04922994
v -1.055069 0 -0.04922994
v -0.9180835 0 -0.04922994
v -0.5519488 0 -0.04922994
v -0.4171375 0 -0.04922994
v -0.04920991 0 -0.04922994
v -3.178914E-07 0 0
v -4.950791 0 -2.360438
v -4.950791 0 -2.50002
v -4.950791 0 -4.950813
v -4.999999 0 -5
v -3.178914E-07 0 -5
v -0.04920991 0 -4.950813
v -4.101944 0 -4.950813
v -3.966118 0 -4.950813
v -3.141442 0 -4.950813
v -3.028008 0 -4.950813
v -1.055069 0 -4.950813
v -0.9180835 0 -4.950813
v -0.04920991 0 -3.237854
v -0.04920991 0 -3.074242
v -0.04920991 0 -1.262283
v -0.04920991 0 -1.129623
v -1.055069 0 -4.950813
v -1.055069 0 -0.04922994
v -3.028008 0 -0.04922994
v -3.028008 0 -4.950813
v -3.141442 0 -3.921481
v -3.141442 0 -4.950813
v -3.028008 0 -4.950813
v -3.028008 0 -0.04922994
v -3.141434 0 -3.766797
v -3.141442 0 -1.519707
v -3.141442 0 -1.380313
v -3.141442 0 -0.04922994
v -3.966118 0 -1.519707
v -3.966118 0 -1.380313
v -4.101944 0 -0.04922994
v -4.101944 0 -2.360435
v -4.101944 0 -2.50002
v -3.966118 0 -3.766797
v -3.966118 0 -3.921481
v -3.966118 0 -4.950813
v -4.101944 0 -4.950813
v -3.966118 0 -0.04922994
v -4.950791 0 -2.50002
v -4.950791 0 -2.360438
v -3.966118 0 -1.380313
v -3.141442 0 -1.380313
v -3.141442 0 -0.04922994
v -3.966118 0 -0.04922994
v -1.055069 0 -0.04922994
v -1.055069 0 -4.950813
v -0.9180835 0 -4.950813
v -0.9180835 0 -3.237854
v -0.9180835 0 -3.074242
v -0.9180835 0 -1.262283
v -0.9180835 0 -1.129623
v -0.9180835 0 -0.04922994
v -0.04920991 0 -1.262283
v -0.04920991 0 -1.129623
v -0.5519488 0 -1.129623
v -0.4171375 0 -1.129623
v -0.5519488 0 -0.04922994
v -0.4171375 0 -0.04922994
v -0.04920991 0 -3.074242
v -0.04920991 0 -3.237854
v -0.5519488 0 -1.129623
v -0.5519488 0 -0.04922994
v -0.9180835 0 -0.04922994
v -0.9180835 0 -1.129623
v -3.966118 -0.1349134 -3.766797
v -3.141434 -0.1349134 -3.766797
v -3.141442 -0.1349134 -1.519707
v -3.966118 -0.1349134 -1.519707
v -3.141442 -0.1349134 -4.950813
v -3.141442 -0.1349134 -3.921481
v -3.966118 -0.1349134 -3.921481
v -3.966118 -0.1349134 -4.950813
v -4.950791 -0.1349134 -2.360438
v -4.101944 -0.1349134 -2.360435
v -4.101944 -0.1349134 -0.04922994
v -4.950791 -0.1349134 -0.04922994
v -0.04920991 0 -1.262283
v -0.9180835 0 -1.262283
v -0.9180835 0 -3.074242
v -0.04920991 0 -3.074242
v -0.04920991 0 -0.04922994
v -0.4171375 0 -0.04922994
v -0.4171375 0 -1.129623
v -0.04920991 0 -1.129623
v -0.04920991 0 -3.237854
v -0.9180835 0 -3.237854
v -0.9180835 0 -4.950813
v -0.04920991 0 -4.950813
v -3.966118 0 -3.766797
v -3.141434 0 -3.766797
v -3.141434 -0.1349134 -3.766797
v -3.966118 -0.1349134 -3.766797
v -3.141434 0 -3.766797
v -3.141442 0 -1.519707
v -3.141442 -0.1349134 -1.519707
v -3.141434 -0.1349134 -3.766797
v -3.141442 0 -1.519707
v -3.966118 0 -1.519707
v -3.966118 -0.1349134 -1.519707
v -3.141442 -0.1349134 -1.519707
v -3.966118 0 -1.519707
v -3.966118 0 -3.766797
v -3.966118 -0.1349134 -3.766797
v -3.966118 -0.1349134 -1.519707
v -3.141442 0 -4.950813
v -3.141442 0 -3.921481
v -3.141442 -0.1349134 -3.921481
v -3.141442 -0.1349134 -4.950813
v -3.141442 0 -3.921481
v -3.966118 0 -3.921481
v -3.966118 -0.1349134 -3.921481
v -3.141442 -0.1349134 -3.921481
v -3.966118 0 -3.921481
v -3.966118 0 -4.950813
v -3.966118 -0.1349134 -4.950813
v -3.966118 -0.1349134 -3.921481
v -3.966118 0 -4.950813
v -3.141442 0 -4.950813
v -3.141442 -0.1349134 -4.950813
v -3.966118 -0.1349134 -4.950813
v -4.950791 0 -2.360438
v -4.101944 0 -2.360435
v -4.101944 -0.1349134 -2.360435
v -4.950791 -0.1349134 -2.360438
v -4.101944 0 -2.360435
v -4.101944 0 -0.04922994
v -4.101944 -0.1349134 -0.04922994
v -4.101944 -0.1349134 -2.360435
v -4.101944 0 -0.04922994
v -4.950791 0 -0.04922994
v -4.950791 -0.1349134 -0.04922994
v -4.101944 -0.1349134 -0.04922994
v -4.950791 0 -0.04922994
v -4.950791 0 -2.360438
v -4.950791 -0.1349134 -2.360438
v -4.950791 -0.1349134 -0.04922994
v -3.032288 0.01122729 -3.82222
v -3.745078 -0.1944227 -4.197848
v -3.783877 -0.07186445 -4.191322
v -3.071087 0.1337856 -3.815689
v -3.071087 0.1337856 -3.815689
v -3.783877 -0.07186445 -4.191322
v -3.358035 0.111331 -5.099686
v -2.645245 0.316981 -4.724052
v -2.645245 0.316981 -4.724052
v -3.358035 0.111331 -5.099686
v -3.319236 -0.01122729 -5.106216
v -2.606446 0.194423 -4.730583
v -2.606446 0.194423 -4.730583
v -3.319236 -0.01122729 -5.106216
v -3.745078 -0.1944227 -4.197848
v -3.032288 0.01122729 -3.82222
v -3.745078 -0.1944227 -4.197848
v -3.319236 -0.01122729 -5.106216
v -3.358035 0.111331 -5.099686
v -3.783877 -0.07186445 -4.191322
v -2.606446 0.194423 -4.730583
v -3.032288 0.01122729 -3.82222
v -3.071087 0.1337856 -3.815689
v -2.645245 0.316981 -4.724052
v -4.951654 -0.02862676 0.6324539
v -5.717877 0.07341385 0.3259392
v -5.700007 0.2008667 0.3236974
v -4.93378 0.09882578 0.6302109
v -4.93378 0.09882578 0.6302109
v -5.700007 0.2008667 0.3236974
v -4.863308 0.04584758 -1.819491
v -4.097085 -0.05619335 -1.51298
v -4.097085 -0.05619335 -1.51298
v -4.863308 0.04584758 -1.819491
v -4.881178 -0.08160528 -1.817248
v -4.114951 -0.1836459 -1.510737
v -4.114951 -0.1836459 -1.510737
v -4.881178 -0.08160528 -1.817248
v -5.717877 0.07341385 0.3259392
v -4.951654 -0.02862676 0.6324539
v -5.717877 0.07341385 0.3259392
v -4.881178 -0.08160528 -1.817248
v -4.863308 0.04584758 -1.819491
v -5.700007 0.2008667 0.3236974
v -4.114951 -0.1836459 -1.510737
v -4.951654 -0.02862676 0.6324539
v -4.93378 0.09882578 0.6302109
v -4.097085 -0.05619335 -1.51298

vn 0 1 0
vn 0 1 0
vn 0 1 0
vn 0 1 0
vn 0 1 0
vn 0 1 0
vn 0 1 0
vn 0 1 0
vn 0 1 0
vn 0 1 0
vn 0 1 0
vn 0 1 0
vn 0 1 0
vn 0 1 0
vn 0 1 0
vn 0 1 0
vn 0 1 0
vn 0 1 0
vn 0 1 0
vn 0 1 0
vn 0 1 0
vn 0 1 0
vn 0 1 0
vn 0 1 0
vn 0 1 0
vn 0 1 0
vn 0 1 0
vn 0 1 0
vn 0 1 0
vn 0 1 0
vn 0 1 0
vn 0 1 0
vn 0 1 0
vn 0 1 0
vn 0 1 0
vn 0 1 0
vn 0 1 0
vn 0 1 0
vn 0 1 0
vn 0 1 0
vn 0 1 0
vn 0 1 0
vn 0 1 0
vn 0 1 0
vn 0 1 0
vn 0 1 0
vn 0 1 0
vn 0 1 0
vn 0 1 0
vn 0 1 0
vn 0 1 0
vn 0 1 0
vn 0 1 0
vn 0 1 0
vn 0 1 0
vn 0 1 0
vn 0 1 0
vn 0 1 0
vn 0 1 0
vn 0 1 0
vn 0 1 0
vn 0 1 0
vn 0 1 0
vn 0 1 0
vn 0 1 0
vn 0 1 0
vn 0 1 0
vn 0 1 0
vn 0 1 0
vn 0 1 0
vn 0 1 0
vn 0 1 0
vn 0 1 0
vn 0 1 0
vn 0 1 0
vn 0 1 0
vn 0 1 0
vn 0 1 0
vn 0 1 0
vn 0 1 0
vn 0 1 0
vn 0 1 0
vn 0 1 0
vn 0 1 0
vn 0 1 0
vn 0 1 0
vn 0 1 0
vn 0 1 0
vn 0 1 0
vn 0 1 0
vn 0 1 0
vn 0 1 0
vn 0 1 0
vn 0 1 0
vn 0 1 0
vn 0 1 0
vn 0 1 0
vn 0 1 0
vn 0 1 0
vn 0 1 0
vn 0 1 0
vn 0 1 0
vn 0 1 0
vn 0 1 0
vn 0 0 1
vn 0 0 1
vn 0 0 1
vn 0 0 1
vn -1 0 0
vn -1 0 0
vn -1 0 0
vn -1 0 0
vn 0 0 -1
vn 0 0 -1
vn 0 0 -1
vn 0 0 -1
vn 1 0 0
vn 1 0 0
vn 1 0 0
vn 1 0 0
vn -1 0 0
vn -1 0 0
vn -1 0 0
vn -1 0 0
vn 0 0 -1
vn 0 0 -1
vn 0 0 -1
vn 0 0 -1
vn 1 0 0
vn 1 0 0
vn 1 0 0
vn 1 0 0
vn 0 0 1
vn 0 0 1
vn 0 0 1
vn 0 0 1
vn 0 0 1
vn 0 0 1
vn 0 0 1
vn 0 0 1
vn -1 0 0
vn -1 0 0
vn -1 0 0
vn -1 0 0
vn 0 0 -1
vn 0 0 -1
vn 0 0 -1
vn 0 0 -1
vn 1 0 0
vn 1 0 0
vn 1 0 0
vn 1 0 0
vn -0.4175647 -0.1796417 0.8907124
vn -0.4175647 -0.1796417 0.8907124
vn -0.4175647 -0.1796417 0.8907124
vn -0.4175647 -0.1796417 0.8907124
vn -0.3014306 0.9521385 0.05071288
vn -0.3014306 0.9521385 0.05071288
vn -0.3014306 0.9521385 0.05071288
vn -0.3014306 0.9521385 0.05071288
vn 0.4175625 0.1796547 -0.8907108
vn 0.4175625 0.1796547 -0.8907108
vn 0.4175625 0.1796547 -0.8907108
vn 0.4175625 0.1796547 -0.8907108
vn 0.3014304 -0.9521387 -0.05071284
vn 0.3014304 -0.9521387 -0.05071284
vn 0.3014304 -0.9521387 -0.05071284
vn 0.3014304 -0.9521387 -0.05071284
vn -0.8571939 -0.247305 -0.4517287
vn -0.8571939 -0.247305 -0.4517287
vn -0.8571939 -0.247305 -0.4517287
vn -0.8571939 -0.247305 -0.4517287
vn 0.8571956 0.2472985 0.4517291
vn 0.8571956 0.2472985 0.4517291
vn 0.8571956 0.2472985 0.4517291
vn 0.8571956 0.2472985 0.4517291
vn -0.3628443 0.0672293 0.9294214
vn -0.3628443 0.0672293 0.9294214
vn -0.3628443 0.0672293 0.9294214
vn -0.3628443 0.0672293 0.9294214
vn 0.1388319 0.9901627 -0.01741982
vn 0.1388319 0.9901627 -0.01741982
vn 0.1388319 0.9901627 -0.01741982
vn 0.1388319 0.9901627 -0.01741982
vn 0.3628439 -0.06722531 -0.9294219
vn 0.3628439 -0.06722531 -0.9294219
vn 0.3628439 -0.06722531 -0.9294219
vn 0.3628439 -0.06722531 -0.9294219
vn -0.1388317 -0.9901627 0.01741961
vn -0.1388317 -0.9901627 0.01741961
vn -0.1388317 -0.9901627 0.01741961
vn -0.1388317 -0.9901627 0.01741961
vn -0.9214498 0.1227107 -0.3686087
vn -0.9214498 0.1227107 -0.3686087
vn -0.9214498 0.1227107 -0.3686087
vn -0.9214498 0.1227107 -0.3686087
vn 0.9214502 -0.1227081 0.3686084
vn 0.9214502 -0.1227081 0.3686084
vn 0.9214502 -0.1227081 0.3686084
vn 0.9214502 -0.1227081 0.3686084

vt 0.2976074 0.06378174
vt 0.2976074 0.06378174
vt 0.2976074 0.06378174
vt 0.2976074 0.06378174
vt 0.2685547 0.06378174
vt 0.2685547 0.06378174
vt 0.2685547 0.06378174
vt 0.2685547 0.06378174
vt 0.2685547 0.06378174
vt 0.2685547 0.06378174
vt 0.2685547 0.06378174
vt 0.2685547 0.06378174
vt 0.2685547 0.06378174
vt 0.2685547 0.06378174
vt 0.2685547 0.06378174
vt 0.2685547 0.06378174
vt 0.2685547 0.06378174
vt 0.2685547 0.06378174
vt 0.2685547 0.06378174
vt 0.2685547 0.06378174
vt 0.2685547 0.06378174
vt 0.2685547 0.06378174
vt 0.2685547 0.06378174
vt 0.2685547 0.06378174
vt 0.2685547 0.06378174
vt 0.2685547 0.06378174
vt 0.2685547 0.06378174
vt 0.2685547 0.06378174
vt 0.2685547 0.06378174
vt 0.2685547 0.06378174
vt 0.2685547 0.06378174
vt 0.2685547 0.06378174
vt 0.2976074 0.06378174
vt 0.2976074 0.06378174
vt 0.2976074 0.06378174
vt 0.2976074 0.06378174
vt 0.2658691 0.06378174
vt 0.2658691 0.06378174
vt 0.2658691 0.06378174
vt 0.2658691 0.06378174
vt 0.2658691 0.06378174
vt 0.2658691 0.06378174
vt 0.2658691 0.06378174
vt 0.2658691 0.06378174
vt 0.2658691 0.06378174
vt 0.2658691 0.06378174
vt 0.2658691 0.06378174
vt 0.2658691 0.06378174
vt 0.2658691 0.06378174
vt 0.2658691 0.06378174
vt 0.2658691 0.06378174
vt 0.2658691 0.06378174
vt 0.2658691 0.06378174
vt 0.2658691 0.06378174
vt 0.2658691 0.06378174
vt 0.2658691 0.06378174
vt 0.2976074 0.06378174
vt 0.2976074 0.06378174
vt 0.2976074 0.06378174
vt 0.2976074 0.06378174
vt 0.2658691 0.06378174
vt 0.2658691 0.06378174
vt 0.2658691 0.06378174
vt 0.2658691 0.06378174
vt 0.2658691 0.06378174
vt 0.2658691 0.06378174
vt 0.2658691 0.06378174
vt 0.2658691 0.06378174
vt 0.2658691 0.06378174
vt 0.2658691 0.06378174
vt 0.2658691 0.06378174
vt 0.2658691 0.06378174
vt 0.2658691 0.06378174
vt 0.2658691 0.06378174
vt 0.2658691 0.06378174
vt 0.2658691 0.06378174
vt 0.2976074 0.06378174
vt 0.2976074 0.06378174
vt 0.2976074 0.06378174
vt 0.2976074 0.06378174
vt 0.2668457 0.06378174
vt 0.2668457 0.06378174
vt 0.2668457 0.06378174
vt 0.2668457 0.06378174
vt 0.2668457 0.06378174
vt 0.2668457 0.06378174
vt 0.2668457 0.06378174
vt 0.2668457 0.06378174
vt 0.2668457 0.06378174
vt 0.2668457 0.06378174
vt 0.2668457 0.06378174
vt 0.2668457 0.06378174
vt 0.2976074 0.06378174
vt 0.2976074 0.06378174
vt 0.2976074 0.06378174
vt 0.2976074 0.06378174
vt 0.2976074 0.06378174
vt 0.2976074 0.06378174
vt 0.2976074 0.06378174
vt 0.2976074 0.06378174
vt 0.2976074 0.06378174
vt 0.2976074 0.06378174
vt 0.2976074 0.06378174
vt 0.2976074 0.06378174
vt 0.2130127 0.06378174
vt 0.2130127 0.06378174
vt 0.2130127 0.06378174
vt 0.2130127 0.06378174
vt 0.2130127 0.06378174
vt 0.2130127 0.06378174
vt 0.2130127 0.06378174
vt 0.2130127 0.06378174
vt 0.2130127 0.06378174
vt 0.2130127 0.06378174
vt 0.2130127 0.06378174
vt 0.2130127 0.06378174
vt 0.2130127 0.06378174
vt 0.2130127 0.06378174
vt 0.2130127 0.06378174
vt 0.2130127 0.06378174
vt 0.2130127 0.06378174
vt 0.2130127 0.06378174
vt 0.2130127 0.06378174
vt 0.2130127 0.06378174
vt 0.2130127 0.06378174
vt 0.2130127 0.06378174
vt 0.2130127 0.06378174
vt 0.2130127 0.06378174
vt 0.2130127 0.06378174
vt 0.2130127 0.06378174
vt 0.2130127 0.06378174
vt 0.2130127 0.06378174
vt 0.2130127 0.06378174
vt 0.2130127 0.06378174
vt 0.2130127 0.06378174
vt 0.2130127 0.06378174
vt 0.2130127 0.06378174
vt 0.2130127 0.06378174
vt 0.2130127 0.06378174
vt 0.2130127 0.06378174
vt 0.2130127 0.06378174
vt 0.2130127 0.06378174
vt 0.2130127 0.06378174
vt 0.2130127 0.06378174
vt 0.2130127 0.06378174
vt 0.2130127 0.06378174
vt 0.2130127 0.06378174
vt 0.2130127 0.06378174
vt 0.2130127 0.06378174
vt 0.2130127 0.06378174
vt 0.2130127 0.06378174
vt 0.2130127 0.06378174
vt 0.2612305 0.06378174
vt 0.2612305 0.06378174
vt 0.2612305 0.06378174
vt 0.2612305 0.06378174
vt 0.3269043 0.06378174
vt 0.3269043 0.06378174
vt 0.3269043 0.06378174
vt 0.3269043 0.06378174
vt 0.2612305 0.06378174
vt 0.2612305 0.06378174
vt 0.2612305 0.06378174
vt 0.2612305 0.06378174
vt 0.1977539 0.06378174
vt 0.1977539 0.06378174
vt 0.1977539 0.06378174
vt 0.1977539 0.06378174
vt 0.2313232 0.06378174
vt 0.2313232 0.06378174
vt 0.2313232 0.06378174
vt 0.2313232 0.06378174
vt 0.2313232 0.06378174
vt 0.2313232 0.06378174
vt 0.2313232 0.06378174
vt 0.2313232 0.06378174
vt 0.2612305 0.06378174
vt 0.2612305 0.06378174
vt 0.2612305 0.06378174
vt 0.2612305 0.06378174
vt 0.3269043 0.06378174
vt 0.3269043 0.06378174
vt 0.3269043 0.06378174
vt 0.3269043 0.06378174
vt 0.2612305 0.06378174
vt 0.2612305 0.06378174
vt 0.2612305 0.06378174
vt 0.2612305 0.06378174
vt 0.1977539 0.06378174
vt 0.1977539 0.06378174
vt 0.1977539 0.06378174
vt 0.1977539 0.06378174
vt 0.2313232 0.06378174
vt 0.2313232 0.06378174
vt 0.2313232 0.06378174
vt 0.2313232 0.06378174
vt 0.2313232 0.06378174
vt 0.2313232 0.06378174
vt 0.2313232 0.06378174
vt 0.2313232 0.06378174

g SD_Env_Floor_Stone_Broken_02_2556_136
usemtl SD_Env_Floor_Stone_Broken_02_2556_136
usemap SD_Env_Floor_Stone_Broken_02_2556_136
f 1/1/1 3/3/3 2/2/2
f 1/1/1 4/4/4 3/3/3
f 5/5/5 7/7/7 6/6/6
f 7/7/7 5/5/5 8/8/8
f 8/8/8 5/5/5 9/9/9
f 9/9/9 5/5/5 10/10/10
f 10/10/10 5/5/5 11/11/11
f 11/11/11 5/5/5 12/12/12
f 12/12/12 5/5/5 13/13/13
f 13/13/13 5/5/5 14/14/14
f 14/14/14 5/5/5 15/15/15
f 15/15/15 5/5/5 16/16/16
f 17/17/17 5/5/5 6/6/6
f 18/18/18 5/5/5 17/17/17
f 19/19/19 5/5/5 18/18/18
f 5/5/5 19/19/19 20/20/20
f 19/19/19 21/21/21 20/20/20
f 21/21/21 19/19/19 22/22/22
f 22/22/22 16/16/16 21/21/21
f 22/22/22 19/19/19 23/23/23
f 22/22/22 23/23/23 24/24/24
f 22/22/22 24/24/24 25/25/25
f 22/22/22 25/25/25 26/26/26
f 22/22/22 26/26/26 27/27/27
f 22/22/22 27/27/27 28/28/28
f 16/16/16 22/22/22 29/29/29
f 16/16/16 29/29/29 30/30/30
f 16/16/16 30/30/30 31/31/31
f 16/16/16 31/31/31 32/32/32
f 16/16/16 32/32/32 15/15/15
f 33/33/33 35/35/35 34/34/34
f 33/33/33 36/36/36 35/35/35
f 37/37/37 39/39/39 38/38/38
f 39/39/39 37/37/37 40/40/40
f 40/40/40 37/37/37 41/41/41
f 40/40/40 41/41/41 42/42/42
f 40/40/40 42/42/42 43/43/43
f 40/40/40 43/43/43 44/44/44
f 45/45/45 43/43/43 42/42/42
f 45/45/45 46/46/46 43/43/43
f 45/45/45 47/47/47 46/46/46
f 45/45/45 48/48/48 47/47/47
f 45/45/45 49/49/49 48/48/48
f 50/50/50 49/49/49 45/45/45
f 51/51/51 49/49/49 50/50/50
f 51/51/51 41/41/41 37/37/37
f 51/51/51 50/50/50 41/41/41
f 52/52/52 49/49/49 51/51/51
f 49/49/49 52/52/52 53/53/53
f 46/46/46 47/47/47 54/54/54
f 55/55/55 48/48/48 49/49/49
f 55/55/55 56/56/56 48/48/48
f 57/57/57 59/59/59 58/58/58
f 57/57/57 60/60/60 59/59/59
f 61/61/61 63/63/63 62/62/62
f 63/63/63 61/61/61 64/64/64
f 64/64/64 61/61/61 65/65/65
f 65/65/65 61/61/61 66/66/66
f 66/66/66 61/61/61 67/67/67
f 67/67/67 61/61/61 68/68/68
f 67/67/67 69/69/69 66/66/66
f 69/69/69 67/67/67 70/70/70
f 70/70/70 67/67/67 71/71/71
f 70/70/70 71/71/71 72/72/72
f 72/72/72 71/71/71 73/73/73
f 72/72/72 73/73/73 74/74/74
f 75/75/75 64/64/64 65/65/65
f 75/75/75 76/76/76 64/64/64
f 77/77/77 79/79/79 78/78/78
f 77/77/77 80/80/80 79/79/79
f 81/81/81 83/83/83 82/82/82
f 81/81/81 84/84/84 83/83/83
f 85/85/85 87/87/87 86/86/86
f 85/85/85 88/88/88 87/87/87
f 89/89/89 91/91/91 90/90/90
f 89/89/89 92/92/92 91/91/91
f 93/93/93 95/95/95 94/94/94
f 93/93/93 96/96/96 95/95/95
f 97/97/97 99/99/99 98/98/98
f 97/97/97 100/100/100 99/99/99
f 101/101/101 103/103/103 102/102/102
f 101/101/101 104/104/104 103/103/103
f 105/105/105 107/107/107 106/106/106
f 105/105/105 108/108/108 107/107/107
f 109/109/109 111/111/111 110/110/110
f 109/109/109 112/112/112 111/111/111
f 113/113/113 115/115/115 114/114/114
f 113/113/113 116/116/116 115/115/115
f 117/117/117 119/119/119 118/118/118
f 117/117/117 120/120/120 119/119/119
f 121/121/121 123/123/123 122/122/122
f 121/121/121 124/124/124 123/123/123
f 125/125/125 127/127/127 126/126/126
f 125/125/125 128/128/128 127/127/127
f 129/129/129 131/131/131 130/130/130
f 129/129/129 132/132/132 131/131/131
f 133/133/133 135/135/135 134/134/134
f 133/133/133 136/136/136 135/135/135
f 137/137/137 139/139/139 138/138/138
f 137/137/137 140/140/140 139/139/139
f 141/141/141 143/143/143 142/142/142
f 141/141/141 144/144/144 143/143/143
f 145/145/145 147/147/147 146/146/146
f 145/145/145 148/148/148 147/147/147
f 149/149/149 151/151/151 150/150/150
f 149/149/149 152/152/152 151/151/151
f 153/153/153 155/155/155 154/154/154
f 153/153/153 156/156/156 155/155/155
f 157/157/157 159/159/159 158/158/158
f 157/157/157 160/160/160 159/159/159
f 161/161/161 163/163/163 162/162/162
f 161/161/161 164/164/164 163/163/163
f 165/165/165 167/167/167 166/166/166
f 165/165/165 168/168/168 167/167/167
f 169/169/169 171/171/171 170/170/170
f 169/169/169 172/172/172 171/171/171
f 173/173/173 175/175/175 174/174/174
f 173/173/173 176/176/176 175/175/175
f 177/177/177 179/179/179 178/178/178
f 177/177/177 180/180/180 179/179/179
f 181/181/181 183/183/183 182/182/182
f 181/181/181 184/184/184 183/183/183
f 185/185/185 187/187/187 186/186/186
f 185/185/185 188/188/188 187/187/187
f 189/189/189 191/191/191 190/190/190
f 189/189/189 192/192/192 191/191/191
f 193/193/193 195/195/195 194/194/194
f 193/193/193 196/196/196 195/195/195
f 197/197/197 199/199/199 198/198/198
f 197/197/197 200/200/200 199/199/199
