#SD_Env_Floor_Stone_08_2652_282.obj

v -5.000003 -6.123036E-16 -2.185568E-07
v -5.000004 -1.841835E-21 -5
v 1.986697E-08 6.123019E-16 -5
v 0 0 0
v 0 0 0
v -2.500004 -3.061521E-16 2.086085E-07
v -5.000003 -6.123036E-16 -2.185568E-07

vn 0 1 0
vn 0 1 0
vn 0 1 0
vn 0 1 0
vn 0 1 0
vn 0 1 0
vn 0 1 0

vt 0.004470825 0.8398438
vt 0.004470825 0.9956055
vt 0.1600342 0.9956055
vt 0.1600342 0.8398438
vt 0.1600342 0.8398438
vt 0.08227539 0.8398438
vt 0.004470825 0.8398438

g SD_Env_Floor_Stone_08_2652_282
usemtl SD_Env_Floor_Stone_08_2652_282
usemap SD_Env_Floor_Stone_08_2652_282
f 1/1/1 3/3/3 2/2/2
f 3/3/3 1/1/1 4/4/4
f 5/5/5 7/7/7 6/6/6
