#SD_Env_Wall_108_2406_226.obj

v 4.541866E-07 5 -1.665514E-06
v 5 5 -1.775403E-06
v 5 4.026817 -1.775403E-06
v 4.541866E-07 4.026817 -1.665514E-06
v 5 4.026817 -1.775403E-06
v 5 4.026817 -0.2719573
v -3.154373E-07 4.026817 -0.2719572
v 4.541866E-07 4.026817 -1.665514E-06
v 5 0.9558563 -1.775403E-06
v 5 -3.178914E-07 -1.775403E-06
v 4.541866E-07 -3.178914E-07 -1.665514E-06
v 4.541866E-07 0.9558563 -1.665514E-06
v 5 0.9558563 -0.2719573
v 5 0.9558563 -1.775403E-06
v 4.541866E-07 0.9558563 -1.665514E-06
v -3.154373E-07 0.9558563 -0.2719572
v 5 4.026817 -0.2719573
v 5 0.9558563 -0.2719573
v -3.154373E-07 0.9558563 -0.2719572
v -3.154373E-07 4.026817 -0.2719572

vn -1 0 1.591444E-05
vn -1 0 1.591444E-05
vn -1 0 1.591444E-05
vn -1 0 1.591444E-05
vn 0 -1 0
vn 0 -1 0
vn 0 -1 0
vn 0 -1 0
vn -1 0 1.591444E-05
vn -1 0 1.591444E-05
vn -1 0 1.591444E-05
vn -1 0 1.591444E-05
vn 0 1 0
vn 0 1 0
vn 0 1 0
vn 0 1 0
vn -1 0 1.591444E-05
vn -1 0 1.591444E-05
vn -1 0 1.591444E-05
vn -1 0 1.591444E-05

vt 0.004470825 0.6821289
vt 0.004470825 0.8378906
vt 0.03475952 0.8378906
vt 0.03475952 0.6821289
vt 0.03475952 0.8378906
vt 0.03530884 0.8378906
vt 0.03530884 0.6821289
vt 0.03475952 0.6821289
vt 0.1303711 0.8378906
vt 0.1600342 0.8378906
vt 0.1600342 0.6821289
vt 0.1303711 0.6821289
vt 0.1298828 0.8378906
vt 0.1303711 0.8378906
vt 0.1303711 0.6821289
vt 0.1298828 0.6821289
vt 0.1317139 0.9316406
vt 0.1317139 0.9023438
vt 0.03314209 0.9023438
vt 0.03314209 0.9316406

g SD_Env_Wall_108_2406_226
usemtl SD_Env_Wall_108_2406_226
usemap SD_Env_Wall_108_2406_226
f 1/1/1 3/3/3 2/2/2
f 1/1/1 4/4/4 3/3/3
f 5/5/5 7/7/7 6/6/6
f 5/5/5 8/8/8 7/7/7
f 9/9/9 11/11/11 10/10/10
f 9/9/9 12/12/12 11/11/11
f 13/13/13 15/15/15 14/14/14
f 13/13/13 16/16/16 15/15/15
f 17/17/17 19/19/19 18/18/18
f 17/17/17 20/20/20 19/19/19
