#SD_Env_Wall_78_2374_221.obj

v 5.185401E-12 5 -1.11262E-06
v 5 5 -6.981441E-07
v 5 4.026817 -6.981441E-07
v 5.185401E-12 4.026817 -1.11262E-06
v 5 4.026817 -6.981441E-07
v 5.000001 4.026817 -0.2719568
v 1.267465E-06 4.026817 -0.2719572
v 5.185401E-12 4.026817 -1.11262E-06
v 5 0.9558561 -6.981441E-07
v 5 -2.384186E-07 -6.981441E-07
v 5.185401E-12 -2.384186E-07 -1.11262E-06
v 5.185401E-12 0.9558561 -1.11262E-06
v 5.000001 0.9558561 -0.2719568
v 5 0.9558561 -6.981441E-07
v 5.185401E-12 0.9558561 -1.11262E-06
v 1.267465E-06 0.9558561 -0.2719572
v 5.000001 4.026817 -0.2719568
v 5.000001 0.9558561 -0.2719568
v 1.267465E-06 0.9558561 -0.2719572
v 1.267465E-06 4.026817 -0.2719572

vn -1 0 4.589557E-06
vn -1 0 4.589557E-06
vn -1 0 4.589557E-06
vn -1 0 4.589557E-06
vn 0 -0.9999999 0
vn 0 -0.9999999 0
vn 0 -0.9999999 0
vn 0 -0.9999999 0
vn -1 0 4.589557E-06
vn -1 0 4.589557E-06
vn -1 0 4.589557E-06
vn -1 0 4.589557E-06
vn 0 0.9999999 0
vn 0 0.9999999 0
vn 0 0.9999999 0
vn 0 0.9999999 0
vn -1 0 4.589557E-06
vn -1 0 4.589557E-06
vn -1 0 4.589557E-06
vn -1 0 4.589557E-06

vt 0.004470825 0.6821289
vt 0.004470825 0.8378906
vt 0.03475952 0.8378906
vt 0.03475952 0.6821289
vt 0.03475952 0.8378906
vt 0.03530884 0.8378906
vt 0.03530884 0.6821289
vt 0.03475952 0.6821289
vt 0.1303711 0.8378906
vt 0.1600342 0.8378906
vt 0.1600342 0.6821289
vt 0.1303711 0.6821289
vt 0.1298828 0.8378906
vt 0.1303711 0.8378906
vt 0.1303711 0.6821289
vt 0.1298828 0.6821289
vt 0.1317139 0.9316406
vt 0.1317139 0.9023438
vt 0.03314209 0.9023438
vt 0.03314209 0.9316406

g SD_Env_Wall_78_2374_221
usemtl SD_Env_Wall_78_2374_221
usemap SD_Env_Wall_78_2374_221
f 1/1/1 3/3/3 2/2/2
f 1/1/1 4/4/4 3/3/3
f 5/5/5 7/7/7 6/6/6
f 5/5/5 8/8/8 7/7/7
f 9/9/9 11/11/11 10/10/10
f 9/9/9 12/12/12 11/11/11
f 13/13/13 15/15/15 14/14/14
f 13/13/13 16/16/16 15/15/15
f 17/17/17 19/19/19 18/18/18
f 17/17/17 20/20/20 19/19/19
