#SD_Env_Floor_Stone_37_2317_169.obj

v -5.000004 -6.123034E-16 -1.974098E-06
v -5.000005 -1.704902E-21 -5.000002
v 2.169749E-07 6.123021E-16 -5.000002
v 1.360014E-06 3.925563E-22 -1.845562E-06
v 1.360014E-06 3.925563E-22 -1.845562E-06
v -2.500004 -3.061519E-16 -1.274052E-06
v -5.000004 -6.123034E-16 -1.974098E-06

vn 0 1 0
vn 0 1 0
vn 0 1 0
vn 0 1 0
vn 0 1 0
vn 0 1 0
vn 0 1 0

vt 0.004470825 0.8398438
vt 0.004470825 0.9956055
vt 0.1600342 0.9956055
vt 0.1600342 0.8398438
vt 0.1600342 0.8398438
vt 0.08227539 0.8398438
vt 0.004470825 0.8398438

g SD_Env_Floor_Stone_37_2317_169
usemtl SD_Env_Floor_Stone_37_2317_169
usemap SD_Env_Floor_Stone_37_2317_169
f 1/1/1 3/3/3 2/2/2
f 3/3/3 1/1/1 4/4/4
f 5/5/5 7/7/7 6/6/6
