#SD_Env_Floor_Stone_38_2916_185.obj

v -4.999999 -6.123035E-16 4.018023E-06
v -5 -1.815834E-21 -4.999996
v 5.303226E-06 6.12302E-16 -4.999996
v 6.446265E-06 2.816245E-22 4.14656E-06
v 6.446265E-06 2.816245E-22 4.14656E-06
v -2.499999 -3.06152E-16 4.71807E-06
v -4.999999 -6.123035E-16 4.018023E-06

vn 0 1 0
vn 0 1 0
vn 0 1 0
vn 0 1 0
vn 0 1 0
vn 0 1 0
vn 0 1 0

vt 0.004470825 0.8398438
vt 0.004470825 0.9956055
vt 0.1600342 0.9956055
vt 0.1600342 0.8398438
vt 0.1600342 0.8398438
vt 0.08227539 0.8398438
vt 0.004470825 0.8398438

g SD_Env_Floor_Stone_38_2916_185
usemtl SD_Env_Floor_Stone_38_2916_185
usemap SD_Env_Floor_Stone_38_2916_185
f 1/1/1 3/3/3 2/2/2
f 3/3/3 1/1/1 4/4/4
f 5/5/5 7/7/7 6/6/6
