#SD_Env_Wall_131_2323_480.obj

v 7.489962E-06 7.656522E-22 1.237737E-06
v 7.489962E-06 0.9558582 1.237737E-06
v 5.000008 0.9558582 1.841049E-07
v 5.000008 6.123041E-16 1.841049E-07
v 7.489962E-06 4.026814 1.237737E-06
v 7.489962E-06 5 1.237737E-06
v 5.000008 5 1.841049E-07
v 5.000008 4.026814 1.841049E-07
v 7.489962E-06 0.9558582 1.237737E-06
v 8.815888E-06 0.9558582 -0.2719536
v 5.000009 0.9558582 -0.2719547
v 5.000008 0.9558582 1.841049E-07
v 8.815888E-06 4.026815 -0.2719536
v 7.489962E-06 4.026814 1.237737E-06
v 5.000008 4.026814 1.841049E-07
v 5.000009 4.026813 -0.2719547
v 8.815888E-06 0.9558582 -0.2719536
v 8.815888E-06 4.026815 -0.2719536
v 5.000009 4.026813 -0.2719547
v 5.000009 0.9558582 -0.2719547

vn -1 0 4.917383E-06
vn -1 0 4.917383E-06
vn -1 0 4.917383E-06
vn -1 0 4.917383E-06
vn -1 0 4.917383E-06
vn -1 0 4.917383E-06
vn -1 0 4.917383E-06
vn -1 0 4.917383E-06
vn 0 1 0
vn 0 1 0
vn 0 1 0
vn 0 1 0
vn 0 -1 0
vn 0 -1 0
vn 0 -1 0
vn 0 -1 0
vn -1 0 4.917383E-06
vn -1 0 4.917383E-06
vn -1 0 4.917383E-06
vn -1 0 4.917383E-06

vt 0.004470825 0.8398438
vt 0.004470825 0.8681641
vt 0.1600342 0.8681641
vt 0.1600342 0.8398438
vt 0.004470825 0.9672852
vt 0.004470825 0.9956055
vt 0.1600342 0.9956055
vt 0.1600342 0.9672852
vt 0.004470825 0.8681641
vt 0.004470825 0.8686523
vt 0.1600342 0.8686523
vt 0.1600342 0.8681641
vt 0.004470825 0.9667969
vt 0.004470825 0.9672852
vt 0.1600342 0.9672852
vt 0.1600342 0.9667969
vt 0.03317261 0.8828125
vt 0.03317261 0.9448242
vt 0.1317139 0.9448242
vt 0.1317139 0.8828125

g SD_Env_Wall_131_2323_480
usemtl SD_Env_Wall_131_2323_480
usemap SD_Env_Wall_131_2323_480
f 1/1/1 3/3/3 2/2/2
f 1/1/1 4/4/4 3/3/3
f 5/5/5 7/7/7 6/6/6
f 5/5/5 8/8/8 7/7/7
f 9/9/9 11/11/11 10/10/10
f 9/9/9 12/12/12 11/11/11
f 13/13/13 15/15/15 14/14/14
f 13/13/13 16/16/16 15/15/15
f 17/17/17 19/19/19 18/18/18
f 17/17/17 20/20/20 19/19/19
