#SD_Env_Floor_Stone_88_2314_167.obj

v -5.000002 -8.306383E-21 -4.082016E-08
v -5.000003 1.224598E-15 -5
v -7.539495E-07 1.224606E-15 -5
v -6.47646E-12 -1.167876E-22 4.768372E-07
v -6.47646E-12 -1.167876E-22 4.768372E-07
v -2.500003 -4.3673E-21 8.537741E-07
v -5.000002 -8.306383E-21 -4.082016E-08

vn 0 1 0
vn 0 1 0
vn 0 1 0
vn 0 1 0
vn 0 1 0
vn 0 1 0
vn 0 1 0

vt 0.004470825 0.8398438
vt 0.004470825 0.9956055
vt 0.1600342 0.9956055
vt 0.1600342 0.8398438
vt 0.1600342 0.8398438
vt 0.08227539 0.8398438
vt 0.004470825 0.8398438

g SD_Env_Floor_Stone_88_2314_167
usemtl SD_Env_Floor_Stone_88_2314_167
usemap SD_Env_Floor_Stone_88_2314_167
f 1/1/1 3/3/3 2/2/2
f 3/3/3 1/1/1 4/4/4
f 5/5/5 7/7/7 6/6/6
