#SD_Env_Wall_Half_14_2900_45.obj

v -2.32921E-06 2.5 3.357388E-06
v 4.999999 2.5 1.305625E-06
v 4.999999 2.013409 1.305625E-06
v -2.32921E-06 2.013409 3.357388E-06
v 4.999999 2.013409 1.305625E-06
v 4.999999 2.013409 -0.271951
v -7.27625E-07 2.013409 -0.271954
v -2.32921E-06 2.013409 3.357388E-06
v 4.999999 0.4779282 1.305625E-06
v 4.999999 -1.875261E-21 1.305625E-06
v -2.32921E-06 8.735775E-28 3.357388E-06
v -2.32921E-06 0.4779282 3.357388E-06
v 4.999999 0.4779282 -0.271951
v 4.999999 0.4779282 1.305625E-06
v -2.32921E-06 0.4779282 3.357388E-06
v -7.27625E-07 0.4779282 -0.271954
v 4.999999 2.013409 -0.271951
v 4.999999 0.4779282 -0.271951
v -7.27625E-07 0.4779282 -0.271954
v -7.27625E-07 2.013409 -0.271954

vn -3.33786E-06 0 1
vn -3.33786E-06 0 1
vn -3.33786E-06 0 1
vn -3.33786E-06 0 1
vn 0 -1 0
vn 0 -1 0
vn 0 -1 0
vn 0 -1 0
vn -3.33786E-06 0 1
vn -3.33786E-06 0 1
vn -3.33786E-06 0 1
vn -3.33786E-06 0 1
vn 0 1 0
vn 0 1 0
vn 0 1 0
vn 0 1 0
vn -3.33786E-06 0 1
vn -3.33786E-06 0 1
vn -3.33786E-06 0 1
vn -3.33786E-06 0 1

vt 0.004470825 0.6821289
vt 0.004470825 0.8378906
vt 0.03475952 0.8378906
vt 0.03475952 0.6821289
vt 0.03475952 0.8378906
vt 0.03530884 0.8378906
vt 0.03530884 0.6821289
vt 0.03475952 0.6821289
vt 0.1303711 0.8378906
vt 0.1600342 0.8378906
vt 0.1600342 0.6821289
vt 0.1303711 0.6821289
vt 0.1298828 0.8378906
vt 0.1303711 0.8378906
vt 0.1303711 0.6821289
vt 0.1298828 0.6821289
vt 0.1322021 0.9301758
vt 0.1322021 0.9057617
vt 0.03268433 0.9057617
vt 0.03268433 0.9301758

g SD_Env_Wall_Half_14_2900_45
usemtl SD_Env_Wall_Half_14_2900_45
usemap SD_Env_Wall_Half_14_2900_45
f 1/1/1 3/3/3 2/2/2
f 1/1/1 4/4/4 3/3/3
f 5/5/5 7/7/7 6/6/6
f 5/5/5 8/8/8 7/7/7
f 9/9/9 11/11/11 10/10/10
f 9/9/9 12/12/12 11/11/11
f 13/13/13 15/15/15 14/14/14
f 13/13/13 16/16/16 15/15/15
f 17/17/17 19/19/19 18/18/18
f 17/17/17 20/20/20 19/19/19
