#SD_Env_Wall_138_2397_349.obj

v 7.596529E-07 0 6.398448E-06
v 7.596529E-07 0.9558582 6.398448E-06
v 5.000001 0.9558582 4.455465E-06
v 5.000001 0 4.455465E-06
v 7.596529E-07 4.026814 6.398448E-06
v 7.596529E-07 5 6.398448E-06
v 5.000001 5 4.455465E-06
v 5.000001 4.026814 4.455465E-06
v 7.596529E-07 0.9558582 6.398448E-06
v 1.483919E-06 0.9558582 -0.271951
v 5.000001 0.9558582 -0.2719479
v 5.000001 0.9558582 4.455465E-06
v 1.483919E-06 4.026815 -0.271951
v 7.596529E-07 4.026814 6.398448E-06
v 5.000001 4.026814 4.455465E-06
v 5.000001 4.026813 -0.2719479
v 1.483919E-06 0.9558582 -0.271951
v 1.483919E-06 4.026815 -0.271951
v 5.000001 4.026813 -0.2719479
v 5.000001 0.9558582 -0.2719479

vn 2.682209E-06 0 1
vn 2.682209E-06 0 1
vn 2.682209E-06 0 1
vn 2.682209E-06 0 1
vn 2.682209E-06 0 1
vn 2.682209E-06 0 1
vn 2.682209E-06 0 1
vn 2.682209E-06 0 1
vn 0 1 0
vn 0 1 0
vn 0 1 0
vn 0 1 0
vn 0 -1 0
vn 0 -1 0
vn 0 -1 0
vn 0 -1 0
vn 2.682209E-06 0 1
vn 2.682209E-06 0 1
vn 2.682209E-06 0 1
vn 2.682209E-06 0 1

vt 0.004470825 0.8398438
vt 0.004470825 0.8681641
vt 0.1600342 0.8681641
vt 0.1600342 0.8398438
vt 0.004470825 0.9672852
vt 0.004470825 0.9956055
vt 0.1600342 0.9956055
vt 0.1600342 0.9672852
vt 0.004470825 0.8681641
vt 0.004470825 0.8686523
vt 0.1600342 0.8686523
vt 0.1600342 0.8681641
vt 0.004470825 0.9667969
vt 0.004470825 0.9672852
vt 0.1600342 0.9672852
vt 0.1600342 0.9667969
vt 0.03317261 0.8828125
vt 0.03317261 0.9448242
vt 0.1317139 0.9448242
vt 0.1317139 0.8828125

g SD_Env_Wall_138_2397_349
usemtl SD_Env_Wall_138_2397_349
usemap SD_Env_Wall_138_2397_349
f 1/1/1 3/3/3 2/2/2
f 1/1/1 4/4/4 3/3/3
f 5/5/5 7/7/7 6/6/6
f 5/5/5 8/8/8 7/7/7
f 9/9/9 11/11/11 10/10/10
f 9/9/9 12/12/12 11/11/11
f 13/13/13 15/15/15 14/14/14
f 13/13/13 16/16/16 15/15/15
f 17/17/17 19/19/19 18/18/18
f 17/17/17 20/20/20 19/19/19
