#SD_Env_Wall_107_2992_122.obj

v 2.543134E-06 -2.384186E-07 -4.768253E-07
v 2.543134E-06 0.955858 -4.768253E-07
v 5.000002 0.955858 -6.234936E-08
v 5.000002 -2.384186E-07 -6.234936E-08
v 2.543134E-06 4.026814 -4.768253E-07
v 2.543134E-06 5 -4.768253E-07
v 5.000002 5 -6.234936E-08
v 5.000002 4.026814 -6.234936E-08
v 2.543134E-06 0.955858 -4.768253E-07
v 3.810591E-06 0.955858 -0.271956
v 5.000004 0.955858 -0.2719555
v 5.000002 0.955858 -6.234936E-08
v 3.810591E-06 4.026814 -0.271956
v 2.543134E-06 4.026814 -4.768253E-07
v 5.000002 4.026814 -6.234936E-08
v 5.000004 4.026813 -0.2719555
v 3.810591E-06 0.955858 -0.271956
v 3.810591E-06 4.026814 -0.271956
v 5.000004 4.026813 -0.2719555
v 5.000004 0.955858 -0.2719555

vn -1 0 4.589557E-06
vn -1 0 4.589557E-06
vn -1 0 4.589557E-06
vn -1 0 4.589557E-06
vn -1 0 4.589557E-06
vn -1 0 4.589557E-06
vn -1 0 4.589557E-06
vn -1 0 4.589557E-06
vn 0 0.9999999 0
vn 0 0.9999999 0
vn 0 0.9999999 0
vn 0 0.9999999 0
vn 0 -0.9999999 0
vn 0 -0.9999999 0
vn 0 -0.9999999 0
vn 0 -0.9999999 0
vn -1 0 4.589557E-06
vn -1 0 4.589557E-06
vn -1 0 4.589557E-06
vn -1 0 4.589557E-06

vt 0.004470825 0.8398438
vt 0.004470825 0.8681641
vt 0.1600342 0.8681641
vt 0.1600342 0.8398438
vt 0.004470825 0.9672852
vt 0.004470825 0.9956055
vt 0.1600342 0.9956055
vt 0.1600342 0.9672852
vt 0.004470825 0.8681641
vt 0.004470825 0.8686523
vt 0.1600342 0.8686523
vt 0.1600342 0.8681641
vt 0.004470825 0.9667969
vt 0.004470825 0.9672852
vt 0.1600342 0.9672852
vt 0.1600342 0.9667969
vt 0.03317261 0.8828125
vt 0.03317261 0.9448242
vt 0.1317139 0.9448242
vt 0.1317139 0.8828125

g SD_Env_Wall_107_2992_122
usemtl SD_Env_Wall_107_2992_122
usemap SD_Env_Wall_107_2992_122
f 1/1/1 3/3/3 2/2/2
f 1/1/1 4/4/4 3/3/3
f 5/5/5 7/7/7 6/6/6
f 5/5/5 8/8/8 7/7/7
f 9/9/9 11/11/11 10/10/10
f 9/9/9 12/12/12 11/11/11
f 13/13/13 15/15/15 14/14/14
f 13/13/13 16/16/16 15/15/15
f 17/17/17 19/19/19 18/18/18
f 17/17/17 20/20/20 19/19/19
