#SD_Env_Wall_30_2485_18.obj

v -4.23298E-14 5 -3.178914E-07
v 5 5 -2.89103E-06
v 5 4.026817 -2.89103E-06
v -4.23298E-14 4.026817 -3.178914E-07
v 5 4.026817 -2.89103E-06
v 5 4.026817 -0.2719584
v -3.621311E-08 4.026817 -0.2719558
v -4.23298E-14 4.026817 -3.178914E-07
v 5 0.9558561 -2.89103E-06
v 5 -5.5631E-07 -2.89103E-06
v -4.23298E-14 -5.5631E-07 -3.178914E-07
v -4.23298E-14 0.9558561 -3.178914E-07
v 5 0.9558561 -0.2719584
v 5 0.9558561 -2.89103E-06
v -4.23298E-14 0.9558561 -3.178914E-07
v -3.621311E-08 0.9558561 -0.2719558
v 5 4.026817 -0.2719584
v 5 0.9558561 -0.2719584
v -3.621311E-08 0.9558561 -0.2719558
v -3.621311E-08 4.026817 -0.2719558

vn 1 0 -3.576278E-07
vn 1 0 -3.576278E-07
vn 1 0 -3.576278E-07
vn 1 0 -3.576278E-07
vn 0 -0.9999999 0
vn 0 -0.9999999 0
vn 0 -0.9999999 0
vn 0 -0.9999999 0
vn 1 0 -3.576278E-07
vn 1 0 -3.576278E-07
vn 1 0 -3.576278E-07
vn 1 0 -3.576278E-07
vn 0 0.9999999 0
vn 0 0.9999999 0
vn 0 0.9999999 0
vn 0 0.9999999 0
vn 1 0 -3.576278E-07
vn 1 0 -3.576278E-07
vn 1 0 -3.576278E-07
vn 1 0 -3.576278E-07

vt 0.004470825 0.6821289
vt 0.004470825 0.8378906
vt 0.03475952 0.8378906
vt 0.03475952 0.6821289
vt 0.03475952 0.8378906
vt 0.03530884 0.8378906
vt 0.03530884 0.6821289
vt 0.03475952 0.6821289
vt 0.1303711 0.8378906
vt 0.1600342 0.8378906
vt 0.1600342 0.6821289
vt 0.1303711 0.6821289
vt 0.1298828 0.8378906
vt 0.1303711 0.8378906
vt 0.1303711 0.6821289
vt 0.1298828 0.6821289
vt 0.1317139 0.9316406
vt 0.1317139 0.9023438
vt 0.03314209 0.9023438
vt 0.03314209 0.9316406

g SD_Env_Wall_30_2485_18
usemtl SD_Env_Wall_30_2485_18
usemap SD_Env_Wall_30_2485_18
f 1/1/1 3/3/3 2/2/2
f 1/1/1 4/4/4 3/3/3
f 5/5/5 7/7/7 6/6/6
f 5/5/5 8/8/8 7/7/7
f 9/9/9 11/11/11 10/10/10
f 9/9/9 12/12/12 11/11/11
f 13/13/13 15/15/15 14/14/14
f 13/13/13 16/16/16 15/15/15
f 17/17/17 19/19/19 18/18/18
f 17/17/17 20/20/20 19/19/19
