#SD_Env_Goblin_Tunnel_01_2551_129.obj

v -1.112784 0.03064386 -4.780861
v -1.186632 0.2759213 -4.592735
v -1.656814 0.2759213 -4.419289
v -1.657243 0.03064386 -4.580009
v -1.186632 0.2759213 -4.592735
v -1.023775 0.3986668 -3.945887
v -1.437799 0.3986668 -3.793154
v -1.656814 0.2759213 -4.419289
v -1.023775 0.3986668 -3.945887
v -0.8454452 0.1533894 -3.850789
v -1.419094 0.1533894 -3.639173
v -1.437799 0.3986668 -3.793154
v -0.8454452 0.1533894 -3.850789
v -1.023775 0.3986668 -3.945887
v -1.186632 0.2759213 -4.592735
v -1.112784 0.03064386 -4.780861
v 0.8074682 0.400014 -2.940819
v 1.17445 1.215704 -2.734607
v 1.17445 1.215704 -1.670263
v 0.8074682 0.1356568 -1.46405
v 1.17445 1.215704 -2.734607
v 1.317544 1.215704 -2.798653
v 1.430787 1.215704 -1.643168
v 1.17445 1.215704 -1.670263
v 0.8074682 0.1356568 -1.46405
v 1.17445 1.215704 -1.670263
v 1.430787 1.215704 -1.643168
v 1.551828 0.2092454 -1.46405
v 1.365762 0.4730082 -3.102796
v 1.317544 1.215704 -2.798653
v 1.17445 1.215704 -2.734607
v 0.8074682 0.400014 -2.940819
v -1.619885 3.348646 -4.5
v 1.056377 3.193465 -3.193263
v 1.619884 3.348646 -4.5
v -1.141255 2.984517 -1.897207
v 1.728761 3.457526 -5
v -1.728764 3.457526 -5
v -1.141255 2.984517 -1.897207
v 1.619884 3.348646 -0.5
v 1.728761 3.457526 0
v -1.619885 3.348646 -0.5
v -1.728764 3.457526 0
v -1.141255 2.984517 -1.897207
v -1.619885 0.1088795 -4.5
v 1.365762 0.4730082 -3.102793
v -0.8318699 0.5647078 -1.806737
v 1.619884 0.1088795 -4.5
v 1.728761 -2.384186E-07 -5
v -1.728764 -2.384186E-07 -5
v 1.056377 3.193465 -3.193263
v 1.365762 0.4730082 -3.102793
v 1.619884 3.348646 -4.5
v -1.619885 3.348646 -4.5
v -1.619885 0.1088795 -4.5
v -1.141255 2.984517 -1.897207
v -0.8318699 0.5647078 -1.806737
v -1.728764 -2.384186E-07 -5
v -1.728764 3.457526 -5
v 1.056377 3.193465 -3.193263
v 1.619884 0.1088795 -0.5
v 1.365762 0.4730082 -3.102793
v 1.619884 3.348646 -0.5
v 1.728761 -2.384186E-07 0
v 1.728761 3.457526 0
v -0.8318699 0.5647078 -1.806737
v 1.619884 0.1088795 -0.5
v -1.619885 0.1088795 -0.5
v -1.728764 -2.384186E-07 0
v 1.728761 -2.384186E-07 0
v -1.430511E-06 -2.384186E-07 0
v 1.365762 0.4730082 -3.102793
v -1.141255 2.984517 -1.897207
v -1.619885 0.1088795 -0.5
v -1.619885 3.348646 -0.5
v -1.728764 -2.384186E-07 0
v -1.728764 3.457526 0
v 1.619884 3.348646 -4.5
v 1.365762 0.4730082 -3.102793
v 1.619884 0.1088795 -4.5
v 1.619884 3.348646 -4.5
v 1.728761 -2.384186E-07 -5
v 1.728761 3.457526 -5
v -1.141255 2.984517 -1.897207
v -0.8318699 0.5647078 -1.806737
v -1.619885 0.1088795 -0.5

vn -0.2947588 0.5240942 -0.799026
vn -0.2947588 0.5240942 -0.799026
vn -0.2947588 0.5240942 -0.799026
vn -0.2947588 0.5240942 -0.799026
vn -0.06298286 0.9833023 -0.1707325
vn -0.06298286 0.9833023 -0.1707325
vn -0.06298286 0.9833023 -0.1707325
vn -0.06298286 0.9833023 -0.1707325
vn 0.294759 0.5240942 0.7990259
vn 0.294759 0.5240942 0.7990259
vn 0.294759 0.5240942 0.7990259
vn 0.294759 0.5240942 0.7990259
vn 0.824203 0.4805164 -0.2996554
vn 0.824203 0.4805164 -0.2996554
vn 0.824203 0.4805164 -0.2996554
vn 0.824203 0.4805164 -0.2996554
vn -0.9318898 0.3607945 0.03753417
vn -0.9318898 0.3607945 0.03753417
vn -0.9318898 0.3607945 0.03753417
vn -0.9318898 0.3607945 0.03753417
vn 0 1 0
vn 0 1 0
vn 0 1 0
vn 0 1 0
vn -0.04026123 0.1860453 0.9817159
vn -0.04026123 0.1860453 0.9817159
vn -0.04026123 0.1860453 0.9817159
vn -0.04026123 0.1860453 0.9817159
vn -0.3200475 0.3533413 -0.8790447
vn -0.3200475 0.3533413 -0.8790447
vn -0.3200475 0.3533413 -0.8790447
vn -0.3200475 0.3533413 -0.8790447
vn 0.003746436 -0.987556 -0.1572228
vn 0.041947 -0.9962727 -0.07537425
vn 0 -0.986203 -0.1655407
vn 0.06297167 -0.9965594 -0.05388733
vn 0 -0.9771016 -0.2127728
vn 0 -0.9771016 -0.2127728
vn 0.04237633 -0.9978981 0.04902753
vn 0.03825467 -0.9851953 0.1671132
vn 0 -0.9771016 0.2127728
vn 0 -0.9725896 0.2325284
vn 0 -0.9771016 0.2127728
vn 0.0574785 -0.9879249 0.1438769
vn -0.0163178 0.978387 -0.2061373
vn -0.02448772 0.978916 -0.2027901
vn -0.04889791 0.9870544 -0.1527497
vn 0 0.9725896 -0.2325284
vn 0 0.9771016 -0.212773
vn 0 0.9771016 -0.212773
vn -0.906885 -0.1166011 -0.4049246
vn -0.906885 -0.1166011 -0.4049246
vn -0.9485922 -0.05870892 -0.311008
vn 0.9804354 0 -0.1968412
vn 0.9723584 0.03683898 -0.2305685
vn 0.9693576 0.05529665 -0.2393494
vn 0.9487316 0.110224 -0.2962417
vn 0.9771019 0 -0.2127719
vn 0.9771019 0 -0.2127719
vn -0.9881031 -0.05516541 0.1435585
vn -0.9853002 -0.03676721 0.1668279
vn -0.9906034 -0.1099513 0.08133546
vn -0.9779624 0 0.2087811
vn -0.9771035 0 0.2127648
vn -0.9771035 0 0.2127648
vn 0.0582752 0.971547 0.2295656
vn 0.02904797 0.9747862 0.2212421
vn 0 0.9624193 0.2715678
vn 0 0.9897838 0.142576
vn 0 0.9942589 0.1070008
vn 0 1 0
vn 0.1157285 0.9851891 0.1265281
vn 0.9460315 0 0.3240745
vn 0.9631758 0 0.2688724
vn 0.9631758 0 0.2688724
vn 0.9771019 0 0.2127719
vn 0.9771019 0 0.2127719
vn -0.9806271 0 -0.1958835
vn -0.9838592 0 -0.1789441
vn -0.9806271 0 -0.1958835
vn -0.9627786 -0.03914471 -0.2674415
vn -0.9771035 0 -0.2127648
vn -0.9771035 0 -0.2127648
vn 0.8293645 0.1263848 0.5442255
vn 0.8293645 0.1263848 0.5442255
vn 0.8293645 0.1263848 0.5442255

vt 0.2978516 0.3996582
vt 0.2978516 0.3996582
vt 0.2978516 0.3996582
vt 0.2978516 0.3996582
vt 0.3283691 0.3996582
vt 0.3283691 0.3996582
vt 0.3283691 0.3996582
vt 0.3283691 0.3996582
vt 0.2978516 0.3996582
vt 0.2978516 0.3996582
vt 0.2978516 0.3996582
vt 0.2978516 0.3996582
vt 0.2680664 0.3996582
vt 0.2680664 0.3996582
vt 0.2680664 0.3996582
vt 0.2680664 0.3996582
vt 0.2978516 0.3996582
vt 0.2978516 0.3996582
vt 0.2978516 0.3996582
vt 0.2978516 0.3996582
vt 0.3283691 0.3996582
vt 0.3283691 0.3996582
vt 0.3283691 0.3996582
vt 0.3283691 0.3996582
vt 0.2680664 0.3996582
vt 0.2680664 0.3996582
vt 0.2680664 0.3996582
vt 0.2680664 0.3996582
vt 0.2680664 0.3996582
vt 0.2680664 0.3996582
vt 0.2680664 0.3996582
vt 0.2680664 0.3996582
vt 0.2008057 0.3996582
vt 0.2008057 0.3996582
vt 0.2008057 0.3996582
vt 0.2008057 0.3996582
vt 0.2008057 0.3996582
vt 0.2008057 0.3996582
vt 0.2008057 0.3996582
vt 0.2008057 0.3996582
vt 0.2008057 0.3996582
vt 0.2008057 0.3996582
vt 0.2008057 0.3996582
vt 0.2008057 0.3996582
vt 0.2929688 0.3996582
vt 0.2929688 0.3996582
vt 0.2929688 0.3996582
vt 0.2929688 0.3996582
vt 0.2929688 0.3996582
vt 0.2929688 0.3996582
vt 0.2680664 0.3996582
vt 0.2680664 0.3996582
vt 0.2680664 0.3996582
vt 0.2680664 0.3996582
vt 0.2680664 0.3996582
vt 0.2680664 0.3996582
vt 0.2680664 0.3996582
vt 0.2680664 0.3996582
vt 0.2680664 0.3996582
vt 0.2680664 0.3996582
vt 0.2680664 0.3996582
vt 0.2680664 0.3996582
vt 0.2680664 0.3996582
vt 0.2680664 0.3996582
vt 0.2680664 0.3996582
vt 0.2929688 0.3996582
vt 0.2929688 0.3996582
vt 0.2929688 0.3996582
vt 0.2929688 0.3996582
vt 0.2929688 0.3996582
vt 0.2929688 0.3996582
vt 0.2929688 0.3996582
vt 0.2680664 0.3996582
vt 0.2680664 0.3996582
vt 0.2680664 0.3996582
vt 0.2680664 0.3996582
vt 0.2680664 0.3996582
vt 0.2680664 0.3996582
vt 0.2680664 0.3996582
vt 0.2680664 0.3996582
vt 0.2680664 0.3996582
vt 0.2680664 0.3996582
vt 0.2680664 0.3996582
vt 0.2680664 0.3996582
vt 0.2680664 0.3996582
vt 0.2680664 0.3996582

g SD_Env_Goblin_Tunnel_01_2551_129
usemtl SD_Env_Goblin_Tunnel_01_2551_129
usemap SD_Env_Goblin_Tunnel_01_2551_129
f 1/1/1 3/3/3 2/2/2
f 1/1/1 4/4/4 3/3/3
f 5/5/5 7/7/7 6/6/6
f 5/5/5 8/8/8 7/7/7
f 9/9/9 11/11/11 10/10/10
f 9/9/9 12/12/12 11/11/11
f 13/13/13 15/15/15 14/14/14
f 13/13/13 16/16/16 15/15/15
f 17/17/17 19/19/19 18/18/18
f 17/17/17 20/20/20 19/19/19
f 21/21/21 23/23/23 22/22/22
f 21/21/21 24/24/24 23/23/23
f 25/25/25 27/27/27 26/26/26
f 25/25/25 28/28/28 27/27/27
f 29/29/29 31/31/31 30/30/30
f 29/29/29 32/32/32 31/31/31
f 33/33/33 35/35/35 34/34/34
f 36/36/36 33/33/33 34/34/34
f 33/33/33 37/37/37 35/35/35
f 33/33/33 38/38/38 37/37/37
f 39/39/39 34/34/34 40/40/40
f 41/41/41 42/42/42 40/40/40
f 41/41/41 43/43/43 42/42/42
f 42/42/42 44/44/44 40/40/40
f 45/45/45 47/47/47 46/46/46
f 45/45/45 46/46/46 48/48/48
f 49/49/49 45/45/45 48/48/48
f 49/49/49 50/50/50 45/45/45
f 51/51/51 53/53/53 52/52/52
f 54/54/54 56/56/56 55/55/55
f 56/56/56 57/57/57 55/55/55
f 58/58/58 54/54/54 55/55/55
f 58/58/58 59/59/59 54/54/54
f 60/60/60 62/62/62 61/61/61
f 63/63/63 60/60/60 61/61/61
f 64/64/64 63/63/63 61/61/61
f 64/64/64 65/65/65 63/63/63
f 66/66/66 68/68/68 67/67/67
f 69/69/69 67/67/67 68/68/68
f 67/67/67 69/69/69 70/70/70
f 70/70/70 69/69/69 71/71/71
f 66/66/66 67/67/67 72/72/72
f 73/73/73 75/75/75 74/74/74
f 75/75/75 76/76/76 74/74/74
f 75/75/75 77/77/77 76/76/76
f 78/78/78 80/80/80 79/79/79
f 81/81/81 82/82/82 80/80/80
f 81/81/81 83/83/83 82/82/82
f 84/84/84 86/86/86 85/85/85
