#SD_Env_Wall_Half_17_2901_395.obj

v -2.329197E-06 8.735749E-28 7.352129E-06
v -2.329197E-06 0.4779291 7.352129E-06
v 4.999998 0.4779291 1.038663E-05
v 4.999998 -1.87526E-21 1.038663E-05
v -2.329197E-06 2.013407 7.352129E-06
v -2.329197E-06 2.5 7.352129E-06
v 4.999998 2.5 1.038663E-05
v 4.999998 2.013407 1.038663E-05
v -2.329197E-06 0.4779291 7.352129E-06
v -7.27612E-07 0.4779291 -0.27195
v 4.999999 0.4779291 -0.271947
v 4.999998 0.4779291 1.038663E-05
v -7.27612E-07 2.013407 -0.27195
v -2.329197E-06 2.013407 7.352129E-06
v 4.999998 2.013407 1.038663E-05
v 4.999999 2.013407 -0.271947
v -7.27612E-07 0.4779291 -0.27195
v -7.27612E-07 2.013407 -0.27195
v 4.999999 2.013407 -0.271947
v 4.999999 0.4779291 -0.271947

vn -3.576279E-06 0 1
vn -3.576279E-06 0 1
vn -3.576279E-06 0 1
vn -3.576279E-06 0 1
vn -3.576279E-06 0 1
vn -3.576279E-06 0 1
vn -3.576279E-06 0 1
vn -3.576279E-06 0 1
vn 0 1 0
vn 0 1 0
vn 0 1 0
vn 0 1 0
vn 0 -1 0
vn 0 -1 0
vn 0 -1 0
vn 0 -1 0
vn -3.576279E-06 0 1
vn -3.576279E-06 0 1
vn -3.576279E-06 0 1
vn -3.576279E-06 0 1

vt 0.004470825 0.8398438
vt 0.004470825 0.8681641
vt 0.1600342 0.8681641
vt 0.1600342 0.8398438
vt 0.004470825 0.9672852
vt 0.004470825 0.9956055
vt 0.1600342 0.9956055
vt 0.1600342 0.9672852
vt 0.004470825 0.8681641
vt 0.004470825 0.8686523
vt 0.1600342 0.8686523
vt 0.1600342 0.8681641
vt 0.004470825 0.9667969
vt 0.004470825 0.9672852
vt 0.1600342 0.9672852
vt 0.1600342 0.9667969
vt 0.03277588 0.8901367
vt 0.03277588 0.9331055
vt 0.1322021 0.9331055
vt 0.1322021 0.8901367

g SD_Env_Wall_Half_17_2901_395
usemtl SD_Env_Wall_Half_17_2901_395
usemap SD_Env_Wall_Half_17_2901_395
f 1/1/1 3/3/3 2/2/2
f 1/1/1 4/4/4 3/3/3
f 5/5/5 7/7/7 6/6/6
f 5/5/5 8/8/8 7/7/7
f 9/9/9 11/11/11 10/10/10
f 9/9/9 12/12/12 11/11/11
f 13/13/13 15/15/15 14/14/14
f 13/13/13 16/16/16 15/15/15
f 17/17/17 19/19/19 18/18/18
f 17/17/17 20/20/20 19/19/19
