#SD_Env_Wall_Half_31_2420_230.obj

v -1.0441E-05 2.5 2.571424E-06
v 4.99999 2.5 1.418452E-06
v 4.99999 2.013409 1.418452E-06
v -1.0441E-05 2.013409 2.571424E-06
v 4.99999 2.013409 1.418452E-06
v 4.999993 2.013409 -0.2719534
v -6.800684E-06 2.013409 -0.2719523
v -1.0441E-05 2.013409 2.571424E-06
v 4.99999 0.4779282 1.418452E-06
v 4.99999 0 1.418452E-06
v -1.0441E-05 0 2.571424E-06
v -1.0441E-05 0.4779282 2.571424E-06
v 4.999993 0.4779282 -0.2719534
v 4.99999 0.4779282 1.418452E-06
v -1.0441E-05 0.4779282 2.571424E-06
v -6.800684E-06 0.4779282 -0.2719523
v 4.999993 2.013409 -0.2719534
v 4.999993 0.4779282 -0.2719534
v -6.800684E-06 0.4779282 -0.2719523
v -6.800684E-06 2.013409 -0.2719523

vn 1 0 5.275011E-06
vn 1 0 5.275011E-06
vn 1 0 5.275011E-06
vn 1 0 5.275011E-06
vn 0 -1 0
vn 0 -1 0
vn 0 -1 0
vn 0 -1 0
vn 1 0 5.275011E-06
vn 1 0 5.275011E-06
vn 1 0 5.275011E-06
vn 1 0 5.275011E-06
vn 0 1 0
vn 0 1 0
vn 0 1 0
vn 0 1 0
vn 1 0 5.275011E-06
vn 1 0 5.275011E-06
vn 1 0 5.275011E-06
vn 1 0 5.275011E-06

vt 0.004470825 0.6821289
vt 0.004470825 0.8378906
vt 0.03475952 0.8378906
vt 0.03475952 0.6821289
vt 0.03475952 0.8378906
vt 0.03530884 0.8378906
vt 0.03530884 0.6821289
vt 0.03475952 0.6821289
vt 0.1303711 0.8378906
vt 0.1600342 0.8378906
vt 0.1600342 0.6821289
vt 0.1303711 0.6821289
vt 0.1298828 0.8378906
vt 0.1303711 0.8378906
vt 0.1303711 0.6821289
vt 0.1298828 0.6821289
vt 0.1322021 0.9301758
vt 0.1322021 0.9057617
vt 0.03268433 0.9057617
vt 0.03268433 0.9301758

g SD_Env_Wall_Half_31_2420_230
usemtl SD_Env_Wall_Half_31_2420_230
usemap SD_Env_Wall_Half_31_2420_230
f 1/1/1 3/3/3 2/2/2
f 1/1/1 4/4/4 3/3/3
f 5/5/5 7/7/7 6/6/6
f 5/5/5 8/8/8 7/7/7
f 9/9/9 11/11/11 10/10/10
f 9/9/9 12/12/12 11/11/11
f 13/13/13 15/15/15 14/14/14
f 13/13/13 16/16/16 15/15/15
f 17/17/17 19/19/19 18/18/18
f 17/17/17 20/20/20 19/19/19
