#SD_Env_Wall_114_2433_184.obj

v -5.119035E-07 0 3.495225E-06
v -5.119035E-07 0.9558582 3.495225E-06
v 5 0.9558582 1.552241E-06
v 5 0 1.552241E-06
v -5.119035E-07 4.026814 3.495225E-06
v -5.119035E-07 5 3.495225E-06
v 5 5 1.552241E-06
v 5 4.026814 1.552241E-06
v -5.119035E-07 0.9558582 3.495225E-06
v -1.059203E-06 0.9558582 -0.2719539
v 4.999999 0.9558582 -0.2719508
v 5 0.9558582 1.552241E-06
v -1.059203E-06 4.026815 -0.2719539
v -5.119035E-07 4.026814 3.495225E-06
v 5 4.026814 1.552241E-06
v 4.999999 4.026813 -0.2719508
v -1.059203E-06 0.9558582 -0.2719539
v -1.059203E-06 4.026815 -0.2719539
v 4.999999 4.026813 -0.2719508
v 4.999999 0.9558582 -0.2719508

vn 2.682209E-06 0 1
vn 2.682209E-06 0 1
vn 2.682209E-06 0 1
vn 2.682209E-06 0 1
vn 2.682209E-06 0 1
vn 2.682209E-06 0 1
vn 2.682209E-06 0 1
vn 2.682209E-06 0 1
vn 0 1 0
vn 0 1 0
vn 0 1 0
vn 0 1 0
vn 0 -1 0
vn 0 -1 0
vn 0 -1 0
vn 0 -1 0
vn 2.682209E-06 0 1
vn 2.682209E-06 0 1
vn 2.682209E-06 0 1
vn 2.682209E-06 0 1

vt 0.004470825 0.8398438
vt 0.004470825 0.8681641
vt 0.1600342 0.8681641
vt 0.1600342 0.8398438
vt 0.004470825 0.9672852
vt 0.004470825 0.9956055
vt 0.1600342 0.9956055
vt 0.1600342 0.9672852
vt 0.004470825 0.8681641
vt 0.004470825 0.8686523
vt 0.1600342 0.8686523
vt 0.1600342 0.8681641
vt 0.004470825 0.9667969
vt 0.004470825 0.9672852
vt 0.1600342 0.9672852
vt 0.1600342 0.9667969
vt 0.03317261 0.8828125
vt 0.03317261 0.9448242
vt 0.1317139 0.9448242
vt 0.1317139 0.8828125

g SD_Env_Wall_114_2433_184
usemtl SD_Env_Wall_114_2433_184
usemap SD_Env_Wall_114_2433_184
f 1/1/1 3/3/3 2/2/2
f 1/1/1 4/4/4 3/3/3
f 5/5/5 7/7/7 6/6/6
f 5/5/5 8/8/8 7/7/7
f 9/9/9 11/11/11 10/10/10
f 9/9/9 12/12/12 11/11/11
f 13/13/13 15/15/15 14/14/14
f 13/13/13 16/16/16 15/15/15
f 17/17/17 19/19/19 18/18/18
f 17/17/17 20/20/20 19/19/19
