#SD_Env_Wall_110_2720_118.obj

v -4.995178E-07 -1.238574E-22 5.118911E-07
v -4.995178E-07 0.9558582 5.118911E-07
v 5 0.9558582 4.516714E-07
v 5 6.123031E-16 4.516714E-07
v -4.995178E-07 4.026814 5.118911E-07
v -4.995178E-07 5 5.118911E-07
v 5 5 4.516714E-07
v 5 4.026814 4.516714E-07
v -4.995178E-07 0.9558582 5.118911E-07
v 7.939917E-07 0.9558582 -0.271955
v 5.000001 0.9558582 -0.2719554
v 5 0.9558582 4.516714E-07
v 7.939917E-07 4.026815 -0.271955
v -4.995178E-07 4.026814 5.118911E-07
v 5 4.026814 4.516714E-07
v 5.000001 4.026813 -0.2719554
v 7.939917E-07 0.9558582 -0.271955
v 7.939917E-07 4.026815 -0.271955
v 5.000001 4.026813 -0.2719554
v 5.000001 0.9558582 -0.2719554

vn -1 0 4.798174E-06
vn -1 0 4.798174E-06
vn -1 0 4.798174E-06
vn -1 0 4.798174E-06
vn -1 0 4.798174E-06
vn -1 0 4.798174E-06
vn -1 0 4.798174E-06
vn -1 0 4.798174E-06
vn 0 1 0
vn 0 1 0
vn 0 1 0
vn 0 1 0
vn 0 -1 0
vn 0 -1 0
vn 0 -1 0
vn 0 -1 0
vn -1 0 4.798174E-06
vn -1 0 4.798174E-06
vn -1 0 4.798174E-06
vn -1 0 4.798174E-06

vt 0.004470825 0.8398438
vt 0.004470825 0.8681641
vt 0.1600342 0.8681641
vt 0.1600342 0.8398438
vt 0.004470825 0.9672852
vt 0.004470825 0.9956055
vt 0.1600342 0.9956055
vt 0.1600342 0.9672852
vt 0.004470825 0.8681641
vt 0.004470825 0.8686523
vt 0.1600342 0.8686523
vt 0.1600342 0.8681641
vt 0.004470825 0.9667969
vt 0.004470825 0.9672852
vt 0.1600342 0.9672852
vt 0.1600342 0.9667969
vt 0.03317261 0.8828125
vt 0.03317261 0.9448242
vt 0.1317139 0.9448242
vt 0.1317139 0.8828125

g SD_Env_Wall_110_2720_118
usemtl SD_Env_Wall_110_2720_118
usemap SD_Env_Wall_110_2720_118
f 1/1/1 3/3/3 2/2/2
f 1/1/1 4/4/4 3/3/3
f 5/5/5 7/7/7 6/6/6
f 5/5/5 8/8/8 7/7/7
f 9/9/9 11/11/11 10/10/10
f 9/9/9 12/12/12 11/11/11
f 13/13/13 15/15/15 14/14/14
f 13/13/13 16/16/16 15/15/15
f 17/17/17 19/19/19 18/18/18
f 17/17/17 20/20/20 19/19/19
