#SD_Prop_Coin_06_2671_291.obj

v 0.04500847 5.504416E-07 -0.07793114
v 0.04500848 0.02537198 -0.07793114
v -0.04497933 0.02537199 -0.07793049
v -0.04497933 5.599666E-07 -0.07793049
v -0.04497933 5.599666E-07 -0.07793049
v -0.04497933 0.02537199 -0.07793049
v -0.08997366 0.025372 2.144901E-06
v -0.08997366 5.659014E-07 2.14506E-06
v -0.08997366 5.659014E-07 2.14506E-06
v -0.08997366 0.025372 2.144901E-06
v -0.04498019 0.02537199 0.07793412
v -0.04498019 5.623111E-07 0.07793412
v -0.04498019 5.623111E-07 0.07793412
v -0.04498019 0.02537199 0.07793412
v 0.04500762 0.02537198 0.07793345
v 0.04500761 5.52786E-07 0.07793345
v 0.04500761 5.52786E-07 0.07793345
v 0.04500762 0.02537198 0.07793345
v 0.09000195 0.02537198 8.249377E-07
v 0.09000195 5.468513E-07 8.250971E-07
v 0.09000195 5.468513E-07 8.250971E-07
v 0.09000195 0.02537198 8.249377E-07
v 0.04500848 0.02537198 -0.07793114
v 0.04500847 5.504416E-07 -0.07793114
v -0.04498019 0.02537199 0.07793412
v -0.08997366 0.025372 2.144901E-06
v 1.41449E-05 0.02537199 1.484919E-06
v 0.09000195 0.02537198 8.249377E-07
v 0.04500762 0.02537198 0.07793345
v 0.04500848 0.02537198 -0.07793114
v -0.04497933 0.02537199 -0.07793049

vn -0.9659256 -8.756345E-09 -0.2588202
vn -0.9659256 -8.756345E-09 -0.2588202
vn -0.9659256 -8.756345E-09 -0.2588202
vn -0.9659256 -8.756345E-09 -0.2588202
vn -0.7071074 -1.516015E-09 0.7071061
vn -0.7071074 -1.516015E-09 0.7071061
vn -0.7071074 -1.516015E-09 0.7071061
vn -0.7071074 -1.516015E-09 0.7071061
vn 0.2588174 7.240325E-09 0.9659263
vn 0.2588174 7.240325E-09 0.9659263
vn 0.2588174 7.240325E-09 0.9659263
vn 0.2588174 7.240325E-09 0.9659263
vn 0.9659256 8.756345E-09 0.2588202
vn 0.9659256 8.756345E-09 0.2588202
vn 0.9659256 8.756345E-09 0.2588202
vn 0.9659256 8.756345E-09 0.2588202
vn 0.7071074 1.516014E-09 -0.7071061
vn 0.7071074 1.516014E-09 -0.7071061
vn 0.7071074 1.516014E-09 -0.7071061
vn 0.7071074 1.516014E-09 -0.7071061
vn -0.2588178 -7.240327E-09 -0.9659263
vn -0.2588178 -7.240327E-09 -0.9659263
vn -0.2588178 -7.240327E-09 -0.9659263
vn -0.2588178 -7.240327E-09 -0.9659263
vn -2.685624E-08 1 8.331688E-08
vn -2.685624E-08 1 8.331688E-08
vn -2.685624E-08 1 8.331688E-08
vn -2.685624E-08 1 8.331688E-08
vn -2.685624E-08 1 8.331688E-08
vn -2.685624E-08 1 8.331688E-08
vn -2.685624E-08 1 8.331688E-08

vt 0.5776367 0.4702148
vt 0.5776367 0.4702148
vt 0.5776367 0.4702148
vt 0.5776367 0.4702148
vt 0.5776367 0.4702148
vt 0.5776367 0.4702148
vt 0.5776367 0.4702148
vt 0.5776367 0.4702148
vt 0.5776367 0.4702148
vt 0.5776367 0.4702148
vt 0.5776367 0.4702148
vt 0.5776367 0.4702148
vt 0.5776367 0.4702148
vt 0.5776367 0.4702148
vt 0.5776367 0.4702148
vt 0.5776367 0.4702148
vt 0.5776367 0.4702148
vt 0.5776367 0.4702148
vt 0.5776367 0.4702148
vt 0.5776367 0.4702148
vt 0.5776367 0.4702148
vt 0.5776367 0.4702148
vt 0.5776367 0.4702148
vt 0.5776367 0.4702148
vt 0.6494141 0.4702148
vt 0.6494141 0.4702148
vt 0.6494141 0.4702148
vt 0.6494141 0.4702148
vt 0.6494141 0.4702148
vt 0.6494141 0.4702148
vt 0.6494141 0.4702148

g SD_Prop_Coin_06_2671_291
usemtl SD_Prop_Coin_06_2671_291
usemap SD_Prop_Coin_06_2671_291
f 1/1/1 3/3/3 2/2/2
f 1/1/1 4/4/4 3/3/3
f 5/5/5 7/7/7 6/6/6
f 5/5/5 8/8/8 7/7/7
f 9/9/9 11/11/11 10/10/10
f 9/9/9 12/12/12 11/11/11
f 13/13/13 15/15/15 14/14/14
f 13/13/13 16/16/16 15/15/15
f 17/17/17 19/19/19 18/18/18
f 17/17/17 20/20/20 19/19/19
f 21/21/21 23/23/23 22/22/22
f 21/21/21 24/24/24 23/23/23
f 25/25/25 27/27/27 26/26/26
f 27/27/27 25/25/25 28/28/28
f 28/28/28 26/26/26 27/27/27
f 28/28/28 25/25/25 29/29/29
f 30/30/30 26/26/26 28/28/28
f 26/26/26 30/30/30 31/31/31
