#SD_Prop_Rubble_09_2298_175.obj

v -0.88431 0.006386439 -0.1635804
v -0.8639436 0.1229258 -0.2113042
v -0.6479665 0.1229258 -0.2576767
v -0.6098014 0.006386439 -0.2225204
v -0.8639436 0.1229258 -0.2113042
v -0.9555919 0.1229258 -0.4355267
v -0.6746631 0.1229258 -0.5730535
v -0.6479665 0.1229258 -0.2576767
v -0.9555919 0.1229258 -0.4355267
v -1.012293 0.006386439 -0.4549587
v -0.6552309 0.006386439 -0.6297562
v -0.6746631 0.1229258 -0.5730535
v -0.6098014 0.006386439 -0.2225204
v -0.6479665 0.1229258 -0.2576767
v -0.6746631 0.1229258 -0.5730535
v -0.6552309 0.006386439 -0.6297562
v -1.012293 0.006386439 -0.4549587
v -0.9555919 0.1229258 -0.4355267
v -0.8639436 0.1229258 -0.2113042
v -0.88431 0.006386439 -0.1635804
v 1.090527 0.006386439 -0.3658704
v 1.085571 0.07063866 -0.398544
v 1.187842 0.07063866 -0.5373932
v 1.220513 0.006386439 -0.5423498
v 1.085571 0.07063866 -0.398544
v 0.9467188 0.07063866 -0.5008149
v 1.048992 0.07063866 -0.6396661
v 1.187842 0.07063866 -0.5373932
v 0.9467188 0.07063866 -0.5008149
v 0.9140466 0.006386439 -0.4958602
v 1.044036 0.006386439 -0.6723397
v 1.048992 0.07063866 -0.6396661
v 1.220513 0.006386439 -0.5423498
v 1.187842 0.07063866 -0.5373932
v 1.048992 0.07063866 -0.6396661
v 1.044036 0.006386439 -0.6723397
v 0.9140466 0.006386439 -0.4958602
v 0.9467188 0.07063866 -0.5008149
v 1.085571 0.07063866 -0.398544
v 1.090527 0.006386439 -0.3658704
v 0.318604 0.006386439 -1.346871
v 0.2742458 0.107001 -1.315164
v 0.05505315 0.107001 -1.391553
v 0.04000871 0.006386439 -1.443961
v 0.2742458 0.107001 -1.315164
v 0.2339907 0.107001 -1.063827
v -0.09331463 0.107001 -1.093892
v 0.05505315 0.107001 -1.391553
v 0.2339907 0.107001 -1.063827
v 0.2742661 0.006386439 -1.015403
v -0.1417362 0.006386439 -1.053615
v -0.09331463 0.107001 -1.093892
v 0.04000871 0.006386439 -1.443961
v 0.05505315 0.107001 -1.391553
v -0.09331463 0.107001 -1.093892
v -0.1417362 0.006386439 -1.053615
v 0.2742661 0.006386439 -1.015403
v 0.2339907 0.107001 -1.063827
v 0.2742458 0.107001 -1.315164
v 0.318604 0.006386439 -1.346871
v -1.220517 0 0.9625517
v -1.158988 0.1395705 0.9538345
v -0.8349456 0.1395705 1.248463
v -0.8473108 0 1.309364
v -1.158988 0.1395705 0.9538345
v -0.9860517 0.1395705 0.7209139
v -0.5283363 0.1395705 1.025589
v -0.8349456 0.1395705 1.248463
v -0.9860517 0.1395705 0.7209139
v -1.001294 0 0.6507655
v -0.4581881 0 1.010347
v -0.5283363 0.1395705 1.025589
v -0.8473108 0 1.309364
v -0.8349456 0.1395705 1.248463
v -0.5283363 0.1395705 1.025589
v -0.4581881 0 1.010347
v -1.001294 0 0.6507655
v -0.9860517 0.1395705 0.7209139
v -1.158988 0.1395705 0.9538345
v -1.220517 0 0.9625517
v 0.06500795 0 0.9860422
v 0.1026123 0.1779709 0.9025874
v 0.5493134 0.1779709 0.7334048
v 0.6327696 0 0.7710088
v 0.1026123 0.1779709 0.9025874
v -0.0665689 0.1779709 0.4558859
v 0.3801323 0.1779709 0.2867033
v 0.5493134 0.1779709 0.7334048
v -0.0665689 0.1779709 0.4558859
v -0.1500255 0 0.4182814
v 0.4177366 0 0.2032485
v 0.3801323 0.1779709 0.2867033
v 0.6327696 0 0.7710088
v 0.5493134 0.1779709 0.7334048
v 0.3801323 0.1779709 0.2867033
v 0.4177366 0 0.2032485
v -0.1500255 0 0.4182814
v -0.0665689 0.1779709 0.4558859
v 0.1026123 0.1779709 0.9025874
v 0.06500795 0 0.9860422
v 0.4678486 0 1.443964
v 0.4619117 0.07695007 1.404834
v 0.5843973 0.07695007 1.238542
v 0.623527 0 1.232606
v 0.4619117 0.07695007 1.404834
v 0.2956213 0.07695007 1.282349
v 0.4181069 0.07695007 1.116057
v 0.5843973 0.07695007 1.238542
v 0.2956213 0.07695007 1.282349
v 0.2564916 0 1.288285
v 0.41217 0 1.076927
v 0.4181069 0.07695007 1.116057
v 0.623527 0 1.232606
v 0.5843973 0.07695007 1.238542
v 0.4181069 0.07695007 1.116057
v 0.41217 0 1.076927
v 0.2564916 0 1.288285
v 0.2956213 0.07695007 1.282349
v 0.4619117 0.07695007 1.404834
v 0.4678486 0 1.443964
v 0.9045384 0 -0.7787031
v 0.8514125 0.1204983 -0.7407309
v 0.5889022 0.1204983 -0.8322166
v 0.5708845 0 -0.8949821
v 0.8514125 0.1204983 -0.7407309
v 0.7220595 0.1204983 -0.3036554
v 0.4112127 0.1204983 -0.475729
v 0.5889022 0.1204983 -0.8322166
v 0.7220595 0.1204983 -0.3036554
v 0.7702948 0 -0.2456599
v 0.3532187 0 -0.4274917
v 0.4112127 0.1204983 -0.475729
v 0.5708845 0 -0.8949821
v 0.5889022 0.1204983 -0.8322166
v 0.4112127 0.1204983 -0.475729
v 0.3532187 0 -0.4274917
v 0.7702948 0 -0.2456599
v 0.7220595 0.1204983 -0.3036554
v 0.8514125 0.1204983 -0.7407309
v 0.9045384 0 -0.7787031

vn -0.4276228 0.3417878 0.8368511
vn -0.4276228 0.3417878 0.8368511
vn -0.4276228 0.3417878 0.8368511
vn -0.4276228 0.3417878 0.8368511
vn 0 1 0
vn 0 1 0
vn 0 1 0
vn 0 1 0
vn 0.2130145 0.3417834 -0.9153191
vn 0.2130145 0.3417834 -0.9153191
vn 0.2130145 0.3417834 -0.9153191
vn 0.2130145 0.3417834 -0.9153191
vn 0.8081582 0.247158 0.5345962
vn 0.8081582 0.247158 0.5345962
vn 0.8081582 0.247158 0.5345962
vn 0.8081582 0.247158 0.5345962
vn -0.9062837 0.3318372 -0.2617896
vn -0.9062837 0.3318372 -0.2617896
vn -0.9062837 0.3318372 -0.2617896
vn -0.9062837 0.3318372 -0.2617896
vn 0.2343754 0.3417726 0.9100877
vn 0.2343754 0.3417726 0.9100877
vn 0.2343754 0.3417726 0.9100877
vn 0.2343754 0.3417726 0.9100877
vn 0 1 0
vn 0 1 0
vn 0 1 0
vn 0 1 0
vn -0.23437 0.3417877 -0.9100834
vn -0.23437 0.3417877 -0.9100834
vn -0.23437 0.3417877 -0.9100834
vn -0.23437 0.3417877 -0.9100834
vn 0.9100878 0.3417767 -0.234369
vn 0.9100878 0.3417767 -0.234369
vn 0.9100878 0.3417767 -0.234369
vn 0.9100878 0.3417767 -0.234369
vn -0.9100847 0.3417836 0.2343712
vn -0.9100847 0.3417836 0.2343712
vn -0.9100847 0.3417836 0.2343712
vn -0.9100847 0.3417836 0.2343712
vn 0.7788198 0.4047733 -0.4791641
vn 0.7788198 0.4047733 -0.4791641
vn 0.7788198 0.4047733 -0.4791641
vn 0.7788198 0.4047733 -0.4791641
vn 0 1 0
vn 0 1 0
vn 0 1 0
vn 0 1 0
vn -0.6401567 0.4047746 0.6529602
vn -0.6401567 0.4047746 0.6529602
vn -0.6401567 0.4047746 0.6529602
vn -0.6401567 0.4047746 0.6529602
vn -0.4063836 0.2964735 -0.8642661
vn -0.4063836 0.2964735 -0.8642661
vn -0.4063836 0.2964735 -0.8642661
vn -0.4063836 0.2964735 -0.8642661
vn 0.6217333 0.3935883 0.6771529
vn 0.6217333 0.3935883 0.6771529
vn 0.6217333 0.3935883 0.6771529
vn 0.6217333 0.3935883 0.6771529
vn -0.9304408 0.3410149 0.1341225
vn -0.9304408 0.3410149 0.1341225
vn -0.9304408 0.3410149 0.1341225
vn -0.9304408 0.3410149 0.1341225
vn 0 1 0
vn 0 1 0
vn 0 1 0
vn 0 1 0
vn 0.8975526 0.3417537 -0.2785744
vn 0.8975526 0.3417537 -0.2785744
vn 0.8975526 0.3417537 -0.2785744
vn 0.8975526 0.3417537 -0.2785744
vn -0.03905207 0.2471501 0.96819
vn -0.03905207 0.2471501 0.96819
vn -0.03905207 0.2471501 0.96819
vn -0.03905207 0.2471501 0.96819
vn -0.2451654 0.3318468 -0.910918
vn -0.2451654 0.3318468 -0.910918
vn -0.2451654 0.3318468 -0.910918
vn -0.2451654 0.3318468 -0.910918
vn -0.2972775 0.3417877 0.8915197
vn -0.2972775 0.3417877 0.8915197
vn -0.2972775 0.3417877 0.8915197
vn -0.2972775 0.3417877 0.8915197
vn 0 1 0
vn 0 1 0
vn 0 1 0
vn 0 1 0
vn 0.2972775 0.3417877 -0.8915197
vn 0.2972775 0.3417877 -0.8915197
vn 0.2972775 0.3417877 -0.8915197
vn 0.2972775 0.3417877 -0.8915197
vn 0.8915213 0.3417833 0.2972775
vn 0.8915213 0.3417833 0.2972775
vn 0.8915213 0.3417833 0.2972775
vn 0.8915213 0.3417833 0.2972775
vn -0.8915212 0.3417835 -0.2972775
vn -0.8915212 0.3417835 -0.2972775
vn -0.8915212 0.3417835 -0.2972775
vn -0.8915212 0.3417835 -0.2972775
vn 0.2343715 0.3417856 0.9100838
vn 0.2343715 0.3417856 0.9100838
vn 0.2343715 0.3417856 0.9100838
vn 0.2343715 0.3417856 0.9100838
vn 0 1 0
vn 0 1 0
vn 0 1 0
vn 0 1 0
vn -0.2343715 0.3417857 -0.9100838
vn -0.2343715 0.3417857 -0.9100838
vn -0.2343715 0.3417857 -0.9100838
vn -0.2343715 0.3417857 -0.9100838
vn 0.9100838 0.3417866 -0.2343704
vn 0.9100838 0.3417866 -0.2343704
vn 0.9100838 0.3417866 -0.2343704
vn 0.9100838 0.3417866 -0.2343704
vn -0.9100854 0.3417818 0.2343709
vn -0.9100854 0.3417818 0.2343709
vn -0.9100854 0.3417818 0.2343709
vn -0.9100854 0.3417818 0.2343709
vn 0.7788194 0.4047738 -0.4791644
vn 0.7788194 0.4047738 -0.4791644
vn 0.7788194 0.4047738 -0.4791644
vn 0.7788194 0.4047738 -0.4791644
vn 0 1 0
vn 0 1 0
vn 0 1 0
vn 0 1 0
vn -0.8381102 0.3826225 0.3888076
vn -0.8381102 0.3826225 0.3888076
vn -0.8381102 0.3826225 0.3888076
vn -0.8381102 0.3826225 0.3888076
vn -0.4063805 0.2964885 -0.8642623
vn -0.4063805 0.2964885 -0.8642623
vn -0.4063805 0.2964885 -0.8642623
vn -0.4063805 0.2964885 -0.8642623
vn 0.5354186 0.3932137 0.7474689
vn 0.5354186 0.3932137 0.7474689
vn 0.5354186 0.3932137 0.7474689
vn 0.5354186 0.3932137 0.7474689

vt 0.328125 0.06378174
vt 0.328125 0.06378174
vt 0.328125 0.06378174
vt 0.328125 0.06378174
vt 0.3586426 0.06378174
vt 0.3586426 0.06378174
vt 0.3586426 0.06378174
vt 0.3586426 0.06378174
vt 0.328125 0.06378174
vt 0.328125 0.06378174
vt 0.328125 0.06378174
vt 0.328125 0.06378174
vt 0.2983398 0.06378174
vt 0.2983398 0.06378174
vt 0.2983398 0.06378174
vt 0.2983398 0.06378174
vt 0.2983398 0.06378174
vt 0.2983398 0.06378174
vt 0.2983398 0.06378174
vt 0.2983398 0.06378174
vt 0.328125 0.06378174
vt 0.328125 0.06378174
vt 0.328125 0.06378174
vt 0.328125 0.06378174
vt 0.3586426 0.06378174
vt 0.3586426 0.06378174
vt 0.3586426 0.06378174
vt 0.3586426 0.06378174
vt 0.328125 0.06378174
vt 0.328125 0.06378174
vt 0.328125 0.06378174
vt 0.328125 0.06378174
vt 0.2983398 0.06378174
vt 0.2983398 0.06378174
vt 0.2983398 0.06378174
vt 0.2983398 0.06378174
vt 0.2983398 0.06378174
vt 0.2983398 0.06378174
vt 0.2983398 0.06378174
vt 0.2983398 0.06378174
vt 0.328125 0.06378174
vt 0.328125 0.06378174
vt 0.328125 0.06378174
vt 0.328125 0.06378174
vt 0.3586426 0.06378174
vt 0.3586426 0.06378174
vt 0.3586426 0.06378174
vt 0.3586426 0.06378174
vt 0.328125 0.06378174
vt 0.328125 0.06378174
vt 0.328125 0.06378174
vt 0.328125 0.06378174
vt 0.2983398 0.06378174
vt 0.2983398 0.06378174
vt 0.2983398 0.06378174
vt 0.2983398 0.06378174
vt 0.2983398 0.06378174
vt 0.2983398 0.06378174
vt 0.2983398 0.06378174
vt 0.2983398 0.06378174
vt 0.328125 0.06378174
vt 0.328125 0.06378174
vt 0.328125 0.06378174
vt 0.328125 0.06378174
vt 0.3586426 0.06378174
vt 0.3586426 0.06378174
vt 0.3586426 0.06378174
vt 0.3586426 0.06378174
vt 0.328125 0.06378174
vt 0.328125 0.06378174
vt 0.328125 0.06378174
vt 0.328125 0.06378174
vt 0.2983398 0.06378174
vt 0.2983398 0.06378174
vt 0.2983398 0.06378174
vt 0.2983398 0.06378174
vt 0.2983398 0.06378174
vt 0.2983398 0.06378174
vt 0.2983398 0.06378174
vt 0.2983398 0.06378174
vt 0.328125 0.06378174
vt 0.328125 0.06378174
vt 0.328125 0.06378174
vt 0.328125 0.06378174
vt 0.3586426 0.06378174
vt 0.3586426 0.06378174
vt 0.3586426 0.06378174
vt 0.3586426 0.06378174
vt 0.328125 0.06378174
vt 0.328125 0.06378174
vt 0.328125 0.06378174
vt 0.328125 0.06378174
vt 0.2983398 0.06378174
vt 0.2983398 0.06378174
vt 0.2983398 0.06378174
vt 0.2983398 0.06378174
vt 0.2983398 0.06378174
vt 0.2983398 0.06378174
vt 0.2983398 0.06378174
vt 0.2983398 0.06378174
vt 0.328125 0.06378174
vt 0.328125 0.06378174
vt 0.328125 0.06378174
vt 0.328125 0.06378174
vt 0.3586426 0.06378174
vt 0.3586426 0.06378174
vt 0.3586426 0.06378174
vt 0.3586426 0.06378174
vt 0.328125 0.06378174
vt 0.328125 0.06378174
vt 0.328125 0.06378174
vt 0.328125 0.06378174
vt 0.2983398 0.06378174
vt 0.2983398 0.06378174
vt 0.2983398 0.06378174
vt 0.2983398 0.06378174
vt 0.2983398 0.06378174
vt 0.2983398 0.06378174
vt 0.2983398 0.06378174
vt 0.2983398 0.06378174
vt 0.328125 0.06378174
vt 0.328125 0.06378174
vt 0.328125 0.06378174
vt 0.328125 0.06378174
vt 0.3586426 0.06378174
vt 0.3586426 0.06378174
vt 0.3586426 0.06378174
vt 0.3586426 0.06378174
vt 0.328125 0.06378174
vt 0.328125 0.06378174
vt 0.328125 0.06378174
vt 0.328125 0.06378174
vt 0.2983398 0.06378174
vt 0.2983398 0.06378174
vt 0.2983398 0.06378174
vt 0.2983398 0.06378174
vt 0.2983398 0.06378174
vt 0.2983398 0.06378174
vt 0.2983398 0.06378174
vt 0.2983398 0.06378174

g SD_Prop_Rubble_09_2298_175
usemtl SD_Prop_Rubble_09_2298_175
usemap SD_Prop_Rubble_09_2298_175
f 1/1/1 3/3/3 2/2/2
f 1/1/1 4/4/4 3/3/3
f 5/5/5 7/7/7 6/6/6
f 5/5/5 8/8/8 7/7/7
f 9/9/9 11/11/11 10/10/10
f 9/9/9 12/12/12 11/11/11
f 13/13/13 15/15/15 14/14/14
f 13/13/13 16/16/16 15/15/15
f 17/17/17 19/19/19 18/18/18
f 17/17/17 20/20/20 19/19/19
f 21/21/21 23/23/23 22/22/22
f 21/21/21 24/24/24 23/23/23
f 25/25/25 27/27/27 26/26/26
f 25/25/25 28/28/28 27/27/27
f 29/29/29 31/31/31 30/30/30
f 29/29/29 32/32/32 31/31/31
f 33/33/33 35/35/35 34/34/34
f 33/33/33 36/36/36 35/35/35
f 37/37/37 39/39/39 38/38/38
f 37/37/37 40/40/40 39/39/39
f 41/41/41 43/43/43 42/42/42
f 41/41/41 44/44/44 43/43/43
f 45/45/45 47/47/47 46/46/46
f 45/45/45 48/48/48 47/47/47
f 49/49/49 51/51/51 50/50/50
f 49/49/49 52/52/52 51/51/51
f 53/53/53 55/55/55 54/54/54
f 53/53/53 56/56/56 55/55/55
f 57/57/57 59/59/59 58/58/58
f 57/57/57 60/60/60 59/59/59
f 61/61/61 63/63/63 62/62/62
f 61/61/61 64/64/64 63/63/63
f 65/65/65 67/67/67 66/66/66
f 65/65/65 68/68/68 67/67/67
f 69/69/69 71/71/71 70/70/70
f 69/69/69 72/72/72 71/71/71
f 73/73/73 75/75/75 74/74/74
f 73/73/73 76/76/76 75/75/75
f 77/77/77 79/79/79 78/78/78
f 77/77/77 80/80/80 79/79/79
f 81/81/81 83/83/83 82/82/82
f 81/81/81 84/84/84 83/83/83
f 85/85/85 87/87/87 86/86/86
f 85/85/85 88/88/88 87/87/87
f 89/89/89 91/91/91 90/90/90
f 89/89/89 92/92/92 91/91/91
f 93/93/93 95/95/95 94/94/94
f 93/93/93 96/96/96 95/95/95
f 97/97/97 99/99/99 98/98/98
f 97/97/97 100/100/100 99/99/99
f 101/101/101 103/103/103 102/102/102
f 101/101/101 104/104/104 103/103/103
f 105/105/105 107/107/107 106/106/106
f 105/105/105 108/108/108 107/107/107
f 109/109/109 111/111/111 110/110/110
f 109/109/109 112/112/112 111/111/111
f 113/113/113 115/115/115 114/114/114
f 113/113/113 116/116/116 115/115/115
f 117/117/117 119/119/119 118/118/118
f 117/117/117 120/120/120 119/119/119
f 121/121/121 123/123/123 122/122/122
f 121/121/121 124/124/124 123/123/123
f 125/125/125 127/127/127 126/126/126
f 125/125/125 128/128/128 127/127/127
f 129/129/129 131/131/131 130/130/130
f 129/129/129 132/132/132 131/131/131
f 133/133/133 135/135/135 134/134/134
f 133/133/133 136/136/136 135/135/135
f 137/137/137 139/139/139 138/138/138
f 137/137/137 140/140/140 139/139/139
