#SD_Prop_Coin_02_2731_54.obj

v 0.1723228 0.008783667 0.02659831
v 0.1723228 0.03415512 0.02659831
v 0.09295022 0.03415512 -0.01580123
v 0.09295022 0.008783676 -0.01580123
v 0.09295022 0.008783676 -0.01580123
v 0.09295022 0.03415512 -0.01580123
v 0.0165435 0.03415513 0.03174024
v 0.0165435 0.008783684 0.03174024
v 0.0165435 0.008783684 0.03174024
v 0.0165435 0.03415513 0.03174024
v 0.01951117 0.03415513 0.1216781
v 0.01951116 0.008783685 0.1216781
v 0.01951116 0.008783685 0.1216781
v 0.01951117 0.03415513 0.1216781
v 0.09888621 0.03415513 0.164077
v 0.09888621 0.008783677 0.164077
v 0.09888621 0.008783677 0.164077
v 0.09888621 0.03415513 0.164077
v 0.1752911 0.03415512 0.1165387
v 0.1752911 0.008783668 0.1165387
v 0.1752911 0.008783668 0.1165387
v 0.1752911 0.03415512 0.1165387
v 0.1723228 0.03415512 0.02659831
v 0.1723228 0.008783667 0.02659831
v 0.01951117 0.03415513 0.1216781
v 0.0165435 0.03415513 0.03174024
v 0.09591855 0.03415513 0.07413912
v 0.1752911 0.03415512 0.1165387
v 0.09888621 0.03415513 0.164077
v 0.1723228 0.03415512 0.02659831
v 0.09295022 0.03415512 -0.01580123
v -0.03809635 0.008783688 -0.09335458
v -0.03809635 0.03415514 -0.09335458
v -0.128047 0.03415515 -0.0959467
v -0.128047 0.008783698 -0.0959467
v -0.128047 0.008783698 -0.0959467
v -0.128047 0.03415515 -0.0959467
v -0.1752665 0.03415515 -0.01934242
v -0.1752665 0.008783704 -0.01934242
v -0.1752665 0.008783704 -0.01934242
v -0.1752665 0.03415515 -0.01934242
v -0.1325337 0.03415515 0.05985087
v -0.1325337 0.008783701 0.05985087
v -0.1325337 0.008783701 0.05985087
v -0.1325337 0.03415515 0.05985087
v -0.04258311 0.03415514 0.06244299
v -0.04258311 0.008783691 0.062443
v -0.04258311 0.008783691 0.062443
v -0.04258311 0.03415514 0.06244299
v 0.004636473 0.03415513 -0.01416129
v 0.004636471 0.008783685 -0.01416129
v 0.004636471 0.008783685 -0.01416129
v 0.004636473 0.03415513 -0.01416129
v -0.03809635 0.03415514 -0.09335458
v -0.03809635 0.008783688 -0.09335458
v -0.1325337 0.03415515 0.05985087
v -0.1752665 0.03415515 -0.01934242
v -0.08531348 0.03415514 -0.01675095
v 0.004636473 0.03415513 -0.01416129
v -0.04258311 0.03415514 0.06244299
v -0.03809635 0.03415514 -0.09335458
v -0.128047 0.03415515 -0.0959467
v 0.09889824 0.001862231 -0.08393224
v 0.1036623 0.02653119 -0.0874651
v 0.05650403 0.02466865 -0.1640825
v 0.05173936 -3.168724E-07 -0.1605521
v 0.05173936 -3.168724E-07 -0.1605521
v 0.05650403 0.02466865 -0.1640825
v -0.03181823 0.04187744 -0.1629852
v -0.03658044 0.01720848 -0.1594555
v -0.03658044 0.01720848 -0.1594555
v -0.03181823 0.04187744 -0.1629852
v -0.07297916 0.06094879 -0.08526886
v -0.07774137 0.03627982 -0.08173911
v -0.07774137 0.03627982 -0.08173911
v -0.07297916 0.06094879 -0.08526886
v -0.02582094 0.06281133 -0.008651489
v -0.03058249 0.03814237 -0.005119284
v -0.03058249 0.03814237 -0.005119284
v -0.02582094 0.06281133 -0.008651489
v 0.06250133 0.04560253 -0.009748715
v 0.05773666 0.02093357 -0.006218308
v 0.05773666 0.02093357 -0.006218308
v 0.06250133 0.04560253 -0.009748715
v 0.1036623 0.02653119 -0.0874651
v 0.09889824 0.001862231 -0.08393224
v -0.03181823 0.04187744 -0.1629852
v 0.05650403 0.02466865 -0.1640825
v 0.1036623 0.02653119 -0.0874651
v 0.01533999 0.04373999 -0.08636788
v -0.07297916 0.06094879 -0.08526886
v 0.06250133 0.04560253 -0.009748715
v -0.02582094 0.06281133 -0.008651489

vn -0.730045 -9.280664E-09 -0.6833993
vn -0.730045 -9.280664E-09 -0.6833993
vn -0.730045 -9.280664E-09 -0.6833993
vn -0.730045 -9.280664E-09 -0.6833993
vn -0.9568639 -5.688714E-09 0.2905365
vn -0.9568639 -5.688714E-09 0.2905365
vn -0.9568639 -5.688714E-09 0.2905365
vn -0.9568639 -5.688714E-09 0.2905365
vn -0.2268195 3.591952E-09 0.9739369
vn -0.2268195 3.591952E-09 0.9739369
vn -0.2268195 3.591952E-09 0.9739369
vn -0.2268195 3.591952E-09 0.9739369
vn 0.730045 9.280664E-09 0.6833993
vn 0.730045 9.280664E-09 0.6833993
vn 0.730045 9.280664E-09 0.6833993
vn 0.730045 9.280664E-09 0.6833993
vn 0.9568639 5.688714E-09 -0.2905365
vn 0.9568639 5.688714E-09 -0.2905365
vn 0.9568639 5.688714E-09 -0.2905365
vn 0.9568639 5.688714E-09 -0.2905365
vn 0.2268195 -3.591952E-09 -0.9739369
vn 0.2268195 -3.591952E-09 -0.9739369
vn 0.2268195 -3.591952E-09 -0.9739369
vn 0.2268195 -3.591952E-09 -0.9739369
vn -2.685624E-08 1 8.331688E-08
vn -2.685624E-08 1 8.331688E-08
vn -2.685624E-08 1 8.331688E-08
vn -2.685624E-08 1 8.331688E-08
vn -2.685624E-08 1 8.331688E-08
vn -2.685624E-08 1 8.331688E-08
vn -2.685624E-08 1 8.331688E-08
vn -0.9580718 -8.847886E-09 -0.2865286
vn -0.9580718 -8.847886E-09 -0.2865286
vn -0.9580718 -8.847886E-09 -0.2865286
vn -0.9580718 -8.847886E-09 -0.2865286
vn -0.7271745 -1.781316E-09 0.6864526
vn -0.7271745 -1.781316E-09 0.6864526
vn -0.7271745 -1.781316E-09 0.6864526
vn -0.7271745 -1.781316E-09 0.6864526
vn 0.230897 7.066552E-09 0.9729782
vn 0.230897 7.066552E-09 0.9729782
vn 0.230897 7.066552E-09 0.9729782
vn 0.230897 7.066552E-09 0.9729782
vn 0.9580725 8.847877E-09 0.286526
vn 0.9580725 8.847877E-09 0.286526
vn 0.9580725 8.847877E-09 0.286526
vn 0.9580725 8.847877E-09 0.286526
vn 0.7271757 1.781332E-09 -0.6864514
vn 0.7271757 1.781332E-09 -0.6864514
vn 0.7271757 1.781332E-09 -0.6864514
vn 0.7271757 1.781332E-09 -0.6864514
vn -0.2308975 -7.066554E-09 -0.9729782
vn -0.2308975 -7.066554E-09 -0.9729782
vn -0.2308975 -7.066554E-09 -0.9729782
vn -0.2308975 -7.066554E-09 -0.9729782
vn -2.685624E-08 1 8.331688E-08
vn -2.685624E-08 1 8.331688E-08
vn -2.685624E-08 1 8.331688E-08
vn -2.685624E-08 1 8.331688E-08
vn -2.685624E-08 1 8.331688E-08
vn -2.685624E-08 1 8.331688E-08
vn -2.685624E-08 1 8.331688E-08
vn -0.2734187 -0.232765 -0.9333074
vn -0.2734187 -0.232765 -0.9333074
vn -0.2734187 -0.232765 -0.9333074
vn -0.2734187 -0.232765 -0.9333074
vn -0.9664109 -0.1343026 -0.2191183
vn -0.9664109 -0.1343026 -0.2191183
vn -0.9664109 -0.1343026 -0.2191183
vn -0.9664109 -0.1343026 -0.2191183
vn -0.6929919 0.09846089 0.7141902
vn -0.6929919 0.09846089 0.7141902
vn -0.6929919 0.09846089 0.7141902
vn -0.6929919 0.09846089 0.7141902
vn 0.2734189 0.2327679 0.9333067
vn 0.2734189 0.2327679 0.9333067
vn 0.2734189 0.2327679 0.9333067
vn 0.2734189 0.2327679 0.9333067
vn 0.9664109 0.1343027 0.2191183
vn 0.9664109 0.1343027 0.2191183
vn 0.9664109 0.1343027 0.2191183
vn 0.9664109 0.1343027 0.2191183
vn 0.6929923 -0.09846248 -0.7141895
vn 0.6929923 -0.09846248 -0.7141895
vn 0.6929923 -0.09846248 -0.7141895
vn 0.6929923 -0.09846248 -0.7141895
vn -0.08584981 0.972312 -0.217346
vn -0.08584979 0.972312 -0.217346
vn -0.08584978 0.972312 -0.217346
vn -0.08584978 0.972312 -0.217346
vn -0.08584978 0.972312 -0.217346
vn -0.08584975 0.972312 -0.217346
vn -0.08584973 0.972312 -0.217346

vt 0.5786133 0.4702148
vt 0.5786133 0.4702148
vt 0.5786133 0.4702148
vt 0.5786133 0.4702148
vt 0.5786133 0.4702148
vt 0.5786133 0.4702148
vt 0.5786133 0.4702148
vt 0.5786133 0.4702148
vt 0.5786133 0.4702148
vt 0.5786133 0.4702148
vt 0.5786133 0.4702148
vt 0.5786133 0.4702148
vt 0.5786133 0.4702148
vt 0.5786133 0.4702148
vt 0.5786133 0.4702148
vt 0.5786133 0.4702148
vt 0.5786133 0.4702148
vt 0.5786133 0.4702148
vt 0.5786133 0.4702148
vt 0.5786133 0.4702148
vt 0.5786133 0.4702148
vt 0.5786133 0.4702148
vt 0.5786133 0.4702148
vt 0.5786133 0.4702148
vt 0.6494141 0.4702148
vt 0.6494141 0.4702148
vt 0.6494141 0.4702148
vt 0.6494141 0.4702148
vt 0.6494141 0.4702148
vt 0.6494141 0.4702148
vt 0.6494141 0.4702148
vt 0.5786133 0.4702148
vt 0.5786133 0.4702148
vt 0.5786133 0.4702148
vt 0.5786133 0.4702148
vt 0.5786133 0.4702148
vt 0.5786133 0.4702148
vt 0.5786133 0.4702148
vt 0.5786133 0.4702148
vt 0.5786133 0.4702148
vt 0.5786133 0.4702148
vt 0.5786133 0.4702148
vt 0.5786133 0.4702148
vt 0.5786133 0.4702148
vt 0.5786133 0.4702148
vt 0.5786133 0.4702148
vt 0.5786133 0.4702148
vt 0.5786133 0.4702148
vt 0.5786133 0.4702148
vt 0.5786133 0.4702148
vt 0.5786133 0.4702148
vt 0.5786133 0.4702148
vt 0.5786133 0.4702148
vt 0.5786133 0.4702148
vt 0.5786133 0.4702148
vt 0.6494141 0.4702148
vt 0.6494141 0.4702148
vt 0.6494141 0.4702148
vt 0.6494141 0.4702148
vt 0.6494141 0.4702148
vt 0.6494141 0.4702148
vt 0.6494141 0.4702148
vt 0.5786133 0.4702148
vt 0.5786133 0.4702148
vt 0.5786133 0.4702148
vt 0.5786133 0.4702148
vt 0.5786133 0.4702148
vt 0.5786133 0.4702148
vt 0.5786133 0.4702148
vt 0.5786133 0.4702148
vt 0.5786133 0.4702148
vt 0.5786133 0.4702148
vt 0.5786133 0.4702148
vt 0.5786133 0.4702148
vt 0.5786133 0.4702148
vt 0.5786133 0.4702148
vt 0.5786133 0.4702148
vt 0.5786133 0.4702148
vt 0.5786133 0.4702148
vt 0.5786133 0.4702148
vt 0.5786133 0.4702148
vt 0.5786133 0.4702148
vt 0.5786133 0.4702148
vt 0.5786133 0.4702148
vt 0.5786133 0.4702148
vt 0.5786133 0.4702148
vt 0.6494141 0.4702148
vt 0.6494141 0.4702148
vt 0.6494141 0.4702148
vt 0.6494141 0.4702148
vt 0.6494141 0.4702148
vt 0.6494141 0.4702148
vt 0.6494141 0.4702148

g SD_Prop_Coin_02_2731_54
usemtl SD_Prop_Coin_02_2731_54
usemap SD_Prop_Coin_02_2731_54
f 1/1/1 3/3/3 2/2/2
f 1/1/1 4/4/4 3/3/3
f 5/5/5 7/7/7 6/6/6
f 5/5/5 8/8/8 7/7/7
f 9/9/9 11/11/11 10/10/10
f 9/9/9 12/12/12 11/11/11
f 13/13/13 15/15/15 14/14/14
f 13/13/13 16/16/16 15/15/15
f 17/17/17 19/19/19 18/18/18
f 17/17/17 20/20/20 19/19/19
f 21/21/21 23/23/23 22/22/22
f 21/21/21 24/24/24 23/23/23
f 25/25/25 27/27/27 26/26/26
f 27/27/27 25/25/25 28/28/28
f 28/28/28 26/26/26 27/27/27
f 28/28/28 25/25/25 29/29/29
f 30/30/30 26/26/26 28/28/28
f 26/26/26 30/30/30 31/31/31
f 32/32/32 34/34/34 33/33/33
f 32/32/32 35/35/35 34/34/34
f 36/36/36 38/38/38 37/37/37
f 36/36/36 39/39/39 38/38/38
f 40/40/40 42/42/42 41/41/41
f 40/40/40 43/43/43 42/42/42
f 44/44/44 46/46/46 45/45/45
f 44/44/44 47/47/47 46/46/46
f 48/48/48 50/50/50 49/49/49
f 48/48/48 51/51/51 50/50/50
f 52/52/52 54/54/54 53/53/53
f 52/52/52 55/55/55 54/54/54
f 56/56/56 58/58/58 57/57/57
f 58/58/58 56/56/56 59/59/59
f 59/59/59 57/57/57 58/58/58
f 59/59/59 56/56/56 60/60/60
f 61/61/61 57/57/57 59/59/59
f 57/57/57 61/61/61 62/62/62
f 63/63/63 65/65/65 64/64/64
f 63/63/63 66/66/66 65/65/65
f 67/67/67 69/69/69 68/68/68
f 67/67/67 70/70/70 69/69/69
f 71/71/71 73/73/73 72/72/72
f 71/71/71 74/74/74 73/73/73
f 75/75/75 77/77/77 76/76/76
f 75/75/75 78/78/78 77/77/77
f 79/79/79 81/81/81 80/80/80
f 79/79/79 82/82/82 81/81/81
f 83/83/83 85/85/85 84/84/84
f 83/83/83 86/86/86 85/85/85
f 87/87/87 89/89/89 88/88/88
f 89/89/89 87/87/87 90/90/90
f 90/90/90 87/87/87 91/91/91
f 90/90/90 92/92/92 89/89/89
f 92/92/92 90/90/90 91/91/91
f 92/92/92 91/91/91 93/93/93
