#SD_Prop_BloodSplat_10_2723_117.obj

v -0.146799 0.01461395 0.1398439
v -0.1552742 0.01461395 0.1881754
v -0.2096131 0.01461395 0.1874173
v -0.2322143 0.01461395 0.1479494
v -0.2135488 0.01461395 0.1128911
v -0.1769488 0.01461395 0.104133
v -0.06434289 0.01480373 -0.1881789
v 0.02763012 0.01480373 -0.1613494
v 0.04074215 0.01480373 -0.07746563
v -0.09501217 0.01480373 -0.05949654
v -0.2356164 0.01480373 -0.09815039
v -0.2087854 0.01480373 -0.1834593
v -0.1866908 0.01480373 0.03884061
v -0.08454004 0.01480373 0.1058906
v 0.007431686 0.01480373 0.0790612
v 0.1462666 0.01473125 -0.02757002
v 0.2256348 0.01473125 0.0008944322
v 0.2356121 0.01473125 0.07871953
v 0.1621734 0.01473125 0.1054717
v 0.1082544 0.01473125 0.06362412
v 0.1041111 0.01473125 -0.000909783

vn 0 0.9999998 0
vn 0 0.9999998 0
vn 0 0.9999998 0
vn 0 0.9999998 0
vn 0 0.9999998 0
vn 0 0.9999998 0
vn 0 0.9999998 0
vn 0 0.9999998 0
vn 0 0.9999998 0
vn 0 0.9999998 0
vn 0 0.9999998 0
vn 0 0.9999998 0
vn 0 0.9999998 0
vn 0 0.9999998 0
vn 0 0.9999998 0
vn 0 0.9999998 0
vn 0 0.9999998 0
vn 0 0.9999998 0
vn 0 0.9999998 0
vn 0 0.9999998 0
vn 0 0.9999998 0

vt 0.1401367 0.180542
vt 0.1401367 0.180542
vt 0.1401367 0.180542
vt 0.1401367 0.180542
vt 0.1401367 0.180542
vt 0.1401367 0.180542
vt 0.1401367 0.180542
vt 0.1401367 0.180542
vt 0.1401367 0.180542
vt 0.1401367 0.180542
vt 0.1401367 0.180542
vt 0.1401367 0.180542
vt 0.1401367 0.180542
vt 0.1401367 0.180542
vt 0.1401367 0.180542
vt 0.1401367 0.180542
vt 0.1401367 0.180542
vt 0.1401367 0.180542
vt 0.1401367 0.180542
vt 0.1401367 0.180542
vt 0.1401367 0.180542

g SD_Prop_BloodSplat_10_2723_117
usemtl SD_Prop_BloodSplat_10_2723_117
usemap SD_Prop_BloodSplat_10_2723_117
f 1/1/1 3/3/3 2/2/2
f 1/1/1 4/4/4 3/3/3
f 5/5/5 4/4/4 1/1/1
f 5/5/5 1/1/1 6/6/6
f 7/7/7 9/9/9 8/8/8
f 7/7/7 10/10/10 9/9/9
f 11/11/11 10/10/10 7/7/7
f 11/11/11 7/7/7 12/12/12
f 13/13/13 10/10/10 11/11/11
f 13/13/13 14/14/14 10/10/10
f 9/9/9 10/10/10 14/14/14
f 9/9/9 14/14/14 15/15/15
f 16/16/16 18/18/18 17/17/17
f 16/16/16 19/19/19 18/18/18
f 20/20/20 19/19/19 16/16/16
f 20/20/20 16/16/16 21/21/21
