#SD_Prop_Bench_01_2497_200.obj

v 1.578934 0.6332275 -0.4090924
v 1.578934 0.8191962 -0.4090924
v -1.578937 0.8191965 -0.409093
v -1.578937 0.6332278 -0.409093
v 1.578934 0.8191962 -0.4090924
v 1.578934 0.8191962 0.4090878
v -1.578937 0.8191965 0.4090873
v -1.578937 0.8191965 -0.409093
v 1.578934 0.6332276 0.4090878
v 1.578934 0.6332275 -0.4090924
v -1.578937 0.6332278 -0.409093
v -1.578937 0.6332279 0.4090873
v -1.578937 0.6332278 -0.409093
v -1.578937 0.8191965 -0.409093
v -1.578937 0.8191965 0.4090873
v -1.578937 0.6332279 0.4090873
v 1.578934 0.6332276 0.4090878
v 1.578934 0.8191962 0.4090878
v 1.578934 0.8191962 -0.4090924
v 1.578934 0.6332275 -0.4090924
v -1.578937 0.8191965 0.4090873
v 1.578934 0.8191962 0.4090878
v 1.578934 0.6332276 0.4090878
v -1.578937 0.6332279 0.4090873
v 1.492138 -4.919217E-08 -0.3223025
v 1.492138 0.6332275 -0.3223023
v 1.37246 0.6332275 -0.3223023
v 1.37246 -4.004931E-08 -0.3223025
v 1.492138 0.6332276 -0.2026162
v 1.492138 -2.932538E-08 -0.2026162
v 1.37246 -2.018254E-08 -0.2026163
v 1.37246 0.6332276 -0.2026162
v 1.492138 -2.932538E-08 -0.2026162
v 1.492138 -4.919217E-08 -0.3223025
v 1.37246 -4.004931E-08 -0.3223025
v 1.37246 -2.018254E-08 -0.2026163
v 1.37246 -4.004931E-08 -0.3223025
v 1.37246 0.6332275 -0.3223023
v 1.37246 0.6332276 -0.2026162
v 1.37246 -2.018254E-08 -0.2026163
v 1.492138 -2.932538E-08 -0.2026162
v 1.492138 0.6332276 -0.2026162
v 1.492138 0.6332275 -0.3223023
v 1.492138 -4.919217E-08 -0.3223025
v -1.372444 1.696479E-07 -0.3223028
v -1.372444 0.6332278 -0.3223029
v -1.492141 0.6332278 -0.3223029
v -1.492141 1.787922E-07 -0.3223028
v -1.372444 0.6332278 -0.2026167
v -1.372444 1.895147E-07 -0.2026167
v -1.492141 1.98659E-07 -0.2026167
v -1.492141 0.6332278 -0.2026168
v -1.372444 1.895147E-07 -0.2026167
v -1.372444 1.696479E-07 -0.3223028
v -1.492141 1.787922E-07 -0.3223028
v -1.492141 1.98659E-07 -0.2026167
v -1.492141 1.787922E-07 -0.3223028
v -1.492141 0.6332278 -0.3223029
v -1.492141 0.6332278 -0.2026168
v -1.492141 1.98659E-07 -0.2026167
v -1.372444 1.895147E-07 -0.2026167
v -1.372444 0.6332278 -0.2026167
v -1.372444 0.6332278 -0.3223029
v -1.372444 1.696479E-07 -0.3223028
v -1.372444 2.568711E-07 0.2031681
v -1.372444 0.6332278 0.203168
v -1.492141 0.6332278 0.203168
v -1.492142 2.660154E-07 0.2031679
v -1.372444 0.6332279 0.322858
v -1.372444 2.767385E-07 0.322858
v -1.492142 2.858828E-07 0.322858
v -1.492142 0.6332279 0.3228579
v -1.372444 2.767385E-07 0.322858
v -1.372444 2.568711E-07 0.2031681
v -1.492142 2.660154E-07 0.2031679
v -1.492142 2.858828E-07 0.322858
v -1.492142 2.660154E-07 0.2031679
v -1.492141 0.6332278 0.203168
v -1.492142 0.6332279 0.3228579
v -1.492142 2.858828E-07 0.322858
v -1.372444 2.767385E-07 0.322858
v -1.372444 0.6332279 0.322858
v -1.372444 0.6332278 0.203168
v -1.372444 2.568711E-07 0.2031681
v 1.492138 3.803106E-08 0.2031684
v 1.492138 0.6332276 0.2031684
v 1.37246 0.6332276 0.2031684
v 1.37246 4.717391E-08 0.2031684
v 1.492138 0.6332276 0.3228585
v 1.492138 5.789847E-08 0.3228584
v 1.37246 6.704132E-08 0.3228584
v 1.37246 0.6332276 0.3228585
v 1.492138 5.789847E-08 0.3228584
v 1.492138 3.803106E-08 0.2031684
v 1.37246 4.717391E-08 0.2031684
v 1.37246 6.704132E-08 0.3228584
v 1.37246 4.717391E-08 0.2031684
v 1.37246 0.6332276 0.2031684
v 1.37246 0.6332276 0.3228585
v 1.37246 6.704132E-08 0.3228584
v 1.492138 5.789847E-08 0.3228584
v 1.492138 0.6332276 0.3228585
v 1.492138 0.6332276 0.2031684
v 1.492138 3.803106E-08 0.2031684

vn -8.940695E-08 -8.331686E-08 -0.9999999
vn -8.940695E-08 -8.331686E-08 -0.9999999
vn -8.940695E-08 -8.331686E-08 -0.9999999
vn -8.940695E-08 -8.331686E-08 -0.9999999
vn -2.685623E-08 0.9999998 8.331686E-08
vn -2.685623E-08 0.9999998 8.331686E-08
vn -2.685623E-08 0.9999998 8.331686E-08
vn -2.685623E-08 0.9999998 8.331686E-08
vn 2.685623E-08 -0.9999998 -8.331686E-08
vn 2.685623E-08 -0.9999998 -8.331686E-08
vn 2.685623E-08 -0.9999998 -8.331686E-08
vn 2.685623E-08 -0.9999998 -8.331686E-08
vn -1 2.685623E-08 -8.940695E-08
vn -1 2.685623E-08 -8.940695E-08
vn -1 2.685623E-08 -8.940695E-08
vn -1 2.685623E-08 -8.940695E-08
vn 1 -2.685623E-08 8.940695E-08
vn 1 -2.685623E-08 8.940695E-08
vn 1 -2.685623E-08 8.940695E-08
vn 1 -2.685623E-08 8.940695E-08
vn 8.940695E-08 8.331686E-08 0.9999999
vn 8.940695E-08 8.331686E-08 0.9999999
vn 8.940695E-08 8.331686E-08 0.9999999
vn 8.940695E-08 8.331686E-08 0.9999999
vn -8.940695E-08 -8.331686E-08 -0.9999999
vn -8.940695E-08 -8.331686E-08 -0.9999999
vn -8.940695E-08 -8.331686E-08 -0.9999999
vn -8.940695E-08 -8.331686E-08 -0.9999999
vn 8.940695E-08 8.331686E-08 0.9999999
vn 8.940695E-08 8.331686E-08 0.9999999
vn 8.940695E-08 8.331686E-08 0.9999999
vn 8.940695E-08 8.331686E-08 0.9999999
vn 2.685623E-08 -0.9999998 -8.331686E-08
vn 2.685623E-08 -0.9999998 -8.331686E-08
vn 2.685623E-08 -0.9999998 -8.331686E-08
vn 2.685623E-08 -0.9999998 -8.331686E-08
vn -1 2.685623E-08 -8.940695E-08
vn -1 2.685623E-08 -8.940695E-08
vn -1 2.685623E-08 -8.940695E-08
vn -1 2.685623E-08 -8.940695E-08
vn 1 -2.685623E-08 8.940695E-08
vn 1 -2.685623E-08 8.940695E-08
vn 1 -2.685623E-08 8.940695E-08
vn 1 -2.685623E-08 8.940695E-08
vn -8.940695E-08 -8.331686E-08 -0.9999999
vn -8.940695E-08 -8.331686E-08 -0.9999999
vn -8.940695E-08 -8.331686E-08 -0.9999999
vn -8.940695E-08 -8.331686E-08 -0.9999999
vn 8.940695E-08 8.331686E-08 0.9999999
vn 8.940695E-08 8.331686E-08 0.9999999
vn 8.940695E-08 8.331686E-08 0.9999999
vn 8.940695E-08 8.331686E-08 0.9999999
vn 2.685623E-08 -0.9999998 -8.331686E-08
vn 2.685623E-08 -0.9999998 -8.331686E-08
vn 2.685623E-08 -0.9999998 -8.331686E-08
vn 2.685623E-08 -0.9999998 -8.331686E-08
vn -1 2.685623E-08 -8.940695E-08
vn -1 2.685623E-08 -8.940695E-08
vn -1 2.685623E-08 -8.940695E-08
vn -1 2.685623E-08 -8.940695E-08
vn 1 -2.685623E-08 8.940695E-08
vn 1 -2.685623E-08 8.940695E-08
vn 1 -2.685623E-08 8.940695E-08
vn 1 -2.685623E-08 8.940695E-08
vn -8.940695E-08 -8.331686E-08 -0.9999999
vn -8.940695E-08 -8.331686E-08 -0.9999999
vn -8.940695E-08 -8.331686E-08 -0.9999999
vn -8.940695E-08 -8.331686E-08 -0.9999999
vn 8.940695E-08 8.331686E-08 0.9999999
vn 8.940695E-08 8.331686E-08 0.9999999
vn 8.940695E-08 8.331686E-08 0.9999999
vn 8.940695E-08 8.331686E-08 0.9999999
vn 2.685623E-08 -0.9999998 -8.331686E-08
vn 2.685623E-08 -0.9999998 -8.331686E-08
vn 2.685623E-08 -0.9999998 -8.331686E-08
vn 2.685623E-08 -0.9999998 -8.331686E-08
vn -1 2.685623E-08 -8.940695E-08
vn -1 2.685623E-08 -8.940695E-08
vn -1 2.685623E-08 -8.940695E-08
vn -1 2.685623E-08 -8.940695E-08
vn 1 -2.685623E-08 8.940695E-08
vn 1 -2.685623E-08 8.940695E-08
vn 1 -2.685623E-08 8.940695E-08
vn 1 -2.685623E-08 8.940695E-08
vn -8.940695E-08 -8.331686E-08 -0.9999999
vn -8.940695E-08 -8.331686E-08 -0.9999999
vn -8.940695E-08 -8.331686E-08 -0.9999999
vn -8.940695E-08 -8.331686E-08 -0.9999999
vn 8.940695E-08 8.331686E-08 0.9999999
vn 8.940695E-08 8.331686E-08 0.9999999
vn 8.940695E-08 8.331686E-08 0.9999999
vn 8.940695E-08 8.331686E-08 0.9999999
vn 2.685623E-08 -0.9999998 -8.331686E-08
vn 2.685623E-08 -0.9999998 -8.331686E-08
vn 2.685623E-08 -0.9999998 -8.331686E-08
vn 2.685623E-08 -0.9999998 -8.331686E-08
vn -1 2.685623E-08 -8.940695E-08
vn -1 2.685623E-08 -8.940695E-08
vn -1 2.685623E-08 -8.940695E-08
vn -1 2.685623E-08 -8.940695E-08
vn 1 -2.685623E-08 8.940695E-08
vn 1 -2.685623E-08 8.940695E-08
vn 1 -2.685623E-08 8.940695E-08
vn 1 -2.685623E-08 8.940695E-08

vt 0.2341309 0.5117188
vt 0.2341309 0.5117188
vt 0.2341309 0.5117188
vt 0.2341309 0.5117188
vt 0.2653809 0.5117188
vt 0.2653809 0.5117188
vt 0.2653809 0.5117188
vt 0.2653809 0.5117188
vt 0.1688232 0.5117188
vt 0.1688232 0.5117188
vt 0.1688232 0.5117188
vt 0.1688232 0.5117188
vt 0.2023926 0.5117188
vt 0.2023926 0.5117188
vt 0.2023926 0.5117188
vt 0.2023926 0.5117188
vt 0.2023926 0.5117188
vt 0.2023926 0.5117188
vt 0.2023926 0.5117188
vt 0.2023926 0.5117188
vt 0.229126 0.5117188
vt 0.229126 0.5117188
vt 0.229126 0.5117188
vt 0.229126 0.5117188
vt 0.2341309 0.5117188
vt 0.2341309 0.5117188
vt 0.2341309 0.5117188
vt 0.2341309 0.5117188
vt 0.2341309 0.5117188
vt 0.2341309 0.5117188
vt 0.2341309 0.5117188
vt 0.2341309 0.5117188
vt 0.1688232 0.5117188
vt 0.1688232 0.5117188
vt 0.1688232 0.5117188
vt 0.1688232 0.5117188
vt 0.2023926 0.5117188
vt 0.2023926 0.5117188
vt 0.2023926 0.5117188
vt 0.2023926 0.5117188
vt 0.2023926 0.5117188
vt 0.2023926 0.5117188
vt 0.2023926 0.5117188
vt 0.2023926 0.5117188
vt 0.2341309 0.5117188
vt 0.2341309 0.5117188
vt 0.2341309 0.5117188
vt 0.2341309 0.5117188
vt 0.2341309 0.5117188
vt 0.2341309 0.5117188
vt 0.2341309 0.5117188
vt 0.2341309 0.5117188
vt 0.1688232 0.5117188
vt 0.1688232 0.5117188
vt 0.1688232 0.5117188
vt 0.1688232 0.5117188
vt 0.2023926 0.5117188
vt 0.2023926 0.5117188
vt 0.2023926 0.5117188
vt 0.2023926 0.5117188
vt 0.2023926 0.5117188
vt 0.2023926 0.5117188
vt 0.2023926 0.5117188
vt 0.2023926 0.5117188
vt 0.2341309 0.5117188
vt 0.2341309 0.5117188
vt 0.2341309 0.5117188
vt 0.2341309 0.5117188
vt 0.2341309 0.5117188
vt 0.2341309 0.5117188
vt 0.2341309 0.5117188
vt 0.2341309 0.5117188
vt 0.1688232 0.5117188
vt 0.1688232 0.5117188
vt 0.1688232 0.5117188
vt 0.1688232 0.5117188
vt 0.2023926 0.5117188
vt 0.2023926 0.5117188
vt 0.2023926 0.5117188
vt 0.2023926 0.5117188
vt 0.2023926 0.5117188
vt 0.2023926 0.5117188
vt 0.2023926 0.5117188
vt 0.2023926 0.5117188
vt 0.2341309 0.5117188
vt 0.2341309 0.5117188
vt 0.2341309 0.5117188
vt 0.2341309 0.5117188
vt 0.2341309 0.5117188
vt 0.2341309 0.5117188
vt 0.2341309 0.5117188
vt 0.2341309 0.5117188
vt 0.1688232 0.5117188
vt 0.1688232 0.5117188
vt 0.1688232 0.5117188
vt 0.1688232 0.5117188
vt 0.2023926 0.5117188
vt 0.2023926 0.5117188
vt 0.2023926 0.5117188
vt 0.2023926 0.5117188
vt 0.2023926 0.5117188
vt 0.2023926 0.5117188
vt 0.2023926 0.5117188
vt 0.2023926 0.5117188

g SD_Prop_Bench_01_2497_200
usemtl SD_Prop_Bench_01_2497_200
usemap SD_Prop_Bench_01_2497_200
f 1/1/1 3/3/3 2/2/2
f 1/1/1 4/4/4 3/3/3
f 5/5/5 7/7/7 6/6/6
f 5/5/5 8/8/8 7/7/7
f 9/9/9 11/11/11 10/10/10
f 9/9/9 12/12/12 11/11/11
f 13/13/13 15/15/15 14/14/14
f 13/13/13 16/16/16 15/15/15
f 17/17/17 19/19/19 18/18/18
f 17/17/17 20/20/20 19/19/19
f 21/21/21 23/23/23 22/22/22
f 21/21/21 24/24/24 23/23/23
f 25/25/25 27/27/27 26/26/26
f 25/25/25 28/28/28 27/27/27
f 29/29/29 31/31/31 30/30/30
f 29/29/29 32/32/32 31/31/31
f 33/33/33 35/35/35 34/34/34
f 33/33/33 36/36/36 35/35/35
f 37/37/37 39/39/39 38/38/38
f 37/37/37 40/40/40 39/39/39
f 41/41/41 43/43/43 42/42/42
f 41/41/41 44/44/44 43/43/43
f 45/45/45 47/47/47 46/46/46
f 45/45/45 48/48/48 47/47/47
f 49/49/49 51/51/51 50/50/50
f 49/49/49 52/52/52 51/51/51
f 53/53/53 55/55/55 54/54/54
f 53/53/53 56/56/56 55/55/55
f 57/57/57 59/59/59 58/58/58
f 57/57/57 60/60/60 59/59/59
f 61/61/61 63/63/63 62/62/62
f 61/61/61 64/64/64 63/63/63
f 65/65/65 67/67/67 66/66/66
f 65/65/65 68/68/68 67/67/67
f 69/69/69 71/71/71 70/70/70
f 69/69/69 72/72/72 71/71/71
f 73/73/73 75/75/75 74/74/74
f 73/73/73 76/76/76 75/75/75
f 77/77/77 79/79/79 78/78/78
f 77/77/77 80/80/80 79/79/79
f 81/81/81 83/83/83 82/82/82
f 81/81/81 84/84/84 83/83/83
f 85/85/85 87/87/87 86/86/86
f 85/85/85 88/88/88 87/87/87
f 89/89/89 91/91/91 90/90/90
f 89/89/89 92/92/92 91/91/91
f 93/93/93 95/95/95 94/94/94
f 93/93/93 96/96/96 95/95/95
f 97/97/97 99/99/99 98/98/98
f 97/97/97 100/100/100 99/99/99
f 101/101/101 103/103/103 102/102/102
f 101/101/101 104/104/104 103/103/103
