#SD_Prop_Torch_11_(1)_2575_150.obj

v 0.08617714 0.7139682 0.8150866
v -0.08614636 0.7139682 0.8150866
v -0.08614637 0.7682858 0.6515513
v 0.08617713 0.7682858 0.6515513
v 0.1730269 0.4990677 0.8350227
v 0.08617714 0.7139682 0.8150866
v 0.08617713 0.7682858 0.6515513
v 0.1730269 0.6081367 0.5066353
v 0.1730269 0.6081367 0.5066353
v 0.08617713 0.7682858 0.6515513
v -0.08614637 0.7682858 0.6515513
v -0.1729961 0.6081367 0.5066353
v -0.1729961 0.6081367 0.5066353
v -0.08614637 0.7682858 0.6515513
v -0.08614636 0.7139682 0.8150866
v -0.1729961 0.4990677 0.8350153
v -0.1729961 0.4990677 0.8350153
v -0.08614636 0.7139682 0.8150866
v 0.08617714 0.7139682 0.8150866
v 0.1730269 0.4990677 0.8350227

vn 1.458066E-08 0.9490227 0.3152069
vn 1.458066E-08 0.9490227 0.3152069
vn 1.458066E-08 0.9490227 0.3152069
vn 1.458066E-08 0.9490227 0.3152069
vn 0.9155219 0.3817613 0.1267979
vn 0.9155219 0.3817613 0.1267979
vn 0.9155219 0.3817613 0.1267979
vn 0.9155219 0.3817613 0.1267979
vn -7.328973E-08 0.6709542 -0.7414984
vn -7.328973E-08 0.6709542 -0.7414984
vn -7.328973E-08 0.6709542 -0.7414984
vn -7.328973E-08 0.6709542 -0.7414984
vn -0.9155219 0.3817613 0.1267977
vn -0.9155219 0.3817613 0.1267977
vn -0.9155219 0.3817613 0.1267977
vn -0.9155219 0.3817613 0.1267977
vn 8.507804E-08 0.09235784 0.9957259
vn 8.507804E-08 0.09235784 0.9957259
vn 8.507804E-08 0.09235784 0.9957259
vn 8.507804E-08 0.09235784 0.9957259

vt 0.2607422 0.3986816
vt 0.2607422 0.3986816
vt 0.2607422 0.3986816
vt 0.2607422 0.3986816
vt 0.2607422 0.3986816
vt 0.2607422 0.3986816
vt 0.2607422 0.3986816
vt 0.2607422 0.3986816
vt 0.2607422 0.3986816
vt 0.2607422 0.3986816
vt 0.2607422 0.3986816
vt 0.2607422 0.3986816
vt 0.2607422 0.3986816
vt 0.2607422 0.3986816
vt 0.2607422 0.3986816
vt 0.2607422 0.3986816
vt 0.2607422 0.3986816
vt 0.2607422 0.3986816
vt 0.2607422 0.3986816
vt 0.2607422 0.3986816

g SD_Prop_Torch_11_(1)_2575_150
usemtl SD_Prop_Torch_11_(1)_2575_150
usemap SD_Prop_Torch_11_(1)_2575_150
f 1/1/1 3/3/3 2/2/2
f 1/1/1 4/4/4 3/3/3
f 5/5/5 7/7/7 6/6/6
f 5/5/5 8/8/8 7/7/7
f 9/9/9 11/11/11 10/10/10
f 9/9/9 12/12/12 11/11/11
f 13/13/13 15/15/15 14/14/14
f 13/13/13 16/16/16 15/15/15
f 17/17/17 19/19/19 18/18/18
f 17/17/17 20/20/20 19/19/19
