#SD_Prop_Pot_Large_03_2432_157.obj

v -0.2681592 1.533779 0.2681607
v -0.2681592 1.657656 0.2681607
v 0.2681567 1.657656 0.2681608
v 0.2681567 1.533779 0.2681608
v -0.1037152 1.533 0.1037091
v -0.1037152 1.533 -0.1037188
v 0.1037128 1.533 -0.1037188
v 0.1037128 1.533 0.1037091
v -0.2681592 1.657656 -0.2681705
v -0.2681592 1.533779 -0.2681706
v 0.2681567 1.533779 -0.2681704
v 0.2681568 1.657656 -0.2681704
v -0.2190717 0.01476005 -0.2190906
v -0.2190718 0.01476012 0.2190808
v 0.2190691 0.01476009 0.2190808
v 0.2190692 0.01476001 -0.2190906
v 0.2681567 1.533779 0.2681608
v 0.2681567 1.657656 0.2681608
v 0.2681568 1.657656 -0.2681704
v 0.2681567 1.533779 -0.2681704
v -0.2681592 1.533779 -0.2681706
v -0.2681592 1.657656 -0.2681705
v -0.2681592 1.657656 0.2681607
v -0.2681592 1.533779 0.2681607
v -0.2681592 1.657656 0.2681607
v -0.1508649 1.657656 0.1508588
v 0.1508624 1.657656 0.1508588
v 0.2681567 1.657656 0.2681608
v 0.1508624 1.657656 -0.1508685
v 0.2681568 1.657656 -0.2681704
v -0.1508649 1.657656 -0.1508685
v -0.2681592 1.657656 -0.2681705
v -0.1508649 1.657656 0.1508588
v -0.1037152 1.533 0.1037091
v 0.1037128 1.533 0.1037091
v 0.1508624 1.657656 0.1508588
v 0.1508624 1.657656 0.1508588
v 0.1037128 1.533 0.1037091
v 0.1037128 1.533 -0.1037188
v 0.1508624 1.657656 -0.1508685
v 0.1508624 1.657656 -0.1508685
v 0.1037128 1.533 -0.1037188
v -0.1037152 1.533 -0.1037188
v -0.1508649 1.657656 -0.1508685
v -0.1508649 1.657656 -0.1508685
v -0.1037152 1.533 -0.1037188
v -0.1037152 1.533 0.1037091
v -0.1508649 1.657656 0.1508588
v -0.4605576 1.170691 -0.4605534
v -0.2047894 1.350553 -0.2048085
v -0.2047895 1.350553 0.2047986
v -0.4605573 1.170691 0.4605435
v -0.4605573 1.170691 0.4605435
v -0.2047895 1.350553 0.2047986
v 0.2048175 1.350553 0.2047987
v 0.4605547 1.170691 0.4605436
v 0.4605547 1.170691 0.4605436
v 0.2048175 1.350553 0.2047987
v 0.2048175 1.350553 -0.2048083
v 0.4605548 1.170691 -0.4605533
v -0.2047894 1.350553 -0.2048085
v -0.4605576 1.170691 -0.4605534
v 0.4605548 1.170691 -0.4605533
v 0.2048175 1.350553 -0.2048083
v -0.3618482 0.2141758 -0.3618442
v -0.4605576 1.007764 -0.4605534
v -0.4605573 1.007764 0.4605436
v -0.3618482 0.214176 0.3618344
v -0.3618482 0.214176 0.3618344
v -0.4605573 1.007764 0.4605436
v 0.4605547 1.007764 0.4605436
v 0.3618456 0.2141759 0.3618346
v 0.3618456 0.2141759 0.3618346
v 0.4605547 1.007764 0.4605436
v 0.4605548 1.007764 -0.4605533
v 0.3618456 0.2141758 -0.3618442
v -0.4605576 1.007764 -0.4605534
v -0.3618482 0.2141758 -0.3618442
v 0.3618456 0.2141758 -0.3618442
v 0.4605548 1.007764 -0.4605533
v -0.2190717 0.01476005 -0.2190906
v -0.3618482 0.2141758 -0.3618442
v -0.3618482 0.214176 0.3618344
v -0.2190718 0.01476012 0.2190808
v -0.2190718 0.01476012 0.2190808
v -0.3618482 0.214176 0.3618344
v 0.3618456 0.2141759 0.3618346
v 0.2190691 0.01476009 0.2190808
v 0.2190691 0.01476009 0.2190808
v 0.3618456 0.2141759 0.3618346
v 0.3618456 0.2141758 -0.3618442
v 0.2190692 0.01476001 -0.2190906
v -0.3618482 0.2141758 -0.3618442
v -0.2190717 0.01476005 -0.2190906
v 0.2190692 0.01476001 -0.2190906
v 0.3618456 0.2141758 -0.3618442
v -0.2047895 1.350553 0.2047986
v -0.2681592 1.533779 0.2681607
v 0.2681567 1.533779 0.2681608
v 0.2048175 1.350553 0.2047987
v -0.2047894 1.350553 -0.2048085
v -0.2681592 1.533779 -0.2681706
v -0.2681592 1.533779 0.2681607
v -0.2047895 1.350553 0.2047986
v -0.2681592 1.533779 -0.2681706
v -0.2047894 1.350553 -0.2048085
v 0.2048175 1.350553 -0.2048083
v 0.2681567 1.533779 -0.2681704
v 0.2048175 1.350553 0.2047987
v 0.2681567 1.533779 0.2681608
v 0.2681567 1.533779 -0.2681704
v 0.2048175 1.350553 -0.2048083
v -0.4605576 1.007764 -0.4605534
v -0.4605576 1.170691 -0.4605534
v -0.4605573 1.170691 0.4605435
v -0.4605573 1.007764 0.4605436
v -0.4605576 1.170691 -0.4605534
v -0.4605576 1.007764 -0.4605534
v 0.4605548 1.007764 -0.4605533
v 0.4605548 1.170691 -0.4605533
v 0.4605547 1.007764 0.4605436
v 0.4605547 1.170691 0.4605436
v 0.4605548 1.170691 -0.4605533
v 0.4605548 1.007764 -0.4605533
v -0.4605573 1.007764 0.4605436
v -0.4605573 1.170691 0.4605435
v 0.4605547 1.170691 0.4605436
v 0.4605547 1.007764 0.4605436

vn 8.940695E-08 8.331686E-08 0.9999999
vn 8.940695E-08 8.331686E-08 0.9999999
vn 8.940695E-08 8.331686E-08 0.9999999
vn 8.940695E-08 8.331686E-08 0.9999999
vn -2.685623E-08 0.9999998 8.331686E-08
vn -2.685623E-08 0.9999998 8.331686E-08
vn -2.685623E-08 0.9999998 8.331686E-08
vn -2.685623E-08 0.9999998 8.331686E-08
vn -8.940695E-08 -8.331686E-08 -0.9999999
vn -8.940695E-08 -8.331686E-08 -0.9999999
vn -8.940695E-08 -8.331686E-08 -0.9999999
vn -8.940695E-08 -8.331686E-08 -0.9999999
vn 2.685623E-08 -0.9999998 -8.331686E-08
vn 2.685623E-08 -0.9999998 -8.331686E-08
vn 2.685623E-08 -0.9999998 -8.331686E-08
vn 2.685623E-08 -0.9999998 -8.331686E-08
vn 1 -2.685623E-08 8.940695E-08
vn 1 -2.685623E-08 8.940695E-08
vn 1 -2.685623E-08 8.940695E-08
vn 1 -2.685623E-08 8.940695E-08
vn -1 2.685623E-08 -8.940695E-08
vn -1 2.685623E-08 -8.940695E-08
vn -1 2.685623E-08 -8.940695E-08
vn -1 2.685623E-08 -8.940695E-08
vn -2.685623E-08 0.9999998 8.331686E-08
vn -2.685623E-08 0.9999998 8.331686E-08
vn -2.685623E-08 0.9999998 8.331686E-08
vn -2.685623E-08 0.9999998 8.331686E-08
vn -2.685623E-08 0.9999998 8.331686E-08
vn -2.685623E-08 0.9999998 8.331686E-08
vn -2.685623E-08 0.9999998 8.331686E-08
vn -2.685623E-08 0.9999998 8.331686E-08
vn -9.312617E-08 0.3537676 -0.9353333
vn -9.312616E-08 0.3537676 -0.9353333
vn -9.312616E-08 0.3537676 -0.9353333
vn -9.312617E-08 0.3537676 -0.9353333
vn -0.9353012 0.3538525 -5.414055E-08
vn -0.9353012 0.3538525 -5.414054E-08
vn -0.9353012 0.3538525 -5.414054E-08
vn -0.9353012 0.3538525 -5.414055E-08
vn 7.412442E-08 0.3537678 0.9353333
vn 7.412443E-08 0.3537678 0.9353333
vn 7.412443E-08 0.3537678 0.9353333
vn 7.412442E-08 0.3537678 0.9353333
vn 0.9352835 0.3538994 1.131066E-07
vn 0.9352835 0.3538994 1.131066E-07
vn 0.9352835 0.3538994 1.131066E-07
vn 0.9352835 0.3538994 1.131066E-07
vn -0.5751628 0.8180388 1.673289E-08
vn -0.5751628 0.8180388 1.673288E-08
vn -0.5751629 0.8180388 1.673287E-08
vn -0.5751628 0.8180388 1.673288E-08
vn 2.946635E-08 0.8179594 0.5752759
vn 2.946634E-08 0.8179594 0.5752758
vn 2.946634E-08 0.8179594 0.5752758
vn 2.946634E-08 0.8179594 0.5752758
vn 0.5752617 0.8179693 1.19583E-07
vn 0.5752617 0.8179693 1.19583E-07
vn 0.5752617 0.8179693 1.19583E-07
vn 0.5752617 0.8179693 1.19583E-07
vn -7.340095E-08 0.8179595 -0.5752754
vn -7.340095E-08 0.8179594 -0.5752755
vn -7.340095E-08 0.8179595 -0.5752754
vn -7.340095E-08 0.8179594 -0.5752755
vn -1 2.685623E-08 -8.940695E-08
vn -0.9950813 -0.09906072 -9.722061E-08
vn -0.9950813 -0.09906074 -9.722062E-08
vn -1 2.685623E-08 -8.940695E-08
vn 8.940695E-08 8.331686E-08 0.9999999
vn 9.162758E-08 -0.09906074 0.9950812
vn 9.162758E-08 -0.09906074 0.9950812
vn 8.940695E-08 8.331686E-08 0.9999999
vn 1 -2.685623E-08 8.940695E-08
vn 0.9950813 -0.0990608 8.071375E-08
vn 0.9950813 -0.09906078 8.071375E-08
vn 1 -2.685623E-08 8.940695E-08
vn -8.630678E-08 -0.09906092 -0.9950812
vn -8.940695E-08 -8.331686E-08 -0.9999999
vn -8.940695E-08 -8.331686E-08 -0.9999999
vn -8.630678E-08 -0.09906092 -0.9950812
vn -0.7392259 -0.6734574 -1.222023E-07
vn -0.7392259 -0.6734574 -1.222023E-07
vn -0.7392259 -0.6734574 -1.222023E-07
vn -0.7392259 -0.6734574 -1.222023E-07
vn 8.417607E-08 -0.6735012 0.7391858
vn 8.417607E-08 -0.6735011 0.7391858
vn 8.417607E-08 -0.6735011 0.7391858
vn 8.417607E-08 -0.6735012 0.7391858
vn 0.7392259 -0.6734574 9.981569E-09
vn 0.7392259 -0.6734574 9.981569E-09
vn 0.7392259 -0.6734574 9.981569E-09
vn 0.7392259 -0.6734574 9.981569E-09
vn -4.800064E-08 -0.6735013 -0.7391859
vn -4.800064E-08 -0.6735013 -0.7391859
vn -4.800064E-08 -0.6735013 -0.7391859
vn -4.800064E-08 -0.6735013 -0.7391859
vn 9.327452E-08 -0.3268062 0.9450912
vn 9.327452E-08 -0.3268062 0.9450912
vn 9.327452E-08 -0.3268062 0.9450912
vn 9.327452E-08 -0.3268061 0.9450912
vn -0.9450096 -0.3270425 -1.117386E-07
vn -0.9450096 -0.3270425 -1.117386E-07
vn -0.9450096 -0.3270425 -1.117386E-07
vn -0.9450096 -0.3270425 -1.117386E-07
vn -7.572095E-08 -0.3268062 -0.9450912
vn -7.572095E-08 -0.3268062 -0.9450912
vn -7.572095E-08 -0.3268062 -0.9450912
vn -7.572095E-08 -0.3268062 -0.9450912
vn 0.9451691 -0.3265813 5.729495E-08
vn 0.9451691 -0.3265813 5.729495E-08
vn 0.9451691 -0.3265813 5.729495E-08
vn 0.9451691 -0.3265812 5.729495E-08
vn -0.9950813 -0.09906072 -9.722061E-08
vn -1 2.685623E-08 -8.940695E-08
vn -1 2.685623E-08 -8.940695E-08
vn -0.9950813 -0.09906074 -9.722062E-08
vn -8.940695E-08 -8.331686E-08 -0.9999999
vn -8.630678E-08 -0.09906092 -0.9950812
vn -8.630678E-08 -0.09906092 -0.9950812
vn -8.940695E-08 -8.331686E-08 -0.9999999
vn 0.9950813 -0.0990608 8.071375E-08
vn 1 -2.685623E-08 8.940695E-08
vn 1 -2.685623E-08 8.940695E-08
vn 0.9950813 -0.09906078 8.071375E-08
vn 9.162758E-08 -0.09906074 0.9950812
vn 8.940695E-08 8.331686E-08 0.9999999
vn 8.940695E-08 8.331686E-08 0.9999999
vn 9.162758E-08 -0.09906074 0.9950812

vt 0.6401367 0.4289551
vt 0.6401367 0.4289551
vt 0.6401367 0.4289551
vt 0.6401367 0.4289551
vt 0.5488281 0.4289551
vt 0.5488281 0.4289551
vt 0.5488281 0.4289551
vt 0.5488281 0.4289551
vt 0.6401367 0.4289551
vt 0.6401367 0.4289551
vt 0.6401367 0.4289551
vt 0.6401367 0.4289551
vt 0.5751953 0.4289551
vt 0.5751953 0.4289551
vt 0.5751953 0.4289551
vt 0.5751953 0.4289551
vt 0.6083984 0.4289551
vt 0.6083984 0.4289551
vt 0.6083984 0.4289551
vt 0.6083984 0.4289551
vt 0.6083984 0.4289551
vt 0.6083984 0.4289551
vt 0.6083984 0.4289551
vt 0.6083984 0.4289551
vt 0.671875 0.4289551
vt 0.671875 0.4289551
vt 0.671875 0.4289551
vt 0.671875 0.4289551
vt 0.671875 0.4289551
vt 0.671875 0.4289551
vt 0.671875 0.4289551
vt 0.671875 0.4289551
vt 0.6430664 0.4289551
vt 0.6430664 0.4289551
vt 0.6430664 0.4289551
vt 0.6430664 0.4289551
vt 0.6157227 0.4289551
vt 0.6157227 0.4289551
vt 0.6157227 0.4289551
vt 0.6157227 0.4289551
vt 0.6430664 0.4289551
vt 0.6430664 0.4289551
vt 0.6430664 0.4289551
vt 0.6430664 0.4289551
vt 0.6157227 0.4289551
vt 0.6157227 0.4289551
vt 0.6157227 0.4289551
vt 0.6157227 0.4289551
vt 0.6459961 0.4289551
vt 0.6459961 0.4289551
vt 0.6459961 0.4289551
vt 0.6459961 0.4289551
vt 0.6777344 0.4289551
vt 0.6777344 0.4289551
vt 0.6777344 0.4289551
vt 0.6777344 0.4289551
vt 0.6459961 0.4289551
vt 0.6459961 0.4289551
vt 0.6459961 0.4289551
vt 0.6459961 0.4289551
vt 0.6777344 0.4289551
vt 0.6777344 0.4289551
vt 0.6777344 0.4289551
vt 0.6777344 0.4289551
vt 0.6083984 0.4289551
vt 0.6083984 0.4289551
vt 0.6083984 0.4289551
vt 0.6083984 0.4289551
vt 0.6401367 0.4289551
vt 0.6401367 0.4289551
vt 0.6401367 0.4289551
vt 0.6401367 0.4289551
vt 0.6083984 0.4289551
vt 0.6083984 0.4289551
vt 0.6083984 0.4289551
vt 0.6083984 0.4289551
vt 0.6401367 0.4289551
vt 0.6401367 0.4289551
vt 0.6401367 0.4289551
vt 0.6401367 0.4289551
vt 0.5766602 0.4289551
vt 0.5766602 0.4289551
vt 0.5766602 0.4289551
vt 0.5766602 0.4289551
vt 0.6083984 0.4289551
vt 0.6083984 0.4289551
vt 0.6083984 0.4289551
vt 0.6083984 0.4289551
vt 0.5766602 0.4289551
vt 0.5766602 0.4289551
vt 0.5766602 0.4289551
vt 0.5766602 0.4289551
vt 0.6083984 0.4289551
vt 0.6083984 0.4289551
vt 0.6083984 0.4289551
vt 0.6083984 0.4289551
vt 0.6142578 0.4289551
vt 0.6142578 0.4289551
vt 0.6142578 0.4289551
vt 0.6142578 0.4289551
vt 0.5820313 0.4289551
vt 0.5820313 0.4289551
vt 0.5820313 0.4289551
vt 0.5820313 0.4289551
vt 0.6142578 0.4289551
vt 0.6142578 0.4289551
vt 0.6142578 0.4289551
vt 0.6142578 0.4289551
vt 0.5820313 0.4289551
vt 0.5820313 0.4289551
vt 0.5820313 0.4289551
vt 0.5820313 0.4289551
vt 0.6083984 0.4042969
vt 0.6083984 0.4042969
vt 0.6083984 0.4042969
vt 0.6083984 0.4042969
vt 0.6401367 0.4042969
vt 0.6401367 0.4042969
vt 0.6401367 0.4042969
vt 0.6401367 0.4042969
vt 0.6083984 0.4042969
vt 0.6083984 0.4042969
vt 0.6083984 0.4042969
vt 0.6083984 0.4042969
vt 0.6401367 0.4042969
vt 0.6401367 0.4042969
vt 0.6401367 0.4042969
vt 0.6401367 0.4042969

g SD_Prop_Pot_Large_03_2432_157
usemtl SD_Prop_Pot_Large_03_2432_157
usemap SD_Prop_Pot_Large_03_2432_157
f 1/1/1 3/3/3 2/2/2
f 1/1/1 4/4/4 3/3/3
f 5/5/5 7/7/7 6/6/6
f 5/5/5 8/8/8 7/7/7
f 9/9/9 11/11/11 10/10/10
f 9/9/9 12/12/12 11/11/11
f 13/13/13 15/15/15 14/14/14
f 13/13/13 16/16/16 15/15/15
f 17/17/17 19/19/19 18/18/18
f 17/17/17 20/20/20 19/19/19
f 21/21/21 23/23/23 22/22/22
f 21/21/21 24/24/24 23/23/23
f 25/25/25 27/27/27 26/26/26
f 25/25/25 28/28/28 27/27/27
f 28/28/28 29/29/29 27/27/27
f 28/28/28 30/30/30 29/29/29
f 30/30/30 31/31/31 29/29/29
f 30/30/30 32/32/32 31/31/31
f 32/32/32 26/26/26 31/31/31
f 32/32/32 25/25/25 26/26/26
f 33/33/33 35/35/35 34/34/34
f 33/33/33 36/36/36 35/35/35
f 37/37/37 39/39/39 38/38/38
f 37/37/37 40/40/40 39/39/39
f 41/41/41 43/43/43 42/42/42
f 41/41/41 44/44/44 43/43/43
f 45/45/45 47/47/47 46/46/46
f 45/45/45 48/48/48 47/47/47
f 49/49/49 51/51/51 50/50/50
f 49/49/49 52/52/52 51/51/51
f 53/53/53 55/55/55 54/54/54
f 53/53/53 56/56/56 55/55/55
f 57/57/57 59/59/59 58/58/58
f 57/57/57 60/60/60 59/59/59
f 61/61/61 63/63/63 62/62/62
f 61/61/61 64/64/64 63/63/63
f 65/65/65 67/67/67 66/66/66
f 65/65/65 68/68/68 67/67/67
f 69/69/69 71/71/71 70/70/70
f 69/69/69 72/72/72 71/71/71
f 73/73/73 75/75/75 74/74/74
f 73/73/73 76/76/76 75/75/75
f 77/77/77 79/79/79 78/78/78
f 77/77/77 80/80/80 79/79/79
f 81/81/81 83/83/83 82/82/82
f 81/81/81 84/84/84 83/83/83
f 85/85/85 87/87/87 86/86/86
f 85/85/85 88/88/88 87/87/87
f 89/89/89 91/91/91 90/90/90
f 89/89/89 92/92/92 91/91/91
f 93/93/93 95/95/95 94/94/94
f 93/93/93 96/96/96 95/95/95
f 97/97/97 99/99/99 98/98/98
f 97/97/97 100/100/100 99/99/99
f 101/101/101 103/103/103 102/102/102
f 101/101/101 104/104/104 103/103/103
f 105/105/105 107/107/107 106/106/106
f 105/105/105 108/108/108 107/107/107
f 109/109/109 111/111/111 110/110/110
f 109/109/109 112/112/112 111/111/111
f 113/113/113 115/115/115 114/114/114
f 113/113/113 116/116/116 115/115/115
f 117/117/117 119/119/119 118/118/118
f 117/117/117 120/120/120 119/119/119
f 121/121/121 123/123/123 122/122/122
f 121/121/121 124/124/124 123/123/123
f 125/125/125 127/127/127 126/126/126
f 125/125/125 128/128/128 127/127/127
