#SD_Prop_Torch_23_2415_223.obj

v 0.0861608 0.7139671 0.8150764
v -0.08616115 0.7139671 0.815076
v -0.08616083 0.768284 0.6515374
v 0.08616049 0.768284 0.6515378
v 0.1730106 0.4990668 0.8350096
v 0.0861608 0.7139671 0.8150764
v 0.08616049 0.768284 0.6515378
v 0.1730106 0.6081354 0.5066252
v 0.1730106 0.6081354 0.5066252
v 0.08616049 0.768284 0.6515378
v -0.08616083 0.768284 0.6515374
v -0.173011 0.6081354 0.5066296
v -0.173011 0.6081354 0.5066296
v -0.08616083 0.768284 0.6515374
v -0.08616115 0.7139671 0.815076
v -0.173011 0.4990668 0.8350089
v -0.173011 0.4990668 0.8350089
v -0.08616115 0.7139671 0.815076
v 0.0861608 0.7139671 0.8150764
v 0.1730106 0.4990668 0.8350096

vn 6.199971E-07 0.949023 0.3152068
vn 6.199971E-07 0.949023 0.3152068
vn 6.199971E-07 0.949023 0.3152068
vn 6.199971E-07 0.949023 0.3152068
vn 0.9155222 0.3817615 0.126796
vn 0.9155222 0.3817615 0.126796
vn 0.9155222 0.3817615 0.126796
vn 0.9155222 0.3817615 0.126796
vn -1.458493E-06 0.6709545 -0.7414985
vn -1.458493E-06 0.6709545 -0.7414985
vn -1.458493E-06 0.6709545 -0.7414985
vn -1.458493E-06 0.6709545 -0.7414985
vn -0.9155217 0.3817615 0.1267996
vn -0.9155217 0.3817615 0.1267996
vn -0.9155217 0.3817615 0.1267996
vn -0.9155217 0.3817615 0.1267996
vn 1.958546E-06 0.09235779 0.9957259
vn 1.958546E-06 0.09235779 0.9957259
vn 1.958546E-06 0.09235779 0.9957259
vn 1.958546E-06 0.09235779 0.9957259

vt 0.2607422 0.3986816
vt 0.2607422 0.3986816
vt 0.2607422 0.3986816
vt 0.2607422 0.3986816
vt 0.2607422 0.3986816
vt 0.2607422 0.3986816
vt 0.2607422 0.3986816
vt 0.2607422 0.3986816
vt 0.2607422 0.3986816
vt 0.2607422 0.3986816
vt 0.2607422 0.3986816
vt 0.2607422 0.3986816
vt 0.2607422 0.3986816
vt 0.2607422 0.3986816
vt 0.2607422 0.3986816
vt 0.2607422 0.3986816
vt 0.2607422 0.3986816
vt 0.2607422 0.3986816
vt 0.2607422 0.3986816
vt 0.2607422 0.3986816

g SD_Prop_Torch_23_2415_223
usemtl SD_Prop_Torch_23_2415_223
usemap SD_Prop_Torch_23_2415_223
f 1/1/1 3/3/3 2/2/2
f 1/1/1 4/4/4 3/3/3
f 5/5/5 7/7/7 6/6/6
f 5/5/5 8/8/8 7/7/7
f 9/9/9 11/11/11 10/10/10
f 9/9/9 12/12/12 11/11/11
f 13/13/13 15/15/15 14/14/14
f 13/13/13 16/16/16 15/15/15
f 17/17/17 19/19/19 18/18/18
f 17/17/17 20/20/20 19/19/19
