#SD_Prop_Torch_16_2473_351.obj

v 0.08616135 0.7139668 0.8150817
v -0.08616124 0.7139668 0.815082
v -0.08616054 0.7682837 0.6515446
v 0.08615696 0.7682837 0.6515447
v 0.1730092 0.4990665 0.8350149
v 0.08616135 0.7139668 0.8150817
v 0.08615696 0.7682837 0.6515447
v 0.1730106 0.608135 0.506632
v 0.1730106 0.608135 0.506632
v 0.08615696 0.7682837 0.6515447
v -0.08616054 0.7682837 0.6515446
v -0.173013 0.608135 0.5066321
v -0.173013 0.608135 0.5066321
v -0.08616054 0.7682837 0.6515446
v -0.08616124 0.7139668 0.815082
v -0.1730144 0.4990665 0.8350146
v -0.1730144 0.4990665 0.8350146
v -0.08616124 0.7139668 0.815082
v 0.08616135 0.7139668 0.8150817
v 0.1730092 0.4990665 0.8350149

vn -0.3152068 0.949023 1.352721E-06
vn -0.3152068 0.949023 1.352721E-06
vn -0.3152068 0.949023 1.352721E-06
vn -0.3152068 0.949023 1.352721E-06
vn -0.1267938 0.3817615 0.9155225
vn -0.1267938 0.3817615 0.9155225
vn -0.1267938 0.3817615 0.9155225
vn -0.1267938 0.3817615 0.9155225
vn 0.7414985 0.6709545 -3.182166E-06
vn 0.7414985 0.6709545 -3.182166E-06
vn 0.7414985 0.6709545 -3.182166E-06
vn 0.7414985 0.6709545 -3.182166E-06
vn -0.1268017 0.3817615 -0.9155214
vn -0.1268017 0.3817615 -0.9155214
vn -0.1268017 0.3817615 -0.9155214
vn -0.1268017 0.3817615 -0.9155214
vn -0.9957259 0.09235779 4.273191E-06
vn -0.9957259 0.09235779 4.273191E-06
vn -0.9957259 0.09235779 4.273191E-06
vn -0.9957259 0.09235779 4.273191E-06

vt 0.2607422 0.3986816
vt 0.2607422 0.3986816
vt 0.2607422 0.3986816
vt 0.2607422 0.3986816
vt 0.2607422 0.3986816
vt 0.2607422 0.3986816
vt 0.2607422 0.3986816
vt 0.2607422 0.3986816
vt 0.2607422 0.3986816
vt 0.2607422 0.3986816
vt 0.2607422 0.3986816
vt 0.2607422 0.3986816
vt 0.2607422 0.3986816
vt 0.2607422 0.3986816
vt 0.2607422 0.3986816
vt 0.2607422 0.3986816
vt 0.2607422 0.3986816
vt 0.2607422 0.3986816
vt 0.2607422 0.3986816
vt 0.2607422 0.3986816

g SD_Prop_Torch_16_2473_351
usemtl SD_Prop_Torch_16_2473_351
usemap SD_Prop_Torch_16_2473_351
f 1/1/1 3/3/3 2/2/2
f 1/1/1 4/4/4 3/3/3
f 5/5/5 7/7/7 6/6/6
f 5/5/5 8/8/8 7/7/7
f 9/9/9 11/11/11 10/10/10
f 9/9/9 12/12/12 11/11/11
f 13/13/13 15/15/15 14/14/14
f 13/13/13 16/16/16 15/15/15
f 17/17/17 19/19/19 18/18/18
f 17/17/17 20/20/20 19/19/19
