#SD_Prop_Goblin_Ladder_02_(2)_1608_100.obj

v -0.7420756 2.016532 0.1685448
v -0.7420756 2.226585 0.1685441
v 0.7553882 2.226585 0.1685441
v 0.7553882 2.016532 0.1685448
v -0.7420756 2.226585 0.1685441
v -0.7420756 2.226584 -0.0415077
v 0.7553882 2.226584 -0.0415077
v 0.7553882 2.226585 0.1685441
v -0.7420756 2.226584 -0.0415077
v -0.7420756 2.016531 -0.04150708
v 0.7553882 2.016531 -0.04150708
v 0.7553882 2.226584 -0.0415077
v -0.7420756 2.016531 -0.04150708
v -0.7420756 2.016532 0.1685448
v 0.7553882 2.016532 0.1685448
v 0.7553882 2.016531 -0.04150708
v 0.7553882 2.016532 0.1685448
v 0.7553882 2.226585 0.1685441
v 0.7553882 2.226584 -0.0415077
v 0.7553882 2.016531 -0.04150708
v -0.7420756 2.016531 -0.04150708
v -0.7420756 2.226584 -0.0415077
v -0.7420756 2.226585 0.1685441
v -0.7420756 2.016532 0.1685448
v -0.7420756 6.425688 0.1685438
v -0.7420756 6.635737 0.1685456
v 0.7553882 6.635737 0.1685456
v 0.7553882 6.425688 0.1685438
v -0.7420756 6.635737 0.1685456
v -0.7420756 6.63574 -0.04150921
v 0.7553882 6.63574 -0.04150921
v 0.7553882 6.635737 0.1685456
v -0.7420756 6.63574 -0.04150921
v -0.7420756 6.425688 -0.0415079
v 0.7553882 6.425688 -0.0415079
v 0.7553882 6.63574 -0.04150921
v -0.7420756 6.425688 -0.0415079
v -0.7420756 6.425688 0.1685438
v 0.7553882 6.425688 0.1685438
v 0.7553882 6.425688 -0.0415079
v 0.7553882 6.425688 0.1685438
v 0.7553882 6.635737 0.1685456
v 0.7553882 6.63574 -0.04150921
v 0.7553882 6.425688 -0.0415079
v -0.7420756 6.425688 -0.0415079
v -0.7420756 6.63574 -0.04150921
v -0.7420756 6.635737 0.1685456
v -0.7420756 6.425688 0.1685438
v -0.7400393 5.481864 0.1685448
v -0.7244142 5.691333 0.1685463
v 0.7689361 5.579901 0.168544
v 0.753311 5.370429 0.1685459
v -0.7244142 5.691333 0.1685463
v -0.7244142 5.691336 -0.04150853
v 0.7689361 5.5799 -0.04150768
v 0.7689361 5.579901 0.168544
v -0.7244142 5.691336 -0.04150853
v -0.7400393 5.481863 -0.04150686
v 0.753311 5.370432 -0.04150894
v 0.7689361 5.5799 -0.04150768
v -0.7400393 5.481863 -0.04150686
v -0.7400393 5.481864 0.1685448
v 0.753311 5.370429 0.1685459
v 0.753311 5.370432 -0.04150894
v 0.753311 5.370429 0.1685459
v 0.7689361 5.579901 0.168544
v 0.7689361 5.5799 -0.04150768
v 0.753311 5.370432 -0.04150894
v -0.7400393 5.481863 -0.04150686
v -0.7244142 5.691336 -0.04150853
v -0.7244142 5.691333 0.1685463
v -0.7400393 5.481864 0.1685448
v 0.2879136 3.320626 0.03993659
v 0.400042 5.541165 0.03993604
v 0.60851 5.541165 0.03993604
v 0.4964021 3.320626 0.03993659
v 0.3426988 3.599022E-07 0.03993578
v 0.5511974 3.599022E-07 0.03993578
v 0.5511974 7.798604 0.03993618
v 0.3426988 7.798604 0.03993618
v 0.3426988 7.798604 0.03993618
v 0.3426988 7.798604 -0.1685448
v 0.5511974 7.798604 -0.1685448
v 0.5511974 7.798604 0.03993618
v 0.400042 5.541165 -0.1685455
v 0.2879136 3.320627 -0.1685444
v 0.4964021 3.320627 -0.1685444
v 0.60851 5.541165 -0.1685455
v 0.5511974 6.207613E-07 -0.1685452
v 0.3426988 6.207613E-07 -0.1685452
v 0.3426988 7.798604 -0.1685448
v 0.5511974 7.798604 -0.1685448
v 0.3426988 6.207613E-07 -0.1685452
v 0.3426988 3.599022E-07 0.03993578
v 0.5511974 3.599022E-07 0.03993578
v 0.5511974 6.207613E-07 -0.1685452
v 0.4964021 3.320626 0.03993659
v 0.60851 5.541165 0.03993604
v 0.60851 5.541165 -0.1685455
v 0.4964021 3.320627 -0.1685444
v 0.5511974 3.599022E-07 0.03993578
v 0.5511974 6.207613E-07 -0.1685452
v 0.5511974 7.798604 -0.1685448
v 0.5511974 7.798604 0.03993618
v 0.2879136 3.320627 -0.1685444
v 0.400042 5.541165 -0.1685455
v 0.400042 5.541165 0.03993604
v 0.2879136 3.320626 0.03993659
v 0.3426988 6.207613E-07 -0.1685452
v 0.3426988 3.599022E-07 0.03993578
v 0.3426988 7.798604 0.03993618
v 0.3426988 7.798604 -0.1685448
v -0.3829843 4.377577 0.03993778
v -0.5914728 4.377577 0.03993778
v -0.4498746 6.31598 0.03993469
v -0.2414066 6.31598 0.03993469
v -0.3469043 3.599022E-07 0.03993578
v -0.555403 3.599022E-07 0.03993578
v -0.555403 7.798604 0.03993618
v -0.3469043 7.798604 0.03993618
v -0.3469043 7.798604 0.03993618
v -0.555403 7.798604 0.03993618
v -0.555403 7.798604 -0.1685448
v -0.3469043 7.798604 -0.1685448
v -0.2414066 6.315976 -0.1685432
v -0.4498746 6.315976 -0.1685432
v -0.5914728 4.377577 -0.1685435
v -0.3829843 4.377577 -0.1685435
v -0.555403 6.207613E-07 -0.1685452
v -0.3469043 6.207613E-07 -0.1685452
v -0.3469043 7.798604 -0.1685448
v -0.555403 7.798604 -0.1685448
v -0.3469043 6.207613E-07 -0.1685452
v -0.555403 6.207613E-07 -0.1685452
v -0.555403 3.599022E-07 0.03993578
v -0.3469043 3.599022E-07 0.03993578
v -0.5914728 4.377577 0.03993778
v -0.5914728 4.377577 -0.1685435
v -0.4498746 6.315976 -0.1685432
v -0.4498746 6.31598 0.03993469
v -0.555403 3.599022E-07 0.03993578
v -0.555403 6.207613E-07 -0.1685452
v -0.555403 7.798604 -0.1685448
v -0.555403 7.798604 0.03993618
v -0.3829843 4.377577 -0.1685435
v -0.3829843 4.377577 0.03993778
v -0.2414066 6.31598 0.03993469
v -0.2414066 6.315976 -0.1685432
v -0.3469043 6.207613E-07 -0.1685452
v -0.3469043 3.599022E-07 0.03993578
v -0.3469043 7.798604 0.03993618
v -0.3469043 7.798604 -0.1685448
v -0.7400393 3.787533 0.1685463
v -0.7556031 3.997011 0.1685435
v 0.7377575 4.108051 0.1685449
v 0.7533417 3.898578 0.1685451
v -0.7556031 3.997011 0.1685435
v -0.7556031 3.99701 -0.04150846
v 0.7377575 4.10805 -0.04150702
v 0.7377575 4.108051 0.1685449
v -0.7556031 3.99701 -0.04150846
v -0.7400393 3.787536 -0.0415088
v 0.7533417 3.898577 -0.04150686
v 0.7377575 4.10805 -0.04150702
v -0.7400393 3.787536 -0.0415088
v -0.7400393 3.787533 0.1685463
v 0.7533417 3.898578 0.1685451
v 0.7533417 3.898577 -0.04150686
v 0.7533417 3.898578 0.1685451
v 0.7377575 4.108051 0.1685449
v 0.7377575 4.10805 -0.04150702
v 0.7533417 3.898577 -0.04150686
v -0.7400393 3.787536 -0.0415088
v -0.7556031 3.99701 -0.04150846
v -0.7556031 3.997011 0.1685435
v -0.7400393 3.787533 0.1685463
v -0.7397631 1.113023 0.1685461
v -0.7231147 1.322417 0.1685441
v 0.7696729 1.203785 0.1685433
v 0.7530245 0.9943909 0.1685453
v -0.7231147 1.322417 0.1685441
v -0.7231147 1.322416 -0.04150772
v 0.7696729 1.203784 -0.04150857
v 0.7696729 1.203785 0.1685433
v -0.7231147 1.322416 -0.04150772
v -0.7397631 1.113026 -0.04150888
v 0.7530245 0.99439 -0.04150655
v 0.7696729 1.203784 -0.04150857
v -0.7397631 1.113026 -0.04150888
v -0.7397631 1.113023 0.1685461
v 0.7530245 0.9943909 0.1685453
v 0.7530245 0.99439 -0.04150655
v 0.7530245 0.9943909 0.1685453
v 0.7696729 1.203785 0.1685433
v 0.7696729 1.203784 -0.04150857
v 0.7530245 0.99439 -0.04150655
v -0.7397631 1.113026 -0.04150888
v -0.7231147 1.322416 -0.04150772
v -0.7231147 1.322417 0.1685441
v -0.7397631 1.113023 0.1685461

vn 0 0.7850502 0.6194322
vn 0 0.7850502 0.6194322
vn 0 0.7850502 0.6194322
vn 0 0.7850502 0.6194322
vn 0 0.6194322 -0.7850502
vn 0 0.6194322 -0.7850502
vn 0 0.6194322 -0.7850502
vn 0 0.6194322 -0.7850502
vn 0 -0.7850502 -0.6194322
vn 0 -0.7850502 -0.6194322
vn 0 -0.7850502 -0.6194322
vn 0 -0.7850502 -0.6194322
vn 0 -0.6194322 0.7850502
vn 0 -0.6194322 0.7850502
vn 0 -0.6194322 0.7850502
vn 0 -0.6194322 0.7850502
vn 1 0 0
vn 1 0 0
vn 1 0 0
vn 1 0 0
vn -1 0 0
vn -1 0 0
vn -1 0 0
vn -1 0 0
vn 0 0.7850502 0.6194322
vn 0 0.7850502 0.6194322
vn 0 0.7850502 0.6194322
vn 0 0.7850502 0.6194322
vn 0 0.6194322 -0.7850502
vn 0 0.6194322 -0.7850502
vn 0 0.6194322 -0.7850502
vn 0 0.6194322 -0.7850502
vn 0 -0.7850502 -0.6194322
vn 0 -0.7850502 -0.6194322
vn 0 -0.7850502 -0.6194322
vn 0 -0.7850502 -0.6194322
vn 0 -0.6194322 0.7850502
vn 0 -0.6194322 0.7850502
vn 0 -0.6194322 0.7850502
vn 0 -0.6194322 0.7850502
vn 1 0 0
vn 1 0 0
vn 1 0 0
vn 1 0 0
vn -1 0 0
vn -1 0 0
vn -1 0 0
vn -1 0 0
vn 0 0.7850502 0.6194322
vn 0 0.7850502 0.6194322
vn 0 0.7850502 0.6194322
vn 0 0.7850502 0.6194322
vn 0.07441401 0.6177147 -0.7828736
vn 0.07441401 0.6177147 -0.7828736
vn 0.07441401 0.6177147 -0.7828736
vn 0.07441401 0.6177147 -0.7828736
vn 0 -0.7850502 -0.6194322
vn 0 -0.7850502 -0.6194322
vn 0 -0.7850502 -0.6194322
vn 0 -0.7850502 -0.6194322
vn -0.07441339 -0.6177148 0.7828736
vn -0.07441339 -0.6177148 0.7828736
vn -0.07441339 -0.6177148 0.7828736
vn -0.07441339 -0.6177148 0.7828736
vn 0.9972295 -0.04607735 0.05839708
vn 0.9972295 -0.04607735 0.05839708
vn 0.9972295 -0.04607735 0.05839708
vn 0.9972295 -0.04607735 0.05839708
vn -0.9972295 0.04607714 -0.05839682
vn -0.9972295 0.04607714 -0.05839682
vn -0.9972295 0.04607714 -0.05839682
vn -0.9972295 0.04607714 -0.05839682
vn 0 0.7850502 0.6194322
vn 0 0.7850502 0.6194322
vn 0 0.7850502 0.6194322
vn 0 0.7850502 0.6194322
vn 0 0.7850502 0.6194322
vn 0 0.7850502 0.6194322
vn 0 0.7850502 0.6194322
vn 0 0.7850502 0.6194322
vn 0 0.6194322 -0.7850502
vn 0 0.6194322 -0.7850502
vn 0 0.6194322 -0.7850502
vn 0 0.6194322 -0.7850502
vn 0 -0.7850502 -0.6194322
vn 0 -0.7850502 -0.6194322
vn 0 -0.7850502 -0.6194322
vn 0 -0.7850502 -0.6194322
vn 0 -0.7850502 -0.6194322
vn 0 -0.7850502 -0.6194322
vn 0 -0.7850502 -0.6194322
vn 0 -0.7850502 -0.6194322
vn 0 -0.6194322 0.7850502
vn 0 -0.6194322 0.7850502
vn 0 -0.6194322 0.7850502
vn 0 -0.6194322 0.7850502
vn 0.999856 -0.01051238 0.01332308
vn 0.9999216 -0.0077615 0.009836699
vn 0.9999216 -0.0077615 0.009836699
vn 0.999856 -0.01051238 0.01332308
vn 0.9998639 0.01021998 -0.0129525
vn 0.9998639 0.01021998 -0.0129525
vn 0.9996779 0.01572111 -0.01992448
vn 0.9996779 0.01572111 -0.01992448
vn -0.9998559 0.01051592 -0.01332757
vn -0.9999216 0.00775944 -0.009834088
vn -0.9999216 0.00775944 -0.009834088
vn -0.9998559 0.01051592 -0.01332757
vn -0.999864 -0.01021713 0.01294889
vn -0.999864 -0.01021713 0.01294889
vn -0.9996775 -0.01572948 0.01993508
vn -0.9996775 -0.01572948 0.01993508
vn 0 0.7850502 0.6194322
vn 0 0.7850502 0.6194322
vn 0 0.7850502 0.6194322
vn 0 0.7850502 0.6194322
vn 0 0.7850502 0.6194322
vn 0 0.7850502 0.6194322
vn 0 0.7850502 0.6194322
vn 0 0.7850502 0.6194322
vn 0 0.6194322 -0.7850502
vn 0 0.6194322 -0.7850502
vn 0 0.6194322 -0.7850502
vn 0 0.6194322 -0.7850502
vn 0 -0.7850502 -0.6194322
vn 0 -0.7850502 -0.6194322
vn 0 -0.7850502 -0.6194322
vn 0 -0.7850502 -0.6194322
vn 0 -0.7850502 -0.6194322
vn 0 -0.7850502 -0.6194322
vn 0 -0.7850502 -0.6194322
vn 0 -0.7850502 -0.6194322
vn 0 -0.6194322 0.7850502
vn 0 -0.6194322 0.7850502
vn 0 -0.6194322 0.7850502
vn 0 -0.6194322 0.7850502
vn -0.9994771 0.02002935 -0.02538461
vn -0.9994771 0.02002935 -0.02538461
vn -0.9999996 0.0005771446 -0.0007314562
vn -0.9999996 0.0005771446 -0.0007314562
vn -0.999966 -0.005104022 0.006468688
vn -0.999966 -0.005104022 0.006468688
vn -0.9974764 -0.04397844 0.05573699
vn -0.9974764 -0.04397844 0.05573699
vn 0.9994773 -0.0200245 0.02537846
vn 0.9994773 -0.0200245 0.02537846
vn 0.9999996 -0.0005786361 0.0007333464
vn 0.9999996 -0.0005786361 0.0007333464
vn 0.999966 0.005104022 -0.006468688
vn 0.999966 0.005104022 -0.006468688
vn 0.9974779 0.04396579 -0.05572096
vn 0.9974779 0.04396579 -0.05572096
vn 0 0.7850502 0.6194322
vn 0 0.7850502 0.6194322
vn 0 0.7850502 0.6194322
vn 0 0.7850502 0.6194322
vn -0.07415234 0.6177269 -0.7828889
vn -0.07415234 0.6177269 -0.7828889
vn -0.07415234 0.6177269 -0.7828889
vn -0.07415234 0.6177269 -0.7828889
vn 0 -0.7850502 -0.6194322
vn 0 -0.7850502 -0.6194322
vn 0 -0.7850502 -0.6194322
vn 0 -0.7850502 -0.6194322
vn 0.07415222 -0.6177269 0.7828889
vn 0.07415222 -0.6177269 0.7828889
vn 0.07415222 -0.6177269 0.7828889
vn 0.07415222 -0.6177269 0.7828889
vn 0.9972457 0.04594226 -0.05822588
vn 0.9972457 0.04594226 -0.05822588
vn 0.9972457 0.04594226 -0.05822588
vn 0.9972457 0.04594226 -0.05822588
vn -0.9972511 -0.04589731 0.05816891
vn -0.9972511 -0.04589731 0.05816891
vn -0.9972511 -0.04589731 0.05816891
vn -0.9972511 -0.04589731 0.05816891
vn 0 0.7850502 0.6194322
vn 0 0.7850502 0.6194322
vn 0 0.7850502 0.6194322
vn 0 0.7850502 0.6194322
vn 0.07922146 0.6174853 -0.7825828
vn 0.07922146 0.6174853 -0.7825828
vn 0.07922146 0.6174853 -0.7825828
vn 0.07922146 0.6174853 -0.7825828
vn 0 -0.7850502 -0.6194322
vn 0 -0.7850502 -0.6194322
vn 0 -0.7850502 -0.6194322
vn 0 -0.7850502 -0.6194322
vn -0.07922146 -0.6174853 0.7825828
vn -0.07922146 -0.6174853 0.7825828
vn -0.07922146 -0.6174853 0.7825828
vn -0.07922146 -0.6174853 0.7825828
vn 0.9968545 -0.04909204 0.06221782
vn 0.9968545 -0.04909204 0.06221782
vn 0.9968545 -0.04909204 0.06221782
vn 0.9968545 -0.04909204 0.06221782
vn -0.9968545 0.04909204 -0.06221782
vn -0.9968545 0.04909204 -0.06221782
vn -0.9968545 0.04909204 -0.06221782
vn -0.9968545 0.04909204 -0.06221782

vt 0.2337646 0.5126953
vt 0.2337646 0.5126953
vt 0.2337646 0.5126953
vt 0.2337646 0.5126953
vt 0.2927246 0.5126953
vt 0.2927246 0.5126953
vt 0.2927246 0.5126953
vt 0.2927246 0.5126953
vt 0.2337646 0.5126953
vt 0.2337646 0.5126953
vt 0.2337646 0.5126953
vt 0.2337646 0.5126953
vt 0.1685791 0.5126953
vt 0.1685791 0.5126953
vt 0.1685791 0.5126953
vt 0.1685791 0.5126953
vt 0.9692383 0.5209961
vt 0.9692383 0.5209961
vt 0.9692383 0.5209961
vt 0.9692383 0.5209961
vt 0.9692383 0.5209961
vt 0.9692383 0.5209961
vt 0.9692383 0.5209961
vt 0.9692383 0.5209961
vt 0.2337646 0.5126953
vt 0.2337646 0.5126953
vt 0.2337646 0.5126953
vt 0.2337646 0.5126953
vt 0.2927246 0.5126953
vt 0.2927246 0.5126953
vt 0.2927246 0.5126953
vt 0.2927246 0.5126953
vt 0.2337646 0.5126953
vt 0.2337646 0.5126953
vt 0.2337646 0.5126953
vt 0.2337646 0.5126953
vt 0.1685791 0.5126953
vt 0.1685791 0.5126953
vt 0.1685791 0.5126953
vt 0.1685791 0.5126953
vt 0.9692383 0.5209961
vt 0.9692383 0.5209961
vt 0.9692383 0.5209961
vt 0.9692383 0.5209961
vt 0.9692383 0.5209961
vt 0.9692383 0.5209961
vt 0.9692383 0.5209961
vt 0.9692383 0.5209961
vt 0.2337646 0.5126953
vt 0.2337646 0.5126953
vt 0.2337646 0.5126953
vt 0.2337646 0.5126953
vt 0.2927246 0.5126953
vt 0.2927246 0.5126953
vt 0.2927246 0.5126953
vt 0.2927246 0.5126953
vt 0.2337646 0.5126953
vt 0.2337646 0.5126953
vt 0.2337646 0.5126953
vt 0.2337646 0.5126953
vt 0.1685791 0.5126953
vt 0.1685791 0.5126953
vt 0.1685791 0.5126953
vt 0.1685791 0.5126953
vt 0.9692383 0.5209961
vt 0.9692383 0.5209961
vt 0.9692383 0.5209961
vt 0.9692383 0.5209961
vt 0.9692383 0.5209961
vt 0.9692383 0.5209961
vt 0.9692383 0.5209961
vt 0.9692383 0.5209961
vt 0.2337646 0.5126953
vt 0.2337646 0.5126953
vt 0.2337646 0.5126953
vt 0.2337646 0.5126953
vt 0.2337646 0.5126953
vt 0.2337646 0.5126953
vt 0.2337646 0.5126953
vt 0.2337646 0.5126953
vt 0.9692383 0.5209961
vt 0.9692383 0.5209961
vt 0.9692383 0.5209961
vt 0.9692383 0.5209961
vt 0.2337646 0.5126953
vt 0.2337646 0.5126953
vt 0.2337646 0.5126953
vt 0.2337646 0.5126953
vt 0.2337646 0.5126953
vt 0.2337646 0.5126953
vt 0.2337646 0.5126953
vt 0.2337646 0.5126953
vt 0.9692383 0.5209961
vt 0.9692383 0.5209961
vt 0.9692383 0.5209961
vt 0.9692383 0.5209961
vt 0.2020264 0.5126953
vt 0.2020264 0.5126953
vt 0.2020264 0.5126953
vt 0.2020264 0.5126953
vt 0.2020264 0.5126953
vt 0.2020264 0.5126953
vt 0.2020264 0.5126953
vt 0.2020264 0.5126953
vt 0.2020264 0.5126953
vt 0.2020264 0.5126953
vt 0.2020264 0.5126953
vt 0.2020264 0.5126953
vt 0.2020264 0.5126953
vt 0.2020264 0.5126953
vt 0.2020264 0.5126953
vt 0.2020264 0.5126953
vt 0.2337646 0.5126953
vt 0.2337646 0.5126953
vt 0.2337646 0.5126953
vt 0.2337646 0.5126953
vt 0.2337646 0.5126953
vt 0.2337646 0.5126953
vt 0.2337646 0.5126953
vt 0.2337646 0.5126953
vt 0.9692383 0.5209961
vt 0.9692383 0.5209961
vt 0.9692383 0.5209961
vt 0.9692383 0.5209961
vt 0.2337646 0.5126953
vt 0.2337646 0.5126953
vt 0.2337646 0.5126953
vt 0.2337646 0.5126953
vt 0.2337646 0.5126953
vt 0.2337646 0.5126953
vt 0.2337646 0.5126953
vt 0.2337646 0.5126953
vt 0.9692383 0.5209961
vt 0.9692383 0.5209961
vt 0.9692383 0.5209961
vt 0.9692383 0.5209961
vt 0.2020264 0.5126953
vt 0.2020264 0.5126953
vt 0.2020264 0.5126953
vt 0.2020264 0.5126953
vt 0.2020264 0.5126953
vt 0.2020264 0.5126953
vt 0.2020264 0.5126953
vt 0.2020264 0.5126953
vt 0.2020264 0.5126953
vt 0.2020264 0.5126953
vt 0.2020264 0.5126953
vt 0.2020264 0.5126953
vt 0.2020264 0.5126953
vt 0.2020264 0.5126953
vt 0.2020264 0.5126953
vt 0.2020264 0.5126953
vt 0.2337646 0.5126953
vt 0.2337646 0.5126953
vt 0.2337646 0.5126953
vt 0.2337646 0.5126953
vt 0.2927246 0.5126953
vt 0.2927246 0.5126953
vt 0.2927246 0.5126953
vt 0.2927246 0.5126953
vt 0.2337646 0.5126953
vt 0.2337646 0.5126953
vt 0.2337646 0.5126953
vt 0.2337646 0.5126953
vt 0.1685791 0.5126953
vt 0.1685791 0.5126953
vt 0.1685791 0.5126953
vt 0.1685791 0.5126953
vt 0.9692383 0.5209961
vt 0.9692383 0.5209961
vt 0.9692383 0.5209961
vt 0.9692383 0.5209961
vt 0.9692383 0.5209961
vt 0.9692383 0.5209961
vt 0.9692383 0.5209961
vt 0.9692383 0.5209961
vt 0.2337646 0.5126953
vt 0.2337646 0.5126953
vt 0.2337646 0.5126953
vt 0.2337646 0.5126953
vt 0.2927246 0.5126953
vt 0.2927246 0.5126953
vt 0.2927246 0.5126953
vt 0.2927246 0.5126953
vt 0.2337646 0.5126953
vt 0.2337646 0.5126953
vt 0.2337646 0.5126953
vt 0.2337646 0.5126953
vt 0.1685791 0.5126953
vt 0.1685791 0.5126953
vt 0.1685791 0.5126953
vt 0.1685791 0.5126953
vt 0.9692383 0.5209961
vt 0.9692383 0.5209961
vt 0.9692383 0.5209961
vt 0.9692383 0.5209961
vt 0.9692383 0.5209961
vt 0.9692383 0.5209961
vt 0.9692383 0.5209961
vt 0.9692383 0.5209961

g SD_Prop_Goblin_Ladder_02_(2)_1608_100
usemtl SD_Prop_Goblin_Ladder_02_(2)_1608_100
usemap SD_Prop_Goblin_Ladder_02_(2)_1608_100
f 1/1/1 3/3/3 2/2/2
f 1/1/1 4/4/4 3/3/3
f 5/5/5 7/7/7 6/6/6
f 5/5/5 8/8/8 7/7/7
f 9/9/9 11/11/11 10/10/10
f 9/9/9 12/12/12 11/11/11
f 13/13/13 15/15/15 14/14/14
f 13/13/13 16/16/16 15/15/15
f 17/17/17 19/19/19 18/18/18
f 17/17/17 20/20/20 19/19/19
f 21/21/21 23/23/23 22/22/22
f 21/21/21 24/24/24 23/23/23
f 25/25/25 27/27/27 26/26/26
f 25/25/25 28/28/28 27/27/27
f 29/29/29 31/31/31 30/30/30
f 29/29/29 32/32/32 31/31/31
f 33/33/33 35/35/35 34/34/34
f 33/33/33 36/36/36 35/35/35
f 37/37/37 39/39/39 38/38/38
f 37/37/37 40/40/40 39/39/39
f 41/41/41 43/43/43 42/42/42
f 41/41/41 44/44/44 43/43/43
f 45/45/45 47/47/47 46/46/46
f 45/45/45 48/48/48 47/47/47
f 49/49/49 51/51/51 50/50/50
f 49/49/49 52/52/52 51/51/51
f 53/53/53 55/55/55 54/54/54
f 53/53/53 56/56/56 55/55/55
f 57/57/57 59/59/59 58/58/58
f 57/57/57 60/60/60 59/59/59
f 61/61/61 63/63/63 62/62/62
f 61/61/61 64/64/64 63/63/63
f 65/65/65 67/67/67 66/66/66
f 65/65/65 68/68/68 67/67/67
f 69/69/69 71/71/71 70/70/70
f 69/69/69 72/72/72 71/71/71
f 73/73/73 75/75/75 74/74/74
f 73/73/73 76/76/76 75/75/75
f 77/77/77 76/76/76 73/73/73
f 77/77/77 78/78/78 76/76/76
f 74/74/74 75/75/75 79/79/79
f 74/74/74 79/79/79 80/80/80
f 81/81/81 83/83/83 82/82/82
f 81/81/81 84/84/84 83/83/83
f 85/85/85 87/87/87 86/86/86
f 85/85/85 88/88/88 87/87/87
f 86/86/86 87/87/87 89/89/89
f 86/86/86 89/89/89 90/90/90
f 91/91/91 88/88/88 85/85/85
f 91/91/91 92/92/92 88/88/88
f 93/93/93 95/95/95 94/94/94
f 93/93/93 96/96/96 95/95/95
f 97/97/97 99/99/99 98/98/98
f 97/97/97 100/100/100 99/99/99
f 101/101/101 100/100/100 97/97/97
f 101/101/101 102/102/102 100/100/100
f 98/98/98 99/99/99 103/103/103
f 98/98/98 103/103/103 104/104/104
f 105/105/105 107/107/107 106/106/106
f 105/105/105 108/108/108 107/107/107
f 109/109/109 108/108/108 105/105/105
f 109/109/109 110/110/110 108/108/108
f 106/106/106 107/107/107 111/111/111
f 106/106/106 111/111/111 112/112/112
f 113/113/113 115/115/115 114/114/114
f 113/113/113 116/116/116 115/115/115
f 117/117/117 113/113/113 114/114/114
f 117/117/117 114/114/114 118/118/118
f 116/116/116 119/119/119 115/115/115
f 116/116/116 120/120/120 119/119/119
f 121/121/121 123/123/123 122/122/122
f 121/121/121 124/124/124 123/123/123
f 125/125/125 127/127/127 126/126/126
f 125/125/125 128/128/128 127/127/127
f 128/128/128 129/129/129 127/127/127
f 128/128/128 130/130/130 129/129/129
f 131/131/131 125/125/125 126/126/126
f 131/131/131 126/126/126 132/132/132
f 133/133/133 135/135/135 134/134/134
f 133/133/133 136/136/136 135/135/135
f 137/137/137 139/139/139 138/138/138
f 137/137/137 140/140/140 139/139/139
f 141/141/141 137/137/137 138/138/138
f 141/141/141 138/138/138 142/142/142
f 140/140/140 143/143/143 139/139/139
f 140/140/140 144/144/144 143/143/143
f 145/145/145 147/147/147 146/146/146
f 145/145/145 148/148/148 147/147/147
f 149/149/149 145/145/145 146/146/146
f 149/149/149 146/146/146 150/150/150
f 148/148/148 151/151/151 147/147/147
f 148/148/148 152/152/152 151/151/151
f 153/153/153 155/155/155 154/154/154
f 153/153/153 156/156/156 155/155/155
f 157/157/157 159/159/159 158/158/158
f 157/157/157 160/160/160 159/159/159
f 161/161/161 163/163/163 162/162/162
f 161/161/161 164/164/164 163/163/163
f 165/165/165 167/167/167 166/166/166
f 165/165/165 168/168/168 167/167/167
f 169/169/169 171/171/171 170/170/170
f 169/169/169 172/172/172 171/171/171
f 173/173/173 175/175/175 174/174/174
f 173/173/173 176/176/176 175/175/175
f 177/177/177 179/179/179 178/178/178
f 177/177/177 180/180/180 179/179/179
f 181/181/181 183/183/183 182/182/182
f 181/181/181 184/184/184 183/183/183
f 185/185/185 187/187/187 186/186/186
f 185/185/185 188/188/188 187/187/187
f 189/189/189 191/191/191 190/190/190
f 189/189/189 192/192/192 191/191/191
f 193/193/193 195/195/195 194/194/194
f 193/193/193 196/196/196 195/195/195
f 197/197/197 199/199/199 198/198/198
f 197/197/197 200/200/200 199/199/199
