#SD_Prop_BloodSplat_17_2669_102.obj

v -0.1338353 0.01465449 -0.07422359
v -0.2215261 0.01465449 -0.02990206
v -0.3503562 0.01465449 -0.06307324
v -0.3493225 0.01465449 -0.1168757
v -0.2557917 0.01465449 -0.1415625
v -0.1560845 0.01465449 -0.1286871
v 0.530008 0.01465449 0.002804169
v 0.4769303 0.01465449 0.02851768
v 0.3989507 0.01465449 0.009274888
v 0.3995759 0.01465449 -0.02193631
v 0.4561886 0.01465449 -0.03625834
v 0.5165405 0.01465449 -0.02878957
v 0.1413486 0.01465449 0.2151432
v 0.008285003 0.01465449 0.1945903
v 0.01829569 0.01465449 0.1399484
v 0.1355071 0.01465449 0.1116596
v 0.2284053 0.01465449 0.1456804
v 0.2423711 0.01465449 0.2029293
v 0.3762757 0.01465449 -0.09916358
v 0.3260863 0.01465449 -0.1180649
v 0.3445622 0.01465449 -0.1401073
v 0.4009115 0.01465449 -0.142828
v 0.4308048 0.01465449 -0.1214201
v 0.4216587 0.01465449 -0.09642846
v 0.2533694 0.01465449 -0.04593088
v 0.211209 0.01465449 -0.002935885
v 0.09681035 0.01465449 0.01087748
v 0.06887091 0.01465449 -0.0163803
v 0.1258948 0.01465449 -0.05089519
v 0.2076014 0.01465449 -0.0680117
v 0.05314007 0.01465449 -0.1638271
v 0.05283974 0.01465449 -0.1441535
v 0.01289709 0.01465449 -0.1347079
v -0.008510645 0.01465449 -0.1454882
v 0.0008873298 0.01465449 -0.1620004
v 0.0266579 0.01465449 -0.1718434
v 0.5554375 0.01465449 -0.2154251
v 0.5317109 0.01465449 -0.1958863
v 0.4763874 0.01465449 -0.1939521
v 0.4655741 0.01465449 -0.2086977
v 0.4955836 0.01465449 -0.2233853
v 0.5357349 0.01465449 -0.2283699
v -0.2251292 0.01495321 0.01881643
v -0.1252796 0.01495321 0.08966497
v -0.1614438 0.01495321 0.154373
v -0.3828505 0.01495321 0.1194424
v -0.5195112 0.01495321 0.0542823
v -0.3635885 0.01495321 0.009547326
v -0.5554373 0.01495321 0.1436419
v -0.482481 0.01495321 0.2120157
v -0.305778 0.01495321 0.2283677
v -0.01691522 0.01487009 -0.01974975
v 0.08178407 0.01487009 0.03509283
v 0.02603453 0.01487009 0.09642969
v -0.1252796 0.01495321 0.08966497
v -0.2251292 0.01495321 0.01881643
v -0.1076884 0.01487009 -0.01824223

vn 0 1 0
vn 0 1 0
vn 0 1 0
vn 0 1 0
vn 0 1 0
vn 0 1 0
vn 0 1 0
vn 0 1 0
vn 0 1 0
vn 0 1 0
vn 0 1 0
vn 0 1 0
vn 0 1 0
vn 0 1 0
vn 0 1 0
vn 0 1 0
vn 0 1 0
vn 0 1 0
vn 0 1 0
vn 0 1 0
vn 0 1 0
vn 0 1 0
vn 0 1 0
vn 0 1 0
vn 0 1 0
vn 0 1 0
vn 0 1 0
vn 0 1 0
vn 0 1 0
vn 0 1 0
vn 0 1 0
vn 0 1 0
vn 0 1 0
vn 0 1 0
vn 0 1 0
vn 0 1 0
vn 0 1 0
vn 0 1 0
vn 0 1 0
vn 0 1 0
vn 0 1 0
vn 0 1 0
vn 0 1 0
vn 0 1 0
vn 0 1 0
vn 0 1 0
vn 0 1 0
vn 0 1 0
vn 0 1 0
vn 0 1 0
vn 0 1 0
vn 0.000108774 1 -0.000346604
vn 0 1 0
vn 0 1 0
vn 0.000108774 1 -0.000346604
vn 0.0002175481 0.9999998 -0.000693208
vn 0.0002175481 0.9999998 -0.000693208

vt 0.1401367 0.180542
vt 0.1401367 0.180542
vt 0.1401367 0.180542
vt 0.1401367 0.180542
vt 0.1401367 0.180542
vt 0.1401367 0.180542
vt 0.1401367 0.180542
vt 0.1401367 0.180542
vt 0.1401367 0.180542
vt 0.1401367 0.180542
vt 0.1401367 0.180542
vt 0.1401367 0.180542
vt 0.1401367 0.180542
vt 0.1401367 0.180542
vt 0.1401367 0.180542
vt 0.1401367 0.180542
vt 0.1401367 0.180542
vt 0.1401367 0.180542
vt 0.1401367 0.180542
vt 0.1401367 0.180542
vt 0.1401367 0.180542
vt 0.1401367 0.180542
vt 0.1401367 0.180542
vt 0.1401367 0.180542
vt 0.1401367 0.180542
vt 0.1401367 0.180542
vt 0.1401367 0.180542
vt 0.1401367 0.180542
vt 0.1401367 0.180542
vt 0.1401367 0.180542
vt 0.1401367 0.180542
vt 0.1401367 0.180542
vt 0.1401367 0.180542
vt 0.1401367 0.180542
vt 0.1401367 0.180542
vt 0.1401367 0.180542
vt 0.1401367 0.180542
vt 0.1401367 0.180542
vt 0.1401367 0.180542
vt 0.1401367 0.180542
vt 0.1401367 0.180542
vt 0.1401367 0.180542
vt 0.1401367 0.180542
vt 0.1401367 0.180542
vt 0.1401367 0.180542
vt 0.1401367 0.180542
vt 0.1401367 0.180542
vt 0.1401367 0.180542
vt 0.1401367 0.180542
vt 0.1401367 0.180542
vt 0.1401367 0.180542
vt 0.1401367 0.180542
vt 0.1401367 0.180542
vt 0.1401367 0.180542
vt 0.1401367 0.180542
vt 0.1401367 0.180542
vt 0.1401367 0.180542

g SD_Prop_BloodSplat_17_2669_102
usemtl SD_Prop_BloodSplat_17_2669_102
usemap SD_Prop_BloodSplat_17_2669_102
f 1/1/1 3/3/3 2/2/2
f 1/1/1 4/4/4 3/3/3
f 5/5/5 4/4/4 1/1/1
f 5/5/5 1/1/1 6/6/6
f 7/7/7 9/9/9 8/8/8
f 7/7/7 10/10/10 9/9/9
f 11/11/11 10/10/10 7/7/7
f 11/11/11 7/7/7 12/12/12
f 13/13/13 15/15/15 14/14/14
f 13/13/13 16/16/16 15/15/15
f 17/17/17 16/16/16 13/13/13
f 17/17/17 13/13/13 18/18/18
f 19/19/19 21/21/21 20/20/20
f 19/19/19 22/22/22 21/21/21
f 23/23/23 22/22/22 19/19/19
f 23/23/23 19/19/19 24/24/24
f 25/25/25 27/27/27 26/26/26
f 25/25/25 28/28/28 27/27/27
f 29/29/29 28/28/28 25/25/25
f 29/29/29 25/25/25 30/30/30
f 31/31/31 33/33/33 32/32/32
f 31/31/31 34/34/34 33/33/33
f 35/35/35 34/34/34 31/31/31
f 35/35/35 31/31/31 36/36/36
f 37/37/37 39/39/39 38/38/38
f 37/37/37 40/40/40 39/39/39
f 41/41/41 40/40/40 37/37/37
f 41/41/41 37/37/37 42/42/42
f 43/43/43 45/45/45 44/44/44
f 43/43/43 46/46/46 45/45/45
f 47/47/47 46/46/46 43/43/43
f 47/47/47 43/43/43 48/48/48
f 49/49/49 46/46/46 47/47/47
f 49/49/49 50/50/50 46/46/46
f 45/45/45 46/46/46 50/50/50
f 45/45/45 50/50/50 51/51/51
f 52/52/52 54/54/54 53/53/53
f 52/52/52 55/55/55 54/54/54
f 56/56/56 55/55/55 52/52/52
f 56/56/56 52/52/52 57/57/57
