#SD_Prop_Trapdoor_01_2377_172.obj

v 0.4408289 0.05480003 0.1969554
v 0.4408289 0.06777191 0.1969554
v 0.6204173 0.06777191 0.1969554
v 0.6204173 0.05480003 0.1969554
v 0.4408289 0.06777191 0.1969554
v 0.4408289 0.06777191 -0.1969528
v 0.6204173 0.06777191 -0.1969528
v 0.6204173 0.06777191 0.1969554
v 0.4408289 0.06777191 -0.1969528
v 0.4408289 0.05480003 -0.1969528
v 0.6204173 0.05480003 -0.1969528
v 0.6204173 0.06777191 -0.1969528
v 0.6204173 0.05480003 0.1969554
v 0.6204173 0.06777191 0.1969554
v 0.6204173 0.06777191 -0.1969528
v 0.6204173 0.05480003 -0.1969528
v 0.4408289 0.05480003 -0.1969528
v 0.4408289 0.06777191 -0.1969528
v 0.4408289 0.06777191 0.1969554
v 0.4408289 0.05480003 0.1969554
v -0.8421987 0 0.8422012
v -0.8421987 0.0333786 0.8422012
v 0.8422114 0.0333786 0.8422012
v 0.8422114 0 0.8422012
v -0.7114003 0.05480003 0.3817291
v -0.7114003 0.05480003 0.320137
v 0.7114131 0.05480003 0.320137
v 0.7114131 0.05480003 0.3817291
v -0.8421987 0.0333786 -0.8422012
v -0.8421987 0 -0.8422012
v 0.8422114 0 -0.8422012
v 0.8422114 0.0333786 -0.8422012
v 0.8422114 0 0.8422012
v 0.8422114 0.0333786 0.8422012
v 0.8422114 0.0333786 -0.8422012
v 0.8422114 0 -0.8422012
v -0.8421987 0 -0.8422012
v -0.8421987 0.0333786 -0.8422012
v -0.8421987 0.0333786 0.8422012
v -0.8421987 0 0.8422012
v -0.8421987 0.0333786 0.8422012
v -0.7114003 0.0333786 0.7114105
v 0.7114131 0.0333786 0.7114105
v 0.8422114 0.0333786 0.8422012
v 0.7114131 0.0333786 0.3817291
v 0.7114131 0.0333786 0.320137
v 0.7114131 0.0333786 0.02602641
v 0.7114131 0.0333786 -0.03557078
v 0.7114131 0.0333786 -0.3296814
v 0.7114131 0.0333786 -0.3912735
v 0.7114131 0.0333786 -0.7114105
v 0.8422114 0.0333786 -0.8422012
v -0.7114003 0.0333786 -0.7114105
v -0.8421987 0.0333786 -0.8422012
v -0.7114003 0.0333786 -0.3912735
v -0.7114003 0.0333786 -0.3296814
v -0.7114003 0.0333786 -0.03557078
v -0.7114003 0.0333786 0.02602641
v -0.7114003 0.0333786 0.320137
v -0.7114003 0.0333786 0.3817291
v -0.7114003 0.0333786 0.7114105
v -0.7114003 0.05480003 0.7114105
v 0.7114131 0.05480003 0.7114105
v 0.7114131 0.0333786 0.7114105
v 0.7114131 0.05480003 0.3817291
v 0.7114131 0.05480003 0.320137
v 0.7114131 0.0333786 0.320137
v 0.7114131 0.0333786 0.3817291
v 0.7114131 0.0333786 -0.7114105
v 0.7114131 0.05480003 -0.7114105
v -0.7114003 0.05480003 -0.7114105
v -0.7114003 0.0333786 -0.7114105
v -0.7114003 0.05480003 0.320137
v -0.7114003 0.05480003 0.3817291
v -0.7114003 0.0333786 0.3817291
v -0.7114003 0.0333786 0.320137
v 0.7114131 0.05480003 -0.03557078
v 0.7114131 0.05480003 -0.3296814
v 0.7114131 0.0333786 -0.3296814
v 0.7114131 0.0333786 -0.03557078
v -0.7114003 0.05480003 -0.03557078
v -0.7114003 0.05480003 -0.3296814
v 0.7114131 0.05480003 -0.3296814
v 0.7114131 0.05480003 -0.03557078
v -0.7114003 0.05480003 -0.3296814
v -0.7114003 0.05480003 -0.03557078
v -0.7114003 0.0333786 -0.03557078
v -0.7114003 0.0333786 -0.3296814
v 0.7114131 0.05480003 -0.3296814
v 0.7114131 0.05480003 -0.3912735
v 0.7114131 0.0333786 -0.3912735
v 0.7114131 0.0333786 -0.3296814
v -0.7114003 0.05480003 -0.3296814
v -0.7114003 0.05480003 -0.3912735
v 0.7114131 0.05480003 -0.3912735
v 0.7114131 0.05480003 -0.3296814
v -0.7114003 0.05480003 -0.3912735
v -0.7114003 0.05480003 -0.3296814
v -0.7114003 0.0333786 -0.3296814
v -0.7114003 0.0333786 -0.3912735
v -0.7114003 0.05480003 0.3817291
v -0.7114003 0.05480003 0.7114105
v -0.7114003 0.0333786 0.7114105
v -0.7114003 0.0333786 0.3817291
v -0.7114003 0.05480003 0.7114105
v -0.7114003 0.05480003 0.3817291
v 0.7114131 0.05480003 0.3817291
v 0.7114131 0.05480003 0.7114105
v 0.7114131 0.0333786 0.7114105
v 0.7114131 0.05480003 0.7114105
v 0.7114131 0.05480003 0.3817291
v 0.7114131 0.0333786 0.3817291
v 0.7114131 0.05480003 0.320137
v 0.7114131 0.05480003 0.02602641
v 0.7114131 0.0333786 0.02602641
v 0.7114131 0.0333786 0.320137
v -0.7114003 0.05480003 0.320137
v -0.7114003 0.05480003 0.02602641
v 0.7114131 0.05480003 0.02602641
v 0.7114131 0.05480003 0.320137
v -0.7114003 0.05480003 0.02602641
v -0.7114003 0.05480003 0.320137
v -0.7114003 0.0333786 0.320137
v -0.7114003 0.0333786 0.02602641
v -0.7114003 0.05480003 -0.03557078
v -0.7114003 0.05480003 0.02602641
v -0.7114003 0.0333786 0.02602641
v -0.7114003 0.0333786 -0.03557078
v -0.7114003 0.05480003 0.02602641
v -0.7114003 0.05480003 -0.03557078
v 0.7114131 0.05480003 -0.03557078
v 0.7114131 0.05480003 0.02602641
v 0.7114131 0.05480003 0.02602641
v 0.7114131 0.05480003 -0.03557078
v 0.7114131 0.0333786 -0.03557078
v 0.7114131 0.0333786 0.02602641
v 0.7114131 0.05480003 -0.3912735
v 0.7114131 0.05480003 -0.7114105
v 0.7114131 0.0333786 -0.7114105
v 0.7114131 0.0333786 -0.3912735
v -0.7114003 0.05480003 -0.3912735
v -0.7114003 0.05480003 -0.7114105
v 0.7114131 0.05480003 -0.7114105
v 0.7114131 0.05480003 -0.3912735
v -0.7114003 0.0333786 -0.7114105
v -0.7114003 0.05480003 -0.7114105
v -0.7114003 0.05480003 -0.3912735
v -0.7114003 0.0333786 -0.3912735
v -0.7917684 0.0333786 0.6581573
v -0.7917684 0.06898308 0.6581573
v -0.488912 0.06898308 0.6581573
v -0.488912 0.0333786 0.6581573
v -0.7917684 0.06898308 0.6581573
v -0.7917684 0.06898308 0.4466375
v -0.488912 0.06898308 0.4466375
v -0.488912 0.06898308 0.6581573
v -0.7917684 0.06898308 0.4466375
v -0.7917684 0.0333786 0.4466375
v -0.488912 0.0333786 0.4466375
v -0.488912 0.06898308 0.4466375
v -0.488912 0.0333786 0.6581573
v -0.488912 0.06898308 0.6581573
v -0.488912 0.06898308 0.4466375
v -0.488912 0.0333786 0.4466375
v -0.7917684 0.0333786 0.4466375
v -0.7917684 0.06898308 0.4466375
v -0.7917684 0.06898308 0.6581573
v -0.7917684 0.0333786 0.6581573
v -0.7917684 0.0333786 -0.4466375
v -0.7917684 0.06898308 -0.4466375
v -0.488912 0.06898308 -0.4466375
v -0.488912 0.0333786 -0.4466375
v -0.7917684 0.06898308 -0.4466375
v -0.7917684 0.06898308 -0.6581573
v -0.488912 0.06898308 -0.6581573
v -0.488912 0.06898308 -0.4466375
v -0.7917684 0.06898308 -0.6581573
v -0.7917684 0.0333786 -0.6581573
v -0.488912 0.0333786 -0.6581573
v -0.488912 0.06898308 -0.6581573
v -0.488912 0.0333786 -0.4466375
v -0.488912 0.06898308 -0.4466375
v -0.488912 0.06898308 -0.6581573
v -0.488912 0.0333786 -0.6581573
v -0.7917684 0.0333786 -0.6581573
v -0.7917684 0.06898308 -0.6581573
v -0.7917684 0.06898308 -0.4466375
v -0.7917684 0.0333786 -0.4466375

vn 0 0 1
vn 0 0 1
vn 0 0 1
vn 0 0 1
vn 0 1 0
vn 0 1 0
vn 0 1 0
vn 0 1 0
vn 0 0 -1
vn 0 0 -1
vn 0 0 -1
vn 0 0 -1
vn 1 0 0
vn 1 0 0
vn 1 0 0
vn 1 0 0
vn -1 0 0
vn -1 0 0
vn -1 0 0
vn -1 0 0
vn 0 0 1
vn 0 0 1
vn 0 0 1
vn 0 0 1
vn 0 1 0
vn 0 1 0
vn 0 1 0
vn 0 1 0
vn 0 0 -1
vn 0 0 -1
vn 0 0 -1
vn 0 0 -1
vn 1 0 0
vn 1 0 0
vn 1 0 0
vn 1 0 0
vn -1 0 0
vn -1 0 0
vn -1 0 0
vn -1 0 0
vn 0 1 0
vn 0 1 0
vn 0 1 0
vn 0 1 0
vn 0 1 0
vn 0 1 0
vn 0 1 0
vn 0 1 0
vn 0 1 0
vn 0 1 0
vn 0 1 0
vn 0 1 0
vn 0 1 0
vn 0 1 0
vn 0 1 0
vn 0 1 0
vn 0 1 0
vn 0 1 0
vn 0 1 0
vn 0 1 0
vn 0 0 1
vn 0 0 1
vn 0 0 1
vn 0 0 1
vn 1 0 0
vn 1 0 0
vn 1 0 0
vn 1 0 0
vn 0 0 -1
vn 0 0 -1
vn 0 0 -1
vn 0 0 -1
vn -1 0 0
vn -1 0 0
vn -1 0 0
vn -1 0 0
vn 1 0 0
vn 1 0 0
vn 1 0 0
vn 1 0 0
vn 0 1 0
vn 0 1 0
vn 0 1 0
vn 0 1 0
vn -1 0 0
vn -1 0 0
vn -1 0 0
vn -1 0 0
vn 1 0 0
vn 1 0 0
vn 1 0 0
vn 1 0 0
vn 0 1 0
vn 0 1 0
vn 0 1 0
vn 0 1 0
vn -1 0 0
vn -1 0 0
vn -1 0 0
vn -1 0 0
vn -1 0 0
vn -1 0 0
vn -1 0 0
vn -1 0 0
vn 0 1 0
vn 0 1 0
vn 0 1 0
vn 0 1 0
vn 1 0 0
vn 1 0 0
vn 1 0 0
vn 1 0 0
vn 1 0 0
vn 1 0 0
vn 1 0 0
vn 1 0 0
vn 0 1 0
vn 0 1 0
vn 0 1 0
vn 0 1 0
vn -1 0 0
vn -1 0 0
vn -1 0 0
vn -1 0 0
vn -1 0 0
vn -1 0 0
vn -1 0 0
vn -1 0 0
vn 0 1 0
vn 0 1 0
vn 0 1 0
vn 0 1 0
vn 1 0 0
vn 1 0 0
vn 1 0 0
vn 1 0 0
vn 1 0 0
vn 1 0 0
vn 1 0 0
vn 1 0 0
vn 0 1 0
vn 0 1 0
vn 0 1 0
vn 0 1 0
vn -1 0 0
vn -1 0 0
vn -1 0 0
vn -1 0 0
vn 0 0 1
vn 0 0 1
vn 0 0 1
vn 0 0 1
vn 0 1 0
vn 0 1 0
vn 0 1 0
vn 0 1 0
vn 0 0 -1
vn 0 0 -1
vn 0 0 -1
vn 0 0 -1
vn 1 0 0
vn 1 0 0
vn 1 0 0
vn 1 0 0
vn -1 0 0
vn -1 0 0
vn -1 0 0
vn -1 0 0
vn 0 0 1
vn 0 0 1
vn 0 0 1
vn 0 0 1
vn 0 1 0
vn 0 1 0
vn 0 1 0
vn 0 1 0
vn 0 0 -1
vn 0 0 -1
vn 0 0 -1
vn 0 0 -1
vn 1 0 0
vn 1 0 0
vn 1 0 0
vn 1 0 0
vn -1 0 0
vn -1 0 0
vn -1 0 0
vn -1 0 0

vt 0.166626 0.265625
vt 0.166626 0.265625
vt 0.166626 0.265625
vt 0.166626 0.265625
vt 0.1971436 0.265625
vt 0.1971436 0.265625
vt 0.1971436 0.265625
vt 0.1971436 0.265625
vt 0.166626 0.265625
vt 0.166626 0.265625
vt 0.166626 0.265625
vt 0.166626 0.265625
vt 0.1368408 0.265625
vt 0.1368408 0.265625
vt 0.1368408 0.265625
vt 0.1368408 0.265625
vt 0.1368408 0.265625
vt 0.1368408 0.265625
vt 0.1368408 0.265625
vt 0.1368408 0.265625
vt 0.2644043 0.06414795
vt 0.2644043 0.06414795
vt 0.2644043 0.06414795
vt 0.2644043 0.06414795
vt 0.1732178 0.512207
vt 0.1732178 0.512207
vt 0.1732178 0.512207
vt 0.1732178 0.512207
vt 0.2644043 0.06414795
vt 0.2644043 0.06414795
vt 0.2644043 0.06414795
vt 0.2644043 0.06414795
vt 0.2346191 0.06414795
vt 0.2346191 0.06414795
vt 0.2346191 0.06414795
vt 0.2346191 0.06414795
vt 0.2346191 0.06414795
vt 0.2346191 0.06414795
vt 0.2346191 0.06414795
vt 0.2346191 0.06414795
vt 0.2949219 0.06414795
vt 0.2949219 0.06414795
vt 0.2949219 0.06414795
vt 0.2949219 0.06414795
vt 0.2949219 0.06414795
vt 0.2949219 0.06414795
vt 0.2949219 0.06414795
vt 0.2949219 0.06414795
vt 0.2949219 0.06414795
vt 0.2949219 0.06414795
vt 0.2949219 0.06414795
vt 0.2949219 0.06414795
vt 0.2949219 0.06414795
vt 0.2949219 0.06414795
vt 0.2949219 0.06414795
vt 0.2949219 0.06414795
vt 0.2949219 0.06414795
vt 0.2949219 0.06414795
vt 0.2949219 0.06414795
vt 0.2949219 0.06414795
vt 0.2393799 0.512207
vt 0.2393799 0.512207
vt 0.2393799 0.512207
vt 0.2393799 0.512207
vt 0.1101074 0.512207
vt 0.1101074 0.512207
vt 0.1101074 0.512207
vt 0.1101074 0.512207
vt 0.2393799 0.512207
vt 0.2393799 0.512207
vt 0.2393799 0.512207
vt 0.2393799 0.512207
vt 0.1101074 0.512207
vt 0.1101074 0.512207
vt 0.1101074 0.512207
vt 0.1101074 0.512207
vt 0.2034912 0.512207
vt 0.2034912 0.512207
vt 0.2034912 0.512207
vt 0.2034912 0.512207
vt 0.2666016 0.512207
vt 0.2666016 0.512207
vt 0.2666016 0.512207
vt 0.2666016 0.512207
vt 0.2034912 0.512207
vt 0.2034912 0.512207
vt 0.2034912 0.512207
vt 0.2034912 0.512207
vt 0.1101074 0.512207
vt 0.1101074 0.512207
vt 0.1101074 0.512207
vt 0.1101074 0.512207
vt 0.1732178 0.512207
vt 0.1732178 0.512207
vt 0.1732178 0.512207
vt 0.1732178 0.512207
vt 0.1101074 0.512207
vt 0.1101074 0.512207
vt 0.1101074 0.512207
vt 0.1101074 0.512207
vt 0.2034912 0.512207
vt 0.2034912 0.512207
vt 0.2034912 0.512207
vt 0.2034912 0.512207
vt 0.2666016 0.512207
vt 0.2666016 0.512207
vt 0.2666016 0.512207
vt 0.2666016 0.512207
vt 0.2034912 0.512207
vt 0.2034912 0.512207
vt 0.2034912 0.512207
vt 0.2034912 0.512207
vt 0.2034912 0.512207
vt 0.2034912 0.512207
vt 0.2034912 0.512207
vt 0.2034912 0.512207
vt 0.2666016 0.512207
vt 0.2666016 0.512207
vt 0.2666016 0.512207
vt 0.2666016 0.512207
vt 0.2034912 0.512207
vt 0.2034912 0.512207
vt 0.2034912 0.512207
vt 0.2034912 0.512207
vt 0.1101074 0.512207
vt 0.1101074 0.512207
vt 0.1101074 0.512207
vt 0.1101074 0.512207
vt 0.1732178 0.512207
vt 0.1732178 0.512207
vt 0.1732178 0.512207
vt 0.1732178 0.512207
vt 0.1101074 0.512207
vt 0.1101074 0.512207
vt 0.1101074 0.512207
vt 0.1101074 0.512207
vt 0.2034912 0.512207
vt 0.2034912 0.512207
vt 0.2034912 0.512207
vt 0.2034912 0.512207
vt 0.2666016 0.512207
vt 0.2666016 0.512207
vt 0.2666016 0.512207
vt 0.2666016 0.512207
vt 0.2034912 0.512207
vt 0.2034912 0.512207
vt 0.2034912 0.512207
vt 0.2034912 0.512207
vt 0.2941895 0.2641602
vt 0.2941895 0.2641602
vt 0.2941895 0.2641602
vt 0.2941895 0.2641602
vt 0.324707 0.2641602
vt 0.324707 0.2641602
vt 0.324707 0.2641602
vt 0.324707 0.2641602
vt 0.2941895 0.2641602
vt 0.2941895 0.2641602
vt 0.2941895 0.2641602
vt 0.2941895 0.2641602
vt 0.2646484 0.2641602
vt 0.2646484 0.2641602
vt 0.2646484 0.2641602
vt 0.2646484 0.2641602
vt 0.2646484 0.2641602
vt 0.2646484 0.2641602
vt 0.2646484 0.2641602
vt 0.2646484 0.2641602
vt 0.2941895 0.2641602
vt 0.2941895 0.2641602
vt 0.2941895 0.2641602
vt 0.2941895 0.2641602
vt 0.324707 0.2641602
vt 0.324707 0.2641602
vt 0.324707 0.2641602
vt 0.324707 0.2641602
vt 0.2941895 0.2641602
vt 0.2941895 0.2641602
vt 0.2941895 0.2641602
vt 0.2941895 0.2641602
vt 0.2646484 0.2641602
vt 0.2646484 0.2641602
vt 0.2646484 0.2641602
vt 0.2646484 0.2641602
vt 0.2646484 0.2641602
vt 0.2646484 0.2641602
vt 0.2646484 0.2641602
vt 0.2646484 0.2641602

g SD_Prop_Trapdoor_01_2377_172
usemtl SD_Prop_Trapdoor_01_2377_172
usemap SD_Prop_Trapdoor_01_2377_172
f 1/1/1 3/3/3 2/2/2
f 1/1/1 4/4/4 3/3/3
f 5/5/5 7/7/7 6/6/6
f 5/5/5 8/8/8 7/7/7
f 9/9/9 11/11/11 10/10/10
f 9/9/9 12/12/12 11/11/11
f 13/13/13 15/15/15 14/14/14
f 13/13/13 16/16/16 15/15/15
f 17/17/17 19/19/19 18/18/18
f 17/17/17 20/20/20 19/19/19
f 21/21/21 23/23/23 22/22/22
f 21/21/21 24/24/24 23/23/23
f 25/25/25 27/27/27 26/26/26
f 25/25/25 28/28/28 27/27/27
f 29/29/29 31/31/31 30/30/30
f 29/29/29 32/32/32 31/31/31
f 33/33/33 35/35/35 34/34/34
f 33/33/33 36/36/36 35/35/35
f 37/37/37 39/39/39 38/38/38
f 37/37/37 40/40/40 39/39/39
f 41/41/41 43/43/43 42/42/42
f 41/41/41 44/44/44 43/43/43
f 44/44/44 45/45/45 43/43/43
f 44/44/44 46/46/46 45/45/45
f 44/44/44 47/47/47 46/46/46
f 44/44/44 48/48/48 47/47/47
f 44/44/44 49/49/49 48/48/48
f 44/44/44 50/50/50 49/49/49
f 44/44/44 51/51/51 50/50/50
f 51/51/51 44/44/44 52/52/52
f 52/52/52 53/53/53 51/51/51
f 52/52/52 54/54/54 53/53/53
f 41/41/41 53/53/53 54/54/54
f 53/53/53 41/41/41 55/55/55
f 55/55/55 41/41/41 56/56/56
f 56/56/56 41/41/41 57/57/57
f 57/57/57 41/41/41 58/58/58
f 58/58/58 41/41/41 59/59/59
f 59/59/59 41/41/41 60/60/60
f 60/60/60 41/41/41 42/42/42
f 61/61/61 63/63/63 62/62/62
f 61/61/61 64/64/64 63/63/63
f 65/65/65 67/67/67 66/66/66
f 65/65/65 68/68/68 67/67/67
f 69/69/69 71/71/71 70/70/70
f 69/69/69 72/72/72 71/71/71
f 73/73/73 75/75/75 74/74/74
f 73/73/73 76/76/76 75/75/75
f 77/77/77 79/79/79 78/78/78
f 77/77/77 80/80/80 79/79/79
f 81/81/81 83/83/83 82/82/82
f 81/81/81 84/84/84 83/83/83
f 85/85/85 87/87/87 86/86/86
f 85/85/85 88/88/88 87/87/87
f 89/89/89 91/91/91 90/90/90
f 89/89/89 92/92/92 91/91/91
f 93/93/93 95/95/95 94/94/94
f 93/93/93 96/96/96 95/95/95
f 97/97/97 99/99/99 98/98/98
f 97/97/97 100/100/100 99/99/99
f 101/101/101 103/103/103 102/102/102
f 101/101/101 104/104/104 103/103/103
f 105/105/105 107/107/107 106/106/106
f 105/105/105 108/108/108 107/107/107
f 109/109/109 111/111/111 110/110/110
f 109/109/109 112/112/112 111/111/111
f 113/113/113 115/115/115 114/114/114
f 113/113/113 116/116/116 115/115/115
f 117/117/117 119/119/119 118/118/118
f 117/117/117 120/120/120 119/119/119
f 121/121/121 123/123/123 122/122/122
f 121/121/121 124/124/124 123/123/123
f 125/125/125 127/127/127 126/126/126
f 125/125/125 128/128/128 127/127/127
f 129/129/129 131/131/131 130/130/130
f 129/129/129 132/132/132 131/131/131
f 133/133/133 135/135/135 134/134/134
f 133/133/133 136/136/136 135/135/135
f 137/137/137 139/139/139 138/138/138
f 137/137/137 140/140/140 139/139/139
f 141/141/141 143/143/143 142/142/142
f 141/141/141 144/144/144 143/143/143
f 145/145/145 147/147/147 146/146/146
f 145/145/145 148/148/148 147/147/147
f 149/149/149 151/151/151 150/150/150
f 149/149/149 152/152/152 151/151/151
f 153/153/153 155/155/155 154/154/154
f 153/153/153 156/156/156 155/155/155
f 157/157/157 159/159/159 158/158/158
f 157/157/157 160/160/160 159/159/159
f 161/161/161 163/163/163 162/162/162
f 161/161/161 164/164/164 163/163/163
f 165/165/165 167/167/167 166/166/166
f 165/165/165 168/168/168 167/167/167
f 169/169/169 171/171/171 170/170/170
f 169/169/169 172/172/172 171/171/171
f 173/173/173 175/175/175 174/174/174
f 173/173/173 176/176/176 175/175/175
f 177/177/177 179/179/179 178/178/178
f 177/177/177 180/180/180 179/179/179
f 181/181/181 183/183/183 182/182/182
f 181/181/181 184/184/184 183/183/183
f 185/185/185 187/187/187 186/186/186
f 185/185/185 188/188/188 187/187/187
