#SD_Prop_BloodSplat_20_2260_87.obj

v -0.1467982 0.01461419 0.1398446
v -0.155273 0.01461419 0.1881756
v -0.2096097 0.01461419 0.1874193
v -0.2322138 0.01461419 0.1479509
v -0.2135487 0.01461419 0.1128911
v -0.1769493 0.01461419 0.1041331
v -0.06434227 0.01480386 -0.1881773
v 0.02762965 0.01480386 -0.1613493
v 0.04074311 0.01480386 -0.07746531
v -0.09501091 0.01480386 -0.05949454
v -0.2356126 0.01480386 -0.09814747
v -0.2087837 0.01480386 -0.1834586
v -0.1866875 0.01480386 0.038842
v -0.08453914 0.01480386 0.1058896
v 0.007432787 0.01480386 0.07906147
v 0.1462676 0.01473151 -0.02756953
v 0.2256375 0.01473151 0.0008965348
v 0.2356126 0.01473151 0.07871994
v 0.1621735 0.01473151 0.1054714
v 0.1082568 0.01473151 0.06362609
v 0.1041122 0.01473151 -0.0009087325

vn 0 1 0
vn 0 1 0
vn 0 1 0
vn 0 1 0
vn 0 1 0
vn 0 1 0
vn 0 1 0
vn 0 1 0
vn 0 1 0
vn 0 1 0
vn 0 1 0
vn 0 1 0
vn 0 1 0
vn 0 1 0
vn 0 1 0
vn 0 1 0
vn 0 1 0
vn 0 1 0
vn 0 1 0
vn 0 1 0
vn 0 1 0

vt 0.1401367 0.180542
vt 0.1401367 0.180542
vt 0.1401367 0.180542
vt 0.1401367 0.180542
vt 0.1401367 0.180542
vt 0.1401367 0.180542
vt 0.1401367 0.180542
vt 0.1401367 0.180542
vt 0.1401367 0.180542
vt 0.1401367 0.180542
vt 0.1401367 0.180542
vt 0.1401367 0.180542
vt 0.1401367 0.180542
vt 0.1401367 0.180542
vt 0.1401367 0.180542
vt 0.1401367 0.180542
vt 0.1401367 0.180542
vt 0.1401367 0.180542
vt 0.1401367 0.180542
vt 0.1401367 0.180542
vt 0.1401367 0.180542

g SD_Prop_BloodSplat_20_2260_87
usemtl SD_Prop_BloodSplat_20_2260_87
usemap SD_Prop_BloodSplat_20_2260_87
f 1/1/1 3/3/3 2/2/2
f 1/1/1 4/4/4 3/3/3
f 5/5/5 4/4/4 1/1/1
f 5/5/5 1/1/1 6/6/6
f 7/7/7 9/9/9 8/8/8
f 7/7/7 10/10/10 9/9/9
f 11/11/11 10/10/10 7/7/7
f 11/11/11 7/7/7 12/12/12
f 13/13/13 10/10/10 11/11/11
f 13/13/13 14/14/14 10/10/10
f 9/9/9 10/10/10 14/14/14
f 9/9/9 14/14/14 15/15/15
f 16/16/16 18/18/18 17/17/17
f 16/16/16 19/19/19 18/18/18
f 20/20/20 19/19/19 16/16/16
f 20/20/20 16/16/16 21/21/21
