#SD_Prop_Chest_04_2902_47.obj

v -0.8905234 0.07983255 -0.3636051
v -0.8905234 0.4993986 -0.3636051
v -0.8905231 0.4993986 0.3636084
v -0.8905231 0.07983255 0.3636084
v -0.6609295 0.1109273 -0.3710871
v 0.6609241 0.1109273 -0.3710877
v 0.6609244 0.1109273 0.3710922
v -0.6609292 0.1109273 0.3710902
v 0.8905231 0.4993986 -0.3636059
v 0.8905231 0.07983255 -0.3636059
v 0.8905234 0.07983255 0.3636102
v 0.8905234 0.4993986 0.3636102
v 0.8905231 0 -0.4999991
v -0.8905235 0 -0.4999984
v -0.8905231 0 0.5000016
v 0.8905235 0 0.5000009
v -0.7546538 0.07983255 0.5000015
v -0.7546538 0.4985689 0.5000015
v 0.7546541 0.4985689 0.500001
v 0.7546541 0.07983255 0.500001
v 0.7546538 0.07983255 -0.499999
v 0.7546538 0.4993989 -0.499999
v -0.7546541 0.4993989 -0.4999984
v -0.7546541 0.07983255 -0.4999984
v -0.8905235 0.5792313 -0.4999984
v -0.6609295 0.5792313 -0.3710871
v -0.6609292 0.5792313 0.3710902
v -0.8905231 0.5792313 0.5000016
v 0.6609244 0.5792313 0.3710922
v 0.8905235 0.5792313 0.5000009
v 0.6609241 0.5792313 -0.3710877
v 0.8905231 0.5792313 -0.4999991
v -0.6609295 0.5792313 -0.3710871
v -0.6609346 0.5050182 -0.3710871
v -0.6609343 0.5050182 0.3710902
v -0.6609292 0.5792313 0.3710902
v -0.6609292 0.5792313 0.3710902
v -0.6609343 0.5050182 0.3710902
v 0.6609244 0.5050182 0.3710922
v 0.6609244 0.5792313 0.3710922
v 0.6609244 0.5792313 0.3710922
v 0.6609244 0.5050182 0.3710922
v 0.6609241 0.5050182 -0.3710877
v 0.6609241 0.5792313 -0.3710877
v 0.6609241 0.5792313 -0.3710877
v 0.6609241 0.5050182 -0.3710877
v -0.6609346 0.5050182 -0.3710871
v -0.6609295 0.5792313 -0.3710871
v -0.8905231 0 0.5000016
v -0.7546538 0.07983255 0.5000015
v 0.7546541 0.07983255 0.500001
v 0.8905235 0 0.5000009
v 0.7546541 0.4985689 0.500001
v 0.8905235 0.5792313 0.5000009
v -0.7546538 0.4985689 0.5000015
v -0.8905231 0.5792313 0.5000016
v 0.8905231 0 -0.4999991
v 0.7546538 0.07983255 -0.499999
v -0.7546541 0.07983255 -0.4999984
v -0.8905235 0 -0.4999984
v -0.7546541 0.4993989 -0.4999984
v -0.8905235 0.5792313 -0.4999984
v 0.7546538 0.4993989 -0.499999
v 0.8905231 0.5792313 -0.4999991
v -0.8905235 0 -0.4999984
v -0.8905234 0.07983255 -0.3636051
v -0.8905231 0.07983255 0.3636084
v -0.8905231 0 0.5000016
v -0.8905231 0.4993986 0.3636084
v -0.8905231 0.5792313 0.5000016
v -0.8905234 0.4993986 -0.3636051
v -0.8905235 0.5792313 -0.4999984
v 0.8905231 0.5792313 -0.4999991
v 0.8905231 0.4993986 -0.3636059
v 0.8905234 0.4993986 0.3636102
v 0.8905235 0.5792313 0.5000009
v 0.8905234 0.07983255 0.3636102
v 0.8905235 0 0.5000009
v 0.8905231 0.07983255 -0.3636059
v 0.8905231 0 -0.4999991
v 0.6609241 0.5050182 -0.3710877
v 0.6609241 0.1109273 -0.3710877
v -0.6609295 0.1109273 -0.3710871
v -0.6609346 0.5050182 -0.3710871
v 0.6609244 0.5050182 0.3710922
v 0.6609244 0.1109273 0.3710922
v 0.6609241 0.1109273 -0.3710877
v 0.6609241 0.5050182 -0.3710877
v -0.6609343 0.5050182 0.3710902
v -0.6609292 0.1109273 0.3710902
v 0.6609244 0.1109273 0.3710922
v 0.6609244 0.5050182 0.3710922
v -0.6609346 0.5050182 -0.3710871
v -0.6609295 0.1109273 -0.3710871
v -0.6609292 0.1109273 0.3710902
v -0.6609343 0.5050182 0.3710902

vn -3.576279E-07 0 1
vn -3.576279E-07 0 1
vn -3.576279E-07 0 1
vn -3.576279E-07 0 1
vn 0 1 0
vn 0 1 0
vn 0 1 0
vn 0 1 0
vn 3.576279E-07 0 -1
vn 3.576279E-07 0 -1
vn 3.576279E-07 0 -1
vn 3.576279E-07 0 -1
vn 0 -1 0
vn 0 -1 0
vn 0 -1 0
vn 0 -1 0
vn 1 0 3.576279E-07
vn 1 0 3.576279E-07
vn 1 0 3.576279E-07
vn 1 0 3.576279E-07
vn -1 0 -3.576279E-07
vn -1 0 -3.576279E-07
vn -1 0 -3.576279E-07
vn -1 0 -3.576279E-07
vn 0 1 0
vn 0 1 0
vn 0 1 0
vn 0 1 0
vn 0 1 0
vn 0 1 0
vn 0 1 0
vn 0 1 0
vn 3.576279E-07 0 -1
vn 3.576279E-07 0 -1
vn 3.576279E-07 0 -1
vn 3.576279E-07 0 -1
vn -1 0 -3.576279E-07
vn -1 0 -3.576279E-07
vn -1 0 -3.576279E-07
vn -1 0 -3.576279E-07
vn -3.576279E-07 0 1
vn -3.576279E-07 0 1
vn -3.576279E-07 0 1
vn -3.576279E-07 0 1
vn 1 0 3.576279E-07
vn 1 0 3.576279E-07
vn 1 0 3.576279E-07
vn 1 0 3.576279E-07
vn 1 0 3.576279E-07
vn 1 0 3.576279E-07
vn 1 0 3.576279E-07
vn 1 0 3.576279E-07
vn 1 0 3.576279E-07
vn 1 0 3.576279E-07
vn 1 0 3.576279E-07
vn 1 0 3.576279E-07
vn -1 0 -3.576279E-07
vn -1 0 -3.576279E-07
vn -1 0 -3.576279E-07
vn -1 0 -3.576279E-07
vn -1 0 -3.576279E-07
vn -1 0 -3.576279E-07
vn -1 0 -3.576279E-07
vn -1 0 -3.576279E-07
vn -3.576279E-07 0 1
vn -3.576279E-07 0 1
vn -3.576279E-07 0 1
vn -3.576279E-07 0 1
vn -3.576279E-07 0 1
vn -3.576279E-07 0 1
vn -3.576279E-07 0 1
vn -3.576279E-07 0 1
vn 3.576279E-07 0 -1
vn 3.576279E-07 0 -1
vn 3.576279E-07 0 -1
vn 3.576279E-07 0 -1
vn 3.576279E-07 0 -1
vn 3.576279E-07 0 -1
vn 3.576279E-07 0 -1
vn 3.576279E-07 0 -1
vn 1 0 3.576279E-07
vn 1 0 3.576279E-07
vn 1 0 3.576279E-07
vn 1 0 3.576279E-07
vn -3.576279E-07 0 1
vn -3.576279E-07 0 1
vn -3.576279E-07 0 1
vn -3.576279E-07 0 1
vn -1 0 -3.576279E-07
vn -1 0 -3.576279E-07
vn -1 0 -3.576279E-07
vn -1 0 -3.576279E-07
vn 3.576279E-07 0 -1
vn 3.576279E-07 0 -1
vn 3.576279E-07 0 -1
vn 3.576279E-07 0 -1

vt 0.7275391 0.9848633
vt 0.6796875 0.9848633
vt 0.6796875 0.9848633
vt 0.7275391 0.9848633
vt 0.574707 0.3676758
vt 0.574707 0.3676758
vt 0.574707 0.3676758
vt 0.574707 0.3676758
vt 0.6796875 0.9848633
vt 0.7275391 0.9848633
vt 0.7275391 0.9848633
vt 0.6796875 0.9848633
vt 0.550293 0.3676758
vt 0.550293 0.3676758
vt 0.550293 0.3676758
vt 0.550293 0.3676758
vt 0.7275391 0.9814453
vt 0.6796875 0.9814453
vt 0.6796875 0.9819336
vt 0.7275391 0.9819336
vt 0.7275391 0.9819336
vt 0.6796875 0.9819336
vt 0.6796875 0.9814453
vt 0.7275391 0.9814453
vt 0.6494141 0.3676758
vt 0.6494141 0.3676758
vt 0.6494141 0.3676758
vt 0.6494141 0.3676758
vt 0.6494141 0.3676758
vt 0.6494141 0.3676758
vt 0.6494141 0.3676758
vt 0.6494141 0.3676758
vt 0.5839844 0.3676758
vt 0.5839844 0.3676758
vt 0.5839844 0.3676758
vt 0.5839844 0.3676758
vt 0.612793 0.3676758
vt 0.612793 0.3676758
vt 0.612793 0.3676758
vt 0.612793 0.3676758
vt 0.5839844 0.3676758
vt 0.5839844 0.3676758
vt 0.5839844 0.3676758
vt 0.5839844 0.3676758
vt 0.612793 0.3676758
vt 0.612793 0.3676758
vt 0.612793 0.3676758
vt 0.612793 0.3676758
vt 0.6152344 0.3676758
vt 0.6152344 0.3676758
vt 0.6152344 0.3676758
vt 0.6152344 0.3676758
vt 0.6152344 0.3676758
vt 0.6152344 0.3676758
vt 0.6152344 0.3676758
vt 0.6152344 0.3676758
vt 0.6152344 0.3676758
vt 0.6152344 0.3676758
vt 0.6152344 0.3676758
vt 0.6152344 0.3676758
vt 0.6152344 0.3676758
vt 0.6152344 0.3676758
vt 0.6152344 0.3676758
vt 0.6152344 0.3676758
vt 0.5888672 0.3676758
vt 0.5888672 0.3676758
vt 0.5888672 0.3676758
vt 0.5888672 0.3676758
vt 0.5888672 0.3676758
vt 0.5888672 0.3676758
vt 0.5888672 0.3676758
vt 0.5888672 0.3676758
vt 0.5888672 0.3676758
vt 0.5888672 0.3676758
vt 0.5888672 0.3676758
vt 0.5888672 0.3676758
vt 0.5888672 0.3676758
vt 0.5888672 0.3676758
vt 0.5888672 0.3676758
vt 0.5888672 0.3676758
vt 0.6088867 0.3676758
vt 0.6088867 0.3676758
vt 0.6088867 0.3676758
vt 0.6088867 0.3676758
vt 0.5800781 0.3676758
vt 0.5800781 0.3676758
vt 0.5800781 0.3676758
vt 0.5800781 0.3676758
vt 0.6088867 0.3676758
vt 0.6088867 0.3676758
vt 0.6088867 0.3676758
vt 0.6088867 0.3676758
vt 0.5800781 0.3676758
vt 0.5800781 0.3676758
vt 0.5800781 0.3676758
vt 0.5800781 0.3676758

g SD_Prop_Chest_04_2902_47
usemtl SD_Prop_Chest_04_2902_47
usemap SD_Prop_Chest_04_2902_47
f 1/1/1 3/3/3 2/2/2
f 1/1/1 4/4/4 3/3/3
f 5/5/5 7/7/7 6/6/6
f 5/5/5 8/8/8 7/7/7
f 9/9/9 11/11/11 10/10/10
f 9/9/9 12/12/12 11/11/11
f 13/13/13 15/15/15 14/14/14
f 13/13/13 16/16/16 15/15/15
f 17/17/17 19/19/19 18/18/18
f 17/17/17 20/20/20 19/19/19
f 21/21/21 23/23/23 22/22/22
f 21/21/21 24/24/24 23/23/23
f 25/25/25 27/27/27 26/26/26
f 25/25/25 28/28/28 27/27/27
f 28/28/28 29/29/29 27/27/27
f 28/28/28 30/30/30 29/29/29
f 30/30/30 31/31/31 29/29/29
f 30/30/30 32/32/32 31/31/31
f 32/32/32 26/26/26 31/31/31
f 32/32/32 25/25/25 26/26/26
f 33/33/33 35/35/35 34/34/34
f 33/33/33 36/36/36 35/35/35
f 37/37/37 39/39/39 38/38/38
f 37/37/37 40/40/40 39/39/39
f 41/41/41 43/43/43 42/42/42
f 41/41/41 44/44/44 43/43/43
f 45/45/45 47/47/47 46/46/46
f 45/45/45 48/48/48 47/47/47
f 49/49/49 51/51/51 50/50/50
f 49/49/49 52/52/52 51/51/51
f 52/52/52 53/53/53 51/51/51
f 52/52/52 54/54/54 53/53/53
f 54/54/54 55/55/55 53/53/53
f 54/54/54 56/56/56 55/55/55
f 56/56/56 50/50/50 55/55/55
f 56/56/56 49/49/49 50/50/50
f 57/57/57 59/59/59 58/58/58
f 57/57/57 60/60/60 59/59/59
f 60/60/60 61/61/61 59/59/59
f 60/60/60 62/62/62 61/61/61
f 62/62/62 63/63/63 61/61/61
f 62/62/62 64/64/64 63/63/63
f 64/64/64 58/58/58 63/63/63
f 64/64/64 57/57/57 58/58/58
f 65/65/65 67/67/67 66/66/66
f 65/65/65 68/68/68 67/67/67
f 68/68/68 69/69/69 67/67/67
f 68/68/68 70/70/70 69/69/69
f 70/70/70 71/71/71 69/69/69
f 70/70/70 72/72/72 71/71/71
f 72/72/72 66/66/66 71/71/71
f 72/72/72 65/65/65 66/66/66
f 73/73/73 75/75/75 74/74/74
f 73/73/73 76/76/76 75/75/75
f 76/76/76 77/77/77 75/75/75
f 76/76/76 78/78/78 77/77/77
f 78/78/78 79/79/79 77/77/77
f 78/78/78 80/80/80 79/79/79
f 80/80/80 74/74/74 79/79/79
f 80/80/80 73/73/73 74/74/74
f 81/81/81 83/83/83 82/82/82
f 81/81/81 84/84/84 83/83/83
f 85/85/85 87/87/87 86/86/86
f 85/85/85 88/88/88 87/87/87
f 89/89/89 91/91/91 90/90/90
f 89/89/89 92/92/92 91/91/91
f 93/93/93 95/95/95 94/94/94
f 93/93/93 96/96/96 95/95/95
