#SD_Prop_BloodSplat_15_2767_144.obj

v 0.1378855 0.01480389 -0.1502202
v 0.03967465 0.01480389 -0.1472466
v -0.06294667 0.01480389 -0.2319034
v -0.03920385 0.01480389 -0.2801932
v 0.05597262 0.01480389 -0.2629074
v 0.1408205 0.01480389 -0.2089805
v 0.160952 0.01480389 0.03473159
v 0.1146862 0.01480389 -0.001845022
v 0.0980396 0.01480389 -0.08041935
v 0.1264046 0.01480389 -0.09345395
v 0.1639564 0.01480389 -0.04873219
v 0.183524 0.01480389 0.008845751
v -0.1867496 0.01480389 -0.173558
v -0.3983996 0.01510255 -0.183354
v -0.1346964 0.01501951 -0.2264955
v -0.04956927 0.01480389 -0.1864064
v -0.02449523 0.01480389 -0.1129637
v -0.2538716 0.01501951 -0.357475
v -0.07894678 0.01501951 -0.2878322
v -0.3898717 0.01510255 -0.3434823
v -0.4489338 0.01510255 -0.2572514
v 0.3460504 0.01480389 0.0260561
v 0.3234124 0.01480389 -0.02256208
v 0.3520337 0.01480389 -0.02538704
v 0.3942024 0.01480389 0.01208914
v 0.4005855 0.01480389 0.04830034
v 0.3765652 0.01480389 0.05975854
v 0.3000359 0.01480389 -0.06714831
v 0.2399876 0.01480389 -0.0716361
v 0.182312 0.01480389 -0.1260962
v 0.1851199 0.01480389 -0.1650287
v 0.2216058 0.01480389 -0.1677642
v 0.2873893 0.01480389 -0.1163658
v 0.2666595 0.01480389 -2.228542E-05
v 0.2505606 0.01480389 0.01129061
v 0.2194545 0.01480389 -0.01548278
v 0.2156026 0.01480389 -0.03914061
v 0.2344877 0.01480389 -0.0412352
v 0.2575911 0.01480389 -0.02616336
v 0.3242343 0.01480389 0.2400221
v 0.2992135 0.01480389 0.2221705
v 0.2830094 0.01480389 0.1692394
v 0.2944468 0.01480389 0.1549734
v 0.3164114 0.01480389 0.1801504
v 0.3316291 0.01480389 0.2176396
v -0.01044727 0.01480389 -0.3293682
v -0.05063689 0.01480389 -0.3209641
v -0.1000566 0.01480389 -0.347122
v -0.09436447 0.01480389 -0.3680986
v -0.05371073 0.01480389 -0.368214
v -0.01421026 0.01480389 -0.3529811
v -0.04809222 0.01480389 -0.003062599
v -0.06385248 0.01480389 -0.03691129
v -0.04392679 0.01480389 -0.03887631
v -0.01456921 0.01480389 -0.01278775
v -0.01012609 0.01480389 0.01242413
v -0.02684804 0.01480389 0.02040129
v 0.4394483 0.01480389 0.2779346
v 0.404791 0.01480389 0.2543505
v 0.3889413 0.01480389 0.20145
v 0.4041719 0.01480389 0.1789459
v 0.4271276 0.01480389 0.1899805
v 0.4489336 0.01480389 0.2438524
v 0.4260033 0.01480389 0.3603348
v 0.4147949 0.01480389 0.3682099
v 0.3931391 0.01480389 0.3495707
v 0.3904566 0.01480389 0.3330992
v 0.4036039 0.01480389 0.3316415
v 0.4196879 0.01480389 0.3421348
v 0.4004537 0.01480389 -0.08924867
v 0.3790736 0.01480389 -0.08840094
v 0.3475841 0.01480389 -0.1106182
v 0.3477965 0.01480389 -0.1233459
v 0.3706181 0.01480389 -0.1188591
v 0.3949781 0.01480389 -0.1047186

vn 0 0.9999999 0
vn 0 0.9999999 0
vn 0 0.9999999 0
vn 0 0.9999999 0
vn 0 0.9999999 0
vn 0 0.9999999 0
vn 0 0.9999999 0
vn 0 0.9999999 0
vn 0 0.9999999 0
vn 0 0.9999999 0
vn 0 0.9999999 0
vn 0 0.9999999 0
vn -0.0003641043 0.9999937 0.003511734
vn 0.0001168766 0.9999982 0.001838497
vn -0.0001783668 0.9999971 0.00235895
vn -0.0004638174 0.9999985 0.001677981
vn -0.0004638174 0.9999985 0.001677981
vn 0.0003075095 0.9999999 8.49999E-05
vn 0.0001931087 0.9999999 5.337793E-05
vn 0.0004219102 0.9999998 0.0001166218
vn 0.0004219102 0.9999998 0.0001166218
vn 0 0.9999999 0
vn 0 0.9999999 0
vn 0 0.9999999 0
vn 0 0.9999999 0
vn 0 0.9999999 0
vn 0 0.9999999 0
vn 0 0.9999999 0
vn 0 0.9999999 0
vn 0 0.9999999 0
vn 0 0.9999999 0
vn 0 0.9999999 0
vn 0 0.9999999 0
vn 0 0.9999999 0
vn 0 0.9999999 0
vn 0 0.9999999 0
vn 0 0.9999999 0
vn 0 0.9999999 0
vn 0 0.9999999 0
vn 0 0.9999999 0
vn 0 0.9999999 0
vn 0 0.9999999 0
vn 0 0.9999999 0
vn 0 0.9999999 0
vn 0 0.9999999 0
vn 0 0.9999999 0
vn 0 0.9999999 0
vn 0 0.9999999 0
vn 0 0.9999999 0
vn 0 0.9999999 0
vn 0 0.9999999 0
vn 0 0.9999999 0
vn 0 0.9999999 0
vn 0 0.9999999 0
vn 0 0.9999999 0
vn 0 0.9999999 0
vn 0 0.9999999 0
vn 0 0.9999999 0
vn 0 0.9999999 0
vn 0 0.9999999 0
vn 0 0.9999999 0
vn 0 0.9999999 0
vn 0 0.9999999 0
vn 0 0.9999999 0
vn 0 0.9999999 0
vn 0 0.9999999 0
vn 0 0.9999999 0
vn 0 0.9999999 0
vn 0 0.9999999 0
vn 0 0.9999999 0
vn 0 0.9999999 0
vn 0 0.9999999 0
vn 0 0.9999999 0
vn 0 0.9999999 0
vn 0 0.9999999 0

vt 0.1401367 0.180542
vt 0.1401367 0.180542
vt 0.1401367 0.180542
vt 0.1401367 0.180542
vt 0.1401367 0.180542
vt 0.1401367 0.180542
vt 0.1401367 0.180542
vt 0.1401367 0.180542
vt 0.1401367 0.180542
vt 0.1401367 0.180542
vt 0.1401367 0.180542
vt 0.1401367 0.180542
vt 0.1401367 0.180542
vt 0.1401367 0.180542
vt 0.1401367 0.180542
vt 0.1401367 0.180542
vt 0.1401367 0.180542
vt 0.1401367 0.180542
vt 0.1401367 0.180542
vt 0.1401367 0.180542
vt 0.1401367 0.180542
vt 0.1401367 0.180542
vt 0.1401367 0.180542
vt 0.1401367 0.180542
vt 0.1401367 0.180542
vt 0.1401367 0.180542
vt 0.1401367 0.180542
vt 0.1401367 0.180542
vt 0.1401367 0.180542
vt 0.1401367 0.180542
vt 0.1401367 0.180542
vt 0.1401367 0.180542
vt 0.1401367 0.180542
vt 0.1401367 0.180542
vt 0.1401367 0.180542
vt 0.1401367 0.180542
vt 0.1401367 0.180542
vt 0.1401367 0.180542
vt 0.1401367 0.180542
vt 0.1401367 0.180542
vt 0.1401367 0.180542
vt 0.1401367 0.180542
vt 0.1401367 0.180542
vt 0.1401367 0.180542
vt 0.1401367 0.180542
vt 0.1401367 0.180542
vt 0.1401367 0.180542
vt 0.1401367 0.180542
vt 0.1401367 0.180542
vt 0.1401367 0.180542
vt 0.1401367 0.180542
vt 0.1401367 0.180542
vt 0.1401367 0.180542
vt 0.1401367 0.180542
vt 0.1401367 0.180542
vt 0.1401367 0.180542
vt 0.1401367 0.180542
vt 0.1401367 0.180542
vt 0.1401367 0.180542
vt 0.1401367 0.180542
vt 0.1401367 0.180542
vt 0.1401367 0.180542
vt 0.1401367 0.180542
vt 0.1401367 0.180542
vt 0.1401367 0.180542
vt 0.1401367 0.180542
vt 0.1401367 0.180542
vt 0.1401367 0.180542
vt 0.1401367 0.180542
vt 0.1401367 0.180542
vt 0.1401367 0.180542
vt 0.1401367 0.180542
vt 0.1401367 0.180542
vt 0.1401367 0.180542
vt 0.1401367 0.180542

g SD_Prop_BloodSplat_15_2767_144
usemtl SD_Prop_BloodSplat_15_2767_144
usemap SD_Prop_BloodSplat_15_2767_144
f 1/1/1 3/3/3 2/2/2
f 1/1/1 4/4/4 3/3/3
f 5/5/5 4/4/4 1/1/1
f 5/5/5 1/1/1 6/6/6
f 7/7/7 9/9/9 8/8/8
f 7/7/7 10/10/10 9/9/9
f 11/11/11 10/10/10 7/7/7
f 11/11/11 7/7/7 12/12/12
f 13/13/13 15/15/15 14/14/14
f 16/16/16 15/15/15 13/13/13
f 16/16/16 13/13/13 17/17/17
f 18/18/18 14/14/14 15/15/15
f 18/18/18 15/15/15 19/19/19
f 14/14/14 18/18/18 20/20/20
f 14/14/14 20/20/20 21/21/21
f 22/22/22 24/24/24 23/23/23
f 22/22/22 25/25/25 24/24/24
f 26/26/26 25/25/25 22/22/22
f 26/26/26 22/22/22 27/27/27
f 28/28/28 30/30/30 29/29/29
f 28/28/28 31/31/31 30/30/30
f 32/32/32 31/31/31 28/28/28
f 32/32/32 28/28/28 33/33/33
f 34/34/34 36/36/36 35/35/35
f 34/34/34 37/37/37 36/36/36
f 38/38/38 37/37/37 34/34/34
f 38/38/38 34/34/34 39/39/39
f 40/40/40 42/42/42 41/41/41
f 40/40/40 43/43/43 42/42/42
f 44/44/44 43/43/43 40/40/40
f 44/44/44 40/40/40 45/45/45
f 46/46/46 48/48/48 47/47/47
f 46/46/46 49/49/49 48/48/48
f 50/50/50 49/49/49 46/46/46
f 50/50/50 46/46/46 51/51/51
f 52/52/52 54/54/54 53/53/53
f 52/52/52 55/55/55 54/54/54
f 56/56/56 55/55/55 52/52/52
f 56/56/56 52/52/52 57/57/57
f 58/58/58 60/60/60 59/59/59
f 58/58/58 61/61/61 60/60/60
f 62/62/62 61/61/61 58/58/58
f 62/62/62 58/58/58 63/63/63
f 64/64/64 66/66/66 65/65/65
f 64/64/64 67/67/67 66/66/66
f 68/68/68 67/67/67 64/64/64
f 68/68/68 64/64/64 69/69/69
f 70/70/70 72/72/72 71/71/71
f 70/70/70 73/73/73 72/72/72
f 74/74/74 73/73/73 70/70/70
f 74/74/74 70/70/70 75/75/75
