#SD_Prop_Rubble_04_2559_134.obj

v -1.425608 0 0.7268452
v -1.401216 0.1395705 0.6696908
v -1.142558 0.1395705 0.6141543
v -1.096854 0 0.6562585
v -1.401216 0.1395705 0.6696908
v -1.510977 0.1395705 0.4011558
v -1.174529 0.1395705 0.2364501
v -1.142558 0.1395705 0.6141543
v -1.510977 0.1395705 0.4011558
v -1.578887 0 0.3778856
v -1.151257 0 0.1685427
v -1.174529 0.1395705 0.2364501
v -1.096854 0 0.6562585
v -1.142558 0.1395705 0.6141543
v -1.174529 0.1395705 0.2364501
v -1.151257 0 0.1685427
v -1.578887 0 0.3778856
v -1.510977 0.1395705 0.4011558
v -1.401216 0.1395705 0.6696908
v -1.425608 0 0.7268452
v 1.011124 0 1.529226
v 1.048728 0.1779709 1.445771
v 1.495429 0.1779709 1.276588
v 1.578885 0 1.314193
v 1.048728 0.1779709 1.445771
v 0.8795455 0.1779709 0.9990714
v 1.326247 0.1779709 0.8298888
v 1.495429 0.1779709 1.276588
v 0.8795455 0.1779709 0.9990714
v 0.7960896 0 0.9614662
v 1.36385 0 0.7464333
v 1.326247 0.1779709 0.8298888
v 1.578885 0 1.314193
v 1.495429 0.1779709 1.276588
v 1.326247 0.1779709 0.8298888
v 1.36385 0 0.7464333
v 0.7960896 0 0.9614662
v 0.8795455 0.1779709 0.9990714
v 1.048728 0.1779709 1.445771
v 1.011124 0 1.529226
v 0.5643206 0 1.560266
v 0.5583847 0.07695007 1.521134
v 0.6808686 0.07695007 1.354844
v 0.7199988 0 1.348908
v 0.5583847 0.07695007 1.521134
v 0.3920933 0.07695007 1.398651
v 0.5145773 0.07695007 1.232361
v 0.6808686 0.07695007 1.354844
v 0.3920933 0.07695007 1.398651
v 0.3529642 0 1.404588
v 0.5086424 0 1.193229
v 0.5145773 0.07695007 1.232361
v 0.7199988 0 1.348908
v 0.6808686 0.07695007 1.354844
v 0.5145773 0.07695007 1.232361
v 0.5086424 0 1.193229
v 0.3529642 0 1.404588
v 0.3920933 0.07695007 1.398651
v 0.5583847 0.07695007 1.521134
v 0.5643206 0 1.560266
v 0.8661941 0 -1.443986
v 0.8130692 0.1204983 -1.406013
v 0.5505602 0.1204983 -1.4975
v 0.53254 0 -1.560262
v 0.8130692 0.1204983 -1.406013
v 0.7648576 0.1204983 -1.105005
v 0.3728694 0.1204983 -1.14101
v 0.5505602 0.1204983 -1.4975
v 0.7648576 0.1204983 -1.105005
v 0.813094 0 -1.04701
v 0.3148741 0 -1.092772
v 0.3728694 0.1204983 -1.14101
v 0.53254 0 -1.560262
v 0.5505602 0.1204983 -1.4975
v 0.3728694 0.1204983 -1.14101
v 0.3148741 0 -1.092772
v 0.813094 0 -1.04701
v 0.7648576 0.1204983 -1.105005
v 0.8130692 0.1204983 -1.406013
v 0.8661941 0 -1.443986

vn -0.6306804 0.3417851 0.6967246
vn -0.6306804 0.3417851 0.6967246
vn -0.6306804 0.3417851 0.6967246
vn -0.6306804 0.3417851 0.6967246
vn 0 0.9999999 0
vn 0 0.9999999 0
vn 0 0.9999999 0
vn 0 0.9999999 0
vn 0.4438916 0.3417861 -0.8283371
vn 0.4438916 0.3417861 -0.8283371
vn 0.4438916 0.3417861 -0.8283371
vn 0.4438916 0.3417861 -0.8283371
vn 0.6411741 0.2471489 0.7265075
vn 0.6411741 0.2471489 0.7265075
vn 0.6411741 0.2471489 0.7265075
vn 0.6411741 0.2471489 0.7265075
vn -0.8069211 0.3318474 -0.4886263
vn -0.8069211 0.3318474 -0.4886263
vn -0.8069211 0.3318474 -0.4886263
vn -0.8069211 0.3318474 -0.4886263
vn -0.5190552 0.3417874 0.7834301
vn -0.5190552 0.3417874 0.7834301
vn -0.5190552 0.3417874 0.7834301
vn -0.5190552 0.3417874 0.7834301
vn 0 0.9999999 0
vn 0 0.9999999 0
vn 0 0.9999999 0
vn 0 0.9999999 0
vn 0.5190553 0.3417879 -0.78343
vn 0.5190553 0.3417879 -0.78343
vn 0.5190553 0.3417879 -0.78343
vn 0.5190553 0.3417879 -0.78343
vn 0.7834318 0.3417832 0.5190557
vn 0.7834318 0.3417832 0.5190557
vn 0.7834318 0.3417832 0.5190557
vn 0.7834318 0.3417832 0.5190557
vn -0.7834316 0.3417833 -0.5190557
vn -0.7834316 0.3417833 -0.5190557
vn -0.7834316 0.3417833 -0.5190557
vn -0.7834316 0.3417833 -0.5190557
vn -0.01055831 0.3417855 0.9397186
vn -0.01055831 0.3417855 0.9397186
vn -0.01055831 0.3417855 0.9397186
vn -0.01055831 0.3417855 0.9397186
vn 0 0.9999999 0
vn 0 0.9999999 0
vn 0 0.9999999 0
vn 0 0.9999999 0
vn 0.01055834 0.3417844 -0.939719
vn 0.01055834 0.3417844 -0.939719
vn 0.01055834 0.3417844 -0.939719
vn 0.01055834 0.3417844 -0.939719
vn 0.9397184 0.3417861 0.01055974
vn 0.9397184 0.3417861 0.01055974
vn 0.9397184 0.3417861 0.01055974
vn 0.9397184 0.3417861 0.01055974
vn -0.9397198 0.3417821 -0.01055977
vn -0.9397198 0.3417821 -0.01055977
vn -0.9397198 0.3417821 -0.01055977
vn -0.9397198 0.3417821 -0.01055977
vn 0.8766857 0.4047743 -0.2599613
vn 0.8766857 0.4047743 -0.2599613
vn 0.8766857 0.4047743 -0.2599613
vn 0.8766857 0.4047743 -0.2599613
vn 0 0.9999999 0
vn 0 0.9999999 0
vn 0 0.9999999 0
vn 0 0.9999999 0
vn -0.7880325 0.4047745 0.4638558
vn -0.7880325 0.4047745 0.4638558
vn -0.7880325 0.4047745 0.4638558
vn -0.7880325 0.4047745 0.4638558
vn -0.1674486 0.2964884 -0.9402422
vn -0.1674486 0.2964884 -0.9402422
vn -0.1674486 0.2964884 -0.9402422
vn -0.1674486 0.2964884 -0.9402422
vn 0.4240712 0.3936047 0.8156218
vn 0.4240712 0.3936047 0.8156218
vn 0.4240712 0.3936047 0.8156218
vn 0.4240712 0.3936047 0.8156218

vt 0.328125 0.06378174
vt 0.328125 0.06378174
vt 0.328125 0.06378174
vt 0.328125 0.06378174
vt 0.3586426 0.06378174
vt 0.3586426 0.06378174
vt 0.3586426 0.06378174
vt 0.3586426 0.06378174
vt 0.328125 0.06378174
vt 0.328125 0.06378174
vt 0.328125 0.06378174
vt 0.328125 0.06378174
vt 0.2983398 0.06378174
vt 0.2983398 0.06378174
vt 0.2983398 0.06378174
vt 0.2983398 0.06378174
vt 0.2983398 0.06378174
vt 0.2983398 0.06378174
vt 0.2983398 0.06378174
vt 0.2983398 0.06378174
vt 0.328125 0.06378174
vt 0.328125 0.06378174
vt 0.328125 0.06378174
vt 0.328125 0.06378174
vt 0.3586426 0.06378174
vt 0.3586426 0.06378174
vt 0.3586426 0.06378174
vt 0.3586426 0.06378174
vt 0.328125 0.06378174
vt 0.328125 0.06378174
vt 0.328125 0.06378174
vt 0.328125 0.06378174
vt 0.2983398 0.06378174
vt 0.2983398 0.06378174
vt 0.2983398 0.06378174
vt 0.2983398 0.06378174
vt 0.2983398 0.06378174
vt 0.2983398 0.06378174
vt 0.2983398 0.06378174
vt 0.2983398 0.06378174
vt 0.328125 0.06378174
vt 0.328125 0.06378174
vt 0.328125 0.06378174
vt 0.328125 0.06378174
vt 0.3586426 0.06378174
vt 0.3586426 0.06378174
vt 0.3586426 0.06378174
vt 0.3586426 0.06378174
vt 0.328125 0.06378174
vt 0.328125 0.06378174
vt 0.328125 0.06378174
vt 0.328125 0.06378174
vt 0.2983398 0.06378174
vt 0.2983398 0.06378174
vt 0.2983398 0.06378174
vt 0.2983398 0.06378174
vt 0.2983398 0.06378174
vt 0.2983398 0.06378174
vt 0.2983398 0.06378174
vt 0.2983398 0.06378174
vt 0.328125 0.06378174
vt 0.328125 0.06378174
vt 0.328125 0.06378174
vt 0.328125 0.06378174
vt 0.3586426 0.06378174
vt 0.3586426 0.06378174
vt 0.3586426 0.06378174
vt 0.3586426 0.06378174
vt 0.328125 0.06378174
vt 0.328125 0.06378174
vt 0.328125 0.06378174
vt 0.328125 0.06378174
vt 0.2983398 0.06378174
vt 0.2983398 0.06378174
vt 0.2983398 0.06378174
vt 0.2983398 0.06378174
vt 0.2983398 0.06378174
vt 0.2983398 0.06378174
vt 0.2983398 0.06378174
vt 0.2983398 0.06378174

g SD_Prop_Rubble_04_2559_134
usemtl SD_Prop_Rubble_04_2559_134
usemap SD_Prop_Rubble_04_2559_134
f 1/1/1 3/3/3 2/2/2
f 1/1/1 4/4/4 3/3/3
f 5/5/5 7/7/7 6/6/6
f 5/5/5 8/8/8 7/7/7
f 9/9/9 11/11/11 10/10/10
f 9/9/9 12/12/12 11/11/11
f 13/13/13 15/15/15 14/14/14
f 13/13/13 16/16/16 15/15/15
f 17/17/17 19/19/19 18/18/18
f 17/17/17 20/20/20 19/19/19
f 21/21/21 23/23/23 22/22/22
f 21/21/21 24/24/24 23/23/23
f 25/25/25 27/27/27 26/26/26
f 25/25/25 28/28/28 27/27/27
f 29/29/29 31/31/31 30/30/30
f 29/29/29 32/32/32 31/31/31
f 33/33/33 35/35/35 34/34/34
f 33/33/33 36/36/36 35/35/35
f 37/37/37 39/39/39 38/38/38
f 37/37/37 40/40/40 39/39/39
f 41/41/41 43/43/43 42/42/42
f 41/41/41 44/44/44 43/43/43
f 45/45/45 47/47/47 46/46/46
f 45/45/45 48/48/48 47/47/47
f 49/49/49 51/51/51 50/50/50
f 49/49/49 52/52/52 51/51/51
f 53/53/53 55/55/55 54/54/54
f 53/53/53 56/56/56 55/55/55
f 57/57/57 59/59/59 58/58/58
f 57/57/57 60/60/60 59/59/59
f 61/61/61 63/63/63 62/62/62
f 61/61/61 64/64/64 63/63/63
f 65/65/65 67/67/67 66/66/66
f 65/65/65 68/68/68 67/67/67
f 69/69/69 71/71/71 70/70/70
f 69/69/69 72/72/72 71/71/71
f 73/73/73 75/75/75 74/74/74
f 73/73/73 76/76/76 75/75/75
f 77/77/77 79/79/79 78/78/78
f 77/77/77 80/80/80 79/79/79
