#SD_Prop_Skull_01_2626_81.obj

v -0.3240687 0.05022107 -0.2593066
v -0.3215792 0.6269138 -0.3946084
v -0.323469 0.7798173 0.2570764
v -0.3259547 0.2031242 0.3923747
v -0.3215792 0.6269138 -0.3946084
v 0.3259909 0.6246855 -0.3922092
v 0.3241011 0.7775884 0.2594755
v -0.323469 0.7798173 0.2570764
v 0.3259909 0.6246855 -0.3922092
v 0.3235031 0.04799232 -0.2569056
v 0.3216116 0.2008956 0.3947773
v 0.3241011 0.7775884 0.2594755
v -0.2860801 0.08105803 0.392662
v 0.2808971 0.07910656 0.3947641
v 0.2813503 0.04237644 0.238217
v -0.2856269 0.04432785 0.2361149
v 0.3241011 0.7775884 0.2594755
v 0.3216116 0.2008956 0.3947773
v -0.3259547 0.2031242 0.3923747
v -0.323469 0.7798173 0.2570764
v 0.3235031 0.04799232 -0.2569056
v 0.3259909 0.6246855 -0.3922092
v -0.3215792 0.6269138 -0.3946084
v -0.3240687 0.05022107 -0.2593066
v -0.2851271 0.1599243 0.2089941
v -0.3240687 0.05022107 -0.2593066
v -0.3259547 0.2031242 0.3923747
v -0.2855803 0.1966543 0.3655412
v 0.3216116 0.2008956 0.3947773
v 0.2813951 0.1947028 0.3676415
v 0.3235031 0.04799232 -0.2569056
v 0.28185 0.1579725 0.2110962
v 0.28185 0.1579725 0.2110962
v 0.2813503 0.04237644 0.238217
v 0.2808971 0.07910656 0.3947641
v 0.2813951 0.1947028 0.3676415
v -0.2856269 0.04432785 0.2361149
v 0.2813503 0.04237644 0.238217
v 0.28185 0.1579725 0.2110962
v -0.2851271 0.1599243 0.2089941
v -0.2856269 0.04432785 0.2361149
v -0.2851271 0.1599243 0.2089941
v -0.2855803 0.1966543 0.3655412
v -0.2860801 0.08105803 0.392662
v 0.2813951 0.1947028 0.3676415
v 0.2808971 0.07910656 0.3947641
v -0.2860801 0.08105803 0.392662
v -0.2855803 0.1966543 0.3655412
v -0.2765018 0.8452182 0.209935
v -0.2768165 0.7725558 0.226984
v -0.2751028 0.6339919 -0.3635844
v -0.2747899 0.7066542 -0.3806352
v -0.2768165 0.7725558 0.226984
v -0.2765018 0.8452182 0.209935
v 0.2779339 0.84331 0.2119912
v 0.277623 0.7706475 0.2290367
v 0.2796475 0.7047456 -0.3785771
v 0.2793312 0.6320836 -0.3615301
v 0.277623 0.7706475 0.2290367
v 0.2779339 0.84331 0.2119912
v 0.2796475 0.7047456 -0.3785771
v -0.2747899 0.7066542 -0.3806352
v -0.2751028 0.6339919 -0.3635844
v 0.2793312 0.6320836 -0.3615301
v 0.2779339 0.84331 0.2119912
v -0.2765018 0.8452182 0.209935
v -0.2747899 0.7066542 -0.3806352
v 0.2796475 0.7047456 -0.3785771

vn -0.6697991 0.003441661 0.7425345
vn -0.6697991 0.003441661 0.7425345
vn -0.6697991 0.003441662 0.7425345
vn -0.6697991 0.003441662 0.7425345
vn -0.16737 0.9735558 -0.1554876
vn -0.16737 0.9735558 -0.1554876
vn -0.16737 0.9735558 -0.1554876
vn -0.16737 0.9735558 -0.1554876
vn 0.6697993 -0.003441398 -0.7425344
vn 0.6697993 -0.003441398 -0.7425344
vn 0.6697993 -0.003441398 -0.7425344
vn 0.6697993 -0.003441398 -0.7425344
vn 0.1673696 -0.9735558 0.1554876
vn 0.1673696 -0.9735558 0.1554876
vn 0.1673696 -0.9735558 0.1554876
vn 0.1673696 -0.9735558 0.1554876
vn 0.7234338 0.2284224 0.6515114
vn 0.7234338 0.2284224 0.6515114
vn 0.7234338 0.2284224 0.6515114
vn 0.7234337 0.2284224 0.6515114
vn -0.7234336 -0.2284235 -0.6515111
vn -0.7234336 -0.2284235 -0.6515111
vn -0.7234336 -0.2284235 -0.6515111
vn -0.7234336 -0.2284235 -0.6515111
vn 0.1673716 -0.9735558 0.1554855
vn 0.1673716 -0.9735558 0.1554855
vn 0.1673717 -0.9735558 0.1554855
vn 0.1673716 -0.9735558 0.1554855
vn 0.1673774 -0.9735534 0.1554944
vn 0.1673774 -0.9735534 0.1554944
vn 0.1673741 -0.9735557 0.1554834
vn 0.1673741 -0.9735557 0.1554834
vn 0.6698006 -0.003442382 -0.7425332
vn 0.6698006 -0.003442382 -0.7425332
vn 0.6698006 -0.003442381 -0.7425332
vn 0.6698006 -0.003442382 -0.7425332
vn -0.7234339 -0.2284233 -0.6515111
vn -0.7234339 -0.2284233 -0.6515111
vn -0.7234339 -0.2284233 -0.6515111
vn -0.7234339 -0.2284233 -0.6515111
vn -0.6697978 0.003439286 0.7425357
vn -0.6697978 0.003439286 0.7425357
vn -0.6697978 0.003439286 0.7425357
vn -0.6697978 0.003439286 0.7425357
vn 0.7234345 0.2284175 0.6515123
vn 0.7234345 0.2284175 0.6515123
vn 0.7234345 0.2284175 0.6515123
vn 0.7234345 0.2284175 0.6515123
vn -0.6697995 0.003443228 0.7425342
vn -0.6697995 0.003443228 0.7425342
vn -0.6697995 0.003443228 0.7425342
vn -0.6697995 0.003443227 0.7425342
vn 0.7234344 0.2284227 0.6515105
vn 0.7234344 0.2284227 0.6515105
vn 0.7234344 0.2284227 0.6515105
vn 0.7234344 0.2284227 0.6515105
vn 0.6697999 -0.003444435 -0.7425338
vn 0.6697999 -0.003444435 -0.7425338
vn 0.6697999 -0.003444435 -0.7425338
vn 0.6697999 -0.003444435 -0.7425338
vn -0.7234335 -0.2284268 -0.6515101
vn -0.7234335 -0.2284268 -0.6515101
vn -0.7234335 -0.2284268 -0.6515101
vn -0.7234335 -0.2284268 -0.6515101
vn -0.1673704 0.9735556 -0.1554884
vn -0.1673703 0.9735556 -0.1554884
vn -0.1673704 0.9735556 -0.1554884
vn -0.1673703 0.9735556 -0.1554884

vt 0.7495117 0.8754883
vt 0.7495117 0.9423828
vt 0.6699219 0.9423828
vt 0.6699219 0.8754883
vt 0.6503906 0.9467773
vt 0.6503906 0.9467773
vt 0.6503906 0.9467773
vt 0.6503906 0.9467773
vt 0.5092773 0.9423828
vt 0.5092773 0.8754883
vt 0.5893555 0.8754883
vt 0.5893555 0.9423828
vt 0.7382813 0.8789063
vt 0.7382813 0.8789063
vt 0.7382813 0.8798828
vt 0.7382813 0.8793945
vt 0.5893555 0.9423828
vt 0.5893555 0.8754883
vt 0.6699219 0.8754883
vt 0.6699219 0.9423828
vt 0.7382813 0.8754883
vt 0.7382813 0.9423828
vt 0.7382813 0.9423828
vt 0.7382813 0.8754883
vt 0.7084961 0.8793945
vt 0.7084961 0.8793945
vt 0.7084961 0.8793945
vt 0.7084961 0.8793945
vt 0.7084961 0.8793945
vt 0.7084961 0.8793945
vt 0.7084961 0.8793945
vt 0.7084961 0.8793945
vt 0.5664063 0.8754883
vt 0.5668945 0.8623047
vt 0.5864258 0.8623047
vt 0.5854492 0.8754883
vt 0.7319336 0.878418
vt 0.7319336 0.878418
vt 0.7319336 0.878418
vt 0.7319336 0.878418
vt 0.6923828 0.8623047
vt 0.6928711 0.8754883
vt 0.6738281 0.8754883
vt 0.6733398 0.8623047
vt 0.5854492 0.8754883
vt 0.5864258 0.8623047
vt 0.6733398 0.8623047
vt 0.6738281 0.8754883
vt 0.6962891 0.9350586
vt 0.6962891 0.9418945
vt 0.7246094 0.9418945
vt 0.7246094 0.9350586
vt 0.6411133 0.940918
vt 0.6411133 0.9379883
vt 0.612793 0.9379883
vt 0.612793 0.940918
vt 0.6962891 0.9350586
vt 0.6962891 0.9418945
vt 0.7246094 0.9418945
vt 0.7246094 0.9350586
vt 0.6416016 0.9404297
vt 0.612793 0.9404297
vt 0.612793 0.9384766
vt 0.6416016 0.9384766
vt 0.6503906 0.9467773
vt 0.6503906 0.9467773
vt 0.6503906 0.9467773
vt 0.6503906 0.9467773

g SD_Prop_Skull_01_2626_81
usemtl SD_Prop_Skull_01_2626_81
usemap SD_Prop_Skull_01_2626_81
f 1/1/1 3/3/3 2/2/2
f 1/1/1 4/4/4 3/3/3
f 5/5/5 7/7/7 6/6/6
f 5/5/5 8/8/8 7/7/7
f 9/9/9 11/11/11 10/10/10
f 9/9/9 12/12/12 11/11/11
f 13/13/13 15/15/15 14/14/14
f 13/13/13 16/16/16 15/15/15
f 17/17/17 19/19/19 18/18/18
f 17/17/17 20/20/20 19/19/19
f 21/21/21 23/23/23 22/22/22
f 21/21/21 24/24/24 23/23/23
f 25/25/25 27/27/27 26/26/26
f 25/25/25 28/28/28 27/27/27
f 29/29/29 27/27/27 28/28/28
f 29/29/29 28/28/28 30/30/30
f 31/31/31 29/29/29 30/30/30
f 31/31/31 25/25/25 26/26/26
f 31/31/31 30/30/30 32/32/32
f 31/31/31 32/32/32 25/25/25
f 33/33/33 35/35/35 34/34/34
f 33/33/33 36/36/36 35/35/35
f 37/37/37 39/39/39 38/38/38
f 37/37/37 40/40/40 39/39/39
f 41/41/41 43/43/43 42/42/42
f 41/41/41 44/44/44 43/43/43
f 45/45/45 47/47/47 46/46/46
f 45/45/45 48/48/48 47/47/47
f 49/49/49 51/51/51 50/50/50
f 49/49/49 52/52/52 51/51/51
f 53/53/53 55/55/55 54/54/54
f 53/53/53 56/56/56 55/55/55
f 57/57/57 59/59/59 58/58/58
f 57/57/57 60/60/60 59/59/59
f 61/61/61 63/63/63 62/62/62
f 61/61/61 64/64/64 63/63/63
f 65/65/65 67/67/67 66/66/66
f 65/65/65 68/68/68 67/67/67
