#SD_Prop_Coin_09_2750_74.obj

v 0.1723103 0.008783994 0.02660215
v 0.1723103 0.03415544 0.02660215
v 0.0929369 0.03415544 -0.01579611
v 0.0929369 0.008783994 -0.01579611
v 0.0929369 0.008783994 -0.01579611
v 0.0929369 0.03415544 -0.01579611
v 0.01653114 0.03415544 0.03174156
v 0.01653114 0.008783994 0.03174156
v 0.01653114 0.008783994 0.03174156
v 0.01653114 0.03415544 0.03174156
v 0.01949968 0.03415544 0.1216826
v 0.01949968 0.008783994 0.1216826
v 0.01949968 0.008783994 0.1216826
v 0.01949968 0.03415544 0.1216826
v 0.09887306 0.03415544 0.1640809
v 0.09887306 0.008783994 0.1640809
v 0.09887306 0.008783994 0.1640809
v 0.09887306 0.03415544 0.1640809
v 0.175279 0.03415544 0.1165407
v 0.175279 0.008783994 0.1165407
v 0.175279 0.008783994 0.1165407
v 0.175279 0.03415544 0.1165407
v 0.1723103 0.03415544 0.02660215
v 0.1723103 0.008783994 0.02660215
v 0.01949968 0.03415544 0.1216826
v 0.01653114 0.03415544 0.03174156
v 0.09590435 0.03415544 0.07414234
v 0.175279 0.03415544 0.1165407
v 0.09887306 0.03415544 0.1640809
v 0.1723103 0.03415544 0.02660215
v 0.0929369 0.03415544 -0.01579611
v -0.03810905 0.008783994 -0.09335248
v -0.03810905 0.03415544 -0.09335248
v -0.1280588 0.03415544 -0.09594368
v -0.1280588 0.008783994 -0.09594368
v -0.1280588 0.008783994 -0.09594368
v -0.1280588 0.03415544 -0.09594368
v -0.1752787 0.03415544 -0.01933942
v -0.1752787 0.008783994 -0.01933942
v -0.1752787 0.008783994 -0.01933942
v -0.1752787 0.03415544 -0.01933942
v -0.1325476 0.03415544 0.05985614
v -0.1325476 0.008783994 0.05985614
v -0.1325476 0.008783994 0.05985614
v -0.1325476 0.03415544 0.05985614
v -0.04259665 0.03415544 0.06244743
v -0.04259665 0.008783994 0.06244743
v -0.04259665 0.008783994 0.06244743
v -0.04259665 0.03415544 0.06244743
v 0.004623271 0.03415544 -0.01415684
v 0.004623271 0.008783994 -0.01415684
v 0.004623271 0.008783994 -0.01415684
v 0.004623271 0.03415544 -0.01415684
v -0.03810905 0.03415544 -0.09335248
v -0.03810905 0.008783994 -0.09335248
v -0.1325476 0.03415544 0.05985614
v -0.1752787 0.03415544 -0.01933942
v -0.08532771 0.03415544 -0.01674813
v 0.004623271 0.03415544 -0.01415684
v -0.04259665 0.03415544 0.06244743
v -0.03810905 0.03415544 -0.09335248
v -0.1280588 0.03415544 -0.09594368
v 0.09888653 0.001862552 -0.08393101
v 0.1036486 0.02653151 -0.08746202
v 0.0564905 0.02466896 -0.1640793
v 0.05172713 0 -0.1605484
v 0.05172713 0 -0.1605484
v 0.0564905 0.02466896 -0.1640793
v -0.03183061 0.04187775 -0.1629836
v -0.03659271 0.01720879 -0.1594526
v -0.03659271 0.01720879 -0.1594526
v -0.03183061 0.04187775 -0.1629836
v -0.0729914 0.06094909 -0.08526535
v -0.07775477 0.03628012 -0.08173443
v -0.07775477 0.03628012 -0.08173443
v -0.0729914 0.06094909 -0.08526535
v -0.02583326 0.06281164 -0.008648038
v -0.03059537 0.03814267 -0.005117025
v -0.03059537 0.03814267 -0.005117025
v -0.02583326 0.06281164 -0.008648038
v 0.06248676 0.04560284 -0.00974637
v 0.05772465 0.02093389 -0.006215357
v 0.05772465 0.02093389 -0.006215357
v 0.06248676 0.04560284 -0.00974637
v 0.1036486 0.02653151 -0.08746202
v 0.09888653 0.001862552 -0.08393101
v -0.03183061 0.04187775 -0.1629836
v 0.0564905 0.02466896 -0.1640793
v 0.1036486 0.02653151 -0.08746202
v 0.01532862 0.0437403 -0.08636369
v -0.0729914 0.06094909 -0.08526535
v 0.06248676 0.04560284 -0.00974637
v -0.02583326 0.06281164 -0.008648038

vn 0.4078108 0 -0.9130666
vn 0.4078108 0 -0.9130666
vn 0.4078108 0 -0.9130666
vn 0.4078108 0 -0.9130666
vn -0.5868323 0 -0.8097086
vn -0.5868323 0 -0.8097086
vn -0.5868323 0 -0.8097086
vn -0.5868323 0 -0.8097086
vn -0.9946443 0 0.1033578
vn -0.9946443 0 0.1033578
vn -0.9946443 0 0.1033578
vn -0.9946443 0 0.1033578
vn -0.4078108 0 0.9130666
vn -0.4078108 0 0.9130666
vn -0.4078108 0 0.9130666
vn -0.4078108 0 0.9130666
vn 0.5868323 0 0.8097086
vn 0.5868323 0 0.8097086
vn 0.5868323 0 0.8097086
vn 0.5868323 0 0.8097086
vn 0.9946443 0 -0.1033578
vn 0.9946443 0 -0.1033578
vn 0.9946443 0 -0.1033578
vn 0.9946443 0 -0.1033578
vn 0 1 0
vn 0 1 0
vn 0 1 0
vn 0 1 0
vn 0 1 0
vn 0 1 0
vn 0 1 0
vn -0.04174006 0 -0.9991286
vn -0.04174006 0 -0.9991286
vn -0.04174006 0 -0.9991286
vn -0.04174006 0 -0.9991286
vn -0.8861423 0 -0.4634134
vn -0.8861423 0 -0.4634134
vn -0.8861423 0 -0.4634134
vn -0.8861423 0 -0.4634134
vn -0.8443996 0 0.535714
vn -0.8443996 0 0.535714
vn -0.8443996 0 0.535714
vn -0.8443996 0 0.535714
vn 0.04174272 0 0.9991284
vn 0.04174272 0 0.9991284
vn 0.04174272 0 0.9991284
vn 0.04174272 0 0.9991284
vn 0.8861415 0 0.463415
vn 0.8861415 0 0.463415
vn 0.8861415 0 0.463415
vn 0.8861415 0 0.463415
vn 0.8443993 0 -0.5357144
vn 0.8443993 0 -0.5357144
vn 0.8443993 0 -0.5357144
vn 0.8443993 0 -0.5357144
vn 0 1 0
vn 0 1 0
vn 0 1 0
vn 0 1 0
vn 0 1 0
vn 0 1 0
vn 0 1 0
vn 0.7930261 -0.232765 -0.5629654
vn 0.7930261 -0.232765 -0.5629654
vn 0.7930261 -0.232765 -0.5629654
vn 0.7930261 -0.232765 -0.5629654
vn -0.1081822 -0.1343026 -0.9850175
vn -0.1081822 -0.1343026 -0.9850175
vn -0.1081822 -0.1343026 -0.9850175
vn -0.1081822 -0.1343026 -0.9850175
vn -0.9012093 0.0984609 -0.4220514
vn -0.9012093 0.0984609 -0.4220514
vn -0.9012093 0.0984609 -0.4220514
vn -0.9012093 0.0984609 -0.4220514
vn -0.7930254 0.2327679 0.5629654
vn -0.7930254 0.2327679 0.5629654
vn -0.7930254 0.2327679 0.5629654
vn -0.7930254 0.2327679 0.5629654
vn 0.1081822 0.1343026 0.9850175
vn 0.1081822 0.1343026 0.9850175
vn 0.1081822 0.1343026 0.9850175
vn 0.1081822 0.1343026 0.9850175
vn 0.9012088 -0.09846248 0.4220521
vn 0.9012088 -0.09846248 0.4220521
vn 0.9012088 -0.09846248 0.4220521
vn 0.9012088 -0.09846248 0.4220521
vn 0.1774422 0.972312 -0.152065
vn 0.1774421 0.972312 -0.152065
vn 0.1774421 0.972312 -0.152065
vn 0.1774422 0.972312 -0.152065
vn 0.1774422 0.972312 -0.152065
vn 0.1774422 0.972312 -0.152065
vn 0.1774422 0.972312 -0.152065

vt 0.5786133 0.4702148
vt 0.5786133 0.4702148
vt 0.5786133 0.4702148
vt 0.5786133 0.4702148
vt 0.5786133 0.4702148
vt 0.5786133 0.4702148
vt 0.5786133 0.4702148
vt 0.5786133 0.4702148
vt 0.5786133 0.4702148
vt 0.5786133 0.4702148
vt 0.5786133 0.4702148
vt 0.5786133 0.4702148
vt 0.5786133 0.4702148
vt 0.5786133 0.4702148
vt 0.5786133 0.4702148
vt 0.5786133 0.4702148
vt 0.5786133 0.4702148
vt 0.5786133 0.4702148
vt 0.5786133 0.4702148
vt 0.5786133 0.4702148
vt 0.5786133 0.4702148
vt 0.5786133 0.4702148
vt 0.5786133 0.4702148
vt 0.5786133 0.4702148
vt 0.6494141 0.4702148
vt 0.6494141 0.4702148
vt 0.6494141 0.4702148
vt 0.6494141 0.4702148
vt 0.6494141 0.4702148
vt 0.6494141 0.4702148
vt 0.6494141 0.4702148
vt 0.5786133 0.4702148
vt 0.5786133 0.4702148
vt 0.5786133 0.4702148
vt 0.5786133 0.4702148
vt 0.5786133 0.4702148
vt 0.5786133 0.4702148
vt 0.5786133 0.4702148
vt 0.5786133 0.4702148
vt 0.5786133 0.4702148
vt 0.5786133 0.4702148
vt 0.5786133 0.4702148
vt 0.5786133 0.4702148
vt 0.5786133 0.4702148
vt 0.5786133 0.4702148
vt 0.5786133 0.4702148
vt 0.5786133 0.4702148
vt 0.5786133 0.4702148
vt 0.5786133 0.4702148
vt 0.5786133 0.4702148
vt 0.5786133 0.4702148
vt 0.5786133 0.4702148
vt 0.5786133 0.4702148
vt 0.5786133 0.4702148
vt 0.5786133 0.4702148
vt 0.6494141 0.4702148
vt 0.6494141 0.4702148
vt 0.6494141 0.4702148
vt 0.6494141 0.4702148
vt 0.6494141 0.4702148
vt 0.6494141 0.4702148
vt 0.6494141 0.4702148
vt 0.5786133 0.4702148
vt 0.5786133 0.4702148
vt 0.5786133 0.4702148
vt 0.5786133 0.4702148
vt 0.5786133 0.4702148
vt 0.5786133 0.4702148
vt 0.5786133 0.4702148
vt 0.5786133 0.4702148
vt 0.5786133 0.4702148
vt 0.5786133 0.4702148
vt 0.5786133 0.4702148
vt 0.5786133 0.4702148
vt 0.5786133 0.4702148
vt 0.5786133 0.4702148
vt 0.5786133 0.4702148
vt 0.5786133 0.4702148
vt 0.5786133 0.4702148
vt 0.5786133 0.4702148
vt 0.5786133 0.4702148
vt 0.5786133 0.4702148
vt 0.5786133 0.4702148
vt 0.5786133 0.4702148
vt 0.5786133 0.4702148
vt 0.5786133 0.4702148
vt 0.6494141 0.4702148
vt 0.6494141 0.4702148
vt 0.6494141 0.4702148
vt 0.6494141 0.4702148
vt 0.6494141 0.4702148
vt 0.6494141 0.4702148
vt 0.6494141 0.4702148

g SD_Prop_Coin_09_2750_74
usemtl SD_Prop_Coin_09_2750_74
usemap SD_Prop_Coin_09_2750_74
f 1/1/1 3/3/3 2/2/2
f 1/1/1 4/4/4 3/3/3
f 5/5/5 7/7/7 6/6/6
f 5/5/5 8/8/8 7/7/7
f 9/9/9 11/11/11 10/10/10
f 9/9/9 12/12/12 11/11/11
f 13/13/13 15/15/15 14/14/14
f 13/13/13 16/16/16 15/15/15
f 17/17/17 19/19/19 18/18/18
f 17/17/17 20/20/20 19/19/19
f 21/21/21 23/23/23 22/22/22
f 21/21/21 24/24/24 23/23/23
f 25/25/25 27/27/27 26/26/26
f 27/27/27 25/25/25 28/28/28
f 28/28/28 26/26/26 27/27/27
f 28/28/28 25/25/25 29/29/29
f 30/30/30 26/26/26 28/28/28
f 26/26/26 30/30/30 31/31/31
f 32/32/32 34/34/34 33/33/33
f 32/32/32 35/35/35 34/34/34
f 36/36/36 38/38/38 37/37/37
f 36/36/36 39/39/39 38/38/38
f 40/40/40 42/42/42 41/41/41
f 40/40/40 43/43/43 42/42/42
f 44/44/44 46/46/46 45/45/45
f 44/44/44 47/47/47 46/46/46
f 48/48/48 50/50/50 49/49/49
f 48/48/48 51/51/51 50/50/50
f 52/52/52 54/54/54 53/53/53
f 52/52/52 55/55/55 54/54/54
f 56/56/56 58/58/58 57/57/57
f 58/58/58 56/56/56 59/59/59
f 59/59/59 57/57/57 58/58/58
f 59/59/59 56/56/56 60/60/60
f 61/61/61 57/57/57 59/59/59
f 57/57/57 61/61/61 62/62/62
f 63/63/63 65/65/65 64/64/64
f 63/63/63 66/66/66 65/65/65
f 67/67/67 69/69/69 68/68/68
f 67/67/67 70/70/70 69/69/69
f 71/71/71 73/73/73 72/72/72
f 71/71/71 74/74/74 73/73/73
f 75/75/75 77/77/77 76/76/76
f 75/75/75 78/78/78 77/77/77
f 79/79/79 81/81/81 80/80/80
f 79/79/79 82/82/82 81/81/81
f 83/83/83 85/85/85 84/84/84
f 83/83/83 86/86/86 85/85/85
f 87/87/87 89/89/89 88/88/88
f 89/89/89 87/87/87 90/90/90
f 90/90/90 87/87/87 91/91/91
f 90/90/90 92/92/92 89/89/89
f 92/92/92 90/90/90 91/91/91
f 92/92/92 91/91/91 93/93/93
