#SD_Prop_Candle_Flame_03_2322_1.obj

v -0.02554621 3.07868E-07 0.02553644
v -0.05997258 0.08566681 0.0599628
v 0.05996659 0.08566681 0.05996281
v 0.02554022 3.053372E-07 0.02553644
v -0.01088377 0.193405 0.01087273
v -0.01088377 0.193405 -0.01088631
v 0.01087781 0.193405 -0.01088631
v 0.0108778 0.193405 0.01087273
v -0.05997257 0.0856668 -0.05997637
v -0.0255462 3.036445E-07 -0.02554999
v 0.02554022 3.011137E-07 -0.02554999
v 0.0599666 0.08566679 -0.05997636
v -0.0255462 3.036445E-07 -0.02554999
v -0.02554621 3.07868E-07 0.02553644
v 0.02554022 3.053372E-07 0.02553644
v 0.02554022 3.011137E-07 -0.02554999
v 0.02554022 3.053372E-07 0.02553644
v 0.05996659 0.08566681 0.05996281
v 0.0599666 0.08566679 -0.05997636
v 0.02554022 3.011137E-07 -0.02554999
v -0.0255462 3.036445E-07 -0.02554999
v -0.05997257 0.0856668 -0.05997637
v -0.05997258 0.08566681 0.0599628
v -0.02554621 3.07868E-07 0.02553644
v -0.05997258 0.08566681 0.0599628
v -0.01088377 0.193405 0.01087273
v 0.0108778 0.193405 0.01087273
v 0.05996659 0.08566681 0.05996281
v 0.05996659 0.08566681 0.05996281
v 0.0108778 0.193405 0.01087273
v 0.01087781 0.193405 -0.01088631
v 0.0599666 0.08566679 -0.05997636
v 0.0599666 0.08566679 -0.05997636
v 0.01087781 0.193405 -0.01088631
v -0.01088377 0.193405 -0.01088631
v -0.05997257 0.0856668 -0.05997637
v -0.05997257 0.0856668 -0.05997637
v -0.01088377 0.193405 -0.01088631
v -0.01088377 0.193405 0.01087273
v -0.05997258 0.08566681 0.0599628

vn 9.297307E-08 -0.3728759 0.9278811
vn 9.297307E-08 -0.3728759 0.9278811
vn 9.297307E-08 -0.3728759 0.9278811
vn 9.297307E-08 -0.3728759 0.9278811
vn -2.685623E-08 0.9999998 8.331686E-08
vn -2.685623E-08 0.9999998 8.331686E-08
vn -2.685623E-08 0.9999998 8.331686E-08
vn -2.685623E-08 0.9999998 8.331686E-08
vn -7.294497E-08 -0.3728761 -0.9278812
vn -7.294497E-08 -0.3728761 -0.9278812
vn -7.294497E-08 -0.3728761 -0.9278812
vn -7.294497E-08 -0.3728761 -0.9278812
vn 2.685623E-08 -0.9999998 -8.331686E-08
vn 2.685623E-08 -0.9999998 -8.331686E-08
vn 2.685623E-08 -0.9999998 -8.331686E-08
vn 2.685623E-08 -0.9999998 -8.331686E-08
vn 0.9278812 -0.372876 5.189216E-08
vn 0.9278812 -0.372876 5.189216E-08
vn 0.9278812 -0.372876 5.189216E-08
vn 0.9278812 -0.372876 5.189216E-08
vn -0.9278812 -0.372876 -1.140259E-07
vn -0.9278812 -0.372876 -1.140259E-07
vn -0.9278812 -0.372876 -1.140259E-07
vn -0.9278812 -0.372876 -1.140259E-07
vn 7.022478E-08 0.414619 0.9099951
vn 7.022478E-08 0.414619 0.9099951
vn 7.022478E-08 0.414619 0.9099951
vn 7.022478E-08 0.414619 0.9099951
vn 0.9099951 0.4146189 1.159046E-07
vn 0.9099951 0.4146189 1.159046E-07
vn 0.9099951 0.4146189 1.159046E-07
vn 0.9099951 0.4146189 1.159046E-07
vn -9.249499E-08 0.4146188 -0.909995
vn -9.249499E-08 0.4146188 -0.909995
vn -9.249499E-08 0.4146188 -0.909995
vn -9.249499E-08 0.4146188 -0.909995
vn -0.9099951 0.414619 -4.681513E-08
vn -0.9099951 0.414619 -4.681513E-08
vn -0.9099951 0.414619 -4.681513E-08
vn -0.9099951 0.414619 -4.681513E-08

vt 0.4440918 0.223877
vt 0.4440918 0.223877
vt 0.4440918 0.223877
vt 0.4440918 0.223877
vt 0.4440918 0.223877
vt 0.4440918 0.223877
vt 0.4440918 0.223877
vt 0.4440918 0.223877
vt 0.4440918 0.223877
vt 0.4440918 0.223877
vt 0.4440918 0.223877
vt 0.4440918 0.223877
vt 0.4440918 0.223877
vt 0.4440918 0.223877
vt 0.4440918 0.223877
vt 0.4440918 0.223877
vt 0.4440918 0.223877
vt 0.4440918 0.223877
vt 0.4440918 0.223877
vt 0.4440918 0.223877
vt 0.4440918 0.223877
vt 0.4440918 0.223877
vt 0.4440918 0.223877
vt 0.4440918 0.223877
vt 0.4440918 0.223877
vt 0.4440918 0.223877
vt 0.4440918 0.223877
vt 0.4440918 0.223877
vt 0.4440918 0.223877
vt 0.4440918 0.223877
vt 0.4440918 0.223877
vt 0.4440918 0.223877
vt 0.4440918 0.223877
vt 0.4440918 0.223877
vt 0.4440918 0.223877
vt 0.4440918 0.223877
vt 0.4440918 0.223877
vt 0.4440918 0.223877
vt 0.4440918 0.223877
vt 0.4440918 0.223877

g SD_Prop_Candle_Flame_03_2322_1
usemtl SD_Prop_Candle_Flame_03_2322_1
usemap SD_Prop_Candle_Flame_03_2322_1
f 1/1/1 3/3/3 2/2/2
f 1/1/1 4/4/4 3/3/3
f 5/5/5 7/7/7 6/6/6
f 5/5/5 8/8/8 7/7/7
f 9/9/9 11/11/11 10/10/10
f 9/9/9 12/12/12 11/11/11
f 13/13/13 15/15/15 14/14/14
f 13/13/13 16/16/16 15/15/15
f 17/17/17 19/19/19 18/18/18
f 17/17/17 20/20/20 19/19/19
f 21/21/21 23/23/23 22/22/22
f 21/21/21 24/24/24 23/23/23
f 25/25/25 27/27/27 26/26/26
f 25/25/25 28/28/28 27/27/27
f 29/29/29 31/31/31 30/30/30
f 29/29/29 32/32/32 31/31/31
f 33/33/33 35/35/35 34/34/34
f 33/33/33 36/36/36 35/35/35
f 37/37/37 39/39/39 38/38/38
f 37/37/37 40/40/40 39/39/39
