#SD_Prop_Coin_05_2404_24.obj

v 0.04500726 -7.980844E-08 -0.0779345
v 0.04500726 0.02537135 -0.0779345
v -0.04498054 0.02537136 -0.07793384
v -0.04498054 -7.02834E-08 -0.07793384
v -0.04498054 -7.02834E-08 -0.07793384
v -0.04498054 0.02537136 -0.07793384
v -0.08997487 0.02537137 -1.207797E-06
v -0.08997487 -6.434878E-08 -1.207638E-06
v -0.08997487 -6.434878E-08 -1.207638E-06
v -0.08997487 0.02537137 -1.207797E-06
v -0.0449814 0.02537136 0.07793076
v -0.0449814 -6.793921E-08 0.07793076
v -0.0449814 -6.793921E-08 0.07793076
v -0.0449814 0.02537136 0.07793076
v 0.0450064 0.02537135 0.0779301
v 0.0450064 -7.746425E-08 0.0779301
v 0.0450064 -7.746425E-08 0.0779301
v 0.0450064 0.02537135 0.0779301
v 0.09000073 0.02537135 -2.527761E-06
v 0.09000073 -8.339887E-08 -2.527601E-06
v 0.09000073 -8.339887E-08 -2.527601E-06
v 0.09000073 0.02537135 -2.527761E-06
v 0.04500726 0.02537135 -0.0779345
v 0.04500726 -7.980844E-08 -0.0779345
v -0.0449814 0.02537136 0.07793076
v -0.08997487 0.02537137 -1.207797E-06
v 1.293125E-05 0.02537136 -1.867779E-06
v 0.09000073 0.02537135 -2.527761E-06
v 0.0450064 0.02537135 0.0779301
v 0.04500726 0.02537135 -0.0779345
v -0.04498054 0.02537136 -0.07793384

vn -0.9659256 -8.756345E-09 -0.2588202
vn -0.9659256 -8.756345E-09 -0.2588202
vn -0.9659256 -8.756345E-09 -0.2588202
vn -0.9659256 -8.756345E-09 -0.2588202
vn -0.7071074 -1.516015E-09 0.7071061
vn -0.7071074 -1.516015E-09 0.7071061
vn -0.7071074 -1.516015E-09 0.7071061
vn -0.7071074 -1.516015E-09 0.7071061
vn 0.2588174 7.240325E-09 0.9659263
vn 0.2588174 7.240325E-09 0.9659263
vn 0.2588174 7.240325E-09 0.9659263
vn 0.2588174 7.240325E-09 0.9659263
vn 0.9659256 8.756345E-09 0.2588202
vn 0.9659256 8.756345E-09 0.2588202
vn 0.9659256 8.756345E-09 0.2588202
vn 0.9659256 8.756345E-09 0.2588202
vn 0.7071074 1.516014E-09 -0.7071061
vn 0.7071074 1.516014E-09 -0.7071061
vn 0.7071074 1.516014E-09 -0.7071061
vn 0.7071074 1.516014E-09 -0.7071061
vn -0.2588178 -7.240327E-09 -0.9659263
vn -0.2588178 -7.240327E-09 -0.9659263
vn -0.2588178 -7.240327E-09 -0.9659263
vn -0.2588178 -7.240327E-09 -0.9659263
vn -2.685624E-08 1 8.331688E-08
vn -2.685624E-08 1 8.331688E-08
vn -2.685624E-08 1 8.331688E-08
vn -2.685624E-08 1 8.331688E-08
vn -2.685624E-08 1 8.331688E-08
vn -2.685624E-08 1 8.331688E-08
vn -2.685624E-08 1 8.331688E-08

vt 0.5776367 0.4702148
vt 0.5776367 0.4702148
vt 0.5776367 0.4702148
vt 0.5776367 0.4702148
vt 0.5776367 0.4702148
vt 0.5776367 0.4702148
vt 0.5776367 0.4702148
vt 0.5776367 0.4702148
vt 0.5776367 0.4702148
vt 0.5776367 0.4702148
vt 0.5776367 0.4702148
vt 0.5776367 0.4702148
vt 0.5776367 0.4702148
vt 0.5776367 0.4702148
vt 0.5776367 0.4702148
vt 0.5776367 0.4702148
vt 0.5776367 0.4702148
vt 0.5776367 0.4702148
vt 0.5776367 0.4702148
vt 0.5776367 0.4702148
vt 0.5776367 0.4702148
vt 0.5776367 0.4702148
vt 0.5776367 0.4702148
vt 0.5776367 0.4702148
vt 0.6494141 0.4702148
vt 0.6494141 0.4702148
vt 0.6494141 0.4702148
vt 0.6494141 0.4702148
vt 0.6494141 0.4702148
vt 0.6494141 0.4702148
vt 0.6494141 0.4702148

g SD_Prop_Coin_05_2404_24
usemtl SD_Prop_Coin_05_2404_24
usemap SD_Prop_Coin_05_2404_24
f 1/1/1 3/3/3 2/2/2
f 1/1/1 4/4/4 3/3/3
f 5/5/5 7/7/7 6/6/6
f 5/5/5 8/8/8 7/7/7
f 9/9/9 11/11/11 10/10/10
f 9/9/9 12/12/12 11/11/11
f 13/13/13 15/15/15 14/14/14
f 13/13/13 16/16/16 15/15/15
f 17/17/17 19/19/19 18/18/18
f 17/17/17 20/20/20 19/19/19
f 21/21/21 23/23/23 22/22/22
f 21/21/21 24/24/24 23/23/23
f 25/25/25 27/27/27 26/26/26
f 27/27/27 25/25/25 28/28/28
f 28/28/28 26/26/26 27/27/27
f 28/28/28 25/25/25 29/29/29
f 30/30/30 26/26/26 28/28/28
f 26/26/26 30/30/30 31/31/31
