#SD_Prop_BloodSplat_09_3008_196.obj

v -0.1467972 0.01461395 0.1398456
v -0.155273 0.01461395 0.1881771
v -0.2096092 0.01461395 0.1874211
v -0.2322134 0.01461395 0.1479513
v -0.2135481 0.01461395 0.1128934
v -0.1769489 0.01461395 0.1041323
v -0.06434175 0.01480373 -0.1881777
v 0.02763071 0.01480373 -0.1613484
v 0.04074344 0.01480373 -0.07746606
v -0.09501127 0.01480373 -0.05949457
v -0.2356126 0.01480373 -0.09814655
v -0.2087837 0.01480373 -0.1834583
v -0.1866872 0.01480373 0.03884241
v -0.08453936 0.01480373 0.1058912
v 0.007433199 0.01480373 0.07906194
v 0.146268 0.01473125 -0.0275703
v 0.2256387 0.01473125 0.0008974386
v 0.2356137 0.01473125 0.07872089
v 0.1621738 0.01473125 0.105473
v 0.1082569 0.01473125 0.0636278
v 0.1041123 0.01473125 -0.0009082123

vn 0 1 0
vn 0 1 0
vn 0 1 0
vn 0 1 0
vn 0 1 0
vn 0 1 0
vn 0 1 0
vn 0 1 0
vn 0 1 0
vn 0 1 0
vn 0 1 0
vn 0 1 0
vn 0 1 0
vn 0 1 0
vn 0 1 0
vn 0 1 0
vn 0 1 0
vn 0 1 0
vn 0 1 0
vn 0 1 0
vn 0 1 0

vt 0.1401367 0.180542
vt 0.1401367 0.180542
vt 0.1401367 0.180542
vt 0.1401367 0.180542
vt 0.1401367 0.180542
vt 0.1401367 0.180542
vt 0.1401367 0.180542
vt 0.1401367 0.180542
vt 0.1401367 0.180542
vt 0.1401367 0.180542
vt 0.1401367 0.180542
vt 0.1401367 0.180542
vt 0.1401367 0.180542
vt 0.1401367 0.180542
vt 0.1401367 0.180542
vt 0.1401367 0.180542
vt 0.1401367 0.180542
vt 0.1401367 0.180542
vt 0.1401367 0.180542
vt 0.1401367 0.180542
vt 0.1401367 0.180542

g SD_Prop_BloodSplat_09_3008_196
usemtl SD_Prop_BloodSplat_09_3008_196
usemap SD_Prop_BloodSplat_09_3008_196
f 1/1/1 3/3/3 2/2/2
f 1/1/1 4/4/4 3/3/3
f 5/5/5 4/4/4 1/1/1
f 5/5/5 1/1/1 6/6/6
f 7/7/7 9/9/9 8/8/8
f 7/7/7 10/10/10 9/9/9
f 11/11/11 10/10/10 7/7/7
f 11/11/11 7/7/7 12/12/12
f 13/13/13 10/10/10 11/11/11
f 13/13/13 14/14/14 10/10/10
f 9/9/9 10/10/10 14/14/14
f 9/9/9 14/14/14 15/15/15
f 16/16/16 18/18/18 17/17/17
f 16/16/16 19/19/19 18/18/18
f 20/20/20 19/19/19 16/16/16
f 20/20/20 16/16/16 21/21/21
