#SD_Prop_BloodSplat_13_2953_252.obj

v 0.04986127 0.01480389 -0.2986272
v -0.03782845 0.01480389 -0.1949183
v -0.1666584 0.01480389 -0.2725347
v -0.1656259 0.01480389 -0.3984197
v -0.0720946 0.01480389 -0.4561793
v 0.02761141 0.01480389 -0.4260584
v 0.0534242 0.01512162 -0.1209946
v 0.1782106 0.01512162 0.06891123
v 0.1330166 0.01512162 0.2423528
v -0.1436837 0.01512162 0.14873
v -0.3144754 0.01512162 -0.02593231
v -0.119613 0.01512162 -0.145841
v -0.3593718 0.01512162 0.2135951
v -0.2681955 0.01512162 0.3968633
v -0.04736264 0.01512162 0.4406967
v -0.3869495 0.01480389 0.3934148
v -0.4400247 0.01480389 0.4561844
v -0.5180047 0.01480389 0.4092077
v -0.5173791 0.01480389 0.3330103
v -0.4607665 0.01480389 0.2980474
v -0.4004154 0.01480389 0.3162816
v 0.4169827 0.01480389 0.3117396
v 0.2839184 0.01480389 0.2739843
v 0.2939307 0.01480389 0.1736272
v 0.4111411 0.01480389 0.121671
v 0.5040391 0.01480389 0.1841507
v 0.518006 0.01480389 0.2893092
v 0.31364 0.01500034 -0.2243627
v 0.4369869 0.01500034 -0.07735952
v 0.3673153 0.01500034 0.08704885
v 0.1782106 0.01512162 0.06891123
v 0.0534242 0.01512162 -0.1209946
v 0.200196 0.01500034 -0.2203191

vn 0 1 0
vn 0 1 0
vn 0 1 0
vn 0 1 0
vn 0 1 0
vn 0 1 0
vn 0 1 0
vn 0 1 0
vn 0 1 0
vn 0 1 0
vn 0 1 0
vn 0 1 0
vn 0 1 0
vn 0 1 0
vn 0 1 0
vn 0 1 0
vn 0 1 0
vn 0 1 0
vn 0 1 0
vn 0 1 0
vn 0 1 0
vn 0 1 0
vn 0 1 0
vn 0 1 0
vn 0 1 0
vn 0 1 0
vn 0 1 0
vn 0.0003676842 1 -0.0001977809
vn 0.0004267576 0.9999999 0
vn 0.0004267576 0.9999999 0
vn 0.0003676842 1 -0.0001977809
vn 0.0003086107 0.9999999 -0.0003955617
vn 0.0003086107 0.9999999 -0.0003955617

vt 0.1401367 0.180542
vt 0.1401367 0.180542
vt 0.1401367 0.180542
vt 0.1401367 0.180542
vt 0.1401367 0.180542
vt 0.1401367 0.180542
vt 0.1401367 0.180542
vt 0.1401367 0.180542
vt 0.1401367 0.180542
vt 0.1401367 0.180542
vt 0.1401367 0.180542
vt 0.1401367 0.180542
vt 0.1401367 0.180542
vt 0.1401367 0.180542
vt 0.1401367 0.180542
vt 0.1401367 0.180542
vt 0.1401367 0.180542
vt 0.1401367 0.180542
vt 0.1401367 0.180542
vt 0.1401367 0.180542
vt 0.1401367 0.180542
vt 0.1401367 0.180542
vt 0.1401367 0.180542
vt 0.1401367 0.180542
vt 0.1401367 0.180542
vt 0.1401367 0.180542
vt 0.1401367 0.180542
vt 0.1401367 0.180542
vt 0.1401367 0.180542
vt 0.1401367 0.180542
vt 0.1401367 0.180542
vt 0.1401367 0.180542
vt 0.1401367 0.180542

g SD_Prop_BloodSplat_13_2953_252
usemtl SD_Prop_BloodSplat_13_2953_252
usemap SD_Prop_BloodSplat_13_2953_252
f 1/1/1 3/3/3 2/2/2
f 1/1/1 4/4/4 3/3/3
f 5/5/5 4/4/4 1/1/1
f 5/5/5 1/1/1 6/6/6
f 7/7/7 9/9/9 8/8/8
f 7/7/7 10/10/10 9/9/9
f 11/11/11 10/10/10 7/7/7
f 11/11/11 7/7/7 12/12/12
f 13/13/13 10/10/10 11/11/11
f 13/13/13 14/14/14 10/10/10
f 9/9/9 10/10/10 14/14/14
f 9/9/9 14/14/14 15/15/15
f 16/16/16 18/18/18 17/17/17
f 16/16/16 19/19/19 18/18/18
f 20/20/20 19/19/19 16/16/16
f 20/20/20 16/16/16 21/21/21
f 22/22/22 24/24/24 23/23/23
f 22/22/22 25/25/25 24/24/24
f 26/26/26 25/25/25 22/22/22
f 26/26/26 22/22/22 27/27/27
f 28/28/28 30/30/30 29/29/29
f 28/28/28 31/31/31 30/30/30
f 32/32/32 31/31/31 28/28/28
f 32/32/32 28/28/28 33/33/33
