#SD_Prop_BloodSplat_22_2628_85.obj

v -0.1467994 0.01461419 0.139844
v -0.1552735 0.01461419 0.1881766
v -0.2096107 0.01461419 0.1874208
v -0.2322141 0.01461419 0.1479509
v -0.2135497 0.01461419 0.1128909
v -0.1769492 0.01461419 0.1041334
v -0.0643435 0.01480386 -0.188177
v 0.02762913 0.01480386 -0.1613485
v 0.04074194 0.01480386 -0.07746524
v -0.09501304 0.01480386 -0.0594946
v -0.2356129 0.01480386 -0.09814707
v -0.2087848 0.01480386 -0.1834572
v -0.1866877 0.01480386 0.03884264
v -0.08454084 0.01480386 0.1058912
v 0.007430705 0.01480386 0.07906228
v 0.1462668 0.01473151 -0.02757022
v 0.2256369 0.01473151 0.0008962029
v 0.2356119 0.01473151 0.07872111
v 0.1621726 0.01473151 0.1054714
v 0.1082551 0.01473151 0.06362643
v 0.1041122 0.01473151 -0.0009085264

vn 0 1 0
vn 0 1 0
vn 0 1 0
vn 0 1 0
vn 0 1 0
vn 0 1 0
vn 0 1 0
vn 0 1 0
vn 0 1 0
vn 0 1 0
vn 0 1 0
vn 0 1 0
vn 0 1 0
vn 0 1 0
vn 0 1 0
vn 0 1 0
vn 0 1 0
vn 0 1 0
vn 0 1 0
vn 0 1 0
vn 0 1 0

vt 0.1401367 0.180542
vt 0.1401367 0.180542
vt 0.1401367 0.180542
vt 0.1401367 0.180542
vt 0.1401367 0.180542
vt 0.1401367 0.180542
vt 0.1401367 0.180542
vt 0.1401367 0.180542
vt 0.1401367 0.180542
vt 0.1401367 0.180542
vt 0.1401367 0.180542
vt 0.1401367 0.180542
vt 0.1401367 0.180542
vt 0.1401367 0.180542
vt 0.1401367 0.180542
vt 0.1401367 0.180542
vt 0.1401367 0.180542
vt 0.1401367 0.180542
vt 0.1401367 0.180542
vt 0.1401367 0.180542
vt 0.1401367 0.180542

g SD_Prop_BloodSplat_22_2628_85
usemtl SD_Prop_BloodSplat_22_2628_85
usemap SD_Prop_BloodSplat_22_2628_85
f 1/1/1 3/3/3 2/2/2
f 1/1/1 4/4/4 3/3/3
f 5/5/5 4/4/4 1/1/1
f 5/5/5 1/1/1 6/6/6
f 7/7/7 9/9/9 8/8/8
f 7/7/7 10/10/10 9/9/9
f 11/11/11 10/10/10 7/7/7
f 11/11/11 7/7/7 12/12/12
f 13/13/13 10/10/10 11/11/11
f 13/13/13 14/14/14 10/10/10
f 9/9/9 10/10/10 14/14/14
f 9/9/9 14/14/14 15/15/15
f 16/16/16 18/18/18 17/17/17
f 16/16/16 19/19/19 18/18/18
f 20/20/20 19/19/19 16/16/16
f 20/20/20 16/16/16 21/21/21
