#SD_Prop_BloodSplat_16_2363_205.obj

v -0.1338349 0.01465449 -0.07422568
v -0.2215256 0.01465449 -0.02990179
v -0.3503562 0.01465449 -0.06307482
v -0.3493218 0.01465449 -0.1168757
v -0.255791 0.01465449 -0.1415637
v -0.1560845 0.01465449 -0.1286875
v 0.5300082 0.01465449 0.002806673
v 0.4769315 0.01465449 0.02851885
v 0.3989522 0.01465449 0.009273281
v 0.3995772 0.01465449 -0.02193673
v 0.4561905 0.01465449 -0.0362588
v 0.5165403 0.01465449 -0.02878974
v 0.141349 0.01465449 0.215144
v 0.008283902 0.01465449 0.1945879
v 0.01829608 0.01465449 0.1399488
v 0.1355075 0.01465449 0.1116608
v 0.2284066 0.01465449 0.1456778
v 0.2423721 0.01465449 0.20293
v 0.3762758 0.01465449 -0.09916149
v 0.3260856 0.01465449 -0.1180635
v 0.3445623 0.01465449 -0.1401052
v 0.400911 0.01465449 -0.142829
v 0.4308059 0.01465449 -0.1214177
v 0.4216594 0.01465449 -0.09642568
v 0.2533692 0.01465449 -0.04592884
v 0.2112093 0.01465449 -0.002935645
v 0.09681003 0.01465449 0.01087628
v 0.06887016 0.01465449 -0.01637967
v 0.1258951 0.01465449 -0.05089519
v 0.2076027 0.01465449 -0.06801277
v 0.05314099 0.01465449 -0.1638297
v 0.05283958 0.01465449 -0.1441534
v 0.01289734 0.01465449 -0.1347068
v -0.008511445 0.01465449 -0.1454894
v 0.0008878619 0.01465449 -0.1620016
v 0.02665827 0.01465449 -0.1718456
v 0.5554366 0.01465449 -0.2154275
v 0.5317107 0.01465449 -0.1958862
v 0.4763882 0.01465449 -0.1939523
v 0.4655738 0.01465449 -0.2086977
v 0.4955845 0.01465449 -0.2233869
v 0.5357357 0.01465449 -0.228367
v -0.2251301 0.01495321 0.01881485
v -0.1252804 0.01495321 0.08966437
v -0.1614427 0.01495321 0.1543709
v -0.3828496 0.01495321 0.1194425
v -0.519511 0.01495321 0.05428035
v -0.3635887 0.01495321 0.009547311
v -0.5554358 0.01495321 0.143643
v -0.4824801 0.01495321 0.2120135
v -0.3057771 0.01495321 0.2283695
v -0.01691367 0.01487009 -0.019749
v 0.08178401 0.01487009 0.03509379
v 0.0260359 0.01487009 0.09643044
v -0.1252804 0.01495321 0.08966437
v -0.2251301 0.01495321 0.01881485
v -0.1076875 0.01487009 -0.01824087

vn 0 0.9999998 0
vn 0 0.9999998 0
vn 0 0.9999998 0
vn 0 0.9999998 0
vn 0 0.9999998 0
vn 0 0.9999998 0
vn 0 0.9999998 0
vn 0 0.9999998 0
vn 0 0.9999998 0
vn 0 0.9999998 0
vn 0 0.9999998 0
vn 0 0.9999998 0
vn 0 0.9999998 0
vn 0 0.9999998 0
vn 0 0.9999998 0
vn 0 0.9999998 0
vn 0 0.9999998 0
vn 0 0.9999998 0
vn 0 0.9999998 0
vn 0 0.9999998 0
vn 0 0.9999998 0
vn 0 0.9999998 0
vn 0 0.9999998 0
vn 0 0.9999998 0
vn 0 0.9999998 0
vn 0 0.9999998 0
vn 0 0.9999998 0
vn 0 0.9999998 0
vn 0 0.9999998 0
vn 0 0.9999998 0
vn 0 0.9999998 0
vn 0 0.9999998 0
vn 0 0.9999998 0
vn 0 0.9999998 0
vn 0 0.9999998 0
vn 0 0.9999998 0
vn 0 0.9999998 0
vn 0 0.9999998 0
vn 0 0.9999998 0
vn 0 0.9999998 0
vn 0 0.9999998 0
vn 0 0.9999998 0
vn 0 0.9999998 0
vn 0 0.9999998 0
vn 0 0.9999998 0
vn 0 0.9999998 0
vn 0 0.9999998 0
vn 0 0.9999998 0
vn 0 0.9999998 0
vn 0 0.9999998 0
vn 0 0.9999998 0
vn 7.346612E-06 0.9999998 0.0003631971
vn 0 0.9999998 0
vn 0 0.9999998 0
vn 7.346612E-06 0.9999998 0.0003631971
vn 1.469322E-05 0.9999996 0.0007263942
vn 1.469322E-05 0.9999996 0.0007263942

vt 0.1401367 0.180542
vt 0.1401367 0.180542
vt 0.1401367 0.180542
vt 0.1401367 0.180542
vt 0.1401367 0.180542
vt 0.1401367 0.180542
vt 0.1401367 0.180542
vt 0.1401367 0.180542
vt 0.1401367 0.180542
vt 0.1401367 0.180542
vt 0.1401367 0.180542
vt 0.1401367 0.180542
vt 0.1401367 0.180542
vt 0.1401367 0.180542
vt 0.1401367 0.180542
vt 0.1401367 0.180542
vt 0.1401367 0.180542
vt 0.1401367 0.180542
vt 0.1401367 0.180542
vt 0.1401367 0.180542
vt 0.1401367 0.180542
vt 0.1401367 0.180542
vt 0.1401367 0.180542
vt 0.1401367 0.180542
vt 0.1401367 0.180542
vt 0.1401367 0.180542
vt 0.1401367 0.180542
vt 0.1401367 0.180542
vt 0.1401367 0.180542
vt 0.1401367 0.180542
vt 0.1401367 0.180542
vt 0.1401367 0.180542
vt 0.1401367 0.180542
vt 0.1401367 0.180542
vt 0.1401367 0.180542
vt 0.1401367 0.180542
vt 0.1401367 0.180542
vt 0.1401367 0.180542
vt 0.1401367 0.180542
vt 0.1401367 0.180542
vt 0.1401367 0.180542
vt 0.1401367 0.180542
vt 0.1401367 0.180542
vt 0.1401367 0.180542
vt 0.1401367 0.180542
vt 0.1401367 0.180542
vt 0.1401367 0.180542
vt 0.1401367 0.180542
vt 0.1401367 0.180542
vt 0.1401367 0.180542
vt 0.1401367 0.180542
vt 0.1401367 0.180542
vt 0.1401367 0.180542
vt 0.1401367 0.180542
vt 0.1401367 0.180542
vt 0.1401367 0.180542
vt 0.1401367 0.180542

g SD_Prop_BloodSplat_16_2363_205
usemtl SD_Prop_BloodSplat_16_2363_205
usemap SD_Prop_BloodSplat_16_2363_205
f 1/1/1 3/3/3 2/2/2
f 1/1/1 4/4/4 3/3/3
f 5/5/5 4/4/4 1/1/1
f 5/5/5 1/1/1 6/6/6
f 7/7/7 9/9/9 8/8/8
f 7/7/7 10/10/10 9/9/9
f 11/11/11 10/10/10 7/7/7
f 11/11/11 7/7/7 12/12/12
f 13/13/13 15/15/15 14/14/14
f 13/13/13 16/16/16 15/15/15
f 17/17/17 16/16/16 13/13/13
f 17/17/17 13/13/13 18/18/18
f 19/19/19 21/21/21 20/20/20
f 19/19/19 22/22/22 21/21/21
f 23/23/23 22/22/22 19/19/19
f 23/23/23 19/19/19 24/24/24
f 25/25/25 27/27/27 26/26/26
f 25/25/25 28/28/28 27/27/27
f 29/29/29 28/28/28 25/25/25
f 29/29/29 25/25/25 30/30/30
f 31/31/31 33/33/33 32/32/32
f 31/31/31 34/34/34 33/33/33
f 35/35/35 34/34/34 31/31/31
f 35/35/35 31/31/31 36/36/36
f 37/37/37 39/39/39 38/38/38
f 37/37/37 40/40/40 39/39/39
f 41/41/41 40/40/40 37/37/37
f 41/41/41 37/37/37 42/42/42
f 43/43/43 45/45/45 44/44/44
f 43/43/43 46/46/46 45/45/45
f 47/47/47 46/46/46 43/43/43
f 47/47/47 43/43/43 48/48/48
f 49/49/49 46/46/46 47/47/47
f 49/49/49 50/50/50 46/46/46
f 45/45/45 46/46/46 50/50/50
f 45/45/45 50/50/50 51/51/51
f 52/52/52 54/54/54 53/53/53
f 52/52/52 55/55/55 54/54/54
f 56/56/56 55/55/55 52/52/52
f 56/56/56 52/52/52 57/57/57
