#SD_Prop_Banner_Ripped_03_2383_186.obj

v -0.6363053 -0.7399803 0.03977727
v -0.6363052 1.128694 0.03977711
v -0.5567956 -0.510663 0.03977726
v -0.4664445 -0.4925667 0.03977726
v 2.588868E-07 1.128694 0.03977716
v -0.07834989 -0.4313675 0.03977729
v -0.3398042 -1.185894 0.03977733
v -0.2188694 -1.235259 0.03977734
v 0.07877114 -0.3982585 0.03977729
v 0.5133058 -0.4330002 0.03977733
v 0.2597531 -0.880044 0.03977735
v 0.3483113 -0.8914836 0.03977735
v 0.6363133 -0.403299 0.03977733
v 0.6363134 1.128694 0.03977721
v -0.7137169 1.23526 0.0397771
v -0.7137169 1.23526 -0.03978477
v 2.698943E-07 1.23526 -0.03978472
v 2.64166E-07 1.23526 0.03977715
v 0.71372 1.23526 0.0397772
v 0.71372 1.23526 -0.03978467
v 0.7137198 -0.3999478 0.03977734
v 0.71372 1.23526 0.0397772
v 0.71372 1.23526 -0.03978467
v 0.7137198 -0.4047327 -0.03978453
v -0.713717 -0.736673 -0.03978461
v -0.7137169 1.23526 -0.03978477
v -0.7137169 1.23526 0.0397771
v -0.713717 -0.7331463 0.03977726
v 2.64166E-07 1.23526 0.03977715
v 2.588868E-07 1.128694 0.03977716
v -0.6363052 1.128694 0.03977711
v -0.7137169 1.23526 0.0397771
v -0.6363053 -0.7399803 0.03977727
v -0.713717 -0.7331463 0.03977726
v 0.71372 1.23526 0.0397772
v 0.6363134 1.128694 0.03977721
v 0.6363133 -0.403299 0.03977733
v 0.7137198 -0.3999478 0.03977734
v -0.6363053 -0.7399803 0.03977727
v -0.6363053 -0.7399803 -0.0397846
v -0.713717 -0.736673 -0.03978461
v -0.713717 -0.7331463 0.03977726
v -0.5567956 -0.510663 0.03977726
v -0.5567956 -0.510663 -0.03978461
v -0.6363053 -0.7399803 -0.0397846
v -0.6363053 -0.7399803 0.03977727
v -0.3398042 -1.185894 0.03977733
v -0.3398042 -1.185894 -0.03978454
v -0.4664445 -0.4925667 -0.03978461
v -0.4664445 -0.4925667 0.03977726
v -0.07834989 -0.4313675 0.03977729
v -0.07834988 -0.4313675 -0.03978458
v -0.2188694 -1.235259 -0.03978453
v -0.2188694 -1.235259 0.03977734
v 0.07877114 -0.3982585 0.03977729
v 0.07877114 -0.3982585 -0.03978458
v -0.07834988 -0.4313675 -0.03978458
v -0.07834989 -0.4313675 0.03977729
v 0.5133058 -0.4330002 0.03977733
v 0.5133058 -0.4330002 -0.03978454
v 0.3483113 -0.8914836 -0.03978452
v 0.3483113 -0.8914836 0.03977735
v 0.6363133 -0.403299 0.03977733
v 0.6363133 -0.403299 -0.03978454
v 0.5133058 -0.4330002 -0.03978454
v 0.5133058 -0.4330002 0.03977733
v 0.7137198 -0.3999478 0.03977734
v 0.7137198 -0.4047327 -0.03978453
v 0.6363133 -0.403299 -0.03978454
v 0.6363133 -0.403299 0.03977733
v -0.2188694 -1.235259 0.03977734
v -0.2188694 -1.235259 -0.03978453
v -0.3398042 -1.185894 -0.03978454
v -0.3398042 -1.185894 0.03977733
v -0.4664445 -0.4925667 0.03977726
v -0.4664445 -0.4925667 -0.03978461
v -0.5567956 -0.510663 -0.03978461
v -0.5567956 -0.510663 0.03977726
v 0.3483113 -0.8914836 0.03977735
v 0.3483113 -0.8914836 -0.03978452
v 0.2597531 -0.880044 -0.03978452
v 0.2597531 -0.880044 0.03977735
v 0.2597531 -0.880044 0.03977735
v 0.2597531 -0.880044 -0.03978452
v 0.07877114 -0.3982585 -0.03978458
v 0.07877114 -0.3982585 0.03977729

vn 8.940695E-08 8.331686E-08 0.9999999
vn 8.940695E-08 8.331686E-08 0.9999999
vn 8.940695E-08 8.331686E-08 0.9999999
vn 8.940695E-08 8.331686E-08 0.9999999
vn 8.940695E-08 8.331686E-08 0.9999999
vn 8.940695E-08 8.331686E-08 0.9999999
vn 8.940695E-08 8.331686E-08 0.9999999
vn 8.940695E-08 8.331686E-08 0.9999999
vn 8.940695E-08 8.331686E-08 0.9999999
vn 8.940695E-08 8.331686E-08 0.9999999
vn 8.940695E-08 8.331686E-08 0.9999999
vn 8.940695E-08 8.331686E-08 0.9999999
vn 8.940695E-08 8.331686E-08 0.9999999
vn 8.940695E-08 8.331686E-08 0.9999999
vn -2.685623E-08 0.9999998 8.331686E-08
vn -2.685623E-08 0.9999998 8.331686E-08
vn -2.685623E-08 0.9999998 8.331686E-08
vn -2.685623E-08 0.9999998 8.331686E-08
vn -2.685623E-08 0.9999998 8.331686E-08
vn -2.685623E-08 0.9999998 8.331686E-08
vn 1 -2.685623E-08 8.940695E-08
vn 1 -2.685623E-08 8.940695E-08
vn 1 -2.685623E-08 8.940695E-08
vn 1 -2.685623E-08 8.940695E-08
vn -1 2.685623E-08 -8.940695E-08
vn -1 2.685623E-08 -8.940695E-08
vn -1 2.685623E-08 -8.940695E-08
vn -1 2.685623E-08 -8.940695E-08
vn 8.940695E-08 8.331686E-08 0.9999999
vn 8.940695E-08 8.331686E-08 0.9999999
vn 8.940695E-08 8.331686E-08 0.9999999
vn 8.940695E-08 8.331686E-08 0.9999999
vn 8.940695E-08 8.331686E-08 0.9999999
vn 8.940695E-08 8.331686E-08 0.9999999
vn 8.940695E-08 8.331686E-08 0.9999999
vn 8.940695E-08 8.331686E-08 0.9999999
vn 8.940695E-08 8.331686E-08 0.9999999
vn 8.940695E-08 8.331686E-08 0.9999999
vn -0.06534556 -0.9976174 0.02211192
vn -0.06534556 -0.9976174 0.02211192
vn -0.06534556 -0.9976174 0.02211192
vn -0.06534556 -0.9976174 0.02211192
vn 0.9448189 -0.3275929 5.717935E-08
vn 0.9448189 -0.327593 5.717935E-08
vn 0.9448189 -0.3275929 5.717935E-08
vn 0.9448189 -0.327593 5.717935E-08
vn -0.9837248 -0.1796819 -1.029224E-07
vn -0.9837248 -0.1796819 -1.029224E-07
vn -0.9837248 -0.1796819 -1.029224E-07
vn -0.9837248 -0.1796819 -1.029224E-07
vn 0.9850642 -0.1721876 7.372545E-08
vn 0.9850642 -0.1721876 7.372545E-08
vn 0.9850642 -0.1721876 7.372545E-08
vn 0.9850642 -0.1721876 7.372545E-08
vn 0.2061943 -0.9785108 -6.309126E-08
vn 0.2061943 -0.9785108 -6.309126E-08
vn 0.2061943 -0.9785108 -6.309126E-08
vn 0.2061943 -0.9785108 -6.309126E-08
vn 0.9409255 -0.3386133 5.591307E-08
vn 0.9409255 -0.3386133 5.591307E-08
vn 0.9409255 -0.3386133 5.591307E-08
vn 0.9409255 -0.3386133 5.591307E-08
vn 0.2347119 -0.9720648 -6.000452E-08
vn 0.2347119 -0.9720648 -6.000453E-08
vn 0.2347119 -0.9720648 -6.000452E-08
vn 0.2347119 -0.9720648 -6.000453E-08
vn 0.01238318 -0.9994715 0.03005113
vn 0.01238318 -0.9994715 0.03005113
vn 0.01238319 -0.9994715 0.03005113
vn 0.01238319 -0.9994715 0.03005113
vn -0.3779206 -0.9258378 -1.109266E-07
vn -0.3779206 -0.9258378 -1.109266E-07
vn -0.3779206 -0.9258378 -1.109266E-07
vn -0.3779206 -0.9258378 -1.109266E-07
vn 0.1963844 -0.9805267 -6.413629E-08
vn 0.1963845 -0.9805267 -6.413629E-08
vn 0.1963844 -0.9805267 -6.413629E-08
vn 0.1963845 -0.9805267 -6.413629E-08
vn -0.1281108 -0.9917597 -9.408432E-08
vn -0.1281108 -0.9917597 -9.408432E-08
vn -0.1281108 -0.9917597 -9.408432E-08
vn -0.1281108 -0.9917597 -9.408432E-08
vn -0.9361293 -0.3516558 -1.129953E-07
vn -0.9361293 -0.3516557 -1.129953E-07
vn -0.9361293 -0.3516558 -1.129953E-07
vn -0.9361293 -0.3516557 -1.129953E-07

vt 0.7373047 0.0637207
vt 0.7373047 0.0637207
vt 0.7373047 0.0637207
vt 0.7373047 0.0637207
vt 0.7373047 0.0637207
vt 0.7373047 0.0637207
vt 0.7373047 0.0637207
vt 0.7373047 0.0637207
vt 0.7373047 0.0637207
vt 0.7373047 0.0637207
vt 0.7373047 0.0637207
vt 0.7373047 0.0637207
vt 0.7373047 0.0637207
vt 0.7373047 0.0637207
vt 0.6386719 0.3684082
vt 0.6386719 0.3684082
vt 0.6386719 0.3684082
vt 0.6386719 0.3684082
vt 0.6386719 0.3684082
vt 0.6386719 0.3684082
vt 0.5761719 0.3684082
vt 0.5761719 0.3684082
vt 0.5761719 0.3684082
vt 0.5761719 0.3684082
vt 0.5761719 0.3684082
vt 0.5761719 0.3684082
vt 0.5761719 0.3684082
vt 0.5761719 0.3684082
vt 0.6069336 0.3684082
vt 0.6069336 0.3684082
vt 0.6069336 0.3684082
vt 0.6069336 0.3684082
vt 0.6069336 0.3684082
vt 0.6069336 0.3684082
vt 0.6069336 0.3684082
vt 0.6069336 0.3684082
vt 0.6069336 0.3684082
vt 0.6069336 0.3684082
vt 0.4187012 0.6655273
vt 0.4187012 0.6655273
vt 0.4187012 0.6655273
vt 0.4187012 0.6655273
vt 0.4187012 0.6655273
vt 0.4187012 0.6655273
vt 0.4187012 0.6655273
vt 0.4187012 0.6655273
vt 0.4187012 0.6655273
vt 0.4187012 0.6655273
vt 0.4187012 0.6655273
vt 0.4187012 0.6655273
vt 0.4187012 0.6655273
vt 0.4187012 0.6655273
vt 0.4187012 0.6655273
vt 0.4187012 0.6655273
vt 0.4187012 0.6655273
vt 0.4187012 0.6655273
vt 0.4187012 0.6655273
vt 0.4187012 0.6655273
vt 0.4187012 0.6655273
vt 0.4187012 0.6655273
vt 0.4187012 0.6655273
vt 0.4187012 0.6655273
vt 0.4187012 0.6655273
vt 0.4187012 0.6655273
vt 0.4187012 0.6655273
vt 0.4187012 0.6655273
vt 0.4187012 0.6655273
vt 0.4187012 0.6655273
vt 0.4187012 0.6655273
vt 0.4187012 0.6655273
vt 0.4187012 0.6655273
vt 0.4187012 0.6655273
vt 0.4187012 0.6655273
vt 0.4187012 0.6655273
vt 0.4187012 0.6655273
vt 0.4187012 0.6655273
vt 0.4187012 0.6655273
vt 0.4187012 0.6655273
vt 0.4187012 0.6655273
vt 0.4187012 0.6655273
vt 0.4187012 0.6655273
vt 0.4187012 0.6655273
vt 0.4187012 0.6655273
vt 0.4187012 0.6655273
vt 0.4187012 0.6655273
vt 0.4187012 0.6655273

g SD_Prop_Banner_Ripped_03_2383_186
usemtl SD_Prop_Banner_Ripped_03_2383_186
usemap SD_Prop_Banner_Ripped_03_2383_186
f 1/1/1 3/3/3 2/2/2
f 3/3/3 4/4/4 2/2/2
f 4/4/4 5/5/5 2/2/2
f 6/6/6 5/5/5 4/4/4
f 7/7/7 6/6/6 4/4/4
f 8/8/8 6/6/6 7/7/7
f 6/6/6 9/9/9 5/5/5
f 5/5/5 9/9/9 10/10/10
f 11/11/11 10/10/10 9/9/9
f 12/12/12 10/10/10 11/11/11
f 13/13/13 5/5/5 10/10/10
f 14/14/14 5/5/5 13/13/13
f 15/15/15 17/17/17 16/16/16
f 15/15/15 18/18/18 17/17/17
f 17/17/17 18/18/18 19/19/19
f 17/17/17 19/19/19 20/20/20
f 21/21/21 23/23/23 22/22/22
f 21/21/21 24/24/24 23/23/23
f 25/25/25 27/27/27 26/26/26
f 25/25/25 28/28/28 27/27/27
f 29/29/29 31/31/31 30/30/30
f 29/29/29 32/32/32 31/31/31
f 32/32/32 33/33/33 31/31/31
f 32/32/32 34/34/34 33/33/33
f 35/35/35 29/29/29 30/30/30
f 35/35/35 30/30/30 36/36/36
f 37/37/37 35/35/35 36/36/36
f 37/37/37 38/38/38 35/35/35
f 39/39/39 41/41/41 40/40/40
f 39/39/39 42/42/42 41/41/41
f 43/43/43 45/45/45 44/44/44
f 43/43/43 46/46/46 45/45/45
f 47/47/47 49/49/49 48/48/48
f 47/47/47 50/50/50 49/49/49
f 51/51/51 53/53/53 52/52/52
f 51/51/51 54/54/54 53/53/53
f 55/55/55 57/57/57 56/56/56
f 55/55/55 58/58/58 57/57/57
f 59/59/59 61/61/61 60/60/60
f 59/59/59 62/62/62 61/61/61
f 63/63/63 65/65/65 64/64/64
f 63/63/63 66/66/66 65/65/65
f 67/67/67 69/69/69 68/68/68
f 67/67/67 70/70/70 69/69/69
f 71/71/71 73/73/73 72/72/72
f 71/71/71 74/74/74 73/73/73
f 75/75/75 77/77/77 76/76/76
f 75/75/75 78/78/78 77/77/77
f 79/79/79 81/81/81 80/80/80
f 79/79/79 82/82/82 81/81/81
f 83/83/83 85/85/85 84/84/84
f 83/83/83 86/86/86 85/85/85
