#SD_Prop_Rubble_05_2638_113.obj

v -1.425607 0 0.7268453
v -1.401215 0.1395705 0.6696911
v -1.142557 0.1395705 0.6141542
v -1.096852 0 0.6562582
v -1.401215 0.1395705 0.6696911
v -1.510977 0.1395705 0.401156
v -1.174528 0.1395705 0.2364496
v -1.142557 0.1395705 0.6141542
v -1.510977 0.1395705 0.401156
v -1.578886 0 0.3778831
v -1.151256 0 0.168541
v -1.174528 0.1395705 0.2364496
v -1.096852 0 0.6562582
v -1.142557 0.1395705 0.6141542
v -1.174528 0.1395705 0.2364496
v -1.151256 0 0.168541
v -1.578886 0 0.3778831
v -1.510977 0.1395705 0.401156
v -1.401215 0.1395705 0.6696911
v -1.425607 0 0.7268453
v 1.011125 0 1.529226
v 1.048729 0.1779709 1.445771
v 1.49543 0.1779709 1.276588
v 1.578885 0 1.314194
v 1.048729 0.1779709 1.445771
v 0.8795462 0.1779709 0.9990699
v 1.326249 0.1779709 0.8298879
v 1.49543 0.1779709 1.276588
v 0.8795462 0.1779709 0.9990699
v 0.796092 0 0.9614652
v 1.363852 0 0.7464325
v 1.326249 0.1779709 0.8298879
v 1.578885 0 1.314194
v 1.49543 0.1779709 1.276588
v 1.326249 0.1779709 0.8298879
v 1.363852 0 0.7464325
v 0.796092 0 0.9614652
v 0.8795462 0.1779709 0.9990699
v 1.048729 0.1779709 1.445771
v 1.011125 0 1.529226
v 0.5643224 0 1.560264
v 0.5583861 0.07695007 1.521134
v 0.6808707 0.07695007 1.354843
v 0.72 0 1.348907
v 0.5583861 0.07695007 1.521134
v 0.3920957 0.07695007 1.39865
v 0.5145789 0.07695007 1.232358
v 0.6808707 0.07695007 1.354843
v 0.3920957 0.07695007 1.39865
v 0.3529651 0 1.404586
v 0.5086441 0 1.193229
v 0.5145789 0.07695007 1.232358
v 0.72 0 1.348907
v 0.6808707 0.07695007 1.354843
v 0.5145789 0.07695007 1.232358
v 0.5086441 0 1.193229
v 0.3529651 0 1.404586
v 0.3920957 0.07695007 1.39865
v 0.5583861 0.07695007 1.521134
v 0.5643224 0 1.560264
v 0.8661943 0 -1.443985
v 0.8130688 0.1204983 -1.406012
v 0.5505593 0.1204983 -1.497498
v 0.5325418 0 -1.560264
v 0.8130688 0.1204983 -1.406012
v 0.7648587 0.1204983 -1.105005
v 0.3728704 0.1204983 -1.141011
v 0.5505593 0.1204983 -1.497498
v 0.7648587 0.1204983 -1.105005
v 0.8130952 0 -1.04701
v 0.3148763 0 -1.092774
v 0.3728704 0.1204983 -1.141011
v 0.5325418 0 -1.560264
v 0.5505593 0.1204983 -1.497498
v 0.3728704 0.1204983 -1.141011
v 0.3148763 0 -1.092774
v 0.8130952 0 -1.04701
v 0.7648587 0.1204983 -1.105005
v 0.8130688 0.1204983 -1.406012
v 0.8661943 0 -1.443985

vn 0.1179975 0.3417851 0.9323409
vn 0.1179975 0.3417851 0.9323409
vn 0.1179975 0.3417851 0.9323409
vn 0.1179975 0.3417851 0.9323409
vn 0 1 0
vn 0 1 0
vn 0 1 0
vn 0 1 0
vn -0.339519 0.3417861 -0.8763042
vn -0.339519 0.3417861 -0.8763042
vn -0.339519 0.3417861 -0.8763042
vn -0.339519 0.3417861 -0.8763042
vn 0.9688843 0.2471489 -0.01343524
vn 0.9688843 0.2471489 -0.01343524
vn 0.9688843 0.2471489 -0.01343524
vn 0.9688843 0.2471489 -0.01343524
vn -0.896305 0.3318474 0.2941339
vn -0.896305 0.3318474 0.2941339
vn -0.896305 0.3318474 0.2941339
vn -0.896305 0.3318474 0.2941339
vn 0.2564907 0.3417874 0.9040983
vn 0.2564907 0.3417874 0.9040983
vn 0.2564907 0.3417874 0.9040983
vn 0.2564907 0.3417874 0.9040983
vn 0 1 0
vn 0 1 0
vn 0 1 0
vn 0 1 0
vn -0.2564906 0.3417879 -0.9040982
vn -0.2564906 0.3417879 -0.9040982
vn -0.2564906 0.3417879 -0.9040982
vn -0.2564906 0.3417879 -0.9040982
vn 0.9040997 0.3417833 -0.2564917
vn 0.9040997 0.3417833 -0.2564917
vn 0.9040997 0.3417833 -0.2564917
vn 0.9040997 0.3417833 -0.2564917
vn -0.9040996 0.3417833 0.2564916
vn -0.9040996 0.3417833 0.2564916
vn -0.9040996 0.3417833 0.2564916
vn -0.9040996 0.3417833 0.2564916
vn 0.706248 0.3417855 0.619997
vn 0.706248 0.3417855 0.619997
vn 0.706248 0.3417855 0.619997
vn 0.706248 0.3417855 0.619997
vn 0 1 0
vn 0 1 0
vn 0 1 0
vn 0 1 0
vn -0.7062484 0.3417844 -0.6199973
vn -0.7062484 0.3417844 -0.6199973
vn -0.7062484 0.3417844 -0.6199973
vn -0.7062484 0.3417844 -0.6199973
vn 0.6199979 0.3417861 -0.706247
vn 0.6199979 0.3417861 -0.706247
vn 0.6199979 0.3417861 -0.706247
vn 0.6199979 0.3417861 -0.706247
vn -0.6199989 0.3417822 0.706248
vn -0.6199989 0.3417822 0.706248
vn -0.6199989 0.3417822 0.706248
vn -0.6199989 0.3417822 0.706248
vn 0.3736581 0.4047743 -0.8345882
vn 0.3736581 0.4047743 -0.8345882
vn 0.3736581 0.4047743 -0.8345882
vn 0.3736581 0.4047743 -0.8345882
vn 0 1 0
vn 0 1 0
vn 0 1 0
vn 0 1 0
vn -0.161194 0.4047746 0.9000967
vn -0.161194 0.4047746 0.9000967
vn -0.161194 0.4047746 0.9000967
vn -0.161194 0.4047746 0.9000967
vn -0.822571 0.2964885 -0.4852539
vn -0.822571 0.2964885 -0.4852539
vn -0.822571 0.2964885 -0.4852539
vn -0.822571 0.2964885 -0.4852539
vn 0.8951239 0.3936047 0.2093527
vn 0.8951239 0.3936047 0.2093527
vn 0.8951239 0.3936047 0.2093527
vn 0.8951239 0.3936047 0.2093527

vt 0.328125 0.06378174
vt 0.328125 0.06378174
vt 0.328125 0.06378174
vt 0.328125 0.06378174
vt 0.3586426 0.06378174
vt 0.3586426 0.06378174
vt 0.3586426 0.06378174
vt 0.3586426 0.06378174
vt 0.328125 0.06378174
vt 0.328125 0.06378174
vt 0.328125 0.06378174
vt 0.328125 0.06378174
vt 0.2983398 0.06378174
vt 0.2983398 0.06378174
vt 0.2983398 0.06378174
vt 0.2983398 0.06378174
vt 0.2983398 0.06378174
vt 0.2983398 0.06378174
vt 0.2983398 0.06378174
vt 0.2983398 0.06378174
vt 0.328125 0.06378174
vt 0.328125 0.06378174
vt 0.328125 0.06378174
vt 0.328125 0.06378174
vt 0.3586426 0.06378174
vt 0.3586426 0.06378174
vt 0.3586426 0.06378174
vt 0.3586426 0.06378174
vt 0.328125 0.06378174
vt 0.328125 0.06378174
vt 0.328125 0.06378174
vt 0.328125 0.06378174
vt 0.2983398 0.06378174
vt 0.2983398 0.06378174
vt 0.2983398 0.06378174
vt 0.2983398 0.06378174
vt 0.2983398 0.06378174
vt 0.2983398 0.06378174
vt 0.2983398 0.06378174
vt 0.2983398 0.06378174
vt 0.328125 0.06378174
vt 0.328125 0.06378174
vt 0.328125 0.06378174
vt 0.328125 0.06378174
vt 0.3586426 0.06378174
vt 0.3586426 0.06378174
vt 0.3586426 0.06378174
vt 0.3586426 0.06378174
vt 0.328125 0.06378174
vt 0.328125 0.06378174
vt 0.328125 0.06378174
vt 0.328125 0.06378174
vt 0.2983398 0.06378174
vt 0.2983398 0.06378174
vt 0.2983398 0.06378174
vt 0.2983398 0.06378174
vt 0.2983398 0.06378174
vt 0.2983398 0.06378174
vt 0.2983398 0.06378174
vt 0.2983398 0.06378174
vt 0.328125 0.06378174
vt 0.328125 0.06378174
vt 0.328125 0.06378174
vt 0.328125 0.06378174
vt 0.3586426 0.06378174
vt 0.3586426 0.06378174
vt 0.3586426 0.06378174
vt 0.3586426 0.06378174
vt 0.328125 0.06378174
vt 0.328125 0.06378174
vt 0.328125 0.06378174
vt 0.328125 0.06378174
vt 0.2983398 0.06378174
vt 0.2983398 0.06378174
vt 0.2983398 0.06378174
vt 0.2983398 0.06378174
vt 0.2983398 0.06378174
vt 0.2983398 0.06378174
vt 0.2983398 0.06378174
vt 0.2983398 0.06378174

g SD_Prop_Rubble_05_2638_113
usemtl SD_Prop_Rubble_05_2638_113
usemap SD_Prop_Rubble_05_2638_113
f 1/1/1 3/3/3 2/2/2
f 1/1/1 4/4/4 3/3/3
f 5/5/5 7/7/7 6/6/6
f 5/5/5 8/8/8 7/7/7
f 9/9/9 11/11/11 10/10/10
f 9/9/9 12/12/12 11/11/11
f 13/13/13 15/15/15 14/14/14
f 13/13/13 16/16/16 15/15/15
f 17/17/17 19/19/19 18/18/18
f 17/17/17 20/20/20 19/19/19
f 21/21/21 23/23/23 22/22/22
f 21/21/21 24/24/24 23/23/23
f 25/25/25 27/27/27 26/26/26
f 25/25/25 28/28/28 27/27/27
f 29/29/29 31/31/31 30/30/30
f 29/29/29 32/32/32 31/31/31
f 33/33/33 35/35/35 34/34/34
f 33/33/33 36/36/36 35/35/35
f 37/37/37 39/39/39 38/38/38
f 37/37/37 40/40/40 39/39/39
f 41/41/41 43/43/43 42/42/42
f 41/41/41 44/44/44 43/43/43
f 45/45/45 47/47/47 46/46/46
f 45/45/45 48/48/48 47/47/47
f 49/49/49 51/51/51 50/50/50
f 49/49/49 52/52/52 51/51/51
f 53/53/53 55/55/55 54/54/54
f 53/53/53 56/56/56 55/55/55
f 57/57/57 59/59/59 58/58/58
f 57/57/57 60/60/60 59/59/59
f 61/61/61 63/63/63 62/62/62
f 61/61/61 64/64/64 63/63/63
f 65/65/65 67/67/67 66/66/66
f 65/65/65 68/68/68 67/67/67
f 69/69/69 71/71/71 70/70/70
f 69/69/69 72/72/72 71/71/71
f 73/73/73 75/75/75 74/74/74
f 73/73/73 76/76/76 75/75/75
f 77/77/77 79/79/79 78/78/78
f 77/77/77 80/80/80 79/79/79
