#SD_Prop_Pot_Large_07_2859_23.obj

v -0.2681609 1.533778 0.2681598
v -0.2681609 1.657656 0.2681598
v 0.2681552 1.657656 0.2681599
v 0.2681552 1.533778 0.2681599
v -0.1037166 1.533 0.1037082
v -0.1037168 1.533 -0.1037197
v 0.1037115 1.533 -0.1037197
v 0.1037111 1.533 0.1037083
v -0.2681609 1.657656 -0.2681714
v -0.2681609 1.533778 -0.2681714
v 0.2681552 1.533778 -0.2681713
v 0.2681552 1.657656 -0.2681713
v -0.2190736 0.01475935 -0.2190916
v -0.2190734 0.01475936 0.2190799
v 0.2190679 0.01475938 0.2190799
v 0.2190678 0.01475937 -0.2190915
v 0.2681552 1.533778 0.2681599
v 0.2681552 1.657656 0.2681599
v 0.2681552 1.657656 -0.2681713
v 0.2681552 1.533778 -0.2681713
v -0.2681609 1.533778 -0.2681714
v -0.2681609 1.657656 -0.2681714
v -0.2681609 1.657656 0.2681598
v -0.2681609 1.533778 0.2681598
v -0.2681609 1.657656 0.2681598
v -0.1508666 1.657656 0.1508579
v 0.1508605 1.657656 0.150858
v 0.2681552 1.657656 0.2681599
v 0.1508608 1.657656 -0.1508694
v 0.2681552 1.657656 -0.2681713
v -0.1508663 1.657656 -0.1508694
v -0.2681609 1.657656 -0.2681714
v -0.1508666 1.657656 0.1508579
v -0.1037166 1.533 0.1037082
v 0.1037111 1.533 0.1037083
v 0.1508605 1.657656 0.150858
v 0.1508605 1.657656 0.150858
v 0.1037111 1.533 0.1037083
v 0.1037115 1.533 -0.1037197
v 0.1508608 1.657656 -0.1508694
v 0.1508608 1.657656 -0.1508694
v 0.1037115 1.533 -0.1037197
v -0.1037168 1.533 -0.1037197
v -0.1508663 1.657656 -0.1508694
v -0.1508663 1.657656 -0.1508694
v -0.1037168 1.533 -0.1037197
v -0.1037166 1.533 0.1037082
v -0.1508666 1.657656 0.1508579
v -0.4605591 1.170691 -0.4605542
v -0.2047912 1.350552 -0.2048093
v -0.2047912 1.350552 0.2047977
v -0.4605592 1.170691 0.4605426
v -0.4605592 1.170691 0.4605426
v -0.2047912 1.350552 0.2047977
v 0.204816 1.350552 0.2047978
v 0.4605533 1.170691 0.4605427
v 0.4605533 1.170691 0.4605427
v 0.204816 1.350552 0.2047978
v 0.204816 1.350552 -0.2048092
v 0.4605535 1.170691 -0.4605542
v -0.2047912 1.350552 -0.2048093
v -0.4605591 1.170691 -0.4605542
v 0.4605535 1.170691 -0.4605542
v 0.204816 1.350552 -0.2048092
v -0.36185 0.2141752 -0.3618452
v -0.4605591 1.007764 -0.4605542
v -0.4605592 1.007764 0.4605426
v -0.3618498 0.2141752 0.3618335
v -0.3618498 0.2141752 0.3618335
v -0.4605592 1.007764 0.4605426
v 0.4605534 1.007764 0.4605427
v 0.3618444 0.2141752 0.3618336
v 0.3618444 0.2141752 0.3618336
v 0.4605534 1.007764 0.4605427
v 0.4605535 1.007764 -0.4605542
v 0.3618441 0.2141752 -0.3618451
v -0.4605591 1.007764 -0.4605542
v -0.36185 0.2141752 -0.3618452
v 0.3618441 0.2141752 -0.3618451
v 0.4605535 1.007764 -0.4605542
v -0.2190736 0.01475935 -0.2190916
v -0.36185 0.2141752 -0.3618452
v -0.3618498 0.2141752 0.3618335
v -0.2190734 0.01475936 0.2190799
v -0.2190734 0.01475936 0.2190799
v -0.3618498 0.2141752 0.3618335
v 0.3618444 0.2141752 0.3618336
v 0.2190679 0.01475938 0.2190799
v 0.2190679 0.01475938 0.2190799
v 0.3618444 0.2141752 0.3618336
v 0.3618441 0.2141752 -0.3618451
v 0.2190678 0.01475937 -0.2190915
v -0.36185 0.2141752 -0.3618452
v -0.2190736 0.01475935 -0.2190916
v 0.2190678 0.01475937 -0.2190915
v 0.3618441 0.2141752 -0.3618451
v -0.2047912 1.350552 0.2047977
v -0.2681609 1.533778 0.2681598
v 0.2681552 1.533778 0.2681599
v 0.204816 1.350552 0.2047978
v -0.2047912 1.350552 -0.2048093
v -0.2681609 1.533778 -0.2681714
v -0.2681609 1.533778 0.2681598
v -0.2047912 1.350552 0.2047977
v -0.2681609 1.533778 -0.2681714
v -0.2047912 1.350552 -0.2048093
v 0.204816 1.350552 -0.2048092
v 0.2681552 1.533778 -0.2681713
v 0.204816 1.350552 0.2047978
v 0.2681552 1.533778 0.2681599
v 0.2681552 1.533778 -0.2681713
v 0.204816 1.350552 -0.2048092
v -0.4605591 1.007764 -0.4605542
v -0.4605591 1.170691 -0.4605542
v -0.4605592 1.170691 0.4605426
v -0.4605592 1.007764 0.4605426
v -0.4605591 1.170691 -0.4605542
v -0.4605591 1.007764 -0.4605542
v 0.4605535 1.007764 -0.4605542
v 0.4605535 1.170691 -0.4605542
v 0.4605534 1.007764 0.4605427
v 0.4605533 1.170691 0.4605427
v 0.4605535 1.170691 -0.4605542
v 0.4605535 1.007764 -0.4605542
v -0.4605592 1.007764 0.4605426
v -0.4605592 1.170691 0.4605426
v 0.4605533 1.170691 0.4605427
v 0.4605534 1.007764 0.4605427

vn 0.01225599 2.854301E-08 0.9999247
vn 0.01225599 2.854301E-08 0.9999247
vn 0.01225599 2.854301E-08 0.9999247
vn 0.01225599 2.854301E-08 0.9999247
vn 1.88798E-08 0.9999998 7.303281E-08
vn 1.88798E-08 0.9999998 7.303281E-08
vn 1.88798E-08 0.9999998 7.303281E-08
vn 1.88798E-08 0.9999998 7.303281E-08
vn -0.01225599 -2.854301E-08 -0.9999247
vn -0.01225599 -2.854301E-08 -0.9999247
vn -0.01225599 -2.854301E-08 -0.9999247
vn -0.01225599 -2.854301E-08 -0.9999247
vn -1.88798E-08 -0.9999998 -7.303281E-08
vn -1.88798E-08 -0.9999998 -7.303281E-08
vn -1.88798E-08 -0.9999998 -7.303281E-08
vn -1.88798E-08 -0.9999998 -7.303281E-08
vn 0.9999248 -1.932315E-08 -0.01225596
vn 0.9999248 -1.932315E-08 -0.01225596
vn 0.9999248 -1.932315E-08 -0.01225596
vn 0.9999248 -1.932315E-08 -0.01225596
vn -0.9999248 1.932315E-08 0.01225596
vn -0.9999248 1.932315E-08 0.01225596
vn -0.9999248 1.932315E-08 0.01225596
vn -0.9999248 1.932315E-08 0.01225596
vn 1.88798E-08 0.9999998 7.303281E-08
vn 1.88798E-08 0.9999998 7.303281E-08
vn 1.88798E-08 0.9999998 7.303281E-08
vn 1.88798E-08 0.9999998 7.303281E-08
vn 1.88798E-08 0.9999998 7.303281E-08
vn 1.88798E-08 0.9999998 7.303281E-08
vn 1.88798E-08 0.9999998 7.303281E-08
vn 1.88798E-08 0.9999998 7.303281E-08
vn -0.01146343 0.3537677 -0.9352629
vn -0.01146343 0.3537676 -0.9352629
vn -0.01146343 0.3537676 -0.9352629
vn -0.01146343 0.3537677 -0.9352629
vn -0.9352309 0.3538525 0.01146304
vn -0.9352309 0.3538525 0.01146304
vn -0.9352309 0.3538525 0.01146304
vn -0.9352309 0.3538525 0.01146304
vn 0.01146345 0.3537677 0.9352629
vn 0.01146345 0.3537677 0.9352629
vn 0.01146345 0.3537677 0.9352629
vn 0.01146345 0.3537677 0.9352629
vn 0.9352132 0.3538994 -0.01146277
vn 0.9352132 0.3538994 -0.01146277
vn 0.9352132 0.3538994 -0.01146277
vn 0.9352132 0.3538994 -0.01146277
vn -0.5751196 0.8180388 0.007049235
vn -0.5751196 0.8180388 0.007049235
vn -0.5751197 0.8180388 0.007049235
vn -0.5751196 0.8180388 0.007049235
vn 0.007050593 0.8179593 0.5752326
vn 0.007050592 0.8179593 0.5752326
vn 0.007050592 0.8179594 0.5752325
vn 0.007050592 0.8179593 0.5752326
vn 0.5752184 0.8179693 -0.007050327
vn 0.5752184 0.8179693 -0.007050327
vn 0.5752184 0.8179693 -0.007050327
vn 0.5752184 0.8179693 -0.007050327
vn -0.007050558 0.8179595 -0.5752321
vn -0.007050559 0.8179595 -0.5752322
vn -0.007050558 0.8179595 -0.5752321
vn -0.007050559 0.8179595 -0.5752322
vn -0.9999248 1.932315E-08 0.01225596
vn -0.9950065 -0.09906073 0.01219567
vn -0.9950065 -0.09906074 0.01219567
vn -0.9999248 1.932315E-08 0.01225596
vn 0.01225599 2.854301E-08 0.9999247
vn 0.01219571 -0.0990608 0.9950064
vn 0.01219571 -0.0990608 0.9950064
vn 0.01225599 2.854301E-08 0.9999247
vn 0.9999248 -1.932315E-08 -0.01225596
vn 0.9950065 -0.09906079 -0.01219569
vn 0.9950065 -0.09906077 -0.01219569
vn 0.9999248 -1.932315E-08 -0.01225596
vn -0.01219571 -0.09906086 -0.9950064
vn -0.01225599 -2.854301E-08 -0.9999247
vn -0.01225599 -2.854301E-08 -0.9999247
vn -0.01219571 -0.09906086 -0.9950064
vn -0.7391704 -0.6734574 0.009059877
vn -0.7391704 -0.6734574 0.009059877
vn -0.7391704 -0.6734574 0.009059877
vn -0.7391704 -0.6734574 0.009059877
vn 0.009059444 -0.6735013 0.7391301
vn 0.009059445 -0.6735012 0.7391302
vn 0.009059445 -0.6735012 0.7391302
vn 0.009059444 -0.6735013 0.7391301
vn 0.7391704 -0.6734574 -0.009059976
vn 0.7391704 -0.6734574 -0.009059976
vn 0.7391704 -0.6734574 -0.009059976
vn 0.7391704 -0.6734574 -0.009059976
vn -0.009059471 -0.6735012 -0.7391303
vn -0.00905947 -0.6735013 -0.7391303
vn -0.00905947 -0.6735013 -0.7391303
vn -0.009059471 -0.6735012 -0.7391303
vn 0.01158303 -0.3268062 0.9450201
vn 0.01158303 -0.3268063 0.9450201
vn 0.01158303 -0.3268063 0.9450201
vn 0.01158303 -0.3268062 0.9450201
vn -0.9449385 -0.3270425 0.01158198
vn -0.9449385 -0.3270425 0.01158198
vn -0.9449385 -0.3270425 0.01158198
vn -0.9449385 -0.3270425 0.01158198
vn -0.01158304 -0.3268061 -0.9450201
vn -0.01158304 -0.3268061 -0.9450201
vn -0.01158304 -0.3268061 -0.9450201
vn -0.01158304 -0.3268061 -0.9450201
vn 0.945098 -0.3265813 -0.01158398
vn 0.945098 -0.3265813 -0.01158398
vn 0.945098 -0.3265813 -0.01158398
vn 0.945098 -0.3265812 -0.01158398
vn -0.9950065 -0.09906073 0.01219567
vn -0.9999248 1.932315E-08 0.01225596
vn -0.9999248 1.932315E-08 0.01225596
vn -0.9950065 -0.09906074 0.01219567
vn -0.01225599 -2.854301E-08 -0.9999247
vn -0.01219571 -0.09906086 -0.9950064
vn -0.01219571 -0.09906086 -0.9950064
vn -0.01225599 -2.854301E-08 -0.9999247
vn 0.9950065 -0.09906079 -0.01219569
vn 0.9999248 -1.932315E-08 -0.01225596
vn 0.9999248 -1.932315E-08 -0.01225596
vn 0.9950065 -0.09906077 -0.01219569
vn 0.01219571 -0.0990608 0.9950064
vn 0.01225599 2.854301E-08 0.9999247
vn 0.01225599 2.854301E-08 0.9999247
vn 0.01219571 -0.0990608 0.9950064

vt 0.6401367 0.4289551
vt 0.6401367 0.4289551
vt 0.6401367 0.4289551
vt 0.6401367 0.4289551
vt 0.5488281 0.4289551
vt 0.5488281 0.4289551
vt 0.5488281 0.4289551
vt 0.5488281 0.4289551
vt 0.6401367 0.4289551
vt 0.6401367 0.4289551
vt 0.6401367 0.4289551
vt 0.6401367 0.4289551
vt 0.5751953 0.4289551
vt 0.5751953 0.4289551
vt 0.5751953 0.4289551
vt 0.5751953 0.4289551
vt 0.6083984 0.4289551
vt 0.6083984 0.4289551
vt 0.6083984 0.4289551
vt 0.6083984 0.4289551
vt 0.6083984 0.4289551
vt 0.6083984 0.4289551
vt 0.6083984 0.4289551
vt 0.6083984 0.4289551
vt 0.671875 0.4289551
vt 0.671875 0.4289551
vt 0.671875 0.4289551
vt 0.671875 0.4289551
vt 0.671875 0.4289551
vt 0.671875 0.4289551
vt 0.671875 0.4289551
vt 0.671875 0.4289551
vt 0.6430664 0.4289551
vt 0.6430664 0.4289551
vt 0.6430664 0.4289551
vt 0.6430664 0.4289551
vt 0.6157227 0.4289551
vt 0.6157227 0.4289551
vt 0.6157227 0.4289551
vt 0.6157227 0.4289551
vt 0.6430664 0.4289551
vt 0.6430664 0.4289551
vt 0.6430664 0.4289551
vt 0.6430664 0.4289551
vt 0.6157227 0.4289551
vt 0.6157227 0.4289551
vt 0.6157227 0.4289551
vt 0.6157227 0.4289551
vt 0.6459961 0.4289551
vt 0.6459961 0.4289551
vt 0.6459961 0.4289551
vt 0.6459961 0.4289551
vt 0.6777344 0.4289551
vt 0.6777344 0.4289551
vt 0.6777344 0.4289551
vt 0.6777344 0.4289551
vt 0.6459961 0.4289551
vt 0.6459961 0.4289551
vt 0.6459961 0.4289551
vt 0.6459961 0.4289551
vt 0.6777344 0.4289551
vt 0.6777344 0.4289551
vt 0.6777344 0.4289551
vt 0.6777344 0.4289551
vt 0.6083984 0.4289551
vt 0.6083984 0.4289551
vt 0.6083984 0.4289551
vt 0.6083984 0.4289551
vt 0.6401367 0.4289551
vt 0.6401367 0.4289551
vt 0.6401367 0.4289551
vt 0.6401367 0.4289551
vt 0.6083984 0.4289551
vt 0.6083984 0.4289551
vt 0.6083984 0.4289551
vt 0.6083984 0.4289551
vt 0.6401367 0.4289551
vt 0.6401367 0.4289551
vt 0.6401367 0.4289551
vt 0.6401367 0.4289551
vt 0.5766602 0.4289551
vt 0.5766602 0.4289551
vt 0.5766602 0.4289551
vt 0.5766602 0.4289551
vt 0.6083984 0.4289551
vt 0.6083984 0.4289551
vt 0.6083984 0.4289551
vt 0.6083984 0.4289551
vt 0.5766602 0.4289551
vt 0.5766602 0.4289551
vt 0.5766602 0.4289551
vt 0.5766602 0.4289551
vt 0.6083984 0.4289551
vt 0.6083984 0.4289551
vt 0.6083984 0.4289551
vt 0.6083984 0.4289551
vt 0.6142578 0.4289551
vt 0.6142578 0.4289551
vt 0.6142578 0.4289551
vt 0.6142578 0.4289551
vt 0.5820313 0.4289551
vt 0.5820313 0.4289551
vt 0.5820313 0.4289551
vt 0.5820313 0.4289551
vt 0.6142578 0.4289551
vt 0.6142578 0.4289551
vt 0.6142578 0.4289551
vt 0.6142578 0.4289551
vt 0.5820313 0.4289551
vt 0.5820313 0.4289551
vt 0.5820313 0.4289551
vt 0.5820313 0.4289551
vt 0.6083984 0.4042969
vt 0.6083984 0.4042969
vt 0.6083984 0.4042969
vt 0.6083984 0.4042969
vt 0.6401367 0.4042969
vt 0.6401367 0.4042969
vt 0.6401367 0.4042969
vt 0.6401367 0.4042969
vt 0.6083984 0.4042969
vt 0.6083984 0.4042969
vt 0.6083984 0.4042969
vt 0.6083984 0.4042969
vt 0.6401367 0.4042969
vt 0.6401367 0.4042969
vt 0.6401367 0.4042969
vt 0.6401367 0.4042969

g SD_Prop_Pot_Large_07_2859_23
usemtl SD_Prop_Pot_Large_07_2859_23
usemap SD_Prop_Pot_Large_07_2859_23
f 1/1/1 3/3/3 2/2/2
f 1/1/1 4/4/4 3/3/3
f 5/5/5 7/7/7 6/6/6
f 5/5/5 8/8/8 7/7/7
f 9/9/9 11/11/11 10/10/10
f 9/9/9 12/12/12 11/11/11
f 13/13/13 15/15/15 14/14/14
f 13/13/13 16/16/16 15/15/15
f 17/17/17 19/19/19 18/18/18
f 17/17/17 20/20/20 19/19/19
f 21/21/21 23/23/23 22/22/22
f 21/21/21 24/24/24 23/23/23
f 25/25/25 27/27/27 26/26/26
f 25/25/25 28/28/28 27/27/27
f 28/28/28 29/29/29 27/27/27
f 28/28/28 30/30/30 29/29/29
f 30/30/30 31/31/31 29/29/29
f 30/30/30 32/32/32 31/31/31
f 32/32/32 26/26/26 31/31/31
f 32/32/32 25/25/25 26/26/26
f 33/33/33 35/35/35 34/34/34
f 33/33/33 36/36/36 35/35/35
f 37/37/37 39/39/39 38/38/38
f 37/37/37 40/40/40 39/39/39
f 41/41/41 43/43/43 42/42/42
f 41/41/41 44/44/44 43/43/43
f 45/45/45 47/47/47 46/46/46
f 45/45/45 48/48/48 47/47/47
f 49/49/49 51/51/51 50/50/50
f 49/49/49 52/52/52 51/51/51
f 53/53/53 55/55/55 54/54/54
f 53/53/53 56/56/56 55/55/55
f 57/57/57 59/59/59 58/58/58
f 57/57/57 60/60/60 59/59/59
f 61/61/61 63/63/63 62/62/62
f 61/61/61 64/64/64 63/63/63
f 65/65/65 67/67/67 66/66/66
f 65/65/65 68/68/68 67/67/67
f 69/69/69 71/71/71 70/70/70
f 69/69/69 72/72/72 71/71/71
f 73/73/73 75/75/75 74/74/74
f 73/73/73 76/76/76 75/75/75
f 77/77/77 79/79/79 78/78/78
f 77/77/77 80/80/80 79/79/79
f 81/81/81 83/83/83 82/82/82
f 81/81/81 84/84/84 83/83/83
f 85/85/85 87/87/87 86/86/86
f 85/85/85 88/88/88 87/87/87
f 89/89/89 91/91/91 90/90/90
f 89/89/89 92/92/92 91/91/91
f 93/93/93 95/95/95 94/94/94
f 93/93/93 96/96/96 95/95/95
f 97/97/97 99/99/99 98/98/98
f 97/97/97 100/100/100 99/99/99
f 101/101/101 103/103/103 102/102/102
f 101/101/101 104/104/104 103/103/103
f 105/105/105 107/107/107 106/106/106
f 105/105/105 108/108/108 107/107/107
f 109/109/109 111/111/111 110/110/110
f 109/109/109 112/112/112 111/111/111
f 113/113/113 115/115/115 114/114/114
f 113/113/113 116/116/116 115/115/115
f 117/117/117 119/119/119 118/118/118
f 117/117/117 120/120/120 119/119/119
f 121/121/121 123/123/123 122/122/122
f 121/121/121 124/124/124 123/123/123
f 125/125/125 127/127/127 126/126/126
f 125/125/125 128/128/128 127/127/127
