#SD_Prop_Rug_Red_Small_01_2702_106.obj

v -2.206133 0 1.313908
v -2.206133 0.02030325 1.313908
v 2.20613 0.02030325 1.313918
v 2.20613 0 1.313918
v 1.130874 0.02030325 0.3748958
v -1.130877 0.02030325 0.3748983
v -1.130877 0.02030325 -0.3749007
v 1.130874 0.02030325 -0.3749031
v 2.20613 0.02030325 -1.313923
v -2.206131 0.02030325 -1.313923
v -2.206131 0 -1.313923
v 2.20613 0 -1.313923
v 2.20613 0.02030325 1.313918
v 1.873061 0.02030325 1.009207
v 1.87306 0.02030325 -1.009227
v 2.20613 0.02030325 -1.313923
v -2.206131 0.02030325 -1.313923
v -1.873064 0.02030325 -1.009227
v -1.873064 0.02030325 1.009207
v -2.206133 0.02030325 1.313908
v 1.873061 0.02030325 1.009207
v 1.358199 0.02030325 0.5854098
v 1.358198 0.02030325 -0.5854211
v 1.87306 0.02030325 -1.009227
v -1.873064 0.02030325 -1.009227
v -1.358202 0.02030325 -0.5854198
v -1.358202 0.02030325 0.5854061
v -1.873064 0.02030325 1.009207
v 1.358199 0.02030325 0.5854098
v 1.130874 0.02030325 0.3748958
v 1.130874 0.02030325 -0.3749031
v 1.358198 0.02030325 -0.5854211
v -1.358202 0.02030325 -0.5854198
v -1.130877 0.02030325 -0.3749007
v -1.130877 0.02030325 0.3748983
v -1.358202 0.02030325 0.5854061
v -2.206133 0 1.313908
v -2.206131 0 -1.313923
v -2.206131 0.02030325 -1.313923
v -2.206133 0.02030325 1.313908
v 2.20613 0.02030325 1.313918
v 2.20613 0.02030325 -1.313923
v 2.20613 0 -1.313923
v 2.20613 0 1.313918

vn -0.0727368 0 0.9973512
vn -0.0727368 0 0.9973512
vn -0.0727368 0 0.9973512
vn -0.0727368 0 0.9973512
vn 0 1 0
vn 0 1 0
vn 0 1 0
vn 0 1 0
vn 0.0727368 0 -0.9973512
vn 0.0727368 0 -0.9973512
vn 0.0727368 0 -0.9973512
vn 0.0727368 0 -0.9973512
vn 0 1 0
vn 0 1 0
vn 0 1 0
vn 0 1 0
vn 0 1 0
vn 0 1 0
vn 0 1 0
vn 0 1 0
vn 0 1 0
vn 0 1 0
vn 0 1 0
vn 0 1 0
vn 0 1 0
vn 0 1 0
vn 0 1 0
vn 0 1 0
vn 0 1 0
vn 0 1 0
vn 0 1 0
vn 0 1 0
vn 0 1 0
vn 0 1 0
vn 0 1 0
vn 0 1 0
vn -0.9973512 0 -0.0727368
vn -0.9973512 0 -0.0727368
vn -0.9973512 0 -0.0727368
vn -0.9973512 0 -0.0727368
vn 0.9973512 0 0.0727368
vn 0.9973512 0 0.0727368
vn 0.9973512 0 0.0727368
vn 0.9973512 0 0.0727368

vt 0.3825684 0.5839844
vt 0.3825684 0.5839844
vt 0.3825684 0.5839844
vt 0.3825684 0.5839844
vt 0.4836426 0.5839844
vt 0.4836426 0.5839844
vt 0.4836426 0.5839844
vt 0.4836426 0.5839844
vt 0.3825684 0.5839844
vt 0.3825684 0.5839844
vt 0.3825684 0.5839844
vt 0.3825684 0.5839844
vt 0.4194336 0.5839844
vt 0.4194336 0.5839844
vt 0.4194336 0.5839844
vt 0.4194336 0.5839844
vt 0.4194336 0.5839844
vt 0.4194336 0.5839844
vt 0.4194336 0.5839844
vt 0.4194336 0.5839844
vt 0.4836426 0.5839844
vt 0.4836426 0.5839844
vt 0.4836426 0.5839844
vt 0.4836426 0.5839844
vt 0.4836426 0.5839844
vt 0.4836426 0.5839844
vt 0.4836426 0.5839844
vt 0.4836426 0.5839844
vt 0.2056885 0.06439209
vt 0.2056885 0.06439209
vt 0.2056885 0.06439209
vt 0.2056885 0.06439209
vt 0.2056885 0.06439209
vt 0.2056885 0.06439209
vt 0.2056885 0.06439209
vt 0.2056885 0.06439209
vt 0.3537598 0.5820313
vt 0.3537598 0.5820313
vt 0.3537598 0.5820313
vt 0.3537598 0.5820313
vt 0.3537598 0.5820313
vt 0.3537598 0.5820313
vt 0.3537598 0.5820313
vt 0.3537598 0.5820313

g SD_Prop_Rug_Red_Small_01_2702_106
usemtl SD_Prop_Rug_Red_Small_01_2702_106
usemap SD_Prop_Rug_Red_Small_01_2702_106
f 1/1/1 3/3/3 2/2/2
f 1/1/1 4/4/4 3/3/3
f 5/5/5 7/7/7 6/6/6
f 5/5/5 8/8/8 7/7/7
f 9/9/9 11/11/11 10/10/10
f 9/9/9 12/12/12 11/11/11
f 13/13/13 15/15/15 14/14/14
f 13/13/13 16/16/16 15/15/15
f 15/15/15 16/16/16 17/17/17
f 15/15/15 17/17/17 18/18/18
f 17/17/17 19/19/19 18/18/18
f 17/17/17 20/20/20 19/19/19
f 14/14/14 20/20/20 13/13/13
f 14/14/14 19/19/19 20/20/20
f 21/21/21 23/23/23 22/22/22
f 21/21/21 24/24/24 23/23/23
f 23/23/23 24/24/24 25/25/25
f 23/23/23 25/25/25 26/26/26
f 25/25/25 27/27/27 26/26/26
f 25/25/25 28/28/28 27/27/27
f 22/22/22 28/28/28 21/21/21
f 22/22/22 27/27/27 28/28/28
f 29/29/29 31/31/31 30/30/30
f 29/29/29 32/32/32 31/31/31
f 31/31/31 32/32/32 33/33/33
f 31/31/31 33/33/33 34/34/34
f 33/33/33 35/35/35 34/34/34
f 33/33/33 36/36/36 35/35/35
f 30/30/30 36/36/36 29/29/29
f 30/30/30 35/35/35 36/36/36
f 37/37/37 39/39/39 38/38/38
f 37/37/37 40/40/40 39/39/39
f 41/41/41 43/43/43 42/42/42
f 41/41/41 44/44/44 43/43/43
