#SD_Trap_BuzzSaw_02_2826_373.obj

v -4.460357 0.02226321 0.1141233
v -4.460357 0.02226321 -0.1239215
v 4.460333 0.02226321 -0.123923
v 4.460333 0.02226321 0.1141217
v -4.67667 -1.719594 0.2961557
v -4.67667 0.2041391 0.2961557
v 4.676642 0.2041391 0.2961564
v 4.676642 -1.719594 0.2961564
v 4.676642 -1.719594 0.2961564
v 4.676642 0.2041391 0.2961564
v 4.676642 0.2041391 -0.3059554
v 4.676642 -1.719594 -0.3059554
v 4.676642 -1.719594 -0.3059554
v 4.676642 0.2041391 -0.3059554
v -4.676671 0.2041391 -0.3059562
v -4.676671 -1.719594 -0.3059562
v -4.676671 -1.719594 -0.3059562
v -4.676671 0.2041391 -0.3059562
v -4.67667 0.2041391 0.2961557
v -4.67667 -1.719594 0.2961557
v -4.67667 0.2041391 0.2961557
v -4.460357 0.2041391 0.1141233
v 4.460333 0.2041391 0.1141217
v 4.676642 0.2041391 0.2961564
v 4.460333 0.2041391 -0.123923
v 4.676642 0.2041391 -0.3059554
v -4.460357 0.2041391 -0.1239215
v -4.676671 0.2041391 -0.3059562
v -4.460357 0.2041391 0.1141233
v -4.460357 0.02226321 0.1141233
v 4.460333 0.02226321 0.1141217
v 4.460333 0.2041391 0.1141217
v 4.460333 0.2041391 0.1141217
v 4.460333 0.02226321 0.1141217
v 4.460333 0.02226321 -0.123923
v 4.460333 0.2041391 -0.123923
v 4.460333 0.2041391 -0.123923
v 4.460333 0.02226321 -0.123923
v -4.460357 0.02226321 -0.1239215
v -4.460357 0.2041391 -0.1239215
v -4.460357 0.2041391 -0.1239215
v -4.460357 0.02226321 -0.1239215
v -4.460357 0.02226321 0.1141233
v -4.460357 0.2041391 0.1141233
v 4.676642 -1.719594 0.2961564
v 4.676642 -1.719594 -0.3059554
v -4.676671 -1.719594 -0.3059562
v -4.67667 -1.719594 0.2961557

vn 0 1 0
vn 0 1 0
vn 0 1 0
vn 0 1 0
vn 1 0 4.172325E-07
vn 1 0 4.172325E-07
vn 1 0 4.172325E-07
vn 1 0 4.172325E-07
vn 4.172325E-07 0 -1
vn 4.172325E-07 0 -1
vn 4.172325E-07 0 -1
vn 4.172325E-07 0 -1
vn -1 0 -4.172325E-07
vn -1 0 -4.172325E-07
vn -1 0 -4.172325E-07
vn -1 0 -4.172325E-07
vn -4.172325E-07 0 1
vn -4.172325E-07 0 1
vn -4.172325E-07 0 1
vn -4.172325E-07 0 1
vn 0 1 0
vn 0 1 0
vn 0 1 0
vn 0 1 0
vn 0 1 0
vn 0 1 0
vn 0 1 0
vn 0 1 0
vn -1 0 -4.172325E-07
vn -1 0 -4.172325E-07
vn -1 0 -4.172325E-07
vn -1 0 -4.172325E-07
vn -4.172325E-07 0 1
vn -4.172325E-07 0 1
vn -4.172325E-07 0 1
vn -4.172325E-07 0 1
vn 1 0 4.172325E-07
vn 1 0 4.172325E-07
vn 1 0 4.172325E-07
vn 1 0 4.172325E-07
vn 4.172325E-07 0 -1
vn 4.172325E-07 0 -1
vn 4.172325E-07 0 -1
vn 4.172325E-07 0 -1
vn 0 -1 0
vn 0 -1 0
vn 0 -1 0
vn 0 -1 0

vt 0.1765137 0.06378174
vt 0.1765137 0.06378174
vt 0.1765137 0.06378174
vt 0.1765137 0.06378174
vt 0.2636719 0.06378174
vt 0.2636719 0.06378174
vt 0.2636719 0.06378174
vt 0.2636719 0.06378174
vt 0.2312012 0.06378174
vt 0.2312012 0.06378174
vt 0.2312012 0.06378174
vt 0.2312012 0.06378174
vt 0.2636719 0.06378174
vt 0.2636719 0.06378174
vt 0.2636719 0.06378174
vt 0.2636719 0.06378174
vt 0.2312012 0.06378174
vt 0.2312012 0.06378174
vt 0.2312012 0.06378174
vt 0.2312012 0.06378174
vt 0.2976074 0.06378174
vt 0.2976074 0.06378174
vt 0.2976074 0.06378174
vt 0.2976074 0.06378174
vt 0.2976074 0.06378174
vt 0.2976074 0.06378174
vt 0.2976074 0.06378174
vt 0.2976074 0.06378174
vt 0.2387695 0.06378174
vt 0.2387695 0.06378174
vt 0.2387695 0.06378174
vt 0.2387695 0.06378174
vt 0.2062988 0.06378174
vt 0.2062988 0.06378174
vt 0.2062988 0.06378174
vt 0.2062988 0.06378174
vt 0.2387695 0.06378174
vt 0.2387695 0.06378174
vt 0.2387695 0.06378174
vt 0.2387695 0.06378174
vt 0.2062988 0.06378174
vt 0.2062988 0.06378174
vt 0.2062988 0.06378174
vt 0.2062988 0.06378174
vt 0.2028809 0.06420898
vt 0.2028809 0.06420898
vt 0.2028809 0.06420898
vt 0.2028809 0.06420898

g SD_Trap_BuzzSaw_02_2826_373
usemtl SD_Trap_BuzzSaw_02_2826_373
usemap SD_Trap_BuzzSaw_02_2826_373
f 1/1/1 3/3/3 2/2/2
f 1/1/1 4/4/4 3/3/3
f 5/5/5 7/7/7 6/6/6
f 5/5/5 8/8/8 7/7/7
f 9/9/9 11/11/11 10/10/10
f 9/9/9 12/12/12 11/11/11
f 13/13/13 15/15/15 14/14/14
f 13/13/13 16/16/16 15/15/15
f 17/17/17 19/19/19 18/18/18
f 17/17/17 20/20/20 19/19/19
f 21/21/21 23/23/23 22/22/22
f 21/21/21 24/24/24 23/23/23
f 24/24/24 25/25/25 23/23/23
f 24/24/24 26/26/26 25/25/25
f 26/26/26 27/27/27 25/25/25
f 26/26/26 28/28/28 27/27/27
f 28/28/28 22/22/22 27/27/27
f 28/28/28 21/21/21 22/22/22
f 29/29/29 31/31/31 30/30/30
f 29/29/29 32/32/32 31/31/31
f 33/33/33 35/35/35 34/34/34
f 33/33/33 36/36/36 35/35/35
f 37/37/37 39/39/39 38/38/38
f 37/37/37 40/40/40 39/39/39
f 41/41/41 43/43/43 42/42/42
f 41/41/41 44/44/44 43/43/43
f 45/45/45 47/47/47 46/46/46
f 45/45/45 48/48/48 47/47/47
