#SF_Env_Tree_014_1610_5.obj

v -0.4929116 20.05084 -0.3609468
v -0.7466976 18.50421 -0.5055094
v 0.7246779 18.46322 -0.5594947
v 0.5220367 20.01859 -0.4021462
v 0.5851206 19.9687 0.4837196
v -0.447052 20.01172 0.5083451
v -0.4929116 20.05084 -0.3609468
v 0.5220367 20.01859 -0.4021462
v -0.6903787 18.43902 0.6607201
v -0.447052 20.01172 0.5083451
v 0.5851206 19.9687 0.4837196
v 0.8030719 18.37491 0.6152809
v -0.7466976 18.50421 -0.5055094
v -0.4929116 20.05084 -0.3609468
v -0.447052 20.01172 0.5083451
v -0.447052 20.01172 0.5083451
v -0.6903787 18.43902 0.6607201
v 0.8030719 18.37491 0.6152809
v 0.5851206 19.9687 0.4837196
v 0.5220367 20.01859 -0.4021462
v 0.7246779 18.46322 -0.5594947
v -1.425482 16.06239 -1.197493
v -1.673648 12.72407 -1.365432
v 1.554399 12.70032 -1.491624
v 1.381804 15.96331 -1.317915
v 1.540365 15.85451 1.250166
v -1.312243 15.98244 1.319353
v -1.425482 16.06239 -1.197493
v -1.425482 16.06239 -1.197493
v 1.381804 15.96331 -1.317915
v 1.554399 12.70032 -1.491624
v -1.673648 12.72407 -1.365432
v -1.560627 12.68407 1.484912
v 1.676195 12.63745 1.36305
v -1.673648 12.72407 -1.365432
v -1.425482 16.06239 -1.197493
v -1.312243 15.98244 1.319353
v -1.560627 12.68407 1.484912
v 1.676195 12.63745 1.36305
v 1.540365 15.85451 1.250166
v 1.381804 15.96331 -1.317915
v 1.554399 12.70032 -1.491624
v 1.540365 15.85451 1.250166
v 1.676195 12.63745 1.36305
v -1.560627 12.68407 1.484912
v -1.312243 15.98244 1.319353
v 1.094717 12.12572 -0.9908915
v 1.453651 12.73656 -1.396957
v -1.376414 12.7493 -1.286485
v -0.9951949 12.12572 -0.9088911
v 1.453651 12.73656 -1.396957
v 1.56576 12.66412 1.198746
v -1.272595 12.6988 1.306046
v -1.376414 12.7493 -1.286485
v 1.56576 12.66412 1.198746
v 1.170633 12.12572 0.938035
v -0.9192786 12.12572 1.019976
v -1.272595 12.6988 1.306046
v 1.170633 12.12572 0.938035
v 1.094717 12.12572 -0.9908915
v -0.9951949 12.12572 -0.9088911
v -0.9192786 12.12572 1.019976
v -0.9951949 12.12572 -0.9088911
v -1.376414 12.7493 -1.286485
v -1.272595 12.6988 1.306046
v -0.9192786 12.12572 1.019976
v 1.170633 12.12572 0.938035
v 1.56576 12.66412 1.198746
v 1.453651 12.73656 -1.396957
v 1.094717 12.12572 -0.9908915
v -1.053076 18.57796 -0.7665541
v -1.276288 15.94393 -0.8742524
v 1.201593 15.90666 -0.9654394
v 1.043 18.49719 -0.8512441
v 1.1673 18.37248 0.8307642
v -0.9641579 18.48016 0.8842949
v -1.053076 18.57796 -0.7665541
v -1.053076 18.57796 -0.7665541
v 1.043 18.49719 -0.8512441
v -1.185315 15.88474 0.9948273
v -0.9641579 18.48016 0.8842949
v 1.1673 18.37248 0.8307642
v 1.329948 15.82648 0.9174645
v -1.276288 15.94393 -0.8742524
v -1.053076 18.57796 -0.7665541
v -0.9641579 18.48016 0.8842949
v -1.185315 15.88474 0.9948273
v 1.329948 15.82648 0.9174645
v 1.1673 18.37248 0.8307642
v 1.043 18.49719 -0.8512441
v 1.201593 15.90666 -0.9654394
v -0.4191607 12.27355 0.2113189
v -0.5038385 12.19485 0.2146463
v -0.5106608 12.19485 0.04860047
v -0.425963 12.27355 0.04524346
v 0.7429851 12.48103 -0.09675556
v 0.8277087 12.40229 -0.1001144
v 0.8340497 12.40229 0.06584062
v 0.749316 12.48103 0.0692291
v 0.3286766 19.97625 -0.2101277
v 0.2413644 21.24416 -0.1422288
v 0.04572949 21.24273 -0.131517
v -0.3063019 19.99665 -0.1868437
v -0.1964334 21.24246 -0.124404
v 0.2413644 21.24416 -0.1422288
v 0.2685014 21.24671 0.2399742
v 0.06935057 21.24501 0.2420205
v 0.04572949 21.24273 -0.131517
v -0.176908 21.24451 0.2506265
v -0.1964334 21.24246 -0.124404
v 0.2685014 21.24671 0.2399742
v 0.3624118 19.93239 0.2966748
v 0.06935057 21.24501 0.2420205
v -0.2822191 19.96423 0.3161771
v -0.176908 21.24451 0.2506265
v -0.3063019 19.99665 -0.1868437
v -0.1964334 21.24246 -0.124404
v -0.176908 21.24451 0.2506265
v -0.176908 21.24451 0.2506265
v -0.2822191 19.96423 0.3161771
v 0.3624118 19.93239 0.2966748
v 0.2685014 21.24671 0.2399742
v 0.2413644 21.24416 -0.1422288
v 0.2413644 21.24416 -0.1422288
v 0.3286766 19.97625 -0.2101277
v 0.4628207 0 0.3813017
v 0.3668976 1.198894 0.2881027
v 0.343103 1.198894 -0.3183431
v 0.4316063 0 -0.4187787
v 0.3292882 12.12572 -0.3018938
v 0.3518979 12.12572 0.2727515
v -0.3073922 0 0.4114516
v -0.2189208 1.198894 0.3110496
v 0.3668976 1.198894 0.2881027
v 0.4628207 0 0.3813017
v -0.2050964 12.12572 0.29463
v 0.3518979 12.12572 0.2727515
v -0.3386128 0 -0.388597
v 0.4316063 0 -0.4187787
v 0.343103 1.198894 -0.3183431
v -0.2422103 1.198894 -0.2953033
v -0.2272245 12.12572 -0.2799542
v 0.3292882 12.12572 -0.3018938
v -0.2422103 1.198894 -0.2953033
v -0.2189208 1.198894 0.3110496
v -0.3073922 0 0.4114516
v -0.3386128 0 -0.388597
v -0.2050964 12.12572 0.29463
v -0.2272245 12.12572 -0.2799542

vn -0.4828115 0.09738485 -0.8702928
vn -0.4828115 0.09738485 -0.8702928
vn -0.4828115 0.09738485 -0.8702928
vn -0.4828115 0.09738485 -0.8702928
vn 0.05597736 0.9981029 0.02563205
vn 0.05597736 0.9981029 0.02563205
vn 0.05597736 0.9981029 0.02563205
vn 0.05597736 0.9981029 0.02563205
vn 0.4798268 0.08901688 0.8728358
vn 0.4798268 0.08901688 0.8728358
vn 0.4798268 0.08901688 0.8728358
vn 0.4798268 0.08901688 0.8728358
vn -0.8523608 0.157259 0.4987489
vn -0.8523608 0.157259 0.4987489
vn -0.8523608 0.157259 0.4987489
vn -0.8523608 0.157259 0.4987489
vn -0.8523608 0.157259 0.4987489
vn 0.8548295 0.1326249 -0.5016743
vn 0.8548295 0.1326249 -0.5016743
vn 0.8548295 0.1326249 -0.5016743
vn 0.8548295 0.1326249 -0.5016743
vn -0.4882907 0.05209754 -0.8711247
vn -0.4882907 0.05209754 -0.8711247
vn -0.4882907 0.05209754 -0.8711247
vn -0.4882907 0.05209754 -0.8711247
vn 0.05255001 0.9985418 0.01235411
vn 0.05255001 0.9985418 0.01235411
vn 0.05255001 0.9985418 0.01235411
vn 0.05255001 0.9985418 0.01235411
vn 0.05255001 0.9985418 0.01235411
vn -0.01826211 -0.9997792 -0.01039563
vn -0.01826211 -0.9997792 -0.01039563
vn -0.01826211 -0.9997792 -0.01039563
vn -0.01826211 -0.9997792 -0.01039563
vn -0.8679153 0.07452402 0.4910899
vn -0.8679153 0.07452402 0.4910899
vn -0.8679153 0.07452402 0.4910899
vn -0.8679153 0.07452402 0.4910899
vn 0.8662004 0.04795176 -0.4973905
vn 0.8662004 0.04795176 -0.4973905
vn 0.8662004 0.04795176 -0.4973905
vn 0.8662004 0.04795176 -0.4973905
vn 0.4822261 0.0421132 0.875034
vn 0.4822261 0.0421132 0.875034
vn 0.4822261 0.0421132 0.875034
vn 0.4822261 0.0421132 0.875034
vn -0.4134692 -0.5360866 -0.7359718
vn -0.4134692 -0.5360866 -0.7359718
vn -0.4134692 -0.5360866 -0.7359718
vn -0.4134692 -0.5360866 -0.7359718
vn 0.01882673 0.9996855 0.016563
vn 0.01882673 0.9996855 0.016563
vn 0.01882673 0.9996855 0.016563
vn 0.01882673 0.9996855 0.016563
vn 0.4347521 -0.442153 0.7845327
vn 0.4347521 -0.442153 0.7845327
vn 0.4347521 -0.442153 0.7845327
vn 0.4347521 -0.442153 0.7845327
vn 0 -1 0
vn 0 -1 0
vn 0 -1 0
vn 0 -1 0
vn -0.7472178 -0.5213661 0.4121202
vn -0.7472178 -0.5213661 0.4121202
vn -0.7472178 -0.5213661 0.4121202
vn -0.7472178 -0.5213661 0.4121202
vn 0.7223353 -0.5519099 -0.4166858
vn 0.7223353 -0.5519099 -0.4166858
vn 0.7223353 -0.5519099 -0.4166858
vn 0.7223353 -0.5519099 -0.4166858
vn -0.4863666 0.04286378 -0.8727029
vn -0.4863666 0.04286378 -0.8727029
vn -0.4863666 0.04286378 -0.8727029
vn -0.4863666 0.04286378 -0.8727029
vn 0.07030575 0.9968923 0.03553919
vn 0.07030575 0.9968923 0.03553919
vn 0.07030575 0.9968923 0.03553919
vn 0.07030575 0.9968923 0.03553919
vn 0.07030575 0.9968923 0.03553919
vn 0.4796326 0.03798197 0.8766469
vn 0.4796326 0.03798197 0.8766469
vn 0.4796326 0.03798197 0.8766469
vn 0.4796326 0.03798197 0.8766469
vn -0.8617458 0.08457184 0.5002418
vn -0.8617458 0.08457184 0.5002418
vn -0.8617458 0.08457184 0.5002418
vn -0.8617458 0.08457184 0.5002418
vn 0.8569116 0.06263494 -0.5116438
vn 0.8569116 0.06263494 -0.5116438
vn 0.8569116 0.06263494 -0.5116438
vn 0.8569116 0.06263494 -0.5116438
vn -0.5931497 0.732797 0.3334399
vn -0.5931497 0.732797 0.3334399
vn -0.5931497 0.732797 0.3334399
vn -0.5931497 0.732797 0.3334399
vn 0.594121 0.73277 -0.3317655
vn 0.594121 0.73277 -0.3317655
vn 0.594121 0.73277 -0.3317655
vn 0.594121 0.73277 -0.3317655
vn -0.4928285 0.05189202 -0.8685777
vn -0.5016108 0.04962191 -0.8636691
vn -0.4883059 0.05213534 -0.8711138
vn -0.4816096 0.0533874 -0.8747582
vn -0.4792214 0.05261774 -0.8761154
vn -0.009887049 0.9999501 -0.001517222
vn -0.009887049 0.9999501 -0.001517222
vn -0.007007358 0.9999713 -0.002896697
vn -0.007007358 0.9999713 -0.002896697
vn -0.004127595 0.9999824 -0.004276142
vn -0.004127595 0.9999824 -0.004276142
vn 0.4622272 0.04380424 0.8856789
vn 0.4722224 0.04632959 0.8802611
vn 0.4761825 0.04697031 0.8780912
vn 0.4831132 0.04854872 0.8742108
vn 0.4840725 0.04824874 0.8736967
vn -0.8628672 0.08482233 0.4982625
vn -0.8628672 0.08482233 0.4982625
vn -0.8628672 0.08482233 0.4982625
vn -0.8628672 0.08482233 0.4982625
vn -0.8628672 0.08482233 0.4982625
vn 0.8575282 0.07013975 -0.5096331
vn 0.8575282 0.07013975 -0.5096331
vn 0.8575282 0.07013975 -0.5096331
vn 0.8575282 0.07013975 -0.5096331
vn 0.8575282 0.07013975 -0.5096331
vn 0.8700718 0.07674711 -0.4869137
vn 0.8719352 0.03906104 -0.4880605
vn 0.8719352 0.03906104 -0.4880605
vn 0.8700718 0.07674711 -0.4869137
vn 0.8725563 0.001319315 -0.4885119
vn 0.8725563 0.001319315 -0.4885119
vn 0.4868106 0.08053982 0.8697866
vn 0.4880161 0.04102939 0.8718697
vn 0.4880161 0.04102939 0.8718697
vn 0.4868106 0.08053982 0.8697866
vn 0.4884569 0.001454695 0.8725868
vn 0.4884569 0.001454695 0.8725868
vn -0.4868989 0.08059745 -0.8697318
vn -0.4868989 0.08059745 -0.8697318
vn -0.4881339 0.04105898 -0.8718024
vn -0.4881339 0.04105898 -0.8718024
vn -0.4886029 0.00145609 -0.8725051
vn -0.4886029 0.00145609 -0.8725051
vn -0.8722194 0.03915282 0.4875451
vn -0.8722194 0.03915282 0.4875451
vn -0.8702285 0.07693029 0.4866046
vn -0.8702285 0.07693029 0.4866046
vn -0.8729614 0.001319284 0.4877875
vn -0.8729614 0.001319284 0.4877875

vt 0.9267578 0.4440918
vt 0.925293 0.4440918
vt 0.9248047 0.4448242
vt 0.9262695 0.4448242
vt 0.9848633 0.4438477
vt 0.9853516 0.4440918
vt 0.9873047 0.4440918
vt 0.9873047 0.4438477
vt 0.9262695 0.4440918
vt 0.925293 0.4440918
vt 0.9257813 0.4448242
vt 0.9267578 0.4448242
vt 0.8989258 0.4443359
vt 0.8994141 0.4443359
vt 0.8994141 0.4440918
vt 0.8994141 0.4440918
vt 0.8984375 0.4438477
vt 0.8979492 0.4440918
vt 0.8979492 0.4440918
vt 0.8974609 0.4443359
vt 0.8979492 0.4443359
vt 0.9248047 0.4443359
vt 0.9277344 0.4445801
vt 0.9277344 0.4438477
vt 0.925293 0.4438477
vt 0.984375 0.4438477
vt 0.9848633 0.4440918
vt 0.987793 0.4440918
vt 0.987793 0.4440918
vt 0.987793 0.4438477
vt 0.8383789 0.4445801
vt 0.8383789 0.4433594
vt 0.8310547 0.4433594
vt 0.8310547 0.4445801
vt 0.8974609 0.4445801
vt 0.8994141 0.4443359
vt 0.8994141 0.4440918
vt 0.8974609 0.4440918
vt 0.8994141 0.4440918
vt 0.8979492 0.4440918
vt 0.8974609 0.4445801
vt 0.8994141 0.4445801
vt 0.925293 0.4448242
vt 0.9272461 0.4448242
vt 0.9272461 0.4440918
vt 0.9248047 0.4443359
vt 0.8662109 0.4453125
vt 0.871582 0.4455566
vt 0.871582 0.4436035
vt 0.8662109 0.4438477
vt 0.8999023 0.4445801
vt 0.8994141 0.4445801
vt 0.8994141 0.4443359
vt 0.8999023 0.4443359
vt 0.8623047 0.4455566
vt 0.8662109 0.4453125
vt 0.8662109 0.4438477
vt 0.8623047 0.4436035
vt 0.8325195 0.4455566
vt 0.8374023 0.4455566
vt 0.8374023 0.4445801
vt 0.8325195 0.4445801
vt 0.8999023 0.4443359
vt 0.8999023 0.4443359
vt 0.8994141 0.4443359
vt 0.8999023 0.4443359
vt 0.8999023 0.4445801
vt 0.8994141 0.4445801
vt 0.8999023 0.4445801
vt 0.8999023 0.4445801
vt 0.9267578 0.4440918
vt 0.925293 0.4440918
vt 0.9248047 0.4448242
vt 0.9262695 0.4448242
vt 0.9848633 0.4438477
vt 0.9853516 0.4440918
vt 0.9873047 0.4440918
vt 0.9873047 0.4440918
vt 0.9873047 0.4438477
vt 0.9262695 0.4440918
vt 0.925293 0.4440918
vt 0.9257813 0.4448242
vt 0.9267578 0.4448242
vt 0.8989258 0.4443359
vt 0.8994141 0.4443359
vt 0.8994141 0.4440918
vt 0.8984375 0.4438477
vt 0.8979492 0.4440918
vt 0.8979492 0.4440918
vt 0.8974609 0.4443359
vt 0.8979492 0.4443359
vt 0.267334 0.401123
vt 0.267334 0.401123
vt 0.2678223 0.401123
vt 0.2678223 0.401123
vt 0.267334 0.401123
vt 0.267334 0.401123
vt 0.2678223 0.401123
vt 0.2678223 0.401123
vt 0.9248047 0.4448242
vt 0.9262695 0.4448242
vt 0.9267578 0.4445801
vt 0.925293 0.4440918
vt 0.9267578 0.4440918
vt 0.9873047 0.4438477
vt 0.9848633 0.4438477
vt 0.9848633 0.4440918
vt 0.9873047 0.4440918
vt 0.9853516 0.4440918
vt 0.9873047 0.4440918
vt 0.9257813 0.4448242
vt 0.9267578 0.4448242
vt 0.925293 0.4445801
vt 0.9262695 0.4440918
vt 0.925293 0.4440918
vt 0.8989258 0.4443359
vt 0.8994141 0.4443359
vt 0.8994141 0.4440918
vt 0.8994141 0.4440918
vt 0.8984375 0.4438477
vt 0.8979492 0.4440918
vt 0.8979492 0.4440918
vt 0.8974609 0.4443359
vt 0.8974609 0.4443359
vt 0.8979492 0.4443359
vt 0.2666016 0.4016113
vt 0.2666016 0.4013672
vt 0.2670898 0.4013672
vt 0.2670898 0.4016113
vt 0.2670898 0.4013672
vt 0.2666016 0.4013672
vt 0.2910156 0.4016113
vt 0.2912598 0.4013672
vt 0.2937012 0.4013672
vt 0.2937012 0.4016113
vt 0.2915039 0.4013672
vt 0.293457 0.4013672
vt 0.2963867 0.4016113
vt 0.2937012 0.4016113
vt 0.2939453 0.4013672
vt 0.2961426 0.4013672
vt 0.2961426 0.4013672
vt 0.2939453 0.4013672
vt 0.2678223 0.4013672
vt 0.2685547 0.4013672
vt 0.2685547 0.4016113
vt 0.2678223 0.4016113
vt 0.2685547 0.4013672
vt 0.2678223 0.4013672

g SF_Env_Tree_014_1610_5
usemtl SF_Env_Tree_014_1610_5
usemap SF_Env_Tree_014_1610_5
f 1/1/1 3/3/3 2/2/2
f 1/1/1 4/4/4 3/3/3
f 5/5/5 7/7/7 6/6/6
f 5/5/5 8/8/8 7/7/7
f 9/9/9 11/11/11 10/10/10
f 9/9/9 12/12/12 11/11/11
f 13/13/13 15/15/15 14/14/14
f 13/13/13 17/17/17 16/16/16
f 18/18/18 20/20/20 19/19/19
f 18/18/18 21/21/21 20/20/20
f 22/22/22 24/24/24 23/23/23
f 22/22/22 25/25/25 24/24/24
f 26/26/26 28/28/28 27/27/27
f 26/26/26 30/30/30 29/29/29
f 31/31/31 33/33/33 32/32/32
f 31/31/31 34/34/34 33/33/33
f 35/35/35 37/37/37 36/36/36
f 35/35/35 38/38/38 37/37/37
f 39/39/39 41/41/41 40/40/40
f 39/39/39 42/42/42 41/41/41
f 43/43/43 45/45/45 44/44/44
f 43/43/43 46/46/46 45/45/45
f 47/47/47 49/49/49 48/48/48
f 47/47/47 50/50/50 49/49/49
f 51/51/51 53/53/53 52/52/52
f 51/51/51 54/54/54 53/53/53
f 55/55/55 57/57/57 56/56/56
f 55/55/55 58/58/58 57/57/57
f 59/59/59 61/61/61 60/60/60
f 59/59/59 62/62/62 61/61/61
f 63/63/63 65/65/65 64/64/64
f 63/63/63 66/66/66 65/65/65
f 67/67/67 69/69/69 68/68/68
f 67/67/67 70/70/70 69/69/69
f 71/71/71 73/73/73 72/72/72
f 71/71/71 74/74/74 73/73/73
f 75/75/75 77/77/77 76/76/76
f 75/75/75 79/79/79 78/78/78
f 80/80/80 82/82/82 81/81/81
f 80/80/80 83/83/83 82/82/82
f 84/84/84 86/86/86 85/85/85
f 84/84/84 87/87/87 86/86/86
f 88/88/88 90/90/90 89/89/89
f 88/88/88 91/91/91 90/90/90
f 92/92/92 94/94/94 93/93/93
f 92/92/92 95/95/95 94/94/94
f 96/96/96 98/98/98 97/97/97
f 96/96/96 99/99/99 98/98/98
f 100/100/100 102/102/102 101/101/101
f 102/102/102 100/100/100 103/103/103
f 102/102/102 103/103/103 104/104/104
f 105/105/105 107/107/107 106/106/106
f 105/105/105 108/108/108 107/107/107
f 108/108/108 109/109/109 107/107/107
f 108/108/108 110/110/110 109/109/109
f 111/111/111 113/113/113 112/112/112
f 114/114/114 112/112/112 113/113/113
f 114/114/114 113/113/113 115/115/115
f 116/116/116 118/118/118 117/117/117
f 116/116/116 120/120/120 119/119/119
f 121/121/121 123/123/123 122/122/122
f 121/121/121 125/125/125 124/124/124
f 126/126/126 128/128/128 127/127/127
f 126/126/126 129/129/129 128/128/128
f 127/127/127 128/128/128 130/130/130
f 127/127/127 130/130/130 131/131/131
f 132/132/132 134/134/134 133/133/133
f 132/132/132 135/135/135 134/134/134
f 136/136/136 133/133/133 134/134/134
f 136/136/136 134/134/134 137/137/137
f 138/138/138 140/140/140 139/139/139
f 138/138/138 141/141/141 140/140/140
f 140/140/140 141/141/141 142/142/142
f 140/140/140 142/142/142 143/143/143
f 144/144/144 146/146/146 145/145/145
f 144/144/144 147/147/147 146/146/146
f 148/148/148 144/144/144 145/145/145
f 148/148/148 149/149/149 144/144/144
