#SF_Env_Tree_014_(1)_1402_0.obj

v -0.492913 20.05084 -0.360947
v -0.7466973 18.50421 -0.5055075
v 0.7246743 18.46322 -0.5594949
v 0.5220395 20.01859 -0.402145
v 0.5851181 19.9687 0.4837186
v -0.4470541 20.01172 0.508346
v -0.492913 20.05084 -0.360947
v 0.5220395 20.01859 -0.402145
v -0.6903774 18.43902 0.6607209
v -0.4470541 20.01172 0.508346
v 0.5851181 19.9687 0.4837186
v 0.8030706 18.37491 0.6152797
v -0.7466973 18.50421 -0.5055075
v -0.492913 20.05084 -0.360947
v -0.4470541 20.01172 0.508346
v -0.4470541 20.01172 0.508346
v -0.6903774 18.43902 0.6607209
v 0.8030706 18.37491 0.6152797
v 0.5851181 19.9687 0.4837186
v 0.5220395 20.01859 -0.402145
v 0.7246743 18.46322 -0.5594949
v -1.425481 16.06239 -1.197494
v -1.673649 12.72407 -1.365432
v 1.554401 12.70032 -1.491623
v 1.381804 15.96331 -1.317918
v 1.540364 15.85451 1.250168
v -1.312244 15.98244 1.319351
v -1.425481 16.06239 -1.197494
v -1.425481 16.06239 -1.197494
v 1.381804 15.96331 -1.317918
v 1.554401 12.70032 -1.491623
v -1.673649 12.72407 -1.365432
v -1.560627 12.68407 1.484909
v 1.676197 12.63745 1.363053
v -1.673649 12.72407 -1.365432
v -1.425481 16.06239 -1.197494
v -1.312244 15.98244 1.319351
v -1.560627 12.68407 1.484909
v 1.676197 12.63745 1.363053
v 1.540364 15.85451 1.250168
v 1.381804 15.96331 -1.317918
v 1.554401 12.70032 -1.491623
v 1.540364 15.85451 1.250168
v 1.676197 12.63745 1.363053
v -1.560627 12.68407 1.484909
v -1.312244 15.98244 1.319351
v 1.09472 12.12572 -0.9908894
v 1.453652 12.73656 -1.396959
v -1.376416 12.7493 -1.286485
v -0.9951963 12.12572 -0.9088902
v 1.453652 12.73656 -1.396959
v 1.565757 12.66412 1.198745
v -1.272595 12.6988 1.306046
v -1.376416 12.7493 -1.286485
v 1.565757 12.66412 1.198745
v 1.170632 12.12572 0.9380344
v -0.9192793 12.12572 1.019974
v -1.272595 12.6988 1.306046
v 1.170632 12.12572 0.9380344
v 1.09472 12.12572 -0.9908894
v -0.9951963 12.12572 -0.9088902
v -0.9192793 12.12572 1.019974
v -0.9951963 12.12572 -0.9088902
v -1.376416 12.7493 -1.286485
v -1.272595 12.6988 1.306046
v -0.9192793 12.12572 1.019974
v 1.170632 12.12572 0.9380344
v 1.565757 12.66412 1.198745
v 1.453652 12.73656 -1.396959
v 1.09472 12.12572 -0.9908894
v -1.053076 18.57796 -0.7665546
v -1.276289 15.94393 -0.8742535
v 1.20159 15.90666 -0.9654388
v 1.043002 18.49719 -0.8512408
v 1.167296 18.37248 0.8307638
v -0.9641563 18.48016 0.8842937
v -1.053076 18.57796 -0.7665546
v -1.053076 18.57796 -0.7665546
v 1.043002 18.49719 -0.8512408
v -1.185312 15.88474 0.9948278
v -0.9641563 18.48016 0.8842937
v 1.167296 18.37248 0.8307638
v 1.329944 15.82648 0.9174643
v -1.276289 15.94393 -0.8742535
v -1.053076 18.57796 -0.7665546
v -0.9641563 18.48016 0.8842937
v -1.185312 15.88474 0.9948278
v 1.329944 15.82648 0.9174643
v 1.167296 18.37248 0.8307638
v 1.043002 18.49719 -0.8512408
v 1.20159 15.90666 -0.9654388
v -0.4191602 12.27355 0.2113187
v -0.5038378 12.19485 0.2146448
v -0.5106602 12.19485 0.04860029
v -0.4259619 12.27355 0.04524316
v 0.7429863 12.48103 -0.09675536
v 0.8277053 12.40229 -0.1001134
v 0.8340515 12.40229 0.06584284
v 0.7493181 12.48103 0.06922896
v 0.3286729 19.97625 -0.2101296
v 0.2413637 21.24416 -0.1422284
v 0.04572772 21.24273 -0.1315158
v -0.3063014 19.99665 -0.186845
v -0.1964329 21.24246 -0.1244058
v 0.2413637 21.24416 -0.1422284
v 0.2685035 21.24671 0.2399759
v 0.06935213 21.24501 0.2420197
v 0.04572772 21.24273 -0.1315158
v -0.1769105 21.24451 0.2506248
v -0.1964329 21.24246 -0.1244058
v 0.2685035 21.24671 0.2399759
v 0.3624115 19.93239 0.2966768
v 0.06935213 21.24501 0.2420197
v -0.2822202 19.96423 0.3161772
v -0.1769105 21.24451 0.2506248
v -0.3063014 19.99665 -0.186845
v -0.1964329 21.24246 -0.1244058
v -0.1769105 21.24451 0.2506248
v -0.1769105 21.24451 0.2506248
v -0.2822202 19.96423 0.3161772
v 0.3624115 19.93239 0.2966768
v 0.2685035 21.24671 0.2399759
v 0.2413637 21.24416 -0.1422284
v 0.2413637 21.24416 -0.1422284
v 0.3286729 19.97625 -0.2101296
v 0.4628168 0 0.381301
v 0.3668961 1.198894 0.288101
v 0.3431015 1.198894 -0.3183436
v 0.431606 0 -0.418778
v 0.3292879 12.12572 -0.3018959
v 0.3518989 12.12572 0.2727512
v -0.3073887 0 0.4114541
v -0.2189197 1.198894 0.3110498
v 0.3668961 1.198894 0.288101
v 0.4628168 0 0.381301
v -0.2050962 12.12572 0.2946324
v 0.3518989 12.12572 0.2727512
v -0.3386144 0 -0.3885957
v 0.431606 0 -0.418778
v 0.3431015 1.198894 -0.3183436
v -0.2422098 1.198894 -0.2953024
v -0.2272227 12.12572 -0.2799527
v 0.3292879 12.12572 -0.3018959
v -0.2422098 1.198894 -0.2953024
v -0.2189197 1.198894 0.3110498
v -0.3073887 0 0.4114541
v -0.3386144 0 -0.3885957
v -0.2050962 12.12572 0.2946324
v -0.2272227 12.12572 -0.2799527

vn -0.4828115 0.09738484 -0.8702928
vn -0.4828115 0.09738484 -0.8702928
vn -0.4828115 0.09738484 -0.8702928
vn -0.4828115 0.09738484 -0.8702928
vn 0.05597736 0.9981028 0.02563205
vn 0.05597736 0.9981028 0.02563205
vn 0.05597736 0.9981028 0.02563205
vn 0.05597736 0.9981028 0.02563205
vn 0.4798268 0.08901688 0.8728358
vn 0.4798268 0.08901688 0.8728358
vn 0.4798268 0.08901688 0.8728358
vn 0.4798268 0.08901688 0.8728358
vn -0.8523608 0.157259 0.4987489
vn -0.8523608 0.157259 0.4987489
vn -0.8523608 0.157259 0.4987489
vn -0.8523608 0.157259 0.4987489
vn -0.8523608 0.157259 0.4987489
vn 0.8548295 0.1326249 -0.5016743
vn 0.8548295 0.1326249 -0.5016743
vn 0.8548295 0.1326249 -0.5016743
vn 0.8548295 0.1326249 -0.5016743
vn -0.4882907 0.05209754 -0.8711247
vn -0.4882907 0.05209754 -0.8711247
vn -0.4882907 0.05209754 -0.8711247
vn -0.4882907 0.05209754 -0.8711247
vn 0.05255001 0.9985418 0.01235411
vn 0.05255001 0.9985418 0.01235411
vn 0.05255001 0.9985418 0.01235411
vn 0.05255001 0.9985418 0.01235411
vn 0.05255001 0.9985418 0.01235411
vn -0.01826211 -0.9997791 -0.01039563
vn -0.01826211 -0.9997791 -0.01039563
vn -0.01826211 -0.9997791 -0.01039563
vn -0.01826211 -0.9997791 -0.01039563
vn -0.8679153 0.07452402 0.4910899
vn -0.8679153 0.07452402 0.4910899
vn -0.8679153 0.07452402 0.4910899
vn -0.8679153 0.07452402 0.4910899
vn 0.8662004 0.04795175 -0.4973905
vn 0.8662004 0.04795175 -0.4973905
vn 0.8662004 0.04795175 -0.4973905
vn 0.8662004 0.04795175 -0.4973905
vn 0.4822261 0.0421132 0.875034
vn 0.4822261 0.0421132 0.875034
vn 0.4822261 0.0421132 0.875034
vn 0.4822261 0.0421132 0.875034
vn -0.4134692 -0.5360865 -0.7359718
vn -0.4134692 -0.5360865 -0.7359718
vn -0.4134692 -0.5360865 -0.7359718
vn -0.4134692 -0.5360865 -0.7359718
vn 0.01882673 0.9996855 0.016563
vn 0.01882673 0.9996855 0.016563
vn 0.01882673 0.9996855 0.016563
vn 0.01882673 0.9996855 0.016563
vn 0.4347521 -0.442153 0.7845327
vn 0.4347521 -0.442153 0.7845327
vn 0.4347521 -0.442153 0.7845327
vn 0.4347521 -0.442153 0.7845327
vn 0 -0.9999999 0
vn 0 -0.9999999 0
vn 0 -0.9999999 0
vn 0 -0.9999999 0
vn -0.7472178 -0.521366 0.4121202
vn -0.7472178 -0.521366 0.4121202
vn -0.7472178 -0.521366 0.4121202
vn -0.7472178 -0.521366 0.4121202
vn 0.7223353 -0.5519099 -0.4166858
vn 0.7223353 -0.5519099 -0.4166858
vn 0.7223353 -0.5519099 -0.4166858
vn 0.7223353 -0.5519099 -0.4166858
vn -0.4863666 0.04286377 -0.8727029
vn -0.4863666 0.04286377 -0.8727029
vn -0.4863666 0.04286377 -0.8727029
vn -0.4863666 0.04286377 -0.8727029
vn 0.07030575 0.9968922 0.03553919
vn 0.07030575 0.9968922 0.03553919
vn 0.07030575 0.9968922 0.03553919
vn 0.07030575 0.9968922 0.03553919
vn 0.07030575 0.9968922 0.03553919
vn 0.4796326 0.03798197 0.8766469
vn 0.4796326 0.03798197 0.8766469
vn 0.4796326 0.03798197 0.8766469
vn 0.4796326 0.03798197 0.8766469
vn -0.8617458 0.08457183 0.5002418
vn -0.8617458 0.08457183 0.5002418
vn -0.8617458 0.08457183 0.5002418
vn -0.8617458 0.08457183 0.5002418
vn 0.8569116 0.06263494 -0.5116438
vn 0.8569116 0.06263494 -0.5116438
vn 0.8569116 0.06263494 -0.5116438
vn 0.8569116 0.06263494 -0.5116438
vn -0.5931497 0.7327969 0.3334399
vn -0.5931497 0.7327969 0.3334399
vn -0.5931497 0.7327969 0.3334399
vn -0.5931497 0.7327969 0.3334399
vn 0.594121 0.7327699 -0.3317655
vn 0.594121 0.7327699 -0.3317655
vn 0.594121 0.7327699 -0.3317655
vn 0.594121 0.7327699 -0.3317655
vn -0.4928285 0.05189202 -0.8685777
vn -0.5016108 0.04962191 -0.8636691
vn -0.4883059 0.05213534 -0.8711138
vn -0.4816096 0.0533874 -0.8747582
vn -0.4792214 0.05261774 -0.8761154
vn -0.009887049 0.99995 -0.001517222
vn -0.009887049 0.99995 -0.001517222
vn -0.007007358 0.9999712 -0.002896697
vn -0.007007358 0.9999712 -0.002896697
vn -0.004127595 0.9999823 -0.004276142
vn -0.004127595 0.9999823 -0.004276142
vn 0.4622272 0.04380423 0.8856789
vn 0.4722224 0.04632958 0.8802611
vn 0.4761825 0.04697031 0.8780912
vn 0.4831132 0.04854872 0.8742108
vn 0.4840725 0.04824873 0.8736967
vn -0.8628672 0.08482232 0.4982625
vn -0.8628672 0.08482232 0.4982625
vn -0.8628672 0.08482232 0.4982625
vn -0.8628672 0.08482232 0.4982625
vn -0.8628672 0.08482232 0.4982625
vn 0.8575282 0.07013974 -0.5096331
vn 0.8575282 0.07013974 -0.5096331
vn 0.8575282 0.07013974 -0.5096331
vn 0.8575282 0.07013974 -0.5096331
vn 0.8575282 0.07013974 -0.5096331
vn 0.8700718 0.0767471 -0.4869137
vn 0.8719352 0.03906104 -0.4880605
vn 0.8719352 0.03906104 -0.4880605
vn 0.8700718 0.0767471 -0.4869137
vn 0.8725563 0.001319315 -0.4885119
vn 0.8725563 0.001319315 -0.4885119
vn 0.4868106 0.08053981 0.8697866
vn 0.4880161 0.04102939 0.8718697
vn 0.4880161 0.04102939 0.8718697
vn 0.4868106 0.08053981 0.8697866
vn 0.4884569 0.001454695 0.8725868
vn 0.4884569 0.001454695 0.8725868
vn -0.4868989 0.08059745 -0.8697318
vn -0.4868989 0.08059745 -0.8697318
vn -0.4881339 0.04105898 -0.8718024
vn -0.4881339 0.04105898 -0.8718024
vn -0.4886029 0.00145609 -0.8725051
vn -0.4886029 0.00145609 -0.8725051
vn -0.8722194 0.03915282 0.4875451
vn -0.8722194 0.03915282 0.4875451
vn -0.8702285 0.07693028 0.4866046
vn -0.8702285 0.07693028 0.4866046
vn -0.8729614 0.001319284 0.4877875
vn -0.8729614 0.001319284 0.4877875

vt 0.9267578 0.4440918
vt 0.925293 0.4440918
vt 0.9248047 0.4448242
vt 0.9262695 0.4448242
vt 0.9848633 0.4438477
vt 0.9853516 0.4440918
vt 0.9873047 0.4440918
vt 0.9873047 0.4438477
vt 0.9262695 0.4440918
vt 0.925293 0.4440918
vt 0.9257813 0.4448242
vt 0.9267578 0.4448242
vt 0.8989258 0.4443359
vt 0.8994141 0.4443359
vt 0.8994141 0.4440918
vt 0.8994141 0.4440918
vt 0.8984375 0.4438477
vt 0.8979492 0.4440918
vt 0.8979492 0.4440918
vt 0.8974609 0.4443359
vt 0.8979492 0.4443359
vt 0.9248047 0.4443359
vt 0.9277344 0.4445801
vt 0.9277344 0.4438477
vt 0.925293 0.4438477
vt 0.984375 0.4438477
vt 0.9848633 0.4440918
vt 0.987793 0.4440918
vt 0.987793 0.4440918
vt 0.987793 0.4438477
vt 0.8383789 0.4445801
vt 0.8383789 0.4433594
vt 0.8310547 0.4433594
vt 0.8310547 0.4445801
vt 0.8974609 0.4445801
vt 0.8994141 0.4443359
vt 0.8994141 0.4440918
vt 0.8974609 0.4440918
vt 0.8994141 0.4440918
vt 0.8979492 0.4440918
vt 0.8974609 0.4445801
vt 0.8994141 0.4445801
vt 0.925293 0.4448242
vt 0.9272461 0.4448242
vt 0.9272461 0.4440918
vt 0.9248047 0.4443359
vt 0.8662109 0.4453125
vt 0.871582 0.4455566
vt 0.871582 0.4436035
vt 0.8662109 0.4438477
vt 0.8999023 0.4445801
vt 0.8994141 0.4445801
vt 0.8994141 0.4443359
vt 0.8999023 0.4443359
vt 0.8623047 0.4455566
vt 0.8662109 0.4453125
vt 0.8662109 0.4438477
vt 0.8623047 0.4436035
vt 0.8325195 0.4455566
vt 0.8374023 0.4455566
vt 0.8374023 0.4445801
vt 0.8325195 0.4445801
vt 0.8999023 0.4443359
vt 0.8999023 0.4443359
vt 0.8994141 0.4443359
vt 0.8999023 0.4443359
vt 0.8999023 0.4445801
vt 0.8994141 0.4445801
vt 0.8999023 0.4445801
vt 0.8999023 0.4445801
vt 0.9267578 0.4440918
vt 0.925293 0.4440918
vt 0.9248047 0.4448242
vt 0.9262695 0.4448242
vt 0.9848633 0.4438477
vt 0.9853516 0.4440918
vt 0.9873047 0.4440918
vt 0.9873047 0.4440918
vt 0.9873047 0.4438477
vt 0.9262695 0.4440918
vt 0.925293 0.4440918
vt 0.9257813 0.4448242
vt 0.9267578 0.4448242
vt 0.8989258 0.4443359
vt 0.8994141 0.4443359
vt 0.8994141 0.4440918
vt 0.8984375 0.4438477
vt 0.8979492 0.4440918
vt 0.8979492 0.4440918
vt 0.8974609 0.4443359
vt 0.8979492 0.4443359
vt 0.267334 0.401123
vt 0.267334 0.401123
vt 0.2678223 0.401123
vt 0.2678223 0.401123
vt 0.267334 0.401123
vt 0.267334 0.401123
vt 0.2678223 0.401123
vt 0.2678223 0.401123
vt 0.9248047 0.4448242
vt 0.9262695 0.4448242
vt 0.9267578 0.4445801
vt 0.925293 0.4440918
vt 0.9267578 0.4440918
vt 0.9873047 0.4438477
vt 0.9848633 0.4438477
vt 0.9848633 0.4440918
vt 0.9873047 0.4440918
vt 0.9853516 0.4440918
vt 0.9873047 0.4440918
vt 0.9257813 0.4448242
vt 0.9267578 0.4448242
vt 0.925293 0.4445801
vt 0.9262695 0.4440918
vt 0.925293 0.4440918
vt 0.8989258 0.4443359
vt 0.8994141 0.4443359
vt 0.8994141 0.4440918
vt 0.8994141 0.4440918
vt 0.8984375 0.4438477
vt 0.8979492 0.4440918
vt 0.8979492 0.4440918
vt 0.8974609 0.4443359
vt 0.8974609 0.4443359
vt 0.8979492 0.4443359
vt 0.2666016 0.4016113
vt 0.2666016 0.4013672
vt 0.2670898 0.4013672
vt 0.2670898 0.4016113
vt 0.2670898 0.4013672
vt 0.2666016 0.4013672
vt 0.2910156 0.4016113
vt 0.2912598 0.4013672
vt 0.2937012 0.4013672
vt 0.2937012 0.4016113
vt 0.2915039 0.4013672
vt 0.293457 0.4013672
vt 0.2963867 0.4016113
vt 0.2937012 0.4016113
vt 0.2939453 0.4013672
vt 0.2961426 0.4013672
vt 0.2961426 0.4013672
vt 0.2939453 0.4013672
vt 0.2678223 0.4013672
vt 0.2685547 0.4013672
vt 0.2685547 0.4016113
vt 0.2678223 0.4016113
vt 0.2685547 0.4013672
vt 0.2678223 0.4013672

g SF_Env_Tree_014_(1)_1402_0
usemtl SF_Env_Tree_014_(1)_1402_0
usemap SF_Env_Tree_014_(1)_1402_0
f 1/1/1 3/3/3 2/2/2
f 1/1/1 4/4/4 3/3/3
f 5/5/5 7/7/7 6/6/6
f 5/5/5 8/8/8 7/7/7
f 9/9/9 11/11/11 10/10/10
f 9/9/9 12/12/12 11/11/11
f 13/13/13 15/15/15 14/14/14
f 13/13/13 17/17/17 16/16/16
f 18/18/18 20/20/20 19/19/19
f 18/18/18 21/21/21 20/20/20
f 22/22/22 24/24/24 23/23/23
f 22/22/22 25/25/25 24/24/24
f 26/26/26 28/28/28 27/27/27
f 26/26/26 30/30/30 29/29/29
f 31/31/31 33/33/33 32/32/32
f 31/31/31 34/34/34 33/33/33
f 35/35/35 37/37/37 36/36/36
f 35/35/35 38/38/38 37/37/37
f 39/39/39 41/41/41 40/40/40
f 39/39/39 42/42/42 41/41/41
f 43/43/43 45/45/45 44/44/44
f 43/43/43 46/46/46 45/45/45
f 47/47/47 49/49/49 48/48/48
f 47/47/47 50/50/50 49/49/49
f 51/51/51 53/53/53 52/52/52
f 51/51/51 54/54/54 53/53/53
f 55/55/55 57/57/57 56/56/56
f 55/55/55 58/58/58 57/57/57
f 59/59/59 61/61/61 60/60/60
f 59/59/59 62/62/62 61/61/61
f 63/63/63 65/65/65 64/64/64
f 63/63/63 66/66/66 65/65/65
f 67/67/67 69/69/69 68/68/68
f 67/67/67 70/70/70 69/69/69
f 71/71/71 73/73/73 72/72/72
f 71/71/71 74/74/74 73/73/73
f 75/75/75 77/77/77 76/76/76
f 75/75/75 79/79/79 78/78/78
f 80/80/80 82/82/82 81/81/81
f 80/80/80 83/83/83 82/82/82
f 84/84/84 86/86/86 85/85/85
f 84/84/84 87/87/87 86/86/86
f 88/88/88 90/90/90 89/89/89
f 88/88/88 91/91/91 90/90/90
f 92/92/92 94/94/94 93/93/93
f 92/92/92 95/95/95 94/94/94
f 96/96/96 98/98/98 97/97/97
f 96/96/96 99/99/99 98/98/98
f 100/100/100 102/102/102 101/101/101
f 102/102/102 100/100/100 103/103/103
f 102/102/102 103/103/103 104/104/104
f 105/105/105 107/107/107 106/106/106
f 105/105/105 108/108/108 107/107/107
f 108/108/108 109/109/109 107/107/107
f 108/108/108 110/110/110 109/109/109
f 111/111/111 113/113/113 112/112/112
f 114/114/114 112/112/112 113/113/113
f 114/114/114 113/113/113 115/115/115
f 116/116/116 118/118/118 117/117/117
f 116/116/116 120/120/120 119/119/119
f 121/121/121 123/123/123 122/122/122
f 121/121/121 125/125/125 124/124/124
f 126/126/126 128/128/128 127/127/127
f 126/126/126 129/129/129 128/128/128
f 127/127/127 128/128/128 130/130/130
f 127/127/127 130/130/130 131/131/131
f 132/132/132 134/134/134 133/133/133
f 132/132/132 135/135/135 134/134/134
f 136/136/136 133/133/133 134/134/134
f 136/136/136 134/134/134 137/137/137
f 138/138/138 140/140/140 139/139/139
f 138/138/138 141/141/141 140/140/140
f 140/140/140 141/141/141 142/142/142
f 140/140/140 142/142/142 143/143/143
f 144/144/144 146/146/146 145/145/145
f 144/144/144 147/147/147 146/146/146
f 148/148/148 144/144/144 145/145/145
f 148/148/148 149/149/149 144/144/144
