#SF_Env_Tree_09_1555_6.obj

v -0.3361818 11.7049 -0.2697457
v -0.5097654 10.1347 -0.3801261
v 0.5278323 10.09314 -0.3687753
v 0.3798824 11.67212 -0.2646171
v 0.3947756 11.62146 0.3611162
v -0.3330083 11.66516 0.3440264
v -0.3361818 11.7049 -0.2697457
v 0.3798824 11.67212 -0.2646171
v -0.5092769 10.0686 0.4429626
v -0.3330083 11.66516 0.3440264
v 0.3947756 11.62146 0.3611162
v 0.5437014 10.00354 0.4612435
v -0.5097654 10.1347 -0.3801261
v -0.3361818 11.7049 -0.2697457
v -0.3330083 11.66516 0.3440264
v -0.5092769 10.0686 0.4429626
v 0.5437014 10.00354 0.4612435
v 0.3947756 11.62146 0.3611162
v 0.3798824 11.67212 -0.2646171
v 0.5278323 10.09314 -0.3687753
v -0.964844 7.655945 -0.8901045
v -1.134033 4.267028 -1.016481
v 1.143555 4.24295 -0.9973738
v 1.016114 7.555419 -0.8810722
v 1.041992 7.444946 0.932952
v -0.9692383 7.574769 0.8860186
v -0.964844 7.655945 -0.8901045
v 1.016114 7.555419 -0.8810722
v 1.143555 4.24295 -0.9973738
v -1.134033 4.267028 -1.016481
v -1.149659 4.22644 0.994445
v 1.133545 4.179108 1.016634
v -1.134033 4.267028 -1.016481
v -0.964844 7.655945 -0.8901045
v -0.9692383 7.574769 0.8860186
v -1.149659 4.22644 0.994445
v 1.133545 4.179108 1.016634
v 1.041992 7.444946 0.932952
v 1.016114 7.555419 -0.8810722
v 1.143555 4.24295 -0.9973738
v 1.041992 7.444946 0.932952
v 1.133545 4.179108 1.016634
v -1.149659 4.22644 0.994445
v -0.9692383 7.574769 0.8860186
v 0.8032227 3.659638 -0.6604301
v 1.069336 4.279724 -0.9341727
v -0.9272459 4.292663 -0.9510803
v -0.6713867 3.659638 -0.6723319
v 1.069336 4.279724 -0.9341727
v 1.06128 4.206207 0.8973694
v -0.9406736 4.241394 0.8780204
v -0.9272459 4.292663 -0.9510803
v 1.06128 4.206207 0.8973694
v 0.7917479 3.659638 0.7004378
v -0.6826168 3.659638 0.6883537
v -0.9406736 4.241394 0.8780204
v 0.7917479 3.659638 0.7004378
v 0.8032227 3.659638 -0.6604301
v -0.6713867 3.659638 -0.6723319
v -0.6826168 3.659638 0.6883537
v -0.6713867 3.659638 -0.6723319
v -0.9272459 4.292663 -0.9510803
v -0.9406736 4.241394 0.8780204
v -0.6826168 3.659638 0.6883537
v 0.7917479 3.659638 0.7004378
v 1.06128 4.206207 0.8973694
v 1.069336 4.279724 -0.9341727
v 0.8032227 3.659638 -0.6604301
v -0.7167965 10.20966 -0.5743408
v -0.8703613 7.535645 -0.6574716
v 0.8771971 7.497864 -0.6387033
v 0.7617188 10.12762 -0.5635664
v 0.7932133 10.00104 0.6248771
v -0.7094722 10.11029 0.5912484
v -0.7167965 10.20966 -0.5743408
v 0.7617188 10.12762 -0.5635664
v -0.8688969 7.475647 0.6619263
v -0.7094722 10.11029 0.5912484
v 0.7932133 10.00104 0.6248771
v 0.904541 7.416443 0.6914351
v -0.8703613 7.535645 -0.6574716
v -0.7167965 10.20966 -0.5743408
v -0.7094722 10.11029 0.5912484
v -0.8688969 7.475647 0.6619263
v 0.904541 7.416443 0.6914351
v 0.7932133 10.00104 0.6248771
v 0.7617188 10.12762 -0.5635664
v 0.8771971 7.497864 -0.6387033
v -0.3032229 3.809723 0.1356506
v -0.363281 3.729797 0.1352861
v -0.3623051 3.729797 0.01815796
v -0.3022459 3.809723 0.01852247
v 0.5253909 4.020325 -0.04226685
v 0.5852053 3.940399 -0.04190233
v 0.5842283 3.940399 0.07522583
v 0.5244139 4.020325 0.07464515
v 0.2373049 11.62915 -0.1361084
v 0.1735836 12.9162 -0.09127723
v 0.03540039 12.91479 -0.09017944
v -0.2104494 11.64984 -0.1409319
v -0.1352543 12.91455 -0.09332445
v 0.1735836 12.9162 -0.09127723
v 0.1801756 12.91876 0.1787101
v 0.03955099 12.91711 0.173645
v 0.03540039 12.91479 -0.09017944
v -0.1340336 12.9165 0.1713562
v -0.1352543 12.91455 -0.09332445
v 0.1801756 12.91876 0.1787101
v 0.2443843 11.58459 0.2218331
v 0.03955099 12.91711 0.173645
v -0.2099609 11.61694 0.2141402
v -0.1340336 12.9165 0.1713562
v -0.2104494 11.64984 -0.1409319
v -0.1352543 12.91455 -0.09332445
v -0.1340336 12.9165 0.1713562
v -0.2099609 11.61694 0.2141402
v 0.2443843 11.58459 0.2218331
v 0.1801756 12.91876 0.1787101
v 0.1735836 12.9162 -0.09127723
v 0.1735836 12.9162 -0.09127723
v 0.2373049 11.62915 -0.1361084
v 0.2810054 0 0.2517997
v 0.2478027 2.224198 0.2160941
v 0.2512211 2.224198 -0.2116988
v 0.285156 0 -0.2469466
v 0.240967 3.659638 -0.2004708
v 0.2377934 3.659638 0.20465
v -0.1992183 0 0.2478027
v -0.1652834 2.224198 0.2125549
v 0.2478027 2.224198 0.2160941
v 0.2810054 0 0.2517997
v -0.155273 3.659638 0.2014754
v 0.2377934 3.659638 0.20465
v -0.1950688 0 -0.2509774
v 0.285156 0 -0.2469466
v 0.2512211 2.224198 -0.2116988
v -0.161865 2.224198 -0.2152718
v -0.1516109 3.659638 -0.20401
v 0.240967 3.659638 -0.2004708
v -0.161865 2.224198 -0.2152718
v -0.1652834 2.224198 0.2125549
v -0.1992183 0 0.2478027
v -0.1950688 0 -0.2509774
v -0.155273 3.659638 0.2014754
v -0.1516109 3.659638 -0.20401

vn 0.01225167 0.06786352 -0.9976193
vn 0.01225167 0.06786352 -0.9976193
vn 0.01225167 0.06786352 -0.9976193
vn 0.01225167 0.06786352 -0.9976193
vn 0.05165345 0.9960743 0.07188776
vn 0.05165345 0.9960743 0.07188776
vn 0.05165345 0.9960743 0.07188776
vn 0.05165345 0.9960743 0.07188776
vn -0.01603852 0.06193754 0.9979512
vn -0.01603852 0.06193754 0.9979512
vn -0.01603852 0.06193754 0.9979512
vn -0.01603852 0.06193754 0.9979512
vn -0.9939008 0.109765 0.01061812
vn -0.9939008 0.109765 0.01061812
vn -0.9939008 0.109765 0.01061812
vn -0.9939008 0.109765 0.01061812
vn 0.9956412 0.09247394 -0.01212939
vn 0.9956412 0.09247394 -0.01212939
vn 0.9956412 0.09247394 -0.01212939
vn 0.9956412 0.09247394 -0.01212939
vn 0.007660177 0.03614033 -0.9993174
vn 0.007660177 0.03614033 -0.9993174
vn 0.007660177 0.03614033 -0.9993174
vn 0.007660177 0.03614033 -0.9993174
vn 0.05678402 0.996985 0.05288154
vn 0.05678402 0.996985 0.05288154
vn 0.05678402 0.996985 0.05288154
vn 0.05678402 0.996985 0.05288154
vn -0.01541477 -0.9995422 -0.02603236
vn -0.01541477 -0.9995422 -0.02603236
vn -0.01541477 -0.9995422 -0.02603236
vn -0.01541477 -0.9995422 -0.02603236
vn -0.9986493 0.05183158 -0.003612628
vn -0.9986493 0.05183158 -0.003612628
vn -0.9986493 0.05183158 -0.003612628
vn -0.9986493 0.05183158 -0.003612628
vn 0.9994424 0.03328481 -0.002627512
vn 0.9994424 0.03328481 -0.002627512
vn 0.9994424 0.03328481 -0.002627512
vn 0.9994424 0.03328481 -0.002627512
vn -0.01488136 0.02922927 0.9994619
vn -0.01488136 0.02922927 0.9994619
vn -0.01488136 0.02922927 0.9994619
vn -0.01488136 0.02922927 0.9994619
vn 0.006089752 -0.4034583 -0.9149778
vn 0.006089752 -0.4034583 -0.9149778
vn 0.006089752 -0.4034583 -0.9149778
vn 0.006089752 -0.4034583 -0.9149778
vn 0.01171861 0.9993485 0.0341352
vn 0.01171861 0.9993485 0.0341352
vn 0.01171861 0.9993485 0.0341352
vn 0.01171861 0.9993485 0.0341352
vn -0.01183313 -0.3240003 0.945983
vn -0.01183313 -0.3240003 0.945983
vn -0.01183313 -0.3240003 0.945983
vn -0.01183313 -0.3240003 0.945983
vn 0 -1 0
vn 0 -1 0
vn 0 -1 0
vn 0 -1 0
vn -0.9205403 -0.3904182 -0.0133913
vn -0.9205403 -0.3904182 -0.0133913
vn -0.9205403 -0.3904182 -0.0133913
vn -0.9205403 -0.3904182 -0.0133913
vn 0.9086824 -0.4174684 -0.004054383
vn 0.9086824 -0.4174684 -0.004054383
vn 0.9086824 -0.4174684 -0.004054383
vn 0.9086824 -0.4174684 -0.004054383
vn 0.01025735 0.02975149 -0.9995047
vn 0.01025735 0.02975149 -0.9995047
vn 0.01025735 0.02975149 -0.9995047
vn 0.01025735 0.02975149 -0.9995047
vn 0.06234675 0.9935858 0.09434129
vn 0.06234675 0.9935858 0.09434129
vn 0.06234675 0.9935858 0.09434129
vn 0.06234675 0.9935858 0.09434129
vn -0.01790337 0.02644612 0.9994899
vn -0.01790337 0.02644612 0.9994899
vn -0.01790337 0.02644612 0.9994899
vn -0.01790337 0.02644612 0.9994899
vn -0.9982409 0.05883728 0.007303898
vn -0.9982409 0.05883728 0.007303898
vn -0.9982409 0.05883728 0.007303898
vn -0.9982409 0.05883728 0.007303898
vn 0.9988592 0.04347943 -0.0197439
vn 0.9988592 0.04347943 -0.0197439
vn 0.9988592 0.04347943 -0.0197439
vn 0.9988592 0.04347943 -0.0197439
vn -0.7994178 0.6007386 -0.006665286
vn -0.7994178 0.6007386 -0.006665286
vn -0.7994178 0.6007386 -0.006665286
vn -0.7994178 0.6007386 -0.006665286
vn 0.8005863 0.5991801 0.006681121
vn 0.8005863 0.5991801 0.006681121
vn 0.8005863 0.5991801 0.006681121
vn 0.8005863 0.5991801 0.006681121
vn 0.002102901 0.03603143 -0.9993485
vn -0.008295027 0.03439939 -0.9993737
vn 0.007519532 0.03619549 -0.9993165
vn 0.01542613 0.0370901 -0.9991929
vn 0.01835153 0.0365204 -0.9991643
vn -0.01081759 0.9999017 -0.008928452
vn -0.01081759 0.9999017 -0.008928452
vn -0.006586351 0.9999423 -0.008494232
vn -0.006586351 0.9999423 -0.008494232
vn -0.002354997 0.9999648 -0.008059857
vn -0.002354997 0.9999648 -0.008059857
vn -0.03634154 0.03053536 0.9988728
vn -0.02542263 0.03222409 0.9991573
vn -0.02138042 0.03270942 0.9992362
vn -0.01389802 0.03379363 0.9993321
vn -0.01329543 0.03367837 0.9993443
vn -0.9982523 0.05882044 0.005689682
vn -0.9982523 0.05882044 0.005689682
vn -0.9982523 0.05882044 0.005689682
vn -0.9982523 0.05882044 0.005689682
vn 0.9986399 0.04875115 -0.01848314
vn 0.9986399 0.04875115 -0.01848314
vn 0.9986399 0.04875115 -0.01848314
vn 0.9986399 0.04875115 -0.01848314
vn 0.9986399 0.04875115 -0.01848314
vn 0.9998528 0.0150914 0.008167169
vn 0.9999063 0.01107506 0.008040485
vn 0.9999063 0.01107506 0.008040485
vn 0.9998528 0.0150914 0.008167169
vn 0.9999439 0.00705854 0.007913672
vn 0.9999439 0.00705854 0.007913672
vn -0.008436724 0.01594912 0.9998372
vn -0.008382302 0.01189689 0.9998941
vn -0.008382302 0.01189689 0.9998941
vn -0.008436724 0.01594912 0.9998372
vn -0.008327741 0.007844458 0.9999346
vn -0.008327741 0.007844458 0.9999346
vn 0.008505033 0.01594912 -0.9998366
vn 0.008505033 0.01594912 -0.9998366
vn 0.00866516 0.01189156 -0.9998918
vn 0.00866516 0.01189156 -0.9998918
vn 0.008825143 0.007833796 -0.9999304
vn 0.008825143 0.007833796 -0.9999304
vn -0.999904 0.01107502 -0.008331275
vn -0.999904 0.01107502 -0.008331275
vn -0.9998528 0.0150914 -0.008166631
vn -0.9998528 0.0150914 -0.008166631
vn -0.999939 0.00705846 -0.008495783
vn -0.999939 0.00705846 -0.008495783

vt 0.9267578 0.4597168
vt 0.925293 0.4597168
vt 0.9248047 0.4602051
vt 0.9262695 0.4602051
vt 0.9848633 0.4594727
vt 0.9853516 0.4594727
vt 0.9873047 0.4594727
vt 0.9873047 0.4594727
vt 0.9262695 0.4597168
vt 0.925293 0.4597168
vt 0.9257813 0.4602051
vt 0.9267578 0.4602051
vt 0.8989258 0.4599609
vt 0.8994141 0.4599609
vt 0.8994141 0.4594727
vt 0.8984375 0.4594727
vt 0.8979492 0.4597168
vt 0.8979492 0.4597168
vt 0.8974609 0.4599609
vt 0.8979492 0.4599609
vt 0.9248047 0.4599609
vt 0.9277344 0.4599609
vt 0.9277344 0.4592285
vt 0.925293 0.4594727
vt 0.984375 0.4594727
vt 0.9848633 0.4594727
vt 0.987793 0.4594727
vt 0.987793 0.4594727
vt 0.8383789 0.4602051
vt 0.8383789 0.4589844
vt 0.8310547 0.4589844
vt 0.8310547 0.4602051
vt 0.8974609 0.4599609
vt 0.8994141 0.4599609
vt 0.8994141 0.4597168
vt 0.8974609 0.4597168
vt 0.8994141 0.4597168
vt 0.8979492 0.4597168
vt 0.8974609 0.4599609
vt 0.8994141 0.4599609
vt 0.925293 0.4602051
vt 0.9272461 0.4602051
vt 0.9272461 0.4597168
vt 0.9248047 0.4597168
vt 0.8662109 0.4606934
vt 0.871582 0.4606934
vt 0.871582 0.4592285
vt 0.8662109 0.4594727
vt 0.8999023 0.4599609
vt 0.8994141 0.4599609
vt 0.8994141 0.4599609
vt 0.8999023 0.4599609
vt 0.8623047 0.4606934
vt 0.8662109 0.4606934
vt 0.8662109 0.4594727
vt 0.8623047 0.4592285
vt 0.8325195 0.4606934
vt 0.8374023 0.4606934
vt 0.8374023 0.4602051
vt 0.8325195 0.4602051
vt 0.8999023 0.4599609
vt 0.8999023 0.4599609
vt 0.8994141 0.4599609
vt 0.8999023 0.4599609
vt 0.8999023 0.4599609
vt 0.8994141 0.4599609
vt 0.8999023 0.4599609
vt 0.8999023 0.4599609
vt 0.9267578 0.4597168
vt 0.925293 0.4597168
vt 0.9248047 0.4602051
vt 0.9262695 0.4602051
vt 0.9848633 0.4594727
vt 0.9853516 0.4594727
vt 0.9873047 0.4594727
vt 0.9873047 0.4594727
vt 0.9262695 0.4597168
vt 0.925293 0.4597168
vt 0.9257813 0.4602051
vt 0.9267578 0.4602051
vt 0.8989258 0.4599609
vt 0.8994141 0.4599609
vt 0.8994141 0.4594727
vt 0.8984375 0.4594727
vt 0.8979492 0.4597168
vt 0.8979492 0.4597168
vt 0.8974609 0.4599609
vt 0.8979492 0.4599609
vt 0.9301758 0.5073242
vt 0.9301758 0.5073242
vt 0.9306641 0.5073242
vt 0.9306641 0.5073242
vt 0.9301758 0.5073242
vt 0.9301758 0.5073242
vt 0.9306641 0.5073242
vt 0.9306641 0.5073242
vt 0.9248047 0.4602051
vt 0.9262695 0.4602051
vt 0.9267578 0.4599609
vt 0.925293 0.4597168
vt 0.9267578 0.4597168
vt 0.9873047 0.4594727
vt 0.9848633 0.4594727
vt 0.9848633 0.4594727
vt 0.9873047 0.4594727
vt 0.9853516 0.4594727
vt 0.9873047 0.4594727
vt 0.9257813 0.4602051
vt 0.9267578 0.4602051
vt 0.925293 0.4599609
vt 0.9262695 0.4597168
vt 0.925293 0.4597168
vt 0.8989258 0.4599609
vt 0.8994141 0.4599609
vt 0.8994141 0.4594727
vt 0.8984375 0.4594727
vt 0.8979492 0.4597168
vt 0.8979492 0.4597168
vt 0.8974609 0.4599609
vt 0.8974609 0.4599609
vt 0.8979492 0.4599609
vt 0.9296875 0.5063477
vt 0.9296875 0.5063477
vt 0.9301758 0.5063477
vt 0.9301758 0.5063477
vt 0.9301758 0.5068359
vt 0.9296875 0.5068359
vt 0.9458008 0.5063477
vt 0.9458008 0.5068359
vt 0.9472656 0.5068359
vt 0.9472656 0.5063477
vt 0.9458008 0.5068359
vt 0.9472656 0.5068359
vt 0.9492188 0.5063477
vt 0.9472656 0.5063477
vt 0.9472656 0.5068359
vt 0.9487305 0.5068359
vt 0.9487305 0.5068359
vt 0.9477539 0.5068359
vt 0.9306641 0.5063477
vt 0.9311523 0.5063477
vt 0.9311523 0.5063477
vt 0.9306641 0.5063477
vt 0.9311523 0.5068359
vt 0.9306641 0.5068359

g SF_Env_Tree_09_1555_6
usemtl SF_Env_Tree_09_1555_6
usemap SF_Env_Tree_09_1555_6
f 1/1/1 3/3/3 2/2/2
f 1/1/1 4/4/4 3/3/3
f 5/5/5 7/7/7 6/6/6
f 5/5/5 8/8/8 7/7/7
f 9/9/9 11/11/11 10/10/10
f 9/9/9 12/12/12 11/11/11
f 13/13/13 15/15/15 14/14/14
f 13/13/13 16/16/16 15/15/15
f 17/17/17 19/19/19 18/18/18
f 17/17/17 20/20/20 19/19/19
f 21/21/21 23/23/23 22/22/22
f 21/21/21 24/24/24 23/23/23
f 25/25/25 27/27/27 26/26/26
f 25/25/25 28/28/28 27/27/27
f 29/29/29 31/31/31 30/30/30
f 29/29/29 32/32/32 31/31/31
f 33/33/33 35/35/35 34/34/34
f 33/33/33 36/36/36 35/35/35
f 37/37/37 39/39/39 38/38/38
f 37/37/37 40/40/40 39/39/39
f 41/41/41 43/43/43 42/42/42
f 41/41/41 44/44/44 43/43/43
f 45/45/45 47/47/47 46/46/46
f 45/45/45 48/48/48 47/47/47
f 49/49/49 51/51/51 50/50/50
f 49/49/49 52/52/52 51/51/51
f 53/53/53 55/55/55 54/54/54
f 53/53/53 56/56/56 55/55/55
f 57/57/57 59/59/59 58/58/58
f 57/57/57 60/60/60 59/59/59
f 61/61/61 63/63/63 62/62/62
f 61/61/61 64/64/64 63/63/63
f 65/65/65 67/67/67 66/66/66
f 65/65/65 68/68/68 67/67/67
f 69/69/69 71/71/71 70/70/70
f 69/69/69 72/72/72 71/71/71
f 73/73/73 75/75/75 74/74/74
f 73/73/73 76/76/76 75/75/75
f 77/77/77 79/79/79 78/78/78
f 77/77/77 80/80/80 79/79/79
f 81/81/81 83/83/83 82/82/82
f 81/81/81 84/84/84 83/83/83
f 85/85/85 87/87/87 86/86/86
f 85/85/85 88/88/88 87/87/87
f 89/89/89 91/91/91 90/90/90
f 89/89/89 92/92/92 91/91/91
f 93/93/93 95/95/95 94/94/94
f 93/93/93 96/96/96 95/95/95
f 97/97/97 99/99/99 98/98/98
f 99/99/99 97/97/97 100/100/100
f 99/99/99 100/100/100 101/101/101
f 102/102/102 104/104/104 103/103/103
f 102/102/102 105/105/105 104/104/104
f 105/105/105 106/106/106 104/104/104
f 105/105/105 107/107/107 106/106/106
f 108/108/108 110/110/110 109/109/109
f 111/111/111 109/109/109 110/110/110
f 111/111/111 110/110/110 112/112/112
f 113/113/113 115/115/115 114/114/114
f 113/113/113 116/116/116 115/115/115
f 117/117/117 119/119/119 118/118/118
f 117/117/117 121/121/121 120/120/120
f 122/122/122 124/124/124 123/123/123
f 122/122/122 125/125/125 124/124/124
f 123/123/123 124/124/124 126/126/126
f 123/123/123 126/126/126 127/127/127
f 128/128/128 130/130/130 129/129/129
f 128/128/128 131/131/131 130/130/130
f 132/132/132 129/129/129 130/130/130
f 132/132/132 130/130/130 133/133/133
f 134/134/134 136/136/136 135/135/135
f 134/134/134 137/137/137 136/136/136
f 136/136/136 137/137/137 138/138/138
f 136/136/136 138/138/138 139/139/139
f 140/140/140 142/142/142 141/141/141
f 140/140/140 143/143/143 142/142/142
f 144/144/144 140/140/140 141/141/141
f 144/144/144 145/145/145 140/140/140
