#SkyDome_1330_140.obj

v 0 26.12848 0
v 9.001456 25.13398 0
v 2.781572 25.13398 -8.560886
v 11.91787 23.37001 -8.658844
v 17.31763 22.22622 0
v 5.351439 22.22622 -16.47007
v 20.35257 19.34547 -8.7185
v 24.31562 17.62648 0
v 14.58103 19.34547 -16.66226
v 7.513948 17.62648 -23.12554
v 27.09719 13.21373 -8.560886
v 29.46254 11.68503 0
v 22.66912 13.73654 -16.47007
v 16.51535 13.21373 -23.12554
v 9.104452 11.68503 -28.02057
v -7.282302 25.13398 -5.290943
v -4.552199 23.37001 -14.01028
v -14.01028 22.22622 -10.17909
v -2.002481 19.34547 -22.05058
v -11.34099 19.34547 -19.01632
v -19.67175 17.62648 -14.29235
v 0.2315919 13.21373 -28.41644
v -8.658843 13.73654 -26.64916
v -16.89013 13.21373 -22.85323
v -23.83569 11.68503 -17.31768
v -14.73129 23.37001 0
v -7.282302 25.13398 5.290891
v -14.01028 22.22622 10.17904
v -21.59013 19.34547 -4.909555
v -21.59013 19.34547 4.909504
v -19.67175 17.62648 14.29235
v -26.95406 13.21373 -9.001456
v -28.02056 13.73654 0
v -26.95406 13.21373 9.001405
v -23.83569 11.68503 17.31763
v 2.781572 25.13398 8.560834
v -4.552199 23.37001 14.01028
v 5.351439 22.22622 16.47007
v -11.34094 19.34547 19.01633
v -2.002481 19.34547 22.05058
v 7.513948 17.62648 23.12549
v -16.89013 13.21373 22.85318
v -8.658843 13.73654 26.64911
v 0.2316447 13.21373 28.41638
v 9.104452 11.68503 28.02051
v 11.91787 23.37001 8.658791
v 14.58107 19.34547 16.66226
v 20.35257 19.34547 8.718446
v 16.51535 13.21373 23.12549
v 22.66912 13.73654 16.47007
v 27.09719 13.21373 8.560834
v 4.73232 6.073679 31.68637
v 14.79625 6.073679 28.41638
v 10.17904 0 31.32792
v 0 0 32.94014
v 19.36172 0 26.64911
v -5.055364 6.665984 31.44633
v -10.17904 0 31.32792
v -14.39382 6.665984 28.41208
v -19.36172 0 26.64911
v -22.45333 6.073679 22.85318
v -26.64911 0 19.36172
v -28.67316 6.073679 14.29235
v -31.32792 0 10.17904
v -31.46942 6.665984 4.909504
v -32.94014 0 0
v -31.46942 6.665984 -4.909555
v -31.32792 0 -10.17909
v -28.67316 6.073679 -14.29235
v -26.64911 0 -19.36172
v -22.45333 6.073679 -22.85323
v -19.36172 0 -26.64916
v -14.39382 6.665984 -28.41208
v -10.17904 0 -31.32792
v -5.055364 6.665984 -31.44633
v 0 0 -32.94014
v 4.73232 6.073679 -31.68638
v 10.17904 0 -31.32797
v 14.79625 6.073679 -28.41644
v 19.36172 0 -26.64916
v 22.57353 6.665984 -22.46917
v 26.64911 0 -19.36172
v 28.34503 6.665984 -14.52541
v 31.32792 0 -10.17909
v 31.59791 6.073679 -5.290943
v 32.94014 0 0
v 31.59791 6.073679 5.290891
v 31.32792 0 10.17904
v 28.34503 6.665984 14.52536
v 26.64911 0 19.36172
v 22.57353 6.665984 22.46912

vn 0 -1 0
vn -0.2103073 -0.9776353 0
vn -0.06498817 -0.9776354 0.2000142
vn -0.3031896 -0.9271206 0.2202806
vn -0.4385807 -0.8986918 0
vn -0.1355289 -0.8986917 0.4171151
vn -0.5442408 -0.8054955 0.2344761
vn -0.6641239 -0.7476226 0
vn -0.3911791 -0.8054957 0.4451467
vn -0.2052253 -0.7476237 0.631618
vn -0.7725192 -0.5895437 0.2359071
vn -0.8477685 -0.5303664 0
vn -0.6405489 -0.6108295 0.4653864
vn -0.4630833 -0.5895445 0.6618089
vn -0.2619744 -0.530365 0.8062768
vn 0.1701417 -0.9776354 0.1236156
vn 0.1158077 -0.9271206 0.3564211
vn 0.3548196 -0.8986917 0.2577915
vn 0.05482032 -0.805496 0.5900601
vn 0.3024787 -0.8054956 0.5095915
vn 0.5372872 -0.747623 0.3903617
vn -0.01435986 -0.5895438 0.8076088
vn 0.2446685 -0.6108296 0.7530104
vn 0.4863183 -0.5895441 0.6449282
vn 0.6858591 -0.5303656 0.4983066
vn 0.3747636 -0.9271203 0
vn 0.1701417 -0.9776354 -0.1236154
vn 0.3548195 -0.8986917 -0.2577911
vn 0.5781215 -0.8054956 0.1302011
vn 0.5781215 -0.8054957 -0.1302008
vn 0.5372872 -0.7476228 -0.3903622
vn 0.7636437 -0.5895443 0.2632221
vn 0.7917616 -0.6108302 0
vn 0.7636437 -0.5895445 -0.2632218
vn 0.6858588 -0.5303655 -0.4983073
vn -0.06498829 -0.9776354 -0.2000137
vn 0.1158081 -0.9271209 -0.3564203
vn -0.135529 -0.8986918 -0.417115
vn 0.3024788 -0.805495 -0.5095924
vn 0.05481981 -0.8054947 -0.590062
vn -0.2052257 -0.7476221 -0.6316198
vn 0.4863183 -0.5895441 -0.644928
vn 0.2446681 -0.6108305 -0.7530097
vn -0.01436126 -0.5895452 -0.8076077
vn -0.2619755 -0.5303666 -0.8062754
vn -0.3031895 -0.9271209 -0.2202794
vn -0.3911794 -0.8054953 -0.4451473
vn -0.5442413 -0.8054955 -0.2344748
vn -0.4630826 -0.5895429 -0.6618109
vn -0.64055 -0.6108281 -0.4653867
vn -0.7725195 -0.5895435 -0.235907
vn -0.1457597 -0.2981194 -0.943334
vn -0.4365585 -0.2981183 -0.8488476
vn -0.306488 -0.1277077 -0.9432687
vn 0.003681599 -0.1327678 -0.9911403
vn -0.5855565 -0.1327708 -0.7996846
vn 0.149986 -0.3212792 -0.9350314
vn 0.3059189 -0.1412689 -0.9415183
vn 0.4282582 -0.3212784 -0.8446153
vn 0.5795997 -0.1327677 -0.804013
vn 0.672399 -0.2981184 -0.6774991
vn 0.8023924 -0.1277067 -0.5829728
vn 0.8521229 -0.2981172 -0.4301311
vn 0.9437682 -0.132767 -0.3027778
vn 0.9356166 -0.3212778 -0.1462956
vn 0.9899706 -0.1412731 0
vn 0.9356164 -0.3212778 0.1462958
vn 0.9437678 -0.132768 0.3027788
vn 0.8521231 -0.2981162 0.4301312
vn 0.8023933 -0.1277057 0.5829719
vn 0.6723994 -0.2981174 0.6774991
vn 0.5795982 -0.1327689 0.8040138
vn 0.4282563 -0.3212774 0.8446167
vn 0.3059174 -0.1412701 0.9415186
vn 0.1499866 -0.3212764 0.9350323
vn 0.003683404 -0.1327691 0.9911402
vn -0.145757 -0.298118 0.9433349
vn -0.306485 -0.1277101 0.9432693
vn -0.4365572 -0.2981183 0.8488482
vn -0.5855576 -0.1327699 0.799684
vn -0.6709399 -0.3212776 0.6682966
vn -0.8009034 -0.1412713 0.5818902
vn -0.8429196 -0.3212772 0.4315872
vn -0.9414922 -0.132767 0.3097829
vn -0.942206 -0.2981184 0.1528831
vn -0.991812 -0.1277067 0
vn -0.942206 -0.2981184 -0.1528833
vn -0.9414922 -0.1327677 -0.3097823
vn -0.8429199 -0.3212774 -0.4315866
vn -0.8009027 -0.1412743 -0.5818903
vn -0.670939 -0.321278 -0.6682973

vt 0.4997559 0.9648438
vt 0.4997559 0.9321289
vt 0.4997559 0.9321289
vt 0.4997559 0.8740234
vt 0.4997559 0.8359375
vt 0.4997559 0.8359375
vt 0.4997559 0.7407227
vt 0.4997559 0.684082
vt 0.4997559 0.7407227
vt 0.4997559 0.684082
vt 0.4997559 0.5380859
vt 0.4997559 0.4875488
vt 0.4997559 0.5551758
vt 0.4997559 0.5380859
vt 0.4997559 0.4875488
vt 0.4997559 0.9321289
vt 0.4997559 0.8740234
vt 0.4997559 0.8359375
vt 0.4997559 0.7407227
vt 0.4997559 0.7407227
vt 0.4997559 0.684082
vt 0.4997559 0.5380859
vt 0.4997559 0.5551758
vt 0.4997559 0.5380859
vt 0.4997559 0.4875488
vt 0.4997559 0.8740234
vt 0.4997559 0.9321289
vt 0.4997559 0.8359375
vt 0.4997559 0.7407227
vt 0.4997559 0.7407227
vt 0.4997559 0.684082
vt 0.4997559 0.5380859
vt 0.4997559 0.5551758
vt 0.4997559 0.5380859
vt 0.4997559 0.4875488
vt 0.4997559 0.9321289
vt 0.4997559 0.8740234
vt 0.4997559 0.8359375
vt 0.4997559 0.7407227
vt 0.4997559 0.7407227
vt 0.4997559 0.684082
vt 0.4997559 0.5380859
vt 0.4997559 0.5551758
vt 0.4997559 0.5380859
vt 0.4997559 0.4875488
vt 0.4997559 0.8740234
vt 0.4997559 0.7407227
vt 0.4997559 0.7407227
vt 0.4997559 0.5380859
vt 0.4997559 0.5551758
vt 0.4997559 0.5380859
vt 0.4997559 0.302002
vt 0.4997559 0.302002
vt 0.4997559 0.1012573
vt 0.4997559 0.1012573
vt 0.4997559 0.1012573
vt 0.4997559 0.3215332
vt 0.4997559 0.1012573
vt 0.4997559 0.3215332
vt 0.4997559 0.1012573
vt 0.4997559 0.302002
vt 0.4997559 0.1012573
vt 0.4997559 0.302002
vt 0.4997559 0.1012573
vt 0.4997559 0.3215332
vt 0.4997559 0.1012573
vt 0.4997559 0.3215332
vt 0.4997559 0.1012573
vt 0.4997559 0.302002
vt 0.4997559 0.1012573
vt 0.4997559 0.302002
vt 0.4997559 0.1012573
vt 0.4997559 0.3215332
vt 0.4997559 0.1012573
vt 0.4997559 0.3215332
vt 0.4997559 0.1012573
vt 0.4997559 0.302002
vt 0.4997559 0.1012573
vt 0.4997559 0.302002
vt 0.4997559 0.1012573
vt 0.4997559 0.3215332
vt 0.4997559 0.1012573
vt 0.4997559 0.3215332
vt 0.4997559 0.1012573
vt 0.4997559 0.302002
vt 0.4997559 0.1012573
vt 0.4997559 0.302002
vt 0.4997559 0.1012573
vt 0.4997559 0.3215332
vt 0.4997559 0.1012573
vt 0.4997559 0.3215332

g SkyDome_1330_140
usemtl SkyDome_1330_140
usemap SkyDome_1330_140
f 1/1/1 3/3/3 2/2/2
f 2/2/2 3/3/3 4/4/4
f 2/2/2 4/4/4 5/5/5
f 3/3/3 6/6/6 4/4/4
f 5/5/5 4/4/4 7/7/7
f 5/5/5 7/7/7 8/8/8
f 4/4/4 9/9/9 7/7/7
f 4/4/4 6/6/6 9/9/9
f 6/6/6 10/10/10 9/9/9
f 8/8/8 7/7/7 11/11/11
f 8/8/8 11/11/11 12/12/12
f 7/7/7 13/13/13 11/11/11
f 7/7/7 9/9/9 13/13/13
f 9/9/9 14/14/14 13/13/13
f 9/9/9 10/10/10 14/14/14
f 10/10/10 15/15/15 14/14/14
f 1/1/1 16/16/16 3/3/3
f 3/3/3 17/17/17 6/6/6
f 3/3/3 16/16/16 17/17/17
f 16/16/16 18/18/18 17/17/17
f 6/6/6 19/19/19 10/10/10
f 6/6/6 17/17/17 19/19/19
f 17/17/17 20/20/20 19/19/19
f 17/17/17 18/18/18 20/20/20
f 18/18/18 21/21/21 20/20/20
f 10/10/10 22/22/22 15/15/15
f 10/10/10 19/19/19 22/22/22
f 19/19/19 23/23/23 22/22/22
f 19/19/19 20/20/20 23/23/23
f 20/20/20 24/24/24 23/23/23
f 20/20/20 21/21/21 24/24/24
f 21/21/21 25/25/25 24/24/24
f 16/16/16 26/26/26 18/18/18
f 16/16/16 27/27/27 26/26/26
f 1/1/1 27/27/27 16/16/16
f 27/27/27 28/28/28 26/26/26
f 18/18/18 29/29/29 21/21/21
f 18/18/18 26/26/26 29/29/29
f 26/26/26 30/30/30 29/29/29
f 26/26/26 28/28/28 30/30/30
f 28/28/28 31/31/31 30/30/30
f 21/21/21 32/32/32 25/25/25
f 21/21/21 29/29/29 32/32/32
f 29/29/29 33/33/33 32/32/32
f 29/29/29 30/30/30 33/33/33
f 30/30/30 34/34/34 33/33/33
f 30/30/30 31/31/31 34/34/34
f 31/31/31 35/35/35 34/34/34
f 1/1/1 36/36/36 27/27/27
f 27/27/27 37/37/37 28/28/28
f 27/27/27 36/36/36 37/37/37
f 36/36/36 38/38/38 37/37/37
f 28/28/28 39/39/39 31/31/31
f 28/28/28 37/37/37 39/39/39
f 37/37/37 40/40/40 39/39/39
f 37/37/37 38/38/38 40/40/40
f 38/38/38 41/41/41 40/40/40
f 31/31/31 42/42/42 35/35/35
f 31/31/31 39/39/39 42/42/42
f 39/39/39 43/43/43 42/42/42
f 39/39/39 40/40/40 43/43/43
f 40/40/40 44/44/44 43/43/43
f 40/40/40 41/41/41 44/44/44
f 41/41/41 45/45/45 44/44/44
f 36/36/36 46/46/46 38/38/38
f 36/36/36 2/2/2 46/46/46
f 1/1/1 2/2/2 36/36/36
f 2/2/2 5/5/5 46/46/46
f 38/38/38 47/47/47 41/41/41
f 38/38/38 46/46/46 47/47/47
f 46/46/46 48/48/48 47/47/47
f 46/46/46 5/5/5 48/48/48
f 5/5/5 8/8/8 48/48/48
f 41/41/41 49/49/49 45/45/45
f 41/41/41 47/47/47 49/49/49
f 47/47/47 50/50/50 49/49/49
f 47/47/47 48/48/48 50/50/50
f 48/48/48 51/51/51 50/50/50
f 48/48/48 8/8/8 51/51/51
f 8/8/8 12/12/12 51/51/51
f 52/52/52 44/44/44 45/45/45
f 45/45/45 53/53/53 52/52/52
f 53/53/53 45/45/45 49/49/49
f 52/52/52 53/53/53 54/54/54
f 52/52/52 54/54/54 55/55/55
f 53/53/53 56/56/56 54/54/54
f 55/55/55 57/57/57 52/52/52
f 55/55/55 58/58/58 57/57/57
f 58/58/58 59/59/59 57/57/57
f 58/58/58 60/60/60 59/59/59
f 60/60/60 61/61/61 59/59/59
f 61/61/61 60/60/60 62/62/62
f 63/63/63 61/61/61 62/62/62
f 35/35/35 61/61/61 63/63/63
f 63/63/63 62/62/62 64/64/64
f 64/64/64 65/65/65 63/63/63
f 64/64/64 66/66/66 65/65/65
f 66/66/66 67/67/67 65/65/65
f 66/66/66 68/68/68 67/67/67
f 68/68/68 69/69/69 67/67/67
f 69/69/69 68/68/68 70/70/70
f 71/71/71 69/69/69 70/70/70
f 25/25/25 69/69/69 71/71/71
f 71/71/71 70/70/70 72/72/72
f 72/72/72 73/73/73 71/71/71
f 72/72/72 74/74/74 73/73/73
f 74/74/74 75/75/75 73/73/73
f 74/74/74 76/76/76 75/75/75
f 76/76/76 77/77/77 75/75/75
f 77/77/77 76/76/76 78/78/78
f 79/79/79 77/77/77 78/78/78
f 15/15/15 77/77/77 79/79/79
f 79/79/79 78/78/78 80/80/80
f 80/80/80 81/81/81 79/79/79
f 80/80/80 82/82/82 81/81/81
f 82/82/82 83/83/83 81/81/81
f 82/82/82 84/84/84 83/83/83
f 84/84/84 85/85/85 83/83/83
f 85/85/85 84/84/84 86/86/86
f 87/87/87 85/85/85 86/86/86
f 12/12/12 85/85/85 87/87/87
f 87/87/87 86/86/86 88/88/88
f 79/79/79 14/14/14 15/15/15
f 79/79/79 81/81/81 14/14/14
f 81/81/81 13/13/13 14/14/14
f 81/81/81 83/83/83 13/13/13
f 83/83/83 11/11/11 13/13/13
f 83/83/83 85/85/85 11/11/11
f 85/85/85 12/12/12 11/11/11
f 88/88/88 89/89/89 87/87/87
f 88/88/88 90/90/90 89/89/89
f 90/90/90 91/91/91 89/89/89
f 90/90/90 56/56/56 91/91/91
f 56/56/56 53/53/53 91/91/91
f 87/87/87 51/51/51 12/12/12
f 87/87/87 89/89/89 51/51/51
f 89/89/89 50/50/50 51/51/51
f 89/89/89 91/91/91 50/50/50
f 91/91/91 49/49/49 50/50/50
f 91/91/91 53/53/53 49/49/49
f 71/71/71 24/24/24 25/25/25
f 71/71/71 73/73/73 24/24/24
f 73/73/73 23/23/23 24/24/24
f 73/73/73 75/75/75 23/23/23
f 75/75/75 22/22/22 23/23/23
f 75/75/75 77/77/77 22/22/22
f 77/77/77 15/15/15 22/22/22
f 69/69/69 25/25/25 32/32/32
f 67/67/67 69/69/69 32/32/32
f 67/67/67 32/32/32 33/33/33
f 65/65/65 67/67/67 33/33/33
f 65/65/65 33/33/33 34/34/34
f 63/63/63 65/65/65 34/34/34
f 63/63/63 34/34/34 35/35/35
f 61/61/61 35/35/35 42/42/42
f 59/59/59 61/61/61 42/42/42
f 59/59/59 42/42/42 43/43/43
f 57/57/57 59/59/59 43/43/43
f 57/57/57 43/43/43 44/44/44
f 52/52/52 57/57/57 44/44/44
