#SM_Env_GroundLeaves_03_(1)_1394_70.obj

v 0.04477108 0.6004409 0.1063151
v 0.02132428 0.5758147 0.1864898
v -0.01823897 0.6096948 0.1620502
v 0.01294993 0.6307074 0.07449893
v -0.04565531 0.6099697 0.158672
v -0.07877433 0.6016487 0.1008899
v -0.04195863 0.6312442 0.07208761
v 0.01294993 0.6307074 0.07449893
v -0.01823897 0.6096948 0.1620502
v -0.04195863 0.6312442 0.07208761
v -0.04565531 0.6099697 0.158672
v -0.01300989 0.6072356 0.03847637
v 0.01294993 0.6307074 0.07449893
v -0.04195863 0.6312442 0.07208761
v -0.08997251 0.2383588 0.09854458
v -0.1838819 0.1915555 0.1189842
v -0.1775504 0.2296658 0.0710956
v -0.2176389 0.188967 0.04378249
v -0.1406087 0.234476 -0.01425844
v -0.09706302 0.2730457 0.004565341
v -0.1775504 0.2296658 0.0710956
v -0.1775504 0.2296658 0.0710956
v -0.09706302 0.2730457 0.004565341
v -0.05158228 0.2587005 0.01468423
v -0.08997251 0.2383588 0.09854458
v -0.1775504 0.2296658 0.0710956
v -0.05158228 0.2587005 0.01468423
v 0.02090456 0.8058711 0.05910579
v 0.04069795 0.7434224 0.1279161
v -0.01212794 0.7289378 0.1401943
v -0.03192133 0.7913865 0.07138402
v 0.06083288 0.7719514 0.07071079
v 0.04069795 0.7434224 0.1279161
v 0.02090456 0.8058711 0.05910579
v 0.02286276 0.5104361 -0.09801479
v 0.08813954 0.4812153 -0.1526182
v 0.03216535 0.5419936 -0.05448581
v 0.1068506 0.515895 -0.1093359
v 0.03216535 0.5419936 -0.05448581
v 0.1068506 0.515895 -0.1093359
v 0.1276504 0.5160197 -0.09116185
v 0.0763577 0.5419936 -0.02180434
v 0.1276504 0.5160197 -0.09116185
v 0.1222965 0.5104361 -0.02448207
v 0.0763577 0.5419936 -0.02180434
v -0.08270553 0.1638227 -0.1916009
v 0.0244741 0.1699737 -0.1197873
v -0.1015786 0.2041012 -0.1230304
v 0.01826288 0.2048034 -0.05099292
v -0.171502 0.1723328 -0.110142
v -0.1015786 0.2041012 -0.1230304
v -0.04093551 0.2104768 0.003313003
v -0.1087219 0.1827388 0.002401453
v -0.1015786 0.2041012 -0.1230304
v 0.01826288 0.2048034 -0.05099292
v -0.04093551 0.2104768 0.003313003
v -0.01769364 0.3936239 -0.08794752
v -0.1091709 0.3850749 -0.05667247
v -0.06545363 0.349731 -0.1205341
v 0.05048933 0.3851855 -0.01614909
v -0.01769364 0.3936239 -0.08794752
v 0.04098712 0.3498048 -0.09351853
v -0.1091709 0.3850749 -0.05667247
v -0.01769364 0.3936239 -0.08794752
v -0.09341606 0.3982987 -0.01037163
v 0.05048933 0.3851855 -0.01614909
v -0.09341606 0.3982987 -0.01037163
v -0.01769364 0.3936239 -0.08794752
v -0.08677943 0.6317002 0.1115051
v -0.1703775 0.5723252 0.09803605
v -0.16107 0.6196197 0.03928925
v -0.06398308 0.6780989 0.06144046
v -0.1819488 0.5666032 -0.01101754
v -0.1041357 0.6231172 -0.052076
v -0.07169635 0.6742842 -0.01126193
v -0.06398308 0.6780989 0.06144046
v -0.16107 0.6196197 0.03928925
v -0.07169635 0.6742842 -0.01126193
v -0.16107 0.6196197 0.03928925
v -0.1819488 0.5666032 -0.01101754
v -0.07169635 0.6742842 -0.01126193
v -0.01811222 0.6581988 0.02102258
v -0.06398308 0.6780989 0.06144046
v -0.07169635 0.6742842 -0.01126193
v 0.0873259 0.2274682 0.05133902
v 0.1460074 0.191685 0.1392645
v 0.09035884 0.2444928 0.1599106
v 0.03279 0.2762415 0.05985568
v 0.0736629 0.2075842 0.221298
v -0.02119146 0.251317 0.1743892
v 0.09035884 0.2444928 0.1599106
v -0.01543981 0.2868409 0.1145441
v -0.01543981 0.2868409 0.1145441
v -0.02212919 0.2565914 0.06151788
v 0.03279 0.2762415 0.05985568
v 0.09035884 0.2444928 0.1599106
v -0.01543981 0.2868409 0.1145441
v 0.03279 0.2762415 0.05985568
v 0.2001084 0.1901988 -0.01018796
v 0.1147145 0.2220792 0.0598868
v 0.1515075 0.2460361 -0.04581963
v 0.06271177 0.2734318 0.03493416
v 0.1552599 0.2130316 -0.1094346
v 0.1515075 0.2460361 -0.04581963
v 0.03281315 0.2886536 -0.03122951
v 0.0474416 0.2563284 -0.08898354
v 0.1515075 0.2460361 -0.04581963
v 0.06271177 0.2734318 0.03493416
v 0.03281315 0.2886536 -0.03122951
v -0.05807547 0.2570835 -0.08662232
v -0.04876604 0.2183643 -0.2137764
v -0.007296956 0.2713148 -0.1826235
v -0.02317888 0.3062887 -0.04598737
v 0.03323477 0.2331412 -0.221298
v 0.06492727 0.2792487 -0.0979055
v -0.007296956 0.2713148 -0.1826235
v 0.03148947 0.31614 -0.05100203
v -0.007296956 0.2713148 -0.1826235
v 0.03148947 0.31614 -0.05100203
v -0.02317888 0.3062887 -0.04598737
v 0.07880127 0.7389793 -0.1051068
v 0.1728629 0.7315732 -0.07561996
v 0.1415681 0.7651194 -0.02185292
v 0.1415681 0.7651194 -0.02185292
v 0.1699009 0.7279874 0.03413266
v 0.03923992 0.765539 0.01174769
v 0.07435814 0.7336004 0.05952248
v 0.1415681 0.7651194 -0.02185292
v 0.03923992 0.765539 0.01174769
v 0.07880127 0.7389793 -0.1051068
v -0.006618416 0.8231274 -0.03005156
v -0.1176556 0.7684712 0.01719042
v -0.1541871 0.715909 -0.07422189
v -0.006618416 0.8231274 -0.03005156
v -0.1541871 0.715909 -0.07422189
v -0.09722431 0.768186 -0.08795056
v -0.06753365 0.7227672 -0.1415468
v 0.01232414 0.7787588 -0.08379659
v -0.006618416 0.8231274 -0.03005156
v -0.09722431 0.768186 -0.08795056
v -0.01145092 0.8017012 0.02303695
v -0.06412805 0.7939889 0.04320794
v -0.006618416 0.8231274 -0.03005156
v -0.1176556 0.7684712 0.01719042
v -0.006618416 0.8231274 -0.03005156
v -0.06412805 0.7939889 0.04320794
v 0.1431016 0.5104362 0.01760711
v 0.2176389 0.4812156 0.1030082
v 0.1605235 0.5233547 0.1291327
v 0.08539502 0.5492362 0.03121054
v 0.1542083 0.4812156 0.1926521
v 0.04795733 0.5104362 0.1520725
v 0.04310889 0.5492362 0.09097286
v 0.1605235 0.5233547 0.1291327
v 0.08539502 0.5492362 0.03121054
v 0.1605235 0.5233547 0.1291327
v 0.04310889 0.5492362 0.09097286
v 0.03010734 0.5201764 0.03660849
v 0.08539502 0.5492362 0.03121054
v 0.04310889 0.5492362 0.09097286
v -0.1052488 0.5104362 0.07281169
v -0.1789697 0.4812156 -0.01329452
v -0.1216088 0.5233547 -0.03887485
v -0.04741541 0.5492362 0.05975701
v -0.1146914 0.4812156 -0.1023312
v -0.008830501 0.5104362 -0.0607437
v -0.004562684 0.5492362 0.0003992302
v -0.1216088 0.5233547 -0.03887485
v -0.04741541 0.5492362 0.05975701
v -0.1216088 0.5233547 -0.03887485
v -0.004562684 0.5492362 0.0003992302
v 0.007921227 0.5201764 0.05488504
v -0.04741541 0.5492362 0.05975701
v -0.004562684 0.5492362 0.0003992302
v -0.02416898 0 0.0226916
v -0.01660259 0.779559 0.02132845
v 0.001836003 0.779559 0.02526003
v 0.009402402 0 0.02985042
v -0.01660259 0.779559 0.02132845
v -0.00541731 0.779559 0.01407552
v 0.001836003 0.779559 0.02526003
v -0.00541731 0.779559 0.01407552
v -0.003804071 0 0.00948589
v 0.009402402 0 0.02985042
v 0.001836003 0.779559 0.02526003
v -0.003804071 0 0.00948589
v -0.02416898 0 0.0226916
v 0.009402402 0 0.02985042
v -0.003804071 0 0.00948589
v -0.00541731 0.779559 0.01407552
v -0.01660259 0.779559 0.02132845
v -0.02416898 0 0.0226916

vn 0.4446564 0.8170464 0.3670368
vn 0.4547088 0.8053435 0.3803442
vn 0.4446564 0.8170464 0.3670368
vn 0.4344194 0.82841 0.3535769
vn -0.5258244 0.8309545 0.1817233
vn -0.5258244 0.8309545 0.1817233
vn -0.5258244 0.8309545 0.1817233
vn 0 0.9724457 0.2331293
vn -0.009780472 0.9718336 0.2354651
vn -0.009780472 0.9718336 0.2354651
vn -0.01955995 0.9711227 0.2377769
vn 0.03276352 0.8264245 -0.5620934
vn 0.03276352 0.8264245 -0.5620934
vn 0.03276352 0.8264245 -0.5620934
vn -0.2585502 0.7722267 0.5803601
vn -0.2585502 0.7722267 0.5803601
vn -0.2585502 0.7722267 0.5803601
vn -0.6047814 0.7665113 -0.2161014
vn -0.6026512 0.774409 -0.1926195
vn -0.6047814 0.7665113 -0.2161014
vn -0.6065378 0.7581397 -0.2394497
vn 0.1035145 0.7712204 0.6280954
vn 0.1035145 0.7712204 0.6280954
vn 0.1035145 0.7712204 0.6280954
vn -0.1493689 0.9744083 0.1679801
vn -0.1493689 0.9744083 0.1679801
vn -0.1493689 0.9744083 0.1679801
vn -0.04349316 0.7335498 0.6782426
vn -0.04349407 0.73355 0.6782423
vn -0.04349316 0.7335498 0.6782426
vn -0.04349225 0.7335497 0.6782428
vn 0.4598219 0.7193926 0.5206134
vn 0.4598219 0.7193926 0.5206134
vn 0.4598219 0.7193926 0.5206134
vn -0.109882 0.8157326 -0.5678965
vn -0.1276929 0.8089436 -0.5738509
vn -0.1276929 0.8089436 -0.5738509
vn -0.1454529 0.801832 -0.5795764
vn 0.1755943 0.9590893 -0.2220686
vn 0.1797385 0.9605322 -0.2123014
vn 0.1755943 0.9590893 -0.2220686
vn 0.17143 0.9575363 -0.2318104
vn 0.5670412 0.8157845 0.1138412
vn 0.5670412 0.8157845 0.1138412
vn 0.5670412 0.8157845 0.1138412
vn 0.245211 0.8638897 -0.4399616
vn 0.2462392 0.8686424 -0.4299146
vn 0.2462392 0.8686424 -0.4299146
vn 0.2472368 0.873287 -0.419814
vn -0.382604 0.9143015 0.1329176
vn -0.3880052 0.9109206 0.1402701
vn -0.382604 0.9143015 0.1329176
vn -0.3771665 0.9175957 0.1255524
vn 0.03430166 0.9971777 -0.06678383
vn 0.03430166 0.9971777 -0.06678383
vn 0.03430166 0.9971777 -0.06678383
vn -0.276152 0.7482789 -0.6031739
vn -0.276152 0.7482789 -0.6031739
vn -0.276152 0.7482789 -0.6031739
vn 0.5214085 0.7499872 -0.4070043
vn 0.5214085 0.7499872 -0.4070043
vn 0.5214085 0.7499872 -0.4070043
vn -0.1646493 0.9618066 -0.2186746
vn -0.1646493 0.9618066 -0.2186746
vn -0.1646493 0.9618066 -0.2186746
vn 0.09189064 0.9953256 0.02971617
vn 0.09189064 0.9953256 0.02971617
vn 0.09189064 0.9953256 0.02971617
vn -0.5489591 0.7065787 0.4465316
vn -0.5616131 0.6856989 0.4630418
vn -0.5489591 0.7065787 0.4465316
vn -0.5358284 0.7268445 0.4296335
vn -0.6617398 0.6768084 -0.3225381
vn -0.6617398 0.6768084 -0.3225381
vn -0.6617398 0.6768084 -0.3225381
vn -0.5176187 0.8555526 0.01002557
vn -0.5176187 0.8555526 0.01002557
vn -0.5176187 0.8555526 0.01002557
vn -0.6344838 0.6486791 -0.4202925
vn -0.6344838 0.6486791 -0.4202925
vn -0.6344838 0.6486791 -0.4202925
vn 0.3328943 0.9391618 -0.08459606
vn 0.3328943 0.9391618 -0.08459606
vn 0.3328943 0.9391618 -0.08459606
vn 0.6519605 0.7461016 -0.1352037
vn 0.6552789 0.7432531 -0.1348497
vn 0.6519605 0.7461016 -0.1352037
vn 0.6486295 0.7489356 -0.135555
vn 0.1206329 0.8359358 0.5354055
vn 0.1197258 0.8424125 0.5253637
vn 0.1197258 0.8424125 0.5253637
vn 0.1188014 0.8487681 0.5152465
vn -0.3142774 0.841114 -0.4401783
vn -0.3142774 0.841114 -0.4401783
vn -0.3142774 0.841114 -0.4401783
vn 0.3290249 0.9380841 0.1083548
vn 0.3290249 0.9380841 0.1083548
vn 0.3290249 0.9380841 0.1083548
vn 0.5737468 0.7328147 0.3657828
vn 0.5670643 0.7385102 0.3647477
vn 0.5670643 0.7385102 0.3647477
vn 0.5603374 0.7441478 0.3636839
vn 0.2631486 0.8659396 -0.4253251
vn 0.2569687 0.8639506 -0.4330778
vn 0.2631486 0.8659396 -0.4253251
vn 0.2693015 0.8678401 -0.4175289
vn 0.3438636 0.9370878 0.06020069
vn 0.3438636 0.9370878 0.06020069
vn 0.3438636 0.9370878 0.06020069
vn -0.6786693 0.688018 -0.2569813
vn -0.6808264 0.6853032 -0.2585248
vn -0.6786693 0.688018 -0.2569813
vn -0.6765023 0.6907228 -0.2554341
vn 0.3883159 0.8260807 -0.4084132
vn 0.3800526 0.8330309 -0.4020194
vn 0.3800526 0.8330309 -0.4020194
vn 0.3717293 0.8398499 -0.3955622
vn -0.1944699 0.9446055 -0.2643895
vn -0.1944699 0.9446055 -0.2643895
vn -0.1944699 0.9446055 -0.2643895
vn 0.2040347 0.8794869 -0.4299681
vn 0.2040347 0.8794869 -0.4299681
vn 0.2040347 0.8794869 -0.4299681
vn 0.1632919 0.8582376 0.486584
vn 0.1679753 0.8656352 0.4716568
vn 0.1679753 0.8656352 0.4716568
vn 0.1726084 0.8727735 0.4565883
vn -0.07668228 0.9663342 -0.2455975
vn -0.07668228 0.9663342 -0.2455975
vn -0.07668228 0.9663342 -0.2455975
vn -0.5140215 0.8161786 -0.2638832
vn -0.5140215 0.8161786 -0.2638832
vn -0.5140215 0.8161786 -0.2638832
vn -0.6173747 0.7416207 0.2623873
vn -0.6173747 0.7416207 0.2623873
vn -0.6173747 0.7416207 0.2623873
vn -0.04950494 0.7556334 -0.6531213
vn -0.06295721 0.7586318 -0.6484706
vn -0.04950494 0.7556334 -0.6531213
vn -0.03604221 0.7524751 -0.6576338
vn 0.007816302 0.9270477 0.374862
vn 0.007816302 0.9270477 0.374862
vn 0.007816302 0.9270477 0.374862
vn -0.4363263 0.8996581 0.01531223
vn -0.4363263 0.8996581 0.01531223
vn -0.4363263 0.8996581 0.01531223
vn 0.5248501 0.8322904 -0.1783957
vn 0.5298597 0.8290231 -0.1787998
vn 0.5248501 0.8322904 -0.1783957
vn 0.5198217 0.8355278 -0.1779852
vn 0.01609742 0.839096 0.5437451
vn 0.02830272 0.8448481 0.5342571
vn 0.01609742 0.839096 0.5437451
vn 0.003887735 0.8331156 0.5530852
vn 0.1750468 0.9767385 0.1238572
vn 0.1750468 0.9767385 0.1238572
vn 0.1750468 0.9767385 0.1238572
vn -0.4643664 0.8224388 -0.32857
vn -0.4643664 0.8224388 -0.32857
vn -0.4643664 0.8224388 -0.32857
vn -0.5265239 0.8322903 0.173394
vn -0.5315384 0.8290221 0.1737505
vn -0.5265239 0.8322903 0.173394
vn -0.5214905 0.8355286 0.1730313
vn -0.01092824 0.8390963 -0.5438731
vn -0.02322314 0.8448485 -0.5345014
vn -0.01092824 0.8390963 -0.5438731
vn 0.001369637 0.8331159 -0.5530968
vn -0.173862 0.9767383 -0.1255166
vn -0.173862 0.9767383 -0.1255166
vn -0.173862 0.9767383 -0.1255166
vn 0.4612204 0.8224393 0.3329702
vn 0.4612204 0.8224393 0.3329702
vn 0.4612204 0.8224393 0.3329702
vn -0.2085453 0.003734177 0.9780056
vn -0.2085453 0.003734177 0.9780056
vn -0.2085453 0.003734177 0.9780056
vn -0.2085453 0.003734177 0.9780056
vn 0 1 0
vn 0 1 0
vn 0 1 0
vn 0.8390096 0.004939802 -0.5440943
vn 0.8390096 0.004939802 -0.5440943
vn 0.8390096 0.004939802 -0.5440943
vn 0.8390096 0.004939802 -0.5440943
vn 0 -1 0
vn 0 -1 0
vn 0 -1 0
vn -0.5440804 0.003814053 -0.8390245
vn -0.5440804 0.003814053 -0.8390245
vn -0.5440804 0.003814053 -0.8390245
vn -0.5440804 0.003814053 -0.8390245

vt 0.4465332 0.2888184
vt 0.4465332 0.2888184
vt 0.4465332 0.2888184
vt 0.4465332 0.2888184
vt 0.4465332 0.2888184
vt 0.4465332 0.2888184
vt 0.4465332 0.2888184
vt 0.4465332 0.2888184
vt 0.4465332 0.2888184
vt 0.4465332 0.2888184
vt 0.4465332 0.2888184
vt 0.4465332 0.2888184
vt 0.4465332 0.2888184
vt 0.4465332 0.2888184
vt 0.4465332 0.2888184
vt 0.4465332 0.2888184
vt 0.4465332 0.2888184
vt 0.4465332 0.2888184
vt 0.4465332 0.2888184
vt 0.4465332 0.2888184
vt 0.4465332 0.2888184
vt 0.4465332 0.2888184
vt 0.4465332 0.2888184
vt 0.4465332 0.2888184
vt 0.4465332 0.2888184
vt 0.4465332 0.2888184
vt 0.4465332 0.2888184
vt 0.4465332 0.2888184
vt 0.4465332 0.2888184
vt 0.4465332 0.2888184
vt 0.4465332 0.2888184
vt 0.4465332 0.2888184
vt 0.4465332 0.2888184
vt 0.4465332 0.2888184
vt 0.4465332 0.2888184
vt 0.4465332 0.2888184
vt 0.4465332 0.2888184
vt 0.4465332 0.2888184
vt 0.4465332 0.2888184
vt 0.4465332 0.2888184
vt 0.4465332 0.2888184
vt 0.4465332 0.2888184
vt 0.4465332 0.2888184
vt 0.4465332 0.2888184
vt 0.4465332 0.2888184
vt 0.4465332 0.2888184
vt 0.4465332 0.2888184
vt 0.4465332 0.2888184
vt 0.4465332 0.2888184
vt 0.4465332 0.2888184
vt 0.4465332 0.2888184
vt 0.4465332 0.2888184
vt 0.4465332 0.2888184
vt 0.4465332 0.2888184
vt 0.4465332 0.2888184
vt 0.4465332 0.2888184
vt 0.4465332 0.2888184
vt 0.4465332 0.2888184
vt 0.4465332 0.2888184
vt 0.4465332 0.2888184
vt 0.4465332 0.2888184
vt 0.4465332 0.2888184
vt 0.4465332 0.2888184
vt 0.4465332 0.2888184
vt 0.4465332 0.2888184
vt 0.4465332 0.2888184
vt 0.4465332 0.2888184
vt 0.4465332 0.2888184
vt 0.4465332 0.3037109
vt 0.4465332 0.3037109
vt 0.4465332 0.3037109
vt 0.4465332 0.3037109
vt 0.4465332 0.3037109
vt 0.4465332 0.3037109
vt 0.4465332 0.3037109
vt 0.4465332 0.3037109
vt 0.4465332 0.3037109
vt 0.4465332 0.3037109
vt 0.4465332 0.3037109
vt 0.4465332 0.3037109
vt 0.4465332 0.3037109
vt 0.4465332 0.3037109
vt 0.4465332 0.3037109
vt 0.4465332 0.3037109
vt 0.4465332 0.3037109
vt 0.4465332 0.3037109
vt 0.4465332 0.3037109
vt 0.4465332 0.3037109
vt 0.4465332 0.3037109
vt 0.4465332 0.3037109
vt 0.4465332 0.3037109
vt 0.4465332 0.3037109
vt 0.4465332 0.3037109
vt 0.4465332 0.3037109
vt 0.4465332 0.3037109
vt 0.4465332 0.3037109
vt 0.4465332 0.3037109
vt 0.4465332 0.3037109
vt 0.4465332 0.2888184
vt 0.4465332 0.2888184
vt 0.4465332 0.2888184
vt 0.4465332 0.2888184
vt 0.4465332 0.2888184
vt 0.4465332 0.2888184
vt 0.4465332 0.2888184
vt 0.4465332 0.2888184
vt 0.4465332 0.2888184
vt 0.4465332 0.2888184
vt 0.4465332 0.2888184
vt 0.4465332 0.3037109
vt 0.4465332 0.3037109
vt 0.4465332 0.3037109
vt 0.4465332 0.3037109
vt 0.4465332 0.3037109
vt 0.4465332 0.3037109
vt 0.4465332 0.3037109
vt 0.4465332 0.3037109
vt 0.4465332 0.3037109
vt 0.4465332 0.3037109
vt 0.4465332 0.3037109
vt 0.4465332 0.3037109
vt 0.4465332 0.3037109
vt 0.4465332 0.3037109
vt 0.4465332 0.3037109
vt 0.4465332 0.3037109
vt 0.4465332 0.3037109
vt 0.4465332 0.3037109
vt 0.4465332 0.3037109
vt 0.4465332 0.3037109
vt 0.4465332 0.3037109
vt 0.4465332 0.2888184
vt 0.4465332 0.2888184
vt 0.4465332 0.2888184
vt 0.4465332 0.2888184
vt 0.4465332 0.2888184
vt 0.4465332 0.2888184
vt 0.4465332 0.2888184
vt 0.4465332 0.2888184
vt 0.4465332 0.2888184
vt 0.4465332 0.2888184
vt 0.4465332 0.2888184
vt 0.4465332 0.2888184
vt 0.4465332 0.2888184
vt 0.4465332 0.2888184
vt 0.4465332 0.2888184
vt 0.4465332 0.2888184
vt 0.4465332 0.2888184
vt 0.4465332 0.2888184
vt 0.4465332 0.2888184
vt 0.4465332 0.2888184
vt 0.4465332 0.2888184
vt 0.4465332 0.2888184
vt 0.4465332 0.2888184
vt 0.4465332 0.2888184
vt 0.4465332 0.2888184
vt 0.4465332 0.2888184
vt 0.4465332 0.2888184
vt 0.4465332 0.2888184
vt 0.4465332 0.2888184
vt 0.4465332 0.2888184
vt 0.4465332 0.2888184
vt 0.4465332 0.2888184
vt 0.4465332 0.2888184
vt 0.4465332 0.2888184
vt 0.4465332 0.2888184
vt 0.4465332 0.2888184
vt 0.4465332 0.2888184
vt 0.4465332 0.2888184
vt 0.4465332 0.2888184
vt 0.4465332 0.2888184
vt 0.4465332 0.2888184
vt 0.4465332 0.2888184
vt 0.4465332 0.2888184
vt 0.4465332 0.2888184
vt 0.4465332 0.2602539
vt 0.4465332 0.2602539
vt 0.4465332 0.2602539
vt 0.4465332 0.2602539
vt 0.4465332 0.2602539
vt 0.4465332 0.2602539
vt 0.4465332 0.2602539
vt 0.4465332 0.2602539
vt 0.4465332 0.2602539
vt 0.4465332 0.2602539
vt 0.4465332 0.2602539
vt 0.4465332 0.2602539
vt 0.4465332 0.2602539
vt 0.4465332 0.2602539
vt 0.4465332 0.2602539
vt 0.4465332 0.2602539
vt 0.4465332 0.2602539
vt 0.4465332 0.2602539

g SM_Env_GroundLeaves_03_(1)_1394_70
usemtl SM_Env_GroundLeaves_03_(1)_1394_70
usemap SM_Env_GroundLeaves_03_(1)_1394_70
f 1/1/1 3/3/3 2/2/2
f 1/1/1 4/4/4 3/3/3
f 5/5/5 7/7/7 6/6/6
f 8/8/8 10/10/10 9/9/9
f 9/9/9 10/10/10 11/11/11
f 12/12/12 14/14/14 13/13/13
f 15/15/15 17/17/17 16/16/16
f 18/18/18 20/20/20 19/19/19
f 18/18/18 21/21/21 20/20/20
f 22/22/22 24/24/24 23/23/23
f 25/25/25 27/27/27 26/26/26
f 28/28/28 30/30/30 29/29/29
f 28/28/28 31/31/31 30/30/30
f 32/32/32 34/34/34 33/33/33
f 35/35/35 37/37/37 36/36/36
f 38/38/38 36/36/36 37/37/37
f 39/39/39 41/41/41 40/40/40
f 39/39/39 42/42/42 41/41/41
f 43/43/43 45/45/45 44/44/44
f 46/46/46 48/48/48 47/47/47
f 48/48/48 49/49/49 47/47/47
f 50/50/50 52/52/52 51/51/51
f 53/53/53 52/52/52 50/50/50
f 54/54/54 56/56/56 55/55/55
f 57/57/57 59/59/59 58/58/58
f 60/60/60 62/62/62 61/61/61
f 63/63/63 65/65/65 64/64/64
f 66/66/66 68/68/68 67/67/67
f 69/69/69 71/71/71 70/70/70
f 69/69/69 72/72/72 71/71/71
f 73/73/73 75/75/75 74/74/74
f 76/76/76 78/78/78 77/77/77
f 79/79/79 81/81/81 80/80/80
f 82/82/82 84/84/84 83/83/83
f 85/85/85 87/87/87 86/86/86
f 85/85/85 88/88/88 87/87/87
f 89/89/89 91/91/91 90/90/90
f 91/91/91 92/92/92 90/90/90
f 93/93/93 95/95/95 94/94/94
f 96/96/96 98/98/98 97/97/97
f 99/99/99 101/101/101 100/100/100
f 101/101/101 102/102/102 100/100/100
f 103/103/103 105/105/105 104/104/104
f 106/106/106 105/105/105 103/103/103
f 107/107/107 109/109/109 108/108/108
f 110/110/110 112/112/112 111/111/111
f 110/110/110 113/113/113 112/112/112
f 114/114/114 116/116/116 115/115/115
f 116/116/116 117/117/117 115/115/115
f 118/118/118 120/120/120 119/119/119
f 121/121/121 123/123/123 122/122/122
f 124/124/124 126/126/126 125/125/125
f 127/127/127 125/125/125 126/126/126
f 128/128/128 130/130/130 129/129/129
f 131/131/131 133/133/133 132/132/132
f 134/134/134 136/136/136 135/135/135
f 137/137/137 139/139/139 138/138/138
f 137/137/137 140/140/140 139/139/139
f 141/141/141 143/143/143 142/142/142
f 144/144/144 146/146/146 145/145/145
f 147/147/147 149/149/149 148/148/148
f 147/147/147 150/150/150 149/149/149
f 151/151/151 153/153/153 152/152/152
f 154/154/154 153/153/153 151/151/151
f 155/155/155 157/157/157 156/156/156
f 158/158/158 160/160/160 159/159/159
f 161/161/161 163/163/163 162/162/162
f 161/161/161 164/164/164 163/163/163
f 165/165/165 167/167/167 166/166/166
f 168/168/168 167/167/167 165/165/165
f 169/169/169 171/171/171 170/170/170
f 172/172/172 174/174/174 173/173/173
f 175/175/175 177/177/177 176/176/176
f 175/175/175 178/178/178 177/177/177
f 179/179/179 181/181/181 180/180/180
f 182/182/182 184/184/184 183/183/183
f 182/182/182 185/185/185 184/184/184
f 186/186/186 188/188/188 187/187/187
f 189/189/189 191/191/191 190/190/190
f 189/189/189 192/192/192 191/191/191
