#SR_Prop_Cone_32_787_16.obj

v -0.4123249 -2.980232E-08 0.4123201
v -0.4123249 0.2216797 0.4123201
v 0.4123249 0.2216797 0.4123201
v 0.4123249 -2.980232E-08 0.4123201
v -0.09078979 1.470218 0.09078693
v -0.09078979 1.470218 -0.09079266
v 0.09078979 1.470218 -0.09079266
v 0.09078979 1.470218 0.09078693
v -0.4123249 0.2216797 -0.4123259
v -0.4123249 -2.980232E-08 -0.4123259
v 0.4123249 -2.980232E-08 -0.4123259
v 0.4123249 0.2216797 -0.4123259
v -0.2603798 -2.980232E-08 -0.2603788
v -0.2603798 -2.980232E-08 0.2603731
v 0.2603798 -2.980232E-08 0.2603731
v 0.2603798 -2.980232E-08 -0.2603788
v 0.4123249 -2.980232E-08 0.4123201
v 0.4123249 0.2216797 0.4123201
v 0.4123249 0.2216797 -0.4123259
v 0.4123249 -2.980232E-08 -0.4123259
v -0.4123249 -2.980232E-08 -0.4123259
v -0.4123249 0.2216797 -0.4123259
v -0.4123249 0.2216797 0.4123201
v -0.4123249 -2.980232E-08 0.4123201
v -0.4123249 0.2216797 -0.4123259
v -0.269558 0.2216797 -0.269557
v -0.269558 0.2216797 0.2695589
v -0.4123249 0.2216797 0.4123201
v 0.4123249 0.2216797 -0.4123259
v 0.269558 0.2216797 -0.269557
v 0.4123249 0.2216797 0.4123201
v 0.269558 0.2216797 0.2695589
v -0.269558 0.2216797 -0.269557
v -0.2100468 0.6373054 -0.2100477
v -0.2100468 0.6373055 0.210042
v -0.269558 0.2216797 0.2695589
v -0.2100468 0.6373054 -0.2100477
v -0.269558 0.2216797 -0.269557
v 0.269558 0.2216797 -0.269557
v 0.2100487 0.6373054 -0.2100477
v 0.269558 0.2216797 0.2695589
v 0.2100487 0.6373055 0.210042
v 0.2100487 0.6373054 -0.2100477
v 0.269558 0.2216797 -0.269557
v -0.269558 0.2216797 0.2695589
v -0.2100468 0.6373055 0.210042
v 0.2100487 0.6373055 0.210042
v 0.269558 0.2216797 0.2695589
v -0.2100468 0.6373054 -0.2100477
v -0.1839352 0.8196648 -0.1839399
v -0.1839371 0.819665 0.1839342
v -0.2100468 0.6373055 0.210042
v -0.1839352 0.8196648 -0.1839399
v -0.2100468 0.6373054 -0.2100477
v 0.2100487 0.6373054 -0.2100477
v 0.1839409 0.8196648 -0.1839399
v 0.2100487 0.6373055 0.210042
v 0.1839371 0.819665 0.1839342
v 0.1839409 0.8196648 -0.1839399
v 0.2100487 0.6373054 -0.2100477
v -0.2100468 0.6373055 0.210042
v -0.1839371 0.819665 0.1839342
v 0.1839371 0.819665 0.1839342
v 0.2100487 0.6373055 0.210042
v -0.1839352 0.8196648 -0.1839399
v -0.09078979 1.470218 -0.09079266
v -0.09078979 1.470218 0.09078693
v -0.1839371 0.819665 0.1839342
v -0.09078979 1.470218 -0.09079266
v -0.1839352 0.8196648 -0.1839399
v 0.1839409 0.8196648 -0.1839399
v 0.09078979 1.470218 -0.09079266
v 0.1839371 0.819665 0.1839342
v 0.09078979 1.470218 0.09078693
v 0.09078979 1.470218 -0.09079266
v 0.1839409 0.8196648 -0.1839399
v -0.1839371 0.819665 0.1839342
v -0.09078979 1.470218 0.09078693
v 0.09078979 1.470218 0.09078693
v 0.1839371 0.819665 0.1839342
v -0.4123249 -2.980232E-08 -0.4123259
v -0.2603798 -2.980232E-08 -0.2603788
v 0.2603798 -2.980232E-08 -0.2603788
v 0.4123249 -2.980232E-08 -0.4123259
v 0.2603798 -2.980232E-08 0.2603731
v 0.4123249 -2.980232E-08 0.4123201
v -0.2603798 -2.980232E-08 0.2603731
v -0.4123249 -2.980232E-08 0.4123201

vn 0 0 1
vn 0 0 1
vn 0 0 1
vn 0 0 1
vn 0 1 0
vn 0 1 0
vn 0 1 0
vn 0 1 0
vn 0 0 -1
vn 0 0 -1
vn 0 0 -1
vn 0 0 -1
vn 0 -1 0
vn 0 -1 0
vn 0 -1 0
vn 0 -1 0
vn 1 0 0
vn 1 0 0
vn 1 0 0
vn 1 0 0
vn -1 0 0
vn -1 0 0
vn -1 0 0
vn -1 0 0
vn 0 1 0
vn 0 1 0
vn 0 1 0
vn 0 1 0
vn 0 1 0
vn 0 1 0
vn 0 1 0
vn 0 1 0
vn -0.989904 0.1417389 0
vn -0.9899042 0.1417379 0
vn -0.9899042 0.1417379 0
vn -0.989904 0.1417389 0
vn 0 0.1417316 -0.9899052
vn 0 0.1417372 -0.9899043
vn 0 0.1417372 -0.9899043
vn 0 0.1417316 -0.9899052
vn 0.9899047 0.1417345 0
vn 0.9899049 0.1417331 0
vn 0.9899049 0.1417331 0
vn 0.9899047 0.1417345 0
vn 0 0.1417372 0.9899043
vn 0 0.1417417 0.9899037
vn 0 0.1417417 0.9899037
vn 0 0.1417372 0.9899043
vn -0.9899042 0.1417379 0
vn -0.9899045 0.1417358 0
vn -0.9899045 0.1417358 0
vn -0.9899042 0.1417379 0
vn 0 0.1417323 -0.9899051
vn 0 0.1417316 -0.9899052
vn 0 0.1417316 -0.9899052
vn 0 0.1417323 -0.9899051
vn 0.9899049 0.1417331 0
vn 0.9899046 0.1417354 0
vn 0.9899046 0.1417354 0
vn 0.9899049 0.1417331 0
vn 0 0.1417417 0.9899037
vn 0 0.1417395 0.989904
vn 0 0.1417395 0.989904
vn 0 0.1417417 0.9899037
vn -0.9899045 0.1417358 0
vn -0.9899047 0.1417349 0
vn -0.9899047 0.1417349 0
vn -0.9899045 0.1417358 0
vn 0 0.1417386 -0.9899041
vn 0 0.1417323 -0.9899051
vn 0 0.1417323 -0.9899051
vn 0 0.1417386 -0.9899041
vn 0.9899046 0.1417354 0
vn 0.989904 0.1417391 0
vn 0.989904 0.1417391 0
vn 0.9899046 0.1417354 0
vn 0 0.1417395 0.989904
vn 0 0.1417329 0.9899049
vn 0 0.1417329 0.9899049
vn 0 0.1417395 0.989904
vn 0 -1 0
vn 0 -1 0
vn 0 -1 0
vn 0 -1 0
vn 0 -1 0
vn 0 -1 0
vn 0 -1 0
vn 0 -1 0

vt 0.2973633 0.3769531
vt 0.2973633 0.3769531
vt 0.2973633 0.3769531
vt 0.2973633 0.3769531
vt 0.3310547 0.3769531
vt 0.3310547 0.3769531
vt 0.3310547 0.3769531
vt 0.3310547 0.3769531
vt 0.2973633 0.3769531
vt 0.2973633 0.3769531
vt 0.2973633 0.3769531
vt 0.2973633 0.3769531
vt 0.1112061 0.3764648
vt 0.1112061 0.3764648
vt 0.1112061 0.3764648
vt 0.1112061 0.3764648
vt 0.2634277 0.3769531
vt 0.2634277 0.3769531
vt 0.2634277 0.3769531
vt 0.2634277 0.3769531
vt 0.2634277 0.3769531
vt 0.2634277 0.3769531
vt 0.2634277 0.3769531
vt 0.2634277 0.3769531
vt 0.3273926 0.3747559
vt 0.3273926 0.3747559
vt 0.3273926 0.3747559
vt 0.3273926 0.3747559
vt 0.3273926 0.3747559
vt 0.3273926 0.3747559
vt 0.3273926 0.3747559
vt 0.3273926 0.3747559
vt 0.2634277 0.3769531
vt 0.2634277 0.3769531
vt 0.2634277 0.3769531
vt 0.2634277 0.3769531
vt 0.2973633 0.3769531
vt 0.2973633 0.3769531
vt 0.2973633 0.3769531
vt 0.2973633 0.3769531
vt 0.2634277 0.3769531
vt 0.2634277 0.3769531
vt 0.2634277 0.3769531
vt 0.2634277 0.3769531
vt 0.2973633 0.3769531
vt 0.2973633 0.3769531
vt 0.2973633 0.3769531
vt 0.2973633 0.3769531
vt 0.3557129 0.4785156
vt 0.3557129 0.4785156
vt 0.3557129 0.4785156
vt 0.3557129 0.4785156
vt 0.3894043 0.4785156
vt 0.3894043 0.4785156
vt 0.3894043 0.4785156
vt 0.3894043 0.4785156
vt 0.3557129 0.4785156
vt 0.3557129 0.4785156
vt 0.3557129 0.4785156
vt 0.3557129 0.4785156
vt 0.3894043 0.4785156
vt 0.3894043 0.4785156
vt 0.3894043 0.4785156
vt 0.3894043 0.4785156
vt 0.2634277 0.3769531
vt 0.2634277 0.3769531
vt 0.2634277 0.3769531
vt 0.2634277 0.3769531
vt 0.2973633 0.3769531
vt 0.2973633 0.3769531
vt 0.2973633 0.3769531
vt 0.2973633 0.3769531
vt 0.2634277 0.3769531
vt 0.2634277 0.3769531
vt 0.2634277 0.3769531
vt 0.2634277 0.3769531
vt 0.2973633 0.3769531
vt 0.2973633 0.3769531
vt 0.2973633 0.3769531
vt 0.2973633 0.3769531
vt 0.2354736 0.3769531
vt 0.2354736 0.3769531
vt 0.2354736 0.3769531
vt 0.2354736 0.3769531
vt 0.2354736 0.3769531
vt 0.2354736 0.3769531
vt 0.2354736 0.3769531
vt 0.2354736 0.3769531

g SR_Prop_Cone_32_787_16
usemtl SR_Prop_Cone_32_787_16
usemap SR_Prop_Cone_32_787_16
f 1/1/1 3/3/3 2/2/2
f 1/1/1 4/4/4 3/3/3
f 5/5/5 7/7/7 6/6/6
f 5/5/5 8/8/8 7/7/7
f 9/9/9 11/11/11 10/10/10
f 9/9/9 12/12/12 11/11/11
f 13/13/13 15/15/15 14/14/14
f 13/13/13 16/16/16 15/15/15
f 17/17/17 19/19/19 18/18/18
f 17/17/17 20/20/20 19/19/19
f 21/21/21 23/23/23 22/22/22
f 21/21/21 24/24/24 23/23/23
f 25/25/25 27/27/27 26/26/26
f 25/25/25 28/28/28 27/27/27
f 26/26/26 29/29/29 25/25/25
f 26/26/26 30/30/30 29/29/29
f 31/31/31 29/29/29 30/30/30
f 31/31/31 30/30/30 32/32/32
f 28/28/28 32/32/32 27/27/27
f 28/28/28 31/31/31 32/32/32
f 33/33/33 35/35/35 34/34/34
f 33/33/33 36/36/36 35/35/35
f 37/37/37 39/39/39 38/38/38
f 37/37/37 40/40/40 39/39/39
f 41/41/41 43/43/43 42/42/42
f 41/41/41 44/44/44 43/43/43
f 45/45/45 47/47/47 46/46/46
f 45/45/45 48/48/48 47/47/47
f 49/49/49 51/51/51 50/50/50
f 49/49/49 52/52/52 51/51/51
f 53/53/53 55/55/55 54/54/54
f 53/53/53 56/56/56 55/55/55
f 57/57/57 59/59/59 58/58/58
f 57/57/57 60/60/60 59/59/59
f 61/61/61 63/63/63 62/62/62
f 61/61/61 64/64/64 63/63/63
f 65/65/65 67/67/67 66/66/66
f 65/65/65 68/68/68 67/67/67
f 69/69/69 71/71/71 70/70/70
f 69/69/69 72/72/72 71/71/71
f 73/73/73 75/75/75 74/74/74
f 73/73/73 76/76/76 75/75/75
f 77/77/77 79/79/79 78/78/78
f 77/77/77 80/80/80 79/79/79
f 81/81/81 83/83/83 82/82/82
f 81/81/81 84/84/84 83/83/83
f 84/84/84 85/85/85 83/83/83
f 84/84/84 86/86/86 85/85/85
f 86/86/86 87/87/87 85/85/85
f 86/86/86 88/88/88 87/87/87
f 88/88/88 82/82/82 87/87/87
f 88/88/88 81/81/81 82/82/82
