#SR_Prop_Barrier_Concrete_18_744_25.obj

v -9.999978 0 -1.442855
v -9.999978 0.9585689 -1.442855
v -9.999978 0.9585689 9.536743E-07
v -9.999978 0 9.536743E-07
v -9.999978 1.800753 -0.4050512
v -9.999978 1.800753 -1.037803
v -9.999978 2.815335 -0.4050512
v -9.999978 2.815335 -1.037803
v -9.999978 2.815335 -1.037803
v 3.178914E-07 2.815335 -1.037799
v 3.178914E-07 2.815335 -0.4050474
v -9.999978 2.815335 -0.4050512
v 3.178914E-07 0.9585689 -1.442851
v 3.178914E-07 0 -1.442851
v 3.178914E-07 0 9.536743E-07
v 3.178914E-07 0.9585689 9.536743E-07
v 3.178914E-07 1.800753 -1.037799
v 3.178914E-07 1.800753 -0.4050474
v 3.178914E-07 2.815335 -1.037799
v 3.178914E-07 2.815335 -0.4050474
v 3.178914E-07 0 -1.442851
v -9.999978 0 -1.442855
v -9.999978 0 9.536743E-07
v 3.178914E-07 0 9.536743E-07
v -9.999978 0 9.536743E-07
v -9.999978 0.9585689 9.536743E-07
v 3.178914E-07 0.9585689 9.536743E-07
v 3.178914E-07 0 9.536743E-07
v 3.178914E-07 0 -1.442851
v 3.178914E-07 0.9585689 -1.442851
v -9.999978 0.9585689 -1.442855
v -9.999978 0 -1.442855
v -9.999978 0.9585689 9.536743E-07
v -9.999978 1.800753 -0.4050512
v 3.178914E-07 1.800753 -0.4050474
v 3.178914E-07 0.9585689 9.536743E-07
v 3.178914E-07 0.9585689 -1.442851
v 3.178914E-07 1.800753 -1.037799
v -9.999978 1.800753 -1.037803
v -9.999978 0.9585689 -1.442855
v -9.999978 1.800753 -0.4050512
v -9.999978 2.815335 -0.4050512
v 3.178914E-07 2.815335 -0.4050474
v 3.178914E-07 1.800753 -0.4050474
v 3.178914E-07 1.800753 -1.037799
v 3.178914E-07 2.815335 -1.037799
v -9.999978 2.815335 -1.037803
v -9.999978 1.800753 -1.037803

vn -1 0 0
vn -1 0 0
vn -1 0 0
vn -1 0 0
vn -1 0 0
vn -1 0 0
vn -1 0 0
vn -1 0 0
vn 0 1 0
vn 0 1 0
vn 0 1 0
vn 0 1 0
vn 1 0 0
vn 1 0 0
vn 1 0 0
vn 1 0 0
vn 1 0 0
vn 1 0 0
vn 1 0 0
vn 1 0 0
vn 0 -1 0
vn 0 -1 0
vn 0 -1 0
vn 0 -1 0
vn 0 0 1
vn 0 0 1
vn 0 0 1
vn 0 0 1
vn 0 0 -1
vn 0 0 -1
vn 0 0 -1
vn 0 0 -1
vn 0 0.4334282 0.9011881
vn 0 0.4334282 0.9011881
vn 0 0.4334282 0.9011881
vn 0 0.4334282 0.9011881
vn 0 0.4334299 -0.9011873
vn 0 0.4334299 -0.9011873
vn 0 0.4334299 -0.9011873
vn 0 0.4334299 -0.9011873
vn 0 0 1
vn 0 0 1
vn 0 0 1
vn 0 0 1
vn 0 0 -1
vn 0 0 -1
vn 0 0 -1
vn 0 0 -1

vt 0.2624512 0.4785156
vt 0.2624512 0.4785156
vt 0.2624512 0.4785156
vt 0.2624512 0.4785156
vt 0.2624512 0.4785156
vt 0.2624512 0.4785156
vt 0.2624512 0.4785156
vt 0.2624512 0.4785156
vt 0.3615723 0.4785156
vt 0.3615723 0.4785156
vt 0.3615723 0.4785156
vt 0.3615723 0.4785156
vt 0.2624512 0.4785156
vt 0.2624512 0.4785156
vt 0.2624512 0.4785156
vt 0.2624512 0.4785156
vt 0.2624512 0.4785156
vt 0.2624512 0.4785156
vt 0.2624512 0.4785156
vt 0.2624512 0.4785156
vt 0.2354736 0.4785156
vt 0.2354736 0.4785156
vt 0.2354736 0.4785156
vt 0.2354736 0.4785156
vt 0.2949219 0.4785156
vt 0.2949219 0.4785156
vt 0.2949219 0.4785156
vt 0.2949219 0.4785156
vt 0.2949219 0.4785156
vt 0.2949219 0.4785156
vt 0.2949219 0.4785156
vt 0.2949219 0.4785156
vt 0.3286133 0.4785156
vt 0.3286133 0.4785156
vt 0.3286133 0.4785156
vt 0.3286133 0.4785156
vt 0.3286133 0.4785156
vt 0.3286133 0.4785156
vt 0.3286133 0.4785156
vt 0.3286133 0.4785156
vt 0.2949219 0.4785156
vt 0.2949219 0.4785156
vt 0.2949219 0.4785156
vt 0.2949219 0.4785156
vt 0.2949219 0.4785156
vt 0.2949219 0.4785156
vt 0.2949219 0.4785156
vt 0.2949219 0.4785156

g SR_Prop_Barrier_Concrete_18_744_25
usemtl SR_Prop_Barrier_Concrete_18_744_25
usemap SR_Prop_Barrier_Concrete_18_744_25
f 1/1/1 3/3/3 2/2/2
f 1/1/1 4/4/4 3/3/3
f 2/2/2 3/3/3 5/5/5
f 2/2/2 5/5/5 6/6/6
f 6/6/6 5/5/5 7/7/7
f 6/6/6 7/7/7 8/8/8
f 9/9/9 11/11/11 10/10/10
f 9/9/9 12/12/12 11/11/11
f 13/13/13 15/15/15 14/14/14
f 13/13/13 16/16/16 15/15/15
f 17/17/17 16/16/16 13/13/13
f 17/17/17 18/18/18 16/16/16
f 19/19/19 18/18/18 17/17/17
f 19/19/19 20/20/20 18/18/18
f 21/21/21 23/23/23 22/22/22
f 21/21/21 24/24/24 23/23/23
f 25/25/25 27/27/27 26/26/26
f 25/25/25 28/28/28 27/27/27
f 29/29/29 31/31/31 30/30/30
f 29/29/29 32/32/32 31/31/31
f 33/33/33 35/35/35 34/34/34
f 33/33/33 36/36/36 35/35/35
f 37/37/37 39/39/39 38/38/38
f 37/37/37 40/40/40 39/39/39
f 41/41/41 43/43/43 42/42/42
f 41/41/41 44/44/44 43/43/43
f 45/45/45 47/47/47 46/46/46
f 45/45/45 48/48/48 47/47/47
