#SR_Veh_RacingTruck_Wheel_RL_1543_131.obj

v -7.510185E-06 0.7593565 -0.6558516
v 1.03521 0.7593565 -0.6558592
v 1.03521 0.9855466 -0.1883147
v -7.510185E-06 0.9855466 -0.188307
v -7.510185E-06 0.3297033 -0.9476759
v 1.03521 0.3297033 -0.9476759
v 1.03521 0.7593565 -0.6558592
v -7.510185E-06 0.7593565 -0.6558516
v -7.510185E-06 -0.1882997 -0.9855635
v 1.03521 -0.1882997 -0.9855635
v 1.03521 0.3297033 -0.9476759
v -7.510185E-06 0.3297033 -0.9476759
v -7.510185E-06 -0.6558428 -0.759352
v 1.03521 -0.6558428 -0.7593596
v 1.03521 -0.1882997 -0.9855635
v -7.510185E-06 -0.1882997 -0.9855635
v -7.510185E-06 -0.9476557 -0.329695
v 1.03521 -0.9476557 -0.3297026
v 1.03521 -0.6558428 -0.7593596
v -7.510185E-06 -0.6558428 -0.759352
v -7.510185E-06 -0.9855466 0.1882875
v 1.03521 -0.9855466 0.1882875
v 1.03521 -0.9476557 -0.3297026
v -7.510185E-06 -0.9476557 -0.329695
v -7.510185E-06 -0.7593586 0.6558321
v 1.03521 -0.7593586 0.6558321
v 1.03521 -0.9855466 0.1882875
v -7.510185E-06 -0.9855466 0.1882875
v -7.510185E-06 -0.3297038 0.9476564
v 1.03521 -0.3297038 0.9476488
v 1.03521 -0.7593586 0.6558321
v -7.510185E-06 -0.7593586 0.6558321
v -7.510185E-06 0.1882972 0.985544
v 1.03521 0.1882972 0.9855363
v 1.03521 -0.3297038 0.9476488
v -7.510185E-06 -0.3297038 0.9476564
v -7.510185E-06 0.6558429 0.7593629
v 1.03521 0.6558429 0.7593553
v 1.03521 0.1882972 0.9855363
v -7.510185E-06 0.1882972 0.985544
v -7.510185E-06 0.9476533 0.329706
v 1.03521 0.9476533 0.3296983
v 1.03521 0.6558429 0.7593553
v -7.510185E-06 0.6558429 0.7593629
v -7.510185E-06 0.9855466 -0.188307
v 1.03521 0.9855466 -0.1883147
v 1.03521 0.9476533 0.3296983
v -7.510185E-06 0.9476533 0.329706
v -7.510185E-06 0.9855466 -0.188307
v -7.510185E-06 2.980232E-07 -5.960464E-06
v -7.510185E-06 0.7593565 -0.6558516
v -7.510185E-06 2.980232E-07 -5.960464E-06
v -7.510185E-06 0.3297033 -0.9476759
v -7.510185E-06 2.980232E-07 -5.960464E-06
v -7.510185E-06 -0.1882997 -0.9855635
v -7.510185E-06 2.980232E-07 -5.960464E-06
v -7.510185E-06 -0.6558428 -0.759352
v -7.510185E-06 2.980232E-07 -5.960464E-06
v -7.510185E-06 -0.9476557 -0.329695
v -7.510185E-06 2.980232E-07 -5.960464E-06
v -7.510185E-06 -0.9855466 0.1882875
v -7.510185E-06 2.980232E-07 -5.960464E-06
v -7.510185E-06 -0.7593586 0.6558321
v -7.510185E-06 2.980232E-07 -5.960464E-06
v -7.510185E-06 -0.3297038 0.9476564
v -7.510185E-06 2.980232E-07 -5.960464E-06
v -7.510185E-06 0.1882972 0.985544
v -7.510185E-06 2.980232E-07 -5.960464E-06
v -7.510185E-06 0.6558429 0.7593629
v -7.510185E-06 2.980232E-07 -5.960464E-06
v -7.510185E-06 0.9476533 0.329706
v -7.510185E-06 2.980232E-07 -5.960464E-06
v 1.03521 0.9855466 -0.1883147
v 1.03521 0.7593565 -0.6558592
v 1.03521 2.980232E-07 -1.358986E-05
v 1.03521 0.3297033 -0.9476759
v 1.03521 2.980232E-07 -1.358986E-05
v 1.03521 -0.1882997 -0.9855635
v 1.03521 2.980232E-07 -1.358986E-05
v 1.03521 -0.6558428 -0.7593596
v 1.03521 2.980232E-07 -1.358986E-05
v 1.03521 -0.9476557 -0.3297026
v 1.03521 2.980232E-07 -1.358986E-05
v 1.03521 -0.9855466 0.1882875
v 1.03521 2.980232E-07 -1.358986E-05
v 1.03521 -0.7593586 0.6558321
v 1.03521 2.980232E-07 -1.358986E-05
v 1.03521 -0.3297038 0.9476488
v 1.03521 2.980232E-07 -1.358986E-05
v 1.03521 0.1882972 0.9855363
v 1.03521 2.980232E-07 -1.358986E-05
v 1.03521 0.6558429 0.7593553
v 1.03521 2.980232E-07 -1.358986E-05
v 1.03521 0.9476533 0.3296983
v 1.03521 2.980232E-07 -1.358986E-05
v 1.03521 2.980232E-07 -1.358986E-05

vn 0 0.9001903 -0.4354967
vn 0 0.9001903 -0.4354967
vn 0 0.9001903 -0.4354967
vn 0 0.9001903 -0.4354967
vn 0 0.5618575 -0.827234
vn 0 0.5618575 -0.827234
vn 0 0.5618575 -0.827234
vn 0 0.5618575 -0.827234
vn 0 0.07294675 -0.9973359
vn 0 0.07294675 -0.9973359
vn 0 0.07294675 -0.9973359
vn 0 0.07294675 -0.9973359
vn 0 -0.4355253 -0.9001765
vn 0 -0.4355253 -0.9001765
vn 0 -0.4355253 -0.9001765
vn 0 -0.4355253 -0.9001765
vn 0 -0.8272431 -0.5618441
vn 0 -0.8272431 -0.5618441
vn 0 -0.8272431 -0.5618441
vn 0 -0.8272431 -0.5618441
vn 0 -0.9973351 -0.07295536
vn 0 -0.9973351 -0.07295536
vn 0 -0.9973351 -0.07295536
vn 0 -0.9973351 -0.07295536
vn 0 -0.900192 0.4354934
vn 0 -0.900192 0.4354934
vn 0 -0.900192 0.4354934
vn 0 -0.900192 0.4354934
vn 0 -0.561856 0.827235
vn 0 -0.561856 0.827235
vn 0 -0.561856 0.827235
vn 0 -0.561856 0.827235
vn 0 -0.07294703 0.9973357
vn 0 -0.07294703 0.9973357
vn 0 -0.07294703 0.9973357
vn 0 -0.07294703 0.9973357
vn 0 0.4354817 0.9001976
vn 0 0.4354817 0.9001976
vn 0 0.4354817 0.9001976
vn 0 0.4354817 0.9001976
vn 0 0.8272454 0.5618407
vn 0 0.8272454 0.5618407
vn 0 0.8272454 0.5618407
vn 0 0.8272454 0.5618407
vn 0 0.9973351 0.07295631
vn 0 0.9973351 0.07295631
vn 0 0.9973351 0.07295631
vn 0 0.9973351 0.07295631
vn -1 0 0
vn -1 0 0
vn -1 0 0
vn -1 0 0
vn -1 0 0
vn -1 0 0
vn -1 0 0
vn -1 0 0
vn -1 0 0
vn -1 0 0
vn -1 0 0
vn -1 0 0
vn -1 0 0
vn -1 0 0
vn -1 0 0
vn -1 0 0
vn -1 0 0
vn -1 0 0
vn -1 0 0
vn -1 0 0
vn -1 0 0
vn -1 0 0
vn -1 0 0
vn -1 0 0
vn 1 0 0
vn 1 0 0
vn 1 0 0
vn 1 0 0
vn 1 0 0
vn 1 0 0
vn 1 0 0
vn 1 0 0
vn 1 0 0
vn 1 0 0
vn 1 0 0
vn 1 0 0
vn 1 0 0
vn 1 0 0
vn 1 0 0
vn 1 0 0
vn 1 0 0
vn 1 0 0
vn 1 0 0
vn 1 0 0
vn 1 0 0
vn 1 0 0
vn 1 0 0
vn 1 0 0

vt 0.002502441 0.9814453
vt 0.002502441 0.9814453
vt 0.002502441 0.9814453
vt 0.002502441 0.9814453
vt 0.002502441 0.9814453
vt 0.002502441 0.9814453
vt 0.002502441 0.9814453
vt 0.002502441 0.9814453
vt 0.002502441 0.9814453
vt 0.002502441 0.9814453
vt 0.002502441 0.9814453
vt 0.002502441 0.9814453
vt 0.002502441 0.9814453
vt 0.002502441 0.9814453
vt 0.002502441 0.9814453
vt 0.002502441 0.9814453
vt 0.002502441 0.9814453
vt 0.002502441 0.9814453
vt 0.002502441 0.9814453
vt 0.002502441 0.9814453
vt 0.002502441 0.9814453
vt 0.002502441 0.9814453
vt 0.002502441 0.9814453
vt 0.002502441 0.9814453
vt 0.002502441 0.9814453
vt 0.002502441 0.9814453
vt 0.002502441 0.9814453
vt 0.002502441 0.9814453
vt 0.002502441 0.9814453
vt 0.002502441 0.9814453
vt 0.002502441 0.9814453
vt 0.002502441 0.9814453
vt 0.002502441 0.9814453
vt 0.002502441 0.9814453
vt 0.002502441 0.9814453
vt 0.002502441 0.9814453
vt 0.002502441 0.9814453
vt 0.002502441 0.9814453
vt 0.002502441 0.9814453
vt 0.002502441 0.9814453
vt 0.002502441 0.9814453
vt 0.002502441 0.9814453
vt 0.002502441 0.9814453
vt 0.002502441 0.9814453
vt 0.002502441 0.9814453
vt 0.002502441 0.9814453
vt 0.002502441 0.9814453
vt 0.002502441 0.9814453
vt 0.002397537 0.9296875
vt 0.002689362 0.8706055
vt 0.002689362 0.9296875
vt 0.002689362 0.8706055
vt 0.002689362 0.9296875
vt 0.002689362 0.8706055
vt 0.002689362 0.9296875
vt 0.002689362 0.8706055
vt 0.002689362 0.9296875
vt 0.002689362 0.8706055
vt 0.002689362 0.9296875
vt 0.002689362 0.8706055
vt 0.002689362 0.9296875
vt 0.002689362 0.8706055
vt 0.002689362 0.9296875
vt 0.002689362 0.8706055
vt 0.002689362 0.9296875
vt 0.002689362 0.8706055
vt 0.002689362 0.9296875
vt 0.002689362 0.8706055
vt 0.002689362 0.9296875
vt 0.002689362 0.8706055
vt 0.002689362 0.9296875
vt 0.002689362 0.8706055
vt 0.002397537 0.9296875
vt 0.002689362 0.9296875
vt 0.002689362 0.8706055
vt 0.002689362 0.9296875
vt 0.002689362 0.8706055
vt 0.002689362 0.9296875
vt 0.002689362 0.8706055
vt 0.002689362 0.9296875
vt 0.002689362 0.8706055
vt 0.002689362 0.9296875
vt 0.002689362 0.8706055
vt 0.002689362 0.9296875
vt 0.002689362 0.8706055
vt 0.002689362 0.9296875
vt 0.002689362 0.8706055
vt 0.002689362 0.9296875
vt 0.002689362 0.8706055
vt 0.002689362 0.9296875
vt 0.002689362 0.8706055
vt 0.002689362 0.9296875
vt 0.002689362 0.8706055
vt 0.002689362 0.9296875
vt 0.002689362 0.8706055
vt 0.002689362 0.8706055

g SR_Veh_RacingTruck_Wheel_RL_1543_131
usemtl SR_Veh_RacingTruck_Wheel_RL_1543_131
usemap SR_Veh_RacingTruck_Wheel_RL_1543_131
f 1/1/1 3/3/3 2/2/2
f 1/1/1 4/4/4 3/3/3
f 5/5/5 7/7/7 6/6/6
f 5/5/5 8/8/8 7/7/7
f 9/9/9 11/11/11 10/10/10
f 9/9/9 12/12/12 11/11/11
f 13/13/13 15/15/15 14/14/14
f 13/13/13 16/16/16 15/15/15
f 17/17/17 19/19/19 18/18/18
f 17/17/17 20/20/20 19/19/19
f 21/21/21 23/23/23 22/22/22
f 21/21/21 24/24/24 23/23/23
f 25/25/25 27/27/27 26/26/26
f 25/25/25 28/28/28 27/27/27
f 29/29/29 31/31/31 30/30/30
f 29/29/29 32/32/32 31/31/31
f 33/33/33 35/35/35 34/34/34
f 33/33/33 36/36/36 35/35/35
f 37/37/37 39/39/39 38/38/38
f 37/37/37 40/40/40 39/39/39
f 41/41/41 43/43/43 42/42/42
f 41/41/41 44/44/44 43/43/43
f 45/45/45 47/47/47 46/46/46
f 45/45/45 48/48/48 47/47/47
f 49/49/49 51/51/51 50/50/50
f 51/51/51 53/53/53 52/52/52
f 53/53/53 55/55/55 54/54/54
f 55/55/55 57/57/57 56/56/56
f 57/57/57 59/59/59 58/58/58
f 59/59/59 61/61/61 60/60/60
f 61/61/61 63/63/63 62/62/62
f 63/63/63 65/65/65 64/64/64
f 65/65/65 67/67/67 66/66/66
f 67/67/67 69/69/69 68/68/68
f 69/69/69 71/71/71 70/70/70
f 71/71/71 49/49/49 72/72/72
f 73/73/73 75/75/75 74/74/74
f 74/74/74 77/77/77 76/76/76
f 76/76/76 79/79/79 78/78/78
f 78/78/78 81/81/81 80/80/80
f 80/80/80 83/83/83 82/82/82
f 82/82/82 85/85/85 84/84/84
f 84/84/84 87/87/87 86/86/86
f 86/86/86 89/89/89 88/88/88
f 88/88/88 91/91/91 90/90/90
f 90/90/90 93/93/93 92/92/92
f 92/92/92 95/95/95 94/94/94
f 94/94/94 96/96/96 73/73/73
