#SR_Veh_RacingTruck_Wheel_FL_1545_132.obj

v -7.510185E-06 0.6405708 -0.5532773
v 0.5859987 0.6405708 -0.5532849
v 0.5859987 0.8313783 -0.1588604
v -7.510185E-06 0.8313783 -0.1588528
v -7.510185E-06 0.2781283 -0.799432
v 0.5859987 0.2781283 -0.799432
v 0.5859987 0.6405708 -0.5532849
v -7.510185E-06 0.6405708 -0.5532773
v -7.510185E-06 -0.1588442 -0.8313839
v 0.5859987 -0.1588442 -0.8313916
v 0.5859987 0.2781283 -0.799432
v -7.510185E-06 0.2781283 -0.799432
v -7.510185E-06 -0.55325 -0.6405957
v 0.5859987 -0.55325 -0.6406033
v 0.5859987 -0.1588442 -0.8313916
v -7.510185E-06 -0.1588442 -0.8313839
v -7.510185E-06 -0.7994148 -0.2781384
v 0.5859987 -0.7994148 -0.2781384
v 0.5859987 -0.55325 -0.6406033
v -7.510185E-06 -0.55325 -0.6405957
v -7.510185E-06 -0.8313783 0.1588428
v 0.5859987 -0.8313783 0.1588352
v 0.5859987 -0.7994148 -0.2781384
v -7.510185E-06 -0.7994148 -0.2781384
v -7.510185E-06 -0.6405728 0.5532291
v 0.5859987 -0.6405728 0.5532215
v 0.5859987 -0.8313783 0.1588352
v -7.510185E-06 -0.8313783 0.1588428
v -7.510185E-06 -0.2781286 0.7994144
v 0.5859987 -0.2781286 0.7994068
v 0.5859987 -0.6405728 0.5532215
v -7.510185E-06 -0.6405728 0.5532291
v -7.510185E-06 0.1588419 0.8313739
v 0.5859987 0.1588419 0.8313663
v 0.5859987 -0.2781286 0.7994068
v -7.510185E-06 -0.2781286 0.7994144
v -7.510185E-06 0.55325 0.6405551
v 0.5859987 0.55325 0.6405475
v 0.5859987 0.1588419 0.8313663
v -7.510185E-06 0.1588419 0.8313739
v -7.510185E-06 0.7994126 0.2781131
v 0.5859987 0.7994126 0.2781131
v 0.5859987 0.55325 0.6405475
v -7.510185E-06 0.55325 0.6405551
v -7.510185E-06 0.8313783 -0.1588528
v 0.5859987 0.8313783 -0.1588604
v 0.5859987 0.7994126 0.2781131
v -7.510185E-06 0.7994126 0.2781131
v -7.510185E-06 0.8313783 -0.1588528
v -7.510185E-06 1.192093E-07 -2.408028E-05
v -7.510185E-06 0.6405708 -0.5532773
v -7.510185E-06 1.192093E-07 -2.408028E-05
v -7.510185E-06 0.2781283 -0.799432
v -7.510185E-06 1.192093E-07 -2.408028E-05
v -7.510185E-06 -0.1588442 -0.8313839
v -7.510185E-06 1.192093E-07 -2.408028E-05
v -7.510185E-06 -0.55325 -0.6405957
v -7.510185E-06 1.192093E-07 -2.408028E-05
v -7.510185E-06 -0.7994148 -0.2781384
v -7.510185E-06 1.192093E-07 -2.408028E-05
v -7.510185E-06 -0.8313783 0.1588428
v -7.510185E-06 1.192093E-07 -2.408028E-05
v -7.510185E-06 -0.6405728 0.5532291
v -7.510185E-06 1.192093E-07 -2.408028E-05
v -7.510185E-06 -0.2781286 0.7994144
v -7.510185E-06 1.192093E-07 -2.408028E-05
v -7.510185E-06 0.1588419 0.8313739
v -7.510185E-06 1.192093E-07 -2.408028E-05
v -7.510185E-06 0.55325 0.6405551
v -7.510185E-06 1.192093E-07 -2.408028E-05
v -7.510185E-06 0.7994126 0.2781131
v -7.510185E-06 1.192093E-07 -2.408028E-05
v 0.5859987 0.8313783 -0.1588604
v 0.5859987 0.6405708 -0.5532849
v 0.5859987 1.192093E-07 -3.170967E-05
v 0.5859987 0.2781283 -0.799432
v 0.5859987 1.192093E-07 -3.170967E-05
v 0.5859987 -0.1588442 -0.8313916
v 0.5859987 1.192093E-07 -3.170967E-05
v 0.5859987 -0.55325 -0.6406033
v 0.5859987 1.192093E-07 -3.170967E-05
v 0.5859987 -0.7994148 -0.2781384
v 0.5859987 1.192093E-07 -3.170967E-05
v 0.5859987 -0.8313783 0.1588352
v 0.5859987 1.192093E-07 -3.170967E-05
v 0.5859987 -0.6405728 0.5532215
v 0.5859987 1.192093E-07 -3.170967E-05
v 0.5859987 -0.2781286 0.7994068
v 0.5859987 1.192093E-07 -3.170967E-05
v 0.5859987 0.1588419 0.8313663
v 0.5859987 1.192093E-07 -3.170967E-05
v 0.5859987 0.55325 0.6405475
v 0.5859987 1.192093E-07 -3.170967E-05
v 0.5859987 0.7994126 0.2781131
v 0.5859987 1.192093E-07 -3.170967E-05
v 0.5859987 1.192093E-07 -3.170967E-05

vn 0 0.9001977 -0.4354815
vn 0 0.9001977 -0.4354815
vn 0 0.9001977 -0.4354815
vn 0 0.9001977 -0.4354815
vn 0 0.5618262 -0.8272553
vn 0 0.5618262 -0.8272553
vn 0 0.5618262 -0.8272553
vn 0 0.5618262 -0.8272553
vn 0 0.07293504 -0.9973367
vn 0 0.07293504 -0.9973367
vn 0 0.07293504 -0.9973367
vn 0 0.07293504 -0.9973367
vn 0 -0.4354625 -0.9002069
vn 0 -0.4354625 -0.9002069
vn 0 -0.4354625 -0.9002069
vn 0 -0.4354625 -0.9002069
vn 0 -0.827254 -0.5618281
vn 0 -0.827254 -0.5618281
vn 0 -0.827254 -0.5618281
vn 0 -0.827254 -0.5618281
vn 0 -0.9973354 -0.0729521
vn 0 -0.9973354 -0.0729521
vn 0 -0.9973354 -0.0729521
vn 0 -0.9973354 -0.0729521
vn 0 -0.900183 0.4355119
vn 0 -0.900183 0.4355119
vn 0 -0.900183 0.4355119
vn 0 -0.900183 0.4355119
vn 0 -0.5618781 0.8272201
vn 0 -0.5618781 0.8272201
vn 0 -0.5618781 0.8272201
vn 0 -0.5618781 0.8272201
vn 0 -0.07294403 0.997336
vn 0 -0.07294403 0.997336
vn 0 -0.07294403 0.997336
vn 0 -0.07294403 0.997336
vn 0 0.4355169 0.9001806
vn 0 0.4355169 0.9001806
vn 0 0.4355169 0.9001806
vn 0 0.4355169 0.9001806
vn 0 0.8272398 0.561849
vn 0 0.8272398 0.561849
vn 0 0.8272398 0.561849
vn 0 0.8272398 0.561849
vn 0 0.9973349 0.07295823
vn 0 0.9973349 0.07295823
vn 0 0.9973349 0.07295823
vn 0 0.9973349 0.07295823
vn -1 0 0
vn -1 0 0
vn -1 0 0
vn -1 0 0
vn -1 0 0
vn -1 0 0
vn -1 0 0
vn -1 0 0
vn -1 0 0
vn -1 0 0
vn -1 0 0
vn -1 0 0
vn -1 0 0
vn -1 0 0
vn -1 0 0
vn -1 0 0
vn -1 0 0
vn -1 0 0
vn -1 0 0
vn -1 0 0
vn -1 0 0
vn -1 0 0
vn -1 0 0
vn -1 0 0
vn 1 0 0
vn 1 0 0
vn 1 0 0
vn 1 0 0
vn 1 0 0
vn 1 0 0
vn 1 0 0
vn 1 0 0
vn 1 0 0
vn 1 0 0
vn 1 0 0
vn 1 0 0
vn 1 0 0
vn 1 0 0
vn 1 0 0
vn 1 0 0
vn 1 0 0
vn 1 0 0
vn 1 0 0
vn 1 0 0
vn 1 0 0
vn 1 0 0
vn 1 0 0
vn 1 0 0

vt 0.002502441 0.9814453
vt 0.002502441 0.9814453
vt 0.002502441 0.9814453
vt 0.002502441 0.9814453
vt 0.002502441 0.9814453
vt 0.002502441 0.9814453
vt 0.002502441 0.9814453
vt 0.002502441 0.9814453
vt 0.002502441 0.9814453
vt 0.002502441 0.9814453
vt 0.002502441 0.9814453
vt 0.002502441 0.9814453
vt 0.002502441 0.9814453
vt 0.002502441 0.9814453
vt 0.002502441 0.9814453
vt 0.002502441 0.9814453
vt 0.002502441 0.9814453
vt 0.002502441 0.9814453
vt 0.002502441 0.9814453
vt 0.002502441 0.9814453
vt 0.002502441 0.9814453
vt 0.002502441 0.9814453
vt 0.002502441 0.9814453
vt 0.002502441 0.9814453
vt 0.002502441 0.9814453
vt 0.002502441 0.9814453
vt 0.002502441 0.9814453
vt 0.002502441 0.9814453
vt 0.002502441 0.9814453
vt 0.002502441 0.9814453
vt 0.002502441 0.9814453
vt 0.002502441 0.9814453
vt 0.002502441 0.9814453
vt 0.002502441 0.9814453
vt 0.002502441 0.9814453
vt 0.002502441 0.9814453
vt 0.002502441 0.9814453
vt 0.002502441 0.9814453
vt 0.002502441 0.9814453
vt 0.002502441 0.9814453
vt 0.002502441 0.9814453
vt 0.002502441 0.9814453
vt 0.002502441 0.9814453
vt 0.002502441 0.9814453
vt 0.002502441 0.9814453
vt 0.002502441 0.9814453
vt 0.002502441 0.9814453
vt 0.002502441 0.9814453
vt 0.002397537 0.9296875
vt 0.002689362 0.8706055
vt 0.002689362 0.9296875
vt 0.002689362 0.8706055
vt 0.002689362 0.9296875
vt 0.002689362 0.8706055
vt 0.002689362 0.9296875
vt 0.002689362 0.8706055
vt 0.002689362 0.9296875
vt 0.002689362 0.8706055
vt 0.002689362 0.9296875
vt 0.002689362 0.8706055
vt 0.002689362 0.9296875
vt 0.002689362 0.8706055
vt 0.002689362 0.9296875
vt 0.002689362 0.8706055
vt 0.002689362 0.9296875
vt 0.002689362 0.8706055
vt 0.002689362 0.9296875
vt 0.002689362 0.8706055
vt 0.002689362 0.9296875
vt 0.002689362 0.8706055
vt 0.002689362 0.9296875
vt 0.002689362 0.8706055
vt 0.002397537 0.9296875
vt 0.002689362 0.9296875
vt 0.002689362 0.8706055
vt 0.002689362 0.9296875
vt 0.002689362 0.8706055
vt 0.002689362 0.9296875
vt 0.002689362 0.8706055
vt 0.002689362 0.9296875
vt 0.002689362 0.8706055
vt 0.002689362 0.9296875
vt 0.002689362 0.8706055
vt 0.002689362 0.9296875
vt 0.002689362 0.8706055
vt 0.002689362 0.9296875
vt 0.002689362 0.8706055
vt 0.002689362 0.9296875
vt 0.002689362 0.8706055
vt 0.002689362 0.9296875
vt 0.002689362 0.8706055
vt 0.002689362 0.9296875
vt 0.002689362 0.8706055
vt 0.002689362 0.9296875
vt 0.002689362 0.8706055
vt 0.002689362 0.8706055

g SR_Veh_RacingTruck_Wheel_FL_1545_132
usemtl SR_Veh_RacingTruck_Wheel_FL_1545_132
usemap SR_Veh_RacingTruck_Wheel_FL_1545_132
f 1/1/1 3/3/3 2/2/2
f 1/1/1 4/4/4 3/3/3
f 5/5/5 7/7/7 6/6/6
f 5/5/5 8/8/8 7/7/7
f 9/9/9 11/11/11 10/10/10
f 9/9/9 12/12/12 11/11/11
f 13/13/13 15/15/15 14/14/14
f 13/13/13 16/16/16 15/15/15
f 17/17/17 19/19/19 18/18/18
f 17/17/17 20/20/20 19/19/19
f 21/21/21 23/23/23 22/22/22
f 21/21/21 24/24/24 23/23/23
f 25/25/25 27/27/27 26/26/26
f 25/25/25 28/28/28 27/27/27
f 29/29/29 31/31/31 30/30/30
f 29/29/29 32/32/32 31/31/31
f 33/33/33 35/35/35 34/34/34
f 33/33/33 36/36/36 35/35/35
f 37/37/37 39/39/39 38/38/38
f 37/37/37 40/40/40 39/39/39
f 41/41/41 43/43/43 42/42/42
f 41/41/41 44/44/44 43/43/43
f 45/45/45 47/47/47 46/46/46
f 45/45/45 48/48/48 47/47/47
f 49/49/49 51/51/51 50/50/50
f 51/51/51 53/53/53 52/52/52
f 53/53/53 55/55/55 54/54/54
f 55/55/55 57/57/57 56/56/56
f 57/57/57 59/59/59 58/58/58
f 59/59/59 61/61/61 60/60/60
f 61/61/61 63/63/63 62/62/62
f 63/63/63 65/65/65 64/64/64
f 65/65/65 67/67/67 66/66/66
f 67/67/67 69/69/69 68/68/68
f 69/69/69 71/71/71 70/70/70
f 71/71/71 49/49/49 72/72/72
f 73/73/73 75/75/75 74/74/74
f 74/74/74 77/77/77 76/76/76
f 76/76/76 79/79/79 78/78/78
f 78/78/78 81/81/81 80/80/80
f 80/80/80 83/83/83 82/82/82
f 82/82/82 85/85/85 84/84/84
f 84/84/84 87/87/87 86/86/86
f 86/86/86 89/89/89 88/88/88
f 88/88/88 91/91/91 90/90/90
f 90/90/90 93/93/93 92/92/92
f 92/92/92 95/95/95 94/94/94
f 94/94/94 96/96/96 73/73/73
