#Stars_3674_32.obj

v 0.3878998 -12.11958 23.61624
v 0.195628 -12.11958 23.61624
v 0.195628 -12.31026 23.61624
v 0.3878998 -12.31026 23.61624
v 9.378788 -4.660666 20.67347
v 9.199254 -4.643306 20.74006
v 9.203588 -4.824591 20.79902
v 9.383122 -4.841953 20.73243
v -8.359155 -2.730981 20.10114
v -8.53855 -2.739696 20.03252
v -8.556485 -2.916425 20.10183
v -8.37709 -2.907712 20.17046
v -5.813333 3.519666 17.12815
v -5.997616 3.511461 17.07392
v -6.024985 3.362286 17.18949
v -5.840703 3.37049 17.24372
v 4.600047 7.909964 12.95465
v 4.414048 7.957269 12.94301
v 4.377646 7.852264 13.09796
v 4.563645 7.804961 13.1096
v -11.98281 8.307068 6.356383
v -12.13908 8.249951 6.260029
v -12.19873 8.154001 6.413637
v -12.04245 8.211116 6.509992
v 16.78921 5.884014 4.341012
v 16.65444 5.971235 4.44683
v 16.70903 5.870599 4.599314
v 16.84381 5.783377 4.493496
v 5.67377 12.28276 0.8032768
v 5.505691 12.31026 0.8925027
v 5.588998 12.2749 1.060339
v 5.757078 12.2474 0.9711156
v 19.03357 3.628868 -7.278304
v 18.94625 3.767295 -7.177392
v 19.03971 3.711989 -7.020654
v 19.12702 3.573562 -7.121562
v 18.03215 -1.255474 -15.71819
v 18.06288 -1.12684 -15.57863
v 18.19418 -1.241717 -15.50166
v 18.16345 -1.370351 -15.64122
v 10.47926 8.722682 -11.20125
v 10.46539 8.807579 -11.02929
v 10.63898 8.743279 -10.98354
v 10.65285 8.65838 -11.15549
v 9.377718 -4.057787 -23.61624
v 9.441566 -3.89823 -23.53002
v 9.607401 -3.984684 -23.49282
v 9.543556 -4.14424 -23.57904
v -3.581652 0.7735809 -22.81647
v -3.487212 0.9232429 -22.7413
v -3.323552 0.8553784 -22.8118
v -3.417992 0.7057164 -22.88697
v -6.820996 9.105728 -12.96282
v -6.715201 9.206776 -12.83806
v -6.565011 9.193685 -12.95481
v -6.670802 9.092637 -13.07957
v -13.96231 -5.092026 -21.09371
v -13.89892 -4.911662 -21.07323
v -13.75422 -4.949066 -21.19164
v -13.8176 -5.129431 -21.21212
v -21.75819 -0.1698671 -3.446112
v -21.68762 -0.06463777 -3.590732
v -21.74782 -0.1956942 -3.715469
v -21.81839 -0.3009248 -3.570849
v -12.50789 9.39149 -3.604202
v -12.38475 9.450909 -3.739384
v -12.49461 9.372359 -3.873993
v -12.61775 9.312941 -3.738813
v -20.12853 -1.369318 8.429779
v -20.11542 -1.227326 8.300803
v -20.22583 -1.32614 8.180787
v -20.23894 -1.468133 8.309759
v -19.88618 0.3093778 6.83413
v -19.84797 0.4521065 6.711098
v -19.9553 0.3666826 6.578655
v -19.99352 0.2239565 6.701686
v -18.27229 4.561983 -4.525064
v -18.164 4.65855 -4.651222
v -18.23557 4.553321 -4.793218
v -18.34387 4.456752 -4.667062
v -12.21058 5.84664 -13.91684
v -12.04764 5.898223 -14.00493
v -12.08486 5.775221 -14.1458
v -12.24779 5.723635 -14.05772
v -10.03741 6.474979 -14.94855
v -9.865621 6.51371 -15.02574
v -9.901727 6.39138 -15.16749
v -10.07351 6.352649 -15.0903
v 3.852754 9.913302 -13.0861
v 4.037783 9.909821 -13.03394
v 4.08154 9.818062 -13.19526
v 3.896512 9.821544 -13.24743
v 2.166083 10.58242 -12.13942
v 2.356243 10.57904 -12.1112
v 2.380111 10.49726 -12.28179
v 2.189952 10.50063 -12.31001
v 13.92161 6.674469 8.02354
v 14.01547 6.549078 8.135056
v 14.14539 6.524183 7.99772
v 14.05153 6.649571 7.886204
v 21.96375 -4.969982 9.033637
v 21.9876 -5.147242 9.104198
v 22.08115 -5.19768 8.94588
v 22.05729 -5.020421 8.875316
v -2.852925 11.80041 5.36077
v -2.778442 11.75956 5.533258
v -2.60414 11.80057 5.467707
v -2.678622 11.84142 5.295221
v -14.30267 0.1783866 14.79815
v -14.25293 0.05364722 14.93575
v -14.10497 0.1644019 14.98268
v -14.15471 0.289144 14.84508
v -24.41844 -7.350738 -0.8579285
v -24.43624 -7.467415 -0.7061455
v -24.40316 -7.320427 -0.5892711
v -24.38536 -7.203748 -0.7410522
v -19.19783 -1.692221 -13.58649
v -19.3191 -1.788327 -13.47235
v -19.31669 -1.643748 -13.34805
v -19.19543 -1.547641 -13.46219
v -5.74309 0.8501306 -22.25799
v -5.920855 0.7771692 -22.25132
v -5.976644 0.9230824 -22.14198
v -5.798881 0.9960464 -22.14865
v 5.525141 10.78337 -10.43607
v 5.374783 10.77088 -10.55525
v 5.262382 10.84719 -10.42146
v 5.412738 10.85969 -10.30227
v 24.35892 -4.857248 -0.390729
v 24.40534 -5.024845 -0.308722
v 24.43624 -5.100575 -0.480971
v 24.38981 -4.932981 -0.5629795

vn 0 0 -1
vn 0 0 -1
vn 0 0 -1
vn 0 0 -1
vn -0.3572074 -0.2965818 -0.8856874
vn -0.3572074 -0.2965818 -0.8856874
vn -0.3572074 -0.2965818 -0.8856874
vn -0.3572074 -0.2965818 -0.8856874
vn 0.3472779 -0.3727449 -0.8604994
vn 0.3472779 -0.3727449 -0.8604994
vn 0.3472779 -0.3727449 -0.8604994
vn 0.3472779 -0.3727449 -0.8604994
vn 0.2465206 -0.6214059 -0.743695
vn 0.2465206 -0.6214059 -0.743695
vn 0.2465206 -0.6214059 -0.743695
vn 0.2465206 -0.6214059 -0.743695
vn -0.1665934 -0.7976391 -0.5796711
vn -0.1665934 -0.7976391 -0.5796711
vn -0.1665934 -0.7976391 -0.5796711
vn -0.1665934 -0.7976391 -0.5796711
vn 0.4914749 -0.8115112 -0.3160728
vn 0.4914749 -0.8115112 -0.3160728
vn 0.4914749 -0.8115112 -0.3160728
vn 0.4914749 -0.8115112 -0.3160728
vn -0.6532179 -0.718107 -0.2400598
vn -0.6532179 -0.718107 -0.2400598
vn -0.6532179 -0.718107 -0.2400598
vn -0.6532179 -0.718107 -0.2400598
vn -0.2119519 -0.9721896 -0.09961817
vn -0.2119519 -0.9721896 -0.09961817
vn -0.2119519 -0.9721896 -0.09961817
vn -0.2119519 -0.9721896 -0.09961817
vn -0.7440112 -0.6305114 0.2211396
vn -0.7440112 -0.6305114 0.2211396
vn -0.7440112 -0.6305114 0.2211396
vn -0.7440112 -0.6305114 0.2211396
vn -0.7073553 -0.4352733 0.5569431
vn -0.7073553 -0.4352733 0.5569431
vn -0.7073553 -0.4352733 0.5569431
vn -0.7073553 -0.4352733 0.5569431
vn -0.4075249 -0.8314518 0.3776392
vn -0.4075249 -0.8314518 0.3776392
vn -0.4075249 -0.8314518 0.3776392
vn -0.4075249 -0.8314518 0.3776392
vn -0.3651974 -0.3252243 0.872273
vn -0.3651974 -0.3252243 0.872273
vn -0.3651974 -0.3252243 0.872273
vn -0.3651974 -0.3252243 0.872273
vn 0.1486207 -0.5171556 0.8428891
vn 0.1486207 -0.5171556 0.8428891
vn 0.1486207 -0.5171556 0.8428891
vn 0.1486207 -0.5171556 0.8428891
vn 0.2772343 -0.8479899 0.4517237
vn 0.2772343 -0.8479899 0.4517237
vn 0.2772343 -0.8479899 0.4517237
vn 0.2772343 -0.8479899 0.4517237
vn 0.5616382 -0.2855596 0.7765425
vn 0.5616382 -0.2855596 0.7765425
vn 0.5616382 -0.2855596 0.7765425
vn 0.5616382 -0.2855596 0.7765425
vn 0.8749908 -0.4775707 0.07948228
vn 0.8749908 -0.4775707 0.07948228
vn 0.8749908 -0.4775707 0.07948228
vn 0.8749908 -0.4775707 0.07948228
vn 0.5077834 -0.8572036 0.08577918
vn 0.5077834 -0.8572036 0.08577918
vn 0.5077834 -0.8572036 0.08577918
vn 0.5077834 -0.8572036 0.08577918
vn 0.8124386 -0.4313345 -0.3922934
vn 0.8124386 -0.4313345 -0.3922934
vn 0.8124386 -0.4313345 -0.3922934
vn 0.8124386 -0.4313345 -0.3922934
vn 0.8022634 -0.4982412 -0.3288301
vn 0.8022634 -0.4982412 -0.3288301
vn 0.8022634 -0.4982412 -0.3288301
vn 0.8022634 -0.4982412 -0.3288301
vn 0.7361068 -0.6657283 0.1222812
vn 0.7361068 -0.6657283 0.1222812
vn 0.7361068 -0.6657283 0.1222812
vn 0.7361068 -0.6657283 0.1222812
vn 0.4937396 -0.715476 0.4942825
vn 0.4937396 -0.715476 0.4942825
vn 0.4937396 -0.715476 0.4942825
vn 0.4937396 -0.715476 0.4942825
vn 0.4072905 -0.7401693 0.5350363
vn 0.4072905 -0.7401693 0.5350363
vn 0.4072905 -0.7401693 0.5350363
vn 0.4072905 -0.7401693 0.5350363
vn -0.145877 -0.8764157 0.4589285
vn -0.145877 -0.8764157 0.4589285
vn -0.145877 -0.8764157 0.4589285
vn -0.145877 -0.8764157 0.4589285
vn -0.07864009 -0.9031724 0.4220133
vn -0.07864009 -0.9031724 0.4220133
vn -0.07864009 -0.9031724 0.4220133
vn -0.07864009 -0.9031724 0.4220133
vn -0.5454268 -0.7467658 -0.3805924
vn -0.5454268 -0.7467658 -0.3805924
vn -0.5454268 -0.7467658 -0.3805924
vn -0.5454268 -0.7467658 -0.3805924
vn -0.8625212 -0.2830401 -0.4194584
vn -0.8625212 -0.2830401 -0.4194584
vn -0.8625212 -0.2830401 -0.4194584
vn -0.8625212 -0.2830401 -0.4194584
vn 0.1198935 -0.9532043 -0.2775374
vn 0.1198935 -0.9532043 -0.2775374
vn 0.1198935 -0.9532043 -0.2775374
vn 0.1198935 -0.9532043 -0.2775374
vn 0.5753497 -0.4916373 -0.6536555
vn 0.5753497 -0.4916373 -0.6536555
vn 0.5753497 -0.4916373 -0.6536555
vn 0.5753497 -0.4916373 -0.6536555
vn 0.9804806 -0.1936704 -0.03390825
vn 0.9804806 -0.1936704 -0.03390825
vn 0.9804806 -0.1936704 -0.03390825
vn 0.9804806 -0.1936704 -0.03390825
vn 0.7759308 -0.4186211 0.4718982
vn 0.7759308 -0.4186211 0.4718982
vn 0.7759308 -0.4186211 0.4718982
vn 0.7759308 -0.4186211 0.4718982
vn 0.2441555 -0.520025 0.8185122
vn 0.2441555 -0.520025 0.8185122
vn 0.2441555 -0.520025 0.8185122
vn 0.2441555 -0.520025 0.8185122
vn -0.2025095 -0.9141036 0.3512899
vn -0.2025095 -0.9141036 0.3512899
vn -0.2025095 -0.9141036 0.3512899
vn -0.2025095 -0.9141036 0.3512899
vn -0.9567927 -0.2872145 -0.04533939
vn -0.9567927 -0.2872145 -0.04533939
vn -0.9567927 -0.2872145 -0.04533939
vn -0.9567927 -0.2872145 -0.04533939

vt 0.5004883 0.9936523
vt 0.5004883 0.9936523
vt 0.5004883 0.9936523
vt 0.5004883 0.9936523
vt 0.5004883 0.9936523
vt 0.5004883 0.9936523
vt 0.5004883 0.9936523
vt 0.5004883 0.9936523
vt 0.5004883 0.9936523
vt 0.5004883 0.9936523
vt 0.5004883 0.9936523
vt 0.5004883 0.9936523
vt 0.5004883 0.9936523
vt 0.5004883 0.9936523
vt 0.5004883 0.9936523
vt 0.5004883 0.9936523
vt 0.5004883 0.9936523
vt 0.5004883 0.9936523
vt 0.5004883 0.9936523
vt 0.5004883 0.9936523
vt 0.5004883 0.9936523
vt 0.5004883 0.9936523
vt 0.5004883 0.9936523
vt 0.5004883 0.9936523
vt 0.5004883 0.9936523
vt 0.5004883 0.9936523
vt 0.5004883 0.9936523
vt 0.5004883 0.9936523
vt 0.5004883 0.9936523
vt 0.5004883 0.9936523
vt 0.5004883 0.9936523
vt 0.5004883 0.9936523
vt 0.5004883 0.9936523
vt 0.5004883 0.9936523
vt 0.5004883 0.9936523
vt 0.5004883 0.9936523
vt 0.5004883 0.9936523
vt 0.5004883 0.9936523
vt 0.5004883 0.9936523
vt 0.5004883 0.9936523
vt 0.5004883 0.9936523
vt 0.5004883 0.9936523
vt 0.5004883 0.9936523
vt 0.5004883 0.9936523
vt 0.5004883 0.9936523
vt 0.5004883 0.9936523
vt 0.5004883 0.9936523
vt 0.5004883 0.9936523
vt 0.5004883 0.9936523
vt 0.5004883 0.9936523
vt 0.5004883 0.9936523
vt 0.5004883 0.9936523
vt 0.5004883 0.9936523
vt 0.5004883 0.9936523
vt 0.5004883 0.9936523
vt 0.5004883 0.9936523
vt 0.5004883 0.9936523
vt 0.5004883 0.9936523
vt 0.5004883 0.9936523
vt 0.5004883 0.9936523
vt 0.5004883 0.9936523
vt 0.5004883 0.9936523
vt 0.5004883 0.9936523
vt 0.5004883 0.9936523
vt 0.5004883 0.9936523
vt 0.5004883 0.9936523
vt 0.5004883 0.9936523
vt 0.5004883 0.9936523
vt 0.5004883 0.9936523
vt 0.5004883 0.9936523
vt 0.5004883 0.9936523
vt 0.5004883 0.9936523
vt 0.5004883 0.9936523
vt 0.5004883 0.9936523
vt 0.5004883 0.9936523
vt 0.5004883 0.9936523
vt 0.5004883 0.9936523
vt 0.5004883 0.9936523
vt 0.5004883 0.9936523
vt 0.5004883 0.9936523
vt 0.5004883 0.9936523
vt 0.5004883 0.9936523
vt 0.5004883 0.9936523
vt 0.5004883 0.9936523
vt 0.5004883 0.9936523
vt 0.5004883 0.9936523
vt 0.5004883 0.9936523
vt 0.5004883 0.9936523
vt 0.5004883 0.9936523
vt 0.5004883 0.9936523
vt 0.5004883 0.9936523
vt 0.5004883 0.9936523
vt 0.5004883 0.9936523
vt 0.5004883 0.9936523
vt 0.5004883 0.9936523
vt 0.5004883 0.9936523
vt 0.5004883 0.9936523
vt 0.5004883 0.9936523
vt 0.5004883 0.9936523
vt 0.5004883 0.9936523
vt 0.5004883 0.9936523
vt 0.5004883 0.9936523
vt 0.5004883 0.9936523
vt 0.5004883 0.9936523
vt 0.5004883 0.9936523
vt 0.5004883 0.9936523
vt 0.5004883 0.9936523
vt 0.5004883 0.9936523
vt 0.5004883 0.9936523
vt 0.5004883 0.9936523
vt 0.5004883 0.9936523
vt 0.5004883 0.9936523
vt 0.5004883 0.9936523
vt 0.5004883 0.9936523
vt 0.5004883 0.9936523
vt 0.5004883 0.9936523
vt 0.5004883 0.9936523
vt 0.5004883 0.9936523
vt 0.5004883 0.9936523
vt 0.5004883 0.9936523
vt 0.5004883 0.9936523
vt 0.5004883 0.9936523
vt 0.5004883 0.9936523
vt 0.5004883 0.9936523
vt 0.5004883 0.9936523
vt 0.5004883 0.9936523
vt 0.5004883 0.9936523
vt 0.5004883 0.9936523
vt 0.5004883 0.9936523
vt 0.5004883 0.9936523
vt 0.5004883 0.9936523
vt 0.5004883 0.9936523

g Stars_3674_32
usemtl Stars_3674_32
usemap Stars_3674_32
f 1/1/1 3/3/3 2/2/2
f 1/1/1 4/4/4 3/3/3
f 5/5/5 7/7/7 6/6/6
f 5/5/5 8/8/8 7/7/7
f 9/9/9 11/11/11 10/10/10
f 9/9/9 12/12/12 11/11/11
f 13/13/13 15/15/15 14/14/14
f 13/13/13 16/16/16 15/15/15
f 17/17/17 19/19/19 18/18/18
f 17/17/17 20/20/20 19/19/19
f 21/21/21 23/23/23 22/22/22
f 21/21/21 24/24/24 23/23/23
f 25/25/25 27/27/27 26/26/26
f 25/25/25 28/28/28 27/27/27
f 29/29/29 31/31/31 30/30/30
f 29/29/29 32/32/32 31/31/31
f 33/33/33 35/35/35 34/34/34
f 33/33/33 36/36/36 35/35/35
f 37/37/37 39/39/39 38/38/38
f 37/37/37 40/40/40 39/39/39
f 41/41/41 43/43/43 42/42/42
f 41/41/41 44/44/44 43/43/43
f 45/45/45 47/47/47 46/46/46
f 45/45/45 48/48/48 47/47/47
f 49/49/49 51/51/51 50/50/50
f 49/49/49 52/52/52 51/51/51
f 53/53/53 55/55/55 54/54/54
f 53/53/53 56/56/56 55/55/55
f 57/57/57 59/59/59 58/58/58
f 57/57/57 60/60/60 59/59/59
f 61/61/61 63/63/63 62/62/62
f 61/61/61 64/64/64 63/63/63
f 65/65/65 67/67/67 66/66/66
f 65/65/65 68/68/68 67/67/67
f 69/69/69 71/71/71 70/70/70
f 69/69/69 72/72/72 71/71/71
f 73/73/73 75/75/75 74/74/74
f 73/73/73 76/76/76 75/75/75
f 77/77/77 79/79/79 78/78/78
f 77/77/77 80/80/80 79/79/79
f 81/81/81 83/83/83 82/82/82
f 81/81/81 84/84/84 83/83/83
f 85/85/85 87/87/87 86/86/86
f 85/85/85 88/88/88 87/87/87
f 89/89/89 91/91/91 90/90/90
f 89/89/89 92/92/92 91/91/91
f 93/93/93 95/95/95 94/94/94
f 93/93/93 96/96/96 95/95/95
f 97/97/97 99/99/99 98/98/98
f 97/97/97 100/100/100 99/99/99
f 101/101/101 103/103/103 102/102/102
f 101/101/101 104/104/104 103/103/103
f 105/105/105 107/107/107 106/106/106
f 105/105/105 108/108/108 107/107/107
f 109/109/109 111/111/111 110/110/110
f 109/109/109 112/112/112 111/111/111
f 113/113/113 115/115/115 114/114/114
f 113/113/113 116/116/116 115/115/115
f 117/117/117 119/119/119 118/118/118
f 117/117/117 120/120/120 119/119/119
f 121/121/121 123/123/123 122/122/122
f 121/121/121 124/124/124 123/123/123
f 125/125/125 127/127/127 126/126/126
f 125/125/125 128/128/128 127/127/127
f 129/129/129 131/131/131 130/130/130
f 129/129/129 132/132/132 131/131/131
