#tree_medium_mesh_3185_63.obj

v -0.1759 -0.01415253 0.2412589
v -0.1759 2.772648 0.2412589
v 0.1804632 2.772648 0.2412616
v 0.1804632 -0.01415253 0.2412616
v -0.1758974 2.772648 -0.1351567
v -0.1758974 -0.01415253 -0.1351567
v 0.1804631 -0.01415253 -0.1351586
v 0.1804631 2.772648 -0.1351586
v 0.1804632 -0.01415253 0.2412616
v 0.1804632 2.772648 0.2412616
v 0.1804631 2.772648 -0.1351586
v 0.1804631 -0.01415253 -0.1351586
v -0.1758974 -0.01415253 -0.1351567
v -0.1758974 2.772648 -0.1351567
v -0.1759 2.772648 0.2412589
v -0.1759 -0.01415253 0.2412589
v 0.9585043 3.159245 0.397966
v 0.9585044 3.159245 1.505108
v -0.08964029 3.159245 1.505108
v -0.08964081 3.159245 0.397967
v -0.08964029 2.016364 1.505108
v 0.9585044 2.016364 1.505108
v 0.9585043 2.016364 0.397966
v -0.08964081 2.016364 0.397967
v 0.9585043 2.016364 0.397966
v 0.9585043 3.159245 0.397966
v -0.08964081 3.159245 0.397967
v -0.08964081 2.016364 0.397967
v -0.08964081 2.016364 0.397967
v -0.08964081 3.159245 0.397967
v -0.08964029 3.159245 1.505108
v -0.08964029 2.016364 1.505108
v -0.08964029 2.016364 1.505108
v -0.08964029 3.159245 1.505108
v 0.9585044 3.159245 1.505108
v 0.9585044 2.016364 1.505108
v 0.9585044 2.016364 1.505108
v 0.9585044 3.159245 1.505108
v 0.9585043 3.159245 0.397966
v 0.9585043 2.016364 0.397966
v -1.05214 3.383144 0.9670057
v -1.052136 3.383144 -0.09691655
v -0.04491079 3.383144 -0.09691931
v -0.04491027 3.383144 0.967006
v -0.04491079 2.284875 -0.09691931
v -1.052136 2.284875 -0.09691655
v -1.05214 2.284875 0.9670057
v -0.04491027 2.284875 0.967006
v -1.05214 2.284875 0.9670057
v -1.05214 3.383144 0.9670057
v -0.04491027 3.383144 0.967006
v -0.04491027 2.284875 0.967006
v -0.04491027 2.284875 0.967006
v -0.04491027 3.383144 0.967006
v -0.04491079 3.383144 -0.09691931
v -0.04491079 2.284875 -0.09691931
v -0.04491079 2.284875 -0.09691931
v -0.04491079 3.383144 -0.09691931
v -1.052136 3.383144 -0.09691655
v -1.052136 2.284875 -0.09691655
v -1.052136 2.284875 -0.09691655
v -1.052136 3.383144 -0.09691655
v -1.05214 3.383144 0.9670057
v -1.05214 2.284875 0.9670057
v -0.3097549 3.320361 -0.4302647
v -0.309754 3.320361 -1.505111
v 0.8774492 3.320361 -1.505113
v 0.877452 3.320361 -0.4302638
v 0.8774492 2.210818 -1.505113
v -0.309754 2.210818 -1.505111
v -0.3097549 2.210818 -0.4302647
v 0.877452 2.210818 -0.4302638
v -0.3097549 2.210818 -0.4302647
v -0.3097549 3.320361 -0.4302647
v 0.877452 3.320361 -0.4302638
v 0.877452 2.210818 -0.4302638
v 0.877452 2.210818 -0.4302638
v 0.877452 3.320361 -0.4302638
v 0.8774492 3.320361 -1.505113
v 0.8774492 2.210818 -1.505113
v 0.8774492 2.210818 -1.505113
v 0.8774492 3.320361 -1.505113
v -0.309754 3.320361 -1.505111
v -0.309754 2.210818 -1.505111
v -0.309754 2.210818 -1.505111
v -0.309754 3.320361 -1.505111
v -0.3097549 3.320361 -0.4302647
v -0.3097549 2.210818 -0.4302647
v -1.00955 3.163059 0.02369357
v -1.009553 3.163059 -1.119073
v 0.07231718 3.163059 -1.119071
v 0.07231545 3.163059 0.02369304
v 0.07231718 1.983407 -1.119071
v -1.009553 1.983407 -1.119073
v -1.00955 1.983407 0.02369357
v 0.07231545 1.983407 0.02369304
v -1.00955 1.983407 0.02369357
v -1.00955 3.163059 0.02369357
v 0.07231545 3.163059 0.02369304
v 0.07231545 1.983407 0.02369304
v 0.07231545 1.983407 0.02369304
v 0.07231545 3.163059 0.02369304
v 0.07231718 3.163059 -1.119071
v 0.07231718 1.983407 -1.119071
v 0.07231718 1.983407 -1.119071
v 0.07231718 3.163059 -1.119071
v -1.009553 3.163059 -1.119073
v -1.009553 1.983407 -1.119073
v -1.009553 1.983407 -1.119073
v -1.009553 3.163059 -1.119073
v -1.00955 3.163059 0.02369357
v -1.00955 1.983407 0.02369357
v -0.6414318 4.433909 0.6347739
v -0.6414324 4.433909 -0.7712392
v 0.6896582 4.433909 -0.7712393
v 0.6896573 4.433909 0.6347751
v 0.6896582 2.98251 -0.7712393
v -0.6414324 2.98251 -0.7712392
v -0.6414318 2.98251 0.6347739
v 0.6896573 2.98251 0.6347751
v -0.6414318 2.98251 0.6347739
v -0.6414318 4.433909 0.6347739
v 0.6896573 4.433909 0.6347751
v 0.6896573 2.98251 0.6347751
v 0.6896573 2.98251 0.6347751
v 0.6896573 4.433909 0.6347751
v 0.6896582 4.433909 -0.7712393
v 0.6896582 2.98251 -0.7712393
v 0.6896582 2.98251 -0.7712393
v 0.6896582 4.433909 -0.7712393
v -0.6414324 4.433909 -0.7712392
v -0.6414324 2.98251 -0.7712392
v -0.6414324 2.98251 -0.7712392
v -0.6414324 4.433909 -0.7712392
v -0.6414318 4.433909 0.6347739
v -0.6414318 2.98251 0.6347739
v 0.3382996 3.172136 -0.4666499
v 1.41315 3.172136 -0.4666482
v 1.413148 3.172136 0.5509201
v 0.3383015 3.172136 0.550922
v 1.413148 2.062593 0.5509201
v 1.41315 2.062593 -0.4666482
v 0.3382996 2.062593 -0.4666499
v 0.3383015 2.062593 0.550922
v 0.3382996 2.062593 -0.4666499
v 0.3382996 3.172136 -0.4666499
v 0.3383015 3.172136 0.550922
v 0.3383015 2.062593 0.550922
v 0.3383015 2.062593 0.550922
v 0.3383015 3.172136 0.550922
v 1.413148 3.172136 0.5509201
v 1.413148 2.062593 0.5509201
v 1.413148 2.062593 0.5509201
v 1.413148 3.172136 0.5509201
v 1.41315 3.172136 -0.4666482
v 1.41315 2.062593 -0.4666482
v 1.41315 2.062593 -0.4666482
v 1.41315 3.172136 -0.4666482
v 0.3382996 3.172136 -0.4666499
v 0.3382996 2.062593 -0.4666499
v -1.413156 2.835091 0.4236162
v -1.413158 2.835091 -0.547093
v -0.4941787 2.835091 -0.5470935
v -0.4941768 2.835091 0.4236156
v -0.4941787 1.83305 -0.5470935
v -1.413158 1.83305 -0.547093
v -1.413156 1.83305 0.4236162
v -0.4941768 1.83305 0.4236156
v -1.413156 1.83305 0.4236162
v -1.413156 2.835091 0.4236162
v -0.4941768 2.835091 0.4236156
v -0.4941768 1.83305 0.4236156
v -0.4941768 1.83305 0.4236156
v -0.4941768 2.835091 0.4236156
v -0.4941787 2.835091 -0.5470935
v -0.4941787 1.83305 -0.5470935
v -0.4941787 1.83305 -0.5470935
v -0.4941787 2.835091 -0.5470935
v -1.413158 2.835091 -0.547093
v -1.413158 1.83305 -0.547093
v -1.413158 1.83305 -0.547093
v -1.413158 2.835091 -0.547093
v -1.413156 2.835091 0.4236162
v -1.413156 1.83305 0.4236162

vn -0.7071069 0 0.7071067
vn -0.7071069 0 0.7071067
vn -0.7071069 0 0.7071067
vn -0.7071069 0 0.7071067
vn 0.7071069 0 -0.7071067
vn 0.7071069 0 -0.7071067
vn 0.7071069 0 -0.7071067
vn 0.7071069 0 -0.7071067
vn 0.7071067 0 0.7071069
vn 0.7071067 0 0.7071069
vn 0.7071067 0 0.7071069
vn 0.7071067 0 0.7071069
vn -0.7071067 0 -0.7071069
vn -0.7071067 0 -0.7071069
vn -0.7071067 0 -0.7071069
vn -0.7071067 0 -0.7071069
vn 0 0.9999999 0
vn 0 0.9999999 0
vn 0 0.9999999 0
vn 0 0.9999999 0
vn 0 -0.9999999 0
vn 0 -0.9999999 0
vn 0 -0.9999999 0
vn 0 -0.9999999 0
vn 0.7071069 0 -0.7071067
vn 0.7071069 0 -0.7071067
vn 0.7071069 0 -0.7071067
vn 0.7071069 0 -0.7071067
vn -0.7071067 0 -0.7071069
vn -0.7071067 0 -0.7071069
vn -0.7071067 0 -0.7071069
vn -0.7071067 0 -0.7071069
vn -0.7071069 0 0.7071067
vn -0.7071069 0 0.7071067
vn -0.7071069 0 0.7071067
vn -0.7071069 0 0.7071067
vn 0.7071067 0 0.7071069
vn 0.7071067 0 0.7071069
vn 0.7071067 0 0.7071069
vn 0.7071067 0 0.7071069
vn 0 0.9999999 0
vn 0 0.9999999 0
vn 0 0.9999999 0
vn 0 0.9999999 0
vn 0 -0.9999999 0
vn 0 -0.9999999 0
vn 0 -0.9999999 0
vn 0 -0.9999999 0
vn -0.7071069 0 0.7071067
vn -0.7071069 0 0.7071067
vn -0.7071069 0 0.7071067
vn -0.7071069 0 0.7071067
vn 0.7071067 0 0.7071069
vn 0.7071067 0 0.7071069
vn 0.7071067 0 0.7071069
vn 0.7071067 0 0.7071069
vn 0.7071069 0 -0.7071067
vn 0.7071069 0 -0.7071067
vn 0.7071069 0 -0.7071067
vn 0.7071069 0 -0.7071067
vn -0.7071067 0 -0.7071069
vn -0.7071067 0 -0.7071069
vn -0.7071067 0 -0.7071069
vn -0.7071067 0 -0.7071069
vn 0 0.9999999 0
vn 0 0.9999999 0
vn 0 0.9999999 0
vn 0 0.9999999 0
vn 0 -0.9999999 0
vn 0 -0.9999999 0
vn 0 -0.9999999 0
vn 0 -0.9999999 0
vn -0.7071069 0 0.7071067
vn -0.7071069 0 0.7071067
vn -0.7071069 0 0.7071067
vn -0.7071069 0 0.7071067
vn 0.7071067 0 0.7071069
vn 0.7071067 0 0.7071069
vn 0.7071067 0 0.7071069
vn 0.7071067 0 0.7071069
vn 0.7071069 0 -0.7071067
vn 0.7071069 0 -0.7071067
vn 0.7071069 0 -0.7071067
vn 0.7071069 0 -0.7071067
vn -0.7071067 0 -0.7071069
vn -0.7071067 0 -0.7071069
vn -0.7071067 0 -0.7071069
vn -0.7071067 0 -0.7071069
vn 0 0.9999999 0
vn 0 0.9999999 0
vn 0 0.9999999 0
vn 0 0.9999999 0
vn 0 -0.9999999 0
vn 0 -0.9999999 0
vn 0 -0.9999999 0
vn 0 -0.9999999 0
vn -0.7071069 0 0.7071067
vn -0.7071069 0 0.7071067
vn -0.7071069 0 0.7071067
vn -0.7071069 0 0.7071067
vn 0.7071067 0 0.7071069
vn 0.7071067 0 0.7071069
vn 0.7071067 0 0.7071069
vn 0.7071067 0 0.7071069
vn 0.7071069 0 -0.7071067
vn 0.7071069 0 -0.7071067
vn 0.7071069 0 -0.7071067
vn 0.7071069 0 -0.7071067
vn -0.7071067 0 -0.7071069
vn -0.7071067 0 -0.7071069
vn -0.7071067 0 -0.7071069
vn -0.7071067 0 -0.7071069
vn 0 0.9999999 0
vn 0 0.9999999 0
vn 0 0.9999999 0
vn 0 0.9999999 0
vn 0 -0.9999999 0
vn 0 -0.9999999 0
vn 0 -0.9999999 0
vn 0 -0.9999999 0
vn -0.7071069 0 0.7071067
vn -0.7071069 0 0.7071067
vn -0.7071069 0 0.7071067
vn -0.7071069 0 0.7071067
vn 0.7071067 0 0.7071069
vn 0.7071067 0 0.7071069
vn 0.7071067 0 0.7071069
vn 0.7071067 0 0.7071069
vn 0.7071069 0 -0.7071067
vn 0.7071069 0 -0.7071067
vn 0.7071069 0 -0.7071067
vn 0.7071069 0 -0.7071067
vn -0.7071067 0 -0.7071069
vn -0.7071067 0 -0.7071069
vn -0.7071067 0 -0.7071069
vn -0.7071067 0 -0.7071069
vn 0 0.9999999 0
vn 0 0.9999999 0
vn 0 0.9999999 0
vn 0 0.9999999 0
vn 0 -0.9999999 0
vn 0 -0.9999999 0
vn 0 -0.9999999 0
vn 0 -0.9999999 0
vn -0.7071067 0 -0.7071069
vn -0.7071067 0 -0.7071069
vn -0.7071067 0 -0.7071069
vn -0.7071067 0 -0.7071069
vn -0.7071069 0 0.7071067
vn -0.7071069 0 0.7071067
vn -0.7071069 0 0.7071067
vn -0.7071069 0 0.7071067
vn 0.7071067 0 0.7071069
vn 0.7071067 0 0.7071069
vn 0.7071067 0 0.7071069
vn 0.7071067 0 0.7071069
vn 0.7071069 0 -0.7071067
vn 0.7071069 0 -0.7071067
vn 0.7071069 0 -0.7071067
vn 0.7071069 0 -0.7071067
vn 0 0.9999999 0
vn 0 0.9999999 0
vn 0 0.9999999 0
vn 0 0.9999999 0
vn 0 -0.9999999 0
vn 0 -0.9999999 0
vn 0 -0.9999999 0
vn 0 -0.9999999 0
vn -0.7071069 0 0.7071067
vn -0.7071069 0 0.7071067
vn -0.7071069 0 0.7071067
vn -0.7071069 0 0.7071067
vn 0.7071067 0 0.7071069
vn 0.7071067 0 0.7071069
vn 0.7071067 0 0.7071069
vn 0.7071067 0 0.7071069
vn 0.7071069 0 -0.7071067
vn 0.7071069 0 -0.7071067
vn 0.7071069 0 -0.7071067
vn 0.7071069 0 -0.7071067
vn -0.7071067 0 -0.7071069
vn -0.7071067 0 -0.7071069
vn -0.7071067 0 -0.7071069
vn -0.7071067 0 -0.7071069

vt 0.4301758 0.217041
vt 0.4367676 0.217041
vt 0.4367676 0.2108154
vt 0.4301758 0.2108154
vt 0.4128418 0.1791992
vt 0.4194336 0.1791992
vt 0.4194336 0.1729736
vt 0.4128418 0.1729736
vt 0.197876 0.1948242
vt 0.2044678 0.1948242
vt 0.2044678 0.1883545
vt 0.197876 0.1883545
vt 0.1977539 0.1821289
vt 0.2043457 0.1821289
vt 0.2043457 0.1756592
vt 0.1977539 0.1756592
vt 0.05627441 0.7744141
vt 0.05627441 0.8994141
vt 0.1745605 0.8994141
vt 0.1745605 0.7744141
vt 0.9384766 0.4719238
vt 0.8491211 0.4719238
vt 0.8491211 0.5664063
vt 0.9384766 0.5664063
vt 0.8793945 0.4306641
vt 0.8793945 0.4841309
vt 0.9282227 0.4841309
vt 0.9282227 0.4306641
vt 0.4797363 0.6035156
vt 0.4797363 0.6147461
vt 0.4904785 0.6147461
vt 0.4904785 0.6035156
vt 0.3713379 0.5600586
vt 0.3713379 0.5195313
vt 0.3344727 0.5195313
vt 0.3344727 0.5600586
vt 0.1029053 0.5327148
vt 0.1029053 0.5673828
vt 0.1363525 0.5673828
vt 0.1363525 0.5327148
vt 0.05627441 0.7744141
vt 0.05627441 0.8994141
vt 0.1745605 0.8994141
vt 0.1745605 0.7744141
vt 0.8544922 0.4382324
vt 0.84375 0.4382324
vt 0.84375 0.449707
vt 0.8544922 0.449707
vt 0.2575684 0.4787598
vt 0.2575684 0.519043
vt 0.2946777 0.519043
vt 0.2946777 0.4787598
vt 0.2954102 0.4787598
vt 0.2954102 0.519043
vt 0.3347168 0.519043
vt 0.3347168 0.4787598
vt 0.3713379 0.5600586
vt 0.3713379 0.5195313
vt 0.3344727 0.5195313
vt 0.3344727 0.5600586
vt 0.5214844 0.6147461
vt 0.5214844 0.6259766
vt 0.5322266 0.6259766
vt 0.5322266 0.6147461
vt 0.05627441 0.7744141
vt 0.05627441 0.8994141
vt 0.1745605 0.8994141
vt 0.1745605 0.7744141
vt 0.9384766 0.4719238
vt 0.8491211 0.4719238
vt 0.8491211 0.5664063
vt 0.9384766 0.5664063
vt 0.8793945 0.4306641
vt 0.8793945 0.4841309
vt 0.9282227 0.4841309
vt 0.9282227 0.4306641
vt 0.8081055 0.8076172
vt 0.8081055 0.8422852
vt 0.8417969 0.8422852
vt 0.8417969 0.8076172
vt 0.1600342 0.473877
vt 0.1600342 0.4040527
vt 0.0960083 0.4040527
vt 0.0960083 0.473877
vt 0.6542969 0.3371582
vt 0.6542969 0.3903809
vt 0.7060547 0.3903809
vt 0.7060547 0.3371582
vt 0.05627441 0.7744141
vt 0.05627441 0.8994141
vt 0.1745605 0.8994141
vt 0.1745605 0.7744141
vt 0.9384766 0.4719238
vt 0.8491211 0.4719238
vt 0.8491211 0.5664063
vt 0.9384766 0.5664063
vt 0.2714844 0.3754883
vt 0.2714844 0.4553223
vt 0.3447266 0.4553223
vt 0.3447266 0.3754883
vt 0.8081055 0.8076172
vt 0.8081055 0.8422852
vt 0.8417969 0.8422852
vt 0.8417969 0.8076172
vt 0.1600342 0.473877
vt 0.1600342 0.4040527
vt 0.0960083 0.4040527
vt 0.0960083 0.473877
vt 0.3349609 0.5395508
vt 0.3349609 0.5507813
vt 0.3457031 0.5507813
vt 0.3457031 0.5395508
vt 0.05627441 0.7744141
vt 0.05627441 0.8994141
vt 0.1745605 0.8994141
vt 0.1745605 0.7744141
vt 0.6982422 0.4089355
vt 0.6572266 0.4089355
vt 0.6572266 0.6142578
vt 0.6982422 0.6142578
vt 0.2575684 0.4787598
vt 0.2575684 0.519043
vt 0.2946777 0.519043
vt 0.2946777 0.4787598
vt 0.8081055 0.8076172
vt 0.8081055 0.8422852
vt 0.8417969 0.8422852
vt 0.8417969 0.8076172
vt 0.1450195 0.609375
vt 0.1450195 0.5395508
vt 0.08099365 0.5395508
vt 0.08099365 0.609375
vt 0.4597168 0.4245605
vt 0.4597168 0.515625
vt 0.5478516 0.515625
vt 0.5478516 0.4245605
vt 0.05627441 0.7744141
vt 0.05627441 0.8994141
vt 0.1745605 0.8994141
vt 0.1745605 0.7744141
vt 0.9384766 0.4719238
vt 0.8491211 0.4719238
vt 0.8491211 0.5664063
vt 0.9384766 0.5664063
vt 0.8793945 0.4306641
vt 0.8793945 0.4841309
vt 0.9282227 0.4841309
vt 0.9282227 0.4306641
vt 0.2954102 0.4787598
vt 0.2954102 0.519043
vt 0.3347168 0.519043
vt 0.3347168 0.4787598
vt 0.8730469 0.8774414
vt 0.8730469 0.8427734
vt 0.8413086 0.8427734
vt 0.8413086 0.8774414
vt 0.3464355 0.4040527
vt 0.3464355 0.473877
vt 0.4138184 0.473877
vt 0.4138184 0.4040527
vt 0.05627441 0.7744141
vt 0.05627441 0.8994141
vt 0.1745605 0.8994141
vt 0.1745605 0.7744141
vt 0.8544922 0.4382324
vt 0.84375 0.4382324
vt 0.84375 0.449707
vt 0.8544922 0.449707
vt 0.2575684 0.4787598
vt 0.2575684 0.519043
vt 0.2946777 0.519043
vt 0.2946777 0.4787598
vt 0.2954102 0.4787598
vt 0.2954102 0.519043
vt 0.3347168 0.519043
vt 0.3347168 0.4787598
vt 0.6899414 0.5771484
vt 0.6899414 0.5688477
vt 0.6821289 0.5688477
vt 0.6821289 0.5771484
vt 0.4597168 0.4245605
vt 0.4597168 0.515625
vt 0.5478516 0.515625
vt 0.5478516 0.4245605

g tree_medium_mesh_3185_63
usemtl tree_medium_mesh_3185_63
usemap tree_medium_mesh_3185_63
f 1/1/1 3/3/3 2/2/2
f 1/1/1 4/4/4 3/3/3
f 5/5/5 7/7/7 6/6/6
f 5/5/5 8/8/8 7/7/7
f 9/9/9 11/11/11 10/10/10
f 9/9/9 12/12/12 11/11/11
f 13/13/13 15/15/15 14/14/14
f 13/13/13 16/16/16 15/15/15
f 17/17/17 19/19/19 18/18/18
f 17/17/17 20/20/20 19/19/19
f 21/21/21 23/23/23 22/22/22
f 21/21/21 24/24/24 23/23/23
f 25/25/25 27/27/27 26/26/26
f 25/25/25 28/28/28 27/27/27
f 29/29/29 31/31/31 30/30/30
f 29/29/29 32/32/32 31/31/31
f 33/33/33 35/35/35 34/34/34
f 33/33/33 36/36/36 35/35/35
f 37/37/37 39/39/39 38/38/38
f 37/37/37 40/40/40 39/39/39
f 41/41/41 43/43/43 42/42/42
f 41/41/41 44/44/44 43/43/43
f 45/45/45 47/47/47 46/46/46
f 45/45/45 48/48/48 47/47/47
f 49/49/49 51/51/51 50/50/50
f 49/49/49 52/52/52 51/51/51
f 53/53/53 55/55/55 54/54/54
f 53/53/53 56/56/56 55/55/55
f 57/57/57 59/59/59 58/58/58
f 57/57/57 60/60/60 59/59/59
f 61/61/61 63/63/63 62/62/62
f 61/61/61 64/64/64 63/63/63
f 65/65/65 67/67/67 66/66/66
f 65/65/65 68/68/68 67/67/67
f 69/69/69 71/71/71 70/70/70
f 69/69/69 72/72/72 71/71/71
f 73/73/73 75/75/75 74/74/74
f 73/73/73 76/76/76 75/75/75
f 77/77/77 79/79/79 78/78/78
f 77/77/77 80/80/80 79/79/79
f 81/81/81 83/83/83 82/82/82
f 81/81/81 84/84/84 83/83/83
f 85/85/85 87/87/87 86/86/86
f 85/85/85 88/88/88 87/87/87
f 89/89/89 91/91/91 90/90/90
f 89/89/89 92/92/92 91/91/91
f 93/93/93 95/95/95 94/94/94
f 93/93/93 96/96/96 95/95/95
f 97/97/97 99/99/99 98/98/98
f 97/97/97 100/100/100 99/99/99
f 101/101/101 103/103/103 102/102/102
f 101/101/101 104/104/104 103/103/103
f 105/105/105 107/107/107 106/106/106
f 105/105/105 108/108/108 107/107/107
f 109/109/109 111/111/111 110/110/110
f 109/109/109 112/112/112 111/111/111
f 113/113/113 115/115/115 114/114/114
f 113/113/113 116/116/116 115/115/115
f 117/117/117 119/119/119 118/118/118
f 117/117/117 120/120/120 119/119/119
f 121/121/121 123/123/123 122/122/122
f 121/121/121 124/124/124 123/123/123
f 125/125/125 127/127/127 126/126/126
f 125/125/125 128/128/128 127/127/127
f 129/129/129 131/131/131 130/130/130
f 129/129/129 132/132/132 131/131/131
f 133/133/133 135/135/135 134/134/134
f 133/133/133 136/136/136 135/135/135
f 137/137/137 139/139/139 138/138/138
f 137/137/137 140/140/140 139/139/139
f 141/141/141 143/143/143 142/142/142
f 141/141/141 144/144/144 143/143/143
f 145/145/145 147/147/147 146/146/146
f 145/145/145 148/148/148 147/147/147
f 149/149/149 151/151/151 150/150/150
f 149/149/149 152/152/152 151/151/151
f 153/153/153 155/155/155 154/154/154
f 153/153/153 156/156/156 155/155/155
f 157/157/157 159/159/159 158/158/158
f 157/157/157 160/160/160 159/159/159
f 161/161/161 163/163/163 162/162/162
f 161/161/161 164/164/164 163/163/163
f 165/165/165 167/167/167 166/166/166
f 165/165/165 168/168/168 167/167/167
f 169/169/169 171/171/171 170/170/170
f 169/169/169 172/172/172 171/171/171
f 173/173/173 175/175/175 174/174/174
f 173/173/173 176/176/176 175/175/175
f 177/177/177 179/179/179 178/178/178
f 177/177/177 180/180/180 179/179/179
f 181/181/181 183/183/183 182/182/182
f 181/181/181 184/184/184 183/183/183
