#Wall_Window_01_Grey_955_140.obj

v 1.504715 3.75 0.05487518
v 1.504715 1.706069 0.05487518
v 1.298645 1.5 0.05487518
v 1.298645 3.956069 0.05487518
v 3.504707 1.706069 0.05487518
v 3.710777 1.5 0.05487518
v 1.298645 3.956069 0.05487518
v 1.298645 1.5 0.05487518
v 1.298645 1.5 0
v 1.298645 3.956069 0
v 1.504715 1.706069 -0.03361893
v 1.504715 1.706069 0.05487518
v 1.504715 3.75 0.05487518
v 1.504715 3.75 -0.03361893
v 3.710785 1.5 0
v 3.710777 1.5 0.05487518
v 3.710785 3.956069 0.05487518
v 3.710785 3.956069 0
v 3.710785 3.956069 0
v 3.710785 3.956069 0.05487518
v 1.298645 3.956069 0.05487518
v 1.298645 3.956069 0
v 1.298645 3.956069 0.05487518
v 3.710785 3.956069 0.05487518
v 3.504715 3.75 0.05487518
v 1.504715 3.75 0.05487518
v 3.504707 1.706069 0.05487518
v 3.710777 1.5 0.05487518
v 1.504715 3.75 0.05487518
v 3.504715 3.75 0.05487518
v 3.504715 3.75 -0.03361893
v 1.504715 3.75 -0.03361893
v 0 4.208395 0.05487518
v 0 4.414464 0.05487518
v 5 4.414464 0.05487518
v 5 4.208395 0.05487518
v 5 4.208395 0.05487518
v 5 4.208395 0
v 0 4.208395 0
v 0 4.208395 0.05487518
v 0 0.2060692 0
v 1.298645 1.5 0
v 3.710785 1.5 0
v 5 0.2060695 0
v 5 4.208395 0
v 3.710785 3.956069 0
v 0 4.208395 0
v 1.298645 3.956069 0
v 3.504715 3.75 0.05487518
v 3.504707 1.706069 0.05487518
v 3.504707 1.706069 -0.03361893
v 3.504715 3.75 -0.03361893
v 3.710777 1.5 0.05487518
v 3.710785 1.5 0
v 1.298645 1.5 0
v 1.298645 1.5 0.05487518
v 1.504715 1.706069 0.05487518
v 1.504715 1.706069 -0.03361893
v 3.504707 1.706069 -0.03361893
v 3.504707 1.706069 0.05487518
v 0 -0.2706633 0.05487518
v 0 0.2060695 0.05487518
v 5 0.2060695 0.05487518
v 5 -0.2706633 0.05487518
v 0 0.2060695 0.05487518
v 0 0.2060692 0
v 5 0.2060695 0
v 5 0.2060695 0.05487518

vn 0 0 1
vn 0 0 1
vn 0 0 1
vn 0 0 1
vn 0 0 1
vn 0 0 1
vn -1 0 0
vn -1 0 0
vn -1 0 0
vn -1 0 0
vn 1 0 0
vn 1 0 0
vn 1 0 0
vn 1 0 0
vn 1 0 6.951656E-05
vn 1 0 6.951656E-05
vn 1 0 6.951656E-05
vn 1 0 6.951656E-05
vn 0 1 0
vn 0 1 0
vn 0 1 0
vn 0 1 0
vn 0 0 1
vn 0 0 1
vn 0 0 1
vn 0 0 1
vn 0 0 1
vn 0 0 1
vn 0 -1 0
vn 0 -1 0
vn 0 -1 0
vn 0 -1 0
vn 0 0 1
vn 0 0 1
vn 0 0 1
vn 0 0 1
vn 0 -1 0
vn 0 -1 0
vn 0 -1 0
vn 0 -1 0
vn 0 0 1
vn 0 0 1
vn 0 0 1
vn 0 0 1
vn 0 0 1
vn 0 0 1
vn 0 0 1
vn 0 0 1
vn -1 0 0
vn -1 0 0
vn -1 0 0
vn -1 0 0
vn 0 -1 0
vn 0 -1 0
vn 0 -1 0
vn 0 -1 0
vn 0 1 0
vn 0 1 0
vn 0 1 0
vn 0 1 0
vn 0 0 1
vn 0 0 1
vn 0 0 1
vn 0 0 1
vn 0 1 0
vn 0 1 0
vn 0 1 0
vn 0 1 0

vt 0.3239746 0.3986816
vt 0.3239746 0.3969727
vt 0.3239746 0.3969727
vt 0.3239746 0.3986816
vt 0.3239746 0.3969727
vt 0.3239746 0.3969727
vt 0.1708984 0.4003906
vt 0.1708984 0.4003906
vt 0.1708984 0.4003906
vt 0.1708984 0.4003906
vt 0.1708984 0.3986816
vt 0.1708984 0.3986816
vt 0.1708984 0.3986816
vt 0.1708984 0.3986816
vt 0.1708984 0.4003906
vt 0.1708984 0.4003906
vt 0.1708984 0.4003906
vt 0.1708984 0.4003906
vt 0.1708984 0.3994141
vt 0.1708984 0.3994141
vt 0.1708984 0.3994141
vt 0.1708984 0.3994141
vt 0.3239746 0.3969727
vt 0.3239746 0.3969727
vt 0.3239746 0.3969727
vt 0.3239746 0.3969727
vt 0.3239746 0.3986816
vt 0.3239746 0.3986816
vt 0.1708984 0.3986816
vt 0.1708984 0.3986816
vt 0.1708984 0.3986816
vt 0.1708984 0.3986816
vt 0.3239746 0.3969727
vt 0.3239746 0.3969727
vt 0.3239746 0.3969727
vt 0.3239746 0.3969727
vt 0.1708984 0.4003906
vt 0.1708984 0.4003906
vt 0.1708984 0.4003906
vt 0.1708984 0.4003906
vt 0.449707 0.4768066
vt 0.449707 0.4768066
vt 0.449707 0.4768066
vt 0.449707 0.4768066
vt 0.449707 0.4768066
vt 0.449707 0.4768066
vt 0.449707 0.4768066
vt 0.449707 0.4768066
vt 0.1708984 0.3986816
vt 0.1708984 0.3986816
vt 0.1708984 0.3986816
vt 0.1708984 0.3986816
vt 0.1708984 0.3994141
vt 0.1708984 0.3994141
vt 0.1708984 0.3994141
vt 0.1708984 0.3994141
vt 0.1708984 0.3986816
vt 0.1708984 0.3986816
vt 0.1708984 0.3986816
vt 0.1708984 0.3986816
vt 0.3239746 0.3969727
vt 0.3239746 0.3969727
vt 0.3239746 0.3969727
vt 0.3239746 0.3969727
vt 0.1708984 0.3994141
vt 0.1708984 0.3994141
vt 0.1708984 0.3994141
vt 0.1708984 0.3994141

g Wall_Window_01_Grey_955_140
usemtl Wall_Window_01_Grey_955_140
usemap Wall_Window_01_Grey_955_140
f 1/1/1 3/3/3 2/2/2
f 1/1/1 4/4/4 3/3/3
f 5/5/5 2/2/2 3/3/3
f 5/5/5 3/3/3 6/6/6
f 7/7/7 9/9/9 8/8/8
f 7/7/7 10/10/10 9/9/9
f 11/11/11 13/13/13 12/12/12
f 11/11/11 14/14/14 13/13/13
f 15/15/15 17/17/17 16/16/16
f 15/15/15 18/18/18 17/17/17
f 19/19/19 21/21/21 20/20/20
f 19/19/19 22/22/22 21/21/21
f 23/23/23 25/25/25 24/24/24
f 23/23/23 26/26/26 25/25/25
f 24/24/24 25/25/25 27/27/27
f 24/24/24 27/27/27 28/28/28
f 29/29/29 31/31/31 30/30/30
f 29/29/29 32/32/32 31/31/31
f 33/33/33 35/35/35 34/34/34
f 33/33/33 36/36/36 35/35/35
f 37/37/37 39/39/39 38/38/38
f 37/37/37 40/40/40 39/39/39
f 41/41/41 43/43/43 42/42/42
f 41/41/41 44/44/44 43/43/43
f 45/45/45 43/43/43 44/44/44
f 45/45/45 46/46/46 43/43/43
f 47/47/47 46/46/46 45/45/45
f 47/47/47 48/48/48 46/46/46
f 48/48/48 41/41/41 42/42/42
f 48/48/48 47/47/47 41/41/41
f 49/49/49 51/51/51 50/50/50
f 49/49/49 52/52/52 51/51/51
f 53/53/53 55/55/55 54/54/54
f 53/53/53 56/56/56 55/55/55
f 57/57/57 59/59/59 58/58/58
f 57/57/57 60/60/60 59/59/59
f 61/61/61 63/63/63 62/62/62
f 61/61/61 64/64/64 63/63/63
f 65/65/65 67/67/67 66/66/66
f 65/65/65 68/68/68 67/67/67
