#Wall_02_Blue_1089_77.obj

v 4.999996 1.301504 4.917383E-07
v -4.768372E-06 1.301504 4.917383E-07
v -4.768372E-06 4.208395 4.917383E-07
v 4.999996 4.208395 4.917383E-07
v 4.999996 0.2060695 4.917383E-07
v -4.768372E-06 0.2060695 4.917383E-07
v -4.768372E-06 1.170015 4.917383E-07
v 4.999996 1.170015 4.917383E-07
v -3.242493E-06 4.208395 0.0548751
v -4.768372E-06 4.414464 0.0548751
v 4.999996 4.414464 0.05487491
v 4.999996 4.208395 0.05487491
v 4.999996 4.208395 0.05487491
v 4.999996 4.208395 4.917383E-07
v -3.242493E-06 4.208395 4.917383E-07
v -3.242493E-06 4.208395 0.0548751
v -3.242493E-06 1.170015 0.0548751
v -4.768372E-06 1.301504 0.0548751
v 4.999996 1.301504 0.05487491
v 4.999996 1.170015 0.05487491
v -4.768372E-06 1.301504 0.0548751
v -4.768372E-06 1.301504 4.917383E-07
v 4.999996 1.301504 4.917383E-07
v 4.999996 1.301504 0.05487491
v 4.999996 1.170015 0.05487491
v 4.999996 1.170015 4.917383E-07
v -3.242493E-06 1.170015 4.917383E-07
v -3.242493E-06 1.170015 0.0548751
v -3.242493E-06 -0.2706633 0.0548751
v -4.768372E-06 0.2060695 0.0548751
v 4.999996 0.2060695 0.05487491
v 4.999996 -0.2706633 0.05487491
v -4.768372E-06 0.2060695 0.0548751
v -4.768372E-06 0.2060695 4.917383E-07
v 4.999996 0.2060695 4.917383E-07
v 4.999996 0.2060695 0.05487491

vn 0 0 1
vn 0 0 1
vn 0 0 1
vn 0 0 1
vn 0 0 1
vn 0 0 1
vn 0 0 1
vn 0 0 1
vn 0 0 1
vn 0 0 1
vn 0 0 1
vn 0 0 1
vn 0 -0.9999998 0
vn 0 -0.9999998 0
vn 0 -0.9999998 0
vn 0 -0.9999998 0
vn 0 0 1
vn 0 0 1
vn 0 0 1
vn 0 0 1
vn 0 0.9999998 0
vn 0 0.9999998 0
vn 0 0.9999998 0
vn 0 0.9999998 0
vn 0 -0.9999998 0
vn 0 -0.9999998 0
vn 0 -0.9999998 0
vn 0 -0.9999998 0
vn 0 0 1
vn 0 0 1
vn 0 0 1
vn 0 0 1
vn 0 0.9999998 0
vn 0 0.9999998 0
vn 0 0.9999998 0
vn 0 0.9999998 0

vt 0.4538574 0.1993408
vt 0.4538574 0.1993408
vt 0.4538574 0.1993408
vt 0.4538574 0.1993408
vt 0.489502 0.4411621
vt 0.489502 0.4411621
vt 0.489502 0.4411621
vt 0.489502 0.4411621
vt 0.3239746 0.3969727
vt 0.3239746 0.3969727
vt 0.3239746 0.3969727
vt 0.3239746 0.3969727
vt 0.1708984 0.4003906
vt 0.1708984 0.4003906
vt 0.1708984 0.4003906
vt 0.1708984 0.4003906
vt 0.3239746 0.3969727
vt 0.3239746 0.3969727
vt 0.3239746 0.3969727
vt 0.3239746 0.3969727
vt 0.1708984 0.3994141
vt 0.1708984 0.3994141
vt 0.1708984 0.3994141
vt 0.1708984 0.3994141
vt 0.1708984 0.4003906
vt 0.1708984 0.4003906
vt 0.1708984 0.4003906
vt 0.1708984 0.4003906
vt 0.3239746 0.3969727
vt 0.3239746 0.3969727
vt 0.3239746 0.3969727
vt 0.3239746 0.3969727
vt 0.1708984 0.3994141
vt 0.1708984 0.3994141
vt 0.1708984 0.3994141
vt 0.1708984 0.3994141

g Wall_02_Blue_1089_77
usemtl Wall_02_Blue_1089_77
usemap Wall_02_Blue_1089_77
f 1/1/1 3/3/3 2/2/2
f 1/1/1 4/4/4 3/3/3
f 5/5/5 7/7/7 6/6/6
f 5/5/5 8/8/8 7/7/7
f 9/9/9 11/11/11 10/10/10
f 9/9/9 12/12/12 11/11/11
f 13/13/13 15/15/15 14/14/14
f 13/13/13 16/16/16 15/15/15
f 17/17/17 19/19/19 18/18/18
f 17/17/17 20/20/20 19/19/19
f 21/21/21 23/23/23 22/22/22
f 21/21/21 24/24/24 23/23/23
f 25/25/25 27/27/27 26/26/26
f 25/25/25 28/28/28 27/27/27
f 29/29/29 31/31/31 30/30/30
f 29/29/29 32/32/32 31/31/31
f 33/33/33 35/35/35 34/34/34
f 33/33/33 36/36/36 35/35/35
