#Wall_01_Yellow_1072_11.obj

v 5 0.2060695 0
v 1.907349E-07 0.2060695 0
v 1.907349E-07 4.208395 0
v 5 4.208395 0
v 2.479553E-06 4.208395 0.05487461
v 1.907349E-07 4.414464 0.05487461
v 5 4.414464 0.05487442
v 5 4.208395 0.05487442
v 5 4.208395 0.05487442
v 5 4.208395 0
v 2.479553E-06 4.208395 0
v 2.479553E-06 4.208395 0.05487461
v 2.479553E-06 -0.2706633 0.05487461
v 1.907349E-07 0.2060695 0.05487461
v 5 0.2060695 0.05487442
v 5 -0.2706633 0.05487442
v 1.907349E-07 0.2060695 0.05487461
v 1.907349E-07 0.2060695 0
v 5 0.2060695 0
v 5 0.2060695 0.05487442

vn 0 0 1
vn 0 0 1
vn 0 0 1
vn 0 0 1
vn 0 0 1
vn 0 0 1
vn 0 0 1
vn 0 0 1
vn 0 -1 0
vn 0 -1 0
vn 0 -1 0
vn 0 -1 0
vn 0 0 1
vn 0 0 1
vn 0 0 1
vn 0 0 1
vn 0 1 0
vn 0 1 0
vn 0 1 0
vn 0 1 0

vt 0.4592285 0.2198486
vt 0.4592285 0.2198486
vt 0.4592285 0.2198486
vt 0.4592285 0.2198486
vt 0.3239746 0.3969727
vt 0.3239746 0.3969727
vt 0.3239746 0.3969727
vt 0.3239746 0.3969727
vt 0.1708984 0.4003906
vt 0.1708984 0.4003906
vt 0.1708984 0.4003906
vt 0.1708984 0.4003906
vt 0.3239746 0.3969727
vt 0.3239746 0.3969727
vt 0.3239746 0.3969727
vt 0.3239746 0.3969727
vt 0.1708984 0.3994141
vt 0.1708984 0.3994141
vt 0.1708984 0.3994141
vt 0.1708984 0.3994141

g Wall_01_Yellow_1072_11
usemtl Wall_01_Yellow_1072_11
usemap Wall_01_Yellow_1072_11
f 1/1/1 3/3/3 2/2/2
f 1/1/1 4/4/4 3/3/3
f 5/5/5 7/7/7 6/6/6
f 5/5/5 8/8/8 7/7/7
f 9/9/9 11/11/11 10/10/10
f 9/9/9 12/12/12 11/11/11
f 13/13/13 15/15/15 14/14/14
f 13/13/13 16/16/16 15/15/15
f 17/17/17 19/19/19 18/18/18
f 17/17/17 20/20/20 19/19/19
