#Wheel_fl_1734_34.obj

v 0.3783147 0.832994 -0.4809341
v -0.3783139 0.832994 -0.4809395
v -0.3783065 0.4809297 -0.8329884
v 0.3783091 0.4809297 -0.8329873
v 0.3783091 0.4809297 -0.8329873
v -0.3783065 0.4809297 -0.8329884
v -0.3783124 4.457087E-07 -0.9618605
v 0.3783161 4.457087E-07 -0.9618552
v 0.3783161 4.457087E-07 -0.9618552
v -0.3783124 4.457087E-07 -0.9618605
v -0.3783065 -0.4809288 -0.8329884
v 0.3783091 -0.4809288 -0.8329873
v 0.3783091 -0.4809288 -0.8329873
v -0.3783065 -0.4809288 -0.8329884
v -0.3783139 -0.832993 -0.4809395
v 0.3783147 -0.832993 -0.4809341
v 0.3783147 -0.832993 -0.4809341
v -0.3783139 -0.832993 -0.4809395
v -0.3783153 -0.9618582 3.045043E-06
v 0.3783133 -0.9618582 8.408964E-06
v 0.3783133 -0.9618582 8.408964E-06
v -0.3783153 -0.9618582 3.045043E-06
v -0.3783081 -0.832993 0.4809198
v 0.3783118 -0.832993 0.4809295
v 0.3783118 -0.832993 0.4809295
v -0.3783081 -0.832993 0.4809198
v -0.3783111 -0.4809288 0.8329988
v 0.3783131 -0.4809288 0.8329956
v 0.3783131 -0.4809288 0.8329956
v -0.3783111 -0.4809288 0.8329988
v -0.3783138 4.457087E-07 0.9618537
v 0.3783147 4.457087E-07 0.9618591
v 0.3783147 4.457087E-07 0.9618591
v -0.3783138 4.457087E-07 0.9618537
v -0.3783111 0.4809297 0.8329988
v 0.3783131 0.4809297 0.8329956
v 0.3783131 0.4809297 0.8329956
v -0.3783111 0.4809297 0.8329988
v -0.3783081 0.832994 0.4809198
v 0.3783118 0.832994 0.4809295
v 0.3783118 0.832994 0.4809295
v -0.3783081 0.832994 0.4809198
v -0.3783153 0.9618582 3.045043E-06
v 0.3783133 0.9618582 8.408964E-06
v 0.3783133 0.9618582 8.408964E-06
v -0.3783153 0.9618582 3.045043E-06
v -0.3783139 0.832994 -0.4809395
v 0.3783147 0.832994 -0.4809341
v -0.3783139 0.832994 -0.4809395
v -0.3783153 4.457087E-07 3.045043E-06
v -0.3783065 0.4809297 -0.8329884
v -0.3783153 4.457087E-07 3.045043E-06
v -0.3783124 4.457087E-07 -0.9618605
v -0.3783153 4.457087E-07 3.045043E-06
v -0.3783065 -0.4809288 -0.8329884
v -0.3783153 4.457087E-07 3.045043E-06
v -0.3783139 -0.832993 -0.4809395
v -0.3783153 4.457087E-07 3.045043E-06
v -0.3783153 -0.9618582 3.045043E-06
v -0.3783153 4.457087E-07 3.045043E-06
v -0.3783081 -0.832993 0.4809198
v -0.3783153 4.457087E-07 3.045043E-06
v -0.3783111 -0.4809288 0.8329988
v -0.3783153 4.457087E-07 3.045043E-06
v -0.3783138 4.457087E-07 0.9618537
v -0.3783153 4.457087E-07 3.045043E-06
v -0.3783111 0.4809297 0.8329988
v -0.3783153 4.457087E-07 3.045043E-06
v -0.3783081 0.832994 0.4809198
v -0.3783153 4.457087E-07 3.045043E-06
v -0.3783153 0.9618582 3.045043E-06
v -0.3783153 4.457087E-07 3.045043E-06
v 0.3783091 0.4809297 -0.8329873
v 0.3783161 4.457087E-07 -0.9618552
v 0.3783147 0.832994 -0.4809341
v 0.3783091 -0.4809288 -0.8329873
v 0.3783147 -0.832993 -0.4809341
v 0.3783133 -0.9618582 8.408964E-06
v 0.3783118 -0.832993 0.4809295
v 0.3783131 -0.4809288 0.8329956
v 0.3783147 4.457087E-07 0.9618591
v 0.3783131 0.4809297 0.8329956
v 0.3783118 0.832994 0.4809295
v 0.3783133 0.9618582 8.408964E-06

vn -0.6316094 0.7070931 -0.3179448
vn -0.6316094 0.7070931 -0.3179448
vn -0.6316094 0.7070931 -0.3179448
vn -0.6316094 0.7070931 -0.3179448
vn -0.8627754 0.2588292 -0.4343111
vn -0.8627754 0.2588292 -0.4343111
vn -0.8627754 0.2588292 -0.4343111
vn -0.8627754 0.2588292 -0.4343111
vn -0.8627754 -0.2588292 -0.434311
vn -0.8627754 -0.2588292 -0.434311
vn -0.8627754 -0.2588292 -0.434311
vn -0.8627754 -0.2588292 -0.434311
vn -0.6316092 -0.7070932 -0.3179447
vn -0.6316092 -0.7070932 -0.3179447
vn -0.6316092 -0.7070932 -0.3179447
vn -0.6316092 -0.7070932 -0.3179447
vn -0.2311759 -0.9659273 -0.1163712
vn -0.2311759 -0.9659273 -0.1163712
vn -0.2311759 -0.9659273 -0.1163712
vn -0.2311759 -0.9659273 -0.1163712
vn 0.2311853 -0.9659244 0.1163759
vn 0.2311853 -0.9659244 0.1163759
vn 0.2311853 -0.9659244 0.1163759
vn 0.2311853 -0.9659244 0.1163759
vn 0.6315904 -0.7071143 0.3179352
vn 0.6315904 -0.7071143 0.3179352
vn 0.6315904 -0.7071143 0.3179352
vn 0.6315904 -0.7071143 0.3179352
vn 0.8627797 -0.2588112 0.4343132
vn 0.8627797 -0.2588112 0.4343132
vn 0.8627797 -0.2588112 0.4343132
vn 0.8627797 -0.2588112 0.4343132
vn 0.8627797 0.2588111 0.4343132
vn 0.8627797 0.2588111 0.4343132
vn 0.8627797 0.2588111 0.4343132
vn 0.8627797 0.2588111 0.4343132
vn 0.6315905 0.7071142 0.3179353
vn 0.6315905 0.7071142 0.3179353
vn 0.6315905 0.7071142 0.3179353
vn 0.6315905 0.7071142 0.3179353
vn 0.2311835 0.9659249 0.1163751
vn 0.2311835 0.9659249 0.1163751
vn 0.2311835 0.9659249 0.1163751
vn 0.2311835 0.9659249 0.1163751
vn -0.2311741 0.9659278 -0.1163703
vn -0.2311741 0.9659278 -0.1163703
vn -0.2311741 0.9659278 -0.1163703
vn -0.2311741 0.9659278 -0.1163703
vn -0.4496331 0 0.8932133
vn -0.4496331 0 0.8932133
vn -0.4496331 0 0.8932133
vn -0.4496331 0 0.8932133
vn -0.4496331 0 0.8932133
vn -0.4496331 0 0.8932133
vn -0.4496331 0 0.8932133
vn -0.4496331 0 0.8932133
vn -0.4496331 0 0.8932133
vn -0.4496331 0 0.8932133
vn -0.4496331 0 0.8932133
vn -0.4496331 0 0.8932133
vn -0.4496331 0 0.8932133
vn -0.4496331 0 0.8932133
vn -0.4496331 0 0.8932133
vn -0.4496331 0 0.8932133
vn -0.4496331 0 0.8932133
vn -0.4496331 0 0.8932133
vn -0.4496331 0 0.8932133
vn -0.4496331 0 0.8932133
vn -0.4496331 0 0.8932133
vn -0.4496331 0 0.8932133
vn -0.4496331 0 0.8932133
vn -0.4496331 0 0.8932133
vn 0.4496331 0 -0.8932133
vn 0.4496331 0 -0.8932133
vn 0.4496331 0 -0.8932133
vn 0.4496331 0 -0.8932133
vn 0.4496331 0 -0.8932133
vn 0.4496331 0 -0.8932133
vn 0.4496331 0 -0.8932133
vn 0.4496331 0 -0.8932133
vn 0.4496331 0 -0.8932133
vn 0.4496331 0 -0.8932133
vn 0.4496331 0 -0.8932133
vn 0.4496331 0 -0.8932133

vt 0.005622864 0.9892578
vt 0.005622864 0.9892578
vt 0.005622864 0.9892578
vt 0.005622864 0.9892578
vt 0.005622864 0.9892578
vt 0.005622864 0.9892578
vt 0.005622864 0.9892578
vt 0.005622864 0.9892578
vt 0.005622864 0.9892578
vt 0.005622864 0.9892578
vt 0.005622864 0.9892578
vt 0.005622864 0.9892578
vt 0.005622864 0.9892578
vt 0.005622864 0.9892578
vt 0.005622864 0.9892578
vt 0.005622864 0.9892578
vt 0.005622864 0.9892578
vt 0.005622864 0.9892578
vt 0.005622864 0.9892578
vt 0.005622864 0.9892578
vt 0.005622864 0.9892578
vt 0.005622864 0.9892578
vt 0.005622864 0.9892578
vt 0.005622864 0.9892578
vt 0.005622864 0.9892578
vt 0.005622864 0.9892578
vt 0.005622864 0.9892578
vt 0.005622864 0.9892578
vt 0.005622864 0.9892578
vt 0.005622864 0.9892578
vt 0.005622864 0.9892578
vt 0.005622864 0.9892578
vt 0.005622864 0.9892578
vt 0.005622864 0.9892578
vt 0.005622864 0.9892578
vt 0.005622864 0.9892578
vt 0.005622864 0.9892578
vt 0.005622864 0.9892578
vt 0.005622864 0.9892578
vt 0.005622864 0.9892578
vt 0.005622864 0.9892578
vt 0.005622864 0.9892578
vt 0.005622864 0.9892578
vt 0.005622864 0.9892578
vt 0.005622864 0.9892578
vt 0.005622864 0.9892578
vt 0.005622864 0.9892578
vt 0.005622864 0.9892578
vt 0.005516052 0.9316406
vt 0.005809784 0.8662109
vt 0.005809784 0.9316406
vt 0.005809784 0.8662109
vt 0.005809784 0.9316406
vt 0.005809784 0.8662109
vt 0.005809784 0.9316406
vt 0.005809784 0.8662109
vt 0.005809784 0.9316406
vt 0.005809784 0.8662109
vt 0.005809784 0.9316406
vt 0.005809784 0.8662109
vt 0.005809784 0.9316406
vt 0.005809784 0.8662109
vt 0.005809784 0.9316406
vt 0.005809784 0.8662109
vt 0.005809784 0.9316406
vt 0.005809784 0.8662109
vt 0.005809784 0.9316406
vt 0.005809784 0.8662109
vt 0.005809784 0.9316406
vt 0.005809784 0.8662109
vt 0.005809784 0.9316406
vt 0.005809784 0.8662109
vt 0.00724411 0.9521484
vt 0.00724411 0.9521484
vt 0.00724411 0.9521484
vt 0.00724411 0.9521484
vt 0.00724411 0.9521484
vt 0.00724411 0.9521484
vt 0.00724411 0.9521484
vt 0.00724411 0.9521484
vt 0.00724411 0.9521484
vt 0.00724411 0.9521484
vt 0.00724411 0.9521484
vt 0.00724411 0.9521484

g Wheel_fl_1734_34
usemtl Wheel_fl_1734_34
usemap Wheel_fl_1734_34
f 1/1/1 3/3/3 2/2/2
f 1/1/1 4/4/4 3/3/3
f 5/5/5 7/7/7 6/6/6
f 5/5/5 8/8/8 7/7/7
f 9/9/9 11/11/11 10/10/10
f 9/9/9 12/12/12 11/11/11
f 13/13/13 15/15/15 14/14/14
f 13/13/13 16/16/16 15/15/15
f 17/17/17 19/19/19 18/18/18
f 17/17/17 20/20/20 19/19/19
f 21/21/21 23/23/23 22/22/22
f 21/21/21 24/24/24 23/23/23
f 25/25/25 27/27/27 26/26/26
f 25/25/25 28/28/28 27/27/27
f 29/29/29 31/31/31 30/30/30
f 29/29/29 32/32/32 31/31/31
f 33/33/33 35/35/35 34/34/34
f 33/33/33 36/36/36 35/35/35
f 37/37/37 39/39/39 38/38/38
f 37/37/37 40/40/40 39/39/39
f 41/41/41 43/43/43 42/42/42
f 41/41/41 44/44/44 43/43/43
f 45/45/45 47/47/47 46/46/46
f 45/45/45 48/48/48 47/47/47
f 49/49/49 51/51/51 50/50/50
f 51/51/51 53/53/53 52/52/52
f 53/53/53 55/55/55 54/54/54
f 55/55/55 57/57/57 56/56/56
f 57/57/57 59/59/59 58/58/58
f 59/59/59 61/61/61 60/60/60
f 61/61/61 63/63/63 62/62/62
f 63/63/63 65/65/65 64/64/64
f 65/65/65 67/67/67 66/66/66
f 67/67/67 69/69/69 68/68/68
f 69/69/69 71/71/71 70/70/70
f 71/71/71 49/49/49 72/72/72
f 73/73/73 75/75/75 74/74/74
f 74/74/74 75/75/75 76/76/76
f 76/76/76 75/75/75 77/77/77
f 77/77/77 75/75/75 78/78/78
f 78/78/78 75/75/75 79/79/79
f 79/79/79 75/75/75 80/80/80
f 80/80/80 75/75/75 81/81/81
f 81/81/81 75/75/75 82/82/82
f 82/82/82 75/75/75 83/83/83
f 83/83/83 75/75/75 84/84/84
