#Wheel_1811_32.obj

v -0.1292922 -0.4026139 -0.6973523
v -0.1292922 0.4026141 -0.6973523
v -0.1292855 0.2406117 -0.4167509
v -0.1292855 -0.2406115 -0.4167509
v -0.1292857 -0.805228 -7.188879E-06
v -0.1292857 -0.4812232 -7.188879E-06
v -0.1292935 -0.4026141 0.6973476
v -0.1292811 -0.2406117 0.4167437
v -0.1292935 0.4026139 0.6973476
v -0.1292811 0.2406115 0.4167437
v -0.1292857 0.8052279 -7.188879E-06
v -0.1292857 0.4812232 -7.188879E-06
v -0.1292811 -0.2406117 0.4167437
v -0.1292857 -0.4812232 -7.188879E-06
v -0.1292857 0.4812232 -7.188879E-06
v -0.1292855 -0.2406115 -0.4167509
v -0.1292855 0.2406117 -0.4167509
v -0.1292811 0.2406115 0.4167437
v 0.1293059 -0.4026139 -0.6973527
v 0.1293078 -0.2406115 -0.4167585
v 0.1293078 0.2406117 -0.4167585
v 0.1293059 0.4026141 -0.6973527
v 0.1292982 -0.805228 2.011561E-06
v 0.1292982 -0.4812232 2.011561E-06
v 0.1293046 -0.4026141 0.6973472
v 0.1293028 -0.2406117 0.4167529
v 0.1293046 0.4026139 0.6973472
v 0.1293028 0.2406115 0.4167529
v 0.1292982 0.8052279 2.011561E-06
v 0.1292982 0.4812232 2.011561E-06
v 0.1293028 -0.2406117 0.4167529
v 0.1292982 0.4812232 2.011561E-06
v 0.1292982 -0.4812232 2.011561E-06
v 0.1293078 -0.2406115 -0.4167585
v 0.1293078 0.2406117 -0.4167585
v 0.1293028 0.2406115 0.4167529
v -0.1292857 0.8052279 -7.188879E-06
v -0.1292922 0.4026141 -0.6973523
v 0.1293059 0.4026141 -0.6973527
v 0.1292982 0.8052279 2.011561E-06
v -0.1292935 0.4026139 0.6973476
v -0.1292857 0.8052279 -7.188879E-06
v 0.1292982 0.8052279 2.011561E-06
v 0.1293046 0.4026139 0.6973472
v -0.1292935 -0.4026141 0.6973476
v -0.1292935 0.4026139 0.6973476
v 0.1293046 0.4026139 0.6973472
v 0.1293046 -0.4026141 0.6973472
v -0.1292857 -0.805228 -7.188879E-06
v -0.1292935 -0.4026141 0.6973476
v 0.1293046 -0.4026141 0.6973472
v 0.1292982 -0.805228 2.011561E-06
v -0.1292922 -0.4026139 -0.6973523
v -0.1292857 -0.805228 -7.188879E-06
v 0.1292982 -0.805228 2.011561E-06
v 0.1293059 -0.4026139 -0.6973527
v -0.1292922 0.4026141 -0.6973523
v -0.1292922 -0.4026139 -0.6973523
v 0.1293059 -0.4026139 -0.6973527
v 0.1293059 0.4026141 -0.6973527

vn -0.8297201 0 -0.5581796
vn -0.8297201 0 -0.5581796
vn -0.8297201 0 -0.5581796
vn -0.8297201 0 -0.5581796
vn -0.8297201 0 -0.5581796
vn -0.8297201 0 -0.5581796
vn -0.8297201 0 -0.5581796
vn -0.8297201 0 -0.5581796
vn -0.8297201 0 -0.5581796
vn -0.8297201 0 -0.5581796
vn -0.8297201 0 -0.5581796
vn -0.8297201 0 -0.5581796
vn -0.8297201 0 -0.5581796
vn -0.8297201 0 -0.5581796
vn -0.8297201 0 -0.5581796
vn -0.8297201 0 -0.5581796
vn -0.8297201 0 -0.5581796
vn -0.8297201 0 -0.5581796
vn 0.8297201 0 0.5581796
vn 0.8297201 0 0.5581796
vn 0.8297201 0 0.5581796
vn 0.8297201 0 0.5581796
vn 0.8297201 0 0.5581796
vn 0.8297201 0 0.5581796
vn 0.8297201 0 0.5581796
vn 0.8297201 0 0.5581796
vn 0.8297201 0 0.5581796
vn 0.8297201 0 0.5581796
vn 0.8297201 0 0.5581796
vn 0.8297201 0 0.5581796
vn 0.8297201 0 0.5581796
vn 0.8297201 0 0.5581796
vn 0.8297201 0 0.5581796
vn 0.8297201 0 0.5581796
vn 0.8297201 0 0.5581796
vn 0.8297201 0 0.5581796
vn 0.2790897 0.8660254 -0.41486
vn 0.2790897 0.8660254 -0.41486
vn 0.2790897 0.8660254 -0.41486
vn 0.2790897 0.8660254 -0.41486
vn -0.2790899 0.8660253 0.4148601
vn -0.2790899 0.8660253 0.4148601
vn -0.2790899 0.8660253 0.4148601
vn -0.2790899 0.8660253 0.4148601
vn -0.5581796 0 0.8297201
vn -0.5581796 0 0.8297201
vn -0.5581796 0 0.8297201
vn -0.5581796 0 0.8297201
vn -0.2790897 -0.8660254 0.4148599
vn -0.2790897 -0.8660254 0.4148599
vn -0.2790897 -0.8660254 0.4148599
vn -0.2790897 -0.8660254 0.4148599
vn 0.2790899 -0.8660252 -0.4148602
vn 0.2790899 -0.8660252 -0.4148602
vn 0.2790899 -0.8660252 -0.4148602
vn 0.2790899 -0.8660252 -0.4148602
vn 0.5581796 0 -0.8297201
vn 0.5581796 0 -0.8297201
vn 0.5581796 0 -0.8297201
vn 0.5581796 0 -0.8297201

vt 0.2130127 0.4897461
vt 0.2130127 0.4897461
vt 0.2130127 0.4897461
vt 0.2130127 0.4897461
vt 0.2130127 0.4897461
vt 0.2130127 0.4897461
vt 0.2130127 0.4897461
vt 0.2130127 0.4897461
vt 0.2130127 0.4897461
vt 0.2130127 0.4897461
vt 0.2130127 0.4897461
vt 0.2130127 0.4897461
vt 0.2727051 0.4897461
vt 0.2727051 0.4897461
vt 0.2727051 0.4897461
vt 0.2727051 0.4897461
vt 0.2727051 0.4897461
vt 0.2727051 0.4897461
vt 0.2130127 0.4897461
vt 0.2130127 0.4897461
vt 0.2130127 0.4897461
vt 0.2130127 0.4897461
vt 0.2130127 0.4897461
vt 0.2130127 0.4897461
vt 0.2130127 0.4897461
vt 0.2130127 0.4897461
vt 0.2130127 0.4897461
vt 0.2130127 0.4897461
vt 0.2130127 0.4897461
vt 0.2130127 0.4897461
vt 0.2727051 0.4897461
vt 0.2727051 0.4897461
vt 0.2727051 0.4897461
vt 0.2727051 0.4897461
vt 0.2727051 0.4897461
vt 0.2727051 0.4897461
vt 0.1784668 0.4897461
vt 0.1784668 0.4897461
vt 0.1784668 0.4897461
vt 0.1784668 0.4897461
vt 0.1784668 0.4897461
vt 0.1784668 0.4897461
vt 0.1784668 0.4897461
vt 0.1784668 0.4897461
vt 0.1784668 0.4897461
vt 0.1784668 0.4897461
vt 0.1784668 0.4897461
vt 0.1784668 0.4897461
vt 0.1784668 0.4897461
vt 0.1784668 0.4897461
vt 0.1784668 0.4897461
vt 0.1784668 0.4897461
vt 0.1784668 0.4897461
vt 0.1784668 0.4897461
vt 0.1784668 0.4897461
vt 0.1784668 0.4897461
vt 0.1784668 0.4897461
vt 0.1784668 0.4897461
vt 0.1784668 0.4897461
vt 0.1784668 0.4897461

g Wheel_1811_32
usemtl Wheel_1811_32
usemap Wheel_1811_32
f 1/1/1 3/3/3 2/2/2
f 1/1/1 4/4/4 3/3/3
f 5/5/5 4/4/4 1/1/1
f 5/5/5 6/6/6 4/4/4
f 7/7/7 6/6/6 5/5/5
f 7/7/7 8/8/8 6/6/6
f 9/9/9 8/8/8 7/7/7
f 9/9/9 10/10/10 8/8/8
f 11/11/11 10/10/10 9/9/9
f 11/11/11 12/12/12 10/10/10
f 2/2/2 12/12/12 11/11/11
f 2/2/2 3/3/3 12/12/12
f 13/13/13 15/15/15 14/14/14
f 15/15/15 16/16/16 14/14/14
f 15/15/15 17/17/17 16/16/16
f 18/18/18 15/15/15 13/13/13
f 19/19/19 21/21/21 20/20/20
f 19/19/19 22/22/22 21/21/21
f 23/23/23 19/19/19 20/20/20
f 23/23/23 20/20/20 24/24/24
f 25/25/25 23/23/23 24/24/24
f 25/25/25 24/24/24 26/26/26
f 27/27/27 25/25/25 26/26/26
f 27/27/27 26/26/26 28/28/28
f 29/29/29 27/27/27 28/28/28
f 29/29/29 28/28/28 30/30/30
f 22/22/22 30/30/30 21/21/21
f 22/22/22 29/29/29 30/30/30
f 31/31/31 33/33/33 32/32/32
f 32/32/32 33/33/33 34/34/34
f 32/32/32 34/34/34 35/35/35
f 36/36/36 31/31/31 32/32/32
f 37/37/37 39/39/39 38/38/38
f 37/37/37 40/40/40 39/39/39
f 41/41/41 43/43/43 42/42/42
f 41/41/41 44/44/44 43/43/43
f 45/45/45 47/47/47 46/46/46
f 45/45/45 48/48/48 47/47/47
f 49/49/49 51/51/51 50/50/50
f 49/49/49 52/52/52 51/51/51
f 53/53/53 55/55/55 54/54/54
f 53/53/53 56/56/56 55/55/55
f 57/57/57 59/59/59 58/58/58
f 57/57/57 60/60/60 59/59/59
